<?xml version="1.0" encoding="utf-8"?>
<!-- Generator: Adobe Illustrator 17.1.0, SVG Export Plug-In . SVG Version: 6.00 Build 0)  -->
<svg version="1.2" baseProfile="tiny" xmlns="http://www.w3.org/2000/svg" xmlns:xlink="http://www.w3.org/1999/xlink" x="0px"
	 y="0px" width="64px" height="64px" viewBox="0 0 64 64" xml:space="preserve">
<g id="_x36_4px_Boxes">
	<rect fill="none" width="64" height="64"/>
</g>
<g id="Production">
	<g>
		<path d="M35.3906,1.374c-2.3271,0.3164-3.1386,5.334-3.1386,5.334l0.0108,0.0017c-0.0041,0.0184-0.0097,0.0355-0.0138,0.054
			c-0.709,3.2285,0.6016,5.4267,3.5576,6.0761c2.9571,0.6495,5.1221-1.0449,5.7774-4.0263
			c0.0516-0.2352,0.0688-0.6308,0.1001-0.8545c1.261,0.081,3.0138,0.0253,3.1958-0.8851C45.167,5.6374,37.7178,1.0586,35.3906,1.374
			z"/>
		<path d="M44.2975,35.9528c-3.4487-6.3257-4.2285-7.3802-4.8843-9.8782c-0.5264-2.3185-1.0382-6.8663-1.2729-8.0474
			c-0.4086-2.056-5.1062-4.8137-8.3405-3.7899c-4.5049,1.4268-8.6523,10.6309-9.9248,13.5127
			c-0.9033,2.0781-0.9365,3.9336-0.7891,5.3926c0.181,3.2555,0.3784,22.5084,0.3907,23.509
			c0.0536,4.3662,3.7176,5.2415,4.2675,5.3484c0.0362-0.4244,1.3061-16.2657,1.3061-16.2657s-1.5658-3.6015-2.558-5.8749
			c-0.1178-0.2699,0.0002-0.4807,0.1297-0.4632c0.5422,0.8382,2.5109,3.7132,3.6148,5.4736
			c0.3464,0.5524,0.5558,0.9959,0.5894,1.1873c0.8285,3.5701,1.5956,7.0798,2.7112,11.8281
			c1.0634,4.5265,5.2254,4.117,5.4057,4.0971c-0.5989-6.7128-0.8537-9.6538-1.5365-15.7901
			c-0.2592-1.9204-0.2086-3.154-3.379-10.1023c1.2858-3.1642,3.2542-7.4356,4.9207-10.9559
			c0.1213,0.6005,0.2677,1.2457,0.4591,1.9612c0.9783,3.2779,2.8261,5.5026,3.4766,6.5045c0.3864,0.595,0.8022,1.0474,1.2245,1.4004
			H37c-0.0018,1.7821,0.9708,3,2.6939,3c0.4288,0,0.7053,0,0.9511,0c0.2458,0,0.5271,0.0953,0.479,0.4904
			C41.1109,38.5977,39.3294,59.741,39.1066,62h2.0867c0.3223-2.4261,2.1747-18.4878,2.4188-20.3257
			c0.3769-2.8373,0.6028-3.4898,0.0856-4.6321c-0.1602-0.3521-0.3806-0.6614-0.635-0.9317
			C43.7919,36.1176,44.288,35.956,44.2975,35.9528z"/>
	</g>
</g>
</svg>
