<?xml version="1.0" encoding="utf-8"?>
<!-- Generator: Adobe Illustrator 21.0.2, SVG Export Plug-In . SVG Version: 6.00 Build 0)  -->
<svg version="1.2" baseProfile="tiny" xmlns="http://www.w3.org/2000/svg" xmlns:xlink="http://www.w3.org/1999/xlink" x="0px"
	 y="0px" width="64px" height="64px" viewBox="0 0 64 64" xml:space="preserve">
<g id="Box">
	<rect fill="none" width="64" height="64"/>
</g>
<g id="Icon">
	<g>
		<path d="M47.7,22.6c-1.8-2-5.6-6.2-10.5-7.9c-1.5-0.5-3-0.7-4.7-0.7h-0.1c-1.7,0-3.1,0.2-4.7,0.7c-1.4,0.4-5.9,2.5-9.5,6.4
			c-0.6,0.7-0.7,1.6-0.3,2.4l3.5,5.5c0.7-1.1,1.6-2,2.4-2.7l-1.6-3.2c0,0,1.7-1.4,3.7-2.7c-0.5,1-1,2.3-0.9,3.3
			c0.3,1.8,1.8,2.2,1.8,2.2s-5,2.8-5.4,7c-0.4,4.6,3.8,6,3.5,9.3c-0.3,3.2-1,5.1-1.1,5.3c0.8,0.2,3.1,0.6,6,0.4
			c0.1,0.2,0.1,0.5-0.3,0.7c-0.3,0.2-1.1,0.5-2.7,0.6L27.6,63c0,0,3.6-0.6,3.9-4.2c0,0,0.2-6.5,0.4-11.1c0.6-0.1,0.5-0.2,1.2-0.3
			c0.2,4.5,0.4,11.2,0.4,11.2c0.2,3.8,3.9,4.3,3.9,4.3L38,47.2c1.9,0.1,3.4,0.4,3.4,0.4s-1.4-3.7-1.4-5.9c0-2.2,1.2-6,0.6-10.1
			c0-0.1,0-0.2,0-0.3c1.2-0.1,2.6-0.6,3.7-1.6c1.6-1.5,2.8-3.2,3.8-4.8C48.4,24.2,48.3,23.2,47.7,22.6z M39.9,28.8
			c-0.7-2.5-1.5-4.7-0.7-8c2.7,2,4.4,3.6,4.4,3.6C42.6,25.8,41.1,27.6,39.9,28.8z M32.5,12c3.1,0,5-2.2,5-5.4c0-3.6-1.9-5.6-5-5.6
			c-3.2,0-5,2.3-5,5.6C27.6,10,29.4,12,32.5,12z"/>
	</g>
</g>
</svg>
