<?xml version="1.0" encoding="utf-8"?>
<!-- Generator: Adobe Illustrator 19.1.0, SVG Export Plug-In . SVG Version: 6.00 Build 0)  -->
<svg version="1.2" baseProfile="tiny" xmlns="http://www.w3.org/2000/svg" xmlns:xlink="http://www.w3.org/1999/xlink" x="0px"
	 y="0px" width="64px" height="64px" viewBox="0 0 64 64" xml:space="preserve">
<g id="_x36_4px_Box">
	<rect width="64" height="64"/>
</g>
<g id="Icon">
	<g>
		<path fill="#FFFFFF" d="M34.6219,51.9944c1.9344-2.0438,4.2517-4.9563,5.6174-8.3176c0.8662-2.1332,0.6755-4.0686,0.2496-5.4996
			c-0.7872,0.7838-1.6058,1.5905-2.416,2.1876C36.2065,41.7406,33.4667,42.1,31.9998,42.1c-1.467,0-4.2068-0.3594-6.0728-1.7351
			c-0.5311-0.3915-1.4317-1.205-2.4236-2.1842c-0.4244,1.4271-0.6108,3.3567,0.2574,5.4961
			c1.3687,3.3691,3.6846,6.2803,5.6174,8.3214c0.3569-1.1976,0.7892-2.2877,1.2429-3.5649
			c-0.9783-1.4999-2.2961-3.8301-2.2961-3.8301s1.1221-1.8278,3.675-1.8278s3.675,1.8278,3.675,1.8278s-1.3177,2.3302-2.2961,3.8301
			C33.8348,49.7168,34.2662,50.8015,34.6219,51.9944z"/>
		<path fill="#FFFFFF" d="M21.459,27.9692C22,32,24.5778,35.5863,27.6732,37.85c1.8154,1.3281,6.8375,1.3281,8.6535,0
			C39.4221,35.5863,42,32,42.5408,27.9692C44.4233,27.4653,44.8,25.4238,44.8,24.151c0-1.2726-0.2581-1.9611-0.7841-2.1743
			c-0.2396-0.0968-0.4733-0.1002-0.6844-0.0665c0.4835-3.3569,1.1956-9.8115-0.0615-12.1355
			c-1.5283-2.8256-3.348-4.2173-6.8501-3.2908c-2.297-1.2793-3.8609-2.0801-7.8854-0.9281
			c-2.7963,0.8003-5.8569,2.1073-7.4696,4.288c-1.7083,2.3104-0.9725,8.7151-0.4395,12.0599c-0.2-0.0259-0.4181-0.0172-0.6414,0.073
			C19.4579,22.1899,19.2,22.8784,19.2,24.151C19.2,25.4238,19.5766,27.4653,21.459,27.9692z M29.0267,7.3181
			c1.1475-0.3287,2.0848-0.488,2.8677-0.488c1.4855,0,2.415,0.5846,4.34,1.6565c0.771-0.2036,1.5172-0.4343,2.301-0.4343
			c2.063,0,3.3826,2.2739,3.5846,4.4421c0.2972,3.1906-0.3185,8.8022-0.855,10.8571C41.01,24.3281,40,24.1582,40,24.1582
			c-0.0024,0.0011,0-5.509,0-5.509l-5.2749-3.8501C30.077,17.332,26.043,17.9043,24,18.05c0,0,0.0026,6.1097,0,6.1082
			c0,0-1.0099,0.1699-1.265-0.8068c-0.2253-0.8632-0.6535-3.0402-0.8412-6.2303c-0.065-0.9133-0.0938-1.5984-0.0938-3.1538
			C21.8194,11.604,22.2797,9.2507,29.0267,7.3181z"/>
		<path fill="#FFFFFF" d="M8.8682,41.7212c0.6294-0.6851,1.5464-1.2534,2.9141-1.7974l0.0947-0.1992
			c0.4795-1.0063,1.3628-1.7793,2.4238-2.1206l3.1146-1.0028c-1.0443-0.422-2.1649-0.7603-2.869-0.9489
			c-0.2935-0.0858-0.4926-0.3406-0.5735-0.6301c-0.105-0.3757-0.1365-0.8487-0.1365-0.8487
			c0.781-0.9018,1.3604-1.9852,1.5603-3.4045c0.7861-0.2426,0.9434-1.2256,0.9434-1.8385c0-0.6128-0.1077-0.9443-0.3275-1.047
			c-0.1921-0.0895-0.3706-0.0224-0.4873,0.0436c0.1219-1.252,0.2977-3.8616-0.2307-4.8295
			c-0.5672-1.0389-1.2563-1.4539-2.5705-1.1143c-0.8619-0.469-1.4487-1.0612-2.9589-0.6389
			c-1.0493,0.2933-2.1978,0.826-2.8029,1.6252c-0.679,0.897-0.5159,3.7424-0.4039,5.0156c-0.0746-0.0587-0.3187-0.225-0.5828-0.1019
			c-0.2198,0.1027-0.3275,0.4342-0.3275,1.047c0,0.6129,0.1573,1.5959,0.9435,1.8385c0.1761,1.4678,0.7459,2.5063,1.5109,3.3729
			c0,0-0.0189,0.4437-0.1028,0.8654c-0.0605,0.3044-0.2539,0.5657-0.5554,0.6492c-1.2356,0.3421-4.1539,1.2313-5.1164,2.2356
			C1.0995,39.1735,1,44,1,44h6.4869C7.8882,43.087,8.3417,42.2936,8.8682,41.7212z"/>
		<path fill="#FFFFFF" d="M50.3865,33.9998c-0.0911,0.8093-0.114,0.8647-0.2019,1.3774c-0.0482,0.2817-0.2211,0.5273-0.4938,0.6274
			c-0.4867,0.1788-1.2664,0.4766-2.0923,0.8315l2.3849,0.7678c1.0605,0.3413,1.9438,1.1143,2.4233,2.1211l0.1069,0.2241
			c1.1978,0.5718,2.04,1.1431,2.6182,1.772c0,0,0,0,0.0005,0c0.5035,0.5475,0.9395,1.2992,1.3281,2.1612H63
			c0,0-0.0594-3.9271-1.2819-5.1891c-0.4171-0.4308-1.248-0.9001-2.1619-1.3327c-1.1968-0.5806-2.5345-1.0942-3.2469-1.356
			c-0.2726-0.1002-0.4456-0.3458-0.4938-0.6274c-0.0598-0.3496-0.1268-0.8679-0.1794-1.3043
			c1.805-0.0719,3.2979-0.2465,3.9186-0.4783c0.1226-0.0458,0.1846-0.1561,0.1299-0.2731
			c-0.3397-0.7266-1.2224-3.1164-1.3333-4.3644c-0.2726-3.0632-0.2613-8.5451-4.5412-7.1699c0,0-2.7179-1.7026-4.9254,1.146
			c-1.553,2.0042-1.1747,4.6468-1.2368,6.1204c-0.0442,1.0481-0.9188,3.4681-1.2869,4.0951
			c-0.0784,0.1335-0.0516,0.2686,0.096,0.321C47.1232,33.7068,48.6233,33.8906,50.3865,33.9998z"/>
		<path fill="#FFFFFF" d="M50.8742,41.6235l-0.4537-0.9525c-0.2208-0.4634-0.6229-0.8153-1.1115-0.9726L42.811,37.606
			c0.5206,1.9839,0.4578,4.722-0.4409,6.936c-2.8857,7.1055-9.3945,12.1582-9.6699,12.3701
			c-0.2061,0.1582-0.4531,0.2383-0.7002,0.2383s-0.4941-0.0801-0.7002-0.2383c-0.2754-0.2119-6.7842-5.2646-9.6699-12.3701
			c-0.8889-2.1898-0.9784-4.853-0.4892-6.8291l-6.1661,1.9855c-0.4886,0.1573-0.8907,0.5092-1.1115,0.9726l-0.479,1.0055
			c-1.2771,0.4413-2.3505,0.9398-2.8969,1.5339C7.6137,46.3344,7,59,7,59h50c0,0-0.6137-12.6656-3.4872-15.7896
			C52.9944,42.6466,52.0347,42.118,50.8742,41.6235z"/>
	</g>
</g>
</svg>
