<?xml version="1.0" encoding="utf-8"?>
<!-- Generator: Adobe Illustrator 17.1.0, SVG Export Plug-In . SVG Version: 6.00 Build 0)  -->
<svg version="1.2" baseProfile="tiny" xmlns="http://www.w3.org/2000/svg" xmlns:xlink="http://www.w3.org/1999/xlink" x="0px"
	 y="0px" width="64px" height="64px" viewBox="0 0 64 64" xml:space="preserve">
<g id="_x36_4px_Boxes">
	<rect fill="none" width="64" height="64"/>
	<rect width="64" height="64"/>
</g>
<g id="Production">
	<rect fill="none" width="64" height="64"/>
	<g>
		<path fill="#FFFFFF" d="M52.6128,44.1104c-2.2922-2.4929-9.0969-4.696-11.7958-5.4961c0.0681,0.4524,0.1339,0.9131,0.1947,1.376
			c0.834,6.3721-8.0596,11.8838-8.4385,12.1152c-0.1758,0.1074-0.375,0.1611-0.5732,0.1611s-0.3975-0.0537-0.5732-0.1611
			c-0.1198-0.0732-1.0908-0.6749-2.3359-1.6635c-0.577,2.8892-1.1918,5.9661-1.7095,8.558H32h25
			C57,59,55.4863,47.2344,52.6128,44.1104z"/>
		<path fill="#FFFFFF" d="M20.3444,39.7304c-0.0553-0.0532-0.1036-0.1011-0.1577-0.1535c-3.1195,1.0786-7.1398,2.7285-8.7994,4.5334
			C8.5137,47.2344,7,59,7,59h6.1078l7.4445-18.2364C20.692,40.4156,20.6046,39.981,20.3444,39.7304z"/>
		<path fill="#FFFFFF" d="M31.1541,39.4808c-0.0059,0.433-0.0469,0.864-0.1317,1.2897c-0.0955,0.4791-0.6943,3.4772-1.441,7.2154
			c0.875,0.7657,1.7334,1.4114,2.4187,1.8725c3.3479-2.2528,7.3469-5.9937,6.7496-10.1361c-0.0654-0.454-0.1703-0.947-0.2947-1.4502
			C36.0771,40.4423,33.3237,40.6613,31.1541,39.4808z"/>
		<path fill="#FFFFFF" d="M17.7327,23.14c-0.4841,0.2964-0.626,1.0178-0.4177,2.2733c0.0632,0.3818,0.1809,0.8273,0.3568,1.2689
			c0.1716-0.077,0.3458-0.1392,0.5212-0.1821c0.8884-1.5926,2.1672-1.8739,2.9589-1.8739c0.0397,0,0.0793,0.0015,0.1189,0.0029
			c-0.2244-0.0793-0.4491-0.2462-0.5992-0.5828c-0.3634-0.8147-1.142-2.8923-1.8488-6.0089
			c-0.2136-0.8904-0.3604-1.5605-0.6084-3.096c-0.3771-2.3332-0.2982-4.7314,6.0417-7.7416
			c1.0784-0.512,1.9771-0.8224,2.7493-0.9505c1.4656-0.2429,2.4783,0.1818,4.5526,0.9244c0.7272-0.3272,1.4257-0.6766,2.1989-0.8048
			c1.9907-0.33,3.6582,1.6406,4.2056,3.5848c0.8577,3.0472,1.1873,8.8981,0.9895,11.062c-0.0918,1.0052-1.116,1.0027-1.116,1.0027
			c-0.0022,0.0015-0.901-5.4348-0.901-5.4348l-5.8336-2.9355c-4.1711,3.259-8.0573,4.4834-10.049,4.9613
			c0,0,0.7211,4.3384,0.9369,5.6465c0.3782-0.1594,0.7859-0.2526,1.22-0.2526c1.01,0,2.0214,0.4739,2.8477,1.3343
			c1.6996,1.7699,2.4963,3.5483,2.368,5.2858c-0.0417,0.5659-0.177,1.0555-0.3535,1.4698c0.5332,0.8728,1.2643,2.0767,1.8755,3.1103
			c0.5311,0.8983,0.8893,1.8254,1.0714,2.7559c2.0975-0.1225,4.4381-0.8168,5.4331-1.8327
			c2.6835-2.7394,4.6401-6.6991,4.5144-10.764c1.7747-0.805,1.8125-2.8806,1.6042-4.1363c-0.208-1.2555-0.5752-1.8925-1.129-2.0168
			c-0.2522-0.0563-0.4833-0.0214-0.6862,0.0463c-0.072-3.3908-0.4252-9.8749-2.0454-11.962
			c-1.97-2.5375-3.9927-3.6129-7.2961-2.1261c-2.4753-0.8864-4.1492-1.4206-7.9309,0.3741
			c-2.6278,1.2468-5.4333,3.0368-6.6677,5.4519c-1.3075,2.5587,0.4658,8.7568,1.5388,11.9694
			C18.1519,22.9702,17.9382,23.0145,17.7327,23.14z"/>
		<path fill="#FFFFFF" d="M27.7073,46.137c1.1682-5.8491,1.6643-6.7755,0.8127-8.8747c-0.395-0.9733-1.2551-2.2839-5.1653-8.5574
			c0.0409-0.0529,0.2168-0.227,0.4918,0.0227c0.5753,0.5223,0.9503,0.8973,2.2784,2.064c0.2762-0.8585,0.1823-2.0172-1.6549-3.9303
			c-0.3824-0.3983-0.838-0.6581-1.2609-0.6581c-0.431,0-0.8282,0.2701-1.0795,0.9388c-0.3522-0.1981-0.6793-0.3159-0.9779-0.3159
			c-0.6223,0-1.1199,0.5135-1.46,1.8789c0.0001,0,0.0002,0.0001,0.0002,0.0001c-0.0015,0.0064-0.0035,0.0108-0.0051,0.0173
			c-1.7975-0.642-1.9451,1.3913-1.9937,2.643c-0.0779,2,0.0778,2.8333,4.1768,6.7803c0.9004,0.8668,1.2021,2.2469,0.7235,3.4381
			L15.4841,59h9.6538c0.7725-3.8675,1.7903-8.9628,2.5693-12.8631C27.7073,46.137,27.7073,46.137,27.7073,46.137z"/>
	</g>
</g>
</svg>
