<?xml version="1.0" encoding="utf-8"?>
<!-- Generator: Adobe Illustrator 21.0.2, SVG Export Plug-In . SVG Version: 6.00 Build 0)  -->
<!DOCTYPE svg PUBLIC "-//W3C//DTD SVG 1.1//EN" "http://www.w3.org/Graphics/SVG/1.1/DTD/svg11.dtd">
<svg version="1.1" xmlns="http://www.w3.org/2000/svg" xmlns:xlink="http://www.w3.org/1999/xlink" x="0px" y="0px" width="64px"
	 height="64px" viewBox="0 0 64 64" style="enable-background:new 0 0 64 64;" xml:space="preserve">
<style type="text/css">
	.st0{fill:none;}
</style>
<g id="_x36_4px_Box">
	<rect class="st0" width="64" height="64"/>
</g>
<g id="Icon">
	<g>
		<g>
			<path d="M9.9,40.6c-0.3,0.1-0.6,0.2-0.9,0.2C8.5,41.3,7.9,42,7.4,43c0.9,0.4,3.3,1.4,7.4,2.6c0.8-1.6,1.7-2.8,2.5-3.6
				c-0.6-0.3-1.2-0.6-1.6-0.7l0,0c-0.6-0.3-0.9-0.6-1-1.3l-0.2-0.9c0.4-0.1,0.9-0.2,1.3-0.5c0.7-0.5,2.1-4.5,2-5.9
				c-0.2-1.4-0.4-1.5-0.6-2.8c-0.2-1.3,1-2.6,0.4-4.5c-0.5-1.7-2.6-3.5-5.1-3c-1.9,0.4-2.3,0.7-3.5,1.4c0,0-2.6-0.4-3.8,1
				c-1.8,2.2-0.9,5.3-1.3,8.5c-0.4,2.8-1.9,4-1.9,4c2.3,1.9,5.2,2.7,8.2,3C10.3,40.3,10.2,40.5,9.9,40.6z M3.7,42.2
				c-1.3,0.9-2.2,2.9-2.6,5.4c0.6,0.6,1.4,1.2,2.1,1.7c0.3-1.5,0.7-3.1,1.3-4.8c0.5-1.4,1-2.5,1.6-3.3C5.3,41.4,4.5,41.7,3.7,42.2z
				 M5,50.6c2.4,1.3,5,2.2,7.7,2.8c0.3-1.6,0.7-3.8,1.4-6c-4.2-1.2-6.6-2.2-7.6-2.6C5.8,46.5,5.3,48.7,5,50.6z M42.5,27.3
				c-1.6-1.7-5.3-2.5-6.5-2.8c-0.2,0-0.4-0.2-0.4-0.4c-0.1-0.4-0.1-0.8-0.2-1c1.2-1.2,2-2.7,2.3-4.7c1-0.3,1.2-1.6,1.2-2.3
				c0-0.8-0.1-1.2-0.4-1.3c-0.3-0.1-0.5,0-0.7,0.1c0.2-1.6,0.4-4.9-0.3-6.2c-0.7-1.3-1.6-1.9-3.3-1.4c-1.1-0.6-1.9-1.4-3.8-0.8
				c-1.4,0.4-2.9,1.1-3.6,2.1c-0.9,1.1-0.7,4.7-0.5,6.3c-0.1-0.1-0.4-0.2-0.6-0.1c-0.3,0.1-0.4,0.6-0.4,1.3c0,0.8,0.2,2,1.2,2.3
				c0.3,2.1,1.1,3.5,2.3,4.7c-0.1,0.4-0.1,0.7-0.2,1c0,0.2-0.2,0.4-0.4,0.4c-1.3,0.3-5,1.1-6.5,2.8C20.1,28.8,20,34.9,20,37
				c3.6-0.8,7.7-1.2,12-1.2c4.3,0,8.4,0.4,12,1.2C44,34.8,43.9,28.8,42.5,27.3z M39,32h-2v2h-2v-2h-2v-2h2v-2h2v2h2V32z M60.7,40.6
				c-1-0.7-2.4-0.6-3.7-0.4c0.2-2.4,3.4-5,2.9-11.4c0.2,0,0.3,0,0.4,0c0.8,0,1.5-0.6,1.7-1.3l0.3-0.9c0,0-6.4-3.8-13.5-8.1
				c-0.7-0.4-1.5,0.3-1.5,1.1c0.1,1.2,0.2,2.8,0.3,4.1l-3.4,2.4c0,0,0.8,0.8,3.1,1.5c-0.2,0.9-0.3,1.3-0.2,1.8
				c0,2.3-0.9,2.3-0.9,4.5c0,1.2,0.6,5.2,1.3,5.7c0.8,0.6,3.7,0.7,4.7,0.8c0.1,0.1,0,0.3-0.2,0.4c-0.9,0.4-2.8,0.6-3.8,0.6
				c-1.3,0.7-5,2.7-6.2,4.8c-0.8,1.3-1.5,6.1-1.8,8.9c5.8-0.5,16.4-1.1,22.8-7.3C62.8,46.7,62.7,42,60.7,40.6z M19.2,43.2
				c-2.7,2.2-3.8,6.8-4.4,10.7c3.4,0.6,6.7,0.9,9,1.1c-0.3-2.7-0.9-7.3-1.8-8.9C21.3,44.9,20.3,43.9,19.2,43.2z"/>
		</g>
	</g>
</g>
</svg>
