<?xml version="1.0" encoding="utf-8"?>
<!-- Generator: Adobe Illustrator 21.0.2, SVG Export Plug-In . SVG Version: 6.00 Build 0)  -->
<!DOCTYPE svg PUBLIC "-//W3C//DTD SVG 1.1//EN" "http://www.w3.org/Graphics/SVG/1.1/DTD/svg11.dtd">
<svg version="1.1" xmlns="http://www.w3.org/2000/svg" xmlns:xlink="http://www.w3.org/1999/xlink" x="0px" y="0px" width="64px"
	 height="64px" viewBox="0 0 64 64" style="enable-background:new 0 0 64 64;" xml:space="preserve">
<style type="text/css">
	.st0{fill:none;}
</style>
<g id="_x36_4px_Box">
	<rect class="st0" width="64" height="64"/>
</g>
<g id="Icon">
	<g>
		<g>
			<path d="M23.5,48c0.8,0,1.5-0.7,1.5-1.5S24.3,45,23.5,45S22,45.7,22,46.5S22.7,48,23.5,48z M58.5,45.7L56,45
				c0.1-1.3-0.1-2.5-0.6-3.6l2.8-3.6c0.3-0.4,0.3-1.1-0.2-1.4l-1.6-1.2c-0.4-0.3-1.1-0.3-1.4,0.2l-2.5,3.2c-0.9-0.5-1.8-0.8-2.8-0.8
				l-0.6-3c-0.1-0.5-0.6-0.9-1.2-0.8l-2,0.4c-0.5,0.1-0.9,0.6-0.8,1.2l0.6,3c-0.6,0.3-1.2,0.7-1.7,1.1l-2.5-3.2
				c-0.3-0.4-1-0.5-1.4-0.2l-1.6,1.2c-0.4,0.3-0.5,1-0.2,1.4l3.1,4c-0.4,0.5-0.7,0.9-1.2,1.1c-0.3,0.2-1.2,0.3-1.9,0.5l-0.6-2.1
				c-0.2-0.5-0.7-0.8-1.2-0.7l-1.9,0.6c-0.5,0.2-0.8,0.7-0.7,1.2l0.6,2.1c-0.5,0.3-1,0.7-1.4,1.1l-3.4-2c-0.5-0.3-1.1-0.1-1.4,0.4
				l-1,1.7c-0.3,0.5-0.1,1.1,0.4,1.4l3.8,2.3c-0.1,0.8,0,1.7,0.3,2.5l-3,1.8c-0.5,0.3-0.6,0.9-0.3,1.4l1,1.7
				c0.3,0.5,0.9,0.6,1.4,0.3l3.2-1.9c0.6,0.5,1.3,0.9,2.1,1.2c0.1,0,0.2,0.1,0.3,0.1l-0.9,4c-0.1,0.5,0.2,1.1,0.8,1.2l2,0.4
				c0.5,0.1,1.1-0.2,1.2-0.8l0.9-4.3c1.3,0,2.5-0.2,3.7-0.5l0.8,2.2c0.2,0.5,0.7,0.8,1.3,0.6l1.9-0.6c0.5-0.2,0.8-0.7,0.6-1.3
				L48,56.3c0.2-0.1,0.4-0.2,0.6-0.3c0.8-0.4,1.6-1.1,2.4-1.8l3.3,3.1c0.4,0.4,1,0.4,1.4,0l1.4-1.5c0.4-0.4,0.4-1,0-1.4l-3.4-3.3
				c0.5-0.7,1-1.5,1.3-2.3l2.7,0.7c0.5,0.1,1.1-0.2,1.2-0.7l0.5-1.9C59.4,46.4,59,45.8,58.5,45.7z M52,44.8
				c-0.4,2.8-3.2,6.4-5.4,7.7c-2.3,1.3-6.4,2.1-9,1.1c-1-0.4-1.6-0.9-1.9-1.7c-0.7-2,0.7-2.9,1.3-3.1c0.5-0.2,1.3-0.3,2-0.5
				c1.2-0.2,2.4-0.4,3.4-1c1.6-1,2.3-2.1,3.4-3.8l0.1-0.2c0.4-0.5,1.6-1.6,3.1-1.7c0.9-0.1,1.7,0.3,2.4,1
				C51.7,42.9,52.2,43.4,52,44.8z M22,52c-2.8,0-5-2.2-5-5c0-7.2,0.7-15.5,8.8-24h10.3c3.6,3.8,5.8,7.5,7,11.2c0.4-1,1.2-1.8,2.3-2
				l1.1-0.2c-1.6-4.1-4.1-8.2-8.2-12.3L38,19.2V13c0-1.1-0.9-2-2-2h-2V7h3c0.6,0,1-0.4,1-1V4.5c0-0.9-0.7-1.8-1.6-2
				C35.2,2.3,33.1,2,30,2c-4.9,0-11.9,1.3-14.2,1.8c-0.5,0.1-0.8,0.5-0.8,1V6c0,0.6,0.4,1,1,1h12v2.8l4.1,0.8
				c0.3,0.1,0.3,0.3,0.2,0.4H26c-1.1,0-2,0.9-2,2v6.2l-0.4,0.4C14.3,28.9,13,38.3,13,47c0,5,4,9,9,9h4.1c-0.2-1.2,0.4-2.5,1.5-3.2
				L29,52H22z M23,40.5c0-0.8-0.7-1.5-1.5-1.5S20,39.7,20,40.5s0.7,1.5,1.5,1.5S23,41.3,23,40.5z M33.8,34.7
				c1.3-0.8,2.4-1.4,3.8-1.6c1.5-0.2,2.5,0,3.1,0.1c-0.4-1.1-1-2.1-1.6-3.2c-0.6,0-1.2,0-1.9,0.1c-2,0.2-3.5,1.1-5,2
				c-1.6,1-3,1.8-5.1,1.8c-2.7,0-4.6-0.8-5.5-1.3c-0.4,0.9-0.8,1.9-1.1,2.8c1.4,0.7,3.6,1.5,6.6,1.5C30,36.9,32,35.8,33.8,34.7z"/>
		</g>
	</g>
</g>
</svg>
