<?xml version="1.0" encoding="utf-8"?>
<!-- Generator: Adobe Illustrator 24.0.3, SVG Export Plug-In . SVG Version: 6.00 Build 0)  -->
<svg version="1.1" xmlns="http://www.w3.org/2000/svg" xmlns:xlink="http://www.w3.org/1999/xlink" x="0px" y="0px"
	 viewBox="0 0 64 64" style="enable-background:new 0 0 64 64;" xml:space="preserve">
<style type="text/css">
	.st0{fill:none;}
	.st1{fill:#FF1D25;}
	.st2{fill:#1D1D1B;}
</style>
<g id="Box">
	<rect class="st0" width="64" height="64"/>
</g>
<g id="Icon">
	<path d="M61.2,30.2L32.8,3.3c-0.5-0.4-1.2-0.4-1.6,0L2.8,30.2C2.3,30.7,2,31.3,2,32v1.8C2,34.4,2.5,35,3.2,35H8v25h48V35h4.8
		c0.7,0,1.2-0.5,1.2-1.2V32C62,31.3,61.7,30.7,61.2,30.2z M38.5,20.4c1.7,0,2.8,1.1,2.8,3.2c0,1.8-1,3.1-2.8,3.1
		c-1.8,0-2.8-1.1-2.8-3.1C35.7,21.7,36.7,20.4,38.5,20.4z M25.7,19.5c1.7,0,2.8,1.1,2.8,3.2c0,1.8-1,3.1-2.8,3.1
		c-1.8,0-2.8-1.1-2.8-3.1C22.9,20.8,23.9,19.5,25.7,19.5z M44.1,41.5c-1.8-5.8-1.7-8.3-2.1-9.6c-0.1-0.2-0.3-0.6-0.3-0.6
		c0.4,1.6,0.1,2.3-0.1,3.1c-0.2,0.9-0.4,1.7-0.2,2.6c0.4,1.6,1.7,3.6,1.7,8.7c0,0-0.5-0.2-1.5-0.3c-0.1,0-0.1,0-0.2,0V56
		c0,0-2.5-0.4-2.6-2.7c0,0,0-5.3,0-7.7c-0.3,0-0.7,0.1-1,0.1c0,2.4,0,7.7,0,7.7c-0.2,2.3-2.6,2.7-2.6,2.7v-9.6
		c0.6,0,1.8-0.4,1.8-1.7c0-3.1,0.1-8.1-1.7-8.8c-1.3-0.5-4.8-0.5-5.9,0c-1.9,0.9-2,5.8-1.8,8.8c0.1,1.4,1.2,1.7,1.8,1.7V56
		c-1.7,0-2.9-1-3.1-2.9c0,0-0.4-11.5-0.4-11.6c0-0.1-0.2-0.3-0.4-0.3c-0.2,0-0.4,0.2-0.4,0.3c0,0.1-0.4,11.6-0.4,11.6
		C24.8,55,23.7,56,22,56V31.9c0-0.1-0.4,0-0.6,0.3C21,32.9,21,33.8,21,34.6c0,1.2,0,7.4,0,7.4c-0.8,0-2.2-0.5-2.3-2.3
		c-0.2-4-0.7-11.3,3.2-12.3c2.5-0.7,5.5-0.6,7.7,0c0.7,0.2,1.3,0.6,1.8,1.2c-1,0.5-1.6,1.5-1.6,2.9c0,1.9,1,3,2.8,3
		c1.8,0,2.8-1.2,2.8-3c0-1.1-0.3-1.9-0.9-2.5c0.4-0.4,0.9-0.6,1.4-0.8c0.9-0.3,1.8-0.4,2.7-0.4h0c1,0,1.8,0.1,2.7,0.4
		c1.8,0.6,2.8,2.2,3.2,5.5c0.2,1.5,0.7,2.7,1.1,4.9C45.9,40.4,44.9,41.4,44.1,41.5z"/>
</g>
</svg>
