<?xml version="1.0" encoding="utf-8"?>
<!-- Generator: Adobe Illustrator 17.1.0, SVG Export Plug-In . SVG Version: 6.00 Build 0)  -->
<svg version="1.2" baseProfile="tiny" xmlns="http://www.w3.org/2000/svg" xmlns:xlink="http://www.w3.org/1999/xlink" x="0px"
	 y="0px" width="64px" height="64px" viewBox="0 0 64 64" xml:space="preserve">
<g id="_x36_4px_Boxes">
	<rect fill="none" width="64" height="64"/>
</g>
<g id="Production_diap">
	<rect fill="none" width="64" height="64"/>
	<rect width="64" height="64"/>
	<path fill="#FFFFFF" d="M37.7405,6.7443C29.0072,3.8499,16,9.9612,16,25.0436C16,35,16,42.8333,16,42.8333
		c0,5.6599,2.4958,11.0261,7.1411,13.6252c5.8565,3.277,16.9109,0.8325,16.9109-10.2786c0-5.2892,3.6642-10.784,6.5346-17.9951
		C50.4201,18.5544,46.1196,9.5212,37.7405,6.7443z M38.8754,26.157c-0.5911,0.5153-0.9512,0.3927-1.0412,0.2825
		c0.018-0.1914,0.0452-0.4806,0.0818-0.8714c0.747-8.0277-3.3353-9.1444-7.3431-2.2815c-0.0522,0.0879-0.0976,0.17-0.1475,0.2562
		c6.3185,6.4024,5.5074,12.2716,1.7296,16.2604c-2.1157,2.2338-5.7191,2.9665-7.142,2.0507
		c-2.015-1.2969-1.2549-3.0342,0.1485-4.7493c1.9589-2.394,5.1702-6.8979-0.7868-10.1975c-0.7177-0.3975-0.7279-1.046-0.4958-2.358
		c0.4671-2.6412,4.1817-8.7911,8.2271-10.2702c4.1454-1.5157,8.1319,0.9699,8.8408,5.0927
		C41.3856,21.9229,40.4791,24.7587,38.8754,26.157z"/>
</g>
</svg>
