<?xml version="1.0" encoding="utf-8"?>
<!-- Generator: Adobe Illustrator 17.1.0, SVG Export Plug-In . SVG Version: 6.00 Build 0)  -->
<svg version="1.2" baseProfile="tiny" xmlns="http://www.w3.org/2000/svg" xmlns:xlink="http://www.w3.org/1999/xlink" x="0px"
	 y="0px" width="64px" height="64px" viewBox="0 0 64 64" xml:space="preserve">
<g id="_x36_4px_Boxes">
	<rect fill="none" width="64" height="64"/>
</g>
<g id="Production">
	<rect fill="none" width="64" height="64"/>
	<path d="M58.3401,14.824c-1.4142-1.4142-7.7499-7.7499-9.1641-9.1641c-1.4991-1.4991-3.6987,0.4681-2.7267,2.2176
		c1.1313,2.0365,1.7395,2.984,1.7395,2.984l-5.1636,5.1636c0,0,0.8781,1.7491,2.3942,4.8136
		c0.1477,0.2986-0.0263,0.4092-0.0808,0.4342c0,0-8.1265-8.1253-9.8512-9.85c-1.1591-1.1577-3.4915,0.6255-2.4703,2.4323
		c0.9985,1.7666,2.4159,4.1052,2.4159,4.1052L18.3721,35.0213c-0.5584,0.5584-0.939,1.2696-1.0939,2.0439l-1.7905,9.3717L5.2795,57
		h3.4393l8.8336-8.4854l9.4-1.7709c0.7783-0.1536,1.4932-0.5352,2.0541-1.096l17.0569-17.0569c0,0,2.3385,1.4174,4.1052,2.416
		c1.8067,1.0212,3.5899-1.3113,2.4322-2.4704c-1.7308-1.7308-3.86-3.86-6.0938-6.0938l6.6314-6.6314c0,0,0.9475,0.6081,2.984,1.7395
		C57.872,18.5227,59.8391,16.3231,58.3401,14.824z M39.4361,29.5137l-2.8285-2.8284l-1.4142,2.8284l2.1213,2.1213l-2.1213,2.1213
		l-2.8284-2.8284l-1.4142,2.8284l2.1213,2.1213l-2.1213,2.1213l-2.8285-2.8284l-1.4142,2.8285l2.1213,2.1213l-2.1213,2.1213
		l-4.9497-4.9497l16.2634-16.2635l4.9498,4.9498L39.4361,29.5137z"/>
</g>
</svg>
