<?xml version="1.0" encoding="utf-8"?>
<!-- Generator: Adobe Illustrator 17.1.0, SVG Export Plug-In . SVG Version: 6.00 Build 0)  -->
<svg version="1.2" baseProfile="tiny" xmlns="http://www.w3.org/2000/svg" xmlns:xlink="http://www.w3.org/1999/xlink" x="0px"
	 y="0px" width="64px" height="64px" viewBox="0 0 64 64" xml:space="preserve">
<g id="_x36_4px_Boxes">
	<rect fill="none" width="64" height="64"/>
</g>
<g id="Production">
	<rect fill="none" width="64" height="64"/>
	<g>
		<polygon points="22.6143,9.2344 18.2578,9.2344 18.2578,9.1777 22.5859,2.8047 22.5859,1.4453 16.5762,1.4453 16.5762,2.8467 
			20.6523,2.8467 20.6523,2.9023 16.3242,9.2764 16.3242,10.6348 22.6143,10.6348 		"/>
		<path d="M27.7646,10.7607c2.3955,0,4.3984-1.6807,4.3984-4.8047c0-3.1514-1.8633-4.6367-4.2021-4.6367
			c-2.3955,0-4.4131,1.6816-4.4131,4.8047C23.5479,9.2764,25.4111,10.7607,27.7646,10.7607z M27.8623,2.8047
			c1.4014,0,2.5361,0.9102,2.5361,3.3057c0,2.2549-1.2754,3.1514-2.5361,3.1514c-1.4004,0-2.5488-0.9102-2.5488-3.291
			C25.3135,3.7148,26.5742,2.8047,27.8623,2.8047z"/>
		<path d="M35.5332,7.1191h1.1494l2.1006,3.5156h1.9609l-2.4375-3.9785c1.0234-0.4619,1.667-1.4004,1.667-2.6475
			c0-1.5127-1.1338-2.5635-3.4316-2.5635h-2.6895v9.1895h1.6807V7.1191z M35.5332,2.791h0.8828
			c1.2744,0,1.8066,0.4756,1.8066,1.4141c0,1.0088-0.6582,1.5967-1.666,1.5967h-1.0234V2.791z"/>
		<path d="M45.8105,10.7324c0.9951,0,1.8496-0.084,2.7598-0.2656V6.04h-3.04v1.373h1.415V9.29
			c-0.4062,0.042-0.6445,0.0557-1.0645,0.0557c-1.5693,0-2.8574-1.0645-2.8574-3.207c0-2.2139,1.3164-3.3203,3.1514-3.3203
			c0.7285,0,1.2471,0.0283,2.0029,0.1406l0.126-1.4287c-0.6436-0.127-1.2324-0.1826-2.0732-0.1826
			c-2.8008,0-4.9727,1.583-4.9727,4.959C41.2578,9.248,43.1074,10.7324,45.8105,10.7324z"/>
		<path d="M48,14H16c-1.1045,0-2,0.8955-2,2v47h15v-9h6v9h15V16C50,14.8955,49.1045,14,48,14z M25,47h-6v-6h6V47z M25,37h-6v-6h6V37
			z M25,27h-6v-6h6V27z M35,47h-6v-6h6V47z M35,37h-6v-6h6V37z M35,27h-6v-6h6V27z M45,47h-6v-6h6V47z M45,37h-6v-6h6V37z M45,27h-6
			v-6h6V27z"/>
	</g>
</g>
</svg>
