<?xml version="1.0" encoding="utf-8"?>
<!-- Generator: Adobe Illustrator 17.1.0, SVG Export Plug-In . SVG Version: 6.00 Build 0)  -->
<svg version="1.2" baseProfile="tiny" xmlns="http://www.w3.org/2000/svg" xmlns:xlink="http://www.w3.org/1999/xlink" x="0px"
	 y="0px" width="64px" height="64px" viewBox="0 0 64 64" xml:space="preserve">
<g id="Box">
	<rect width="64" height="64"/>
</g>
<g id="Icon">
	<g>
		<path fill="#FFFFFF" d="M49.0012,54C56.8511,54,63,50.6253,63,46.3214c0-0.6324,0-3.0202,0-3.6548
			C63,38.3673,56.8511,35,49.0012,35C41.1492,35,35,38.3673,35,42.6666c0,0.6346,0,3.0225,0,3.6548
			c0,0.9493,0.3142,1.8492,0.865,2.6819C35.312,49.8288,35,50.7224,35,51.6666v3.6548C35,59.6253,41.1492,63,49.0012,63
			C56.8511,63,63,59.6253,63,55.3214v-3.6548c0-0.2049-0.0266-0.4056-0.0542-0.606c-0.7144,0.8958-4.5718,5.1376-13.6127,5.1376
			c-8.0173,0-10.7806-3.8577-11.0668-4.3807c-0.1169-0.2137-0.2019-0.4362-0.0765-0.5667C40.738,52.9397,44.6016,54,49.0012,54z
			 M37.7012,43c0-2.8444,5.0601-5.15,11.302-5.15s11.302,2.3057,11.302,5.15c0,2.8443-5.0601,5.15-11.302,5.15
			S37.7012,45.8443,37.7012,43z"/>
		<path fill="#FFFFFF" d="M46.8542,44.7261v0.6766h1.5551v-0.5565c0.3837,0.024,1.0024,0.0191,1.4,0.0191v0.5374h1.5168v-0.6166
			c2.7834-0.2999,4.1094-1.2643,4.1094-2.6701c0-0.5469-0.0571-0.7845-0.3076-1.3435H53.072
			c0.2123,0.5182,0.2886,0.7773,0.2886,1.2546c0,0.6166-0.5938,1.1155-2.0344,1.334v-1.7634h-1.5168v1.8928
			c-0.5807,0.0292-0.7961,0.0217-1.4,0v-1.8928h-1.5551v1.7538c-1.4023-0.2089-2.1322-0.6575-2.1322-1.3748
			c0-0.4078,0.0763-0.6454,0.2479-1.1539h-2.168c-0.174,0.4269-0.2312,0.7269-0.2312,1.1226
			C42.5708,43.3611,44.0112,44.3662,46.8542,44.7261z"/>
		<path fill="#FFFFFF" d="M7.3872,44.1104C4.5137,47.2344,3,59,3,59h7.9598c0.5195-2.855,1.7178-10.6568,0.8174-17.6788
			C9.9592,42.1567,8.3078,43.1091,7.3872,44.1104z"/>
		<path fill="#FFFFFF" d="M27.4268,52.1055c-0.3789-0.2314-9.2725-5.7432-8.4385-12.1152c0.0607-0.4629,0.1266-0.9236,0.1947-1.3761
			c-0.7241,0.2147-1.7479,0.533-2.8967,0.9282c0.4573,3.1125,2.11,11.0461,7.7183,19.4577c5.9137,0,2.0049,0,7.9954,0v-9.4706
			c-1.73,1.5262-3.2737,2.4825-3.4268,2.576C28.2217,52.3203,27.7783,52.3203,27.4268,52.1055z"/>
		<path fill="#FFFFFF" d="M40.8,24.151c0-1.2137-0.2422-1.8823-0.7203-2.1279c-0.8393,0.2175-1.6595,0.4285-2.4945,0.6344
			c-0.1047,0.7-0.2139,1.287-0.3202,1.6939C37.01,25.3281,36,25.1582,36,25.1582c-0.0009,0.0004-0.0011-0.952-0.001-2.1271
			c-5.7825,1.2928-10.2032,1.2956-15.9979,0c0.0001,1.1904-0.0002,2.1276-0.0011,2.1271c0,0-1.0099,0.1699-1.265-0.8068
			c-0.0795-0.3046-0.1847-0.908-0.2952-1.6877c-0.8421-0.2074-1.6732-0.4213-2.5197-0.6407
			C15.4421,22.2686,15.2,22.9373,15.2,24.151c0,1.2728,0.3766,3.3143,2.259,3.8182c0.4278,3.1877,2.1379,6.0856,4.3621,8.283
			c-0.205,1.0925-0.4637,2.5928-0.6512,4.0232c-0.4979,3.7977,4.3223,7.8955,6.8301,9.583c1.3445-0.9048,2.7874-2.0522,4-3.3663
			v-3.9434c0-0.4671,0.0563-0.9218,0.139-1.37c-2.7066,0.9063-5.5173,0.0287-7.2166-2.7451
			c2.2642,0.7002,5.9133,0.5068,7.4043-0.5836C35.4221,35.5863,38,32,38.5408,27.9692C40.4233,27.4653,40.8,25.4238,40.8,24.151z"/>
		<path fill="#FFFFFF" d="M43.2161,19.1823C43.6708,19.0781,44,18.6692,44,18.2027v-1.8718c0-0.4272-0.2786-0.7932-0.6797-0.9401
			C42.6165,15.133,41.5826,14.5035,41.3125,13c-0.4062-2.2605-0.8849-9.3017-8.4933-11.3968l-1.4551,7.5317
			C31.2623,9.4521,31.0562,9.4057,31,9.3848V1.2144c-0.0061-0.0009-0.0111-0.0026-0.0172-0.0035
			c-0.0455-0.5175-0.4566-1.0022-0.9778-1.0685c-1.3314-0.168-2.6786-0.168-4.01,0c-0.5211,0.0663-0.9322,0.551-0.9778,1.0685
			C25.0111,1.2119,25.0061,1.2135,25,1.2144v8.1703c-0.0562,0.0209-0.2623,0.0673-0.3641-0.2499l-1.4551-7.5317
			C15.5724,3.6983,15.0937,10.7395,14.6875,13c-0.2701,1.5035-1.304,2.133-2.0078,2.3908C12.2786,15.5377,12,15.9037,12,16.3309
			v1.8718c0,0.4665,0.3292,0.8754,0.7839,0.9796C17.9977,20.3761,22.4033,22,28,22S38.0023,20.3761,43.2161,19.1823z"/>
	</g>
</g>
</svg>
