<?xml version="1.0" encoding="utf-8"?>
<!-- Generator: Adobe Illustrator 19.0.0, SVG Export Plug-In . SVG Version: 6.00 Build 0)  -->
<!DOCTYPE svg PUBLIC "-//W3C//DTD SVG 1.1//EN" "http://www.w3.org/Graphics/SVG/1.1/DTD/svg11.dtd">
<svg version="1.1" xmlns="http://www.w3.org/2000/svg" xmlns:xlink="http://www.w3.org/1999/xlink" x="0px" y="0px" width="64px"
	 height="64px" viewBox="0 0 64 64" enable-background="new 0 0 64 64" xml:space="preserve">
<g id="Box">
	<rect width="64" height="64"/>
</g>
<g id="Icon">
	<g>
		<path fill="#FFFFFF" d="M27.0534,35.6899c-0.1412,1.7384-0.3759,3.8726-0.7243,4.7574c-0.4639,1.1806-1.9258,1.9306-3.0908,2.3554
			c2.2549,4.2813,7.2031,7.1045,8.7617,7.9131c1.5586-0.8086,6.5068-3.6318,8.7617-7.9131
			c-1.165-0.4248-2.6279-1.1757-3.0908-2.3564c-0.1-0.2546-0.1895-0.6229-0.2715-1.0459c-1.6435,1.1204-3.6276,1.4824-5.1955,1.1971
			c-2.2165-0.4034-2.9756-2.0549-3.2561-3.2425c0.001,0.0005,0.002,0.0002,0.0029,0.0007c1.7443,0.9146,4.9101,0.7581,6.648-0.3518
			c2.4406-1.5586,4.6598-6.0019,5.173-9.1846c0.2564-1.5869,0.2568-3.0146,0.193-4.0478c-3.2772-1.5527-6.3217-7.1596-6.3217-7.1596
			c-3.3748,2.7579-8.0321,5.3486-11.5794,6.7934c-0.0865,1.0703-0.1259,2.6816,0.1584,4.414
			C23.642,30.3818,24.8596,33.2837,27.0534,35.6899z"/>
		<path fill="#FFFFFF" d="M16.8198,40.8076c1.7396-0.6159,4.2082-1.0776,7.1107-1.3762c0.1226-0.364,0.2513-1.2043,0.367-2.2488
			c-2.5359,0.2379-4.7763,0.5944-6.5778,1.0596c-0.9696-4.3506-1.5373-8.7529-1.5373-12.0234c0-6.559,2.4998-12.2397,6.526-15.6628
			l-0.2127-2.6109C17.4112,11.526,14,18.0483,14,26.2188c0,3.7255,0.7043,8.9638,1.9518,14.0507
			C16.0546,40.6885,16.4478,40.9395,16.8198,40.8076z"/>
		<path fill="#FFFFFF" d="M46.2798,38.2422c-1.8015-0.4652-4.0418-0.8217-6.5774-1.0596c0.1155,1.0426,0.2441,1.8825,0.3673,2.2488
			c2.9023,0.2986,5.3707,0.7603,7.1105,1.3762c0.3719,0.1319,0.7647-0.1191,0.8679-0.5381C49.2957,35.1826,50,29.9443,50,26.2188
			c0-7.0868-2.6458-14.6951-6.5598-17.6796l-0.2271,2.7894c2.6448,3.0103,4.604,9.0792,4.604,14.8902
			C47.8171,29.4893,47.2495,33.8926,46.2798,38.2422z"/>
		<path fill="#FFFFFF" d="M41.0703,13l0.7075-8.687c-1.0278-0.8267-3.5136-2.1729-8.7856-2.1729s-7.7578,1.3463-8.7857,2.1729
			L24.9141,13H41.0703z M30,7h2V5h2v2h2v2h-2v2h-2V9h-2V7z"/>
		<path fill="#FFFFFF" d="M51.7886,47.2479c-1.6207-1.6938-5.5841-3.239-8.6001-4.2333c-1.8379,4.1794-6.1383,7.7211-10.3201,9.8234
			c-0.5444,0.2737-1.1924,0.2737-1.7368,0c-4.1668-2.095-8.4771-5.6323-10.3202-9.8234c-0.8641,0.2849-1.8054,0.6191-2.7477,0.985
			c2.2381,1.4197,3.7312,3.9131,3.7312,6.7541c0,1.0182-0.1986,1.9889-0.547,2.8855c0.6925-0.5297,1.437-1.0393,2.256-1.5074
			l0.27-0.1543l0.3101,0.0259C24.5443,52.0425,35.2311,53.0416,47.5669,62H57C57,62,54.5469,50.1317,51.7886,47.2479z"/>
		<path fill="#FFFFFF" d="M13.7949,58.7537c-2.1156,0-4.0365-0.8313-5.4685-2.177C7.5106,59.533,7,62,7,62h7.6936
			c0.4512-1.0242,1.168-2.4018,2.2301-3.8846C15.962,58.5256,14.9047,58.7537,13.7949,58.7537z"/>
		<path fill="#FFFFFF" d="M7.7949,50.7537c0,3.3084,2.6916,6,6,6s6-2.6916,6-6s-2.6916-6-6-6c-0.9158,0-1.7809,0.2122-2.5581,0.5807
			c-0.1351-0.8371-0.561-1.5475-1.4095-2.1172C9.4965,42.9951,9.0469,42.8941,9,43.1553c0.8854,1.2218,1.1689,2.748,0.5043,3.4126
			C8.4485,47.6499,7.7949,49.1261,7.7949,50.7537z M14.323,48.3443c0.505-0.3288,1.1781-0.1816,1.5034,0.3286
			c0.3253,0.5103,0.1797,1.1905-0.3252,1.5193c-0.505,0.3287-1.1781,0.1816-1.5034-0.3287
			C13.6724,49.3532,13.8181,48.6731,14.323,48.3443z M12.9077,53.9353c0.7257-0.0929,1.523-0.4317,2.2878-0.961
			s1.3656-1.1579,1.7135-1.8081c0.0942-0.1761,0.3536-0.1106,0.3659,0.0893c0.0602,0.9864-0.3289,2.2185-1.2897,2.8834
			c-0.9608,0.6649-2.2386,0.5863-3.1273,0.1733C12.6778,54.2285,12.7111,53.9604,12.9077,53.9353z M11.2197,50.3864
			c0.5049-0.3288,1.1781-0.1817,1.5034,0.3286c0.3253,0.5103,0.1797,1.1905-0.3252,1.5192
			c-0.505,0.3288-1.1781,0.1816-1.5035-0.3287C10.5691,51.3953,10.7148,50.7151,11.2197,50.3864z"/>
		<path fill="#FFFFFF" d="M28.4962,59.9839c-0.41,0.0819-0.4848-0.1723-0.4962-0.2467l5.6181-3.1254
			c-4.836-1.887-8.378-2.4517-9.4003-2.581c-3.9663,2.3613-6.1923,5.7461-7.3087,7.9692h27.1194
			c-2.8574-1.8709-5.5859-3.3007-8.0693-4.407L28.4962,59.9839z"/>
	</g>
</g>
</svg>
