<?xml version="1.0" encoding="utf-8"?>
<!-- Generator: Adobe Illustrator 19.0.0, SVG Export Plug-In . SVG Version: 6.00 Build 0)  -->
<!DOCTYPE svg PUBLIC "-//W3C//DTD SVG 1.1//EN" "http://www.w3.org/Graphics/SVG/1.1/DTD/svg11.dtd">
<svg version="1.1" xmlns="http://www.w3.org/2000/svg" xmlns:xlink="http://www.w3.org/1999/xlink" x="0px" y="0px" width="64px"
	 height="64px" viewBox="0 0 64 64" enable-background="new 0 0 64 64" xml:space="preserve">
<g id="Box">
	<rect width="64" height="64"/>
</g>
<g id="Icon">
	<g>
		<g>
			<path fill="#FFFFFF" d="M16.459,27.9692c0.4278,3.1878,2.138,6.0856,4.3622,8.283c-0.205,1.0925-0.4638,2.5928-0.6513,4.0232
				c-0.4978,3.7977,4.3223,7.8955,6.8301,9.583c3.3478-2.2528,7.3307-5.9913,6.7496-10.1361
				c-3.6961,2.9641-7.6596,2.0292-9.6271-0.9867l-0.0103-0.001c-0.0409-0.062-0.069-0.1147-0.1054-0.1737
				c-0.0273-0.0444-0.0572-0.0829-0.0844-0.1273c2.2642,0.7002,5.9134,0.5068,7.4043-0.5836C34.4221,35.5863,37,32,37.5408,27.9692
				C39.4233,27.4653,39.8,25.4238,39.8,24.151c0-1.2726-0.2581-1.9611-0.7841-2.1743c-0.2395-0.0968-0.4732-0.1002-0.6844-0.0665
				c0.4834-3.357,1.1956-9.8116-0.0615-12.1355c-1.5284-2.8256-3.348-4.2173-6.8501-3.2908
				c-2.297-1.2793-3.8609-2.0801-7.8854-0.9281c-2.7963,0.8003-5.8569,2.1073-7.4696,4.288
				c-1.7083,2.3104-0.9726,8.715-0.4395,12.0599c-0.2-0.0259-0.4181-0.0172-0.6415,0.073C14.4579,22.1899,14.2,22.8784,14.2,24.151
				C14.2,25.4238,14.5766,27.4653,16.459,27.9692z M16.8,13.9673c0.0097-2.3634,0.4797-4.7165,7.2267-6.6492
				c1.1475-0.3287,2.0848-0.488,2.8677-0.488c1.4855,0,2.415,0.5846,4.34,1.6565c0.771-0.2039,1.5172-0.4343,2.301-0.4343
				c2.0178,0,3.3405,2.2168,3.5625,4.2243c0.3478,3.1465-0.284,8.9724-0.8329,11.0748C36.01,24.3281,35,24.1582,35,24.1582
				c-0.0024,0.0011,0-5.509,0-5.509l-5.2749-3.8501C25.077,17.332,21.043,17.9043,19,18.05c0,0,0.0026,6.1098,0,6.1082
				c0,0-1.0099,0.1699-1.265-0.8068c-0.2253-0.8631-0.6535-3.0401-0.8411-6.2303C16.8289,16.2078,16.7936,15.5227,16.8,13.9673z"/>
		</g>
		<g>
			<path fill="#FFFFFF" d="M36.0117,39.9902c0.834,6.3721-8.0596,11.8838-8.4385,12.1153c-0.1757,0.1074-0.375,0.1611-0.5732,0.1611
				c-0.1982,0-0.3975-0.0537-0.5732-0.1611c-0.3789-0.2315-9.2725-5.7432-8.4385-12.1153c0.0607-0.4629,0.1266-0.9235,0.1947-1.3761
				c-2.6989,0.8002-9.5036,3.0033-11.7958,5.4963C3.5137,47.2344,2,59,2,59h38c-0.0001-0.0897,0-12.9703,0-13.5263
				c0-2.1589,0.0862-3.7639,1.0483-5.0756c-2.0495-0.8039-4.0402-1.4308-5.2313-1.7838
				C35.8851,39.0667,35.951,39.5273,36.0117,39.9902z"/>
		</g>
		<g>
			<path fill="#FFFFFF" d="M47,46.6216v7.1011c3.168,0.4594,7.8428,0.4575,11-0.003v-7.101
				C54.7646,47.0542,50.2417,47.0562,47,46.6216z"/>
		</g>
		<g>
			<path fill="#FFFFFF" d="M59.7857,41c-0.8403-0.3695-1.1922-1.0562-1.3382-1.6804c-2.087-0.3651-6.0778-0.9638-6.2046-0.9908
				C51.9951,38.2761,51.9519,38.1035,52,38h8v-5.5555C60,31.6467,59.2931,31,58.4211,31H46.5789C45.7069,31,45,31.6467,45,32.4445
				V38h1.6191c0.0011,0.0063,0.3741,2.2178-1.4048,3C43,41.9737,43,42.4737,43,45.4737c0,0.5578,0.0228,13.5252,0.0228,13.5252
				C43.0263,60.8521,49.9075,61,52.5,61c2.5925,0,9.5-0.1479,9.5-2.0011c0-13.5252,0-12.9674,0-13.5252
				C62,42.4737,62,41.9737,59.7857,41z M60,55.4014l-0.8188,0.1508c-1.8301,0.3374-4.2066,0.5235-6.6924,0.5235
				c-2.4727,0-4.8413-0.1846-6.669-0.5195L45,55.4063V44.2524l1.1802,0.2164c1.7129,0.3134,3.9531,0.4863,6.3086,0.4863
				c2.3603,0,4.605-0.1734,6.3198-0.4883l0.1807-0.0166h1l0.0107,1V55.4014z"/>
		</g>
	</g>
</g>
</svg>
