<?xml version="1.0" encoding="utf-8"?>
<!-- Generator: Adobe Illustrator 19.1.0, SVG Export Plug-In . SVG Version: 6.00 Build 0)  -->
<svg version="1.2" baseProfile="tiny" xmlns="http://www.w3.org/2000/svg" xmlns:xlink="http://www.w3.org/1999/xlink" x="0px"
	 y="0px" width="64px" height="64px" viewBox="0 0 64 64" xml:space="preserve">
<g id="Box">
	<rect fill="none" width="64" height="64"/>
</g>
<g id="Icon">
	<g>
		<path d="M46.4156,50.77C47.3373,53.2387,49.7099,55,52.5,55c3.5898,0,6.5-2.9102,6.5-6.5c0-1.1473-0.2998-2.2234-0.8215-3.1591
			L46.4156,50.77z"/>
		<path d="M14.5,40C10.3578,40,7,43.3578,7,47.5s3.3578,7.5,7.5,7.5s7.5-3.3578,7.5-7.5S18.6422,40,14.5,40z M14.5,51
			c-1.933,0-3.5-1.567-3.5-3.5s1.567-3.5,3.5-3.5s3.5,1.567,3.5,3.5S16.433,51,14.5,51z"/>
		<path d="M51.6857,28h2.9808c1.2865,0,2.3965-0.9026,2.6589-2.162L60,13h-8.8405C52.0281,16.1323,52.5924,20.9493,51.6857,28z"/>
		<path d="M61.9726,40.6641C61.8126,39.6807,60.8892,39,59.8929,39H58c-4.5-7.1-13.7-6.9-13.7-6.9L41.6,45H29V32.8528
			c-1.2007-0.1807-4.8203-0.7407-8.5579-1.47c-0.3203-0.0625-0.2812-0.2969-0.2443-0.3828H29c0,0,3-3.69,1.6-6.59
			C29.2,21.51,18,24,18,24c-0.2915-1.8809-0.6176-3.5344-0.9674-5h7.4756C25.3321,19,26,18.3321,26,17.5082v-0.0164
			C26,16.6679,25.3321,16,24.5082,16h-8.3044c-2.0016-6.2158-4.4971-7.6154-6.207-7.8829C8.9478,7.9529,8.041,8.8712,8.1329,9.929
			l1.6354,18.4067c0.1311,1.5074,1.3972,2.7774,2.9102,2.7774C6.6543,31.889,2,37.0253,2,43.2607v0.814
			C2,45.6903,3.3097,47,4.9253,47c0.2754-5.3317,4.8871-9.5167,10.3832-9.0668c5.0284,0.4116,8.7915,4.8301,8.7915,9.8754V49H45
			l13-6h2C61.2147,43,62.1765,41.9171,61.9726,40.6641z"/>
		<path d="M37,16h3.2516c3.0377,5.6995,4.1564,12.1592,4.312,13.9036c0.6737,0.0116,2.3815,0.0916,4.5188,0.6061
			c2.1958-12.7952-0.3804-18.5811-1.4644-20.3466c-0.2316-0.3771-0.6854-0.5643-1.1108-0.4426
			C42.9958,10.725,40.8056,12.835,39.8123,14H37c-0.5523,0-1,0.4477-1,1S36.4477,16,37,16z"/>
	</g>
</g>
</svg>
