<?xml version="1.0" encoding="utf-8"?>
<!-- Generator: Adobe Illustrator 19.1.0, SVG Export Plug-In . SVG Version: 6.00 Build 0)  -->
<svg version="1.2" baseProfile="tiny" xmlns="http://www.w3.org/2000/svg" xmlns:xlink="http://www.w3.org/1999/xlink" x="0px"
	 y="0px" width="64px" height="64px" viewBox="0 0 64 64" xml:space="preserve">
<g id="_x36_4px_Box">
	<rect width="64" height="64"/>
</g>
<g id="Icon">
	<g>
		<path fill="#FFFFFF" d="M57.9623,42.5056c-1.5538-1.624-5.3538-3.1054-8.2454-4.0587c-1.7622,4.007-5.8853,7.4026-9.8945,9.4182
			c-0.522,0.2624-1.1432,0.2624-1.6652,0c-3.9949-2.0085-8.1275-5.4-9.8945-9.4182c-0.3329,0.1097-0.6801,0.2281-1.0322,0.3513
			c0.1266,0.2562,0.2377,0.5218,0.3194,0.8024L32.042,55h2.0884c0.6137-2.3383,3.3618-4,6.8696-4s6.2559,1.6617,6.8696,4H48
			c1.1045,0,2,0.8955,2,2c0,1.9579-0.8104,3.7283-2.1105,5H62C62,62,60.6068,45.2704,57.9623,42.5056z"/>
		<path fill="#FFFFFF" d="M24.4356,36.3214c1.6678-0.5906,4.0347-1.0332,6.8175-1.3195c0.1175-0.349,0.2408-1.1547,0.3518-2.1561
			c-2.4313,0.2281-4.5793,0.5699-6.3065,1.0159c-0.9296-4.1711-1.4739-8.392-1.4739-11.5276
			c0-9.2355,5.1619-16.6659,12.5518-18.0694c3.9924-0.7568,5.7956,1.1921,6.7554,2.0964c0.8816-0.1923,1.3553-0.3445,2.2576-0.3445
			c0.7505,0,1.8538,0.1263,2.8521,0.7293c3.2608,1.9709,5.9132,8.9631,5.9132,15.5883c0,3.1356-0.5441,7.3574-1.4739,11.5276
			c-1.7272-0.446-3.8751-0.7878-6.3062-1.0159c0.1108,0.9996,0.2341,1.8048,0.3522,2.1561
			c2.7826,0.2863,5.1492,0.7289,6.8172,1.3195c0.3566,0.1264,0.7333-0.1143,0.8322-0.5159
			c1.1962-4.8771,1.8714-9.8994,1.8714-13.4713c0-7.1757-2.827-14.9174-6.9301-17.3967c-2.6157-1.5806-5.5565-0.8707-5.5565-0.8707
			s-2.8275-2.814-7.7724-1.8749c-8.0677,1.5327-14.2563,9.3525-14.2563,20.1423c0,3.572,0.6752,8.5942,1.8713,13.4713
			C23.702,36.2072,24.079,36.4478,24.4356,36.3214z"/>
		<path fill="#FFFFFF" d="M30.5894,38.2343c2.1619,4.1047,6.9061,6.8115,8.4004,7.5867c1.4943-0.7753,6.2385-3.4821,8.4003-7.5867
			c-1.1169-0.4073-2.5195-1.1273-2.9633-2.2593c-0.0959-0.2441-0.1817-0.5972-0.2603-1.0027
			c-1.5757,1.0742-3.478,1.4213-4.9812,1.1478c-2.1251-0.3868-2.8529-1.9702-3.1218-3.1088
			c0.0009,0.0004,0.0019,0.0002,0.0028,0.0007c1.6723,0.8768,4.7076,0.7268,6.3738-0.3373c2.34-1.4943,4.4676-5.7545,4.9597-8.8058
			c0.2458-1.5215,0.2462-2.8903,0.1851-3.8809c-2.0777-1.3317-3.9148-3.1324-5.2156-5.7744
			c0.5109-0.9188,0.9628-1.7377,1.3544-2.4556c0.3401-0.6236-0.0197-0.6544-0.0197-0.6544
			c-3.0911,3.3387-9.0217,6.798-13.282,8.5332c-0.0829,1.0262-0.1207,2.571,0.1519,4.2321c0.4026,2.4568,1.57,5.239,3.6734,7.546
			c-0.1354,1.6667-0.3604,3.7128-0.6945,4.5611C33.108,37.1078,31.7064,37.827,30.5894,38.2343z"/>
		<path fill="#FFFFFF" d="M41,53c-2.1739,0-4.0051,0.8375-4.6938,2h9.3877C45.0051,53.8375,43.1739,53,41,53z"/>
		<path fill="#FFFFFF" d="M30.5417,57L25.63,40.16C25.2567,38.88,24.0833,38,22.75,38H3.2667c-1.1333,0-1.9493,1.088-1.632,2.176
			L7.37,59.84C7.7433,61.12,8.9167,62,10.25,62H43c2.7614,0,5-2.2386,5-5H30.5417z"/>
	</g>
</g>
</svg>
