<?xml version="1.0" encoding="utf-8"?>
<!-- Generator: Adobe Illustrator 19.1.0, SVG Export Plug-In . SVG Version: 6.00 Build 0)  -->
<svg version="1.2" baseProfile="tiny" xmlns="http://www.w3.org/2000/svg" xmlns:xlink="http://www.w3.org/1999/xlink" x="0px"
	 y="0px" width="64px" height="64px" viewBox="0 0 64 64" xml:space="preserve">
<g id="_x36_4px_Box">
	<rect fill="none" width="64" height="64"/>
</g>
<g id="Icon">
	<g>
		<path d="M30.5417,57L25.63,40.16C25.2567,38.88,24.0833,38,22.75,38H3.2667c-1.1333,0-1.9493,1.088-1.632,2.176L7.37,59.84
			C7.7433,61.12,8.9167,62,10.25,62H43c2.7614,0,5-2.2386,5-5H30.5417z"/>
		<path d="M56.855,42.2576c-2.2809-2.3838-8.5297-3.8482-10.2179-5.1995c-0.0896-0.7872-0.2209-1.7509-0.357-2.6802
			c2.6157,0.2761,4.8391,0.5934,6.4194,1.1484c0.3477,0.1222,0.7149-0.1105,0.8113-0.499c1.1663-4.7169,1.6763-7.8965,1.6763-11.351
			c0-6.9399-2.6081-14.3531-6.6086-16.7509c-2.5504-1.5286-5.4177-0.9719-5.4177-0.9719S40.404,3.2988,35.5826,4.207
			c-7.8662,1.4823-13.7611,9.0341-13.7611,19.4694c0,3.4545,0.5192,6.6341,1.6855,11.351c0.0959,0.3885,0.4636,0.6212,0.8113,0.499
			c1.6891-0.5933,3.9747-0.9333,6.8284-1.2071c-0.1036,0.8718-0.2183,1.8492-0.3312,2.8403
			c-0.6159,0.4397-2.0284,0.9203-3.6614,1.5026c0.1589,0.2973,0.299,0.6066,0.3956,0.9385L32.042,55H36c0-1.6569,2.2386-3.12,5-3.12
			s5,1.4631,5,3.12h2c1.1045,0,2,0.8955,2,2c0,1.9579-0.8104,3.7283-2.1105,5H61.76C61.76,62,59.4126,44.9316,56.855,42.2576z
			 M38.5527,46.5977c-1.3782-0.5913-5.6962-2.6713-7.7825-6.3043c2.6718-1.1065,2.5156-2.108,2.5622-2.519
			c0.0609-0.5368,0.5354-4.9362,0.5354-4.9362c-2.3348-2.2996-3.3364-5.1661-3.7613-7.6777
			c-0.2717-1.6039-0.2348-3.0971-0.1522-4.0894c4.4524-1.7555,10.7603-5.3292,13.1999-8.3983c0,0,0.2969,0.0136,0.1089,0.4667
			c-0.3196,0.7701-0.7867,1.6797-1.4361,2.7607c1.1506,2.4429,3.2207,4.2306,5.2631,5.499
			c0.0614,0.9588,0.0614,2.2861-0.1844,3.7613c-0.4913,2.9512-2.6156,7.0712-4.9518,8.5164
			c-1.5959,0.9874-4.5189,1.1439-6.2233,0.4083c0.3927,0.7785,1.1804,1.7036,2.9252,2.1385c2.351,0.5854,4.499-0.3753,5.053-0.6971
			c0.1036,0.7371,0.2,1.4753,0.2676,2.1129c0.0426,0.4012,0.1467,1.3846,2.8995,2.6703
			C44.7251,44.0433,40.0146,46.048,38.5527,46.5977z"/>
	</g>
</g>
</svg>
