<?xml version="1.0" encoding="utf-8"?>
<!-- Generator: Adobe Illustrator 24.0.3, SVG Export Plug-In . SVG Version: 6.00 Build 0)  -->
<svg version="1.1" xmlns="http://www.w3.org/2000/svg" xmlns:xlink="http://www.w3.org/1999/xlink" x="0px" y="0px"
	 viewBox="0 0 64 64" style="enable-background:new 0 0 64 64;" xml:space="preserve">
<style type="text/css">
	.st0{fill:none;}
	.st1{fill:#FF1D25;}
	.st2{fill:#1D1D1B;}
</style>
<g id="Box">
	<rect class="st0" width="64" height="64"/>
</g>
<g id="Icon">
	<g>
		<path d="M54,19.9L47.6,22c-2.4,0.8-4.1-0.6-5.1-1.3c-2.2-1.5-5.1-1.5-7.3,0.1c-1.6,1.1-3.9,3-7,4.9l4.7,4.7c0.1,0,0.1-0.1,0.2-0.1
			c5.3-2.1,5.8-3.5,8.8-1l10.3,8.4c7-2.2,8.3-4.3,8.3-4.3L54,19.9z"/>
		<path d="M26.3,48.8l0.4-0.4c1.3-1.1,1.3-3.3,0.2-4.7c-0.7-0.9-2-1.4-3.1-1.3c1-3.5-3.1-5.8-5.3-4l-1,0.9c0-3.2-3.6-4.8-5.8-2.9
			l-2.5,2.1c-2.1,1.7-1.8,3.9-0.7,5.2c1.2,1.4,3,1.5,4.3,0.9c-0.1,0.9,0.2,1.9,0.8,2.6c0.7,0.9,2,1.4,3.1,1.3
			c-0.3,1.1-0.1,2.4,0.7,3.3c0.9,1.1,2.4,1.6,3.7,1.2c-0.1,1,0.1,2.1,0.8,2.9c1.1,1.3,3.3,1.7,4.9,0.4l1.2-1c1.7-1.4,1.7-3.7,0.7-5
			C28.1,49.3,27.2,48.9,26.3,48.8z"/>
		<path d="M29.1,22.5l-2.3-1.6c-1.4-0.9-3-1.3-4.6-1.1l4.4,4.4C27.5,23.6,28.3,23,29.1,22.5z"/>
		<path d="M49.8,38.5l-9.2-7.4c-0.8-0.7-1.2-0.8-1.4-0.8c-0.4,0-1.2,0.4-2.2,0.8c-0.7,0.3-1.4,0.7-2.4,1.1l11.2,11.2c0,0,0,0,0,0
			C48.7,43.8,50.9,40.4,49.8,38.5z"/>
		<path d="M4.4,9.3l12.8,12.8c-0.8,0.3-1.7,0.3-2.8,0L8,20L1.4,33.5c0,0,1,1.6,6,3.5c0.1-0.1,0.2-0.2,0.3-0.3l2.5-2.1
			c1-0.8,2.3-1.3,3.6-1.3c1.5,0,3,0.6,4.1,1.7c0.2,0.2,0.5,0.5,0.7,0.8c0.5-0.2,1.1-0.3,1.6-0.3c0,0,0,0,0,0c1.8,0,3.6,0.9,4.7,2.4
			c0.6,0.8,0.9,1.6,1.1,2.6c1,0.3,1.9,0.9,2.5,1.7c0.9,1,1.3,2.5,1.3,3.9c0,0.6-0.1,1.2-0.3,1.7c0.3,0.2,0.5,0.5,0.7,0.7
			c0.9,1.1,1.4,2.6,1.2,4.1c-0.1,1-0.4,1.9-1,2.8c3,2.4,6.1-0.8,6.4-2.9c2.6-0.3,4.1-1.7,4.3-4.6c0.5,0,1.1-0.1,1.6-0.3L55,59.9
			l2.1-2.1L6.5,7.2L4.4,9.3z M26.5,34.1c-2.1,0-3.7-0.6-4.7-1.9c-0.7-0.9-1-2.1-0.7-3.2c0.2-0.7,0.5-1.4,1.1-2l1.6,1.6
			c-0.6,0.7-0.7,1.7-0.1,2.3c0.7,0.9,2,1.1,3.5,1.1l2,2C28.1,34,27.3,34.1,26.5,34.1z"/>
	</g>
</g>
</svg>
