<?xml version="1.0" encoding="utf-8"?>
<!-- Generator: Adobe Illustrator 24.1.0, SVG Export Plug-In . SVG Version: 6.00 Build 0)  -->
<svg version="1.1" xmlns="http://www.w3.org/2000/svg" xmlns:xlink="http://www.w3.org/1999/xlink" x="0px" y="0px"
	 viewBox="0 0 64 64" style="enable-background:new 0 0 64 64;" xml:space="preserve">
<style type="text/css">
	.st0{fill:none;}
	.st1{fill:#FF1D25;}
	.st2{fill:#1D1D1B;}
</style>
<g id="Box">
	<rect class="st0" width="64" height="64"/>
</g>
<g id="Icon">
	<g>
		<path d="M8.34,24.02c0.9,1.51-1.16,4.82-2.24,6.41c-0.14,0.2,0.1,0.44,0.3,0.31c1.57-1.01,5.01-2.89,6.39-2.27
			c1.35,0.61,2.47,5.3,2.88,7.15c0.05,0.24,0.39,0.23,0.43-0.01c0.3-1.79,1.51-6.39,2.97-7.15c1.32-0.69,4.88,1.1,6.39,2.19
			c0.2,0.14,0.45-0.09,0.31-0.3c-1.04-1.58-2.94-4.71-2.26-6.34c0.72-1.72,5.48-2.59,7.29-2.94c0.24-0.05,0.24-0.38,0.01-0.43
			c-1.85-0.4-6.74-1.34-7.3-2.92c-0.58-1.64,1.26-4.88,2.21-6.39c0.12-0.2-0.09-0.43-0.3-0.31c-1.61,0.93-5.11,2.8-6.36,2.25
			c-1.27-0.56-2.44-6.09-2.92-7.84c-0.06-0.22-0.37-0.22-0.43,0.01c-0.42,1.73-1.49,7.18-2.94,7.84c-1.43,0.65-4.75-1.22-6.33-2.19
			c-0.2-0.12-0.43,0.11-0.3,0.3c0.96,1.55,2.8,4.82,2.19,6.33c-0.61,1.51-5.7,2.52-7.49,2.93c-0.23,0.05-0.23,0.37,0,0.43
			C2.56,21.5,7.43,22.48,8.34,24.02z M15.91,15.14c3.15,0,5.71,2.56,5.71,5.71s-2.56,5.71-5.71,5.71c-3.15,0-5.71-2.56-5.71-5.71
			S12.75,15.14,15.91,15.14z"/>
		<path d="M28,30.5v20.55c1.02,0.75,2.63,1.81,4,1.83V49h12v3.89c0.01,0,0.03,0,0.04,0c1.36,0,2.96-1.05,3.96-1.77V30.5
			c0-0.83,0.67-1.5,1.5-1.5s1.5,0.67,1.5,1.5v2c0,1.1,0.9,1.5,2,1.5s2-0.4,2-1.5v-2c0-3.03-2.47-5.5-5.5-5.5S44,27.47,44,30.5V37H32
			v-6.5c0-0.83,0.67-1.5,1.5-1.5s1.5,0.67,1.5,1.5v2c0,1.1,0.9,1.5,2,1.5s2-0.4,2-1.5v-2c0-3.03-2.47-5.5-5.5-5.5S28,27.47,28,30.5z
			 M32,41h12v4H32V41z"/>
		<path d="M56.04,55.09c-2.46,0-4.92-1.94-6-2.75c-1,0.75-3.48,2.75-6,2.75c-2.46,0-4.92-1.94-6-2.75c-1,0.75-3.48,2.75-6,2.75
			c-2.46,0-4.92-1.94-6-2.75c-1,0.75-3.48,2.75-6,2.75c-2.46,0-4.92-1.94-6-2.75c-1,0.75-3.48,2.75-6,2.75
			c-1.02,0-2.12-0.39-3.04-0.83v4.22C5.94,58.79,6.98,59,8.04,59c2.4,0,4.66-1.08,6-1.86c1.34,0.79,3.6,1.86,6,1.86
			s4.66-1.08,6-1.86c1.34,0.79,3.6,1.86,6,1.86s4.66-1.08,6-1.86c1.34,0.79,3.6,1.86,6,1.86s4.66-1.08,6-1.86
			c1.34,0.79,3.6,1.86,6,1.86c1.03,0,2.04-0.2,2.96-0.49v-4.2C58.1,54.72,57.03,55.09,56.04,55.09z"/>
	</g>
</g>
</svg>
