<?xml version="1.0" encoding="utf-8"?>
<!-- Generator: Adobe Illustrator 24.1.0, SVG Export Plug-In . SVG Version: 6.00 Build 0)  -->
<svg version="1.1" xmlns="http://www.w3.org/2000/svg" xmlns:xlink="http://www.w3.org/1999/xlink" x="0px" y="0px"
	 viewBox="0 0 64 64" style="enable-background:new 0 0 64 64;" xml:space="preserve">
<style type="text/css">
	.st0{fill:none;}
	.st1{fill:#FF1D25;}
	.st2{fill:#1D1D1B;}
</style>
<g id="Box">
	<rect class="st0" width="64" height="64"/>
</g>
<g id="Icon">
	<g>
		<path d="M62.39,17.32c0-3.2-2.12-5.91-5.05-6.87c0.46-3.92-2.66-7.26-6.56-7.26c-1.67,0-3.19,0.61-4.35,1.62
			c-1.28-0.95-2.89-1.53-4.65-1.55c-4.19-0.06-7.62,3-7.68,6.83c0,0.2,0.01,0.39,0.02,0.59c-2.49,0.93-4.27,3.29-4.27,6.07
			c0,2.32,1.25,4.36,3.11,5.51c-0.97,1.25-1.56,2.81-1.56,4.5c0,4.1,3.38,7.42,7.55,7.42c1.46,0,2.82-0.41,3.97-1.12
			c-0.08,2.67-0.33,5.74-0.66,8.84c1.78,2.4,3.35,5.36,4.52,9c1.19,3.72,1.72,7.7,1.8,9.1h6.07c-1.57-6.47-7.2-30.36-2.08-34.63
			c0.11,0.05,0.16,0.17,0.05,0.34c-1.66,2.68-1.25,6.39-0.36,9.06c4.78,1.28,9.25-2.3,9.25-6.94c0-1.87-0.73-3.57-1.92-4.85
			C61.3,21.65,62.39,19.61,62.39,17.32z"/>
		<path d="M26.49,33.84c-0.76-0.17-1.53-0.17-2.28,0C18.7,35.08,6.1,40.11,4.1,60c0,0,5.89,0.01,5.9,0
			c4.33,0,11.31-9.99,12.61-15.43c-1.85,1.09-5.05,2.46-8.73,2.75c0,0.01,0,0.01,0,0.02l0,0c0,0,0.13,5.61-2.45,9.72
			c-0.09,0.15-0.27,0.22-0.42,0.07c1.49-5.7,0.79-10.53,0.78-10.59c-0.04-0.29,0.04-0.58,0.22-0.8c0.19-0.22,0.46-0.35,0.75-0.36
			c6.06-0.1,10.57-3.7,10.61-3.73c0.31-0.27,0.76-0.31,1.12-0.12c0.29,0.16,0.51,0.53,0.51,0.77C25,42.52,25,60,25,60h21.59
			C44.6,40.11,31.99,35.08,26.49,33.84z"/>
	</g>
</g>
</svg>
