<?xml version="1.0" encoding="utf-8"?>
<!-- Generator: Adobe Illustrator 17.1.0, SVG Export Plug-In . SVG Version: 6.00 Build 0)  -->
<svg version="1.2" baseProfile="tiny" xmlns="http://www.w3.org/2000/svg" xmlns:xlink="http://www.w3.org/1999/xlink" x="0px"
	 y="0px" width="64px" height="64px" viewBox="0 0 64 64" xml:space="preserve">
<g id="_x36_4px_Boxes">
	<rect fill="none" width="64" height="64"/>
</g>
<g id="Production">
	<g>
		<path d="M56.1305,27.8669l2.5173-8.3185c0.1436-0.4811-0.092-1.0087-0.5648-1.2109c-0.5085-0.2175-1.0972,0.0185-1.3147,0.527
			l-4.126,9.6665c-0.1636,0.2902-0.3561,0.2032-0.407,0.1714l2.754-13.2427c0.105-0.5045-0.1921-1.0175-0.6952-1.1664
			c-0.5299-0.1569-1.0868,0.1455-1.2437,0.6755l-2.9968,10.1151c-0.1304,0.3066-0.3813,0.2416-0.4354,0.2156l1.2982-13.2875
			c0.0487-0.5002-0.2844-0.9731-0.7877-1.0803c-0.541-0.1152-1.073,0.2299-1.1881,0.7709L47.4673,18.62
			c-1.6125-0.9915-3.3024-1.4173-4.8687-1.3578l-1.0057-7.3063c-0.0714-0.5074-0.5205-0.8895-1.0421-0.8632
			c-0.5521,0.0279-0.9771,0.498-0.9492,1.0502l0.5973,13.5982c-0.0256,0.3322-0.2369,0.3347-0.2964,0.3273l-2.9279-11.518
			c-0.136-0.4993-0.6366-0.8212-1.1536-0.7227c-0.543,0.1035-0.8992,0.6274-0.7957,1.1703l1.595,8.3689
			C34.0762,25.9108,30.156,35.3632,26.6272,40C22.6948,45.1666,5,54,5,54c0.2458-0.25,58,0,58,0V33.3333
			C60.1187,31.6235,58.021,29.8329,56.1305,27.8669z"/>
		<g>
			<path d="M26.074,37.1044c-1.8851-0.0118-4.0868-1.3381-4.7742-1.848l-1.2002-0.8999l-1.2002,0.8999
				c-0.6396,0.48-2.8955,1.8501-4.7998,1.8501c-1.8906,0-4.1094-1.3379-4.7998-1.8501l-1.2002-0.8999l-1.2002,0.8999
				c-0.6396,0.48-2.8955,1.8501-4.7998,1.8501c-0.359,0-0.7296-0.0591-1.0996-0.1408v3.8712
				c0.3622,0.0466,0.7283,0.0796,1.0996,0.0796c2.3965,0,4.6631-1.0762,6-1.8633c1.3369,0.7871,3.6035,1.8633,6,1.8633
				s4.6631-1.0762,6-1.8633c0.7579,0.4463,1.8258,0.9737,3.0361,1.3563C24.3587,39.3632,25.3854,38.3106,26.074,37.1044z"/>
		</g>
	</g>
</g>
</svg>
