<?xml version="1.0" encoding="utf-8"?>
<!-- Generator: Adobe Illustrator 17.1.0, SVG Export Plug-In . SVG Version: 6.00 Build 0)  -->
<svg version="1.2" baseProfile="tiny" xmlns="http://www.w3.org/2000/svg" xmlns:xlink="http://www.w3.org/1999/xlink" x="0px"
	 y="0px" width="64px" height="64px" viewBox="0 0 64 64" xml:space="preserve">
<g id="Box">
	<rect fill="none" width="64" height="64"/>
</g>
<g id="Icon">
	<g>
		<path d="M40.1381,2.0908c0.8621-0.1725,1.0346-0.2961,1.0346-0.4686s-0.5173-0.3449-1.3794-0.3793
			c0,0-1.3103,0.2069-1.2414,0.7586C38.621,2.5532,39.2761,2.2632,40.1381,2.0908z"/>
		<path d="M27.4993,27.2271l2.9127,1.2896c0.4682,0.2072,1.0036,0.2143,1.4688,0.0005c1.3253-0.6087,3.1701-1.6873,3.883-2.9932
			c0.1371-0.2514,0.172-0.546,0.1626-0.8322c-0.0089-0.2719-0.0286-0.5405-0.0568-0.7916
			c-0.0966-0.8617-0.7981-1.5347-1.6633-1.5929c-0.4968-0.0334-1.0943-0.048-1.729-0.0396
			c-0.4779,0.0063-0.9376,0.1944-1.2757,0.5324l-3.7023,3.7024V27.2271z"/>
		<path d="M21.9313,13.8636c0.3103,0.0345,1.2414-0.9655,1.4827-1.2069c0.2414-0.2414,0.2207-1.7277,0-2.0345
			c-0.2207-0.3068-0.3952-0.7362-0.8528-0.5577c-0.4575,0.1783-1.6644,2.8902-1.5955,3.224
			C21.0347,13.6222,21.621,13.8291,21.9313,13.8636z"/>
		<path d="M35.0267,3.0834c0.6552-0.1217,1.8011-0.0822,1.7666-0.7393c0,0-0.0345-0.4802-2.1034-0.1184
			c-2.069,0.3618-2.3448,0.3374-2.3448,0.8241C32.3452,3.5366,34.3715,3.2051,35.0267,3.0834z"/>
		<path d="M28.1113,5.274c0,0,1.3861-0.8743,2.4913-0.859c1.1052,0.0152,0.6275-0.8809,0.6275-0.8809s-0.7587-0.7661-3.009,0.6445
			c-2.2504,1.4105-1.6564,1.5762-1.6177,1.6705C26.6422,5.9433,27.2783,5.9504,28.1113,5.274z"/>
		<path d="M24.9758,8.22c0.3103-0.5861,1.2027-0.7554,0.8175-1.253c0,0-0.8276-0.2069-1.5862,0.6552s-1.2414,1.2759-0.931,1.7241
			C23.5864,9.7946,24.6655,8.8063,24.9758,8.22z"/>
		<path d="M11.7659,41.4135l1.5733,1.4778c0.3575,0.3358,0.8933,0.3963,1.3167,0.1487l0.4548-0.266
			c0.3854-0.2254,0.4927-0.5579,0.1774-0.8738l-3.5142-2.3345c-0.0748-0.0497-0.1596-0.0803-0.2494-0.0774
			c-0.5614,0.0178-2.4419-0.0002-2.4419,1.24l1.7373,0.2348C11.1429,41.1169,11.4429,41.2596,11.7659,41.4135z"/>
		<path d="M10.2794,43.7348l0.5177,0.3246c0.6409,0.402,1.4522,0.4144,2.105,0.0322l0.0108-0.0063l-1.7175-1.3916
			c-0.3277-0.2656-0.7249-0.4314-1.1441-0.4778l-1.7878-0.1979c-0.2627-0.0291-0.5278,0.0748-0.69,0.2835
			c-0.2608,0.3356-0.4958,0.6827-0.6996,1.0368l2.3879,0.0843C9.6226,43.4353,9.9736,43.543,10.2794,43.7348z"/>
		<path d="M14.0413,50.8656l-1.5397-0.6722c-0.1154-0.0505-0.2495-0.0302-0.3449,0.0522l-1.2663,1.0942
			c-0.1107,0.0956-0.2714,0.1062-0.3936,0.0259L8.313,49.9311c-0.1823-0.1198-0.4163-0.1268-0.6056-0.0184L7.1716,50.22
			c-0.199,0.1141-0.4467,0.0998-0.6313-0.0363l-1.942-1.4329c-0.1707-0.1259-0.4124-0.0794-0.5242,0.1008l-1.4859,2.3953
			c-0.0717,0.1156-0.0644,0.2635,0.0183,0.3716l0.8289,0.9143c0.1009,0.1318,0.2529,0.2139,0.4184,0.2254
			c0,0,1.6622,0.435,1.8809,0.1381c0.2188-0.2969,0.2656-1.125,0.2656-1.125l1.2592,0.0534
			c0.0653-0.007,0.1312,0.0059,0.1891,0.0369l3.5152,1.8805c0.1167,0.0625,0.2595,0.0485,0.3618-0.0354l2.7923-2.2881
			C14.3069,51.2636,14.2654,50.9635,14.0413,50.8656z"/>
		<path d="M52.0017,31l2.6237-2.6236c0.24-0.2401,0.3749-0.5657,0.3749-0.9052v-2.1893c0-0.7072-0.5732-1.2804-1.2803-1.2804
			h-2.7968c-0.5511,0-1.0404-0.3526-1.2147-0.8755l-0.399-1.1967c-0.1825-0.5478,0.0241-1.1499,0.5044-1.4702l4.2085-2.8057
			c0.6109-0.4073,0.9779-1.093,0.9779-1.8274V9.0397c0-1.2791-0.6177-2.4795-1.6585-3.2229l-3.9162-2.7973
			c-0.8966-0.6405-2.0436-0.8186-3.0923-0.4803L31.9716,7.1719c-0.4667,0.1506-0.8064,0.5545-0.8748,1.0401l-0.9479,6.7335
			c-0.0862,0.6118,0.2767,1.1977,0.8628,1.3931l1.113,0.3712c0.5229,0.1743,0.8755,0.6636,0.8755,1.2147v2.0169
			c0,0.4498,0.3557,0.8161,0.8049,0.8368c1.1953,0.0548,2.3047,0.2383,2.7596,0.6932c0.7636,0.7626,0.8251,3.2722,0.8284,3.899
			c-0.0151,0.0927-0.0298,0.1826-0.045,0.2753c-0.8862,2.4669-4.6134,4.5237-5.8637,5.1556
			c-0.2519,0.1273-0.5494,0.1219-0.795-0.0172L26.601,28.47c-0.3657-0.162-0.6016-0.5243-0.6015-0.9243l0.0008-2.8303v-1.8408
			c0-0.5304,0.314-1.0105,0.8-1.2231l0.0252-0.0111c0.6564-0.2871,0.9691-1.0412,0.7086-1.7086l-1.2158-3.1155
			c-0.1917-0.4913-0.6652-0.8148-1.1927-0.8148c-1.7158,0-1.8749,0.138-2.8721-0.4116c-0.683-0.3763-1.5411-0.0597-1.816,0.67
			c-0.275,0.7298-0.4363,7.4289-1.7454,11.0946c-1.7684,4.9517-5.4789,8.082-5.4789,8.082c-0.086,0.2282-0.1461,0.4633-0.18,0.705
			c-0.0426,0.3033-0.1015,0.7319-0.1534,1.0735c-0.0537,0.3544,0.0649,0.7103,0.3206,0.9616
			c0.9528,0.9362,3.1849,3.1546,3.1849,3.1546c0.7757,0.7775,0.6077,2.0782-0.34,2.6331l-2.3856,1.3965
			c-0.2438,0.1428-0.2623,0.4884-0.0352,0.6567c1.1445,0.8478,2.1272,1.5759,2.2037,1.633
			c0.1894,0.1413,0.0564,0.5677,0.0564,0.5677l-4.5237-2.5077c-0.896-0.5205-1.9366-0.8111-2.9725-0.7868
			c0,0-5.2647,0.4083-3.8814,1.7916c0.6988,0.6371,2.1001,2.2563,2.5693,2.0986c0.3127-0.1051,0.7186-0.4419,0.7186-0.4419
			l3.0384,1.7202c0.2295,0.0952,0.2325-0.3165,0.4582-0.7211c0.2258-0.4047,0.7203-0.5746,1.1485-0.3973
			c0,0,3.3572,1.4636,3.9159,1.6204c0.4348,0.122,0.8163,0.0463,1.1488-0.3494c0.2905-0.3457,1.054-1.581,1.054-1.581
			c0.2704-0.4055,0.7477-0.6224,1.2311-0.5593l6.8881,0.9c0.3879,0.0506,0.7313,0.2759,0.9324,0.6115
			c0.4861,1.0012,0.6557,1.2433,1.211,1.5485c0.0803,0.0441,1.0037,0.4427,2.1788,0.9459V41.5487C31,35.4208,38.3086,31,48.001,31
			C48.3322,31,50.0043,31,52.0017,31z"/>
		<path d="M48.0012,53C55.8511,53,62,49.6253,62,45.3214c0-0.6324,0-3.0202,0-3.6548C62,37.3673,55.8511,34,48.0012,34
			C40.1492,34,34,37.3673,34,41.6666c0,0.6346,0,3.0225,0,3.6548c0,0.9493,0.3142,1.8492,0.865,2.6819
			C34.312,48.8288,34,49.7224,34,50.6666v3.6548C34,58.6253,40.1492,62,48.0012,62C55.8511,62,62,58.6253,62,54.3214v-3.6548
			c0-0.2049-0.0266-0.4056-0.0542-0.606c-0.7144,0.8958-4.5718,5.1376-13.6127,5.1376c-8.0173,0-10.7806-3.8577-11.0668-4.3807
			c-0.1169-0.2137-0.2019-0.4362-0.0765-0.5667C39.738,51.9397,43.6016,53,48.0012,53z M36.7012,42
			c0-2.8444,5.0601-5.15,11.302-5.15s11.302,2.3057,11.302,5.15c0,2.8443-5.0601,5.15-11.302,5.15S36.7012,44.8443,36.7012,42z"/>
		<path d="M45.8542,43.7261v0.6766h1.5551v-0.5565c0.3053,0.0191,0.6703,0.0191,1.016,0.0191h0.384v0.5374h1.5168v-0.6166
			c2.7834-0.2999,4.1094-1.2643,4.1094-2.6701c0-0.5469-0.0571-0.7845-0.3076-1.3435H52.072
			c0.2123,0.5182,0.2886,0.7773,0.2886,1.2546c0,0.6166-0.5938,1.1155-2.0344,1.334v-1.7634h-1.5168v1.8928
			c-0.1907,0.0096-0.384,0.0193-0.6128,0.0193c-0.2697,0-0.52-0.0098-0.7872-0.0193v-1.8928h-1.5551v1.7538
			c-1.4023-0.2089-2.1322-0.6575-2.1322-1.3748c0-0.4078,0.0763-0.6454,0.2479-1.1539h-2.168
			c-0.174,0.4269-0.2312,0.7269-0.2312,1.1226C41.5708,42.3611,43.0112,43.3662,45.8542,43.7261z"/>
	</g>
</g>
</svg>
