<?xml version="1.0" encoding="utf-8"?>
<!-- Generator: Adobe Illustrator 17.1.0, SVG Export Plug-In . SVG Version: 6.00 Build 0)  -->
<svg version="1.2" baseProfile="tiny" xmlns="http://www.w3.org/2000/svg" xmlns:xlink="http://www.w3.org/1999/xlink" x="0px"
	 y="0px" width="64px" height="64px" viewBox="0 0 64 64" xml:space="preserve">
<g id="Box">
	<rect width="64" height="64"/>
</g>
<g id="Icon">
	<g>
		<path fill="#FFFFFF" d="M22.3,29c-0.4244-0.6837-0.6678-1.3802-0.8128-2H22c1.1046,0,2-0.8954,2-2v-5
			c0-1.0884-0.8705-1.9695-1.9527-1.9952c0.1992-2.6525,1.1603-4.663,2.2223-6.101l5.6051,7.2822
			c0.4473,0.5812,1.2723,0.7084,1.874,0.2891c0.5505-0.3837,0.7432-1.1089,0.4558-1.7153L28.0527,9H31c1.1046,0,2-0.8954,2-2V4
			c0-1.1046-0.8954-2-2-2H9.618C9.2393,2,8.893,2.214,8.7236,2.5528L5.2595,9.481c-0.1605,0.3209-0.1367,0.7033,0.0624,1.0019
			L10.3333,18H10c-1.1046,0-2,0.8954-2,2v5c0,1.1046,0.8954,2,2,2h6.9848c0.0209,0.0562,0.0673,0.2623-0.2499,0.3641l-6.884,1.3927
			C7.4818,33.2053,4,40.7963,4,47c0,5.7834,1.1356,9.3713,2.0095,11.276C6.4954,59.3353,7.5613,60,8.7267,60h17.2205
			c0.8314,0,1.6193-0.3426,2.1899-0.9471c1.661-1.7598,4.6545-5.9911,3.5762-12.8528C30.4256,38.0054,24.0367,31.7979,22.3,29z
			 M25.7896,50.7919C25.4577,52.6675,23.7712,54,21.8664,54h-7.7167c-2.0532,0-3.7687-1.5475-3.9819-3.5896
			C10.0638,49.4148,10,48.2817,10,47c0-16.3334,13.7874-12.5995,15.7852,0.1309C26.0071,48.5419,25.9727,49.7576,25.7896,50.7919z"
			/>
		<path fill="#FFFFFF" d="M63.3618,45.3295C61.2861,42.4715,54.5958,33.4167,50,29c-4.1617-3.9996-8.04-6.7825-14-5
			c-4.1834,1.2511-7.374,4.4246-9.4129,7.0444c2.6204,3.3853,6.3157,8.5521,7.2996,14.814
			c0.4315,2.7441,0.2839,5.1167-0.1708,7.1416h18.375c0.1314,0,0.2593-0.027,0.3871-0.0524
			c-3.353-3.911-12.4824-14.6491-15.3218-18.9085c-2.7356-4.1027-1.8906-8.6016,1.8281-8.8203
			c0.4682-0.0275,0.4844,0.2656,0.4844,0.2656c-1.0625,0.3125-2.0625,1.5-2.0894,2.757c-0.0151,0.7018,0.0084,2.1785,1.607,4.577
			c1.6331,2.4496,5.5353,7.2541,9.1235,11.5558C48.3737,43.5781,49.1154,43,50,43c1.1046,0,2,0.8954,2,2
			c0,1.006-0.7452,1.8305-1.7123,1.971c1.759,2.0865,3.2822,3.869,4.1931,4.9308l3.5864-2.1428C57.4352,49.423,57,48.7657,57,48
			c0-1.1046,0.8954-2,2-2s2,0.8954,2,2c0,0.0024-0.0007,0.0048-0.0007,0.0072l2.0648-1.2337
			C63.5682,46.4722,63.707,45.8047,63.3618,45.3295z M41.5,32.3112c-1.0003,0-1.8113-0.8109-1.8113-1.8112
			c0-1.0004,0.811-1.8113,1.8113-1.8113s1.8113,0.8109,1.8113,1.8113C43.3113,31.5003,42.5003,32.3112,41.5,32.3112z M46.5,39.3112
			c-1.0003,0-1.8113-0.8109-1.8113-1.8112c0-1.0004,0.811-1.8113,1.8113-1.8113s1.8113,0.8109,1.8113,1.8113
			C48.3113,38.5003,47.5003,39.3112,46.5,39.3112z M48,34.1c-1.1598,0-2.1-0.9402-2.1-2.1c0-1.1599,0.9402-2.1,2.1-2.1
			s2.1,0.9402,2.1,2.1C50.1,33.1598,49.1598,34.1,48,34.1z M53.5,41.343c-1.0179,0-1.843-0.8252-1.843-1.843
			c0-1.0179,0.8251-1.843,1.843-1.843s1.843,0.8251,1.843,1.843C55.343,40.5178,54.5179,41.343,53.5,41.343z"/>
	</g>
</g>
</svg>
