<?xml version="1.0" encoding="utf-8"?>
<!-- Generator: Adobe Illustrator 18.1.1, SVG Export Plug-In . SVG Version: 6.00 Build 0)  -->
<svg version="1.2" baseProfile="tiny" xmlns="http://www.w3.org/2000/svg" xmlns:xlink="http://www.w3.org/1999/xlink" x="0px"
	 y="0px" width="64px" height="64px" viewBox="0 0 64 64" xml:space="preserve">
<g id="Box">
	<rect width="64" height="64"/>
</g>
<g id="Icon">
	<path fill="#FFFFFF" d="M23.9224,38.4336c2.2642,0.7002,5.9133,0.5068,7.4043-0.5836C34.4221,35.5863,37,32,37.5408,27.9692
		C39.4233,27.4653,39.8,25.4238,39.8,24.151c0-1.2726-0.2581-1.9611-0.7841-2.1743c-0.2396-0.0968-0.4733-0.1002-0.6844-0.0665
		c0.4835-3.3569,1.1956-9.8115-0.0615-12.1355c-1.5283-2.8256-3.348-4.2173-6.8501-3.2908
		c-2.297-1.2793-3.8609-2.0801-7.8854-0.9281c-2.7963,0.8003-5.8569,2.1073-7.4696,4.288
		c-1.7083,2.3104-0.9725,8.7151-0.4395,12.0599c-0.2-0.0259-0.4181-0.0172-0.6414,0.073C14.4579,22.1899,14.2,22.8784,14.2,24.151
		c0,1.2728,0.3766,3.3143,2.259,3.8182c0.4278,3.1877,2.1379,6.0856,4.3621,8.283c-0.205,1.0925-0.4637,2.5928-0.6512,4.0232
		c-0.4979,3.7977,4.3223,7.8955,6.8301,9.583c3.3478-2.2528,7.3307-5.9913,6.7496-10.1361
		C30.1224,42.6311,26.0491,41.9049,23.9224,38.4336z M19,18.05c0,0,0.0026,6.1097,0,6.1082c0,0-1.0099,0.1699-1.265-0.8068
		c-0.2253-0.8632-0.6535-3.0402-0.8412-6.2303c-0.065-0.9133-0.1002-1.5984-0.0938-3.1538
		c0.0096-2.3634,0.4797-4.7164,7.2266-6.6492c1.1475-0.3287,2.0848-0.488,2.8677-0.488c1.4855,0,2.415,0.5846,4.34,1.6565
		c0.771-0.2039,1.5172-0.4343,2.301-0.4343c2.0178,0,3.3405,2.2168,3.5625,4.2244c0.3478,3.1465-0.284,8.9724-0.8329,11.0748
		C36.01,24.3281,35,24.1582,35,24.1582c-0.0024,0.0011,0-5.509,0-5.509l-5.2749-3.8501C25.077,17.332,21.043,17.9043,19,18.05z
		 M57.1658,47.0334c0,0.6876-0.5235,1.2127-1.6282,1.2127c-0.2695,0-0.268-0.0114-0.5375-0.0463v-2.3093h0.6859
		C56.7635,45.8906,57.1658,46.3458,57.1658,47.0334z M61.435,38.826c-0.195-1.1729-1.0873-2.0652-2.2607-2.2607
		C55.7828,36,50.1301,36,49.0001,36c-1.1301,0-6.7828,0-10.1743,0.5654c-1.1735,0.1955-2.0657,1.0878-2.2607,2.2607
		C36,42.2173,36,47.8696,36,49s0,6.7827,0.5651,10.174c0.195,1.1729,1.0873,2.0652,2.2607,2.2607C42.2172,62,47.8699,62,49.0001,62
		c1.1301,0,6.7828,0,10.1742-0.5654c1.1735-0.1955,2.0657-1.0878,2.2607-2.2607C62,55.7827,62,50.1304,62,49
		C62,45.607,62,42.2173,61.435,38.826z M45.0498,53H39v-1.9041L42.6,46v-0.0552H39V44h6.0227v1.9041L41.4,51v0.0552h3.6498V53z
		 M52,45.9041L48.4,51v0.0552H52V53h-6.0498v-1.9041L49.6,46v-0.0552H46V44h6V45.9041z M55.8696,50.0441
		c-0.3636,0-0.5458-0.0135-0.8696-0.0542V53h-2v-9h3.0583c1.9803,0,3.0717,1.2113,3.0717,2.858
		C59.13,48.7786,57.8365,50.0441,55.8696,50.0441z M32.9,49c0,2.9811,0.0951,7.0239,0.5096,10H2c0,0,1.5137-11.7656,4.3872-14.8896
		c2.2922-2.4929,9.0969-4.696,11.7958-5.4962c-0.0681,0.4525-0.134,0.9132-0.1947,1.3761
		c-0.834,6.3721,8.0596,11.8838,8.4385,12.1152c0.1758,0.1074,0.375,0.1611,0.5732,0.1611s0.3975-0.0537,0.5732-0.1611
		c0.209-0.1277,3.0054-1.866,5.3337-4.4653C32.9024,48.1108,32.9,48.568,32.9,49z"/>
</g>
</svg>
