<?xml version="1.0" encoding="utf-8"?>
<!-- Generator: Adobe Illustrator 19.1.0, SVG Export Plug-In . SVG Version: 6.00 Build 0)  -->
<svg version="1.2" baseProfile="tiny" xmlns="http://www.w3.org/2000/svg" xmlns:xlink="http://www.w3.org/1999/xlink" x="0px"
	 y="0px" width="64px" height="64px" viewBox="0 0 64 64" xml:space="preserve">
<g id="Box">
	<rect fill="none" width="64" height="64"/>
</g>
<g id="Icon">
	<path d="M55.4072,18.084c-0.2002-0.2139-0.4463-0.3794-0.7197-0.4834l-11.4731-4.5068c-0.7637-0.2686-1.6299,0.0538-2.0203,0.7907
		c-0.4304,0.8118-0.1212,1.8187,0.6906,2.249C42.3416,16.3755,48,18.8689,48,18.8689V24.5c0,0.2983,0.0889,0.5898,0.2559,0.8374
		c0.3891,0.5787,2.0957,2.3682,8.2145,2.6281c2.1059,6.7808,2.0686,15.5103,0.095,21.5208
		c-0.7348,2.2382-2.2352,5.5598-4.6025,5.5854c-3.2872,0.0355-4.0381-6.006-4.0381-9.6127v-4.8223
		c0-6.416-3.8955-10.5615-9.9248-10.5615V9c0-2.7614-2.2386-5-5-5H9C6.2386,4,4,6.2386,4,9v50h34V33.9248
		c3.8604,0,6.0752,2.4463,6.0752,6.7119v4.8223c0,5.7617,1.335,9.917,3.8604,12.0156c1.1553,0.96,2.5088,1.4512,3.9678,1.4512
		c4.4045,0,6.9393-4.0342,8.3193-8.2383C64.2158,38.5283,60.9561,24.0127,55.4072,18.084z M51,23.8008v-2.7581
		c-0.7239-0.5112-1.3482-0.9525-1.4547-1.0287c-0.2708-0.194-0.1094-0.4511-0.0674-0.494l3.4069,1.5137
		c0.9377,1.0764,1.7346,2.3894,2.4123,3.8495C52.7678,24.6483,51.5254,24.1124,51,23.8008z M34,24H8V9c0-0.5523,0.4477-1,1-1h24
		c0.5523,0,1,0.4477,1,1V24z"/>
</g>
</svg>
