<?xml version="1.0" encoding="utf-8"?>
<!-- Generator: Adobe Illustrator 22.1.0, SVG Export Plug-In . SVG Version: 6.00 Build 0)  -->
<!DOCTYPE svg PUBLIC "-//W3C//DTD SVG 1.1//EN" "http://www.w3.org/Graphics/SVG/1.1/DTD/svg11.dtd">
<svg version="1.1" xmlns="http://www.w3.org/2000/svg" xmlns:xlink="http://www.w3.org/1999/xlink" x="0px" y="0px" width="64px"
	 height="64px" viewBox="0 0 64 64" style="enable-background:new 0 0 64 64;" xml:space="preserve">
<style type="text/css">
	.st0{fill:none;}
</style>
<g id="Box">
	<rect class="st0" width="64" height="64"/>
</g>
<g id="Icon">
	<g>
		<g>
			<path d="M49.9,27c0.8-1.5,1.6-2.8,2.5-4H11.6c0.9,1.2,1.7,2.5,2.5,4H49.9z M10,21H54c2.2-2.5,4-4,4-4H6C6,17,7.9,18.5,10,21z
				 M1.9,38.5C1.9,41.5,4.1,43,7,43c3.1,0,4.9-1.7,4.9-4.5c0-2.9-2.1-4.5-5-4.5C3.6,34,1.9,35.8,1.9,38.5z M57.5,43
				c3.9-0.1,5.2-2.2,5.7-3.6C40.3,34.5,19.2,34,18,34c-3.2,0-4.8,2-4.8,4.5S15,43,18,43h18.7c0,0,0.5-3.7-4.6-4.2
				c-3.8-0.4-10.9-0.6-13.4-0.7c-0.1-0.2,0.1-0.4,0.5-0.5c0.5-0.1,9.2-1.1,13.7-0.6c4.5,0.5,5.9,3.8,5.8,6.1H57.5z M8,52l1.4,5h45.2
				l1.4-5c3.9,0,7-3.1,7-7H1C1,48.9,4.1,52,8,52z M18,31.8c0.2,0,12.9,0.2,29.5,2.6c0.3-1.9,0.8-3.7,1.5-5.4H15c0.4,1,0.7,2,1,3
				C16.6,31.9,17.3,31.8,18,31.8z M56,8H8c-3.9,0-7,3.1-7,7h62C63,11.1,59.9,8,56,8z"/>
		</g>
	</g>
</g>
</svg>
