<?xml version="1.0" encoding="utf-8"?>
<!-- Generator: Adobe Illustrator 18.1.1, SVG Export Plug-In . SVG Version: 6.00 Build 0)  -->
<svg version="1.2" baseProfile="tiny" xmlns="http://www.w3.org/2000/svg" xmlns:xlink="http://www.w3.org/1999/xlink" x="0px"
	 y="0px" width="64px" height="64px" viewBox="0 0 64 64" xml:space="preserve">
<g id="_x36_4px_Box">
	<rect width="64" height="64"/>
</g>
<g id="Icon">
	<path fill="#FFFFFF" d="M33.3788,49.4332c0.9784-1.4999,2.2961-3.8301,2.2961-3.8301S34.5529,43.7754,32,43.7754
		s-3.675,1.8278-3.675,1.8278s1.3177,2.3302,2.2961,3.8301c-0.4537,1.2772-0.886,2.3673-1.2429,3.5649
		c-1.9328-2.0411-4.2488-4.9523-5.6174-8.3214c-0.8682-2.1394-0.6818-4.069-0.2574-5.4961
		c1.8336,1.8101,3.7994,3.9193,8.4964,3.9193c4.5708,0,6.4926-1.9348,8.4891-3.9229c0.4259,1.431,0.6166,3.3665-0.2496,5.4996
		c-1.3657,3.3613-3.6829,6.2738-5.6174,8.3176C34.2662,51.8015,33.8348,50.7168,33.3788,49.4332z M44.8,25.151
		c0-1.2726-0.2581-1.9611-0.7841-2.1743c-0.2396-0.0968-0.4733-0.1002-0.6844-0.0665c0.1342-0.9317,0.2849-2.1052,0.4073-3.3596
		c-0.5111,0.4731-1.145,0.9183-1.8914,1.322c-0.1708,1.4479-0.3821,2.7115-0.5824,3.4788C41.01,25.3281,40,25.1582,40,25.1582
		c-0.0014,0.0007-0.0012-1.8846-0.0007-3.4503c-2.2646,0.8549-5.0738,1.3873-7.9993,1.3873c-2.9254,0-5.7344-0.5323-7.9991-1.3872
		c0.0004,1.6476,0.0005,3.451-0.0009,3.4502c0,0-1.0099,0.1699-1.265-0.8068c-0.1528-0.5853-0.3976-1.7874-0.5988-3.4871
		c-0.7766-0.4214-1.4321-0.8879-1.9513-1.384c0.1234,1.2774,0.2892,2.4749,0.4404,3.4233c-0.2-0.0259-0.4181-0.0172-0.6414,0.073
		C19.4579,23.1899,19.2,23.8784,19.2,25.151c0,1.2728,0.3766,3.3143,2.259,3.8182C22,33,24.5778,36.5863,27.6732,38.85
		c1.8154,1.3281,6.8375,1.3281,8.6535,0C39.4221,36.5863,42,33,42.5408,28.9692C44.4233,28.4653,44.8,26.4238,44.8,25.151z
		 M42.9048,17c0-1.0239-4.1401-2.9048-10.9048-2.9048S21.0952,15.9761,21.0952,17c0,1.126,4.3462,3.9048,10.9048,3.9048
		S42.9048,18.126,42.9048,17z M53.7128,44.4532c-0.5535-0.6561-1.6198-1.2546-2.9222-1.7935
		c-0.4179-0.8773-0.6312-1.6083-1.5562-1.9062l-6.3538-2.0458c0.3139,2.6862,0.5305,4.2696-0.5106,6.8344
		c-2.8857,7.1055-9.3945,12.1582-9.6699,12.3701c-0.2061,0.1582-0.4531,0.2383-0.7002,0.2383s-0.4941-0.0801-0.7002-0.2383
		c-0.2754-0.2119-6.7842-5.2646-9.6699-12.3701c-1.0972-2.7031-0.7735-4.5902-0.5134-6.7902L14.9,40.7535
		c-0.9073,0.2922-1.1125,0.9747-1.5224,1.8352c-1.3806,0.5568-2.5128,1.1797-3.0905,1.8645C8.1167,47.0262,7,59.9429,7,59.9429
		h0.0076C7.0031,59.9767,7,60,7,60h50c0,0-0.0031-0.0233-0.0076-0.0571H57C57,59.9429,55.8833,47.0262,53.7128,44.4532z M17,10.5294
		C17,5.5173,23.7157,3,32,3s15,2.5173,15,7.5294c0,1.4215-1.1427,2.9766-2.9394,4.3625C41.9617,12.9255,36.9625,11.9048,32,11.9048
		c-4.8679,0-9.7786,0.9797-11.9453,2.8733C18.2205,13.421,17,11.9124,17,10.5294z M29.5104,8.8167l2.4957,2.168l2.4958-2.168v-0.948
		l-1.438-0.9629c0.2227-0.9727-0.5861-1.2606-0.5861-1.2606c0.0671-1.0359-0.8326-1.2392-0.8326-1.2392
		c0.6994,1.1552-1.0507,1.2597-1.0057,2.7067l-1.129,0.756V8.8167z"/>
</g>
</svg>
