<?xml version="1.0" encoding="utf-8"?>
<!-- Generator: Adobe Illustrator 24.0.1, SVG Export Plug-In . SVG Version: 6.00 Build 0)  -->
<svg version="1.1" xmlns="http://www.w3.org/2000/svg" xmlns:xlink="http://www.w3.org/1999/xlink" x="0px" y="0px"
	 viewBox="0 0 64 64" style="enable-background:new 0 0 64 64;" xml:space="preserve">
<style type="text/css">
	.st0{fill:none;}
	.st1{fill:#FF1D25;}
	.st2{fill:#1D1D1B;}
</style>
<g id="Box">
	<rect class="st0" width="64" height="64"/>
</g>
<g id="Icon">
	<g>
		<path d="M40.7,24.5c1.9-0.6,2.3-2.9,2.3-4.4c0-1.5-0.3-2.3-0.8-2.5c-0.3-0.1-0.5-0.1-0.7-0.1c0.2-3.1,0.4-9.1-0.9-11.4
			C39.1,3.6,37.3,3,34,3.8c-2.1-1.1-3.6-2.2-7.3-1.2c-2.6,0.7-5.4,1.8-6.9,3.8c-1,1.3-1.3,4.2-1.2,6.9L37.4,32
			C39,30,40.2,27.5,40.7,24.5z"/>
		<path d="M34.8,52.6l-2.5-1.5c-1.4-0.8-1.8-2.6-1-4l0.9-1.6c0.8-1.4,2.6-1.8,4-1L37,45c0-0.5,0.1-1,0.3-1.5c0.4-0.7,1-1.2,1.7-1.4
			l1.8-0.5c0.1,0,0.2-0.1,0.3-0.1c-0.3-0.8-0.3-1.8,0.1-2.5L9.5,7.2L7.4,9.3l10,10c0,0.2,0,0.5,0,0.8c0,1.5,0.4,3.8,2.3,4.4
			c0.6,5,3.1,8,6.2,10.6c0.8,0.7,2.3,1.1,3.8,1.1c0.1,0.2,0.1,0.5-0.4,0.7c-0.9,0.3-3.8,0.7-6.9-0.9c0,0,0,0-0.1,0
			c-2.3,0.6-10.3,2.9-12.8,5.5c-2.9,3.1-4,14.5-4,14.5h26.4c0.1-0.9,0.6-1.8,1.4-2.3l1.6-0.9C34.8,52.7,34.8,52.7,34.8,52.6z M24,52
			h-9v-4h9V52z"/>
		<path d="M61.4,47.2l-2.3-0.6c0.1-1.2-0.1-2.3-0.5-3.3l2.6-3.3c0.3-0.4,0.2-1-0.1-1.3l-1.4-1.1c-0.4-0.3-1-0.2-1.3,0.1L56,40.6
			c-0.8-0.4-1.7-0.7-2.6-0.8l-0.6-2.8c-0.1-0.5-0.6-0.8-1.1-0.7L50,36.8c-0.5,0.1-0.8,0.6-0.7,1.1l0.6,2.7c-0.6,0.3-1.1,0.6-1.6,1
			l-2.3-3c-0.3-0.4-0.9-0.5-1.3-0.2l-1.4,1.1c-0.4,0.3-0.5,0.9-0.2,1.3l2.8,3.6c-0.4,0.5-0.7,0.8-1.1,1c-0.3,0.2-1.1,0.3-1.7,0.4
			l-0.6-1.9c-0.1-0.5-0.7-0.8-1.1-0.6L39.6,44c-0.5,0.1-0.8,0.7-0.6,1.1l0.6,1.9c-0.5,0.3-0.9,0.6-1.3,1l-3.1-1.8
			c-0.4-0.3-1-0.1-1.3,0.3L33,48.2c-0.3,0.4-0.1,1,0.3,1.3l3.5,2.1c-0.1,0.7,0,1.5,0.2,2.3l-2.8,1.6c-0.4,0.3-0.6,0.8-0.3,1.3
			l0.9,1.6c0.3,0.4,0.8,0.6,1.3,0.3l2.9-1.7c0.6,0.4,1.2,0.8,2,1.1c0.1,0,0.2,0.1,0.3,0.1l-0.8,3.6c-0.1,0.5,0.2,1,0.7,1.1l1.8,0.4
			c0.5,0.1,1-0.2,1.1-0.7l0.8-3.9c1.2,0,2.3-0.2,3.4-0.4l0.7,2.1c0.2,0.5,0.7,0.7,1.2,0.6l1.7-0.6c0.5-0.2,0.7-0.7,0.6-1.2l-0.7-2.1
			c0.2-0.1,0.4-0.2,0.5-0.3c0.7-0.4,1.4-1,2.2-1.7l3,2.9c0.4,0.3,0.9,0.3,1.3,0l1.3-1.3c0.3-0.4,0.3-0.9,0-1.3l-3.1-3
			c0.5-0.7,0.9-1.4,1.2-2.1l2.4,0.6c0.5,0.1,1-0.2,1.1-0.7l0.5-1.8C62.2,47.8,61.9,47.3,61.4,47.2z M55.5,46.4c-0.4,2.6-2.9,5.9-5,7
			c-2.1,1.2-5.9,1.9-8.2,1c-0.9-0.3-1.4-0.8-1.7-1.6c-0.6-1.8,0.6-2.6,1.2-2.9c0.4-0.2,1.2-0.3,1.8-0.4c1.1-0.2,2.2-0.4,3.1-0.9
			c1.4-0.9,2.1-1.9,3.1-3.4l0.1-0.2c0.3-0.5,1.5-1.5,2.8-1.6c0.8-0.1,1.6,0.2,2.2,0.9C55.2,44.6,55.6,45.1,55.5,46.4z"/>
	</g>
</g>
</svg>
