<?xml version="1.0" encoding="utf-8"?>
<!-- Generator: Adobe Illustrator 19.1.0, SVG Export Plug-In . SVG Version: 6.00 Build 0)  -->
<svg version="1.2" baseProfile="tiny" xmlns="http://www.w3.org/2000/svg" xmlns:xlink="http://www.w3.org/1999/xlink" x="0px"
	 y="0px" width="64px" height="64px" viewBox="0 0 64 64" xml:space="preserve">
<g id="_x36_4px_Box">
	<rect width="64" height="64"/>
</g>
<g id="Icon">
	<g>
		<path fill="#FFFFFF" d="M14,35h1v3h35.0324C51.6714,38,53,36.6713,53,35.0324V12.9676C53,11.3286,51.6714,10,50.0324,10H15v3h-1
			v-3H6c-1.6569,0-3,1.3431-3,3v22c0,1.6569,1.3431,3,3,3h8V35z M23.1478,23.8481c1.7099-1.5092,6.3332-1.6252,6.3332-1.6252
			l6.7629-7.9445c0.1994-0.2437,0.5286-0.339,0.8275-0.2394l0.5076,0.3205c0.3693,0.1536,0.556,0.5676,0.4268,0.9461l-3.2115,7.1833
			l6.0722,0.4931l1.5181-2.0056c0.182-0.2172,0.4698-0.3148,0.7464-0.2534l0.2744,0.061c0.4572,0.1016,0.7141,0.5889,0.5398,1.0236
			L43.1435,24.5l0.8016,2.6925c0.1743,0.4346-0.0826,0.9219-0.5398,1.0236l-0.2744,0.061
			c-0.2766,0.0615-0.5644-0.0363-0.7464-0.2534l-1.5181-2.0056l-6.0722,0.4931l3.2115,7.1833
			c0.1292,0.3785-0.0575,0.7924-0.4268,0.946l-0.5076,0.3205c-0.2988,0.0996-0.6281,0.0043-0.8275-0.2394l-6.7628-7.9445
			c0,0-4.6233-0.116-6.3332-1.6252C22.7617,24.8112,22.7617,24.1888,23.1478,23.8481z M14,15h1v3h-1V15z M14,20h1v3h-1V20z M14,25h1
			v3h-1V25z M14,30h1v3h-1V30z"/>
		<path fill="#FFFFFF" d="M61.933,43.9648l-4.0625-22.0273c-0.2855-1.5479-1.4424-2.7103-2.8705-3.098v16.1929
			C55,37.7715,52.7715,40,50.0324,40h-41.71l2.4661,13.3633c0.401,2.1713,2.4923,3.6069,4.6602,3.208l43.3008-7.9854
			C60.8794,48.195,62.3353,46.1454,61.933,43.9648z M16.0881,51l-0.3627-1.9669l11.801-2.1761l0.3627,1.9668L16.0881,51z
			 M15.3627,47.0663L15,45.0995l17.7015-3.2643l0.3627,1.9669L15.3627,47.0663z"/>
	</g>
</g>
</svg>
