<?xml version="1.0" encoding="utf-8"?>
<!-- Generator: Adobe Illustrator 19.1.0, SVG Export Plug-In . SVG Version: 6.00 Build 0)  -->
<svg version="1.2" baseProfile="tiny" xmlns="http://www.w3.org/2000/svg" xmlns:xlink="http://www.w3.org/1999/xlink" x="0px"
	 y="0px" width="64px" height="64px" viewBox="0 0 64 64" xml:space="preserve">
<g id="_x36_4px_Box">
	<rect fill="none" width="64" height="64"/>
</g>
<g id="Icon">
	<g>
		<path d="M8.6055,42.0352c0.6616-0.7852,1.6709-1.4736,3.1421-2.1396l0.0552-0.1162c0.4785-1.0049,1.3618-1.7783,2.4233-2.1201
			l3.2308-1.0405c-1.0562-0.43-2.1969-0.7751-2.9105-0.9664c-0.2935-0.0858-0.4926-0.3406-0.5735-0.6301
			c-0.1051-0.3757-0.1365-0.8488-0.1365-0.8488c0.781-0.9017,1.3603-1.9852,1.5603-3.4044
			c0.7861-0.2427,0.9434-1.2256,0.9434-1.8386c0-0.6128-0.1077-0.9443-0.3275-1.0469c-0.1921-0.0895-0.3707-0.0224-0.4873,0.0436
			c0.1219-1.252,0.2976-3.8616-0.2307-4.8296c-0.5673-1.0389-1.2564-1.4538-2.5706-1.1142
			c-0.8618-0.4691-1.4487-1.0612-2.9588-0.6389c-1.0493,0.2933-2.1978,0.826-2.8029,1.6252c-0.679,0.897-0.516,3.7424-0.4039,5.0156
			c-0.0746-0.0586-0.3187-0.225-0.5828-0.1018c-0.2198,0.1027-0.3275,0.4341-0.3275,1.0469c0,0.6129,0.1573,1.5959,0.9435,1.8386
			c0.1761,1.4678,0.7459,2.5063,1.5109,3.3729c0,0-0.0189,0.4437-0.1028,0.8654c-0.0606,0.3043-0.2539,0.5657-0.5554,0.6492
			c-1.2357,0.3421-4.154,1.2314-5.1165,2.2357C1.0995,39.1735,1,44,1,44h6.5295C7.8556,43.1892,8.2111,42.5026,8.6055,42.0352z"/>
		<path d="M50.3865,33.9998c-0.0911,0.8093-0.114,0.8647-0.202,1.3774c-0.0482,0.2817-0.2211,0.5273-0.4938,0.6275
			c-0.5074,0.1865-1.3331,0.502-2.1982,0.8772l2.4161,0.7783c1.061,0.3408,1.9443,1.1143,2.4238,2.1211l0.1396,0.293
			c1.3262,0.6045,2.2485,1.2168,2.8691,1.8994c0.4158,0.458,0.7859,1.1246,1.1228,1.9088H63c0,0-0.0595-3.9271-1.2819-5.1891
			c-0.4171-0.4308-1.248-0.9001-2.1619-1.3327c-1.1969-0.5806-2.5345-1.0942-3.2469-1.356
			c-0.2727-0.1002-0.4456-0.3458-0.4938-0.6275c-0.0598-0.3495-0.1268-0.8678-0.1794-1.3043
			c1.805-0.072,3.2979-0.2465,3.9185-0.4784c0.1227-0.0458,0.1846-0.1561,0.13-0.2731c-0.3397-0.7266-1.2224-3.1164-1.3333-4.3644
			c-0.2725-3.0632-0.2613-8.5451-4.5411-7.1698c0,0-2.7179-1.7026-4.9254,1.146c-1.553,2.0042-1.1746,4.6467-1.2368,6.1204
			c-0.0442,1.0482-0.9188,3.4682-1.2869,4.0952c-0.0784,0.1335-0.0516,0.2685,0.096,0.321
			C47.1232,33.7068,48.6233,33.8906,50.3865,33.9998z"/>
		<path d="M53.7128,43.4532c-0.543-0.5977-1.5873-1.1631-2.8703-1.6848l-0.4966-1.0423c-0.2208-0.4634-0.6229-0.8152-1.1115-0.9726
			l-7.2188-2.3245c-1.3898,5.5396-3.2365,11.9493-7.0071,16.8755c-0.376-2.1291-1.0116-4.9916-1.6953-6.9162
			C34.245,45.96,35.5,43.7407,35.5,43.7407S34.4313,42,32,42s-3.5,1.7407-3.5,1.7407s1.255,2.2193,2.1868,3.6477
			c-0.6794,1.9124-1.3114,4.7511-1.6883,6.8761c-3.5791-4.9009-5.5341-11.4721-6.8796-16.8354L14.9,39.7535
			c-0.4886,0.1573-0.8907,0.5092-1.1115,0.9726l-0.4123,0.8655c-1.3786,0.5565-2.5123,1.1779-3.0891,1.8616
			C8.1167,46.0262,7,58.9429,7,58.9429h50C57,58.9429,56.05,46.0262,53.7128,43.4532z"/>
		<path d="M20.0638,28.4937c0.5174,3.4032,2.5819,6.6062,6.2687,9.7436C28.0835,39.7279,30.6348,40,31.9998,40
			c1.3649,0,3.9162-0.2721,5.6677-1.7627c3.6281-3.0875,5.7279-6.3556,6.2622-9.7377c1.3281-1.2195,2.068-3.1657,2.068-5.5558
			c0-0.7445-0.0015-2.7017-1.227-4.0358c0.3038-3.3378,0.5151-8.504-0.7868-10.5876c-1.6026-2.5649-3.5498-3.816-7.2632-2.9775
			c-2.4355-1.1577-4.0937-1.8824-8.3608-0.8399c-2.9649,0.7242-6.21,1.9068-7.92,3.8799c-1.6521,1.9068-1.5394,7.2245-1.274,10.6062
			c-1.156,1.332-1.1636,3.2249-1.1636,3.9548C18.0023,25.3299,18.7398,27.2737,20.0638,28.4937z M21.6738,20.7696
			c0.1364-0.0642,0.2715-0.0894,0.4-0.0894c0.2398,0,0.456,0.0882,0.6127,0.1766c0.1415,0.6533,0.2486,1.1396,0.2901,1.3112
			C23.1826,23.019,24,22.9409,24,22.9409V16.196c2.0715-0.1483,6.1907-0.7519,10.7498-3.1065L40,16.6157v6.3252
			c0,0,0.8174,0.0781,1.0234-0.7729c0.0415-0.1716,0.1486-0.6579,0.2901-1.3112c0.1567-0.0884,0.3729-0.1766,0.6127-0.1766
			c0.1285,0,0.2637,0.0252,0.4,0.0894c0.4521,0.2132,0.7738,0.9018,0.7738,2.1742c0,1.273-0.4237,3.3145-2.0414,3.8183
			c0,3.8165-2.6802,6.9209-5.3403,9.1847c-0.7803,0.664-2.2495,1.126-3.7185,1.126c-1.469,0-2.938-0.462-3.7181-1.126
			c-2.6601-2.2638-5.3403-5.3213-5.3403-9.1847C21.3237,26.2583,20.9,24.2168,20.9,22.9438
			C20.9,21.6714,21.2217,20.9828,21.6738,20.7696z"/>
	</g>
</g>
</svg>
