<?xml version="1.0" encoding="utf-8"?>
<!-- Generator: Adobe Illustrator 24.0.3, SVG Export Plug-In . SVG Version: 6.00 Build 0) -->
<svg viewBox="0 0 64 64" width="24px" height="24px">
	<style type="text/css">
		.st0{fill:none;}
		.st1{fill:#FF1D25;}
		.st2{fill:#1D1D1B;}
	</style>
	<g id="Box">
		<rect class="st0" width="64" height="64" />
	</g>
	<g id="Icon">
		<g>
			<path d="M8.5,16.8c2.2,0,3.5-1.6,3.5-3.8c0-2.6-1.3-4-3.5-4C6.2,9,5,10.6,5,13C5,15.4,6.3,16.8,8.5,16.8z" />
			<path d="M12.5,18.6c-2.4-0.6-5.7-0.6-8,0c-4.6,1.1-4.4,8.8-4.4,15.1c0.2,2.2,1.8,2.8,2.8,2.8c0-0.1,0-1.2,0-2.2c0-0.5,0-3.3,0-3.6
			c0-2.7,0.5-5.6,0.8-6.6C3.8,23.8,4,23.9,4,23.9v12V54c0,0,3.3,0,3.6-3.7c0,0,0.5-14,0.5-14.1c0-0.2,0.1-0.4,0.4-0.4
			s0.4,0.2,0.4,0.4c0,0.2,0.5,14,0.5,14C9.6,54,13,54,13,54V35.8v-12c0,0,0.2-0.1,0.3,0.2c0.3,0.9,0.8,3.8,0.8,6.5
			c0,0.5,0,3.4,0,3.9c0,1,0,2,0,2c1,0,2.6-0.6,2.8-2.8C16.9,27.4,17.2,19.7,12.5,18.6z" />
			<path d="M55.5,16.8c2.2,0,3.5-1.6,3.5-3.8c0-2.6-1.3-4-3.5-4c-2.3,0-3.5,1.6-3.5,4C52,15.4,53.3,16.8,55.5,16.8z" />
			<path d="M59.5,18.6c-2.4-0.6-5.7-0.6-8,0c-4.6,1.1-4.4,8.8-4.4,15.1c0.2,2.2,1.8,2.8,2.8,2.8c0-0.1,0-1.2,0-2.2c0-0.5,0-3.3,0-3.6
			c0-2.7,0.5-5.6,0.8-6.6c0.1-0.3,0.3-0.2,0.3-0.2v12V54c0,0,3.3,0,3.6-3.7c0,0,0.5-14,0.5-14.1c0-0.2,0.1-0.4,0.4-0.4
			s0.4,0.2,0.4,0.4c0,0.2,0.5,14,0.5,14C56.6,54,60,54,60,54V35.8v-12c0,0,0.2-0.1,0.3,0.2c0.3,0.9,0.8,3.8,0.8,6.5
			c0,0.5,0,3.4,0,3.9c0,1,0,2,0,2c1,0,2.6-0.6,2.8-2.8C63.9,27.4,64.2,19.7,59.5,18.6z" />
			<path d="M24.6,26.9c0.2-0.2,0.2-0.7-0.1-0.9c-0.2-0.3-0.6-0.3-0.9-0.1l-4.9,4c-0.4,0.3-0.4,0.9,0,1.2l5,4c0.2,0.2,0.7,0.1,0.9-0.1
			c0.1-0.1,0.2-0.3,0.2-0.5c0-0.1,0-0.3-0.2-0.5l-1.4-2.1H27V29h-3.8L24.6,26.9z" />
			<polygon points="31.4,29 29,29 29,31.9 31.4,31.9 32.6,31.9 35,31.9 35,29 32.6,29 		" />
			<path d="M40.4,25.9c-0.3-0.2-0.7-0.2-0.9,0.1c-0.3,0.2-0.3,0.7-0.1,0.9l1.4,2.1H37v2.9h3.8L39.4,34c-0.2,0.2-0.2,0.4-0.2,0.5
			c0,0.2,0.1,0.4,0.2,0.5c0.2,0.2,0.7,0.3,0.9,0.1l5-4c0.4-0.3,0.4-0.9,0-1.2L40.4,25.9z" />
		</g>
	</g>
</svg>
