<svg width="36" height="36" viewBox="0 0 36 36" fill="none" xmlns="http://www.w3.org/2000/svg">
  <path fill-rule="evenodd" clip-rule="evenodd" d="M5 6.755L6.377 5.38l23.205 23.205-1.377 1.377-7.704-7.705a6.702 6.702 0 01-1.497.485v7.431c1.111.088 2.218.232 3.315.431a.638.638 0 010 1.249h-9.156a.64.64 0 010-1.249 33.407 33.407 0 013.314-.43V22.74a6.703 6.703 0 01-5.098-4.682 16.6 16.6 0 01-.302-5.227L5 6.755zm7.585 7.586a14.442 14.442 0 00.355 3.213 4.742 4.742 0 002.69 3.106c.506.253.506 0 .506 0a5.558 5.558 0 01-1.487-1.724 9.375 9.375 0 01-1.01-3.54l-1.054-1.056z" />
  <path d="M11.908 9.063l1.257 1.257c.123-.423.266-.84.43-1.253 1.378-.19 2.77-.275 4.16-.253a27.35 27.35 0 014.118.327c.378 1.006.657 2.046.832 3.106h-7.613l7.958 7.959a6.702 6.702 0 001.082-2.147 16.602 16.602 0 00-.877-9.914.98.98 0 00-.684-.55 29.444 29.444 0 00-4.815-.43 29.445 29.445 0 00-4.816.43.98.98 0 00-.684.55c-.125.303-.241.61-.348.918z" />
</svg>
