<svg width="24px" height="24px" viewBox="0 0 24 24">
	<path d="M16.29,11.91a11.17,11.17,0,0,0-.59-6.67.66.66,0,0,0-.46-.37A19.81,19.81,0,0,0,12,4.58a19.81,19.81,0,0,0-3.24.29.66.66,0,0,0-.46.37,11.17,11.17,0,0,0-.59,6.67,4.51,4.51,0,0,0,3.43,3.15v5a22.47,22.47,0,0,0-2.23.29.43.43,0,0,0,0,.84h6.16a.43.43,0,0,0,0-.84,22.47,22.47,0,0,0-2.23-.29v-5A4.51,4.51,0,0,0,16.29,11.91ZM9.42,8a6.31,6.31,0,0,0,.49,4.5,3.74,3.74,0,0,0,1,1.16s0,.17-.34,0a3.19,3.19,0,0,1-1.81-2.09,9.72,9.72,0,0,1,.44-5.71A18.4,18.4,0,0,1,12,5.69a18.4,18.4,0,0,1,2.77.22A11.06,11.06,0,0,1,15.33,8Z" fill="#1d1d1b" />
	<rect x="11.04" y="0.61" width="1.31" height="22.08" transform="translate(-4.82 11.68) rotate(-45)" fill="#1d1d1b" />
	<rect x="11.98" y="-0.14" width="0.93" height="22.08" transform="translate(-4.06 11.99) rotate(-45)" fill="#fff" />
</svg>
