<?xml version="1.0" encoding="utf-8"?>
<!-- Generator: Adobe Illustrator 17.1.0, SVG Export Plug-In . SVG Version: 6.00 Build 0) -->
<svg width="24px" height="24px" viewBox="0 0 64 64">
	<g id="_x36_4px_Boxes">
		<rect fill="none" width="64" height="64" />
	</g>
	<g id="Production">
		<g>
			<path d="M15.9143,44.014c-0.0999-1.0374-0.0366-1.9895,0.1954-2.8435c-1.9481,0.8708-3.7462,1.878-4.7225,2.9399
			C8.5137,47.2344,7,59,7,59h7.8643c-0.0328-0.0543-0.0801-0.0952-0.1045-0.1562C14.5703,58.368,10.3555,47.5846,15.9143,44.014z" />
			<path d="M52.6128,44.1104c-1.0543-1.1467-3.0648-2.2304-5.1901-3.1462c0.5328,1.6359,0.4248,3.5681-0.3021,5.7616
			C48.3148,47.5568,49.1,48.9349,49.1,50.5c0,2.5405-2.0594,4.6-4.6,4.6s-4.6-2.0594-4.6-4.6s2.0594-4.6,4.6-4.6
			c0.0872,0,0.1686,0.0209,0.2546,0.0256c0.6427-1.9362,0.6762-3.5236,0.0755-4.7195c-0.7998-1.5947-2.584-2.2129-3.5762-2.4395
			l0.0045-0.0198c-0.0099-0.003-0.0217-0.0068-0.0316-0.0098c-0.155-1.1155-0.3614-2.4073-0.5466-3.4836
			c1.7886-2.1667,2.8874-4.4047,3.2495-6.6968c1.3281-1.2195,2.0679-3.1657,2.0679-5.5557c0-0.7447,0.0012-2.7025-1.2268-4.0366
			c0.3036-3.3378,0.515-8.5034-0.7869-10.587c-1.6026-2.5649-3.5498-3.8159-7.2632-2.9775
			c-2.4355-1.1577-4.0937-1.8823-8.3608-0.8398c-2.9648,0.7241-6.21,1.9067-7.92,3.8798c-1.652,1.9066-1.5394,7.2237-1.2741,10.6054
			c-1.1589,1.332-1.1634,3.2256-1.1634,3.9557c0,2.386,0.7374,4.3299,2.0614,5.5497c0.3819,2.5118,1.613,4.9141,3.7105,7.2619
			c-0.106,0.807-0.2283,1.7498-0.353,2.7313c-0.5463,0.1597-1.3196,0.3952-2.2079,0.6867
			c-1.9341,0.6816-2.8621,1.9347-2.8579,3.8772c0.9998-0.1288,1.999,0.0249,2.9521,0.4664
			c4.5576,2.1045,6.7744,9.8789,6.8662,10.209c0.0773,0.2771,0.0358,0.5509-0.0647,0.7983
			c-0.0072,0.0222-0.0124,0.0439-0.0221,0.0664c-0.0349,0.0738-0.0801,0.1373-0.1287,0.2031
			c-0.0525,0.0724-0.1129,0.1444-0.1855,0.2177c-0.0134,0.0114-0.0235,0.0248-0.0374,0.0356
			c-0.6573,0.6387-1.9797,1.2866-2.9434,1.5886c-1.1367,0.3563-1.4766-0.1796-1.7478-0.9674
			c-0.2691-0.7817-0.1554-1.2951,0.8461-1.9119c0.3796-0.2337,0.8907-0.5088,1.4305-0.7043
			c-0.8716-2.3594-2.6981-6.1736-5.0612-7.2655c-0.8535-0.3945-1.6699-0.3828-2.5713,0.0352
			c-3.4786,1.6097-1.9059,8.0184-1.0405,10.7716c0.505-0.2217,1.036-0.3754,1.4539-0.4692
			c1.1475-0.2579,1.5874,0.0302,1.9406,0.7776c0.356,0.7534,0.4869,1.3743-0.5755,1.913c-0.0848,0.043-0.1838,0.0853-0.2767,0.1281
			H32h25C57,59,55.4863,47.2344,52.6128,44.1104z M32.0166,49.3398c-2.3003-1.75-6.2275-5.5302-5.7944-9.0224
			c0.237-1.9129,0.0408-0.5492,0.8235-5.4371c-2.2767-2.2-4.1043-4.8665-4.1043-8.061C21.3237,26.3154,20.9,24.2739,20.9,23.001
			c0-1.2725,0.3217-1.961,0.7737-2.1743c0.3922-0.1844,0.7725-0.0475,1.013,0.0886c0.1414,0.6527,0.2484,1.1383,0.2898,1.3098
			C23.1826,23.0762,24,22.998,24,22.998v-6.7451c2.0731-0.1505,6.1937-0.7531,10.7499-3.1062L40,16.6729v6.3251
			c0,0,0.8174,0.0782,1.0234-0.7729c0.0415-0.1715,0.1484-0.6571,0.2898-1.3098c0.2405-0.1362,0.6209-0.2731,1.013-0.0886
			C42.7783,21.04,43.1,21.7285,43.1,23.001c0,1.2729-0.4237,3.3144-2.0414,3.8183c0,3.7027-2.5335,6.4959-5.3403,8.8846
			c-0.7807,0.6644-2.2499,1.1066-3.7188,1.1055c-1.0628-0.0008-2.1255-0.2865-2.9271-0.6349
			c0.6138,0.9305,1.6553,2.0744,3.5848,2.5851c3.1548,0.8349,5.4595-0.9139,5.4595-0.9139s0.2828,1.9133,0.2745,2.4157
			C38.7179,43.7497,34.47,47.5783,32.0166,49.3398z" />
			<circle cx="44.5" cy="50.5" r="2" />
		</g>
	</g>
</svg>
