<?xml version="1.0" encoding="utf-8"?>
<!-- Generator: Adobe Illustrator 17.1.0, SVG Export Plug-In . SVG Version: 6.00 Build 0) -->
<svg width="24px" height="24px" viewBox="0 0 64 64">
	<g id="Box">
		<rect fill="none" width="64" height="64" />
	</g>
	<g id="Icon">
		<g>
			<path d="M21.1421,23.2949c-0.1011-0.314-0.4692-1.0186-1.7212-0.9194c-2.7603,0.2246-4.2036,3.4521-4.0234,5.6665
			c0.1812,2.2261,1.582,2.1123,2.0474,2.0752c2.7798-0.2266,3.4614-2.4692,3.4678-2.4917c0.0046-0.0159,0.013-0.0294,0.0181-0.0449
			c-0.1111-1.4193,0.0381-2.9049,0.2568-4.1711C21.1729,23.3708,21.1536,23.3353,21.1421,23.2949z" />
			<path d="M60,3H4v40h16c0.0209,0.0562-0.0531,0.2623-0.3703,0.3641l-5.4017,1.075L11,63h7l1.7391-10h24.5217L46,63h7
			l-3.228-18.5609l-5.4017-1.075C44.0531,43.2623,43.9791,43.0562,44,43h16V3z M17.688,33.1074
			c-0.1597,0.0127-0.3174,0.0195-0.4722,0.0195c-2.6606,0-4.5684-1.8926-4.8086-4.8413c-0.3262-4.0054,2.3164-8.5376,6.7705-8.9004
			c1.2106-0.0966,2.1624,0.1732,2.8958,0.6065c0.3502-0.5796,1.0595-0.8692,1.7336-0.6553c0.7891,0.25,1.2266,1.0928,0.9766,1.8823
			c-0.6948,2.1982-1.416,6.3027-0.3926,7.959c0.2329,0.377,0.5283,0.5693,0.9873,0.6421c0.5394,0.0865,1.1888-0.1693,1.4528-0.4604
			c-0.0825-0.2322-0.1276-0.506-0.1637-0.7497c-0.3925-2.6469,0.1522-6.2504,1.1611-9.678
			c0.0161-0.0742,0.0376-0.1475,0.0654-0.2192c1.2046-4.0078,3.0205-7.728,4.6572-9.3076c0.4404-0.4253,1.0957-0.5405,1.6558-0.2886
			c0.5596,0.251,0.9097,0.8169,0.8843,1.4292c-0.0068,0.1675-0.2144,4.1011-4.4434,9.4146
			c-1.0391,3.5649-1.5562,7.2803-0.7715,9.2231c0.3125,0.7739,0.7056,0.9292,1.2388,0.9292c2.6606,0,3.9624-2.0596,4.3989-2.9453
			c0.7852-1.5938,0.8589-3.4697,0.1714-4.3643c-0.1426-0.1855-0.5801-0.749-1.9878-0.4668
			c-0.8154,0.1621-1.6025-0.3638-1.7651-1.1763s0.3638-1.6025,1.1763-1.7651c2.8179-0.5645,4.3154,0.7476,4.9551,1.5801
			c1.4014,1.8232,1.4585,4.8447,0.1411,7.5181c-1.4248,2.8926-4.0752,4.6196-7.0898,4.6196c-1.1448,0-2.1234-0.3799-2.8789-1.0906
			c-0.7184,0.4807-1.6398,0.8157-2.6343,0.8157c-0.2285,0-0.4609-0.0176-0.6953-0.0547c-1.1522-0.1835-2.0917-0.7633-2.7753-1.649
			C21.1935,32.0722,19.7787,32.9371,17.688,33.1074z M20.4348,49l1.0435-6h21.0435l1.0435,6H20.4348z M52.5044,28.4731
			c-0.4907,1.6377-2.4272,4.6455-6.2939,4.6455c-0.1147,0-0.231-0.0024-0.3486-0.0078c-3.2036-0.147-5.3979-2.6069-5.46-6.1221
			c-0.061-3.4307,2.1411-7.2612,6.3423-7.6035c2.9199-0.2441,4.6797,1.6714,5.2505,2.8384c0.3643,0.7441,0.0562,1.6426-0.688,2.0063
			c-0.7373,0.3613-1.6294,0.0605-1.998-0.6709c-0.0791-0.1475-0.7539-1.3228-2.3213-1.1836
			c-2.6865,0.2188-3.6167,2.8472-3.5859,4.5601c0.0127,0.7183,0.2378,3.0703,2.5977,3.1782
			c2.7056,0.1289,3.5488-2.2432,3.6353-2.5137c0.25-0.7842,1.0908-1.2275,1.874-0.9834
			C52.2949,26.8599,52.7407,27.6846,52.5044,28.4731z" />
		</g>
	</g>
</svg>
