<?xml version="1.0" encoding="utf-8"?>
<!-- Generator: Adobe Illustrator 21.0.2, SVG Export Plug-In . SVG Version: 6.00 Build 0) -->
<!DOCTYPE svg PUBLIC "-//W3C//DTD SVG 1.1//EN" "http://www.w3.org/Graphics/SVG/1.1/DTD/svg11.dtd">
<svg width="32px" height="32px" viewBox="0 0 64 64">
	<style type="text/css">
		.st0{fill:none;}
		.st1{fill:#FFFFFF;}
	</style>
	<g id="_x36_4px_Box">
		<rect class="st0" width="64" height="64" fill="none" />
	</g>
	<g id="Icon">
		<g id="Icon_12_">
			<g>
				<path d="M48,8H16c-1.1,0-2,0.9-2,2v47h15v-9h6v9h15V10C50,8.9,49.1,8,48,8z M25,41h-6v-6h6V41z M25,31h-6v-6h6V31z M25,21h-6v-6
				h6V21z M35,41h-6v-6h6V41z M35,31h-6v-6h6V31z M35,21h-6v-6h6V21z M45,41h-6v-6h6V41z M45,31h-6v-6h6V31z M45,21h-6v-6h6V21z" />
			</g>
		</g>
	</g>
</svg>
