<?xml version="1.0" encoding="utf-8"?>
<!-- Generator: Adobe Illustrator 18.1.0, SVG Export Plug-In . SVG Version: 6.00 Build 0) -->
<svg width="32px" height="32px" viewBox="0 0 64 64">
	<g id="_x36_4px_Boxes">
		<rect fill="none" width="64" height="64" />
	</g>
	<g id="Production">
		<g>
			<path d="M49.6957,50.9252C48.4733,54.5591,45.046,57.18,41,57.18c-5.07,0-9.18-4.1101-9.18-9.18
			c0-1.7429,0.4946-3.3664,1.3381-4.7545c-0.596-0.8474-1.0191-1.8351-1.1869-2.976c-0.066-0.4495-0.1253-0.9359-0.179-1.445
			C29.4492,41.1758,28,44.4184,28,48c0,7.1797,5.8203,13,13,13c4.3248,0,8.1456-2.1204,10.5089-5.3692
			c-0.0104-0.0255-0.0224-0.0474-0.0328-0.0732C50.9294,54.1954,50.3204,52.5984,49.6957,50.9252z" />
			<path d="M55.6262,43.5565c-1.5733-5.4054-2.0868-5.3978-5.1462-6.0981c-2.8189-0.6453-6.6585-0.8462-6.6585-0.8462
			c0-5.0806,0-9.2867,0-9.2867c0-4.8815-4.6288-5.5887-7.0287-4.5721c-1.0569,0.4476-1.8954,1.4245-2.3015,3.553
			c-0.7299,3.826-0.5618,10.0904-0.0464,13.5994c0.5443,3.7036,4.2474,3.85,5.264,3.85h10.0156
			c1.3522,3.7057,2.8604,7.8522,4.0719,10.8705c1.5612,3.8895,4.4987,3.4567,5.35,3.2406
			C58.0977,53.2892,56.9594,48.2555,55.6262,43.5565z" />
			<path d="M40.471,20.7563c2.7443,0.0193,4.3463-1.8908,4.3657-4.6577c0.0226-3.1525-1.6252-4.8545-4.298-4.874
			c-2.8154-0.0201-4.3464,1.968-4.3668,4.8119C36.1501,19.0339,37.7273,20.736,40.471,20.7563z" />
			<path d="M17.446,10.7713c2.7443,0.0193,4.3463-1.8908,4.3657-4.6577c0.0226-3.1525-1.6253-4.8545-4.298-4.874
			c-2.8154-0.0201-4.3464,1.968-4.3667,4.8118C13.1251,9.049,14.7023,10.751,17.446,10.7713z" />
			<path d="M31.9241,31.5186c-0.7054-1.1541-5.8281-8.2764-6.2478-9.0015c-3.1586-5.3047-3.8026-9.3085-7.2537-10.0081
			c-1.4993-0.304-3.2012-0.3901-4.4664,0.5738c-1.7065,1.3002-2.0588,3.6371-1.9079,6.8139
			c0.2011,4.2339,0.7525,5.6917-0.5205,8.6619c-0.8153,1.9025-1.2343,2.8893-1.8364,5.1583
			c-0.5692,2.1455-1.1624,3.655-2.3684,8.1716c1.0544,0.7825,3.8065,2.175,8.0356,2.2251c0.1339,0.282-0.0369,0.8304-0.9531,1.041
			c-0.6909,0.1588-1.8688,0.3317-3.2656,0.2805c-0.5338,2.6122-2.02,7.1506-2.5495,10.3054
			C8.1605,58.3012,9.8324,60.5991,11.2002,61c1.7187-5.432,2.7197-8.335,3.6879-11.1408c0.3376,2.8102,0.5905,5.2981,0.7337,6.2469
			c0.4978,3.2974,2.9617,4.9605,4.3296,4.8561l-0.4182-17.272c1.8115-0.4538,3.17-1.1547,3.17-1.1547
			c-0.4852-6.3079-1.8274-9.2096-2.6686-11.882c0.3293-3.2501,0.5584-6.7369,0.588-9.5022c0.7863,1.6423,1.8794,3.633,3.0868,5.0062
			c1.5345,1.7451,2.2516,2.8765,3.6286,4.3052C29.2869,32.4847,30.9417,32.1047,31.9241,31.5186z" />
		</g>
	</g>
</svg>
