<?xml version="1.0" encoding="utf-8"?>
<!-- Generator: Adobe Illustrator 17.1.0, SVG Export Plug-In . SVG Version: 6.00 Build 0) -->
<svg width="24px" height="24px" viewBox="0 0 64 64">
	<g id="_x36_4px_Boxes">
		<rect fill="none" width="64" height="64" />
	</g>
	<g id="Production">
		<g>
			<path d="M57,18h-1c-0.5522,0-1,0.4478-1,1v10c0,0.5522,0.4478,1,1,1h1c1.1045,0,2-0.8955,2-2v-8C59,18.8955,58.1045,18,57,18z" />
			<path d="M8,18H7c-1.1046,0-2,0.8955-2,2v8c0,1.1045,0.8954,2,2,2h1c0.5522,0,1-0.4478,1-1V19C9,18.4478,8.5522,18,8,18z" />
			<path d="M48.3667,7H15.6333c-2.0747,0-3.8174,1.5161-4.0645,3.5293C10.9639,15.4512,10,25.019,10,36v15
			c0,0,0,3.5737,0.3661,5.0688c0.1334,0.544,0.7218,0.9312,1.4,0.9312H14h2.2339c0.6781,0,1.2666-0.3872,1.3999-0.9312
			c0.2215-0.9046,0.3088-2.5668,0.3433-3.7414c0,0-3.5943-0.7571-4.5943-0.953C13.067,51.3125,13.0469,51.125,13.0935,51h37.813
			c0.031,0.1328,0.0154,0.3047-0.344,0.3906c-0.1563,0.0374-4.5396,0.9368-4.5396,0.9368c0.0345,1.1745,0.1217,2.8368,0.3432,3.7414
			c0.1334,0.544,0.7218,0.9312,1.4,0.9312H50h2.2339c0.6781,0,1.2666-0.3872,1.3999-0.9312C54,54.5737,54,51,54,51V36
			c0-10.981-0.9639-20.5488-1.5688-25.4707C52.1841,8.5161,50.4414,7,48.3667,7z M22,10h20v4H22V10z M22,45c0,0.5522-0.4478,1-1,1
			h-6c-0.5522,0-1-0.4478-1-1v-2c0-0.6504,0.6113-1.1279,1.2427-0.9702l6,0.9702C21.6875,43.1113,22,43.5112,22,43.9702V45z M50,45
			c0,0.5522-0.4478,1-1,1h-6c-0.5522,0-1-0.4478-1-1v-1.0298c0-0.459,0.3125-0.8589,0.7573-0.9702l6-0.9702
			C49.3887,41.8721,50,42.3496,50,43V45z M13.9629,37.0005c0.0381-6.6625,0.4452-14.0733,0.8612-19.0888
			C14.8671,17.3942,15.3012,17,15.8205,17h32.3603c0.5194,0,0.9536,0.3944,0.9964,0.9121
			c0.4144,5.0116,0.8218,12.4237,0.8599,19.0885C50.0403,37.5552,49.5885,38,49.0337,38H14.9663
			C14.4115,38,13.9597,37.5553,13.9629,37.0005z" />
		</g>
	</g>
</svg>
