<?xml version="1.0" encoding="utf-8"?>
<!-- Generator: Adobe Illustrator 24.1.0, SVG Export Plug-In . SVG Version: 6.00 Build 0) -->
<svg viewBox="0 0 64 64" width="32px" height="32px">
	<style type="text/css">
		.st0{fill:none;}
	</style>
	<g id="_x36_4px_Box">
		<rect class="st0" width="64" height="64" fill="none" />
	</g>
	<g id="Icon">
		<path d="M62.17,19.89c-0.84-2.03-3.17-2.99-5.19-2.15c-1.36,0.56-2.23,1.8-2.41,3.17c-0.03,0.01-0.07,0.01-0.1,0.02l-8.24,3.45
		c-1.45-2.74-3.6-4.9-6.14-6.38l1.49-3.55L40,13.64c-0.37-0.24-0.23-0.49-0.19-0.55c0.05,0.01,0.94,0.48,2.13,0.33
		c0.01,0,0.03,0,0.05,0c0,0,0-0.01,0-0.01c1.37-0.18,2.6-1.04,3.17-2.41C46,8.97,45.04,6.64,43.01,5.8
		c-2.03-0.84-4.35,0.12-5.19,2.15c-0.56,1.36-0.3,2.85,0.54,3.94c-0.02,0.03-0.04,0.05-0.06,0.09l-1.86,4.43
		c-2.84-0.83-5.92-0.89-8.91-0.06l-2.93-6.99L22.9,9.91c-0.43,0.09-0.51-0.18-0.52-0.26c0.04-0.03,1-0.33,1.74-1.27
		c0.01-0.01,0.02-0.03,0.03-0.04c0,0-0.01-0.01-0.01-0.01c0.84-1.09,1.11-2.58,0.54-3.94c-0.84-2.03-3.17-2.99-5.19-2.15
		c-2.03,0.84-2.99,3.17-2.15,5.19c0.56,1.36,1.8,2.23,3.17,2.41c0.01,0.03,0.01,0.07,0.02,0.1l3.33,7.95
		c-2.76,1.57-4.92,3.87-6.33,6.55l-4.07-1.63l-0.77,1.6c-0.23,0.37-0.48,0.25-0.55,0.2c0.01-0.05,0.45-0.95,0.28-2.14
		c0-0.01,0-0.03-0.01-0.05c0,0-0.01,0-0.01,0c-0.21-1.36-1.11-2.58-2.49-3.11c-2.05-0.79-4.35,0.24-5.14,2.29
		c-0.79,2.05,0.24,4.35,2.29,5.14c1.38,0.53,2.86,0.23,3.93-0.64c0.03,0.02,0.05,0.04,0.09,0.06l5.06,2.01
		c-0.67,2.74-0.64,5.67,0.23,8.52l-7.41,3.05l0.55,1.69c0.09,0.43-0.18,0.51-0.26,0.52c-0.03-0.04-0.33-1-1.27-1.74
		c-0.01-0.01-0.03-0.02-0.04-0.03c0,0-0.01,0.01-0.01,0.01c-1.09-0.84-2.58-1.11-3.94-0.54c-2.03,0.84-2.99,3.17-2.15,5.19
		c0.84,2.03,3.17,2.99,5.19,2.15c1.36-0.56,2.23-1.8,2.41-3.17c0.03-0.01,0.07-0.01,0.1-0.02L18,40.31
		c1.49,2.49,3.59,4.53,6.15,5.91l-1.71,4.08l1.58,0.81c0.37,0.24,0.23,0.49,0.19,0.55c-0.05-0.01-0.94-0.48-2.13-0.33
		c-0.01,0-0.03,0-0.05,0c0,0,0,0.01,0,0.01c-1.37,0.18-2.6,1.04-3.17,2.41c-0.84,2.03,0.12,4.35,2.15,5.19
		c2.03,0.84,4.35-0.12,5.19-2.15c0.56-1.36,0.3-2.85-0.54-3.94c0.02-0.03,0.04-0.05,0.06-0.09l2.13-5.1
		c1.33,0.35,2.68,0.54,4.04,0.54c1.44,0,2.88-0.21,4.29-0.6l3.13,7.66l1.69-0.55c0.43-0.09,0.51,0.18,0.52,0.26
		c-0.04,0.03-1,0.33-1.74,1.27c-0.01,0.01-0.02,0.03-0.03,0.04c0,0,0.01,0.01,0.01,0.01c-0.84,1.09-1.11,2.58-0.54,3.94
		c0.84,2.03,3.17,2.99,5.19,2.15c2.03-0.84,2.99-3.17,2.15-5.19c-0.56-1.36-1.8-2.23-3.17-2.41c-0.01-0.03-0.01-0.07-0.02-0.1
		l-3.52-8.59c2.45-1.38,4.47-3.35,5.91-5.75l4.27,1.69l0.77-1.6c0.23-0.37,0.48-0.25,0.55-0.2c-0.01,0.05-0.45,0.95-0.28,2.14
		c0,0.01,0,0.03,0.01,0.05c0,0,0.01,0,0.01,0c0.21,1.36,1.11,2.58,2.49,3.11c2.05,0.79,4.35-0.24,5.14-2.29
		c0.79-2.05-0.24-4.35-2.29-5.14c-1.38-0.53-2.86-0.23-3.93,0.64c-0.03-0.02-0.05-0.04-0.09-0.06l-5.02-1.98
		c0.87-2.82,0.93-5.78,0.22-8.62l7.41-3.11l-0.55-1.69c-0.09-0.43,0.18-0.51,0.26-0.52c0.03,0.04,0.33,1,1.27,1.74
		c0.01,0.01,0.03,0.02,0.04,0.03c0,0,0.01-0.01,0.01-0.01c1.09,0.84,2.58,1.11,3.94,0.54C62.04,24.24,63.01,21.91,62.17,19.89z
		 M41.34,35.88c-1.04,2.52-3.01,4.49-5.53,5.53s-5.3,1.05-7.83,0c-2.52-1.04-4.49-3.01-5.53-5.54c-2.16-5.21,0.33-11.2,5.53-13.36
		c1.28-0.53,2.6-0.78,3.9-0.78c4.01,0,7.83,2.38,9.46,6.31C42.39,30.58,42.39,33.36,41.34,35.88z" />
	</g>
	<g id="Layer_3">
	</g>
	<g id="Layer_4">
	</g>
	<g id="Layer_5">
	</g>
</svg>
