<?xml version="1.0" encoding="utf-8"?>
<!-- Generator: Adobe Illustrator 22.1.0, SVG Export Plug-In . SVG Version: 6.00 Build 0) -->
<!DOCTYPE svg PUBLIC "-//W3C//DTD SVG 1.1//EN" "http://www.w3.org/Graphics/SVG/1.1/DTD/svg11.dtd">
<svg width="24px" height="24px" viewBox="0 0 64 64">
	<style type="text/css">
		.st0{fill:none;}
		.st1{fill:#FFFFFF;}
	</style>
	<g id="_x36_4px_Box">
		<rect class="st0" width="64" height="64" />
	</g>
	<g id="Icon">
		<path d="M44.8,3H19.2c-1.4,0-1.7,2.4,0,2.9c0.9,0.3,2.1,0.5,2.9,0.7V7v44c0,5.5,4.5,10,10,10s10-4.5,10-10V7V6.7
		c0.8-0.2,1.9-0.5,2.9-0.7C46.5,5.4,46.2,3,44.8,3z M26,7h12v16H28h-2V7z M34.3,49.8c-1.1,3.3-3.7,5.4-5.7,4.8
		c-2-0.7-2.7-3.9-1.5-7.3c0.8-2.3,2.3-4,3.8-4.6l4.6-13.4l2.6,3.5l-3.8,11.1C35,45.3,35.1,47.5,34.3,49.8z" />
	</g>
</svg>
