<?xml version="1.0" encoding="utf-8"?>
<!-- Generator: Adobe Illustrator 24.1.0, SVG Export Plug-In . SVG Version: 6.00 Build 0) -->
<svg viewBox="0 0 64 64" width="32px" height="32px">
	<style type="text/css">
		.st0{fill:none;}
	</style>
	<g id="_x36_4px_Box">
		<rect class="st0" width="64" height="64" fill="none" />
	</g>
	<g id="Icon">
		<g>
			<path d="M54.31,53.79l-5.77-12.17c0.36-0.78,0.29-2.12-0.35-3.32c-0.85-1.7-2.19-2.76-3.11-2.27c-0.92,0.49-1.07,2.19-0.22,3.89
			c0.63,1.34,1.62,2.2,2.4,2.41l5.77,12.17c0.21,0.35,0.64,0.5,0.92,0.36C54.38,54.56,54.52,54.14,54.31,53.79z" />
		</g>
	</g>
	<g id="Icon_2_">
		<g>
			<path d="M45.72,31.93l-5.14-6.24c-0.17-0.76,0.11-1.91,0-2.56c-0.56-3.24-1.82-6.82-1.82-6.82c1.76-3.38,0.9-6.41-1.75-8.13
			c-3.02-1.95-13.8-2.15-21.82,2.23c-8.46,4.63-7.54,13.27-6.12,17.6c1.66,5.04,6.39,12.18,6.74,17.57c0.15,2.36-1.8,9.41-1.8,9.41
			H33.7l-0.93-4.98l-4.56-2.33c-0.24-0.13-0.24-0.32-0.18-0.39c0,0,6.52,1.26,9.19,1.61c2.68,0.35,5.08-1.71,5.08-4.98
			c0-3.6,0-8.12,0-8.12l2.92-1.48C46.01,33.8,46.24,32.73,45.72,31.93z" />
		</g>
	</g>
</svg>
