<?xml version="1.0" encoding="utf-8"?>
<!-- Generator: Adobe Illustrator 24.0.3, SVG Export Plug-In . SVG Version: 6.00 Build 0) -->
<svg viewBox="0 0 64 64" width="32px" height="32px">
	<style type="text/css">
		.st0{fill:none;}
		.st1{fill:#FF1D25;}
		.st2{fill:#1D1D1B;}
	</style>
	<g id="Box">
		<rect class="st0" width="64" height="64" fill="none" />
	</g>
	<g id="Icon">
		<g>
			<path d="M37.6,22.5c-0.4-0.3-1.1-0.2-1.4,0.2c-0.3,0.4-0.2,1.1,0.2,1.4l0.7,0.6L36,24.7c-0.6,0-1,0.5-0.9,1.1c0,0.5,0.5,0.9,1,0.9
			c0,0,0.1,0,0.1,0l3.8-0.3c0.4,0,0.8-0.3,0.9-0.7c0.1-0.4,0-0.8-0.4-1.1L37.6,22.5z" />
			<path d="M56.1,32.6c-0.7-2.5-2.9-3.7-5.3-4c2.5-4.6,8.5-16.8,0.7-18.1C49,7.7,47.4,5.6,41.2,5.8c-5.8,0.2-12.5,0.3-15.1,9.9
			c-1.2,4.5-0.5,6.8,0.2,11.7c-2.6-1.2-5.1-2.4-6.7-3.1c-0.1-0.3-0.2-0.6-0.3-0.9c-0.4-1.1-0.8-2.1-1.7-2.9c-0.9-0.7-2-0.8-2.8-0.7
			c-1.1-0.9-2.4-1.3-3.7-1C9.9,19.1,8.7,20,8,21.5c-2.4,5-0.5,7.5,1.5,8.7c1.9,1.2,3.9,1.5,5.3,1.6c2.5,2.2,14.3,12.3,17.7,13.3
			c2.4,0.7,8.3-0.2,13.3-1.5c0.1,0.2-0.1,0.4-0.4,0.5c-4.5,2.1-10.9,3.6-13.8,2.8c-2-0.6-7-4.3-11.5-7.9c-2.1,0.9-4.1,2-5.2,3.1
			C12.2,45.2,10.7,59,10.7,59h40.4c0,0,0.9-12,4.3-19.6C56.3,37.3,57,35.5,56.1,32.6z M15,29.8c-1.1,0-2.8-0.3-4.5-1.3
			c-1.2-0.7-2.6-2.2-0.7-6.1c0.4-0.9,1-1.5,1.8-1.6c0.7-0.1,1.6,0.2,2.3,0.9l0.4,0.4l0.6-0.2c0,0,0.9-0.3,1.5,0.2
			c0.5,0.5,0.8,1.2,1.1,2.1c0,0.1,0.1,0.2,0.1,0.3L15,29.8z M29.1,28.7c0-1.2,0.1-2.5,0.6-3.7c-1.3-1.1-2-2.7-1.2-4.6
			c0.5-1.2,1.7-2.2,3.2-1c-0.1,0.7-0.2,1.1-0.2,1.3c-0.1,0.9,1.2,1.2,1.2,1.2l2.1-5.4c2,0.6,10,2.2,15.1,1.8l0.5,4.7c0,0,0,0,0,0
			c-0.4,1-0.9,1.9-1.4,2.8c-0.9,0.1-2.1,0.3-2.5,0.4c-0.4,0.1-0.7,0.4-0.8,0.8c-0.1,0.4,0.1,0.8,0.4,1l1.1,0.7
			c-3.3,0.5-8,1.9-11.3,3.1C34.1,31.1,31.6,29.9,29.1,28.7z" />
		</g>
	</g>
</svg>
