<?xml version="1.0" encoding="utf-8"?>
<!-- Generator: Adobe Illustrator 18.1.0, SVG Export Plug-In . SVG Version: 6.00 Build 0) -->
<svg width="32px" height="32px" viewBox="0 0 64 64">
	<g id="Box">
		<rect fill="none" width="64" height="64" />
	</g>
	<g id="Icon">
		<g>
			<path d="M32.6652,6.7672l7.9865-2.7953c0.4465-0.1562,0.4465-0.7876,0-0.9438l-7.9865-2.7953C32.3401,0.119,32,0.3603,32,0.7047
			v5.5906C32,6.6397,32.3401,6.881,32.6652,6.7672z" />
			<path d="M54,37l1.6324-0.5441C56.4492,36.1837,57,35.4194,57,34.5585v-5.3195c0-0.7487-0.4163-1.4361-1.0828-1.7772
			c-3.7416-1.9149-16.2699-8.7945-23.118-18.3002c-0.3902-0.5416-1.2081-0.5416-1.5983,0
			c-6.8481,9.5057-19.3765,16.3854-23.1181,18.3002C7.4163,27.803,7,28.4904,7,29.2391v5.0061c0,0.7379,0.4032,1.413,1.0525,1.7635
			c1.3777,0.7437,3.8803,1.5419,6.1142-0.692c0,0,3.25,4.7666,11.3333,0.6333c0,0,0.7728,0.1522,0.0312,0.8938
			c-1.0469,1.0469-6.3125,4.9062-11.6146,1.2603c-0.0075-0.0003-1.722,1.1633-4.2661,1.2303C7.6007,52.4503,5,58,5,58h17
			c6,0,10-16,10-16c-0.0058-0.1628,4,16,10,16h17C59,58,56.0897,51.8041,54,37z M24.9505,28H13.3372
			c4.8189-2.7984,12.177-7.655,17.7103-13.884C30.1328,17.1588,27.6656,24.7594,24.9505,28z M39.0496,28
			c-2.7151-3.2406-5.1823-10.8414-6.097-13.884C38.4858,20.345,45.8438,25.2017,50.6628,28H39.0496z" />
		</g>
	</g>
</svg>
