<?xml version="1.0" encoding="utf-8"?>
<!-- Generator: Adobe Illustrator 24.1.0, SVG Export Plug-In . SVG Version: 6.00 Build 0) -->
<svg viewBox="0 0 64 64" width="24px" height="24px">
	<style type="text/css">
		.st0{fill:none;}
		.st1{fill:#FF1D25;}
		.st2{fill:#1D1D1B;}
	</style>
	<g id="Box">
		<rect class="st0" width="64" height="64" />
	</g>
	<g id="Icon">
		<g>
			<path d="M58.09,11.03c-0.26-1.61-1.46-2.84-3.03-3.11c-4.54-0.78-12.11-0.78-13.62-0.78c-1.51,0-9.08,0-13.62,0.78
			c-1.57,0.27-2.77,1.49-3.03,3.11c-0.22,1.35-0.37,2.65-0.48,3.87c3.99,0.02,10.45,0.17,14.7,0.9c2.72,0.46,4.77,2.55,5.22,5.32
			c0.87,5.37,0.87,6.76,0.87,11.94c0,0.6,0,1.55-0.03,2.74l7.48,6.06c0.54,0.36,1.05,0.19,1.33-0.16c0.2-0.25,0.22-0.56,0.06-0.95
			l-1.99-5.44c1.11-0.1,2.18-0.23,3.12-0.39c1.57-0.27,2.77-1.49,3.03-3.1c0.76-4.66,0.76-8.83,0.76-10.39
			C58.85,16.76,58.85,15.69,58.09,11.03z" />
			<path d="M38.63,18.02c-5.06-0.87-13.5-0.87-15.19-0.87c-1.69,0-10.12,0-15.19,0.87c-1.75,0.3-3.08,1.67-3.38,3.46
			c-0.84,5.19-0.84,9.85-0.84,11.58c0,1.73,0,6.39,0.84,11.58c0.29,1.8,1.62,3.16,3.38,3.46c0.66,0.11,1.39,0.21,2.14,0.3l3.75-5.2
			c0.2-0.29,0.4-0.1,0.4-0.1l-3.26,11.5l-0.01,0l-0.05,0.18c-0.04,0.25,0,0.51,0.15,0.74c0.31,0.49,0.96,0.64,1.45,0.33l11.25-6.88
			c2.57-0.01,9.95-0.08,14.55-0.86c1.75-0.3,3.08-1.67,3.37-3.46c0.84-5.19,0.84-9.85,0.84-11.58c0-5.2,0-6.39-0.84-11.58
			C41.71,19.68,40.38,18.31,38.63,18.02z M21.42,41C21.19,41,21,40.81,21,40.58V36h-4.58C16.19,36,16,35.81,16,35.58v-4.17
			c0-0.23,0.19-0.42,0.42-0.42H21v-4.58c0-0.23,0.19-0.42,0.42-0.42h4.17c0.23,0,0.42,0.19,0.42,0.42V31h4.58
			c0.23,0,0.42,0.19,0.42,0.42v1.51l-2.21,2.92l-1.07-1.02c-0.45-0.43-1.03-0.66-1.65-0.66c-0.65,0-1.28,0.27-1.73,0.74l-1.07,1.13
			c-0.44,0.46-0.67,1.07-0.66,1.71c0.02,0.64,0.28,1.23,0.74,1.67L25.01,41H21.42z M34.55,35.43l-4.97,6.56
			c-0.08,0.1-0.19,0.15-0.31,0.15c-0.1,0-0.19-0.04-0.27-0.11l-4.27-4.07c-0.16-0.15-0.16-0.39-0.01-0.55l1.07-1.13
			c0.08-0.08,0.18-0.12,0.28-0.12c0.1,0,0.19,0.04,0.27,0.11l2.69,2.56l3.65-4.82c0.08-0.1,0.19-0.15,0.31-0.15
			c0.08,0,0.16,0.03,0.23,0.08l1.24,0.94C34.64,35.01,34.68,35.25,34.55,35.43z" />
		</g>
	</g>
</svg>
