<?xml version="1.0" encoding="utf-8"?>
<!-- Generator: Adobe Illustrator 24.1.0, SVG Export Plug-In . SVG Version: 6.00 Build 0) -->
<svg viewBox="0 0 64 64" width="24px" height="24px">
	<style type="text/css">
		.st0{fill:none;}
		.st1{fill:#FF1D25;}
		.st2{fill:#1D1D1B;}
	</style>
	<g id="Box">
		<rect class="st0" width="64" height="64" />
	</g>
	<g id="Icon">
		<path d="M56,20c-0.73,0-1.41,0.1-2,0.29V17c0-2.21-1.79-3-4-3c-2.21,0-4,0.79-4,3v16.2c-0.06,0.02-0.26,0.07-0.36-0.25
		c-0.07-0.23-0.66-3.24-0.99-4.95H18V17c0-2.21-1.79-3-4-3c-2.21,0-4,0.79-4,3v9.2c-0.06,0.02-0.26,0.07-0.36-0.25
		c-0.09-0.28-0.99-4.94-1.18-5.93C8.3,20.01,8.16,20,8,20c-2.21,0-4,0.79-4,3v18c0,2.21,1.79,3,4,3c0.73,0,1.41-0.1,2-0.29V47
		c0,2.21,1.79,3,4,3c2.21,0,4-0.79,4-3V36h28v11c0,2.21,1.79,3,4,3c2.21,0,4-0.79,4-3v-3.29c0.59,0.2,1.27,0.29,2,0.29
		c2.21,0,4-0.79,4-3V23C60,20.79,58.21,20,56,20z" />
	</g>
</svg>
