<svg width="24px" height="24px" viewBox="0 0 24 24">
	<path d="M14.74,12.7a4,4,0,0,0,3.1-1.22A6.4,6.4,0,0,0,19.33,7c0-.4-.18-.41-.44-.41H16.12V6H10.23V9.26c0,2.2.57,2.74.57,2.74a.15.15,0,0,1-.19,0,3.37,3.37,0,0,1-1-2.72V6H8.74v.57H6c-.26,0-.45,0-.45.41A6.4,6.4,0,0,0,7,11.48a4.06,4.06,0,0,0,3.1,1.22,2.26,2.26,0,0,0,1.46.76s.29,1.37-.74,1.81S8.72,16,8.74,16.34v2.25h7.38V16.34c0-.35-1.06-.63-2.09-1.07s-.74-1.81-.74-1.81a2.24,2.24,0,0,0,1.45-.76m1.39-3.62V7.31h2c.21,0,.32,0,.28.28a5.67,5.67,0,0,1-1.23,3.3,3.07,3.07,0,0,1-1.78.9A5.4,5.4,0,0,0,16.13,9.08ZM7.64,10.89A5.76,5.76,0,0,1,6.4,7.59c0-.3.08-.28.28-.28h2V9.08a5.4,5.4,0,0,0,.7,2.71A3.07,3.07,0,0,1,7.64,10.89Zm1.89,6h5.73v.88H9.53Z" fill="#68032f" />
	<rect x="11.04" y="1.27" width="1.31" height="22.08" transform="translate(-5.28 11.87) rotate(-45)" fill="#68032f" />
	<rect x="11.98" y="0.52" width="0.93" height="22.08" transform="translate(-4.53 12.18) rotate(-45)" fill="#fff" />
</svg>
