<svg width="36" height="36" viewBox="0 0 36 36" fill="none" xmlns="http://www.w3.org/2000/svg">
  <path d="M7.027 5L6.022 6.005l3.82 3.886c-.654.252-1.173.553-1.173.771 0 .218.402.318.804.385a1.022 1.022 0 000 .235c0 1.105.57 1.675 1.574 1.675a1.474 1.474 0 001.29-.653l2.06 2.094c-1.661 1.246-1.444 4.964-1.31 7.264l.004.056a1.406 1.406 0 001.39 1.474v-3.099a11.39 11.39 0 01.386-3.5c0-.135.134-.152.167-.118V31.55a1.911 1.911 0 002.077-1.809l.285-6.7a.201.201 0 01.201-.185.202.202 0 01.218.184l.285 6.701a1.91 1.91 0 002.077 1.81V20.092l.486.486v2.613a1.374 1.374 0 001.357-1.256l.485.502a1.961 1.961 0 01-1.105 1.19v.67a7.51 7.51 0 001.156.117v5.578a1.675 1.675 0 001.357-1.44s.117-2.781.167-4.205h.184l.168.15c0 1.441.15 4.055.15 4.055a1.675 1.675 0 001.357 1.474v-3.954l4.356 4.34 1.005-1.006L7.027 5zm7.926 4.287c-.18.08-.375.12-.572.119-.888 0-1.39-.553-1.39-1.558s.536-1.675 1.39-1.675c.854 0 1.373.62 1.373 1.675a1.374 1.374 0 01-.801 1.439zm3.324 3.562a1.67 1.67 0 01-.747.108 1.674 1.674 0 01-1.776-1.943 1.759 1.759 0 011.776-2.01c1.106 0 1.793.703 1.793 2.01a1.675 1.675 0 01-1.046 1.835zm2.419-3.443a1.373 1.373 0 001.39-1.558c0-1.056-.535-1.675-1.39-1.675-.854 0-1.373.67-1.373 1.675s.57 1.558 1.373 1.558zm4.942 1.876c0 1.038-.57 1.675-1.575 1.675a1.559 1.559 0 01-1.675-1.675c0-1.19.653-1.81 1.675-1.81s1.575.771 1.575 1.81z" />
  <path d="M13.677 14.18a1.822 1.822 0 00-.486-.168 9.815 9.815 0 00-4.522 0 2.126 2.126 0 00-1.324 1.173C6.608 16.743 5 21.517 5 21.517a.687.687 0 00.469 0l.176 1.8v.002c.244 2.505.62 6.357.645 6.574.033.285.804.15.77-.1-.017-.13-.142-1.92-.28-3.888a893.311 893.311 0 00-.34-4.773c.151-.128.272-.289.352-.47.319-.753.67-1.59.888-2.244.218-.653.503-1.44.754-1.993 0-.1.1-.185.15-.134v13.702a1.675 1.675 0 001.676-1.675s.268-6.08.268-6.148a.184.184 0 01.201-.167.185.185 0 01.184.167l.369 6.148a1.574 1.574 0 001.675 1.675v-6.868c-.3-.377-.47-.841-.486-1.323l-.014-.317c-.105-2.282-.267-5.786 1.22-7.305zm8.644 1.742v-.1h-.134a4.388 4.388 0 00-.62-1.324 2.11 2.11 0 01.955-.57 5.226 5.226 0 011.675-.25 5.226 5.226 0 011.675.25c1.14.42 1.743 1.374 1.977 3.35.059.53.198 1.072.344 1.638.103.4.21.814.293 1.244.2 1.039-.386 1.675-.855 1.675a45.228 45.228 0 01-1.273-5.662 2.37 2.37 0 00-.167-.351 3.251 3.251 0 010 1.842 3.199 3.199 0 000 1.541c.499 1.23.831 2.52.988 3.837l-4.49-4.49a10.286 10.286 0 00-.368-2.63zm-2.361-1.876c1.423.385 1.926 2.06 2.076 3.886l-4.17-4.17c.706.01 1.409.106 2.093.284z" />
</svg>
