<svg width="36" height="36" viewBox="0 0 36 36" fill="none" xmlns="http://www.w3.org/2000/svg">
  <path fill="#fff" d="M0 0h36v36H0z"/>
  <path fill-rule="evenodd" clip-rule="evenodd" d="M6 7.344L7.344 6 30 28.656 28.656 30l-4.234-4.233v1.353H13.713v-3.265c-.021-.365.823-.69 1.869-1.093.368-.142.76-.293 1.15-.46 1.494-.638 1.073-2.626 1.073-2.626a3.28 3.28 0 01-2.118-1.103 5.891 5.891 0 01-4.499-1.77 9.287 9.287 0 01-2.112-6.383L6 7.344zm4.363 4.363a8.36 8.36 0 001.754 4.24 4.455 4.455 0 002.525 1.306 7.836 7.836 0 01-.81-2.078l-3.47-3.468zm2.447-2.029l2.166 2.166V8.85h-1.263v.827h-.903zm9.25 9.25l-6.184-6.184V8.85h8.546v.856h4.02c.377 0 .639.015.639.595a9.287 9.287 0 01-2.163 6.501 5.804 5.804 0 01-4.498 1.77 3.248 3.248 0 01-.36.355zm2.377-5.608v-2.568h2.902c.305 0 .465 0 .406.406a8.227 8.227 0 01-1.784 4.789 4.463 4.463 0 01-2.583 1.306 7.835 7.835 0 001.059-3.933zM14.86 24.654h8.314v1.276H14.86v-1.276z" />
</svg>
