<svg width="24px" height="24px" viewBox="0 0 24 24">
	<path d="M11.59,8.83a1,1,0,0,0,1.07-1.16c0-.78-.41-1.2-1.07-1.2a1.05,1.05,0,0,0-1.06,1.2A1,1,0,0,0,11.59,8.83Z" />
	<path d="M9.71,6.71a.82.82,0,0,0,.82-.93c0-.63-.31-1-.82-1s-.83.4-.83,1S9.18,6.71,9.71,6.71Z" />
	<path d="M13.48,6.71a.82.82,0,0,0,.83-.93c0-.63-.32-1-.83-1s-.82.4-.82,1S13,6.71,13.48,6.71Z" />
	<path d="M15.49,8.83c.6,0,.94-.38.94-1s-.33-1.08-.94-1.08-1,.37-1,1.08A.93.93,0,0,0,15.49,8.83Z" />
	<path d="M9.29,9.56A1.09,1.09,0,0,0,9,9.46a5.86,5.86,0,0,0-2.7,0,1.27,1.27,0,0,0-.79.7c-.44.93-1.4,3.78-1.4,3.78a.41.41,0,0,0,.28,0c.09.92.47,4.83.49,5s.48.09.46-.06-.28-4-.37-5.17a.79.79,0,0,0,.21-.28c.19-.45.4-.95.53-1.34s.3-.86.45-1.19c0-.06.06-.11.09-.08V19a1,1,0,0,0,1-1s.16-3.63.16-3.67a.11.11,0,0,1,.12-.1.11.11,0,0,1,.11.1L7.86,18a.94.94,0,0,0,1,1v-4.1a1.34,1.34,0,0,1-.29-.79C8.51,12.76,8.36,10.51,9.29,9.56Z" />
	<path d="M14.45,10.54l0,.06a6.14,6.14,0,0,1,.22,1.57l2.68,2.68a8.89,8.89,0,0,0-.59-2.29,1.91,1.91,0,0,1,0-.92,1.94,1.94,0,0,0,0-1.1,1.41,1.41,0,0,1,.1.21,27,27,0,0,0,.76,3.38c.28,0,.63-.38.51-1s-.32-1.18-.38-1.72c-.14-1.18-.5-1.75-1.18-2a3.12,3.12,0,0,0-1-.15h0a3.12,3.12,0,0,0-1,.15,1.26,1.26,0,0,0-.57.34,2.62,2.62,0,0,1,.37.79Z" />
	<path d="M5.32,4.08l-.6.6L7,7c-.39.15-.7.33-.7.46s.24.19.48.23a.61.61,0,0,0,0,.14c0,.66.34,1,.94,1a.88.88,0,0,0,.77-.39L9.72,9.69c-1,.75-.86,3-.78,4.37a.84.84,0,0,0,.83.88V13.09A6.8,6.8,0,0,1,10,11c0-.08.08-.09.1-.07v9a1.14,1.14,0,0,0,1.24-1.08s.17-4,.17-4a.12.12,0,0,1,.12-.11.12.12,0,0,1,.13.11s.17,4,.17,4a1.14,1.14,0,0,0,1.24,1.08V13.09l.29.29v1.56a.82.82,0,0,0,.81-.75l.29.3a1.17,1.17,0,0,1-.66.71c0,.13,0,.26,0,.4a4.49,4.49,0,0,0,.69.07L14.59,19a1,1,0,0,0,.81-.86s.07-1.66.1-2.51l.11,0h0l.1.09c0,.86.09,2.42.09,2.42a1,1,0,0,0,.81.88l0-2.36,2.6,2.59.6-.6Z" />
	<path d="M14.28,11.8c-.09-1.09-.39-2.09-1.24-2.32a5.32,5.32,0,0,0-1.25-.17Z" />
</svg>
