<svg width="36" height="36" viewBox="0 0 36 36" fill="none" xmlns="http://www.w3.org/2000/svg">
  <path d="M18.29 7.664l3.323-1.138a.208.208 0 00.096-.075.201.201 0 00-.096-.304l-3.322-1.138a.212.212 0 00-.244.1.2.2 0 00-.025.09v2.275a.2.2 0 00.087.16.21.21 0 00.181.03z"/>
  <path fill-rule="evenodd" clip-rule="evenodd" d="M15.31 12.508a21.007 21.007 0 002.46-2.276 30.235 30.235 0 01-1.238 3.443l11.682 11.438a45.686 45.686 0 01-1.192-5.835l.655-.205a.804.804 0 00.39-.288.777.777 0 00.147-.456v-2.145a.762.762 0 00-.114-.41.784.784 0 00-.318-.29 28.333 28.333 0 01-9.313-7.164.4.4 0 00-.32-.155.41.41 0 00-.32.155 18.837 18.837 0 01-3.368 3.37l.85.818zm10.326 3.18h-4.634a19.204 19.204 0 01-2.443-5.456 29.538 29.538 0 007.077 5.456zM5 8.014l1.4-1.371L31 30.658 29.644 32l-4.693-4.596h-2.787c-2.413 0-4.008-6.288-4.008-6.288s-1.609 6.288-4.022 6.288h-6.81a29.863 29.863 0 001.863-7.295 3.619 3.619 0 001.713-.481 3.849 3.849 0 004.649-.496c.298-.35 0-.35 0-.35-3.248 1.619-4.544-.248-4.544-.248a2 2 0 01-2.458.277.798.798 0 01-.309-.294.776.776 0 01-.11-.407v-1.955a.761.761 0 01.115-.41.783.783 0 01.318-.29c.522-.233 1.49-.759 2.622-1.459L5 8.014zm7.063 6.843l-1.401.831h2.25l-.85-.831z" />
</svg>
