<svg width="24px" height="24px" viewBox="0 0 24 24">
	<path d="M4.2,3.85l.06-.06h0l-1,1L7.41,8.89c-.76.48-1.41.84-1.76,1a.53.53,0,0,0-.29.48v1.34a.54.54,0,0,0,.28.48A1.32,1.32,0,0,0,7.29,12s.87,1.28,3.05.17c0,0,.2,0,0,.24a2.54,2.54,0,0,1-3.12.34,2.39,2.39,0,0,1-1.15.33,20.82,20.82,0,0,1-1.25,5H9.39c1.62,0,2.7-4.31,2.7-4.31s1.07,4.31,2.69,4.31h1.87l3.15,3.15.91-.92Zm2.86,6.2L8,9.48l.57.57Z" fill="#68032f" />
	<path d="M10.18,7.87a14.21,14.21,0,0,0,1.65-1.56A21,21,0,0,1,11,8.67l7.84,7.84a31.91,31.91,0,0,1-.8-4l.44-.14a.54.54,0,0,0,.36-.51V10.39a.53.53,0,0,0-.29-.48A19.07,19.07,0,0,1,12.3,5a.27.27,0,0,0-.43,0A12.78,12.78,0,0,1,9.61,7.31Zm6.93,2.18H14a13.3,13.3,0,0,1-1.64-3.74A19.88,19.88,0,0,0,17.11,10.05Z" fill="#68032f" />
	<path d="M12.18,4.55l2.23-.78a.14.14,0,0,0,0-.26l-2.23-.78a.14.14,0,0,0-.18.13V4.42A.14.14,0,0,0,12.18,4.55Z" fill="#68032f" />
</svg>
