<?xml version="1.0" encoding="utf-8"?>
<!-- Generator: Adobe Illustrator 18.0.0, SVG Export Plug-In . SVG Version: 6.00 Build 0) -->
<svg width="32px" height="32px" viewBox="0 0 64 64">
	<g id="_x36_4px_Boxes">
		<rect fill="none" width="64" height="64" />
	</g>
	<g id="Production">
		<g>
			<path d="M54.8333,39.6666c0-2.9269-1.7462-5.3769-4.1004-6.0564C50.5568,30.4824,48.0427,28,44.9583,28
			c-0.7646,0-1.4928,0.1562-2.1611,0.4331C41.7924,27.5475,40.4257,27,38.9167,27c-2.9684,0-5.389,2.1108-5.5662,4.7728
			C30.8697,32.2681,29,34.4568,29,37.0833c0,0.4988,0.073,0.9797,0.1992,1.4384c-0.1631,0.0682-0.303,0.0515-0.4961-0.2561
			C28.2812,37.5938,28,36.4723,28,35.4583c0-2.3065,1.4742-4.2969,3.6141-5.2584c0.8067-2.7245,3.3165-4.7777,6.3859-5.1277V16.5
			c0-0.2762-0.2239-0.5-0.5-0.5h-1.8011L29.9621,2.1182c-0.1703-0.412-0.7539-0.412-0.9242,0L23.3011,16H21.5
			c-0.2761,0-0.5,0.2238-0.5,0.5V39h-4L9,50v11h17V50l7-11l6.9739,10.959c0.0088,0.001,0.0172,0.0032,0.0261,0.0041V50v11h7
			c0,0-1.2-4.8125-1.2-8c0-0.0857-0.0112-0.1656-0.0129-0.2504C46.3015,52.9117,46.8487,53,47.4167,53
			c2.9915,0,5.4166-2.4251,5.4166-5.4167c0-0.9248-0.2328-1.7948-0.6415-2.5565C53.772,43.9351,54.8333,41.9464,54.8333,39.6666z" />
			<rect x="30" y="52" width="6" height="5" fill="none" />
		</g>
	</g>
</svg>
