<?xml version="1.0" encoding="utf-8"?>
<!-- Generator: Adobe Illustrator 19.1.0, SVG Export Plug-In . SVG Version: 6.00 Build 0) -->
<svg width="24px" height="24px" viewBox="0 0 64 64">
	<g id="_x36_4px_Box">
		<rect fill="none" width="64" height="64" />
	</g>
	<g id="Icon">
		<g>
			<path d="M41.9998,13c3.1665,0,5-1.9516,5-5.411c0-3.2831-1.7505-5.589-5-5.589c-3.0847,0-5,1.9509-5,5.589
			C36.9998,10.7822,38.832,13,41.9998,13z" />
			<path d="M21.9871,11.7732c3.0239,0,4.7734-2.1386,4.7734-5.2183c0-3.5075-1.8284-5.3893-4.7734-5.3893
			c-3.1025,0-4.7734,2.2241-4.7734,5.3893C17.2136,9.8915,18.9644,11.7732,21.9871,11.7732z" />
			<path d="M54.8643,33.7448c-0.7019-3.7675-1.4797-5.8279-1.7966-8.4458c-0.7015-5.796-2.4709-8.5813-5.7629-9.5945
			c-1.5679-0.4824-3.0627-0.7044-4.7644-0.7045h-0.0605c-1.7019,0.0001-3.1967,0.2221-4.7644,0.7045
			c-1.1635,0.3581-2.1257,0.9558-2.9282,1.813c1.4955,0.7565,2.3755,2.3436,2.3755,4.7175c0,2.9917-1.7053,5.0282-4.6526,5.0282
			c-2.9463,0-4.6526-1.7869-4.6526-5.0282c0-2.249,0.8801-3.9982,2.5316-4.7812C28.7247,15.1462,25.9938,14,21.5105,14L21.51,14.001
			V14c-11.62,0-11.4845,6.96-11.4958,21.8676c-0.0023,3.0657,2.4714,4.0547,3.8794,4.0547c0-13.5728,0.5017-16.5172,0.7468-17.5922
			c0.1018-0.3172,0.3079-0.2708,0.364-0.2499c0,0,0.0056,0.7129,0.0056,40.9198c0,0,4.8655,0.0391,5.2372-5.0498
			c0,0,0.7277-19.2431,0.736-19.457C20.9913,38.2793,21.1506,38,21.51,38s0.5083,0.2793,0.5165,0.4932
			c0.0082,0.2139,0.7308,19.3173,0.7308,19.3173c0.2742,4.9745,4.7563,5.1807,5.2078,5.1889V47.4203
			c-0.9939,0-2.7937-0.5713-2.9268-2.9201c-0.2925-5.1648-0.1538-13.4298,2.9937-14.9727c1.9265-0.9442,7.1199-0.9442,9.2288-0.0342
			c2.9089,1.2558,2.8331,9.7483,2.8218,14.9643c-0.005,2.3527-2.0387,2.9658-3.032,2.9658v15.5743
			c0.1433-0.0233,3.7118-0.6389,3.9595-4.2064c0,0,0.8159-8.6949,0.9612-12.8555c0.5601-0.0887,0.5773-0.0983,1.0526-0.1677
			C43.166,49.8317,44,58.688,44,58.688C44.1887,62.4385,47.9844,63,47.9844,63L48,45.6978c1.7598,0.1674,2.9346,0.269,2.9346,0.269
			c0-8.8604-2.1382-12.2119-2.8738-14.9891c-0.3906-1.4758-0.3087-3.0204,0.0466-4.4986c0.3341-1.3894,0.7637-2.6836,0.0894-5.4301
			c0,0,0.3547,0.623,0.4971,1.0268c0.7902,2.244,0.709,6.892,3.8944,16.8948C53.9756,38.7932,55.4353,36.8102,54.8643,33.7448z" />
		</g>
	</g>
</svg>
