<?xml version="1.0" encoding="utf-8"?>
<!-- Generator: Adobe Illustrator 17.1.0, SVG Export Plug-In . SVG Version: 6.00 Build 0) -->
<svg width="32px" height="32px" viewBox="0 0 64 64">
	<g id="_x36_4px_Boxes">
		<rect fill="none" width="64" height="64" />
	</g>
	<g id="Production">
		<rect fill="none" width="64" height="64" />
		<path d="M49.6284,10.4228C37.7885,5.1605,32,16.4743,32,16.4743s-5.7886-11.3138-17.6284-6.0515
		C2.6938,15.6129,3.4723,41.3637,30.8428,55.7005c0.719,0.3765,1.5955,0.3765,2.3145,0
		C60.5276,41.3637,61.3062,15.6129,49.6284,10.4228z M46.7109,23.5737l-13.73,18.1268c-0.3879,0.5121-1.1353,0.5724-1.6001,0.1292
		L19.5974,30.5984c-0.4301-0.4099-0.4464-1.0909-0.0366-1.5211l2.9689-3.116c0.41-0.4302,1.0912-0.4467,1.5214-0.0367l7.4224,7.0735
		l10.0907-13.3228c0.3588-0.4737,1.0337-0.5669,1.5074-0.208l3.4314,2.599C46.9766,22.4251,47.0697,23.1,46.7109,23.5737z" />
	</g>
</svg>
