<?xml version="1.0" encoding="utf-8"?>
<!-- Generator: Adobe Illustrator 18.1.0, SVG Export Plug-In . SVG Version: 6.00 Build 0) -->
<svg width="32px" height="32px" viewBox="0 0 64 64">
	<g id="Box">
		<rect fill="none" width="64" height="64" />
	</g>
	<g id="Icon">
		<g>
			<path d="M2.2453,26c3.8909,0,6.713-2.53,9.2029-4.7621c0.7599-0.6813,1.5026-1.347,2.2197-1.8959
			c0.0039,0.0106,0.0077,0.021,0.0115,0.0316C15.2192,23.5848,18.2456,26,21.9827,26c3.8887,0,6.6943-2.5244,9.1696-4.7517
			c0.7687-0.6917,1.5198-1.3675,2.2472-1.922c0.0057,0.0157,0.0115,0.0316,0.0173,0.0474C34.9565,23.5848,37.983,26,41.7201,26
			c3.8867,0,6.6759-2.519,9.1367-4.7415c0.7775-0.7021,1.5368-1.3879,2.2745-1.9479c0.0076,0.0209,0.0152,0.0421,0.0229,0.063
			c1.4354,3.9255,4.4191,6.7347,8.4142,6.6248L63,25.9587v-4.0015L61.4575,22c-4.9343,0-5.3924-8-5.3924-8
			c-5.9886,0-9.4106,8-14.345,8s-5.3924-8-5.3924-8c-5.9281,0-9.4106,8-14.345,8c-4.9344,0-5.3923-8-5.3923-8
			c-5.8677,0-9.4108,8-14.3451,8C1.789,22,1.3829,21.9126,1,21.7884v4.1124C1.4058,25.9625,1.8199,26,2.2453,26z" />
			<path d="M11.4482,35.2379c0.7599-0.6812,1.5026-1.347,2.2197-1.8959c0.0039,0.0106,0.0077,0.0211,0.0115,0.0316
			C15.2192,37.5848,18.2456,40,21.9827,40c3.8887,0,6.6943-2.5244,9.1696-4.7516c0.7687-0.6917,1.5198-1.3676,2.2472-1.9221
			c0.0057,0.0157,0.0115,0.0316,0.0173,0.0474C34.9565,37.5848,37.983,40,41.7201,40c3.8867,0,6.6759-2.519,9.1367-4.7415
			c0.7775-0.7021,1.5368-1.3879,2.2745-1.9479c0.0076,0.0209,0.0152,0.0421,0.0229,0.063C54.694,37.5848,57.7204,40,61.4575,40
			h0.0555l0.0555-0.0015L63,39.9587v-4.0015L61.4575,36c-4.9343,0-5.3924-8-5.3924-8c-5.9886,0-9.4106,8-14.345,8
			s-5.3924-8-5.3924-8c-5.9281,0-9.4106,8-14.345,8c-4.9344,0-5.3923-8-5.3923-8c-5.8677,0-9.4108,8-14.3451,8
			C1.789,36,1.3829,35.9126,1,35.7884v4.1124C1.4058,39.9625,1.8199,40,2.2453,40C6.1362,40,8.9583,37.47,11.4482,35.2379z" />
			<path d="M56.0651,42c-5.9886,0-9.4106,8-14.345,8s-5.3924-8-5.3924-8c-5.9281,0-9.4106,8-14.345,8c-4.9344,0-5.3923-8-5.3923-8
			c-5.8677,0-9.4108,8-14.3451,8C1.789,50,1.3829,49.9126,1,49.7884v4.1124C1.4058,53.9625,1.8199,54,2.2453,54
			c3.8909,0,6.713-2.53,9.2029-4.7621c0.7599-0.6813,1.5026-1.347,2.2197-1.8959c0.0039,0.0106,0.0077,0.021,0.0115,0.0316
			C15.2192,51.5848,18.2456,54,21.9827,54c3.8887,0,6.6943-2.5244,9.1696-4.7517c0.7687-0.6917,1.5198-1.3675,2.2472-1.922
			c0.0057,0.0157,0.0115,0.0316,0.0173,0.0474C34.9565,51.5848,37.983,54,41.7201,54c3.8867,0,6.6759-2.519,9.1367-4.7415
			c0.7775-0.7021,1.5368-1.3879,2.2745-1.9479c0.0076,0.0209,0.0152,0.0421,0.0229,0.063c1.4354,3.9255,4.4191,6.7347,8.4142,6.6248
			L63,53.9587v-4.0015L61.4575,50C56.5231,50,56.0651,42,56.0651,42z" />
		</g>
	</g>
</svg>
