<?xml version="1.0" encoding="utf-8"?>
<!-- Generator: Adobe Illustrator 17.1.0, SVG Export Plug-In . SVG Version: 6.00 Build 0)  -->
<svg version="1.2" baseProfile="tiny" xmlns="http://www.w3.org/2000/svg" xmlns:xlink="http://www.w3.org/1999/xlink" x="0px"
	 y="0px" width="64px" height="64px" viewBox="0 0 64 64" xml:space="preserve">
<g id="Box">
	<rect fill="none" width="64" height="64"/>
</g>
<g id="Icon">
	<g>
		<path d="M45.4402,21.9142c0.0911,0.8096,0.9412,1.3215,1.7408,1.1652c2.6471-0.5174,8.1819-2.2651,10.2808-7.9774
			c0.11-0.2993-0.0928-0.6254-0.4093-0.6645c-1.3519-0.167-4.7194-0.3989-7.5007,0.9237c-0.189,2.384-0.8309,4.6271-0.9769,5.0351
			c-0.1122,0.3136-0.2849,0.2949-0.3426,0.2786c0,0-0.2177-4.6816-0.9921-8.6861c-0.2411-1.2473-1.0693-1.5765-2.2397-1.3729
			c-1.1282,0.1963-2.2103,0.8931-1.8455,1.9576C44.4366,16.3132,44.9915,17.9269,45.4402,21.9142z"/>
		<path d="M56.1491,25.561c-4.6533-3.225-6.538,0.2347-9.8798-0.6653c-3.3419-0.9-3.5248-4.6045-8.8777-4.3865
			c-2.8301,0.1153-5.4337,2.8292-6.9935,6.691c1.5261,6.2155,5.3664,11.6723,7.8677,18.6917
			c0.8088-0.204,1.5738-0.3661,2.3883-0.1468c2.0482,0.5516,2.6119,3.026,5.6975,3.53c2.7687,0.4522,5.3762,0.2154,9.4039-6.1537
			C59.9759,36.4476,60.0063,28.2343,56.1491,25.561z"/>
		<path d="M36.6213,54.3615c0.769-1.4719,0.9995-3.29,0.5506-5.1915c-1.2933-5.4737-6.0713-13.6288-7.6108-17.873
			c-3.2941-9.0883-2.0657-16.9735,0.0745-26.3438c0.0696-0.3047-0.1526-0.6015-0.4648-0.6141l-5.9452-0.2408
			c-0.1986-0.008-0.3813,0.0993-0.4687,0.2779c-0.5257,1.0747-1.438,3.082-2.3,7.9822c-1.1128-4.1704-1.746-8.4594-1.935-9.8449
			c-0.0359-0.263-0.2698-0.4441-0.5344-0.4228L11.0356,2.651c-0.2624,0.0212-0.4688,0.2353-0.465,0.4986
			c0.0246,1.7241,0.2608,3.7264,0.5573,5.605c3.259,2.6574,9.3557,6.7824,13.0856,16.8103
			c0.1161,0.3123-0.0773,0.4027-0.1345,0.4207C20.188,19.7123,14.3102,13.948,7.339,10.0273
			c-0.1893-0.1065-0.4276-0.0785-0.5886,0.0673l-4.362,3.9524c-0.2315,0.2098-0.2119,0.5799,0.0367,0.7693
			c7.6592,5.8353,13.6428,11.0923,16.9354,20.1779c1.5374,4.2455,3.0938,13.5694,5.6079,18.5977
			c0.8531,1.7083,2.2032,2.9654,3.7599,3.6149c-0.9766,1.7397-0.535,3.9973,0.7002,4.252c0.8805,0.1816,2.2709-0.9257,2.3434-3.0946
			c0.5267,1.2268,1.5759,1.9628,2.4282,1.654c0.8523-0.3089,1.1863-1.5463,0.8046-2.8257c1.4452,1.6188,3.2224,1.5781,3.782,0.8746
			C39.4657,57.2133,38.6855,55.1627,36.6213,54.3615z M32.2036,54.5088c-1.7285,0.626-3.5952-0.3418-4.5518-2.2578
			c-1.66-3.32-2.949-9.072-4.0939-13.5414l6.077,0.0349c1.7013,3.5273,3.87,7.9538,4.6169,11.1149
			C34.6616,51.5928,34.1953,53.7871,32.2036,54.5088z"/>
	</g>
</g>
</svg>
