<?xml version="1.0" encoding="utf-8"?>
<!-- Generator: Adobe Illustrator 17.1.0, SVG Export Plug-In . SVG Version: 6.00 Build 0) -->
<svg width="32px" height="32px" viewBox="0 0 64 64">
	<g id="_x36_4px_Boxes">
		<rect fill="none" width="64" height="64" />
	</g>
	<g id="Production">
		<g>
			<path d="M31.5,13c2.8506,0,4.5-2.0161,4.5-4.9194C36,4.7739,34.2764,3,31.5,3C28.5752,3,27,5.0967,27,8.0806
			C27,11.2261,28.6504,13,31.5,13z" />
			<path d="M21.7319,16.0869c-0.3355-0.1785-0.6898-0.3277-1.0718-0.4322C17.5,14.79,12.2917,14.79,9.25,15.6547
			C3.5477,17.2758,3.9581,28.167,4.4961,33.3516c0.2744,2.6445,2.1832,3.4052,3.4039,3.4052c0,0,0-7.0175,0-8.7568
			c0-2.1484,0.1417-4.25,0.725-6.1719c0.0936-0.3083,0.2656-0.4688,0.4053-0.3438V57c2.3574,0,4.0909-1.4254,4.3076-4.2334
			c0,0,0.6708-16.3575,0.6777-16.543s0.1758-0.4277,0.4942-0.4277s0.4677,0.2422,0.4756,0.4277
			c0.0079,0.1855,0.6718,16.5709,0.6718,16.5709C15.8154,55.5051,17.327,57,20,57V38.6171
			c-0.6752-0.813-1.1393-1.9038-1.2288-3.3364C18.4187,29.639,17.791,20.1053,21.7319,16.0869z" />
			<path d="M37.6416,15.755c-3.5583-0.9584-8.2666-1.0417-12.2832,0c-6.2367,1.6174-5.4918,13.0752-5.1011,19.4183
			c0.1777,2.8848,2.1919,3.7022,3.5191,3.7022c0,0,0-5.9155,0-7.8062c0-3.4755,0.0518-6.7568,0.8095-8.7729
			C24.7171,21.9472,24.9219,21.9063,25,22v39c2.7807,0,4.9997-1.5296,5.2373-4.6016c0,0,0.7285-17.8508,0.7363-18.053
			s0.1983-0.4649,0.5264-0.4649s0.5195,0.2627,0.5273,0.4649s0.7354,18.053,0.7354,18.053C33.0012,59.4829,35.2404,61,38,61V22
			c0.125-0.1094,0.3057-0.0723,0.4141,0.2964c0.6016,2.0474,0.8105,5.3286,0.8105,8.7729c0,1.8907,0,7.8062,0,7.8062
			c1.3262,0,3.3407-0.8175,3.5181-3.7022C43.1329,28.8302,43.8638,17.4308,37.6416,15.755z" />
			<path d="M15,13c2.5342,0,4-1.8145,4-4.4272C19,5.5962,17.4678,4,15,4c-2.5996,0-4,1.8867-4,4.5728C11,11.4033,12.4668,13,15,13z" />
			<path d="M41.2681,16.0869c0.3355-0.1785,0.6898-0.3277,1.0718-0.4322c3.1602-0.8647,8.3685-0.8647,11.4102,0
			c5.7023,1.6211,5.2919,12.5123,4.7539,17.6969c-0.2744,2.6445-2.1832,3.4052-3.4039,3.4052c0,0,0-7.0175,0-8.7568
			c0-2.1484-0.1417-4.25-0.725-6.1719c-0.0936-0.3083-0.2656-0.4688-0.4053-0.3438V57c-2.3574,0-4.0909-1.4254-4.3076-4.2334
			c0,0-0.6708-16.3575-0.6777-16.543s-0.1758-0.4277-0.4942-0.4277s-0.4677,0.2422-0.4756,0.4277
			c-0.0079,0.1855-0.6718,16.5709-0.6718,16.5709C47.1846,55.5051,45.673,57,43,57V38.6171
			c0.6752-0.813,1.1393-1.9038,1.2288-3.3364C44.5814,29.639,45.2091,20.1053,41.2681,16.0869z" />
			<path d="M48,13c-2.5342,0-4-1.8145-4-4.4272C44,5.5962,45.5322,4,48,4c2.5996,0,4,1.8867,4,4.5728C52,11.4033,50.5332,13,48,13z" />
		</g>
	</g>
</svg>
