<?xml version="1.0" encoding="utf-8"?>
<!-- Generator: Adobe Illustrator 19.1.0, SVG Export Plug-In . SVG Version: 6.00 Build 0) -->
<svg width="32px" height="32px" viewBox="0 0 64 64">
	<g id="Box">
		<rect fill="none" width="64" height="64" />
	</g>
	<g id="Icon">
		<g>
			<path d="M18.5081,10.7462c1.7833,0,3.5193-1.5858,3.1556-3.4567c-0.3444-1.7716-1.9852-2.855-2.8017-5.2089
			c-0.0978-0.2822-0.2224-0.322-0.3539-0.322c-0.1315,0-0.2576,0.0397-0.3555,0.322c-0.8165,2.3538-2.459,3.4229-2.8016,5.2089
			C14.9919,9.1614,16.7249,10.7462,18.5081,10.7462z" />
			<path d="M16.6234,17.1989c-0.3444-1.7716-1.9852-2.855-2.8017-5.2089c-0.0978-0.2822-0.2224-0.322-0.3539-0.322
			c-0.1315,0-0.2576,0.0397-0.3555,0.322c-0.8164,2.3538-2.459,3.4229-2.8016,5.2089c-0.3591,1.8719,1.3738,3.4567,3.1571,3.4567
			C15.2511,20.6556,16.987,19.0698,16.6234,17.1989z" />
			<path d="M23.5284,20.6556c1.7834,0,3.5193-1.5858,3.1556-3.4567c-0.3444-1.7716-1.9852-2.855-2.8016-5.2089
			c-0.0979-0.2822-0.2224-0.322-0.354-0.322c-0.1315,0-0.2576,0.0397-0.3555,0.322c-0.8164,2.3538-2.459,3.4229-2.8016,5.2089
			C20.0122,19.0708,21.7451,20.6556,23.5284,20.6556z" />
			<path d="M53.5448,33.7831c1.1025-9.4807-8.8018-12.5508-13.6202-15.3375c-2.1585-1.2484-4.0977-2.4137-6.7002-4.3422
			c-1.0344-0.7665-1.7853-0.7412-2.3013-0.1207c-0.5283,0.635-0.5584,1.8908,0.8694,3.4583
			c1.5247,1.6736,3.0096,2.857,5.1999,4.1684c1.1057,0.662,0.7187,2.4236-0.5695,2.4587c-0.0109,0.0002-0.0217,0.0005-0.0327,0.0007
			c-9.3774,0.1333-15.7653,0.1812-19.1116,0.2457c-1.0623,0.0577-1.8896,0.9437-1.8745,2.0074l0.0001,0.0049
			c0.0151,1.0631,0.8663,1.9249,1.9291,1.9533l1.6859,0.0186c0.6818-0.6915,1.6276-1.1218,2.6754-1.1218
			c1.0414,0,1.9833,0.424,2.6641,1.108c0.861-0.6732,1.931-1.0909,3.1086-1.0909c2.8021,0,5.0735,2.2715,5.0735,5.0735
			c0,0.1649-0.0331,0.3206-0.0485,0.4815c0.4315-0.1506,0.8879-0.2489,1.3707-0.2489c0.4887,0,0.9507,0.0997,1.3867,0.2538
			c-0.1782-0.5118-0.2946-1.0528-0.2946-1.6253c0-2.7443,2.2247-4.9689,4.9689-4.9689c2.7443,0,4.9689,2.2247,4.9689,4.9689
			c0,0.202-0.036,0.394-0.0594,0.5897c1.9169,0.9379,3.2404,2.9015,3.2404,5.1793c0,1.2397-0.4021,2.3788-1.0684,3.3179
			c-0.8954-1.2358-1.7585-2.3702-2.4146-3.3837c-1.3549-2.0933-2.5523-4.0129-3.9935-6.9138
			c-0.5728-1.153-1.2531-1.4719-1.9948-1.1537c-0.7592,0.3254-1.3571,1.4302-0.798,3.4755c0.597,2.1838,1.3817,3.913,2.7362,6.0768
			c0.6838,1.0923-0.4619,2.4854-1.6252,1.931c-0.0098-0.0047-0.0195-0.0095-0.0294-0.0143
			c-2.2841-1.1253-2.7007-1.2836-4.9388-2.3813l-12.1949-6.0891c-0.9724-0.4316-2.1121-0.0186-2.5823,0.9358l-0.0021,0.0043
			c-0.4698,0.9537-0.1036,2.1083,0.8301,2.6168c0,0,12.02,6.3014,12.2582,6.4293c0.2382,0.1279,0.3403,0.3466,0.3403,0.5667
			c0,0.356-0.2886,0.6446-0.6446,0.6446c-0.1224,0-0.3167-0.0771-0.4324-0.1335l-14.4044-7.0184
			c-0.9725-0.4315-2.1121-0.0185-2.5823,0.9358l-0.0021,0.0043c-0.4699,0.9538-0.1036,2.1084,0.8301,2.6168
			c0,0,13.767,7.0049,14.2527,7.2521c0.4858,0.2472,0.5975,0.6544,0.4251,0.9776c-0.1695,0.3178-0.5495,0.4391-0.9251,0.2548
			c-0.0003,0.0009-12.2727-6.1181-12.2727-6.1181c-0.9724-0.4316-2.1121-0.0186-2.5822,0.9357l-0.0022,0.0043
			c-0.4699,0.9537-0.1036,2.1083,0.8301,2.6168l13.5195,7.0441c0.4034,0.1992,0.5086,0.5342,0.3917,0.8338
			c-0.1115,0.2856-0.4556,0.4119-0.8154,0.2332l-8.9968-4.4695c-0.8615-0.3823-1.8712-0.0164-2.2877,0.829l-0.0019,0.0038
			c-0.4163,0.845-0.0918,1.8679,0.7354,2.3183c0.0607,0.0318,8.3374,4.388,10.7516,5.602
			c2.9633,1.4901,7.0072,3.4193,11.1057,4.0281c4.194,0.623,7.0792-0.2539,10.2594-5.0267
			c3.5447-5.3196,1.3836-10.3216-1.3385-14.4499C51.3375,40.8409,52.9841,38.6046,53.5448,33.7831z" />
		</g>
	</g>
</svg>
