<svg width="36" height="36" viewBox="0 0 36 36" fill="none" xmlns="http://www.w3.org/2000/svg">
  <path d="M5 6.4L6.4 5 30 28.6 28.6 30l-6.351-6.35a2.94 2.94 0 00-1.015.274l-1.65.809a2.823 2.823 0 01-1.652.215.281.281 0 00.165.214c.447.193.943.245 1.42.149v5.151H17.09V24.7l-1.65-.76a2.872 2.872 0 00-2.494 0 2.84 2.84 0 01-2.576 0l-1.304-.643.528-4.657a1.271 1.271 0 011.272-1.155h1.832a.81.81 0 01.81-.81h1.056v-.71L5 6.4z"/>
  <path fill-rule="evenodd" clip-rule="evenodd" d="M27.672 23.264l-7.718-7.718-.437-5.293a.38.38 0 01.1-.297.412.412 0 01.296-.132h2.675l.33-2.46a.402.402 0 11.793.132l-.38 2.377h1.09a.38.38 0 01.297.133.396.396 0 01.116.297l-.562 6.604a.694.694 0 01-.69.644h2.407a1.305 1.305 0 011.288 1.156l.396 4.556-.001.001zm-3.614-12.631l-.281 3.302h-3.154l-.264-3.22 3.699-.082z"/>
  <path d="M14.628 10.22l2.62 2.62.024-.028a3.02 3.02 0 00.743-2.311l-.413-3.6a.396.396 0 00-.396-.363h-4.243a.43.43 0 00-.397.364l-.123 1.133.73.73.153-1.368h3.649l.313 2.823h-2.66z"/>
</svg>
