<svg width="32px" height="32px" viewBox="0 0 24 24">
	<path d="M17.24,12a.79.79,0,0,0-.78-.7H15a.42.42,0,0,0,.42-.39l.34-4a.24.24,0,0,0-.07-.18.23.23,0,0,0-.18-.08h-.66l.23-1.44a.24.24,0,0,0-.48-.08L14.4,6.62H12.78a.25.25,0,0,0-.18.08.23.23,0,0,0-.06.18l.33,4a.42.42,0,0,0,.42.39H11.34a.48.48,0,0,0-.48-.49h-.68V9a1.77,1.77,0,0,0,1-.57,1.83,1.83,0,0,0,.45-1.4l-.25-2.18a.24.24,0,0,0-.24-.22H8.57a.26.26,0,0,0-.24.22L8.09,7.06a1.79,1.79,0,0,0,.45,1.4,1.77,1.77,0,0,0,1,.57v1.74H8.9a.49.49,0,0,0-.49.49H7.3a.77.77,0,0,0-.77.7l-.32,2.82.79.39a1.72,1.72,0,0,0,1.56,0h0a1.74,1.74,0,0,1,1.51,0l1,.46v3.49h1.47V16a1.45,1.45,0,0,1-.86-.09.17.17,0,0,1-.1-.13,1.71,1.71,0,0,0,1-.13l1-.49a1.78,1.78,0,0,1,1.53,0,1.75,1.75,0,0,0,1.56,0l.81-.4ZM15.29,7.11l-.17,2H13.21l-.16-1.95ZM11,5.15l.19,1.71H8.6l.19-1.71Z" />
	<rect x="11.5" y="0.6" width="1" height="22.81" transform="translate(-4.97 12) rotate(-45)" fill="none" />
</svg>
