<?xml version="1.0" encoding="utf-8"?>
<!-- Generator: Adobe Illustrator 17.1.0, SVG Export Plug-In . SVG Version: 6.00 Build 0) -->
<svg width="24px" height="24px" viewBox="0 0 64 64">
	<g id="Box">
		<rect fill="none" width="64" height="64" />
	</g>
	<g id="Icon">
		<path d="M61.2248,30.2057L32.8126,3.3202c-0.4594-0.4269-1.166-0.4269-1.6253,0L2.7752,30.2057C2.2812,30.6652,2,31.3124,2,31.9904
		v1.7968C2,34.4569,2.5374,35,3.2,35H8v25h48V35h4.8c0.6626,0,1.2-0.5431,1.2-1.2128v-1.7968
		C62,31.3124,61.7187,30.6652,61.2248,30.2057z M32,54H15.4c0,0,1.0051-7.1658,2.9126-9.0684
		c1.5298-1.5257,6.7945-3.3727,8.8571-4.0563c0.1838-0.7091,0.318-1.3922,0.4105-1.9856c-1.1865-1.3024-2.0749-2.8645-2.3186-4.6608
		c-1.2023-0.3392-1.4436-2.617-1.4436-3.4738c0-0.8576,0.1647-1.3212,0.5015-1.4653c0.0785-0.0334,0.153-0.0318,0.2286-0.0381
		c-0.1686-1.3266-0.6318-5.8279,0.6209-7.3834c1.0103-1.2539,2.9287-2.005,4.6805-2.4653c2.5217-0.6624,3.5015-0.202,4.9407,0.5337
		c2.1947-0.5328,3.3458,0.2617,4.2922,1.8925c0.9965,1.7148,0.4945,6.0948,0.3149,7.4134c0.092,0.0013,0.1859,0.0059,0.2832,0.0473
		c0.3368,0.144,0.5016,0.6077,0.5016,1.4653c0,0.8568-0.2413,3.1346-1.4437,3.4738c-0.3029,1.8634-1.1739,3.4073-2.3491,4.6935
		c0.089,0.5841,0.2274,1.2541,0.4263,1.9479c2.0527,0.6798,7.3388,2.5321,8.872,4.0612C47.595,46.8342,48.6,54,48.6,54H32z" />
	</g>
</svg>
