<?xml version="1.0" encoding="utf-8"?>
<!-- Generator: Adobe Illustrator 19.1.0, SVG Export Plug-In . SVG Version: 6.00 Build 0) -->
<svg width="32px" height="32px" viewBox="0 0 64 64">
	<g id="Box">
		<rect fill="none" width="64" height="64" />
	</g>
	<g id="Icon">
		<g>
			<path d="M30.6906,61.2372c0.3865,0.9081,1.7992,0.9079,2.1854-0.0004L42.6094,32H20.9581L30.6906,61.2372z" />
			<path d="M41,21c1.7222-0.8889,3.7778-5.2778-1-7.7692c-1.6024,2.1755-4.0071,3.2011-6.355,3.848
			c-0.6378,0.1757-1.725,0.3587-1.7556-0.0788c0,0,16.9182-7.877-0.762-14.9766C30.4695,1.7592,29.7839,2.3732,30.0646,3
			C30.9291,4.9308,32.4083,7.4033,30,9.0236c-3.726,2.5067-8,4.3163-8,7.9764c0,2.8461,2.7947,6.4178,12,6
			c0,0,0.2917,0.8333-2.1089,1.2881c-3.3398,0.6327-10.3077-0.0798-11.9744-5.0381c-2.4,2.7959-2.8167,7.65,0.6868,10.75h22.4706
			C46.9445,26.1667,44.0555,21.3889,41,21z" />
		</g>
	</g>
</svg>
