<?xml version="1.0" encoding="utf-8"?>
<!-- Generator: Adobe Illustrator 22.1.0, SVG Export Plug-In . SVG Version: 6.00 Build 0) -->
<!DOCTYPE svg PUBLIC "-//W3C//DTD SVG 1.1//EN" "http://www.w3.org/Graphics/SVG/1.1/DTD/svg11.dtd">
<svg width="24px" height="24px" viewBox="0 0 64 64">
	<style type="text/css">
		.st0{fill:none;}
	</style>
	<g id="Box">
		<rect class="st0" width="64" height="64" />
	</g>
	<g id="Icon">
		<g>
			<g>
				<path d="M31.5,23c0-1.9-1.6-3.5-3.5-3.5c-1.2,0-2.2,0.6-2.9,1.5H14.9c-0.6-0.9-1.7-1.5-2.9-1.5c-1.9,0-3.5,1.6-3.5,3.5
				c0,1.2,0.6,2.2,1.5,2.9v10.3c-0.9,0.6-1.5,1.7-1.5,2.9s0.6,2.2,1.5,2.9v10.3c-0.9,0.6-1.5,1.7-1.5,2.9c0,1.9,1.6,3.5,3.5,3.5
				c1.2,0,2.2-0.6,2.9-1.5h10.3c0.6,0.9,1.7,1.5,2.9,1.5c1.9,0,3.5-1.6,3.5-3.5c0-1.2-0.6-2.2-1.5-2.9V41.9c0.9-0.6,1.5-1.7,1.5-2.9
				s-0.6-2.2-1.5-2.9V25.9C30.9,25.2,31.5,24.2,31.5,23z M20,52.5c-3.1,0-5.5-2.5-5.5-5.5c0-3.1,2.5-5.5,5.5-5.5
				c3.1,0,5.5,2.5,5.5,5.5C25.5,50.1,23.1,52.5,20,52.5z M26,36.1c-0.3,0.2-0.6,0.5-0.9,0.9H14.9c-0.2-0.3-0.5-0.6-0.9-0.9V25.9
				c0.3-0.2,0.6-0.5,0.9-0.9h10.3c0.2,0.3,0.5,0.6,0.9,0.9V36.1z M48.3,31.4c-3.5-0.8-6,0.6-8.7-4.2c-0.9-1.6-1.7-4-2.3-7.4
				c-1.9,0.5-2.6,2.2-2.2,4.5c0.9,4.1,2.3,8,6,10.4c-1,2.9-2.6,8.1-3.4,13.3c-0.1,0.5,0.3,1,0.9,1h2c-0.2,1.2-0.3,2.3-0.3,2.5
				c-0.1,0.9,0,1.4,0.2,2.1c0.7,2.1,2.2,6.3,2.7,7.9l0,0c2.1-0.7,2.7-2.2,2.1-4.7c-0.6-2.5-1.1-4.5-1.1-4.5l1-3.3h0.9
				c0.1,0.9,0.3,1.6,0.3,1.8c0.1,0.6,0.4,1.1,1,1.5c7.1,4.6,5.5,3.6,7.6,4.9l0,0c1.4-1.8,0.4-3.4-1-5c-1.5-1.5-2-2.1-3.2-3.3h1.6
				c0.6,0,1-0.5,0.9-1.1l-2-10.4c2.1,1.8,3.8,3,5.9,3.2c2.2,0.3,4.1-0.1,4.4-2.1c-2.7-0.5-4.7-1.3-6.4-2.4
				C51,33.7,51.5,32.1,48.3,31.4z M48.1,19.8c-2.7-0.4-4.4,1.3-4.9,4c-0.4,2.9,0.8,4.7,3.4,5.1c2,0.3,3.6-0.6,4.4-2.3
				c0.4,0.7,1.3,1.5,2.5,1.2c1.9-0.5,1.6-1.9,4-1.4c0.2,0,0.3-0.2,0.2-0.3c-0.7-0.7-2.2-2.1-4.1-1.9c-1,0.1-1.7,0.4-2.1,0.7
				C51.9,21.9,50.6,20.1,48.1,19.8z M63,14.7L32,1l-31,13.7l2,4.6L32,6.4l29,12.8L63,14.7z" />
			</g>
		</g>
	</g>
</svg>
