<?xml version="1.0" encoding="utf-8"?>
<!-- Generator: Adobe Illustrator 17.1.0, SVG Export Plug-In . SVG Version: 6.00 Build 0) -->
<svg width="32px" height="32px" viewBox="0 0 64 64">
	<g id="_x36_4px_Boxes">
		<rect fill="none" width="64" height="64" />
	</g>
	<g id="Production">
		<g>
			<path d="M55,13h-6.9221l-1.7107,5.7498C46.2617,19.075,46,18.9751,46,18.9751V13h-0.0074
			c-0.0145-1.2578-0.057-3.3467-0.1825-4.1211C45.7012,8.2139,45.5835,7,44.6143,7h-2.8555c-0.9688,0-1.1763,1.228-1.2842,1.8935
			C40.3491,9.6669,40.1751,11.7462,40.0764,13H24.0779l-1.7107,5.75C22.2617,19.0752,22,18.9751,22,18.9751V13h-0.0074
			c-0.0145-1.2578-0.057-3.3467-0.1825-4.1211C21.7012,8.2139,21.5835,7,20.6143,7h-2.8555c-0.9688,0-1.1763,1.228-1.2842,1.8935
			C16.3491,9.6669,16.1751,11.7462,16.0764,13H9c-1.1045,0-2,0.8955-2,2v40c0,1.1045,0.8955,2,2,2h46c1.1045,0,2-0.8955,2-2V15
			C57,13.8955,56.1045,13,55,13z M52,52H12V26h40V52z" />
			<rect x="16" y="31" width="8" height="6" fill="none" />
			<rect x="28" y="31" width="8" height="6" fill="none" />
			<rect x="40" y="31" width="8" height="6" fill="none" />
			<rect x="16" y="41" width="8" height="6" fill="none" />
			<rect x="28" y="41" width="8" height="6" fill="none" />
			<rect x="40" y="41" width="8" height="6" fill="none" />
		</g>
	</g>
</svg>
