<?xml version="1.0" encoding="utf-8"?>
<!-- Generator: Adobe Illustrator 24.1.0, SVG Export Plug-In . SVG Version: 6.00 Build 0) -->
<svg viewBox="0 0 64 64" width="32px" height="32px">
	<style type="text/css">
		.st0{fill:none;}
		.st1{fill:#FF1D25;}
		.st2{fill:#1D1D1B;}
	</style>
	<g id="Box">
		<rect class="st0" width="64" height="64" fill="none" />
	</g>
	<g id="Icon">
		<g>
			<path d="M31.31,29.39c0,0-1.9-2.73-3.31-1.45c-1.41-1.28-3.31,1.45-3.31,1.45s1.71,1.99,3.31,1.99S31.31,29.39,31.31,29.39z" />
			<path d="M43.77,58H52c0,0-0.42-3.16-1.24-6.52L43.77,58z" />
			<path d="M42.47,41.08c-1.53-0.7-5.89-2.44-6.29-2.68c-0.12-1.09-0.25-2.18-0.36-3.17c2.3-2.47,3.69-5.03,4.1-7.67
			c1.33-1.22,2.08-3.17,2.08-5.56c0-0.74-0.02-2.67-1.22-4.01c0,0,0,0,0,0C42.51,9.5,38.2,2.34,31.95,3.5
			c-0.97-0.62-2.8-1.41-5.67-1.29c-5.77,0.25-12.93,7.3-11.13,15.86c-1.14,1.33-1.16,3.2-1.16,3.93c0,2.39,0.75,4.33,2.07,5.55
			c0.01,0.08,0.03,0.16,0.05,0.24c-0.23-0.03-0.48-0.06-0.71-0.09c-2.2-0.23-4.5,1.2-4.9,4.2c-0.6,4-2.5,2.6-2.5,2.6
			c-0.4-0.3-0.8-1-0.9-2.2c0,0-3.5,3.4-1.2,6.5c0.86,1.23,2.23,2,4.08,2.51c1.31-0.77,3.06-1.34,4.47-1.31
			c0.45,0.01,0.65,0.21,0.6,0.43c-0.78,0.33-1.38,0.58-1.52,0.65c-2.16,0.95-4.25,2.07-5.31,3.18C5.45,47.14,4,58,4,58h27.24
			l14.34-15.37C44.64,42.08,43.57,41.56,42.47,41.08z M28,51.17c0,0-9.49-2.34-11.65-8.06c3.74-1.57,6.19-2.12,6.4-3.99
			c0.05-0.47,0.31-2.73,0.57-4.97c-0.01-0.01-0.02-0.02-0.03-0.03l0,0c-2.29-2.15-4.34-4.92-4.34-8.3C17.45,25.36,17,23.55,17,22
			c0-0.64,0.06-1.13,0.17-1.48c0.11-0.36,0.28-0.58,0.51-0.69c0,0,0,0,0,0c0.42-0.2,0.9-0.03,1.27,0.27c0-0.42,0.01-1.25,0.11-2.27
			c2.6-0.33,8.43-2.22,12.3-6.09c1.91,0.55,3.64,1.56,5.09,2.9c0.04,0.14,0.08,0.28,0.12,0.43c0.16,0.68,0.27,1.35,0.35,1.98
			c0.15,1.26,0.15,2.36,0.15,3.05c0.36-0.3,0.84-0.47,1.27-0.26C38.78,20.04,39,20.73,39,22c0,1.55-0.45,3.35-1.94,3.82
			c0,3.35-2.07,6.16-4.38,8.32h0C31.68,35.08,30.83,36,28,36c-1.09,0-2.18-0.18-2.99-0.55c0.4,0.98,1.24,2.21,3.28,2.72
			c1.81,0.45,3.68-0.96,4.73-1.64c0.05,0.47,0.19,2.12,0.24,2.59c0.21,1.87,2.64,2.42,6.4,3.99C37.49,48.81,28,51.17,28,51.17z" />
			<path d="M62.69,40.08c-0.93-0.93-2.3-1.36-3.76-1.17c-1.35,0.18-2.68,0.86-3.74,1.92c-0.12,0.12-7.18,6.73-7.18,6.73l-0.27-0.27
			c0,0,6.45-6.9,6.73-7.18c2.27-2.27,2.61-5.64,0.75-7.5c-0.51-0.51-1.15-0.86-1.87-1.05c-0.76-1.94,0.01-4.39,0.03-4.43
			c0.22-0.65-0.14-1.36-0.79-1.58c-0.65-0.22-1.36,0.14-1.58,0.79c-0.04,0.13-0.87,2.7-0.25,5.25c-1.1,0.29-2.16,0.89-3.03,1.76
			c-1.06,1.06-1.74,2.39-1.92,3.74c-0.19,1.45,0.24,2.82,1.17,3.76c0.63,0.63,1.42,1,2.29,1.14l-17.3,18.55
			c-0.73,0.78-0.71,1.99,0.05,2.75c0.39,0.39,0.89,0.58,1.4,0.58c0.48,0,0.97-0.18,1.35-0.54L53.3,46.04
			c0.15,0.88,0.54,1.68,1.14,2.29c0.79,0.79,1.89,1.21,3.08,1.21c0.22,0,0.45-0.01,0.67-0.04c1.35-0.18,2.68-0.86,3.74-1.92
			c1.06-1.06,1.74-2.39,1.92-3.74C64.05,42.38,63.62,41.01,62.69,40.08z M48.73,39.08c-0.52-0.52-0.51-1.27-0.46-1.67
			c0.1-0.8,0.54-1.64,1.21-2.3s1.5-1.1,2.3-1.21c0.1-0.01,0.22-0.02,0.36-0.02c0.4,0,0.92,0.09,1.31,0.48
			c0.87,0.87,0.53,2.69-0.75,3.97C51.42,39.61,49.6,39.95,48.73,39.08z M45.98,51.06c-0.48,0.48-1.26,0.48-1.74,0
			c-0.48-0.48-0.48-1.26,0-1.74c0.48-0.48,1.26-0.48,1.74,0C46.46,49.79,46.46,50.57,45.98,51.06z M61.38,43.51
			c-0.1,0.8-0.54,1.64-1.21,2.3c-0.66,0.66-1.5,1.1-2.3,1.21c-0.4,0.05-1.15,0.06-1.67-0.46c-0.52-0.52-0.51-1.27-0.46-1.67
			c0.1-0.8,0.54-1.64,1.21-2.3c0.66-0.66,1.5-1.1,2.3-1.21c0.1-0.01,0.22-0.02,0.36-0.02c0.4,0,0.92,0.09,1.31,0.48
			C61.44,42.36,61.43,43.11,61.38,43.51z" />
		</g>
	</g>
</svg>
