<?xml version="1.0" encoding="utf-8"?>
<!-- Generator: Adobe Illustrator 17.1.0, SVG Export Plug-In . SVG Version: 6.00 Build 0) -->
<svg width="24px" height="24px" viewBox="0 0 64 64">
	<g id="_x36_4px_Boxes">
		<rect fill="none" width="64" height="64" />
	</g>
	<g id="Label">
	</g>
	<g id="Production">
		<g>
			<path d="M15.2437,26.5507c2.8939-0.7268,4.0595-3.1741,3.327-6.0922c-0.8352-3.3237-3.0331-4.6672-5.8517-3.959
			c-2.9693,0.7457-4.0396,3.2548-3.2861,6.2543C10.227,25.915,12.3501,27.2773,15.2437,26.5507z" />
			<circle cx="33" cy="7" r="6" />
			<path d="M21.5966,42.1053c-0.9135-6.1031-0.6574-8.3349-0.6574-8.3349c4.8655-3.5055,6.5359-8.8049,5.6812-14.3607
			c-0.3457-2.2471-1.8378-3.7244-4.0173-3.0771c1.934,6.5134,0.6508,12.1058-7.1611,13.0823
			C8.1963,30.3207,3.9893,26.3098,4.3715,18.8358l-0.0024-0.0001c-2.1072-0.0687-3.2195,1.9738-3.0954,4.0785
			c0.3389,5.7497,3.73,9.7464,8.8892,11.539c0.4274,7.3507,0.5983,8.6328,3.3314,16.8151c0,0-1.9464,1.1832-3.1035,1.9721
			c-2.0945,1.428-3.0617,3.6506-1.881,5.8939l0.0012,0.0023c1.8509-0.9916,7.0881-3.7972,8.8511-4.7416
			c0.8207-0.4414,1.3148-1.3698,1.157-2.3412c-0.0859-0.5286-0.4813-2.9627-0.8443-5.1979
			c0.7377,0.5432,1.8472,1.3566,4.9735,3.6516c-0.1102,1.8597-0.2665,4.4631-0.2665,6.3948c0,3.0095,1.2657,4.3299,3.7977,4.9183
			c0,0,1.0152-8.5117,1.5278-12.8178c0.0862-0.7714-0.2053-1.5752-0.8292-2.1298C24.6796,44.9182,22.8967,43.2988,21.5966,42.1053z" />
			<path d="M45.2036,26.6786c2.3026,0.3608,4.0323-0.6689,4.9068-2.5483c0.4907,0.7376,1.4131,1.6528,2.85,1.3057
			c2.1353-0.5155,1.8083-2.1716,4.4887-1.582c0.2181,0.0477,0.376-0.2059,0.2241-0.3692c-0.7827-0.8417-2.4839-2.3311-4.5862-2.149
			c-1.1407,0.0987-1.9025,0.4232-2.4179,0.7806c0.4127-3.2301-1.0657-5.2384-3.8611-5.6763
			c-3.0245-0.4741-4.9904,1.4171-5.469,4.4725C40.8343,24.1329,42.2561,26.2167,45.2036,26.6786z" />
			<path d="M54.8214,34.5306c-4.6813-2.9203-4.188-4.744-7.8264-5.5521c-3.9763-0.8831-6.7715,0.8956-9.759-4.5007
			c-1.0193-1.8412-1.8755-4.4901-2.6362-8.2949c-2.1526,0.5716-2.9681,2.4832-2.4352,5.0145
			c0.9717,4.6154,2.5632,9.0305,6.7689,11.7249c-1.0881,3.2264-2.9228,9.1615-3.8427,14.9701
			c-0.0956,0.6037,0.3798,1.0975,0.991,1.0975h2.3079c-0.2074,1.3634-0.3377,2.5411-0.3772,2.8268
			c-0.1333,0.9653,0.0071,1.6202,0.2427,2.3486c0.7536,2.3293,2.4625,7.0797,3.0868,8.8746l0.0024-0.0008
			c2.3891-0.831,3.0752-2.5087,2.3914-5.3293s-1.2114-5.0473-1.2114-5.0473L43.6442,49h1.0338
			c0.1602,0.9814,0.2909,1.8217,0.3335,2.0827c0.1115,0.6657,0.4911,1.2842,1.1019,1.6807
			c8.0144,5.2025,6.2078,4.0298,8.5639,5.5592l0.0018-0.0024c1.5696-2.0396,0.4431-3.7808-1.1809-5.5757
			c-0.943-1.0422-1.8237-1.9222-2.467-2.5403l-3.8861-0.7667c-0.3174-0.1013-0.2713-0.3813-0.2505-0.4375
			c1.9868,0,2.4329,0,2.5163,0c0.0104,0,0.0169,0,0.0182,0c0.0806,0,0.4913,0,2.2422,0c0.6272,0,1.0995-0.5707,0.9824-1.1869
			l-2.2365-11.7167c2.3156,1.973,4.2991,3.1072,6.6373,3.4232c2.4647,0.3331,4.5828-0.0767,4.9855-2.331
			C59.0186,36.62,56.7945,35.7615,54.8214,34.5306z" />
		</g>
	</g>
</svg>
