<?xml version="1.0" encoding="utf-8"?>
<!-- Generator: Adobe Illustrator 17.1.0, SVG Export Plug-In . SVG Version: 6.00 Build 0) -->
<svg width="32px" height="32px" viewBox="0 0 64 64">
	<g id="_x36_4px_Boxes">
		<rect fill="none" width="64" height="64" />
	</g>
	<g id="Production">
		<g>
			<path d="M23.3696,7.5547c3.6377-0.1289,2.8154,1.9536,5.478,3.1362c1.3431,0.5968,2.4746,0.1964,3.303-0.3963
			c-0.5684,3.3508,0.8855,5.6378,4.0422,6.3314c3.3027,0.7256,5.7222-1.1675,6.4541-4.4976
			c0.833-3.7934-0.7173-6.2671-3.9341-6.9736c-3.2156-0.7066-5.4966,1.0641-6.364,4.1714
			c-0.0409-0.0191-0.2395-0.0605-0.2239-0.3887c0.019-0.3998,0.1562-1.1719,0.5043-2.0367
			c-0.5873-0.587-1.5089-1.1898-2.9672-1.5893c-2.6992-0.7397-5.2744,0.7969-6.4966,1.708
			C22.9282,7.1963,23.0737,7.5649,23.3696,7.5547z" />
			<path d="M51.9009,28.0253c0,0-6.5825,1.3287-8.5385,1.0285c-1.2837-1.85-3.0902-6.8462-4.5042-8.6349
			c-2.7914-3.5314-13.6288-2.4448-16.8461-0.7601c-2.125,1.1214-2.6702,2.3102-3.2305,4.5142
			c-0.4885,2.1026-0.6727,5.2774-0.7754,7.4412c0.0586,1.1298,0.5444,2.7895,2.7913,3.2087c0.0046-0.0041,1.644-7.4115,2.3856-9.341
			c0.1858-0.4922,0.439-1.0131,0.5906-1.166c0,0,0.913-0.4913,3.256-0.7184c-0.3197,1.0001-2.8208,9.9145-2.8208,11.8058
			c0,1.146,0.5366,2.1813,1.3958,3.0145c1.0061,0.9758,5.3308,3.7469,5.3308,3.7469c-0.0179,0.1301-0.1769,0.2142-0.5586,0.1301
			c-2.1895-0.4824-4.1777-0.978-4.1777-0.978s-1.6658,4.143-2.5361,5.8921c-1.78,0.644-5.4164,1.3601-7.2714,1.6723
			c-2.4252,0.4081-3.5041,2.6269-3.3615,5.0817c3.0437-0.1489,7.2972-0.4283,10.293-0.8855
			c3.7212-0.5865,4.4304-1.1066,5.9811-3.5809c0.938-1.4796,2.3378-4.1252,3.4513-6.3068c3.4419,2.1324,5.7538,3.5156,5.7538,3.5156
			c0.8199,1.9873,1.7455,7.4982,2.1456,9.5994c0.5596,2.939,2.7581,4.5051,5.3,4.6355c-0.0474-3.7879-0.2236-9.2028-0.6506-12.9952
			c-0.5952-4.7593-0.7595-5.352-5.7788-9.4234c-1.3354-1.0588-2.5857-1.9887-3.7065-2.8055
			c0.5349-2.2714,1.167-4.8045,1.7372-7.0416c0.4354,0.8765,0.8937,1.7373,1.4164,2.5506c1.0046,1.5119,1.6635,2.0382,2.9453,2.3884
			c2.5286,0.5658,5.1218,0.0693,7.5244-1.1444C52.1177,31.1176,52.0872,28.96,51.9009,28.0253z M38.3748,46.4943l0.007,0.0092
			l0.0281,0.037l0.0563,0.0742l0.0176,0.0234c0.0007,0.0015,0.0015,0.0036,0.002,0.0051c-0.0586-0.0789-0.0951-0.1276-0.1123-0.1506
			c0.0037,0.0047,0.0072,0.0095,0.01,0.0132C38.3809,46.5026,38.3801,46.5017,38.3748,46.4943z" />
		</g>
	</g>
</svg>
