<?xml version="1.0" encoding="utf-8"?>
<!-- Generator: Adobe Illustrator 17.1.0, SVG Export Plug-In . SVG Version: 6.00 Build 0) -->
<svg width="24px" height="24px" viewBox="0 0 64 64">
	<g id="_x36_4px_Boxes">
		<rect fill="none" width="64" height="64" />
	</g>
	<g id="Icon">
		<g>
			<path d="M20.1112,24.0494l3.3377,5.5704c0.1409,0.235,0.3947,0.3794,0.6686,0.3802c0.0012,0,0.0017,0,0.0029,0
			c0.2728,0,0.5265-0.1423,0.6685-0.376l5.0972-8.3816c0.2102-0.3455,0.1223-0.7943-0.2024-1.035
			c-0.3259-0.2407-0.7802-0.1942-1.0497,0.1071l-4.5836,5.1281l-2.7554-2.3868c-0.2914-0.252-0.7216-0.2554-1.0153-0.0079
			C19.9849,23.2952,19.9138,23.7196,20.1112,24.0494z" />
			<path d="M29.6836,31.2074c-0.3259-0.2407-0.7802-0.1942-1.0497,0.1071l-4.5836,5.1281l-2.7554-2.3868
			c-0.2914-0.252-0.7216-0.2554-1.0153-0.0079c-0.2948,0.2472-0.3658,0.6716-0.1685,1.0014l3.3377,5.5704
			c0.1409,0.235,0.3947,0.3794,0.6686,0.3802c0.0012,0,0.0017,0,0.0029,0c0.2728,0,0.5265-0.1423,0.6685-0.376l5.0972-8.3816
			C30.0962,31.8969,30.0083,31.4481,29.6836,31.2074z" />
			<path d="M28.6339,42.3145l-4.5836,5.1281l-2.7554-2.3868c-0.2914-0.252-0.7216-0.2554-1.0153-0.0079
			c-0.2948,0.2472-0.3658,0.6716-0.1685,1.0014l3.3377,5.5704c0.1409,0.235,0.3947,0.3794,0.6686,0.3802c0.0012,0,0.0017,0,0.0029,0
			c0.2728,0,0.5265-0.1423,0.6685-0.376l5.0972-8.3816c0.2102-0.3455,0.1223-0.7943-0.2024-1.035
			C29.3578,41.9667,28.9034,42.0132,28.6339,42.3145z" />
			<rect x="33" y="23" width="12" height="3" />
			<rect x="33" y="34" width="12" height="3" />
			<rect x="33" y="45" width="12" height="3" />
			<path d="M50,10h-5.9203c-0.0172,1.2681-0.0641,2.5871-0.3789,4.0855C43.6336,14.405,43.5274,14.708,43.4001,15H47v40H17V15h3.5999
			c-0.1273-0.2921-0.2336-0.5952-0.3007-0.9147C19.9845,12.587,19.9376,11.2681,19.9204,10H14c-1.1045,0-2,0.8955-2,2v46
			c0,1.1045,0.8955,2,2,2h36c1.1001,0,2-0.9004,2-2V12C52,10.8955,51.1045,10,50,10z" />
			<path d="M25.3753,16H32h6.6248c1.451,0,2.7108-0.9668,2.9964-2.3259c0.3403-1.6202,0.3303-3.0484,0.3473-4.5156
			c0.0087-0.7534-0.5296-1.4023-1.2728-1.5262l-1.8253-0.3042c-0.9433,1.7096-1.9902,2.7044-2.2794,2.938
			c-0.6104,0.4933-0.9493,0.5424-1.1351,0.3608c0.0104-0.0157,0.017-0.0322,0.027-0.048C36.4163,9.6707,37,8.4053,37,7
			c0-2.7614-2.2386-5-5-5s-5,2.2386-5,5c0,0.0056,0.0016,0.0106,0.0016,0.0162l-3.6973,0.6162
			c-0.7432,0.1238-1.2816,0.7728-1.2728,1.5262c0.017,1.4672,0.007,2.8953,0.3473,4.5156C22.6645,15.0332,23.9243,16,25.3753,16z
			 M32,4.745c1.2454,0,2.255,1.0096,2.255,2.255c0,1.2454-1.0096,2.2549-2.255,2.2549S29.745,8.2454,29.745,7
			C29.745,5.7546,30.7546,4.745,32,4.745z" />
		</g>
	</g>
</svg>
