<?xml version="1.0" encoding="utf-8"?>
<!-- Generator: Adobe Illustrator 21.0.2, SVG Export Plug-In . SVG Version: 6.00 Build 0) -->
<!DOCTYPE svg PUBLIC "-//W3C//DTD SVG 1.1//EN" "http://www.w3.org/Graphics/SVG/1.1/DTD/svg11.dtd">
<svg width="32px" height="32px" viewBox="0 0 24 24">
	<style type="text/css">
		.st0{fill:none;}
		.st1{fill:#39870C;}
		.st2{fill:#D52B1E;}
		.st3{display:none;}
		.st4{display:none;fill:#FFFFFF;}
	</style>
	<g id="box">
		<g>
			<rect class="st0" width="24" height="24" fill="none" />
		</g>
	</g>
	<g id="icon">
		<g>
			<path d="M12,1C5.9,1,1,5.9,1,12s4.9,11,11,11s11-4.9,11-11S18.1,1,12,1z M12,20.5c-4.7,0-8.5-3.8-8.5-8.5S7.3,3.5,12,3.5
			s8.5,3.8,8.5,8.5S16.7,20.5,12,20.5z" />
			<path d="M17.2,11.4L17.2,11.4L13,11.1l-0.3-5.4c0-0.4-0.3-0.6-0.7-0.6c-0.4,0-0.7,0.3-0.7,0.6L11,11.9c0,0.5,0.4,1,0.9,1l0,0
			c0.2,0,1,0,5.2-0.3c0.4,0,0.7-0.3,0.7-0.6C17.9,11.8,17.8,11.5,17.2,11.4z" />
		</g>
	</g>
</svg>
