<?xml version="1.0" encoding="utf-8"?>
<!-- Generator: Adobe Illustrator 17.1.0, SVG Export Plug-In . SVG Version: 6.00 Build 0) -->
<svg width="24px" height="24px" viewBox="0 0 64 64">
	<g id="_x36_4px_Boxes">
		<rect fill="none" width="64" height="64" />
	</g>
	<g id="Production">
		<g>
			<polygon points="37.8934,24.1064 26.0172,21.1981 32.4608,30.9599 33.4844,28.1413 37.3485,30.6386 38.8504,28.3163 
			35.1299,25.9119 		" />
			<path d="M58.5723,45.2876l-5.562-8.2724l-0.9737-22.1353C51.9717,13.2651,50.6553,12,49.0391,12H14.9609
			c-1.6162,0-2.9326,1.2651-2.997,2.8721l-0.9741,22.1431l-5.5621,8.2724C5.1475,45.7539,5,46.2871,5,46.8311V51
			c0,1.1045,0.8955,2,2,2h50c1.1045,0,2-0.8955,2-2v-4.1689C59,46.2871,58.8525,45.7539,58.5723,45.2876z M25,46l2-4h10l2,4H25z
			 M51.8724,37H12.1276c-0.0243-0.1208,0.0018-0.2873,0.2409-0.3617c1.1795-0.3669,2.6765-0.7943,2.6765-0.7943L15.918,16H48.082
			l0.873,19.8441c0,0,1.1595,0.333,2.67,0.7809C51.8651,36.6962,51.9062,36.8854,51.8724,37z" />
		</g>
	</g>
</svg>
