<?xml version="1.0" encoding="utf-8"?>
<!-- Generator: Adobe Illustrator 22.1.0, SVG Export Plug-In . SVG Version: 6.00 Build 0) -->
<!DOCTYPE svg PUBLIC "-//W3C//DTD SVG 1.1//EN" "http://www.w3.org/Graphics/SVG/1.1/DTD/svg11.dtd">
<svg width="32px" height="32px" viewBox="0 0 64 64">
	<style type="text/css">
		.st0{fill:none;}
		.st1{fill:#FFFFFF;}
	</style>
	<g id="_x36_4px_Box">
		<rect class="st0" width="64" height="64" fill="none" />
	</g>
	<g id="Icon">
		<g>
			<g>
				<path d="M56,50h-2l-4.9-11h-2.5L51,50h-3l-3.7-11h-2.3L45,50h-3l-2.4-11h-2.3L39,50h-3l-1-11h-2.3L33,50h-3l0.3-11H28l-1,11h-3
				l1.7-11h-2.3L21,50h-3l3.1-11h-2.3L15,50h-3l4.4-11h-2.5L9,50H7c-0.6,0-1,0.4-1,1v3c0,0.6,0.4,1,1,1h49c0.6,0,1-0.4,1-1v-3
				C57,50.4,56.6,50,56,50z M56,32h-2l-5-11.1V9c0-0.6-0.4-1-1-1H15c-0.6,0-1,0.4-1,1v11.9L9,32H7c-0.6,0-1,0.4-1,1v3
				c0,0.6,0.4,1,1,1h49c0.6,0,1-0.4,1-1v-3C57,32.4,56.6,32,56,32z M12,32l4.4-11h2.3L15,32H12z M21,32h-3l3.1-11h2.3L21,32z M27,32
				h-3l1.7-11H28L27,32z M30,32l0.3-11h2.3L33,32H30z M36,32l-1-11h2.3L39,32H36z M42,32l-2.4-11h2.3L45,32H42z M48,32l-3.7-11h2.3
				L51,32H48z" />
			</g>
		</g>
	</g>
</svg>
