<svg width="24px" height="24px" viewBox="0 0 24 24">
	<path d="M18.61,10.72a1.81,1.81,0,0,0,.6-.63.62.62,0,0,0-.43-.86,3.64,3.64,0,0,0-1,0,11.74,11.74,0,0,0-1-2.83c-.36-.39-1.65-.58-4.47-.58s-4.1.19-4.47.58a12.68,12.68,0,0,0-1,2.83,3.62,3.62,0,0,0-1,0,.62.62,0,0,0-.43.86,1.92,1.92,0,0,0,.6.63,3.7,3.7,0,0,0-.7,2.53v3.2A9.53,9.53,0,0,0,5.52,18a.51.51,0,0,0,.5.39h1.8a.49.49,0,0,0,.5-.39,6.28,6.28,0,0,0,.12-1.12l-1.7-.34c-.09,0-.08-.09-.07-.1H18s0,.07-.07.1l-1.71.34A8.89,8.89,0,0,0,16.38,18a.51.51,0,0,0,.5.39h1.8a.51.51,0,0,0,.5-.39,9.53,9.53,0,0,0,.13-1.56v-3.2A3.7,3.7,0,0,0,18.61,10.72ZM8.7,7.19A17.6,17.6,0,0,1,12.35,7,17.43,17.43,0,0,1,16,7.19,20.5,20.5,0,0,1,16.83,10a21.73,21.73,0,0,1-4.48.38A21.54,21.54,0,0,1,7.88,10,20.67,20.67,0,0,1,8.7,7.19Zm.45,7.23-1.64-.13a.9.9,0,0,1-.8-.78L6.64,13a.43.43,0,0,1,.55-.45L8.52,13a1,1,0,0,1,.6.62l.18.67A.14.14,0,0,1,9.15,14.42ZM14,15.61H10.68v-.83H14Zm4-2.57-.06.47a.92.92,0,0,1-.8.78l-1.64.13a.15.15,0,0,1-.16-.17l.19-.67a1,1,0,0,1,.6-.62l1.32-.37A.43.43,0,0,1,18.06,13Z" />
	<rect x="11.04" y="0.57" width="1.31" height="23.47" transform="translate(-5.28 11.87) rotate(-45)" />
	<rect x="11.98" y="-0.18" width="0.93" height="23.47" transform="translate(-4.53 12.18) rotate(-45)" fill="#fff" />
</svg>
