<svg width="36" height="36" viewBox="0 0 36 36" fill="none" xmlns="http://www.w3.org/2000/svg">
<path fill-rule="evenodd" clip-rule="evenodd" d="M4.43054 6.67382L5.96595 5.13841L31 30.1724L29.4646 31.7079L25.1323 27.3756C25.0825 27.3367 25.0379 27.292 24.9995 27.2428L22.3538 24.5971H10.211C10.1959 24.6122 10.1808 24.7479 10.3166 24.7479L12.881 25.2608C12.8714 25.8282 12.8108 26.3937 12.7 26.9503C12.6644 27.1218 12.569 27.2751 12.4308 27.3829C12.2927 27.4906 12.1208 27.5458 11.9457 27.5386H9.23051C9.05685 27.54 8.88779 27.4827 8.75085 27.3759C8.61391 27.2691 8.51714 27.1191 8.47628 26.9503C8.3068 26.1809 8.20086 25.3989 8.15951 24.6122V19.7851C8.03321 18.4267 8.40885 17.069 9.21543 15.9687C8.845 15.7254 8.53536 15.4002 8.31035 15.0184C8.25325 14.8918 8.22506 14.754 8.22783 14.6152C8.23061 14.4763 8.26427 14.3398 8.32638 14.2156C8.3885 14.0914 8.4775 13.9826 8.58692 13.897C8.69634 13.8115 8.82344 13.7514 8.95899 13.7211C9.45939 13.6513 9.96705 13.6513 10.4674 13.7211C10.5285 13.4496 10.5953 13.1796 10.6681 12.9113L4.43054 6.67382ZM12.1469 14.3902C12.1087 14.554 12.0718 14.7182 12.0362 14.8826C12.2808 14.9294 12.5259 14.9734 12.7713 15.0146L12.1469 14.3902ZM19.8498 22.093H16.2599V23.3451H21.1018L19.8498 22.093ZM13.952 21.55L11.4781 21.3539C11.1738 21.3224 10.8891 21.1891 10.67 20.9755C10.451 20.762 10.3105 20.4807 10.2713 20.1773L10.1658 19.408C10.1565 19.3027 10.1731 19.1968 10.2142 19.0995C10.2552 19.0021 10.3194 18.9162 10.4012 18.8493C10.4829 18.7824 10.5798 18.7365 10.6834 18.7156C10.787 18.6946 10.8941 18.6993 10.9954 18.7292L13.0017 19.408C13.2128 19.4864 13.4036 19.6111 13.5602 19.773C13.7169 19.9348 13.8352 20.1297 13.9067 20.3432L14.1783 21.3539C14.1763 21.3817 14.169 21.4088 14.1565 21.4337C14.1441 21.4586 14.1269 21.4808 14.1059 21.499C14.0848 21.5172 14.0604 21.5311 14.034 21.5399C14.0076 21.5486 13.9797 21.5521 13.952 21.55Z"/>
<path d="M12.0601 9.37425L13.3221 10.6362C15.1266 10.3558 16.9553 10.2623 18.779 10.3573C20.6193 10.2596 22.4647 10.3556 24.2849 10.6439C24.8028 12.0251 25.2212 13.4417 25.5369 14.8826C23.3102 15.3069 21.0454 15.499 18.779 15.4558C18.5686 15.4599 18.3582 15.462 18.1479 15.462L23.4418 20.7559L23.5759 20.2829C23.6474 20.0693 23.7658 19.8745 23.9224 19.7126C24.079 19.5508 24.2699 19.4261 24.481 19.3477L26.4722 18.7895C26.5733 18.7428 26.6847 18.7229 26.7958 18.7317C26.9068 18.7405 27.0138 18.7778 27.1062 18.8399C27.1987 18.9021 27.2736 18.987 27.3237 19.0865C27.3738 19.186 27.3974 19.2967 27.3923 19.408L27.3018 19.4683L27.2113 20.1773C27.1672 20.4787 27.0251 20.7571 26.807 20.9698C26.5889 21.1824 26.3069 21.3174 26.0045 21.3539L24.1841 21.4982L27.2829 24.5971H27.3018C27.3018 24.5971 27.3018 24.5999 27.3014 24.6048C27.3011 24.6074 27.3007 24.6106 27.3002 24.6143L29.1539 26.468C29.2359 25.8479 29.2773 25.2229 29.2779 24.5971V19.77C29.4004 18.4166 29.025 17.065 28.222 15.9687C28.5964 15.7302 28.9071 15.404 29.1271 15.0184C29.1842 14.8918 29.2123 14.754 29.2096 14.6152C29.2068 14.4763 29.1731 14.3398 29.111 14.2156C29.0489 14.0914 28.9599 13.9826 28.8505 13.897C28.7411 13.8115 28.614 13.7514 28.4784 13.7211C27.978 13.6517 27.4704 13.6517 26.97 13.7211C26.6519 12.2395 26.1449 10.8048 25.4615 9.45218C24.9185 8.86388 22.9726 8.57728 18.7187 8.57728C14.6571 8.57728 12.7133 8.83856 12.0601 9.37425Z"/>
</svg>
