<?xml version="1.0" encoding="utf-8"?>
<!-- Generator: Adobe Illustrator 17.1.0, SVG Export Plug-In . SVG Version: 6.00 Build 0) -->
<svg width="24px" height="24px" viewBox="0 0 64 64">
	<g id="_x36_4px_Boxes">
		<rect fill="none" width="64" height="64" />
	</g>
	<g id="Production">
		<g>
			<path d="M30.4516,16.2024c1.6431,0.3235,5.9705,1.1145,6.6243,2.6741c0.6215,1.4827-1.1062,4.3223-2.0491,5.7606
			c-0.1221,0.1863,0.1029,0.4012,0.2834,0.2708c1.3707-0.9902,4.607-2.6138,5.8062-1.9908
			c1.3287,0.6904,2.4288,4.8677,2.7008,6.4909c0.0365,0.2178,0.3455,0.2209,0.3937,0.0054c0.376-1.6829,1.3897-5.9435,2.6197-6.4963
			c1.2493-0.5615,4.3732,1.1441,5.8032,2.0612c0.1845,0.1183,0.3965-0.0983,0.2733-0.2795
			c-0.9833-1.4453-2.8497-4.4495-2.0359-5.8222c0.8304-1.4009,5.2515-2.2908,6.806-2.6605c0.2058-0.049,0.2029-0.3419-0.0032-0.3895
			c-1.6264-0.3758-6.248-1.2916-6.8029-2.6642c-0.5554-1.374,1.1092-4.3411,1.9855-5.7522
			c0.1113-0.1793-0.0968-0.3868-0.2764-0.2759c-1.4318,0.8839-4.4545,2.5762-5.7496,1.9876c-1.3193-0.5995-2.29-5.5442-2.675-7.1183
			c-0.0494-0.2018-0.3329-0.2059-0.3875-0.0054c-0.4345,1.5939-1.5018,6.6187-2.6517,7.1237
			c-1.14,0.5007-4.3225-1.1995-5.7809-2.0421c-0.1823-0.1053-0.3808,0.1044-0.2685,0.2824
			c0.8613,1.3658,2.5357,4.3088,2.0089,5.8002c-0.5055,1.4311-4.9452,2.285-6.629,2.6492
			C30.233,15.8578,30.2369,16.1602,30.4516,16.2024z M44,10.8125c2.865,0,5.1875,2.3225,5.1875,5.1875
			c0,2.8649-2.3225,5.1875-5.1875,5.1875S38.8125,18.8649,38.8125,16C38.8125,13.135,41.135,10.8125,44,10.8125z" />
			<path d="M51.2432,54.2404L50.043,53.34l-1.2002,0.9004c-0.6396,0.4795-2.895,1.8496-4.7998,1.8496
			c-1.8911,0-4.1094-1.3379-4.7998-1.8496L38.043,53.34l-1.2002,0.9004c-0.6396,0.4795-2.895,1.8496-4.7998,1.8496
			c-1.8911,0-4.1094-1.3379-4.7998-1.8496L26.043,53.34l-1.2002,0.9004c-0.6396,0.4795-2.895,1.8496-4.7998,1.8496
			c-1.8911,0-4.1094-1.3379-4.7998-1.8496L14.043,53.34l-1.2002,0.9004C12.2031,54.7199,9.9478,56.09,8.043,56.09
			c-1.0184,0-2.1246-0.3893-3.043-0.8273v4.2183C5.9427,59.7856,6.9789,60,8.043,60c2.397,0,4.6631-1.0762,6-1.8633
			c1.3369,0.7871,3.603,1.8633,6,1.8633s4.6631-1.0762,6-1.8633c1.3369,0.7871,3.603,1.8633,6,1.8633s4.6631-1.0762,6-1.8633
			c1.3369,0.7871,3.603,1.8633,6,1.8633s4.6631-1.0762,6-1.8633c1.3369,0.7871,3.603,1.8633,6,1.8633
			c1.0322,0,2.0372-0.2025,2.957-0.4926v-4.203c-0.8999,0.4195-1.9733,0.7856-2.957,0.7856
			C54.1519,56.09,51.9336,54.7521,51.2432,54.2404z" />
			<path d="M51.2432,45.2404L50.043,44.34l-1.2002,0.9004c-0.6396,0.4795-2.895,1.8496-4.7998,1.8496
			c-1.8911,0-4.1094-1.3379-4.7998-1.8496L38.043,44.34l-1.2002,0.9004c-0.6396,0.4795-2.895,1.8496-4.7998,1.8496
			c-1.8911,0-4.1094-1.3379-4.7998-1.8496L26.043,44.34l-1.2002,0.9004c-0.6396,0.4795-2.895,1.8496-4.7998,1.8496
			c-1.8911,0-4.1094-1.3379-4.7998-1.8496L14.043,44.34l-1.2002,0.9004C12.2031,45.7199,9.9478,47.09,8.043,47.09
			c-1.0184,0-2.1246-0.3893-3.043-0.8273v4.2183C5.9427,50.7856,6.9789,51,8.043,51c2.397,0,4.6631-1.0762,6-1.8633
			c1.3369,0.7871,3.603,1.8633,6,1.8633s4.6631-1.0762,6-1.8633c1.3369,0.7871,3.603,1.8633,6,1.8633s4.6631-1.0762,6-1.8633
			c1.3369,0.7871,3.603,1.8633,6,1.8633s4.6631-1.0762,6-1.8633c1.3369,0.7871,3.603,1.8633,6,1.8633
			c1.0322,0,2.0372-0.2025,2.957-0.4926v-4.203c-0.8999,0.4195-1.9733,0.7856-2.957,0.7856
			C54.1519,47.09,51.9336,45.7521,51.2432,45.2404z" />
			<path d="M56.043,38.09c-1.8911,0-4.1094-1.3379-4.7998-1.8496L50.043,35.34l-1.2002,0.9004
			c-0.6396,0.4795-2.895,1.8496-4.7998,1.8496c-1.8911,0-4.1094-1.3379-4.7998-1.8496L38.043,35.34l-1.2002,0.9004
			c-0.6396,0.4795-2.895,1.8496-4.7998,1.8496c-1.8911,0-4.1094-1.3379-4.7998-1.8496L26.043,35.34l-1.2002,0.9004
			c-0.6396,0.4795-2.895,1.8496-4.7998,1.8496c-1.8911,0-4.1094-1.3379-4.7998-1.8496L14.043,35.34l-1.2002,0.9004
			C12.2031,36.7199,9.9478,38.09,8.043,38.09c-1.0184,0-2.1246-0.3893-3.043-0.8273v4.2183C5.9427,41.7856,6.9789,42,8.043,42
			c2.397,0,4.6631-1.0762,6-1.8633c1.3369,0.7871,3.603,1.8633,6,1.8633s4.6631-1.0762,6-1.8633
			c1.3369,0.7871,3.603,1.8633,6,1.8633s4.6631-1.0762,6-1.8633c1.3369,0.7871,3.603,1.8633,6,1.8633s4.6631-1.0762,6-1.8633
			c1.3369,0.7871,3.603,1.8633,6,1.8633c1.0322,0,2.0372-0.2025,2.957-0.4926v-4.203C58.1001,37.7239,57.0267,38.09,56.043,38.09z" />
		</g>
	</g>
</svg>
