<?xml version="1.0" encoding="utf-8"?>
<!-- Generator: Adobe Illustrator 17.1.0, SVG Export Plug-In . SVG Version: 6.00 Build 0) -->
<svg width="32px" height="32px" viewBox="0 0 64 64">
	<g id="_x36_4px_Boxes">
		<rect fill="none" width="64" height="64" />
	</g>
	<g id="Production">
		<g>
			<path d="M26.1873,10.9421c0.4257-0.0376,0.7733-0.1922,1.0441-0.4309c0.4218,1.6029,1.6352,2.6989,3.5672,3.1232
			c2.9571,0.6495,5.1221-1.0449,5.7774-4.0263c0.7451-3.3955-0.6426-5.6094-3.5215-6.2422C30.0213,2.7,27.9139,4.4938,27.241,7.5583
			C27.1038,8.1831,27.0649,8.7562,27.0762,9.3c-0.1249,0.0895-0.3275,0.0306-0.4698-0.4093
			c-0.1444-0.4464-0.2856-1.2817-0.0719-2.513c-0.2297-0.0704-0.4816-0.0981-0.7561-0.0739
			c-1.2273,0.1084-1.8028,1.1392-1.6807,2.5234C24.2265,10.2855,24.9913,11.0476,26.1873,10.9421z" />
			<circle cx="36" cy="59" r="3" />
			<circle cx="48" cy="59" r="3" />
			<path d="M51.267,52.0781c-0.3319-0.0643-0.6624-0.0667-1.2323-0.0746C50.0229,52.0033,50.0119,52,50,52h-2.4678
			c-0.4443,0-0.5977-0.1997-0.6729-0.3896l-4.4062-16.9355c-0.0127-0.0488-0.0283-0.0977-0.0459-0.1455
			C41.8003,32.8984,40.46,32,38.6343,32h-2.4963c-1.4224-2.4682-1.6727-2.9373-2.1102-3.8748
			c-0.2948-0.6439-0.3257-0.6602-0.549-1.7473c-0.4164-2.0735-0.6037-5.1905-0.8621-7.4974
			c-0.3279-2.9275-5.1378-5.5904-8.3666-4.5681c-4.5051,1.4264-8.1105,10.53-9.383,13.4118
			c-0.5096,1.1725-0.7367,2.2704-0.8162,3.2699L12.0123,48.47c1.5262,0.6206,3.3998,0.5356,5.5656,0.3126
			c0.0059,0.0058,0.0134,0.0148,0.019,0.02c0.1288,0.1194,0.0466,0.4608-0.2374,0.635c-0.2725,0.1671-1.5156,0.6094-3.1522,0.8457
			c0.0131,2.3884,0.0319,4.6965,0.0793,6.6031c0.0936,3.7567,3.0278,4.8446,3.8922,5.0884
			c0.0364-0.4462,0.5539-9.4424,0.8259-13.3475c1.1319-0.127,2.333-0.2533,3.5984-0.3214c0.5093,2.3196,1.8549,8.452,2.1018,9.6259
			c0.607,2.8846,2.7181,4.2723,5.0753,4.0682c0,0-0.8977-8.9449-1.3513-13.3926c0.515,0.0916,1.0357,0.1996,1.5647,0.3359
			c0,0-0.8088-8.9747-3.8916-15.4437c1.0064-2.3147,2.1245-4.8904,3.144-7.2409c0.0635,0.3326,0.1191,0.6594,0.1977,1.0028
			c0.436,1.7186,0.7437,2.6119,2.3278,4.7072c2.2247,2.9426,3.8994,5.0436,5.7177,3.0312h1.1452
			c0.6465,0,0.8179,0.2178,0.937,0.5122l1.7806,6.8437l-4.3453,10.8464c-0.3081,0.769,0.1611,1.373,0.9301,1.6811
			c0.7683,0.3081,1.5474,0.2025,1.8551-0.5659l2.8326-7.0706l1.3497,5.1877c0.0098,0.0371,0.021,0.0747,0.0337,0.1113
			C44.5298,54.0596,45.8804,55,47.5322,55c0,0,1.2952,0,1.9834,0c1.2031,0,2.0237-0.5281,2.3608-1.3594
			C52.1108,53.0625,52.0651,52.2327,51.267,52.0781z" />
		</g>
	</g>
</svg>
