<svg width="24px" height="24px" viewBox="0 0 24 24">
	<path d="M4.87,8.52a.81.81,0,0,0,.83-.9c0-.6-.32-.93-.83-.93a.82.82,0,0,0-.82.93c0,.58.3.9.82.9" fill="#a11050" />
	<path d="M6,9A4.63,4.63,0,0,0,3.75,9c-1.14.29-1,2.39-.93,3.55a.65.65,0,0,0,.64.68V11.83a5.26,5.26,0,0,1,.15-1.61c0-.06.06-.07.07-.05v7.14a.88.88,0,0,0,1-.84s.14-3.27.14-3.31a.08.08,0,0,1,.09-.08.09.09,0,0,1,.1.08s.14,3.31.14,3.31a.88.88,0,0,0,.95.84V10.17s.06,0,.08.05a6.51,6.51,0,0,1,.15,1.61v1.43a.65.65,0,0,0,.64-.68C7,11.42,7.14,9.33,6,9" fill="#a11050" />
	<path d="M9.62,8.52a.81.81,0,0,0,.82-.9c0-.6-.32-.93-.82-.93a.82.82,0,0,0-.83.93.79.79,0,0,0,.83.9" fill="#a11050" />
	<path d="M10.74,9A4.63,4.63,0,0,0,8.49,9c-1.14.29-1,2.39-.93,3.55a.65.65,0,0,0,.64.68V11.83a5.26,5.26,0,0,1,.15-1.61c0-.06.06-.07.08-.05v7.14a.88.88,0,0,0,1-.84s.13-3.27.13-3.31a.09.09,0,0,1,.1-.08.08.08,0,0,1,.09.08s.14,3.31.14,3.31a.88.88,0,0,0,1,.84V10.17s0,0,.07.05A6.51,6.51,0,0,1,11,11.83v1.43a.65.65,0,0,0,.64-.68c.08-1.16.21-3.25-.93-3.55" fill="#a11050" />
	<path d="M14.38,8.52a.81.81,0,0,0,.83-.9c0-.6-.32-.93-.83-.93a.82.82,0,0,0-.82.93c0,.58.3.9.82.9" fill="#a11050" />
	<path d="M15.51,9a4.63,4.63,0,0,0-2.25,0c-1.14.29-1,2.39-.93,3.55a.65.65,0,0,0,.64.68V11.83a5.26,5.26,0,0,1,.15-1.61c0-.06.06-.07.07-.05v7.14a.88.88,0,0,0,1-.84s.14-3.27.14-3.31a.08.08,0,0,1,.09-.08.09.09,0,0,1,.1.08s.13,3.31.13,3.31a.89.89,0,0,0,1,.84V10.17s.06,0,.08.05a6.51,6.51,0,0,1,.15,1.61v1.43a.65.65,0,0,0,.64-.68c.07-1.16.21-3.25-.93-3.55" fill="#a11050" />
	<path d="M19.13,8.52a.81.81,0,0,0,.82-.9c0-.6-.32-.93-.82-.93a.82.82,0,0,0-.83.93c0,.58.3.9.83.9" fill="#a11050" />
	<path d="M20.25,9A4.63,4.63,0,0,0,18,9c-1.14.29-1,2.39-.93,3.55a.65.65,0,0,0,.64.68V11.83a5.26,5.26,0,0,1,.15-1.61c0-.06.06-.07.08-.05v7.14a.88.88,0,0,0,1-.84S19,13.2,19,13.16a.09.09,0,0,1,.1-.08.08.08,0,0,1,.09.08s.14,3.31.14,3.31a.88.88,0,0,0,1,.84V10.17s.05,0,.07.05a6.51,6.51,0,0,1,.15,1.61v1.43a.65.65,0,0,0,.64-.68c.08-1.16.21-3.25-.93-3.55" fill="#a11050" />
</svg>
