<svg width="24px" height="24px" viewBox="0 0 24 24">
	<path d="M7.26,14.6a.81.81,0,0,0,.82-.9c0-.6-.31-.93-.82-.93a.82.82,0,0,0-.83.93.79.79,0,0,0,.83.9" fill="#d95790" />
	<path d="M8.38,15.11a4.63,4.63,0,0,0-2.25,0c-1.14.29-1,2.39-.93,3.55a.65.65,0,0,0,.64.68V17.91A5.15,5.15,0,0,1,6,16.31c0-.07.06-.08.08-.06v7.14a.88.88,0,0,0,1-.84s.13-3.27.13-3.31a.1.1,0,0,1,.1-.08.09.09,0,0,1,.09.08s.14,3.31.14,3.31a.88.88,0,0,0,1,.84V16.25s.05,0,.07.06a6.37,6.37,0,0,1,.15,1.6v1.43a.66.66,0,0,0,.65-.68c.07-1.16.2-3.25-.94-3.55" fill="#d95790" />
	<path d="M12,14.6a.81.81,0,0,0,.82-.9c0-.6-.31-.93-.82-.93s-.82.39-.82.93.3.9.82.9" fill="#d95790" />
	<path d="M13.12,15.11a4.59,4.59,0,0,0-2.24,0c-1.15.29-1,2.39-.94,3.55a.65.65,0,0,0,.65.68V17.91a5.53,5.53,0,0,1,.14-1.6c0-.07.07-.08.08-.06v7.14a.88.88,0,0,0,1-.84s.13-3.27.13-3.31a.1.1,0,0,1,.2,0s.13,3.31.13,3.31a.88.88,0,0,0,1,.84V16.25s.06,0,.08.06a6.44,6.44,0,0,1,.14,1.6v1.43a.65.65,0,0,0,.65-.68c.07-1.16.2-3.25-.94-3.55" fill="#d95790" />
	<path d="M16.74,14.6a.81.81,0,0,0,.83-.9c0-.6-.32-.93-.83-.93a.82.82,0,0,0-.82.93c0,.58.3.9.82.9" fill="#d95790" />
	<path d="M17.87,15.11a4.63,4.63,0,0,0-2.25,0c-1.14.29-1,2.39-.94,3.55a.66.66,0,0,0,.65.68V17.91a5.15,5.15,0,0,1,.15-1.6c0-.07.06-.08.07-.06v7.14a.88.88,0,0,0,1-.84s.13-3.27.14-3.31a.09.09,0,0,1,.09-.08.1.1,0,0,1,.1.08s.13,3.31.13,3.31a.89.89,0,0,0,1,.84V16.25s.06,0,.08.06a6.37,6.37,0,0,1,.15,1.6v1.43a.65.65,0,0,0,.64-.68c.07-1.16.21-3.25-.93-3.55" fill="#d95790" />
	<path d="M7.26,2.44a.81.81,0,0,0,.82-.9c0-.6-.31-.93-.82-.93a.82.82,0,0,0-.83.93.79.79,0,0,0,.83.9" fill="#d95790" />
	<path d="M8.38,3A4.51,4.51,0,0,0,6.13,3C5,3.24,5.13,5.34,5.2,6.5a.65.65,0,0,0,.64.68V5.75A5.26,5.26,0,0,1,6,4.14c0-.06.06-.07.08,0v7.14a.89.89,0,0,0,1-.85s.13-3.26.13-3.3A.1.1,0,0,1,7.26,7a.09.09,0,0,1,.09.09s.14,3.3.14,3.3a.88.88,0,0,0,1,.85V4.09s.05,0,.07,0a6.51,6.51,0,0,1,.15,1.61V7.18a.66.66,0,0,0,.65-.68c.07-1.16.2-3.25-.94-3.55" fill="#d95790" />
	<path d="M12,2.44a.81.81,0,0,0,.82-.9c0-.6-.31-.93-.82-.93s-.82.38-.82.93.3.9.82.9" fill="#d95790" />
	<path d="M13.12,3a4.47,4.47,0,0,0-2.24,0c-1.15.29-1,2.39-.94,3.55a.65.65,0,0,0,.65.68V5.75a5.64,5.64,0,0,1,.14-1.61c0-.06.07-.07.08,0v7.14a.88.88,0,0,0,1-.85s.13-3.26.13-3.3A.11.11,0,0,1,12,7a.1.1,0,0,1,.1.09s.13,3.3.13,3.3a.89.89,0,0,0,1,.85V4.09s.06,0,.08,0a6.58,6.58,0,0,1,.14,1.61V7.18a.65.65,0,0,0,.65-.68c.07-1.16.2-3.25-.94-3.55" fill="#d95790" />
	<path d="M16.74,2.44a.81.81,0,0,0,.83-.9c0-.6-.32-.93-.83-.93s-.82.38-.82.93.3.9.82.9" fill="#d95790" />
	<path d="M17.87,3a4.51,4.51,0,0,0-2.25,0c-1.14.29-1,2.39-.93,3.55a.65.65,0,0,0,.64.68V5.75a5.26,5.26,0,0,1,.15-1.61c0-.06.06-.07.07,0v7.14a.88.88,0,0,0,1-.85s.14-3.26.14-3.3A.09.09,0,0,1,16.74,7a.1.1,0,0,1,.1.09s.13,3.3.13,3.3a.89.89,0,0,0,1,.85V4.09s.06,0,.08,0a6.51,6.51,0,0,1,.15,1.61V7.18a.65.65,0,0,0,.64-.68c.07-1.16.21-3.25-.93-3.55" fill="#d95790" />
</svg>
