<?xml version="1.0" encoding="utf-8"?>
<!-- Generator: Adobe Illustrator 17.1.0, SVG Export Plug-In . SVG Version: 6.00 Build 0) -->
<svg width="24px" height="24px" viewBox="0 0 64 64">
	<g id="Box">
		<rect fill="none" width="64" height="64" />
	</g>
	<g id="Icon">
		<g>
			<path d="M26.9864,36.6812c-4.1801-5.1753-7.6669-4.7416-11.538-9.2346c-0.2671-0.3101-0.7756-0.1865-0.8629,0.2134
			c-0.5428,2.4868-1.4415,9.247,3.3199,14.1205c5.9375,6.0772,10.6176,5.6581,11.6654,11.2463
			C29.5709,53.0267,32.4644,43.4634,26.9864,36.6812z" />
			<path d="M50.3868,25.9556c-0.0737-0.5249-0.8095-0.5859-0.9684-0.0803c-3.329,10.5939-11.8404,10.3118-13.429,22.1061
			c-0.1147-0.0107-0.4128-0.0922-0.3978-0.6701c0.0589-2.2756,0.3604-5.3428,1.2104-8.7644c-0.2952-0.91-0.631-1.8319-1.032-2.7784
			c-1.5294-3.8176-2.4967-6.4022-2.5618-9.2645c13.7642-0.5176,10.4863-18.9606,9.7346-22.471
			c-0.0657-0.3067-0.3906-0.4706-0.6788-0.3468c-3.0236,1.2983-8.414,4.4615-13.507,13.1218
			c-0.1633,0.02-0.2848-0.0917-0.2102-0.4175c1.2648-5.5251,5.2058-9.884,8.0781-11.8906c0,0-0.8933-1.1354-1.701-1.8806
			C34.7881,2.4941,34.597,2.4553,34.424,2.52c-1.9968,0.7465-4.9936,2.9223-4.9936,2.9223s-0.7878-2.6856-1.6291-4.73
			c-0.1404-0.3411-0.5875-0.4219-0.8293-0.1434c-3.6828,4.2408-12.6849,18.7986,2.1024,25.1696
			c-0.4496,5.6234,0.7757,7.2515,2.5741,13.624c2.455,7.7275-0.7684,15.8535-2.2198,20.0169
			c-0.9123,2.6169,0.7953,3.3047,2.4121,3.8323c1.7465,0.5699,3.2815,0.3712,3.7776-1.3976
			c0.4111-1.4654,0.7781-2.8564,1.1045-4.202c0.1217-0.3732,0.2614-0.8488,0.4284-1.4645C39,49.3333,45.1418,49.3359,48.4167,43
			C51.6907,36.6657,51.1749,31.5667,50.3868,25.9556z" />
		</g>
	</g>
</svg>
