<?xml version="1.0" encoding="utf-8"?>
<!-- Generator: Adobe Illustrator 18.1.1, SVG Export Plug-In . SVG Version: 6.00 Build 0) -->
<svg width="32px" height="32px" viewBox="0 0 64 64">
	<g id="Box">
		<rect fill="none" width="64" height="64" />
	</g>
	<g id="Icon">
		<path d="M57,59.9429c-7.234,0-42.7389,0-50,0c0,0,1.1167-12.9167,3.2872-15.4897c0.5768-0.6837,1.7104-1.3052,3.0891-1.8616
		c0.4091-0.8588,0.6146-1.5453,1.5238-1.8381l7.2188-2.3244c1.4032,5.5935,3.3573,12.0124,6.8796,16.8354
		c0.3769-2.125,1.0089-4.9637,1.6883-6.8761C29.755,46.96,28.5,44.7407,28.5,44.7407S29.5687,43,32,43s3.5,1.7407,3.5,1.7407
		s-1.255,2.2193-2.1868,3.6477c0.6837,1.9246,1.3193,4.7871,1.6953,6.9162c3.744-4.8914,5.6093-11.3038,7.0071-16.8755
		l7.2188,2.3244c0.9426,0.3036,1.1316,1.015,1.608,2.015c1.283,0.5217,2.3273,1.087,2.8703,1.6848
		C56.05,47.0262,57,59.9429,57,59.9429z M16,10c0-5.3253,7.1635-8,16-8s16,2.6747,16,8c0,1.4767-1.1681,3.0886-3.0111,4.536
		c0.0432,1.8564-0.0763,3.8129-0.2182,5.372c1.2255,1.3341,1.227,3.2913,1.227,4.0358c0,2.3901-0.7399,4.3363-2.068,5.5558
		c-0.5343,3.3821-2.6341,6.6501-6.2622,9.7377C35.916,40.7279,33.3647,41,31.9998,41c-1.3651,0-3.9163-0.2721-5.6673-1.7627
		c-3.6868-3.1374-5.7513-6.3404-6.2687-9.7436c-1.324-1.22-2.0615-3.1638-2.0615-5.5499c0-0.7299,0.0076-2.6228,1.1636-3.9548
		c-0.1276-1.6251-0.2175-3.6959-0.0956-5.6219C17.2231,12.9634,16,11.4201,16,10z M29.5104,7.8164l2.4957,2.168l2.4958-2.168v-0.948
		l-1.438-0.9629c0.2227-0.9727-0.5861-1.2606-0.5861-1.2606c0.0671-1.0359-0.8326-1.2392-0.8326-1.2392
		c0.6994,1.1552-1.0507,1.2598-1.0057,2.7067l-1.129,0.756V7.8164z M22,14.83c0,0.3459,0.1213,0.6798,0.3278,1
		C23.4395,14.1057,27.3421,13,32,13s8.5605,1.1057,9.6722,2.83C41.8787,15.5098,42,15.1759,42,14.83c0-2.2091-4.4772-4-10-4
		S22,12.6208,22,14.83z M20.9,23.9438c0,1.273,0.4236,3.3145,2.0414,3.8183c0,3.8634,2.6802,6.9209,5.3403,9.1847
		c0.7801,0.664,2.2491,1.126,3.7181,1.126c1.4691,0,2.9382-0.462,3.7185-1.126c2.6601-2.2638,5.3403-5.3682,5.3403-9.1847
		c1.6177-0.5038,2.0414-2.5453,2.0414-3.8183c0-1.2724-0.3217-1.961-0.7738-2.1742c-0.3346-0.1577-0.6931-0.093-1.0127,0.0872
		c-0.1415,0.6533-0.2486,1.1396-0.2901,1.3112C40.8174,24.019,40,23.9409,40,23.9409v-4.5482C38.1761,20.3668,35.2766,21,32,21
		s-6.1761-0.6332-8-1.6073v4.5482c0,0-0.8174,0.0781-1.0234-0.7729c-0.0415-0.1716-0.1486-0.6579-0.2901-1.3112
		c-0.3189-0.1798-0.6774-0.2451-1.0128-0.0872C21.2217,21.9828,20.9,22.6714,20.9,23.9438z" />
	</g>
</svg>
