<?xml version="1.0" encoding="utf-8"?>
<!-- Generator: Adobe Illustrator 17.1.0, SVG Export Plug-In . SVG Version: 6.00 Build 0) -->
<svg width="24px" height="24px" viewBox="0 0 64 64">
	<g id="Box">
		<rect fill="none" width="64" height="64" />
	</g>
	<g id="Icon">
		<g>
			<circle cx="49.51" cy="40.5" r="1.7552" />
			<circle cx="43.51" cy="37.5" r="1.5" />
			<circle cx="38.51" cy="31.5" r="1.5" />
			<path d="M61.3718,46.3295C59.2961,43.4715,52.6057,34.4167,48.01,30c-4.1617-3.9996-8.04-6.7825-14-5
			c-4.1834,1.2511-7.374,4.4246-9.4129,7.0444c2.6204,3.3853,6.3157,8.5521,7.2996,14.814
			c0.4315,2.7441,0.2839,5.1167-0.1708,7.1416h18.375c0.3612,0,0.7157-0.0978,1.0258-0.2831l9.9474-5.9434
			C61.5782,47.4722,61.7169,46.8048,61.3718,46.3295z M55.8991,47.3708C55.6343,46.5765,54.8933,46,54.01,46c-1.1046,0-2,0.8954-2,2
			c0,0.5305,0.2102,1.0094,0.5472,1.3674L49.8244,51c0,0-1.6236-1.7993-3.7943-4.2883C46.6145,46.3626,47.01,45.7302,47.01,45
			c0-1.1046-0.8954-2-2-2c-0.6249,0-1.1759,0.2925-1.5427,0.7415c-2.8052-3.2891-5.8166-6.9589-7.3859-9.3129
			c-2.7041-4.0562-2.5-6.9285,1.4559-6.9783c2.2543-0.0284,4.1841,1.0269,6.3753,2.88C43.3696,30.6878,43.01,31.3012,43.01,32
			c0,1.1046,0.8954,2,2,2c0.7484,0,1.3931-0.4159,1.736-1.0245c3.6174,3.7053,8.3135,9.8583,10.9017,13.3507L55.8991,47.3708z" />
			<path d="M20.31,30c-0.4244-0.6837-0.6678-1.3802-0.8128-2H20.01c1.1046,0,2-0.8954,2-2v-5c0-1.0884-0.8705-1.9695-1.9527-1.9952
			c0.1992-2.6525,1.1603-4.663,2.2223-6.101l5.6051,7.2822c0.4473,0.5812,1.2723,0.7084,1.874,0.2891
			c0.5505-0.3837,0.7432-1.1089,0.4558-1.7153L26.0627,10H29.01c1.1046,0,2-0.8954,2-2V5c0-1.1046-0.8954-2-2-2H7.628
			C7.2492,3,6.903,3.214,6.7336,3.5528L3.2695,10.481c-0.1605,0.3209-0.1367,0.7033,0.0624,1.0019L8.3433,19H8.01
			c-1.1046,0-2,0.8954-2,2v5c0,1.1046,0.8954,2,2,2h6.9848c0.0209,0.0562,0.0673,0.2623-0.2499,0.3641l-6.884,1.3927
			C5.4917,34.2053,2.01,41.7963,2.01,48c0,5.7834,1.1356,9.3713,2.0095,11.276C4.5054,60.3353,5.5713,61,6.7367,61h17.2205
			c0.8314,0,1.6193-0.3426,2.1899-0.9471c1.661-1.7598,4.6545-5.9911,3.5762-12.8528C28.4356,39.0054,22.0467,32.7979,20.31,30z
			 M23.7996,51.7919C23.4677,53.6676,21.7812,55,19.8764,55h-7.7167c-2.0532,0-3.7687-1.5475-3.9819-3.5896
			C8.0738,50.4148,8.01,49.2817,8.01,48c0-16.3334,13.7874-12.5995,15.7852,0.1309C24.0171,49.5419,23.9826,50.7576,23.7996,51.7919
			z" />
		</g>
	</g>
</svg>
