<?xml version="1.0" encoding="utf-8"?>
<!-- Generator: Adobe Illustrator 17.1.0, SVG Export Plug-In . SVG Version: 6.00 Build 0) -->
<svg width="24px" height="24px" viewBox="0 0 64 64">
	<g id="_x36_4px_Boxes">
		<rect fill="none" width="64" height="64" />
	</g>
	<g id="Icon">
		<g>
			<path d="M31.5,17c2.8506,0,4.5-2.0161,4.5-4.9194C36,8.7739,34.2764,7,31.5,7C28.5752,7,27,9.0967,27,12.0806
			C27,15.2261,28.6504,17,31.5,17z" />
			<path d="M59.2559,35.1956c-0.6063-3.2551-1.3561-5.0353-1.63-7.2972c-0.606-5.0078-2.1349-7.4144-4.9792-8.2897
			C51.292,19.1919,50.0005,19.0001,48.5302,19h-0.0524c-1.4703,0.0001-2.7618,0.1919-4.1165,0.6087
			c-0.9562,0.2943-1.7604,0.7668-2.4341,1.4478c0.6826,0.9547,1.1948,2.0878,1.5734,3.3348c0.0502-0.0932,0.09-0.165,0.09-0.165
			c-0.0236,0.0962-0.0364,0.1782-0.057,0.2704c1.3355,4.5093,0.9719,10.4479,0.7115,14.6801
			c-0.1607,2.6202-1.5486,4.1757-3.1647,4.8308c-0.0224,0.5328-0.0379,1.0828-0.0379,1.6707c0,0,1.2916,0.2538,2.9575,0.3218
			l0.2103,14c0,0,3.2142-0.491,3.4326-3.6364c0,0,0.27-7.04,0.3956-10.6348c0.1635-0.0259,0.3244-0.0496,0.4922-0.0797
			c0.1414-0.0254,0.2838-0.0444,0.4259-0.0652c0.123,3.511,0.3986,10.6904,0.3986,10.6904C49.5184,59.5149,52.7978,60,52.7978,60
			L53,45.5231c1.5205,0.1447,2.9644,0.3917,2.9644,0.3917c0-7.6554-2.0289-10.7104-2.6644-13.1099
			c-0.3376-1.2751-0.2667-2.6098,0.0404-3.8868c0.2886-1.2004,0.6597-2.3187,0.0771-4.6917c0,0,0.3066,0.5384,0.4294,0.8872
			c0.6827,1.9388,0.4839,5.6891,3.2361,14.3317C58.2817,39.2918,59.7493,37.8442,59.2559,35.1956z" />
			<path d="M42.7427,39.1733c0.3902-6.3431,1.1212-17.7425-5.1011-19.4183c-3.5583-0.9584-8.2666-1.0417-12.2832,0
			c-6.2367,1.6174-5.4918,13.0752-5.1011,19.4183c0.1777,2.8848,2.1919,3.7022,3.5191,3.7022c0,0,0-5.9155,0-7.8062
			c0-3.4755,0.0518-6.7568,0.8095-8.7729C24.7171,25.9472,24.9219,25.9062,25,26v38c2.7807,0,4.9997-1.5296,5.2373-4.6016
			c0,0,0.7285-16.8508,0.7363-17.053s0.1983-0.4649,0.5264-0.4649s0.5195,0.2627,0.5273,0.4649s0.7354,17.053,0.7354,17.053
			C33.0012,62.4828,35.2404,64,38,64V26c0.125-0.1094,0.3057-0.0723,0.4141,0.2964c0.6016,2.0474,0.8105,5.3286,0.8105,8.7729
			c0,1.8907,0,7.8062,0,7.8062C40.5508,42.8755,42.5652,42.058,42.7427,39.1733z" />
			<path d="M23.5,8C25.7174,8,27,6.3871,27,4.0647C27,1.4188,25.6593,0,23.5,0C21.2253,0,20,1.677,20,4.0647
			C20,6.5807,21.2834,8,23.5,8z" />
			<path d="M39.5,8C41.7174,8,43,6.3871,43,4.0647C43,1.4188,41.6593,0,39.5,0C37.2253,0,36,1.677,36,4.0647
			C36,6.5807,37.2834,8,39.5,8z" />
			<path d="M48,17c2.5332,0,4-1.5967,4-4.4272C52,9.8867,50.5996,8,48,8c-2.4678,0-4,1.5962-4,4.5728C44,15.1855,45.4658,17,48,17z" />
			<path d="M21.7319,20.0869c-0.3355-0.1785-0.6898-0.3277-1.0718-0.4322C17.5,18.79,12.2917,18.79,9.25,19.6547
			c-1.5125,0.4299-2.6488,1.4849-3.3589,2.9668C4.0037,26.5599-0.0507,38.634-0.0507,38.634
			c0.251,0.1788,0.685,0.2192,1.1817,0.1594c0.3777,3.8833,1.9923,20.4714,2.0693,21.0892
			c0.0723,0.5793,2.0298,0.3879,1.9685-0.2336c-0.0643-0.653-1.2033-16.765-1.5691-21.9464c0.3842-0.33,0.7059-0.7258,0.8998-1.1862
			c0.7944-1.8867,1.6619-4.0302,2.2441-5.6691c0.7532-2.1199,1.2432-3.6533,1.8813-5.0193
			c0.1364-0.2919,0.2656-0.4688,0.4053-0.3438V60c2.3574,0,4.0909-1.4254,4.3076-4.2334c0,0,0.6708-15.3575,0.6777-15.543
			s0.1758-0.4277,0.4942-0.4277s0.4677,0.2422,0.4756,0.4277c0.0079,0.1855,0.6718,15.5709,0.6718,15.5709
			C15.8154,58.5051,17.327,60,20,60V42.6171c-0.6752-0.813-1.1393-1.9037-1.2288-3.3364
			C18.4186,33.6389,17.791,24.1053,21.7319,20.0869z" />
			<path d="M11.0402,11.9761C11.0237,12.1732,11,12.3658,11,12.5728C11,15.4033,12.4668,17,15,17c2.5342,0,4-1.8145,4-4.4272
			c0-1.5338-0.163-3.9312-1.6079-4.4558c-0.646-0.2343-1.9247-0.0786-3.3007,0.2684c-0.0106,0.0021-0.0203,0.0053-0.0308,0.0074
			c-2.4735,0.6282-5.0425,1.8773-5.0547,2.6469C8.9944,11.762,10.0363,11.8105,11.0402,11.9761z" />
		</g>
	</g>
</svg>
