<?xml version="1.0" encoding="utf-8"?>
<!-- Generator: Adobe Illustrator 17.1.0, SVG Export Plug-In . SVG Version: 6.00 Build 0) -->
<svg width="24px" height="24px" viewBox="0 0 64 64">
	<g id="Box">
		<rect fill="none" width="64" height="64" />
	</g>
	<g id="Icon">
		<g>
			<path d="M23,54v-2c0-1.6543,1.3457-3,3-3h1.7434c-0.4319-3.6625-0.8436-7.8732-1.1323-12.3015
			C27.9534,37.5185,29.5319,38,31.2284,38C36.0728,38,40,34.1388,40,29.3758c0-1.9686-0.6783-3.7773-1.8076-5.2288
			c2.1685-1.3347,3.6152-3.6976,3.6152-6.3985c0-3.2283-2.0643-5.9757-4.9628-7.0558c0.0175-0.226,0.0312-0.453,0.028-0.6836
			c-0.0635-4.4509-4.0573-8.0027-8.9204-7.9333c-2.0516,0.0293-3.9255,0.7039-5.4071,1.8019C21.1936,2.7121,19.4274,2,17.4882,2
			c-4.5351,0-8.1631,3.8724-7.6241,8.4312C6.459,11.541,4,14.6915,4,18.4117c0,2.6635,1.2627,5.0336,3.2277,6.5748
			C5.8482,26.4753,5,28.4483,5,30.621c0,5.3954,5.1914,9.5548,10.7495,8.0695c1.0365-3.0934,1.5129-7.4097-0.4141-10.5228
			c-0.1243-0.201-0.0656-0.3447,0.0573-0.4008C21.3441,32.7312,16.3419,54.4775,14.5214,62h11.4838l1.8994-5H26
			C24.3457,57,23,55.6543,23,54z" />
			<path d="M25,52v2c0,0.5522,0.4477,1,1,1h2.6643l1.5196-4H26C25.4477,51,25,51.4477,25,52z" />
			<path d="M57,51h-4.1839l1.5196,4H57c0.5523,0,1-0.4478,1-1v-2C58,51.4477,57.5523,51,57,51z" />
			<path d="M53,46c0.5523,0,1-0.4478,1-1v-2c0-0.5523-0.4477-1-1-1H30c-0.5523,0-1,0.4477-1,1v2c0,0.5522,0.4477,1,1,1h4.223
			l-6.0782,16h4.2787l2.6592-7h12.8346l2.6592,7h4.2787L48.777,46H53z M36.6022,51l1.8995-5h5.9966l1.8995,5H36.6022z" />
		</g>
	</g>
</svg>
