<?xml version="1.0" encoding="utf-8"?>
<!-- Generator: Adobe Illustrator 18.1.1, SVG Export Plug-In . SVG Version: 6.00 Build 0) -->
<svg width="24px" height="24px" viewBox="0 0 64 64">
	<g id="Box">
		<rect fill="none" width="64" height="64" />
	</g>
	<g id="Icon">
		<path d="M55.3329,22.994C55.1681,20.7866,53.2013,19.0002,51,19c-3.6667,0-7.3333,0-11,0v-4c0-2.2056-1.7939-4-4-4h-8
		c-2.2061,0-4,1.7944-4,4v4c-3.6667,0-7.3333,0-11,0c-2.202,0-4.1681,1.7866-4.3329,3.994c-0.625,8.6594-0.625,17.3526,0,26.012
		C8.8317,51.2134,10.7983,53.0001,13,53c12.6667,0,25.3333,0,38,0c2.2014-0.0001,4.168-1.7866,4.3329-3.994
		C55.9579,40.3466,55.9579,31.6534,55.3329,22.994z M22.0013,34.5024L16,31.5018l3.8897-7.7794L24.0017,23l1.8893,3.723
		L22.0013,34.5024z M36,19c-2.6667,0-5.3333,0-8,0v-4h8V19z" />
	</g>
</svg>
