<?xml version="1.0" encoding="utf-8"?>
<!-- Generator: Adobe Illustrator 19.1.0, SVG Export Plug-In . SVG Version: 6.00 Build 0)  -->
<svg version="1.2" baseProfile="tiny" xmlns="http://www.w3.org/2000/svg" xmlns:xlink="http://www.w3.org/1999/xlink" x="0px"
	 y="0px" width="64px" height="64px" viewBox="0 0 64 64" xml:space="preserve">
<g id="Box">
	<rect fill="none" width="64" height="64"/>
</g>
<g id="Icon">
	<g>
		<path d="M47.8467,27.8899c-0.5088-6.3293-2.1689-20.4192-7.0684-25.2905C39.7515,1.5784,38,2.3141,38,3.7621v55.2377
			c0,1.1291,1.871,2.0099,3,2c3.102-0.0271,7.6316-2.1052,3-29.9999l0.9376,0.0078C46.6341,31.022,47.9827,29.581,47.8467,27.8899z"
			/>
		<path d="M30.9932,2C30.4326,2,30.0295,2.4388,30,2.9986l-0.9282,13.5609c-0.0607,0.53-0.5252,0.9405-1.0651,0.9405
			c-0.5606,0-1.0751-0.4388-1.1046-0.9986L26,2.9986c-0.0294-0.5574-0.4431-0.9935-1-0.9973c-0.5569,0.0038-0.9706,0.4399-1,0.9973
			l-0.9022,13.5028c-0.0295,0.5598-0.544,0.9986-1.1046,0.9986c-0.5399,0-1.0043-0.4105-1.0651-0.9405L20,2.9986
			C19.9705,2.4388,19.5674,2,19.0068,2S18.0295,2.4388,18,2.9986L17,18c0,2.3749,2.3174,4.5995,5.3988,5.436
			c-1.145,14.9524-1.892,34.2234-1.892,35.064c0,1.3807,2.0079,2.5,4.4932,2.5s4.4966-1.1193,4.4966-2.5
			c0-0.8115-0.6858-18.8024-1.7642-33.4998c0,0-2.0383-0.1296-3.1525-0.8984c-0.1965-0.1356-0.2393-0.2297-0.2344-0.3383
			C24.5623,23.778,24.7798,23.79,25,23.7902c4.2843-0.0029,8-2.7808,8-5.7902L32,2.9986C31.9705,2.4388,31.5538,2,30.9932,2z"/>
	</g>
</g>
</svg>
