<?xml version="1.0" encoding="utf-8"?>
<!-- Generator: Adobe Illustrator 19.1.0, SVG Export Plug-In . SVG Version: 6.00 Build 0) -->
<svg width="32px" height="32px" viewBox="0 0 64 64">
	<g id="Box">
		<rect fill="none" width="64" height="64" />
	</g>
	<g id="Icon">
		<g>
			<circle cx="45.5" cy="51.5" r="1.4779" />
			<circle cx="28.5" cy="44.5" r="7.5" />
			<path d="M61.2248,30.2057L32.8126,3.3202c-0.4594-0.4269-1.1659-0.4269-1.6253,0L2.7752,30.2057
			C2.2813,30.6652,2,31.3124,2,31.9904v1.7968C2,34.4569,2.5374,35,3.2,35H8v25h48V35h4.8c0.6626,0,1.2-0.5431,1.2-1.2128v-1.7968
			C62,31.3124,61.7187,30.6652,61.2248,30.2057z M45.5,55.15c-2.0158,0-3.65-1.6342-3.65-3.65c0-1.0927,0.4899-2.0618,1.2507-2.7308
			l-1.2247-3.674C41.6577,44.4399,41.0469,44,40.3564,44h-1.2317c0.0078,0.1669,0.0253,0.3312,0.0253,0.5
			c0,5.8818-4.7682,10.65-10.65,10.65S17.85,50.3818,17.85,44.5c0-4.0105,2.2191-7.4998,5.4941-9.3163l-1.4742-9.8721
			l-3.7324-0.2565c-0.772-0.053-1.3547-0.722-1.3016-1.494c0.048-0.7007,0.6041-1.2454,1.2837-1.3003l5.2066-0.4252
			c0.9637-0.0786,1.8128,0.6196,1.9364,1.5683L25.9146,28l11.9792-0.0125c0.6818-0.0109,1.2877,0.4904,1.403,1.1832
			c0.1259,0.7543-0.3091,1.472-1.3607,1.6473l-14.1843,0.6425c-0.0184,0.0571-0.0556,0.265,0.2658,0.3527l2.4885,0.3814
			l0.256,1.8094c0.5668-0.0933,1.1446-0.154,1.7378-0.154c4.6539,0,8.6,2.9901,10.0493,7.15h1.8071
			c1.9844,0,3.7388,1.2646,4.3657,3.147l1.2499,3.7506C47.7625,48.1313,49.15,49.6459,49.15,51.5
			C49.15,53.5158,47.5158,55.15,45.5,55.15z" />
		</g>
	</g>
</svg>
