<?xml version="1.0" encoding="utf-8"?>
<!-- Generator: Adobe Illustrator 17.1.0, SVG Export Plug-In . SVG Version: 6.00 Build 0) -->
<svg width="24px" height="24px" viewBox="0 0 64 64">
	<g id="Box">
		<rect fill="none" width="64" height="64" />
	</g>
	<g id="Icon">
		<g>
			<path d="M31.9116,12.4069c2.9566,0.6494,5.1221-1.0449,5.7769-4.0263c0.7461-3.3956-0.6421-5.6094-3.5215-6.2422
			c-3.0332-0.6661-5.1401,1.1279-5.813,4.1923C27.6446,9.5602,28.9556,11.7574,31.9116,12.4069z" />
			<path d="M49.9189,27.538c-5.3976-0.5011-7.9026-0.7227-8.9026-1.0002c-1.0569-0.8616-3.1879-4.8558-3.8115-6.0642
			c-1.4145-2.7408-2.0349-5.6578-8.942-6.3615c-4.1927-0.4271-10.9587,1.3893-12.5644,2.9243
			c-1.7628,1.6119-3.4445,4.8935-4.5131,7.1063l0.0062,0.0012c-0.8734,1.8925-0.5882,4.1537,1.1278,5.3386
			c0.6945-1.0003,4.1693-7.5925,6.2683-8.9258c0.6748-0.3773,2.864-1.0447,5.2752-1.2423
			c-1.2175,4.6727-2.2565,11.2193-2.5837,13.3737c-0.6517,4.2908,2.0499,5.6986,4.982,7.4789c0,0,0.0016,0.1751-0.3659,0.1778
			c-0.2036,0.0015-1.6476-0.2351-3.3336-0.524c-0.8357,1.8648-2.7706,6.041-3.7668,7.7216c-2.58-0.0272-7.1688-1.2894-8.4686-1.5657
			c-3.6469-0.7751-4.8719,3.1382-4.8719,3.1382c3.187,1.2188,11.015,4.0933,14.3947,3.8676
			c1.9521-0.1304,2.6713-0.835,4.1175-2.8865c1.5674-2.2234,3.7045-5.7659,5.0327-8.0059c1.5755,0.7764,3.8278,1.9088,5.3334,2.7971
			c0.5843,2.8267,0.9811,9.542,1.1211,12.4008c0.0751,1.5344,1.6186,4.1114,4.7042,4.9064
			c0.2427-3.9859,0.4226-6.5305,0.5399-10.4985c0.0611-2.0668,0.1158-4.2424,0.0139-6.5833
			c-0.0759-1.3893-0.1373-2.4958-0.6605-3.6223c-0.4888-1.0524-1.7081-2.2589-8.3344-7.086
			c0.681-3.3297,1.585-7.2082,2.3412-10.3415c0.9921,1.8316,3.1105,5.4233,5.0136,6.3095c1.5077,0.7021,5.2243,0.6674,6.9288,0.5383
			C48.9796,30.6849,49.7672,28.1298,49.9189,27.538z" />
			<circle cx="53.5" cy="52.5" r="5.45" />
		</g>
	</g>
</svg>
