<?xml version="1.0" encoding="utf-8"?>
<!-- Generator: Adobe Illustrator 22.1.0, SVG Export Plug-In . SVG Version: 6.00 Build 0) -->
<!DOCTYPE svg PUBLIC "-//W3C//DTD SVG 1.1//EN" "http://www.w3.org/Graphics/SVG/1.1/DTD/svg11.dtd">
<svg width="32px" height="32px" viewBox="0 0 64 64">
	<style type="text/css">
		.st0{fill:none;}
	</style>
	<g id="Box">
		<rect class="st0" width="64" height="64" fill="none" />
	</g>
	<g id="Icon">
		<g>
			<g>
				<path d="M26.9,38H29v-2h-2.4L26.9,38z M10,33.2V32c0-1,0.4-2,1.2-2.7l10-9.4l-3.9-3.7c-0.2-0.2-0.6-0.2-0.9,0l-15,14.2
				C1.1,30.6,1,30.9,1,31.3v0.9c0,0.4,0.3,0.6,0.6,0.6h2.5V46H14V36h-1.2C11.3,36,10,34.7,10,33.2z M26.2,34H29v-2h-3.1L26.2,34z
				 M62.6,30.3l-15-14.2c-0.2-0.2-0.6-0.2-0.9,0l-3.9,3.7l10,9.5C53.6,30,54,31,54,32v1.2c0,1.5-1.3,2.8-2.8,2.8H50v10h9.8V32.8h2.5
				c0.3,0,0.6-0.3,0.6-0.6v-0.9C63,30.9,62.8,30.6,62.6,30.3z M31,38h3v-2h-3V38z M36,34h2.6l0.3-2H36V34z M52,33.2V32
				c0-0.5-0.2-0.9-0.5-1.2L32.5,12.9c-0.3-0.3-0.8-0.3-1.1,0L12.5,30.8C12.2,31.1,12,31.5,12,32v1.2c0,0.4,0.4,0.8,0.8,0.8H16v16.9
				h32V34h3.2C51.6,34,52,33.6,52,33.2z M25.5,48.3c-1,0-1.8-0.8-1.8-1.8c0-1,0.8-1.8,1.8-1.8s1.8,0.8,1.8,1.8
				C27.3,47.5,26.5,48.3,25.5,48.3z M38.5,48.3c-1,0-1.8-0.8-1.8-1.8c0-1,0.8-1.8,1.8-1.8s1.8,0.8,1.8,1.8
				C40.3,47.5,39.5,48.3,38.5,48.3z M40.2,39.1c-0.1,0.5-0.5,0.9-1,0.9H26c-0.6,0-1,0.4-1,1s0.4,1,1,1h13c0.6,0,1,0.4,1,1
				s-0.4,1-1,1H25.7c-1.7,0-3-1.3-3-3c0-1.3,0.8-2.4,1.9-2.8L23.3,30c-1.3,0-2.9-0.3-2.9-1.2c0-0.5,0.4-0.8,0.9-0.8h3.1
				c0.5,0,0.9,0.4,1,0.8l0.2,1.2h14.7c0.3,0,0.6,0.1,0.8,0.3s0.3,0.5,0.2,0.8L40.2,39.1z M36,38h2l0.3-2H36V38z M31,34h3v-2h-3V34z" />
			</g>
		</g>
	</g>
</svg>
