<?xml version="1.0" encoding="utf-8"?>
<!-- Generator: Adobe Illustrator 24.1.0, SVG Export Plug-In . SVG Version: 6.00 Build 0) -->
<svg viewBox="0 0 64 64" width="24px" height="24px">
	<style type="text/css">
		.st0{fill:none;}
		.st1{fill:#FF1D25;}
		.st2{fill:#1D1D1B;}
	</style>
	<g id="Box">
		<rect class="st0" width="64" height="64" />
	</g>
	<g id="Icon">
		<path d="M54.12,33.85C53.94,32.23,52.57,31,50.94,31h-5.8c0.89,0,1.65-0.7,1.72-1.58l1.36-16.33c0.02-0.28-0.07-0.55-0.26-0.76
		C47.77,12.12,47.5,12,47.22,12h-2.7l0.94-5.89c0.09-0.55-0.28-1.06-0.83-1.14c-0.55-0.09-1.06,0.28-1.14,0.83L42.49,12h-6.6
		c-0.28,0-0.55,0.12-0.74,0.32c-0.19,0.21-0.28,0.48-0.26,0.76l1.36,16.33C36.33,30.3,37.08,31,37.97,31H30c0-1.1-0.9-2-2-2h-2.75
		v-7.12c1.62-0.28,3.12-1.09,4.24-2.34c1.4-1.56,2.06-3.65,1.83-5.72l-0.99-8.93C30.27,4.38,29.84,4,29.33,4H18.67
		c-0.51,0-0.94,0.38-0.99,0.89l-0.99,8.93c-0.23,2.08,0.44,4.17,1.83,5.72c1.11,1.24,2.61,2.06,4.24,2.34V29H20c-1.1,0-2,0.9-2,2
		h-4.54c-1.63,0-3,1.23-3.18,2.85L9,45.4l3.21,1.61c2.01,1,4.38,1,6.38,0l0.13-0.07c1.94-0.97,4.22-1.01,6.19-0.1L29,48.72V63h6
		V50.26c-1.25,0.2-2.5,0.13-3.49-0.36c-0.29-0.14-0.4-0.35-0.43-0.53c1.38,0.22,2.81,0.04,4.11-0.56l4.26-1.97
		c1.99-0.92,4.29-0.87,6.24,0.12c2,1.02,4.37,1.04,6.39,0.05l3.33-1.63L54.12,33.85z M46.13,14l-0.67,8h-7.83l-0.67-8H46.13z
		 M28.44,6l0.78,7H18.78l0.78-7H28.44z" />
	</g>
</svg>
