<?xml version="1.0" encoding="utf-8"?>
<!-- Generator: Adobe Illustrator 19.1.0, SVG Export Plug-In . SVG Version: 6.00 Build 0) -->
<svg width="24px" height="24px" viewBox="0 0 64 64">
	<g id="_x36_4px_Box">
		<rect fill="none" width="64" height="64" />
	</g>
	<g id="Icon">
		<g>
			<path d="M60.1294,18.0789l-14.3343-1.8024c-0.4772-0.0612-0.9549,0.1096-1.2852,0.4595l-3.6533,3.8715
			c-0.1486,0.1575-0.2378,0.3538-0.2645,0.5582c-0.0247,0.2047,0.0132,0.4169,0.1182,0.6063l2.5812,4.6553
			c0.2333,0.4208,0.6539,0.7045,1.1314,0.7634l14.3343,1.8023c0.5494,0.0677,1.0544-0.3592,1.1221-0.9086l1.1124-8.8474
			C61.0621,18.6879,60.6786,18.1494,60.1294,18.0789z M46.8466,21.8508c-0.1116,0.8286-0.8627,1.4162-1.688,1.3147
			c-0.8279-0.102-1.4157-0.8587-1.3183-1.6927c0.1121-0.8321,0.8689-1.4197,1.6964-1.3136
			C46.3613,20.2651,46.9436,21.0204,46.8466,21.8508z" />
			<path d="M45,52c0,0,3-4.6889,2.6111-11.7444c-0.3848-6.9821-7.1522-14.4148-11.3403-18.3753C37.3771,21.5304,38,20.3801,38,19
			c0-1.6569-0.8871-3-2.4456-3h-0.6962c0.9211-1.1086,2.7287-2.917,3.3039-4.2622C39.3832,8.8821,36.2271,8.1714,32,7V3.5944
			c0-3.9382-14.4693,1.4626-13.25,5.8025c0.7169,2.5515,2.4237,5.2056,3.4106,6.6031h-0.715C19.8871,16,19,17.3431,19,19
			s0.8871,3,2.4456,3h5.9745c0.0209,0.0562,0.0673,0.2623-0.2499,0.3641c-0.2025,0.065-5.0818,0.985-8.5856,1.6422
			c-4.0244,4.1762-8.8717,10.3704-9.1957,16.2493C9,47.3111,12,52,12,52l-2.6094,4.175C8.3499,57.8401,9.5471,60,11.5106,60h33.9788
			c1.9636,0,3.1607-2.1599,2.12-3.825L45,52z M34.1471,50.6641c-1.6627,0.3934-2.4482,0.4839-4.0502,0.4839
			c-4.2016,0-7.1647-2.0555-8.0408-6.5294H20v-2.2969h1.8141V41.687c0-0.5441,0-1.1187,0.0608-1.6324H20v-2.3273h2.2372
			c1.0883-4.5341,4.1718-6.8316,8.3734-6.8316c1.1788,0,2.1157,0.0906,3.3851,0.363v3.1735
			c-1.4816-0.2718-2.267-0.3927-3.4757-0.3927c-2.298,0-3.8094,1.239-4.4745,3.6878h5.502v2.3273h-5.8941
			c-0.031,0.4232-0.031,0.8463-0.031,1.2694c0,0.363,0,0.6956,0.031,0.9977h5.8941v2.2969h-5.5317
			c0.6949,2.4786,2.3278,3.5066,4.322,3.5066c1.4208,0,2.2372-0.1209,3.8094-0.4535V50.6641z" />
		</g>
	</g>
</svg>
