<?xml version="1.0" encoding="utf-8"?>
<!-- Generator: Adobe Illustrator 24.1.0, SVG Export Plug-In . SVG Version: 6.00 Build 0)  -->
<svg version="1.1" id="Box" xmlns="http://www.w3.org/2000/svg" xmlns:xlink="http://www.w3.org/1999/xlink" x="0px" y="0px"
	 viewBox="0 0 64 64" style="enable-background:new 0 0 64 64;" xml:space="preserve">
<g>
	<path d="M17.88,21.77c-0.09-0.29-0.43-0.94-1.59-0.85c-2.56,0.21-3.89,3.2-3.73,5.25c0.17,2.06,1.47,1.96,1.9,1.92
		c2.57-0.21,3.21-2.29,3.21-2.31c0-0.01,0.01-0.03,0.02-0.04c-0.1-1.31,0.04-2.69,0.24-3.86C17.91,21.85,17.89,21.81,17.88,21.77z"
		/>
	<path d="M31.04,47.91c0-0.82,0.24-1.61,0.65-2.33H17.23l0.97-5.56h19.24l7.92-7.1c0.82-0.75,1.88-1.17,2.99-1.17
		c1.11,0,2.18,0.41,2.97,1.14l2.55,2.3V2.98H2.01v37.04h14.82c0.02,0.05-0.05,0.24-0.34,0.34l-5,1L8.49,58.54h6.48l1.61-9.26h14.51
		c-0.03-0.19-0.05-0.39-0.05-0.59V47.91z M41.59,18.15c2.7-0.23,4.33,1.55,4.86,2.63c0.34,0.69,0.05,1.52-0.64,1.86
		c-0.68,0.33-1.51,0.06-1.85-0.62c-0.07-0.14-0.7-1.22-2.15-1.1c-2.49,0.2-3.35,2.64-3.32,4.22c0.01,0.67,0.22,2.84,2.41,2.94
		c2.51,0.12,3.29-2.08,3.37-2.33c0.23-0.73,1.01-1.14,1.74-0.91c0.73,0.23,1.14,0.99,0.92,1.72c-0.45,1.52-2.25,4.3-5.83,4.3
		c-0.11,0-0.21,0-0.32-0.01c-2.97-0.14-5-2.41-5.06-5.67C35.66,22.02,37.7,18.47,41.59,18.15z M14.68,30.86
		c-0.15,0.01-0.29,0.02-0.44,0.02c-2.46,0-4.23-1.75-4.45-4.48c-0.3-3.71,2.15-7.91,6.27-8.24c1.12-0.09,2,0.16,2.68,0.56
		c0.32-0.54,0.98-0.8,1.61-0.61c0.73,0.23,1.14,1.01,0.9,1.74c-0.64,2.04-1.31,5.84-0.36,7.37c0.22,0.35,0.49,0.53,0.91,0.59
		c0.5,0.08,1.1-0.16,1.35-0.43c-0.08-0.22-0.12-0.47-0.15-0.69c-0.36-2.45,0.14-5.79,1.08-8.96c0.01-0.07,0.03-0.14,0.06-0.2
		c1.12-3.71,2.8-7.16,4.31-8.62c0.41-0.39,1.01-0.5,1.53-0.27c0.52,0.23,0.84,0.76,0.82,1.32c-0.01,0.16-0.2,3.8-4.11,8.72
		c-0.96,3.3-1.44,6.74-0.71,8.54c0.29,0.72,0.65,0.86,1.15,0.86c2.46,0,3.67-1.91,4.07-2.73c0.73-1.48,0.8-3.21,0.16-4.04
		c-0.13-0.17-0.54-0.69-1.84-0.43c-0.76,0.15-1.48-0.34-1.63-1.09s0.34-1.48,1.09-1.63c2.61-0.52,4,0.69,4.59,1.46
		c1.3,1.69,1.35,4.49,0.13,6.96c-1.32,2.68-3.77,4.28-6.57,4.28c-1.06,0-1.97-0.35-2.67-1.01c-0.67,0.45-1.52,0.76-2.44,0.76
		c-0.21,0-0.43-0.02-0.64-0.05c-1.07-0.17-1.94-0.71-2.57-1.53C17.93,29.9,16.62,30.7,14.68,30.86z"/>
	<g>
		<path d="M61.64,47.1L48.72,35.44c-0.1-0.1-0.24-0.14-0.37-0.14c-0.13,0-0.27,0.05-0.37,0.14l-13,11.66
			c-0.22,0.21-0.42,0.5-0.42,0.8v0.81c0,0.3,0.39,0.55,0.69,0.55h2.25v11.76h21.56V49.26h2.39c0.3,0,0.55-0.25,0.55-0.55V47.9
			C61.99,47.6,61.87,47.31,61.64,47.1z M52.2,56.12h-7.84v-5.88h7.84V56.12z"/>
	</g>
</g>
</svg>
