<?xml version="1.0" encoding="utf-8"?>
<!-- Generator: Adobe Illustrator 24.0.3, SVG Export Plug-In . SVG Version: 6.00 Build 0) -->
<svg viewBox="0 0 64 64" width="24px" height="24px">
	<style type="text/css">
		.st0{fill:none;}
		.st1{fill:#FF1D25;}
		.st2{fill:#1D1D1B;}
	</style>
	<g id="Box">
		<rect class="st0" width="64" height="64" />
	</g>
	<g id="Icon">
		<path d="M56.7,39.9c-0.7-2.4-5.4-6.8-7.6-8.8c-0.8-0.7-1.8-1-2.8-1l-1.1,0c1-4.7,2.8-10.5,5.7-17c-0.6-0.2-12.2-7.1-28-7.1
		c0.6,3.1,0.9,4.5,1.5,9.3c-3.4,1.2-5.9,2.7-8.3,4.5c1.1,2.8,2.2,6,2.9,10.2l-1.3,0c-1,0-2,0.4-2.8,1c-2.3,1.9-7,6.4-7.6,8.8
		c-0.6,2.2,0.7,13,1.9,15C10.6,57.1,24,59,32,59h0c8,0,21.4-1.9,22.8-4.2C56,52.9,57.3,42.1,56.7,39.9z M32,38.1
		c-7.9,0-14.3-1-14.3-2.1c0-0.6,1.9-1.2,4.9-1.6c-0.4-6-2.1-11.2-2.8-13.4c1-0.7,2.8-1.7,5.1-2.5c0.5,4,0.6,5.4,0.8,7.9
		c0.1,0,0.2,0,0.3-0.3c1-2.5,1.6-10.7,0.6-16.9C30,9.4,38.2,10.4,47,14.5c-1.4,3.3-4.7,11.8-5.5,19.9c2.9,0.4,4.8,1,4.8,1.6
		C46.3,37.2,39.9,38.1,32,38.1z" />
	</g>
</svg>
