<?xml version="1.0" encoding="utf-8"?>
<!-- Generator: Adobe Illustrator 17.1.0, SVG Export Plug-In . SVG Version: 6.00 Build 0) -->
<svg width="32px" height="32px" viewBox="0 0 64 64">
	<g id="Box">
		<rect fill="none" width="64" height="64" />
	</g>
	<g id="Icon">
		<g>
			<path d="M20,55.411V58c0,1.1046,0.8954,2,2,2s2-0.8954,2-2v-2h-1C21.9388,56,20.9274,55.7878,20,55.411z" />
			<path d="M40,56v2c0,1.1046,0.8954,2,2,2s2-0.8954,2-2v-2.589C43.0726,55.7878,42.0612,56,41,56H40z" />
			<path d="M28,8h8v9h3V7.5C39,5.0186,36.9814,3,34.5,3h-5C27.0186,3,25,5.0186,25,7.5V17h3V8z" />
			<path d="M41,19H23c-3.3137,0-6,2.6863-6,6v23c0,3.3137,2.6863,6,6,6h18c3.3137,0,6-2.6863,6-6V25C47,21.6863,44.3137,19,41,19z
			 M26.1103,34.5024l-6.0013-3.0007l3.8897-7.7794L28.1107,23L30,26.723L26.1103,34.5024z" />
		</g>
	</g>
</svg>
