<?xml version="1.0" encoding="utf-8"?>
<!-- Generator: Adobe Illustrator 17.1.0, SVG Export Plug-In . SVG Version: 6.00 Build 0) -->
<svg width="24px" height="24px" viewBox="0 0 64 64">
	<g id="_x36_4px_Boxes">
		<rect fill="none" width="64" height="64" />
	</g>
	<g id="Production">
		<g>
			<path d="M38.9775,55.8874L40,61h6l-1.9941-6.647C42.547,54.9979,40.8816,55.5205,38.9775,55.8874z" />
			<path d="M18,61h6l1.0225-5.1126c-1.9041-0.3669-3.5695-0.8895-5.0284-1.5344L18,61z" />
			<path d="M51.3184,12.9727c-1.4688-2.8999-4.7461-9.1636-5.9922-9.8658C43.7461,2.2173,37.1357,2,32,2
			c-5.1367,0-11.7461,0.2173-13.3262,1.1069c-1.247,0.7022-4.5234,6.9659-5.9922,9.8658c-0.4882,0.9653-0.7197,2.0512-0.6767,3.1552
			l0.8955,22.9971C13.4082,52.1899,24.5918,54,32,54s18.5918-1.8101,19.0996-14.875l0.8955-22.9971
			C52.0381,15.0239,51.8066,13.938,51.3184,12.9727z M32,6.85c1.7401,0,3.15,1.4104,3.15,3.15c0,1.7395-1.4099,3.15-3.15,3.15
			s-3.15-1.4105-3.15-3.15C28.85,8.2604,30.2599,6.85,32,6.85z M23,43.15c-1.7401,0-3.15-1.4105-3.15-3.15
			c0-1.7396,1.4099-3.15,3.15-3.15s3.15,1.4104,3.15,3.15C26.15,41.7395,24.7401,43.15,23,43.15z M41,43.15
			c-1.7401,0-3.15-1.4105-3.15-3.15c0-1.7396,1.4099-3.15,3.15-3.15s3.15,1.4104,3.15,3.15C44.15,41.7395,42.7401,43.15,41,43.15z
			 M46.6016,17.2939l-3.3848,11C43.0879,28.7139,42.7002,29,42.2617,29H21.7383c-0.4385,0-0.8262-0.2861-0.9551-0.7061l-3.3848-11
			C17.2002,16.6509,17.6816,16,18.3535,16h27.293C46.3184,16,46.7998,16.6509,46.6016,17.2939z" />
		</g>
	</g>
</svg>
