<svg width="36" height="36" viewBox="0 0 36 36" fill="none" xmlns="http://www.w3.org/2000/svg">
  <path d="M26.02 8.556a2.278 2.278 0 100-4.556 2.278 2.278 0 000 4.556zm-9.647 3.316c.3-.063.58-.184.825-.356a2.04 2.04 0 00.591-.643 1.873 1.873 0 00.12-1.651 1.889 1.889 0 00-.285-.83 2.045 2.045 0 00-.64-.635 2.216 2.216 0 00-.87-.317 2.272 2.272 0 00-.933.061 2.232 2.232 0 00-.842.37 2.068 2.068 0 00-.6.664 1.902 1.902 0 00-.094 1.693c.03.289.13.569.293.817a2 2 0 00.646.618 2.218 2.218 0 001.79.209z"/>
  <path d="M19.673 16.883a25.106 25.106 0 00-.289-3.898 9.604 9.604 0 002.442-2.635 8.516 8.516 0 00.715-2.605c.239-2.318-1.052-2.577-1.319-2.606a13.74 13.74 0 01-.912 3.973 3.971 3.971 0 01-1.122 1.44 40.1 40.1 0 01-2.867 2.336l-.366.277 3.718 3.718zm8.694 13.099l-5.392-5.392a45.287 45.287 0 01-2.328 4.892 2.576 2.576 0 01-.775-1.332 2.625 2.625 0 01.116-1.547 37.578 37.578 0 001.206-3.686c-.841-.24-1.7-.413-2.567-.518a133.151 133.151 0 01-.57 3.227l-.062.329a3.61 3.61 0 01-.547 1.44 55.899 55.899 0 01-3.732 5.081 2.725 2.725 0 01-.49-1.562c0-.56.171-1.107.49-1.562.463-.806 1.36-2.418 1.571-2.879.16-.303.255-.636.28-.979l.014-.155c.043-.494.11-1.262.211-2.882a6.129 6.129 0 001.88 0c.099-.058.099-.159.099-.159-.772-.13-1.824-.388-2.175-1.05-.255-.48-.213-1.025-.153-1.818.046-.604.104-1.352.049-2.324l-.538-.537c-.935.746-1.1.994-1.308 1.396a23.438 23.438 0 00-1.403 4.002 1.808 1.808 0 01-.893-.953 1.872 1.872 0 01-.033-1.321c.165-.852.395-1.69.687-2.505.114-.299.26-.584.435-.85a12.92 12.92 0 011.108-1.176L6 7.615l1.327-1.327 22.367 22.366-1.327 1.328z"/>
</svg>
