<svg width="24px" height="24px" viewBox="0 0 24 24">
	<path d="M10.67,7.33a1.31,1.31,0,0,0,.94-1.74A1.3,1.3,0,0,0,9.94,4.46,1.33,1.33,0,0,0,9,6.25,1.27,1.27,0,0,0,10.67,7.33Z" />
	<circle cx="17.47" cy="3.66" r="1.58" />
	<path d="M15.81,14.46c-.28-.83-2.09-1.47-2.94-1.77a17,17,0,0,0-.12-4.35,6.74,6.74,0,0,0,1.74-1.83A5.8,5.8,0,0,0,15,4.7c.17-1.61-.75-1.79-.94-1.81a9.34,9.34,0,0,1-.65,2.76,2.77,2.77,0,0,1-.8,1c-1.72,1.49-2.2,1.65-3.56,2.81A9.08,9.08,0,0,0,7.8,10.67a3,3,0,0,0-.31.59A11.6,11.6,0,0,0,7,13a1.27,1.27,0,0,0,.66,1.58c0-.08,0,0,0,0h0a16,16,0,0,1,1-2.78c.17-.32.3-.5,1.26-1.22.24,2-.23,2.84.13,3.5.25.46,1,.64,1.55.73,0,0,0,.07-.07.11a4.48,4.48,0,0,1-1.34,0c-.08,1.25-.13,1.77-.16,2.11a1.72,1.72,0,0,1-.2.68c-.15.32-.79,1.44-1.12,2a1.86,1.86,0,0,0,0,2.17,38.91,38.91,0,0,0,2.66-3.53,2.47,2.47,0,0,0,.39-1c.06-.32.2-1,.45-2.47a12.18,12.18,0,0,1,1.83.36,25.64,25.64,0,0,1-.86,2.56,1.78,1.78,0,0,0,.47,2,31.12,31.12,0,0,0,2.14-4.63A1.17,1.17,0,0,0,15.81,14.46Z" />
	<rect x="11.04" y="0.93" width="1.31" height="22.08" transform="translate(-5.04 11.77) rotate(-45)" />
	<rect x="11.98" y="0.18" width="0.93" height="22.08" transform="translate(-4.29 12.09) rotate(-45)" fill="#fff" />
</svg>
