<?xml version="1.0" encoding="utf-8"?>
<!-- Generator: Adobe Illustrator 17.1.0, SVG Export Plug-In . SVG Version: 6.00 Build 0) -->
<svg width="32px" height="32px" viewBox="0 0 64 64">
	<g id="Box">
		<rect fill="none" width="64" height="64" />
	</g>
	<g id="Icon">
		<g>
			<path d="M17.5926,49.6334c-0.2899,0.5418-0.7906,1.0657-1.4279,1.5068s-1.3018,0.7234-1.9066,0.8008
			c-0.1638,0.0209-0.1915,0.2443-0.0415,0.3141c0.7406,0.3442,1.8054,0.4097,2.6061-0.1444
			c0.8007-0.5541,1.1249-1.5808,1.0748-2.4028C17.8873,49.5413,17.6711,49.4867,17.5926,49.6334z" />
			<path d="M12.3179,48.7274c-0.4208,0.274-0.5422,0.8408-0.2711,1.266s0.832,0.5479,1.2529,0.2739
			c0.4208-0.274,0.5421-0.8408,0.271-1.266C13.2996,48.576,12.7386,48.4534,12.3179,48.7274z" />
			<path d="M16.403,48.2252c0.4208-0.274,0.5421-0.8408,0.271-1.266c-0.2711-0.4252-0.832-0.5479-1.2528-0.2739
			c-0.4208,0.274-0.5422,0.8408-0.2711,1.266C15.4213,48.3765,15.9822,48.4992,16.403,48.2252z" />
			<path d="M51.3143,45.2578c-2.4563-2.5671-9.2193-4.1663-11.0196-5.6074c-0.0018-0.0156-0.004-0.0333-0.0059-0.049
			c-0.0965-0.8401-0.235-1.8577-0.3792-2.8415c2.0215,0.2134,5.0197,0.5701,6.9231,1.2385c0.375,0.1318,0.771-0.1191,0.875-0.5381
			c1.0145-4.1027,1.8078-8.0523,1.8078-12.2415c0-7.2238-2.6247-14.9078-6.6863-17.7604l0.1899-2.1381
			c0.041-0.4497-0.1152-0.8877-0.43-1.2036C41.4231,2.9526,38.5,1,32.0258,1c-6.4743,0-9.3973,1.9526-10.5659,3.1187
			c-0.3123,0.314-0.4685,0.752-0.428,1.1997l0.1944,2.1863c-4.6627,3.6752-7.6941,9.95-7.6941,17.7142
			c0,3.7255,0.56,7.1546,1.8178,12.2415c0.1035,0.419,0.5,0.6699,0.875,0.5381c1.8217-0.6398,4.2865-1.0065,7.3642-1.3018
			c-0.1118,0.9402-0.2354,1.9943-0.3572,3.0632c-0.8321,0.5941-3.0068,1.2548-5.3171,2.1177
			c-1.0254-0.5269-2.1839-0.8301-3.4139-0.8301c-0.8803,0-1.7219,0.1603-2.5073,0.4401c0.0262-1.1585-0.3779-2.1102-1.4603-2.837
			c-0.3308-0.2221-0.682-0.3231-0.7289-0.0618c1.262,1.7414,0.7006,3.5395-0.3738,4.4393l0.0035,0.0056
			C7.9421,44.4054,7,46.3665,7,48.5484c0,1.7445,0.6037,3.3479,1.6062,4.6235C7.8923,56.2626,7.5258,59,7.5258,59H17
			c0,0,1.2963-4.8148,5-7.9561c0,0,5.7624,0.3159,12.1002,2.2997L28,56.7372c0.0114,0.0744,0.0862,0.3286,0.4962,0.2468
			l8.3553-2.6768C39.7665,55.4424,42.6465,56.9631,45,59h10.5258C55.5258,59,54.0726,48.1416,51.3143,45.2578z M14.501,54.0499
			c-3.0332,0-5.501-2.4678-5.501-5.5015c0-3.0332,2.4678-5.501,5.501-5.501s5.501,2.4678,5.501,5.501
			C20.002,51.5821,17.5342,54.0499,14.501,54.0499z M32.0258,3.5c5.1404,0,7.5608,1.3623,8.4911,2.0977L39.8021,14H24.2495
			l-0.7149-8.4023C24.4678,4.8608,26.8882,3.5,32.0258,3.5z M31.576,49.9385c-1.4863-0.6377-6.1431-2.8809-8.3931-6.7989
			c2.8814-1.1933,2.713-2.2734,2.7632-2.7167c0.0657-0.5789,0.5774-5.3235,0.5774-5.3235c-2.518-2.48-3.5982-5.5714-4.0564-8.2801
			c-0.293-1.7298-0.2532-3.3401-0.1641-4.4102c3.6246-1.4291,8.387-3.9755,11.637-6.5618c1.3719,2.3821,3.77,4.9125,6.8432,6.9156
			c0.0662,1.034,0.0662,2.4655-0.1989,4.0564c-0.5298,3.1827-2.8208,7.626-5.3403,9.1846
			c-1.7213,1.0648-4.8734,1.2337-6.7116,0.4403c0.4235,0.8396,1.2729,1.8373,3.1547,2.3063
			c2.5354,0.6314,4.852-0.4047,5.4494-0.7518c0.1117,0.7949,0.2157,1.591,0.2886,2.2786c0.144,1.3596,1.8826,2.2987,3.127,2.8799
			C38.7083,46.3581,34.8254,48.7167,31.576,49.9385z" />
			<polygon points="31,12 33,12 33,10 35,10 35,8 33,8 33,6 31,6 31,8 29,8 29,10 31,10 		" />
		</g>
	</g>
</svg>
