<?xml version="1.0" encoding="utf-8"?>
<!-- Generator: Adobe Illustrator 17.1.0, SVG Export Plug-In . SVG Version: 6.00 Build 0) -->
<svg width="24px" height="24px" viewBox="0 0 64 64">
	<g id="_x36_4px_Boxes">
		<rect fill="none" width="64" height="64" />
	</g>
	<g id="Production">
		<g>
			<path d="M51.2886,45.2578c-2.4563-2.5671-9.2193-4.1663-11.0196-5.6074c-0.0018-0.0156-0.004-0.0333-0.0059-0.049
			c-0.0965-0.8401-0.235-1.8577-0.3792-2.8415c2.0215,0.2135,5.0197,0.5701,6.9231,1.2385c0.375,0.1318,0.771-0.1191,0.875-0.5381
			c1.0144-4.1027,1.8078-8.0523,1.8078-12.2415c0-7.2238-2.6247-14.9078-6.6863-17.7604l0.1899-2.1381
			c0.041-0.4497-0.1152-0.8877-0.43-1.2036C41.3973,2.9526,38.4742,1,32,1c-6.4743,0-9.3973,1.9526-10.5659,3.1187
			c-0.3123,0.314-0.4685,0.752-0.428,1.1997l0.1944,2.1863c-4.6627,3.6752-7.6941,9.95-7.6941,17.7142
			c0,3.7255,0.56,7.1546,1.8178,12.2415c0.1035,0.419,0.5,0.6699,0.875,0.5381c1.8217-0.6398,4.2865-1.0065,7.3642-1.3018
			c-0.1118,0.9402-0.2354,1.9943-0.3572,3.0632c-1.6736,1.1948-8.7768,2.6575-11.4948,5.498C8.9531,48.1416,7.5,59,7.5,59h48
			C55.5,59,54.0469,48.1416,51.2886,45.2578z M32,3.5c5.1404,0,7.5608,1.3623,8.4911,2.0977L39.7763,14H24.2238l-0.7149-8.4023
			C24.4421,4.8608,26.8624,3.5,32,3.5z M33.5842,49.0473c-0.1198,0.0589-0.2408,0.1201-0.3549,0.174
			c-0.2531,0.1191-0.4948,0.2291-0.7135,0.3235c-0.3877,0.1682-0.7223,0.3023-0.9655,0.3937
			c-1.4863-0.6377-6.1431-2.8809-8.3931-6.7989c2.8814-1.1933,2.713-2.2734,2.7632-2.7167
			c0.0657-0.5789,0.5774-5.3235,0.5774-5.3235c-2.518-2.48-3.5982-5.5714-4.0564-8.2801c-0.293-1.7298-0.2532-3.3401-0.1641-4.4102
			c3.6246-1.4291,8.387-3.9755,11.637-6.5618c1.3719,2.3821,3.77,4.9125,6.8432,6.9156c0.0662,1.034,0.0662,2.4655-0.1989,4.0564
			c-0.5298,3.1827-2.8208,7.626-5.3403,9.1846c-1.7213,1.0648-4.8734,1.2337-6.7116,0.4403
			c0.4235,0.8396,1.2729,1.8373,3.1547,2.3063c2.5354,0.6314,4.852-0.4047,5.4494-0.7518c0.1117,0.7949,0.2157,1.591,0.2886,2.2786
			c0.144,1.3596,1.8826,2.2987,3.127,2.8799C38.858,46.0535,35.7764,47.9714,33.5842,49.0473z" />
			<polygon points="31,12 33,12 33,10 35,10 35,8 33,8 33,6 31,6 31,8 29,8 29,10 31,10 		" />
		</g>
	</g>
</svg>
