<?xml version="1.0" encoding="utf-8"?>
<!-- Generator: Adobe Illustrator 17.1.0, SVG Export Plug-In . SVG Version: 6.00 Build 0) -->
<svg width="24px" height="24px" viewBox="0 0 64 64">
	<g id="_x36_4px_Boxes">
		<rect fill="none" width="64" height="64" />
	</g>
	<g id="Label">
	</g>
	<g id="Production">
		<path d="M52.6128,44.1104c-2.1834-2.3746-8.462-4.4866-11.386-5.3733c-0.1329-0.9563-0.7335-4.5876-1.0192-6.2847
		c1.3058-2.3693,1.9661-4.693,1.9297-6.9473c1.0938-1.4293,1.4861-3.4736,1.0769-5.8281c-0.1275-0.7336-0.4615-2.6625-1.8942-3.7661
		c-0.2736-3.3405-0.9507-8.4656-2.5844-10.2949c-2.0108-2.2518-4.1346-3.1501-7.6329-1.6871
		c-2.5867-0.7227-4.337-1.152-8.3434,0.6072c-2.7838,1.222-5.7639,2.944-7.1031,5.1812c-1.2938,2.1618-0.2729,7.3807,0.5662,10.6667
		c-0.9085,1.5111-0.5887,3.3773-0.4637,4.0966c0.2239,1.2886,0.6471,2.4011,1.2301,3.3067
		c-0.7248,1.0398-0.9335,2.475-0.9739,3.5125c-0.1148,2.9526,0.6653,4.3851,4.5405,8.15c-3.1613,1.072-7.4412,2.7822-9.1683,4.6606
		C8.5137,47.2344,7,59,7,59c10.9132,0,4.0183,0,9.0554,0l7.0582-17.3963c0.4786-1.1912,0.1768-2.5713-0.7234-3.4381
		c-4.0991-3.9469-4.2546-4.7802-4.1769-6.7802c0.0422-1.085,0.1888-2.7272,1.3978-2.7273c0.1857,0,0.3965,0.0388,0.6359,0.1243
		c0.3401-1.3795,0.8398-1.8962,1.4649-1.8962c0.2986,0,0.6257,0.1179,0.9778,0.3159c0.263-0.7002,0.6862-0.9913,1.1406-0.9913
		c0.4053,0,0.8356,0.2314,1.1997,0.6106c1.8589,1.9358,1.9283,3.3737,1.6403,4.2573c-1.2939-1.3188-2.1929-2.2307-2.2637-2.291
		c-0.283-0.2407-0.4509-0.0756-0.4918-0.0227c0,0,4.4406,7.1822,4.6984,7.6183c0.7128,1.2054,1.0909,2.6154,0.8115,4.0173
		C29.2362,41.3461,27.0885,52.0983,25.7098,59c7.2,0,24.0857,0,31.2902,0C57,59,55.4863,47.2344,52.6128,44.1104z M26.6168,25.2975
		c-0.7968-0.8298-1.7864-1.2868-2.7865-1.2868c-0.7387,0-1.4142,0.2395-1.9733,0.6784c-0.9602-0.04-1.8861,0.3294-2.5965,1.1539
		c-0.3491-0.6134-0.5629-1.3007-0.66-1.8596c-0.2179-1.2536-0.0203-1.9871,0.3866-2.2748c0.353-0.2491,0.7495-0.1794,1.0087-0.0865
		c0.2504,0.6187,0.4384,1.0788,0.5084,1.2406c0.3478,0.8031,1.136,0.5859,1.136,0.5859l-1.1548-6.645
		c2.0074-0.504,5.9454-1.8047,10.0109-4.9046l5.7526,2.5731l1.0829,6.2312c0,0,0.815-0.0632,0.8713-0.937
		c0.0114-0.1761,0.0331-0.6729,0.0599-1.3401c0.2126-0.1754,0.5622-0.3755,0.9783-0.261c0.4799,0.1325,0.9133,0.7557,1.1311,2.0092
		c0.218,1.2541,0.1519,3.338-1.3483,4.1119c0.634,3.6478-1.3725,6.8342-3.7162,9.6691c-0.6519,0.7885-2.0172,1.4763-3.4579,1.7272
		c-0.3562,0.0621-0.7156,0.0819-1.0714,0.0853c-0.346-0.6726-1.7614-2.9831-2.1558-3.6285c0.1866-0.44,0.3293-0.9648,0.3661-1.5739
		C29.0944,28.8188,28.2963,27.0464,26.6168,25.2975z M32.381,49.3398c-0.6146-0.4675-1.3685-1.097-2.1358-1.8138
		c0.6974-3.492,1.246-6.2388,1.337-6.6954c0.2383-1.1955,0.1577-2.4293-0.2195-3.6443c0.4367,0.1465,0.9199,0.2571,1.4663,0.3046
		c2.5804,0.2242,4.3298-1.0628,4.9414-1.5997c0.1868,1.17,0.6273,3.974,0.6207,4.3703
		C38.7179,43.7497,34.8344,47.5783,32.381,49.3398z" />
	</g>
</svg>
