<?xml version="1.0" encoding="utf-8"?>
<!-- Generator: Adobe Illustrator 17.1.0, SVG Export Plug-In . SVG Version: 6.00 Build 0)  -->
<svg version="1.2" baseProfile="tiny" xmlns="http://www.w3.org/2000/svg" xmlns:xlink="http://www.w3.org/1999/xlink" x="0px"
	 y="0px" width="64px" height="64px" viewBox="0 0 64 64" xml:space="preserve">
<g id="_x36_4px_Boxes">
	<rect fill="none" width="64" height="64"/>
</g>
<g id="Production">
	<rect fill="none" width="64" height="64"/>
	<g>
		<path d="M29.7421,48.9436c-0.4882,1-0.7891,2.6823-1.7619,8.0564h3.6917l-0.8788-9.9526
			C30.4156,47.6879,30.0433,48.3415,29.7421,48.9436z"/>
		<path d="M25.5735,35.9296c-0.1829,0.5714-0.5826,1.6666-0.9014,2.1902c-0.6985,1.1821-1.6973,3.0272-3.2971,4.9494
			c-0.0871,0.1047-0.1949,0.1786-0.3052,0.2455c0.0089,0.3897,0.0168,0.8758,0.0193,1.434
			c0.0062,1.4685-0.0239,3.4272-0.0363,5.3857c-0.0231,2.7342-0.0362,5.4637-0.048,6.8657h3.8352
			c0.1331-3.9016,0.1872-5.8194,0.4478-8.3278c0.2975-1.6568,2.1859-5.1132,2.9173-6.7836
			C27.5051,40.1505,26.4821,37.8859,25.5735,35.9296z"/>
		<path d="M60,14H37.0627c1.3816,1.9832,2.1973,4.3898,2.1973,6.9902c0,0.3391-0.0237,0.6724-0.0507,1.0045
			c0.9266,1.5313,1.4697,3.3206,1.4697,5.2412c0,2.379-0.8245,4.5621-2.1953,6.2925c0.4669-1.1395,0.7286-2.3849,0.7286-3.6926
			c0-2.6056-1.0281-4.9666-2.6929-6.7156c0.1531-0.6864,0.2405-1.3975,0.2405-2.1301c0-4.1122-2.5487-7.6223-6.1496-9.0554
			c-1.175-3.3209-4.3337-5.704-8.0567-5.704c-2.5071,0-4.7551,1.0852-6.3196,2.8036C16.009,9.0166,15.7835,9,15.5538,9
			C10.83,9,7,12.8295,7,17.5538c0,0.2806,0.0156,0.5575,0.042,0.8312c-2.8981,1.46-4.8909,4.4543-4.8909,7.9207
			c0,2.4852,1.0247,4.7288,2.6711,6.3395C4.2975,33.8241,4,35.1263,4,36.4999C4,41.7466,8.2532,46,13.4999,46
			c0.4372,0,0.8641-0.0399,1.2856-0.097C13.6085,52.8764,12,57,12,57h7.3621c-0.0669-1.4109-0.1951-4.1165-0.3235-6.8243
			c-0.0886-1.9565-0.1947-3.9125-0.2457-5.3802c-0.0506-1.4677-0.0542-2.4468-0.0542-2.4468s0.0029-0.3457,0.1119-0.561
			c1.1846-2.3416,2.7726-4.4467,3.3179-5.9619c0.2959-1.0004-0.0579,0.286,0.7492-2.691c0.272-1.0002,0.9763-5.5718,5.5914-4.111
			c2.6987,0.8548,3.8714,3.5693,4.6337,5.2956c0.5411,1.2449,1.8108,4.0651,2.0117,5.9576
			c0.1636,1.5412-0.4871,15.467-0.4449,16.723H61V15C61,14.4477,60.5523,14,60,14z M25.1234,27.6056
			c-2.0248,0.4446-3.5071-0.7155-3.9558-2.7569c-0.0353-0.161-0.0471-0.3086-0.0685-0.4618
			c-0.8634,0.0555-2.7245,0.2989-2.8491-0.3244c-0.1966-0.9836,5.5648-4.5235,7.1582-4.3075
			c1.5934,0.2166,2.149,3.6521,2.149,3.6521l-0.0087,0.0014c0.0031,0.0129,0.0079,0.0238,0.0108,0.0368
			C28.0447,25.6558,27.1474,27.1609,25.1234,27.6056z M54,48h-9v-9h9V48z M54,31h-9v-9h9V31z"/>
	</g>
</g>
</svg>
