<?xml version="1.0" encoding="utf-8"?>
<!-- Generator: Adobe Illustrator 19.1.0, SVG Export Plug-In . SVG Version: 6.00 Build 0)  -->
<svg version="1.2" baseProfile="tiny" xmlns="http://www.w3.org/2000/svg" xmlns:xlink="http://www.w3.org/1999/xlink" x="0px"
	 y="0px" width="64px" height="64px" viewBox="0 0 64 64" xml:space="preserve">
<g id="_x36_4px_Box">
	<rect fill="none" width="64" height="64"/>
</g>
<g id="Icon">
	<g>
		<path d="M19.8567,34.5526h-0.005c-0.7855,0.2943-2.2601,0.8718-3.5797,1.5246c-1.0077,0.4863-1.9238,1.014-2.3835,1.4984
			c-0.4978,0.5239-0.8197,1.4567-1.0291,2.4245h21.2812c-0.2094-0.9678-0.5312-1.9006-1.0291-2.4245
			c-0.4597-0.4843-1.3759-1.012-2.3835-1.4984c-1.3196-0.6528-2.7942-1.2303-3.5797-1.5246
			c-0.3007-0.1126-0.4913-0.3887-0.5444-0.7054c-0.0659-0.3931-0.1398-0.9757-0.1978-1.4665
			c1.99-0.0808,3.6359-0.2771,4.3202-0.5378c0.1353-0.0514,0.2036-0.1755,0.1433-0.307c-0.3745-0.817-1.3477-3.5038-1.47-4.907
			c-0.3004-3.4441-0.2881-9.6075-5.0067-8.0612c0,0-2.9965-1.9143-5.4303,1.2885c-1.7122,2.2534-1.2949,5.2245-1.3635,6.8813
			c-0.0488,1.1785-1.0129,3.8994-1.4188,4.6043c-0.0863,0.15-0.0569,0.3018,0.1058,0.3608c0.7346,0.2666,2.3884,0.4733,4.3323,0.596
			c-0.0542,0.4926-0.1306,1.1039-0.2173,1.5486C20.3396,34.1622,20.1573,34.4399,19.8567,34.5526z"/>
		<path d="M30.1338,45.7148c1.4733-1.5528,4.6279-2.8134,7.5439-3.7148H6V16h35v3.7078c0.5375-0.2057,1.1128-0.3957,1.7383-0.5662
			c0.8608-0.2347,1.5996-0.322,2.2617-0.3268V14c0-1.1046-0.8955-2-2-2H4c-1.1045,0-2,0.8954-2,2v30c0,1.1046,0.8955,2,2,2h25.8982
			C29.9763,45.9036,30.052,45.8009,30.1338,45.7148z"/>
		<path d="M59.3589,47.23c-1.4974-1.577-6.1273-2.9764-8.1947-3.5408c-0.9655-0.2635-1.1152-1.2433-1.2184-2.2427
			c1.3135-1.4674,2.2881-3.2397,2.6184-5.5816c1.2561-0.3871,1.5076-1.9556,1.5076-2.9336c0-0.9775-0.1724-1.5066-0.5233-1.6705
			c-0.1692-0.0787-0.3346-0.0781-0.4816-0.0468c0.1263-2.0369,0.2521-6.0726-0.5968-7.5891
			c-0.9281-1.6578-2.1625-2.0878-4.3126-1.5459c-1.4104-0.7483-2.3706-1.4885-4.8416-0.8146
			c-1.7168,0.468-3.5959,1.2324-4.5862,2.5077c-1.0681,1.3762-0.8623,5.39-0.6818,7.4517c-0.1591-0.0435-0.3458-0.0513-0.5355,0.037
			c-0.351,0.1639-0.5232,0.693-0.5232,1.6705c0,0.978,0.2513,2.5464,1.5076,2.9336c0.2969,2.4714,1.2888,4.1849,2.615,5.6125
			c-0.0924,0.8553-0.1829,1.6806-0.9336,2.0862c-1.6462,0.4451-6.8177,1.9473-8.4502,3.6664
			c-1.9421,2.0447-2.6975,9.6761-2.6975,9.6761h33C62.0305,56.9061,61.301,49.2747,59.3589,47.23z"/>
	</g>
</g>
</svg>
