<?xml version="1.0" encoding="utf-8"?>
<!-- Generator: Adobe Illustrator 24.1.0, SVG Export Plug-In . SVG Version: 6.00 Build 0) -->
<svg viewBox="0 0 64 64" width="32px" height="32px">
	<style type="text/css">
		.st0{fill:none;}
		.st1{fill:#FF1D25;}
		.st2{fill:#1D1D1B;}
	</style>
	<g id="Box">
		<rect class="st0" width="64" height="64" fill="none" />
	</g>
	<g id="Icon">
		<path d="M51.79,50.26c-1.07-1.12-3.15-2.23-5.31-3.18c-1.53-0.7-5.89-2.44-6.29-2.68c-0.1-0.86-0.2-1.72-0.29-2.53
		c1.45-1.16,2.53-2.19,4.49-3.83c0.43-0.36,0.57-0.96,0.34-1.48l-0.58-1.28c0.06-0.42,0.17-1.1,0.25-1.51
		c0.04-0.22,0.08-0.52,0.12-0.83c0.97-1.21,1.51-2.91,1.51-4.93c0-0.74-0.02-2.67-1.22-4.01c1.16-6.29-2.59-12.34-8.5-14.27
		c-1.3-0.43-2.25-0.61-3.3-0.68c0-0.15,0.17-0.3,0.52-0.37c1.41-0.29,3.3-0.09,4.76,0.38c0.4-0.71,0.94-2.16,0.94-3.06
		C39.2,3.23,36.8,1,33.9,1c-2.1,0-3.6,1.25-4.8,2.76c-1.7,2.32-2.9,0.8-1.7-0.89c0,0-3.4,0.36-3.4,2.94c0,1.87,2.02,3.62,2.93,4.16
		c-5.4,2.23-8.83,7.96-7.71,14.02c-1.2,1.33-1.22,3.27-1.22,4c0,2.02,0.54,3.71,1.51,4.93c0.04,0.31,0.07,0.6,0.12,0.83
		c0.08,0.42,0.18,1.1,0.25,1.51l-0.58,1.28c-0.23,0.51-0.1,1.11,0.34,1.48c1.99,1.66,3.1,2.73,4.49,3.83
		c-0.09,0.82-0.19,1.67-0.29,2.53c-0.22,0.13-5.83,2.47-6.29,2.68c-2.16,0.95-4.25,2.07-5.31,3.18C10.2,52.36,8.88,58.72,8.31,62
		h47.37C55.12,58.72,53.8,52.36,51.79,50.26z M21,28c0-0.69,0.05-1.88,0.67-2.17c0,0,0,0,0,0c0.42-0.2,0.9-0.03,1.27,0.27
		c0-0.83,0.02-3.18,0.74-5.58c2.25-2.03,5.15-3.26,8.32-3.26c3.23,0,6.17,1.28,8.44,3.38c0.04,0.14,0.08,0.28,0.12,0.43
		c0.16,0.68,0.27,1.35,0.35,1.98c0.15,1.26,0.15,2.36,0.15,3.05c0.36-0.3,0.84-0.47,1.27-0.26C42.78,26.04,43,26.73,43,28
		c0,0.23-0.03,0.47-0.05,0.71c-3.87-0.03-6.15-0.34-6.92-0.97c-1-0.81-1.96-2.12-4.03-2.12c-2.06,0-3.02,1.31-4.03,2.12
		c-0.77,0.62-3.05,0.94-6.92,0.97C21.03,28.48,21,28.23,21,28z M21.95,36.73c0.17-0.38,0.27-0.57,0.38-0.88l5.79,1.54
		c0.04-0.05,0.16-0.22-0.11-0.43l-5.91-3.51c-0.13-0.73-0.18-1.36-0.25-2.24c4.89-0.09,6.65-0.67,7.69-1.52
		c1.12-0.9,1.48-1.57,2.46-1.57c0.98,0,1.35,0.67,2.46,1.57c1.05,0.84,2.8,1.43,7.69,1.52c-0.07,0.91-0.13,1.54-0.25,2.24
		l-5.91,3.51c-0.26,0.21-0.15,0.38-0.11,0.43l5.79-1.54c0.11,0.32,0.18,0.41,0.38,0.88c-1.1,0.94-1.78,1.56-2.61,2.26
		c-2.55,2.19-4.03,3.16-7.45,3.16c-3.35,0-4.81-0.92-7.12-2.88C24.1,38.61,23.04,37.66,21.95,36.73z M32,55
		c0,0-9.49-0.17-11.65-5.89c3.74-1.57,6.19-2.12,6.4-3.99c0.02-0.2,0.08-0.74,0.17-1.46c1.42,0.66,2.97,0.99,5.08,0.99
		c2.15,0,3.74-0.36,5.12-1c0.05,0.59,0.11,1.21,0.13,1.47c0.21,1.87,2.64,2.42,6.4,3.99C41.49,54.81,32,55,32,55z" />
	</g>
</svg>
