<?xml version="1.0" encoding="utf-8"?>
<!-- Generator: Adobe Illustrator 17.1.0, SVG Export Plug-In . SVG Version: 6.00 Build 0) -->
<svg width="24px" height="24px" viewBox="0 0 64 64">
	<g id="Box">
		<rect fill="none" width="64" height="64" />
	</g>
	<g id="Icon">
		<g>
			<path d="M7.3872,44.0104C4.5137,47.1344,3,58.9,3,58.9h8.9777c0.5413-3.0029,1.7477-11.0172,0.7296-18.0912
			C10.5342,41.7361,8.463,42.8403,7.3872,44.0104z" />
			<path d="M39.9297,28.4567c1.3281-1.2195,2.0679-3.1657,2.0679-5.5557c0-0.61-0.0109-2.0306-0.6855-3.259
			c0.6249-0.1572,1.2581-0.3118,1.9039-0.4597C43.6708,19.0781,44,18.6692,44,18.2027v-1.8718c0-0.4272-0.2786-0.7932-0.6797-0.9401
			C42.6165,15.133,41.5826,14.5035,41.3125,13c-0.4064-2.2614-0.8746-9.3148-8.4913-11.407
			c-0.8075,4.1797-0.6334,3.2785-1.4571,7.5419C31.2623,9.4521,31.0562,9.4057,31,9.3848c0-9.8738,0,0.9665,0-8.0848
			c0-0.0303-0.0145-0.0586-0.0172-0.0887c-0.0454-0.5176-0.4565-1.0026-0.9778-1.0689c-1.3314-0.168-2.6786-0.168-4.01,0
			c-0.5212,0.0663-0.9324,0.5513-0.9778,1.0689C25.0145,1.2414,25,1.2697,25,1.3c0,8.9323,0-3.5502,0,8.0848
			c-0.0562,0.0209-0.2623,0.0673-0.3641-0.2499c-1.2253-6.3419-0.6781-3.5097-1.4571-7.5419
			c-7.6168,2.0923-8.085,9.1456-8.4914,11.407c-0.2701,1.5035-1.304,2.133-2.0078,2.3908C12.2786,15.5377,12,15.9037,12,16.3309
			v1.8718c0,0.4665,0.3292,0.8754,0.7839,0.9796c0.6473,0.1482,1.282,0.3032,1.9082,0.4608
			c-0.677,1.2283-0.6898,2.6479-0.6898,3.258c0,2.386,0.7374,4.3299,2.0614,5.5497c0.3819,2.5118,1.613,4.9141,3.7105,7.2619
			c-0.106,0.807-0.2283,1.7498-0.353,2.7313c-0.5432,0.1588-1.3111,0.3926-2.1931,0.6819
			c0.3632,2.7508,1.8854,10.9911,7.7113,19.7742c6.1076,0,0.9532,0,7.0605,0V45.6234c-1.2902,1.4955-2.8443,2.7867-4,3.6165
			c-2.3003-1.75-6.2109-5.5302-5.7778-9.0224c0.2371-1.9129,0.0408-0.5492,0.8235-5.4371c-2.2767-2.1999-4.1043-4.8665-4.1043-8.061
			C17.3237,26.2154,16.9,24.1739,16.9,22.901c0-1.2725,0.3217-1.961,0.7738-2.1743c0.392-0.1845,0.7725-0.0476,1.0129,0.0886
			c0.1414,0.6526,0.2484,1.1383,0.2898,1.3098C19.1826,22.9762,20,22.898,20,22.898v-1.9188C22.9534,21.6604,25.4756,22,27.9995,22
			c2.5214,0,5.0444-0.339,8.0005-1.0208v1.9188c0,0,0.8174,0.0782,1.0234-0.7729c0.0415-0.1714,0.1484-0.6571,0.2898-1.3098
			c0.2405-0.1362,0.6209-0.2731,1.013-0.0886C38.7783,20.94,39.1,21.6285,39.1,22.901c0,1.2729-0.4237,3.3144-2.0414,3.8183
			c0,3.7027-2.5335,6.4959-5.3403,8.8846c-1.056,0.8988-3.8212,1.6984-6.6459,0.4706c0.6138,0.9305,1.6553,2.0744,3.5848,2.5851
			c3.1548,0.8349,5.4595-0.9139,5.4595-0.9139l0.0002,0.0016C35.3858,36.7896,39.2062,33.0361,39.9297,28.4567z" />
			<path d="M49.0012,55C56.8511,55,63,51.6253,63,47.3214c0-0.6324,0-3.0202,0-3.6548C63,39.3673,56.8511,36,49.0012,36
			C41.1492,36,35,39.3673,35,43.6666c0,0.6346,0,3.0225,0,3.6548c0,0.9493,0.3142,1.8492,0.865,2.6819
			C35.312,50.8288,35,51.7224,35,52.6666v3.6548C35,60.6253,41.1492,64,49.0012,64C56.8511,64,63,60.6253,63,56.3214v-3.6548
			c0-0.2049-0.0266-0.4056-0.0542-0.606c-0.7144,0.8958-4.5718,5.1376-13.6127,5.1376c-8.0173,0-10.7806-3.8577-11.0668-4.3807
			c-0.1169-0.2137-0.2019-0.4362-0.0765-0.5667C40.738,53.9397,44.6016,55,49.0012,55z M37.7012,44
			c0-2.8444,5.0601-5.15,11.302-5.15s11.302,2.3057,11.302,5.15c0,2.8443-5.0601,5.15-11.302,5.15S37.7012,46.8443,37.7012,44z" />
			<path d="M46.8542,45.7261v0.6766h1.5551v-0.5565c0.3053,0.0191,0.6703,0.0191,1.016,0.0191h0.384v0.5374h1.5168v-0.6166
			c2.7834-0.2999,4.1094-1.2643,4.1094-2.6701c0-0.5469-0.0571-0.7845-0.3076-1.3435H53.072
			c0.2123,0.5182,0.2886,0.7773,0.2886,1.2546c0,0.6166-0.5938,1.1155-2.0344,1.334v-1.7634h-1.5168v1.8928
			c-0.1907,0.0096-0.384,0.0193-0.6128,0.0193c-0.2697,0-0.52-0.0098-0.7872-0.0193v-1.8928h-1.5551v1.7538
			c-1.4023-0.2089-2.1322-0.6575-2.1322-1.3748c0-0.4078,0.0763-0.6454,0.2479-1.1539h-2.168
			c-0.174,0.4269-0.2312,0.7269-0.2312,1.1226C42.5708,44.3611,44.0112,45.3662,46.8542,45.7261z" />
		</g>
	</g>
</svg>
