<?xml version="1.0" encoding="utf-8"?>
<!-- Generator: Adobe Illustrator 17.1.0, SVG Export Plug-In . SVG Version: 6.00 Build 0) -->
<svg width="24px" height="24px" viewBox="0 0 64 64">
	<g id="_x36_4px_Boxes">
		<rect fill="none" width="64" height="64" />
	</g>
	<g id="Production">
		<g>
			<circle cx="20" cy="53" r="3.9639" />
			<circle cx="46" cy="53" r="3.9639" />
			<path d="M21.04,39c1.46,0,27.17,0,27.17,0s3.2729,0.3184,4-4c0.6098-3.623,2.6001-19,2.6001-19s0.0498-3-2.9502-3
			c-2.6847,0-24.3391,0-32.6659,0l-0.4606-3.4038C18.5322,8.1162,17.2539,7,15.7607,7H10C8.8955,7,8,7.8955,8,9
			c0,2.5825,4.3989,2.8007,7.0174,2.9585l3.1189,23.0452C17.9901,35.0405,14,36.0914,14,41c0,4,2.2354,7,6.647,7
			c4.706,0,28.4873,0,28.4873,0c2.3769,0,2.5959-3.8188,0-4c0,0-15.0401-0.4707-28.0943-0.75C20.2754,43.2334,18.7998,43,18.7998,41
			C18.7998,39.7778,19.58,39,21.04,39z M28,35h-5.8287l-0.9474-7H28V35z M43,17h7.6802l-1.3971,9.9387
			c-0.0878,0.0222-0.2753-0.0246-0.3378-0.2981C48.6288,25.2557,48.3284,24,48.3284,24H43V17z M43,28h6.1339l-0.984,7H43V28z M32,17
			h7v9.8758c-0.0781,0.0226-0.2605,0.0267-0.3438-0.1883C38.1328,25.3359,37.5955,24,37.5955,24H32V17z M32,28h7v7h-7V28z M28,17
			v9.8758c-0.0797,0.0315-0.2551,0.0308-0.3399-0.1836C27.1484,25.3984,26.5955,24,26.5955,24h-5.9128l-0.9473-7H28z" />
		</g>
	</g>
</svg>
