<?xml version="1.0" encoding="utf-8"?>
<!-- Generator: Adobe Illustrator 24.1.0, SVG Export Plug-In . SVG Version: 6.00 Build 0) -->
<svg viewBox="0 0 64 64" width="24px" height="24px">
	<style type="text/css">
		.st0{fill:none;}
		.st1{fill:#FF1D25;}
		.st2{fill:#1D1D1B;}
	</style>
	<g id="Box">
		<rect class="st0" width="64" height="64" />
	</g>
	<g id="Icon">
		<g>
			<path d="M14.35,48.11c3.74-1.57,6.19-2.12,6.4-3.99c0.02-0.2,0.08-0.74,0.17-1.46c1.42,0.66,2.97,0.99,5.08,0.99
			c2.15,0,3.74-0.36,5.12-1c0.05,0.59,0.11,1.21,0.13,1.47c0.13,1.19,1.17,1.85,2.87,2.57c0.09,0.03,5.61,2.13,8.29,3.72
			c1.53-1.2,1.71-1.26,2.43-1.95c-1.14-0.84-2.73-1.65-4.37-2.37c-1.53-0.7-5.89-2.44-6.29-2.68c-0.1-0.86-0.2-1.72-0.29-2.53
			c1.39-1.11,2.61-2.26,4.49-3.83c0.43-0.36,0.57-0.96,0.34-1.48l-0.58-1.28c0.25-1.66,0.26-1.4,0.36-2.34
			c0.97-1.21,1.51-2.91,1.51-4.93c0-0.74-0.02-2.67-1.22-4.01c0.13-0.73,0.21-1.48,0.21-2.25c0-5.56-3.62-10.36-8.72-12.02
			c-1.3-0.43-2.25-0.61-3.3-0.68c0-0.15,0.17-0.3,0.52-0.37c1.41-0.29,3.3-0.09,4.76,0.38c0.4-0.71,0.94-2.16,0.94-3.06
			C33.2,2.23,30.8,0,27.9,0c-2.1,0-3.6,1.25-4.8,2.76c-1.7,2.32-2.9,0.8-1.7-0.89c0,0-3.4,0.36-3.4,2.94c0,1.87,2.02,3.62,2.93,4.16
			C16.27,10.9,13,15.47,13,20.74c0,0.77,0.08,1.52,0.21,2.25c-1.2,1.33-1.22,3.27-1.22,4c0,2.02,0.54,3.71,1.51,4.93
			c0.11,0.93,0.09,0.55,0.36,2.34l-0.58,1.28c-0.23,0.51-0.1,1.11,0.34,1.48c1.99,1.66,3.1,2.73,4.49,3.83
			c-0.09,0.82-0.19,1.67-0.29,2.53c-0.22,0.13-5.83,2.47-6.29,2.68c-2.16,0.95-4.25,2.07-5.31,3.18C4.71,50.82,3.6,54.75,2.9,58
			h17.89c0.14-1.62,0.59-3.15,1.34-4.51C19.24,52.84,15.59,51.39,14.35,48.11z M15,27c0-0.69,0.05-1.88,0.67-2.17c0,0,0,0,0,0
			c0.42-0.2,0.9-0.03,1.27,0.27c0-0.83,0.02-3.18,0.74-5.58c2.25-2.03,5.15-3.26,8.32-3.26c3.23,0,6.17,1.28,8.44,3.38
			c0.04,0.14,0.08,0.28,0.12,0.43c0.16,0.68,0.27,1.35,0.35,1.98c0.15,1.26,0.15,2.36,0.15,3.05c0.36-0.3,0.84-0.47,1.27-0.26
			C36.78,25.04,37,25.73,37,27c0,0.23-0.03,0.47-0.05,0.71c-3.87-0.03-6.15-0.34-6.92-0.97c-1-0.81-1.96-2.12-4.03-2.12
			c-2.06,0-3.02,1.31-4.03,2.12c-0.77,0.62-3.05,0.94-6.92,0.97C15.03,27.48,15,27.23,15,27z M15.95,35.73
			c0.17-0.38,0.27-0.57,0.38-0.88l5.79,1.54c0.04-0.05,0.16-0.22-0.11-0.43l-5.91-3.51c-0.13-0.73-0.18-1.36-0.25-2.24
			c4.89-0.09,6.65-0.67,7.69-1.52c1.12-0.9,1.48-1.57,2.46-1.57c0.98,0,1.35,0.67,2.46,1.57c1.05,0.84,2.8,1.43,7.69,1.52
			c-0.07,0.91-0.13,1.54-0.25,2.24l-5.91,3.51c-0.26,0.21-0.15,0.38-0.11,0.43l5.79-1.54c0.11,0.32,0.18,0.41,0.38,0.88
			c-1.1,0.94-1.78,1.56-2.61,2.26c-2.55,2.19-4.03,3.16-7.45,3.16c-3.35,0-4.81-0.92-7.12-2.88C18.1,37.61,17.04,36.66,15.95,35.73z
			" />
			<path d="M37.11,54.48c-3.34-1.29-6.53-1.15-8.51,0.44c-0.97,0.78-1.56,1.83-1.77,3.08h5.7L37.11,54.48z" />
			<path d="M27.34,53.36c2.82-2.26,7.15-2.37,11.59-0.29l1.74-1.34c-0.29-0.15-0.56-0.32-0.86-0.46c-5.16-2.42-10.29-2.23-13.73,0.53
			c-2.84,2.28-3.95,5.87-3.06,9.85l1.95-0.44C24.27,58,25.13,55.14,27.34,53.36z" />
			<path d="M50.47,32.89c-2,1.36-2.87,3.62-2.47,6.35c0.2,1.36,0.79,2.77,1.52,4.13c0.53-0.45,0.83-0.7,1.62-1.2
			c-0.57-1.1-1.02-2.2-1.17-3.22c-0.29-1.96,0.27-3.49,1.62-4.41c1.99-1.35,5.32-1.24,7.94,0.26l1-1.73
			C57.24,31.18,53.1,31.1,50.47,32.89z" />
			<path d="M55.95,49.99c0-0.01-0.01-0.01-0.01-0.02c0,0,0,0,0,0c-0.77-1.39-1.73-2.84-2.75-4.39c0.59-0.39,1.04-0.59,1.33-0.69
			c0.13-0.05,0.62-0.18,0.7-0.08c0.04,0.05-0.02,0.29-0.3,0.67l0.02,0.02c0.37,0.57,0.74,1.14,1.1,1.71
			c1.22-1.33,1.5-2.59,0.76-3.58c-0.98-1.32-2.92-1.05-5.32,0.74c-1.34,1-2.68,2.34-3.59,3.6c-0.81,1.12-1.7,2.05-2.66,2.78
			L30.49,62.09c-0.4,0.3-0.48,0.88-0.18,1.28c0.3,0.4,0.87,0.49,1.28,0.19l15.07-10.89c0.97-0.71,2.13-1.3,3.43-1.75
			c0.6-0.21,1.23-0.5,1.86-0.82c-0.35-0.55-0.71-1.11-1.07-1.67c-0.45,0.22-0.89,0.42-1.32,0.58c0.56-0.75,1.28-1.51,2.05-2.2
			c0.93,1.43,1.94,2.94,2.69,4.34c1.31,2.44,2.06,4.75-0.07,6.49c-2.42,1.98-4.58,0.59-8.09-2.13l-1.69,1.22
			c4.22,3.27,7.92,5.79,11.65,1.9C58.51,56.14,57.63,53.04,55.95,49.99z" />
		</g>
	</g>
</svg>
