<?xml version="1.0" encoding="utf-8"?>
<!-- Generator: Adobe Illustrator 17.1.0, SVG Export Plug-In . SVG Version: 6.00 Build 0)  -->
<svg version="1.2" baseProfile="tiny" xmlns="http://www.w3.org/2000/svg" xmlns:xlink="http://www.w3.org/1999/xlink" x="0px"
	 y="0px" width="64px" height="64px" viewBox="0 0 64 64" xml:space="preserve">
<g id="_x36_4px_Boxes">
	<rect fill="none" width="64" height="64"/>
</g>
<g id="Production">
	<g>
		<path d="M25,12h4v4c0,0.5522,0.4478,1,1,1h4c0.5522,0,1-0.4478,1-1v-4h4c0.5522,0,1-0.4478,1-1V7c0-0.5522-0.4478-1-1-1h-4V2
			c0-0.5522-0.4478-1-1-1h-4c-0.5522,0-1,0.4478-1,1v4h-4c-0.5522,0-1,0.4478-1,1v4C24,11.5522,24.4478,12,25,12z"/>
		<path d="M50,19H14c-0.5523,0-1,0.4477-1,1v43h10v-8l4-1v9h10v-8l4-1v9h10V20C51,19.4477,50.5523,19,50,19z M29,26h6v6h-6V26z
			 M29,36h6v6h-6V36z M19,26h6v6h-6V26z M19,36h6v6h-6V36z M43,52H21v-4h22V52z M45,42h-6v-6h6V42z M45,32h-6v-6h6V32z"/>
	</g>
</g>
</svg>
