<?xml version="1.0" encoding="utf-8"?>
<!-- Generator: Adobe Illustrator 21.0.2, SVG Export Plug-In . SVG Version: 6.00 Build 0) -->
<!DOCTYPE svg PUBLIC "-//W3C//DTD SVG 1.1//EN" "http://www.w3.org/Graphics/SVG/1.1/DTD/svg11.dtd">
<svg width="24px" height="24px" viewBox="0 0 64 64">
	<style type="text/css">
		.st0{fill:none;}
	</style>
	<g id="_x36_4px_Box">
		<rect class="st0" width="64" height="64" />
	</g>
	<g id="Icon">
		<g>
			<g>
				<path d="M41.2,41.5c0-1-0.8-1.8-1.8-1.8s-1.8,0.8-1.8,1.8s0.8,1.8,1.8,1.8S41.2,42.5,41.2,41.5z M43.2,47.5c0-1-0.8-1.8-1.8-1.8
				s-1.8,0.8-1.8,1.8s0.8,1.8,1.8,1.8S43.2,48.5,43.2,47.5z M39.5,34.5c0.8-0.2,1.3-1.1,1.1-2l-3.1-6.7c0-0.7,0.7-1.9,0.7-2.5
				c0.3-3-0.1-6.5-0.1-6.5c2.4-2.5,2.4-5.4,0.6-7.6c-2.1-2.5-11.6-5.5-19.7-3.8c-8.6,1.8-10,9.7-9.9,13.9c0.2,4.9,2.9,12.4,1.8,17.2
				C10.4,38.7,5,49,5,49h19.8v-2.9l-4.1-4.4c-0.2-0.3-0.1-0.5,0-0.5c0,0,6.2,3.3,8.4,4.3c2.2,1,3.2-0.5,3.9-1.9
				c0.4-0.8,0.8-0.7,1.4-1c0.8-0.4,0.2-1.9-0.2-2.7c-0.4-0.7-0.6-0.8-0.6-0.8c0.7,0.1,1.4-0.1,1.9-0.2c0.6-0.2,1.1-0.8,0.9-1.4
				c-0.5-1.3,0.1-2.4,0.1-2.4L39.5,34.5z M48.2,39.5c0-1-0.8-1.8-1.8-1.8s-1.8,0.8-1.8,1.8s0.8,1.8,1.8,1.8S48.2,40.5,48.2,39.5z
				 M53.5,35.8c-1,0-1.8,0.8-1.8,1.8s0.8,1.8,1.8,1.8s1.8-0.8,1.8-1.8S54.5,35.8,53.5,35.8z M43.5,51.8c-1,0-1.8,0.8-1.8,1.8
				s0.8,1.8,1.8,1.8s1.8-0.8,1.8-1.8S44.5,51.8,43.5,51.8z M48.4,43.9c-1,0-1.8,0.8-1.8,1.8c0,1,0.8,1.8,1.8,1.8s1.8-0.8,1.8-1.8
				C50.2,44.7,49.4,43.9,48.4,43.9z" />
			</g>
		</g>
	</g>
</svg>
