<?xml version="1.0" encoding="utf-8"?>
<!-- Generator: Adobe Illustrator 17.1.0, SVG Export Plug-In . SVG Version: 6.00 Build 0)  -->
<svg version="1.2" baseProfile="tiny" xmlns="http://www.w3.org/2000/svg" xmlns:xlink="http://www.w3.org/1999/xlink" x="0px"
	 y="0px" width="64px" height="64px" viewBox="0 0 64 64" xml:space="preserve">
<g id="_x36_4px_Boxes">
	<rect fill="none" width="64" height="64"/>
</g>
<g id="Production">
	<rect fill="none" width="64" height="64"/>
	<path d="M31.2923,16.4386c-3.4218,1.3109-6.7587,6.7018-7.1548,9.0219c-0.1968,1.1526-0.1882,1.7222,0.4205,2.0714
		c5.0517,2.8985,2.3284,6.855,0.6672,8.958c-1.1901,1.5066-1.6566,3.0328,0.0522,4.172c1.2067,0.8045,4.2625,0.1609,6.0566-1.8014
		c3.2037-3.504,3.8915-8.6598-1.4667-14.284c0.0423-0.0757,0.082-0.1472,0.1251-0.2251C33,18.9167,36.8529,19.097,36.2194,26.149
		c-0.0311,0.3433-0.0541,0.5974-0.0694,0.7655c0.0764,0.0969,0.28,0.2045,0.7812-0.2481c1.36-1.2284,2.1287-3.5127,1.7566-5.754
		C38.0866,17.2907,34.8471,15.0769,31.2923,16.4386z"/>
	<g>
		<path d="M48.4224,13.9855c-1.9645-4.2162-5.6122-7.3882-10.2703-8.9317c-3.2418-1.0745-7.0635-1.3158-10.4812-0.3961
			c-5.3557,1.4412-11.9775,6.654-11.6346,14.4564c0.1888,4.298,2.0666,3.8923,2.3721,3.7975
			c0.5856-4.827,2.7475-8.9025,6.2239-11.3615c3.553-2.5128,8.1375-3.2857,11.9631-2.0178c3.35,1.1104,5.9565,3.5763,7.339,6.5438
			c1.5198,3.2601,1.483,7.2491-0.1015,11.2318c-0.9252,2.3227-1.9684,4.441-2.9768,6.4896
			c-2.1182,4.3036-3.8284,8.1902-3.8284,12.2324c0,3.5637-1.49,6.2504-4.0829,7.7706c-2.6993,1.5822-6.5229,1.6842-9.0956,0.2456
			c-3.5201-1.97-5.3909-7.9561-5.4633-12.8163c-0.4348-0.1077-2.1702-0.2772-2.3497,3.8122
			c-0.2541,5.7825,1.547,11.0412,5.396,13.1541c4.209,2.3104,9.8263,2.162,14.0166-0.2953
			c4.1331-2.4233,6.4489-6.6995,6.4489-12.0405c0-2.8897,1.5543-6.1276,3.3998-9.8763c1.0016-2.0351,2.1367-4.3414,3.1343-6.8454
			C50.5262,23.8759,50.5223,18.4946,48.4224,13.9855z"/>
	</g>
</g>
</svg>
