<svg id="afstand_sporten" xmlns="http://www.w3.org/2000/svg" viewBox="0 0 56 56" fill="currentColor"><path d="M35.24,6.14l.09.05.06,0,.2,0a.73.73,0,0,0,.36,0l.15,0a.69.69,0,0,0,.19-.1l.08-.06a.87.87,0,0,0,.17-.21l0-.07s0-.08,0-.13l0-.14c.13-.61,0-1-.64-1.14a.78.78,0,0,0-.37,0,1,1,0,0,0-.35.15A.84.84,0,0,0,35,4.8l0,0a1.34,1.34,0,0,0-.07.18s0,.08,0,.13a.87.87,0,0,0-.05.36.8.8,0,0,0,.11.35A.84.84,0,0,0,35.24,6.14Z"/><path d="M40.51,12.72a1.66,1.66,0,0,0,.48.51,1.48,1.48,0,0,0,.64.25,1.61,1.61,0,0,0,.69,0,1.51,1.51,0,0,0,.64-.27,1.6,1.6,0,0,0,.47-.5,1.66,1.66,0,0,0,.15-.33l.06-.21v-.11a1.67,1.67,0,0,0,.12-.7,1.73,1.73,0,0,0-.2-.68,1.62,1.62,0,0,0-.48-.53,1.59,1.59,0,0,0-.66-.27l-.11,0h-.09a1.46,1.46,0,0,0-.51,0l-.25.07a1.53,1.53,0,0,0-.4.21,1.71,1.71,0,0,0-.47.53,1.55,1.55,0,0,0-.21.67,1.89,1.89,0,0,0-.09.34s0,.09,0,.14a1.48,1.48,0,0,0,0,.21A1.59,1.59,0,0,0,40.51,12.72Z"/><path d="M21.92,21.08l.07.09.06,0a1,1,0,0,0,.18.18,1.83,1.83,0,0,0,.31.24,2.7,2.7,0,0,0,1.14.41,3.19,3.19,0,0,0,2.16-.59A3.16,3.16,0,0,0,25,15.92a3.4,3.4,0,0,0-.57-.08,2.68,2.68,0,0,0-.63.05,2.82,2.82,0,0,0-1.91,1.37,2.67,2.67,0,0,0-.36,1.16,2.66,2.66,0,0,0,.17,2.35A3.46,3.46,0,0,0,21.92,21.08Z"/><path d="M34.42,31l-1.26-.13a38.24,38.24,0,0,1-4-.48,18.32,18.32,0,0,1-2.28-3.61,5.27,5.27,0,0,0-2-2.82,5.44,5.44,0,0,0-2.59-1L22,23h-.44A13.78,13.78,0,0,0,14,24.7,17,17,0,0,0,11.37,29,2.67,2.67,0,0,0,12,32.16a24.48,24.48,0,0,1,3.77-5.31,8.9,8.9,0,0,1,3.13-.74c-.72,2.78-1.35,6.68-1.54,8-.37,2.46,1,3.28,2.6,4.23l.37.22h-.21l-2-.32c-.5,1.12-1.64,3.61-2.25,4.62a31,31,0,0,1-5.07-.93,2.26,2.26,0,0,0-.45,0,2.42,2.42,0,0,0-.47.06,2.49,2.49,0,0,0-.87.37A2.66,2.66,0,0,0,8,43.77a30.13,30.13,0,0,0,4.13,1.44,30.56,30.56,0,0,0,4.46.87,2.29,2.29,0,0,0,1-.19A4.32,4.32,0,0,0,19,44.36c.87-1.22,2.2-3.45,3-4.78l.52.26c.87.42,1.92.95,2.66,1.39.06.41.11.83.17,1.25l.06.51.06.51c0,.33.07.66.1,1,.13,1.39.22,2.77.27,4.16A3.58,3.58,0,0,0,26.41,50a3.39,3.39,0,0,0,.41.51,3.69,3.69,0,0,0,1.84,1l0-.33v-.11l0-.33.07-1.13,0-.71c0-.58.07-1.15.09-1.74S29,46,29,45.31V41.39a5.41,5.41,0,0,0-.4-2.18c-.29-.64-1-1.35-5-4.24.4-2,.95-4.3,1.4-6.18a9.91,9.91,0,0,0,3,3.79,11.85,11.85,0,0,0,4.14.32,2.91,2.91,0,0,0,.82-.21,2.69,2.69,0,0,0,1.51-1.81Z"/><polygon points="47.9 18.68 47.87 18.76 47.92 18.76 47.9 18.68"/><path d="M44.82,18.39a11,11,0,0,1-1.33-2.1,2.88,2.88,0,0,0-.57-1.08,3.11,3.11,0,0,0-2.56-1.14,7.74,7.74,0,0,0-3.1.42v-2.1a1.83,1.83,0,0,0,0-.66c0-.1-.1-.22-.4-.46s-.61-.46-1.17-.86c.08-.35.17-.74.26-1.11L36,9l.1-.45c.19.34.56,1,.93,1.16a3.07,3.07,0,0,0,1.28,0,.72.72,0,0,0,.46-.18.73.73,0,0,0,.25-.43l-.08,0a5.26,5.26,0,0,1-1.64-.19,5.1,5.1,0,0,1-.69-1.14A1.63,1.63,0,0,0,35,6.59a4.57,4.57,0,0,0-1,0,4.2,4.2,0,0,0-1.33.5,4.92,4.92,0,0,0-.82,1.3.72.72,0,0,0-.09.2.77.77,0,0,0,0,.15,1.09,1.09,0,0,0,0,.18.85.85,0,0,0,.28.46A7.37,7.37,0,0,1,33.2,7.78a3,3,0,0,1,.48-.16l.21,0,.29,0c-.2.82-.36,1.66-.48,2.5s.38,1,.93,1.37H34l-.14.31-.1.2c-.16.34-.36.72-.47.93a10.36,10.36,0,0,1-1.57-.3.94.94,0,0,0-.87.59,9,9,0,0,0,2.65.71c.34,0,.48-.15.77-.53l.93-1.48a8.5,8.5,0,0,1,1,.53,22,22,0,0,1,.21,2.28,1.16,1.16,0,0,0,0,.18l-.46.24a11,11,0,0,0-1.6,2.5,1.48,1.48,0,0,0-.12.29,1.39,1.39,0,0,0,0,.7,1.18,1.18,0,0,0,.12.36,1.31,1.31,0,0,0,.41.5,13.43,13.43,0,0,1,2.2-3.1c.18-.08.36-.14.54-.2a5.33,5.33,0,0,1,.66-.17l.22,0,.41-.05c-.25,1-.48,2.17-.65,3.14l-.15.93-.1.6c-.22,1.51.71,2,1.75,2.65h-.14L38.35,23c-.23.53-.48,1.05-.74,1.56s-.38.74-.59,1.1a19.55,19.55,0,0,1-2.94-.56,1.51,1.51,0,0,0-1.7,1.09c.44.19.89.36,1.34.52l.87.27a18,18,0,0,0,2.8.56c.69,0,1-.29,1.46-1l.12-.17.14-.21.36-.56c.25-.39.5-.81.73-1.19l.4-.65c.53.26,1.33.66,1.86,1,.11.78.21,1.56.27,2.34l0,.34,0,.4c0,.42.05.83.07,1.24a2,2,0,0,0,.56,1.1,2,2,0,0,0,.35.3,2.13,2.13,0,0,0,.73.3c0-.82,0-1.47.1-2.15,0-.47.06-1,.09-1.51V24.81a3.41,3.41,0,0,0-.24-1.27,1,1,0,0,0-.11-.2,3,3,0,0,0-.37-.4,28.7,28.7,0,0,0-2.44-1.87c.08-.41.18-.86.28-1.31.18-.84.37-1.68.54-2.3a6.35,6.35,0,0,0,.84,1.33l.12.13.27.29.18.16c.11.1.22.2.34.29a6.81,6.81,0,0,0,2.42.19,1.58,1.58,0,0,0,.87-.37,1.5,1.5,0,0,0,.48-.72c-.45,0-.91-.07-1.36-.12S45.38,18.49,44.82,18.39Z"/><path d="M36.78,41a2.34,2.34,0,1,0,2.33,2.34A2.33,2.33,0,0,0,36.78,41Z"/></svg>