<svg width="37" height="36" viewBox="0 0 37 36" fill="currentColor" xmlns="http://www.w3.org/2000/svg">
  <path d="M22.416 7.52427C22.3581 7.53485 22.2978 7.53236 22.2405 7.51743C22.2075 7.51307 22.1758 7.50498 22.1453 7.49316L22.1148 7.47948C22.1005 7.47263 22.0868 7.46454 22.0738 7.45583C22.0234 7.42286 21.9817 7.37931 21.9506 7.32767C21.9201 7.27603 21.9014 7.21816 21.8965 7.15844C21.8915 7.09808 21.9002 7.03836 21.922 6.98236C21.9238 6.96183 21.9269 6.94192 21.9319 6.92263C21.9394 6.89277 21.9493 6.8629 21.963 6.83491L21.9767 6.81002C22.0072 6.75776 22.0483 6.71234 22.098 6.67687C22.1478 6.64203 22.2044 6.61777 22.2642 6.60657C22.3239 6.59537 22.3855 6.59786 22.4446 6.61279C22.7501 6.66381 22.8142 6.86726 22.7501 7.1603C22.7482 7.18457 22.7439 7.20821 22.7376 7.23123C22.732 7.25176 22.7246 7.27167 22.7159 7.29096L22.6972 7.32767C22.676 7.36437 22.6493 7.39735 22.6176 7.42535L22.5784 7.45708C22.5497 7.47699 22.5186 7.49379 22.4863 7.50561C22.4639 7.5137 22.4402 7.51992 22.416 7.52427Z"/>
  <path d="M25.4771 10.991C25.3676 11.0122 25.2549 11.0091 25.1461 10.9835C25.0347 10.9655 24.9283 10.9238 24.8344 10.8597C24.741 10.7963 24.6626 10.7129 24.6054 10.6152C24.5482 10.5175 24.5133 10.4087 24.5034 10.296C24.5002 10.2612 24.4996 10.2264 24.5009 10.1921C24.5021 10.1697 24.504 10.1473 24.5071 10.1249C24.5146 10.0702 24.5282 10.0161 24.5475 9.96381C24.5569 9.84933 24.5911 9.73858 24.6477 9.63903C24.7043 9.53886 24.7821 9.453 24.8754 9.38643C24.9339 9.34412 24.998 9.31053 25.0652 9.28626C25.105 9.27195 25.1461 9.26075 25.1884 9.25266C25.268 9.23773 25.3501 9.23524 25.4304 9.2452L25.4764 9.25204L25.5287 9.26324C25.6419 9.28128 25.7502 9.32484 25.8448 9.39079C25.9393 9.45674 26.0177 9.54322 26.0737 9.64401C26.1303 9.74418 26.1633 9.85617 26.1702 9.97127C26.1776 10.0864 26.1583 10.2015 26.1148 10.3079L26.1073 10.3608C26.1005 10.3962 26.0911 10.4304 26.0799 10.464C26.0619 10.5188 26.0376 10.5717 26.0078 10.6208C25.9505 10.7166 25.8734 10.7994 25.7819 10.8628C25.6905 10.9269 25.5866 10.9705 25.4771 10.991Z"/>
  <path d="M16.5197 15.0986C16.8892 15.1341 17.2588 15.0326 17.5587 14.8136C17.8586 14.594 18.067 14.273 18.146 13.9102C18.2244 13.5469 18.1672 13.168 17.9849 12.8445C17.8026 12.5209 17.5077 12.2758 17.1568 12.1551C17.0665 12.1327 16.9751 12.1203 16.883 12.1165C16.781 12.1128 16.6783 12.1209 16.5775 12.1402C16.3859 12.1775 16.2048 12.2553 16.0462 12.3691C15.8869 12.483 15.755 12.6298 15.6586 12.7997C15.5621 12.9695 15.5036 13.158 15.4875 13.3528C15.4134 13.5351 15.3823 13.7311 15.3973 13.927C15.4116 14.123 15.4707 14.3128 15.5708 14.4814C15.6026 14.5349 15.638 14.5859 15.6766 14.6338L15.7096 14.6736L15.7357 14.7016C15.7631 14.7315 15.7917 14.7595 15.8222 14.7863C15.8695 14.8286 15.9199 14.8665 15.9728 14.9014C16.1376 15.0084 16.3243 15.0756 16.5197 15.0986Z"/>
  <path d="M21.6799 19.3928L21.0771 19.3331C19.9428 19.2217 19.3729 19.1657 19.1315 19.0998C18.6991 18.5672 18.3314 17.9855 18.0359 17.367C17.8766 16.8201 17.5394 16.3429 17.0777 16.0101C16.9116 15.8906 16.7331 15.7923 16.5458 15.7164C16.3181 15.6243 16.0779 15.5652 15.8328 15.5416C15.7886 15.5372 15.7444 15.5341 15.7003 15.5322C15.6635 15.5304 15.6268 15.5298 15.5901 15.5298L15.4875 15.5316C14.2294 15.4619 12.9783 15.7537 11.8814 16.3728C11.3563 16.9844 10.927 17.6719 10.6072 18.4117C10.4796 18.6674 10.4423 18.9579 10.4995 19.2379C10.5574 19.5172 10.7073 19.7692 10.9257 19.9534C11.4116 19.0264 12.0201 18.169 12.735 17.405C13.2109 17.1965 13.7199 17.0752 14.2388 17.0485C13.8947 18.3861 13.5886 20.2595 13.4996 20.8711C13.3223 22.0545 13.9799 22.4464 14.7483 22.9044L14.9269 23.0114H14.8249L13.8692 22.8583C13.6272 23.394 13.079 24.5917 12.786 25.0757C11.9635 24.9967 11.1491 24.8474 10.3521 24.6296C10.2799 24.6203 10.2077 24.6166 10.1355 24.6191C10.059 24.6222 9.98312 24.6327 9.90846 24.6495C9.761 24.6825 9.61915 24.7416 9.49036 24.8256C9.23589 24.9911 9.04924 25.2425 8.96338 25.5343C9.60857 25.8118 10.2718 26.0432 10.9481 26.2267C11.6505 26.4171 12.3673 26.5565 13.0921 26.643C13.2856 26.643 13.4368 26.6144 13.5693 26.5521C13.8194 26.4346 14.0017 26.1981 14.2767 25.8149C14.6973 25.2288 15.3344 24.158 15.7164 23.5209L15.9703 23.6454C16.3859 23.8488 16.8892 24.1014 17.2457 24.3111C17.2743 24.5114 17.3011 24.7118 17.3266 24.9121L17.3571 25.1603L17.3845 25.4042C17.4019 25.5629 17.4181 25.7215 17.4336 25.8808C17.4971 26.5453 17.5406 27.2116 17.5643 27.8792C17.6085 28.115 17.6999 28.339 17.8324 28.5369C17.8903 28.624 17.9562 28.7061 18.0297 28.782C18.2698 29.0309 18.5778 29.2045 18.915 29.2804L18.9262 29.1211L18.9299 29.0707L18.9405 28.9114L18.9754 28.3695L18.9965 28.0267C19.0127 27.7473 19.0276 27.4748 19.0394 27.1886C19.0513 26.9049 19.0606 26.6069 19.0681 26.2734V24.3876C19.0749 24.0299 19.0096 23.6746 18.8764 23.343C18.7364 23.0369 18.3799 22.6928 16.4811 21.3041C16.6721 20.3485 16.9402 19.2398 17.1568 18.3351C17.4784 19.0525 17.973 19.6784 18.5965 20.1575C18.9144 20.2396 19.2385 20.2937 19.5652 20.3199C19.9036 20.3466 20.2452 20.3435 20.5843 20.3099C20.7212 20.2975 20.8543 20.2626 20.9788 20.2079C21.0945 20.1568 21.2027 20.089 21.2998 20.0057C21.5014 19.8321 21.6426 19.6 21.7055 19.3418L21.6799 19.3928Z"/>
  <path d="M28.1661 13.5189L28.1431 13.5177L28.1536 13.4803L28.1661 13.5189Z"/>
  <path d="M23.0437 11.4676C23.5197 11.2996 24.0268 11.2293 24.5345 11.2635C24.8692 11.2467 25.1996 11.3438 25.4721 11.5379C25.5816 11.6157 25.6793 11.7078 25.7626 11.8104C25.8877 11.9635 25.9823 12.1414 26.0383 12.3337C26.2112 12.6927 26.4252 13.0305 26.6754 13.3403C26.9448 13.3889 27.2148 13.4281 27.486 13.4592C27.7044 13.4841 27.9234 13.5033 28.1431 13.5177C28.1213 13.5867 28.0902 13.6514 28.0504 13.7105C28.0118 13.7684 27.9651 13.8206 27.9116 13.8661C27.7928 13.9662 27.6459 14.0278 27.491 14.0409C27.1022 14.082 26.709 14.0521 26.3313 13.9519C26.2741 13.9078 26.2187 13.8611 26.1658 13.8132L26.0824 13.7335C26.037 13.6887 25.9928 13.6427 25.9511 13.5954L25.8945 13.5307C25.7328 13.3378 25.5965 13.1238 25.4901 12.8942C25.408 13.1916 25.3147 13.596 25.2282 13.9967C25.1809 14.2139 25.1361 14.4298 25.0957 14.627C25.7409 15.0893 26.0818 15.3524 26.2703 15.5273C26.3556 15.6063 26.4091 15.6666 26.4452 15.7195C26.4682 15.7531 26.4843 15.783 26.4968 15.8122C26.5764 16.0063 26.6156 16.2141 26.6119 16.4238V17.5195C26.6013 17.7882 26.5845 18.0197 26.5683 18.2443C26.5447 18.5722 26.5223 18.8845 26.5223 19.2783C26.396 19.2522 26.2765 19.2024 26.1702 19.1321C26.1092 19.0917 26.0526 19.045 26.0015 18.9921C25.8603 18.8472 25.767 18.6624 25.7328 18.4627C25.7253 18.2642 25.7147 18.0657 25.7017 17.8673L25.6873 17.6713L25.6737 17.5107C25.6413 17.135 25.5971 16.7598 25.5411 16.3859C25.2867 16.2328 24.904 16.0418 24.6496 15.9143L24.4573 16.2285C24.3466 16.4101 24.224 16.6111 24.1064 16.7977C24.0473 16.8923 23.9888 16.9831 23.9341 17.0665L23.865 17.1704L23.8084 17.2519C23.5664 17.596 23.4388 17.7366 23.1078 17.7366C22.653 17.6818 22.2038 17.5916 21.7639 17.4666C21.6233 17.4268 21.484 17.3832 21.3458 17.3359C21.1275 17.2613 20.9116 17.1785 20.6994 17.0864C20.7473 16.9141 20.8568 16.766 21.0074 16.6696C21.1579 16.5731 21.3384 16.5358 21.5151 16.5638C21.9786 16.6907 22.4514 16.7803 22.9293 16.8313C23.0276 16.6584 23.1215 16.4835 23.2123 16.3068C23.338 16.0605 23.4562 15.811 23.5664 15.5571L24.1269 15.6467H24.191C23.6939 15.3282 23.2478 15.0986 23.3498 14.3725L23.399 14.0826L23.4737 13.6384C23.5545 13.173 23.6622 12.5975 23.7829 12.1296C23.7163 12.1346 23.6504 12.142 23.585 12.152L23.483 12.1694C23.376 12.1893 23.2702 12.2161 23.1663 12.249C23.0773 12.277 22.9896 12.3094 22.9038 12.3467C22.4838 12.7922 22.1279 13.2937 21.8461 13.8374C21.7627 13.7715 21.6955 13.6875 21.6495 13.5929C21.6239 13.5394 21.6047 13.4828 21.5928 13.4243C21.5698 13.3117 21.576 13.196 21.6084 13.0871C21.6227 13.038 21.6426 12.9907 21.6675 12.9453C21.8653 12.5122 22.1229 12.1091 22.4321 11.7476C22.5049 11.7059 22.5796 11.6667 22.6549 11.63C22.6462 11.602 22.6393 11.5727 22.6356 11.5435C22.6213 11.177 22.5871 10.8112 22.5336 10.4479C22.3824 10.3533 22.225 10.268 22.0626 10.1928L21.6165 10.9064C21.4765 11.085 21.4124 11.1615 21.2469 11.1615C20.8077 11.1098 20.3784 10.9941 19.9727 10.8174C19.9727 10.8174 20.0747 10.5368 20.3933 10.5368C20.6397 10.604 20.891 10.6513 21.1449 10.6774C21.2015 10.5804 21.2936 10.3968 21.3732 10.2332L21.4211 10.1349L21.4889 9.98932H21.782C21.5144 9.8232 21.2724 9.69627 21.3359 9.3267C21.39 8.92354 21.4665 8.52348 21.5655 8.12902C21.5188 8.13276 21.4728 8.13836 21.4267 8.14644C21.3931 8.15204 21.3595 8.15889 21.3259 8.16698C21.2469 8.18626 21.1691 8.21177 21.0939 8.2435C20.8717 8.47931 20.6826 8.74559 20.5333 9.03366C20.4624 8.98015 20.4144 8.90238 20.3976 8.81528C20.392 8.78541 20.3902 8.75555 20.392 8.72693C20.3933 8.70266 20.3976 8.6784 20.4039 8.65476C20.4126 8.6224 20.4263 8.5913 20.4443 8.56205C20.5407 8.33372 20.6739 8.1228 20.8394 7.93739C21.0372 7.81918 21.2538 7.7383 21.4784 7.69724C21.6327 7.66924 21.7901 7.65991 21.9475 7.66986C22.1248 7.65991 22.3009 7.70906 22.4465 7.81109C22.592 7.91251 22.6991 8.06058 22.7507 8.23044C22.8378 8.42642 22.9492 8.61058 23.0817 8.77857C23.1707 8.80408 23.4002 8.86754 23.8719 8.86754L23.9098 8.8551C23.893 8.93536 23.8501 9.00753 23.7879 9.06041C23.7256 9.1133 23.6479 9.14441 23.5657 9.14814C23.3642 9.18734 23.1564 9.18734 22.9541 9.14814C22.7762 9.07161 22.5976 8.75306 22.5087 8.58756L22.4577 8.8047L22.4166 8.97207C22.373 9.15187 22.3282 9.33666 22.2915 9.50464C22.5603 9.69938 22.7389 9.82942 22.8546 9.92212C22.9971 10.036 23.0437 10.0926 23.0437 10.1417C23.0637 10.2475 23.0637 10.3552 23.0437 10.4603V11.4676Z"/>
  <path d="M23.9353 25.3433C23.9353 25.9629 23.4338 26.4644 22.8142 26.4644C22.1951 26.4644 21.693 25.9629 21.693 25.3433C21.693 24.7242 22.1951 24.2221 22.8142 24.2221C23.4338 24.2221 23.9353 24.7242 23.9353 25.3433Z"/>
</svg>
