<svg id="alcohol_verkoop" xmlns="http://www.w3.org/2000/svg" viewBox="0 0 56 56"><path d="M40.64,25.18A31.36,31.36,0,0,0,39,6.31a1.72,1.72,0,0,0-.52-.7,1.77,1.77,0,0,0-.79-.35,50.47,50.47,0,0,0-18.34,0,1.77,1.77,0,0,0-.79.35,1.81,1.81,0,0,0-.52.7,31.67,31.67,0,0,0-1.64,18.87A12.73,12.73,0,0,0,26,34.11V48.38c-1.48.17-5.14.54-6.28.84s-1.21,2.35,0,2.35H37.28a1.18,1.18,0,1,0,0-2.35c-1.18-.3-4.8-.67-6.31-.84V34.11a12.83,12.83,0,0,0,9.7-8.93Zm-19.45-11A17.93,17.93,0,0,0,22.6,26.92a10.63,10.63,0,0,0,2.93,3.36s0,.47-1,0a9.12,9.12,0,0,1-3.23-2.37,9.24,9.24,0,0,1-1.91-3.54A28,28,0,0,1,20.66,8.19a48.71,48.71,0,0,1,15.71,0,33.66,33.66,0,0,1,1.58,6Z"/></svg>