<svg width="37" height="36" viewBox="0 0 37 36" fill="currentColor" xmlns="http://www.w3.org/2000/svg">
<path d="M23.4392 16.8488C24.0124 14.2709 23.7728 11.5788 22.7536 9.14261C22.7082 9.03194 22.6353 8.93474 22.5416 8.86032C22.448 8.7859 22.3368 8.73675 22.2188 8.71754C19.7442 8.25952 17.2066 8.25952 14.732 8.71754C14.614 8.73675 14.5028 8.7859 14.4092 8.86032C14.3156 8.93474 14.2426 9.03194 14.1973 9.14261C13.1922 11.5826 12.9577 14.2717 13.5253 16.8488C13.7899 17.7583 14.2974 18.5785 14.9932 19.2211C15.689 19.8638 16.5468 20.3046 17.4744 20.4963V26.3239C16.8711 26.3925 15.3765 26.5433 14.9103 26.6667C14.4441 26.7901 14.4166 27.6265 14.9103 27.6265H22.068C22.1953 27.6265 22.3174 27.576 22.4074 27.486C22.4974 27.396 22.5479 27.2739 22.5479 27.1466C22.5479 27.0193 22.4974 26.8972 22.4074 26.8072C22.3174 26.7172 22.1953 26.6667 22.068 26.6667C21.5881 26.5433 20.1071 26.3925 19.4901 26.3239V20.4963C20.419 20.3041 21.2783 19.8633 21.9762 19.2209C22.6741 18.5785 23.1845 17.7586 23.4529 16.8488H23.4392ZM15.4999 12.3649C15.0444 14.109 15.2495 15.9599 16.0758 17.5619C16.3724 18.0979 16.7789 18.5652 17.2688 18.9331C17.2688 18.9331 17.2687 19.125 16.8711 18.9331C16.3643 18.7115 15.9132 18.3801 15.5503 17.9627C15.1875 17.5453 14.922 17.0524 14.7731 16.5197C14.2852 14.3149 14.4618 12.015 15.2805 9.91049C17.4055 9.563 19.5728 9.563 21.6978 9.91049C21.9875 10.7071 22.2032 11.5287 22.3422 12.3649H15.4999Z"/>
</svg>
