<svg xmlns="http://www.w3.org/2000/svg" viewBox="0 0 56 56" fill="currentColor">
    <g id="archive">
        <path d="M46.5671 13.2537H43.7313V10.4179C43.7313 9.56716 43.1642 9 42.3134 9C32.388 9 29.5522 9 19.6268 9C15.9403 9 12.2537 10.4179 12.2537 14.1045V20.3432C9.98508 20.9105 8 22.3284 8 25.1642V43.3134C8 45.2985 9.70149 47 11.6866 47H27.8507C28.7015 47 29.2686 46.4329 29.2686 45.5821V26.582C29.2686 25.7313 28.7015 25.1642 27.8507 25.1642C22.1791 25.1642 22.4626 25.1642 21.3284 25.1642H15.3731C14.5224 25.1642 13.3881 25.1642 12.2537 25.1642C11.9701 25.1642 11.6866 24.8805 11.6866 24.3134C12.2537 23.1791 14.5224 22.8955 15.3731 22.8955C32.1045 22.8955 15.6568 22.8955 32.1045 22.8955V44.1642H36.3582C37.209 44.1642 37.7761 43.5969 37.7761 42.7463V15.5224C37.7761 14.6716 37.209 14.1045 36.3582 14.1045C26.1493 14.1045 21.0447 14.1045 16.5074 14.1045C16.2239 14.1045 15.9403 13.8209 15.9403 13.2537C16.5074 12.1194 18.776 11.8358 19.6268 11.8358C29.2686 11.8358 30.9701 11.8358 40.8955 11.8358V39.6269H42.3134C43.1642 39.6269 43.7313 39.0596 43.7313 38.209V15.5224H46V36.7909H46.8507C47.7015 36.7909 48.2686 36.2238 48.2686 35.373V14.9553C48.2686 14.1045 47.4179 13.2537 46.5671 13.2537Z"/>
    </g>
</svg>