<svg xmlns="http://www.w3.org/2000/svg" width="44.96" height="27.8" viewBox="0 0 44.96 27.8">
    <g>
        <g>
            <path
                d="M34.67,2.74l7.9,10.92a2.09,2.09,0,0,1,0,2.48,1.68,1.68,0,0,1-2.24.42L35.9,12.74v11c0,1.56-1.24,2-2.63,2s-2.63-.46-2.63-2v-11s-3.85,3.49-4.38,3.82A1.69,1.69,0,0,1,24,16.14a2,2,0,0,1-.43-1.27A2.11,2.11,0,0,1,24,13.66l7.9-10.92a1.69,1.69,0,0,1,2.8,0Z"
                fill="#fff"
                className="three-arrows three-stroke" />
            <path
                d="M33.27,2a1.72,1.72,0,0,1,1.4.74l7.9,10.92a2.09,2.09,0,0,1,0,2.48,1.74,1.74,0,0,1-1.35.68,1.58,1.58,0,0,1-.88-.26l-4.38-3.82v11c0,1.56-1.24,2-2.63,2h0c-1.39,0-2.63-.47-2.63-2v-11s-3.85,3.49-4.38,3.82A1.66,1.66,0,0,1,24,16.14a2,2,0,0,1-.43-1.27A2.11,2.11,0,0,1,24,13.66L31.87,2.74A1.72,1.72,0,0,1,33.27,2m0-2a3.76,3.76,0,0,0-3,1.57l-7.9,10.92a4,4,0,0,0-.76,2.38,4.12,4.12,0,0,0,.86,2.51,3.73,3.73,0,0,0,2.92,1.44,3.64,3.64,0,0,0,1.94-.56,16,16,0,0,0,1.32-1.06v6.57c0,3,2.49,4,4.63,4s4.64-1.05,4.64-4V17.15l1.07.93.12.11.14.09a3.64,3.64,0,0,0,1.94.56,3.68,3.68,0,0,0,2.92-1.44,4.07,4.07,0,0,0,.1-4.89L36.29,1.57a3.76,3.76,0,0,0-3-1.57Z"
                fill="#fff" />
            <path
                d="M23.88,2.74l7.9,10.92a2.09,2.09,0,0,1-.05,2.48,1.68,1.68,0,0,1-2.24.42l-4.38-3.82v11c0,1.56-1.24,2-2.63,2s-2.63-.46-2.63-2v-11S16,16.23,15.47,16.56a1.69,1.69,0,0,1-2.24-.42,2,2,0,0,1-.43-1.27,2.11,2.11,0,0,1,.38-1.21l7.9-10.92a1.69,1.69,0,0,1,2.8,0Z"
                fill="#fff"
                className="two-arrows two-stroke" />
            <path
                d="M22.48,2a1.72,1.72,0,0,1,1.4.74l7.9,10.92a2.09,2.09,0,0,1-.05,2.48,1.74,1.74,0,0,1-1.35.68,1.58,1.58,0,0,1-.88-.26l-4.38-3.82v11c0,1.56-1.24,2-2.63,2h0c-1.39,0-2.63-.47-2.63-2v-11S16,16.23,15.48,16.56a1.66,1.66,0,0,1-2.23-.42,2,2,0,0,1-.43-1.27,2.11,2.11,0,0,1,.38-1.21L21.08,2.74A1.72,1.72,0,0,1,22.48,2m0-2a3.76,3.76,0,0,0-3,1.57l-7.9,10.92a4,4,0,0,0-.76,2.38,4.12,4.12,0,0,0,.86,2.51,3.73,3.73,0,0,0,2.92,1.44,3.64,3.64,0,0,0,1.94-.56,16,16,0,0,0,1.32-1.06v6.57c0,3,2.49,4,4.63,4s4.64-1.05,4.64-4V17.15l1.07.93.12.11.14.09a3.64,3.64,0,0,0,1.94.56A3.68,3.68,0,0,0,33.3,17.4a4.07,4.07,0,0,0,.1-4.89L25.51,1.57a3.76,3.76,0,0,0-3-1.57h0Z"
                fill="#fff" />
            <path
                d="M13.08,2.74,21,13.66a2.09,2.09,0,0,1-.05,2.48,1.68,1.68,0,0,1-2.24.42l-4.38-3.82v11c0,1.56-1.24,2-2.63,2s-2.63-.46-2.63-2v-11S5.2,16.23,4.67,16.56a1.69,1.69,0,0,1-2.24-.42A2,2,0,0,1,2,14.87a2.11,2.11,0,0,1,.38-1.21l7.9-10.92a1.69,1.69,0,0,1,2.8,0Z"
                fill="#fff"
                className="one-arrow one-stroke" />
            <path
                d="M11.68,2a1.72,1.72,0,0,1,1.4.74L21,13.66a2.09,2.09,0,0,1-.05,2.48,1.74,1.74,0,0,1-1.35.68,1.58,1.58,0,0,1-.88-.26l-4.38-3.82v11c0,1.56-1.24,2-2.63,2h0c-1.39,0-2.63-.47-2.63-2v-11s-3.85,3.49-4.38,3.82a1.66,1.66,0,0,1-2.23-.42A2,2,0,0,1,2,14.87a2.11,2.11,0,0,1,.38-1.21L10.28,2.74A1.72,1.72,0,0,1,11.68,2m0-2a3.76,3.76,0,0,0-3,1.57L.76,12.49A4,4,0,0,0,0,14.87a4.12,4.12,0,0,0,.86,2.51,3.73,3.73,0,0,0,2.92,1.44,3.64,3.64,0,0,0,1.94-.56A16,16,0,0,0,7,17.2v6.57c0,3,2.49,4,4.63,4s4.64-1.05,4.64-4V17.15l1.07.93.12.11.14.09a3.64,3.64,0,0,0,1.94.56A3.68,3.68,0,0,0,22.5,17.4a4.07,4.07,0,0,0,.1-4.89L14.7,1.57a3.76,3.76,0,0,0-3-1.57Z"
                fill="#fff" />
        </g>
    </g>
</svg>