<svg xmlns="http://www.w3.org/2000/svg" viewBox="0 0 56 56"><g id="arts"><path d="M14.24,38.59a7.13,7.13,0,0,1,.18-2.4,11.94,11.94,0,0,0-4,2.49C7.93,41.34,6.63,51.57,6.63,51.57h6.88S9.55,41.6,14.24,38.59Z"/><path d="M17.36,51.49l-.26.08H49.35c0-.17-1.28-10.21-3.76-12.87h0A15.3,15.3,0,0,0,41.16,36a8.48,8.48,0,0,1-.25,5,3.9,3.9,0,0,1,1.7,3.26,3.93,3.93,0,1,1-3.92-4h.25a5.45,5.45,0,0,0,.09-4A4.31,4.31,0,0,0,36,34.24c-.17-1-.34-2.06-.43-3a11.45,11.45,0,0,0,2.73-5.75,6.49,6.49,0,0,0,1.79-4.81,5.16,5.16,0,0,0-1-3.43c.26-2.83.43-7.29-.68-9.1-1.37-2.22-3-3.26-6.23-2.57-2-1-3.5-1.63-7.17-.69-2.56.61-5.29,1.63-6.74,3.35s-1.28,6.18-1.11,9.1a5,5,0,0,0-1,3.43,6,6,0,0,0,1.79,4.72A12.44,12.44,0,0,0,21,31.75c-.09.69-.18,1.46-.35,2.32-.42.17-1.1.34-1.87.6A3.31,3.31,0,0,0,16.33,38a4.54,4.54,0,0,1,2.56.43c3.93,1.8,5.8,8.5,5.89,8.75a.92.92,0,0,1-.09.69V48c0,.08-.08.08-.08.17l-.17.17A8.72,8.72,0,0,1,22,49.68c-.93.35-1.28-.17-1.45-.85s-.17-1.12.69-1.64c.34-.17.76-.43,1.19-.6-.77-2.06-2.3-5.32-4.35-6.26a2.54,2.54,0,0,0-2.22,0c-3,1.37-1.62,6.86-.85,9.27a6.88,6.88,0,0,1,1.28-.43c.94-.26,1.36,0,1.62.69S18.3,51.06,17.36,51.49Zm5.71-16.05c.18-1.63,0-.43.69-4.63-2-1.89-3.5-4.21-3.5-6.95-1.37-.43-1.71-2.15-1.71-3.27s.26-1.71.69-1.88a1,1,0,0,1,.85.08,4.24,4.24,0,0,0,.25,1.12.79.79,0,0,0,.86.68V14.85a25.42,25.42,0,0,0,9.13-2.66l4.52,3v5.4a.78.78,0,0,0,.85-.68A4.8,4.8,0,0,1,36,18.79a1,1,0,0,1,.85-.08c.43.17.68.77.68,1.88s-.34,2.84-1.7,3.27c0,3.17-2.14,5.57-4.52,7.63a5,5,0,0,1-3.16.94,6.94,6.94,0,0,1-2.47-.51,5.26,5.26,0,0,0,3.07,2.23,5.88,5.88,0,0,0,4.69-.77s.25,1.63.25,2.06c.09,2.92-3.49,6.18-5.62,7.72h0C26.06,41.62,22.73,38.44,23.07,35.44Z"/></g></svg>