<svg width="56" height="56" viewBox="0 0 56 56" fill="#000" xmlns="http://www.w3.org/2000/svg">
    <path d="M40.3181 35.2993C41.9985 36.0149 43.5989 36.8897 44.4792 37.7643C46.7996 40.229 48 49.5319 48 49.6909H17.7533C17.7933 49.6909 17.8333 49.671 17.8733 49.6512C17.9133 49.6313 17.9533 49.6113 17.9933 49.6113C18.8735 49.2139 18.7935 48.7368 18.4734 48.1008C18.2334 47.4646 17.8333 47.226 16.9531 47.4646C16.553 47.5442 16.1529 47.7032 15.7529 47.8622C15.0327 45.6358 13.7524 40.5472 16.553 39.275C17.2732 38.9568 17.9133 38.9568 18.6335 39.275C20.5539 40.1496 21.9942 43.1709 22.7144 45.0793C22.441 45.1879 22.1676 45.3338 21.9197 45.466C21.8048 45.5272 21.6955 45.5855 21.5941 45.6358C20.794 46.1128 20.7139 46.5104 20.954 47.1466C21.114 47.7826 21.4341 48.2598 22.3143 47.9418C23.0345 47.7032 24.0747 47.1466 24.6348 46.6694L24.7948 46.5104C24.7948 46.4707 24.8149 46.4508 24.8349 46.431C24.8549 46.4111 24.8749 46.3911 24.8749 46.3514V46.272C24.9549 46.1128 25.0349 45.8744 24.9549 45.6358C24.9514 45.6254 24.9446 45.6034 24.9346 45.5707C24.7163 44.8604 22.9526 39.1219 19.4336 37.5257C18.6335 37.1281 17.8333 37.0487 17.0331 37.1281C17.0331 35.5379 17.8333 34.5837 19.3536 34.0272C19.6694 33.9227 19.9697 33.8332 20.2412 33.7527C20.589 33.6491 20.8893 33.5599 21.114 33.4706C21.2544 32.7734 21.3332 32.1372 21.4044 31.5624C21.4144 31.4817 21.4242 31.4021 21.4341 31.3238C19.7537 29.4155 18.7935 27.5071 18.4734 25.5194C17.3532 24.5652 16.7931 23.0547 16.7931 21.1463C16.7931 20.5101 16.7931 18.9996 17.7533 17.9658C17.5932 15.2625 17.4332 11.0484 18.7935 9.53765C20.1538 7.94742 22.7144 6.99328 25.1149 6.4367C28.5558 5.56208 29.9161 6.11867 31.8364 7.0728C34.8771 6.4367 36.3973 7.39085 37.6777 9.45814C38.7179 11.1279 38.5578 15.2625 38.3179 17.8864C39.2779 18.92 39.2779 20.5101 39.2779 21.0667C39.2779 22.9751 38.6379 24.5652 37.5975 25.5194C37.3576 27.3481 36.4775 29.0975 35.0372 30.8467C35.1172 31.7214 35.2772 32.755 35.4373 33.6296C36.2374 33.7886 37.6777 34.2658 38.3179 35.5379C38.7979 36.4921 38.7179 37.7643 38.2377 39.275H37.9978C35.9973 39.275 34.3169 40.9448 34.3169 42.9325C34.3169 44.9203 35.9973 46.59 37.9978 46.59C39.9982 46.59 41.6784 44.9203 41.6784 42.9325C41.6784 41.6603 41.0385 40.5472 40.0782 39.911C40.6382 38.1618 40.7184 36.5715 40.3181 35.2993ZM23.3545 34.7427C23.0345 37.5257 26.1552 40.4676 27.9956 41.8988C29.9961 40.4676 33.3568 37.4463 33.2767 34.7427C33.2767 34.3452 33.0368 32.8346 33.0368 32.8346C33.0368 32.8346 31.1962 34.1862 28.6358 33.5502C27.1153 33.1526 26.2352 32.1984 25.7551 31.4828C26.3952 31.7214 27.1955 31.9598 28.0756 31.9598C29.2759 31.9598 30.3961 31.6418 31.0363 31.0852C33.2767 29.1769 35.2772 26.9507 35.2772 24.0086C36.5575 23.6112 36.8776 22.0209 36.8776 20.9873C36.8776 19.9537 36.6375 19.3972 36.2374 19.238C35.9173 19.079 35.5972 19.238 35.4373 19.3176C35.2772 19.7946 35.1972 20.1921 35.1972 20.3511C35.0372 21.0667 34.3971 20.9873 34.3971 20.9873V15.9781L30.156 13.1952C26.5552 15.0239 23.2745 15.5011 21.5941 15.6601V20.9873C21.5941 20.9873 20.954 21.0667 20.794 20.3511C20.7139 20.1921 20.6339 19.8742 20.5539 19.3176C20.3939 19.238 20.0738 19.079 19.7537 19.238C19.3536 19.3972 19.1136 19.9537 19.1136 20.9873C19.1136 22.0209 19.4336 23.6112 20.7139 24.0086C20.7139 26.5532 22.1543 28.6999 23.9947 30.4493C23.5739 33.0097 23.4989 33.4066 23.4514 33.8068C23.4266 34.0154 23.4094 34.2249 23.3545 34.7427Z"/>
    <path d="M15.2316 35.4403C15.0715 36.0763 14.9915 36.8714 15.0715 37.6664C10.6705 40.4493 14.0313 49.0367 14.1913 49.3547C14.1913 49.3944 14.2113 49.4143 14.2313 49.4343C14.2513 49.454 14.3214 49.6512 14.3214 49.6909H8C8 49.6909 9.15018 40.2109 11.4707 37.746C12.2709 36.8714 13.7112 36.0763 15.2316 35.4403Z"/>
</svg>
