<svg xmlns="http://www.w3.org/2000/svg" viewBox="0 0 56 56"><g id="avondklok"><path d="M34.14,20.21a14.18,14.18,0,0,0-18.53,5.51l12.18,7,9.92,10a13.37,13.37,0,0,0,2.69-3.55A14.29,14.29,0,0,0,34.14,20.21Z" fill-opacity="0.2" /><path d="M14.65,9.64c0,.45,0,.89,0,1.31v.73a.28.28,0,0,0,.45.18,13.18,13.18,0,0,0,1.62-1.3,12.9,12.9,0,0,0,2,.58A.27.27,0,0,0,19,10.8c-.25-.57-.52-1.21-.81-1.88.4-.59.78-1.2,1.1-1.74a.29.29,0,0,0-.23-.44,17.76,17.76,0,0,0-2,.07l-.5-.65-.69-.9a.22.22,0,0,0-.24-.1.22.22,0,0,0-.19.18c-.09.34-.18.66-.26,1l-.24.89c-.65.21-1.34.47-1.91.72a.3.3,0,0,0,0,.5C13.47,8.82,14.06,9.24,14.65,9.64Z"/><path d="M46.81,6.91a6.35,6.35,0,0,0-2.67,0,5.71,5.71,0,0,1-1.92,10.32,6.12,6.12,0,0,0,2,.88,5.91,5.91,0,0,0,7.2-4.24A5.89,5.89,0,0,0,46.81,6.91Z" /><path d="M7.56,18.16l-.41-1.32a.18.18,0,0,0-.32-.05l-.48.7-.3.43c-.48,0-1,0-1.44,0a.22.22,0,0,0-.16.32c.25.37.54.79.84,1.2l-.48,1.25,0,.1A.2.2,0,0,0,5,21a9,9,0,0,0,1.38-.48,9.06,9.06,0,0,0,1.19.87.19.19,0,0,0,.31-.14c0-.44-.06-.93-.09-1.44.41-.3.81-.62,1.15-.89a.22.22,0,0,0,0-.36A12.94,12.94,0,0,0,7.56,18.16Z" /><path d="M29,22h0a1.19,1.19,0,0,0-2.37,0l-.51,7.64-5.73-2.36a1,1,0,0,0-1.25.37,1,1,0,0,0,.28,1.43h0l7.46,5A1.92,1.92,0,0,0,28,34.4a1.87,1.87,0,0,0,1.72-2v-.06Z"/><path d="M31.59,15a18.2,18.2,0,1,0,14,21.61A18.19,18.19,0,0,0,31.59,15Zm9.73,20.7A13.85,13.85,0,1,1,30.68,19.2,13.88,13.88,0,0,1,41.32,35.65Z" /></g></svg>