<svg xmlns="http://www.w3.org/2000/svg" viewBox="0 0 56 56"><g id="bar_chart"><path d="M51.28,42.68h-3V18.93a2.06,2.06,0,0,0-1.8-2.26H43.63a2.07,2.07,0,0,0-1.81,2.26V42.68H36.94V27.06a2.07,2.07,0,0,0-1.8-2.26H32.25a2.07,2.07,0,0,0-1.81,2.26V42.68H25.56V12.42a2.07,2.07,0,0,0-1.81-2.25H20.86a2.07,2.07,0,0,0-1.8,2.25V42.68H14.18V18.93a2.07,2.07,0,0,0-1.81-2.26H9.48a2.06,2.06,0,0,0-1.8,2.26V42.68h-3a.3.3,0,0,0-.3.3v2.66a.29.29,0,0,0,.3.3H51.28a.29.29,0,0,0,.3-.3V43A.3.3,0,0,0,51.28,42.68Z" /></g></svg>