<svg xmlns="http://www.w3.org/2000/svg" viewBox="0 0 56 56" fill="currentColor"><g id="basisregels_testen"><path d="M33.32,23.41c-.15-.66.09-1.89,0-2.45a31.65,31.65,0,0,0-1.83-6C33,12,32.28,9.4,30,7.9,27.29,6.19,17.69,6,10.63,9.85,3.18,13.9,4,21.45,5.24,25.24c1.45,4.42,5.74,10.67,6,15.37.14,2.07-1.38,8.65-1.38,8.65H26.58V44.6s-4.22-2-4.42-2.18a.26.26,0,0,1-.11-.34s6.06,1.27,8.4,1.63a4.75,4.75,0,0,0,4.18-1.06c1.59-1.73.22-3.16.41-4.06s1.43-.85,1.27-2.08a1,1,0,0,0-.85-.81,1.71,1.71,0,0,0,.83-1.12,1,1,0,0,0-.33-1,1.85,1.85,0,0,1-.88-1.5l2.46-1.3A1.5,1.5,0,0,0,38,28.66Z"/><path d="M51.31,44.84c-.38-.37-5.82-5.85-5.82-5.85-.1.16-.16.21-.27.24S45,39.08,45,39a2.16,2.16,0,0,0,.23-.44c0-.31.21-.28-.62-1.17-.38-.41-3.6-3.64-4-4s-1-1-1.6-.33-.17,1.21.31,1.69,3.58,3.59,4,4c.93.87.91.67,1.3.52l6.07,6.1c.46.46.62.23.72.13S51.67,45.2,51.31,44.84Z"/></g></svg>