<svg xmlns="http://www.w3.org/2000/svg" viewBox="0 0 56 56"><g id="basisregel_afstand"><path d="M10.66,17.08a2.46,2.46,0,0,0,2.57-2.75c0-1.84-.92-2.94-2.57-2.94s-2.57,1.1-2.57,2.94S9,17.08,10.66,17.08Z"/><path d="M13.6,18.55a15.65,15.65,0,0,0-5.87,0c-3.32.7-3.31,5.89-3.31,10.35v.66a2,2,0,0,0,2,2V27.35a25.06,25.06,0,0,1,.55-5h.37V44.6a2.67,2.67,0,0,0,2.57-2.75s.37-10.28.37-10.46,0-.37.36-.37.37.19.37.37.37,10.28.37,10.28a2.78,2.78,0,0,0,2.75,2.75v-22a.18.18,0,0,1,.18.18,22.2,22.2,0,0,1,.55,4.77v4.22a2,2,0,0,0,2-2V28.9C16.91,24.44,16.92,19.25,13.6,18.55Z"/><path d="M45.34,17.08a2.46,2.46,0,0,0,2.57-2.75c0-1.84-.92-2.94-2.57-2.94s-2.57,1.1-2.57,2.94S43.69,17.08,45.34,17.08Z"/><path d="M48.27,18.55a15.65,15.65,0,0,0-5.87,0c-3.32.7-3.31,5.89-3.3,10.51v.68a2,2,0,0,0,2,2V27.35a24.31,24.31,0,0,1,.55-5H42V44.6a2.89,2.89,0,0,0,2.75-2.75s.36-10.28.36-10.46,0-.37.37-.37a.41.41,0,0,1,.37.37c0,.18.36,10.28.36,10.28a2.67,2.67,0,0,0,2.57,2.75v-22s.19,0,.19.18a22.87,22.87,0,0,1,.55,4.77v4.22a2,2,0,0,0,2-2V28.9C51.58,24.44,51.59,19.25,48.27,18.55Z"/><path d="M21.49,28.27h2.75v-2H21.49l1.1-1.65a.56.56,0,0,0,0-.73c-.19-.18-.37-.18-.74,0L18.18,26.8a.53.53,0,0,0,0,.92l3.67,2.94c.13.13.35.07.53,0l.21,0a.67.67,0,0,0,.18-.37.59.59,0,0,0-.18-.37Z"/><rect x="25.71" y="26.25" width="4.59" height="2.02"/><path d="M37.82,26.62l-3.67-2.75a.57.57,0,0,0-.74,0,.56.56,0,0,0,0,.73l1.1,1.47H31.76v2.2h2.75l-1.1,1.47a.57.57,0,0,0-.18.37c0,.18,0,.36.18.36a.55.55,0,0,0,.74,0l3.67-2.93A.53.53,0,0,0,37.82,26.62Z"/><path d="M20.2,36v.55h.92v3.3H22v-4h-.37A3.92,3.92,0,0,0,20.2,36Z"/><path d="M23.87,38.55a.81.81,0,0,0-.6.39l-.13.16c0,.36.18.55.37.55l-.37,1.1h.37a2.28,2.28,0,0,0,.91-1.47C24.42,38.73,24.24,38.55,23.87,38.55Z"/><path d="M26.81,37.26h-.37v-.73h1.65v-.92H25.71v2.2h.73c.55,0,.92.19.92.55,0,.55-.37.74-1.29.74h-.55v.73h.55c1.47,0,2.21-.55,2.21-1.47C28.28,37.63,27.91,37.26,26.81,37.26Z"/><polygon points="33.41 35.79 32.68 38.18 31.95 35.79 30.48 35.79 30.29 39.83 31.21 39.83 31.21 36.71 32.13 39.1 33.23 39.1 33.96 36.71 34.15 39.83 35.06 39.83 34.88 35.79 33.41 35.79"/><path d="M36.84,38.3a.42.42,0,0,0-.34.13.49.49,0,0,0,0,.62.45.45,0,0,0,.34.12.46.46,0,0,0,.35-.12.49.49,0,0,0,0-.62A.43.43,0,0,0,36.84,38.3Z"/></g></svg>