<svg xmlns="http://www.w3.org/2000/svg" viewBox="0 0 56 56"><g id="basisregels_mondkapje"><path d="M43.32,42.57a11.93,11.93,0,0,0-4.07-2.36c-1.28-.64-4.5-1.93-4.93-2.14,0-.64-.21-1.29-.21-1.93,1.07-.86,1.93-1.71,3.43-3,.43-.21.43-.64.21-1.07L37.32,31a8.79,8.79,0,0,1,.22-1.07v-.65a6.35,6.35,0,0,0,1.07-3.85,4.31,4.31,0,0,0-.86-3A9.44,9.44,0,0,0,31.11,11.5a3.54,3.54,0,0,0-2.36-.86c0-.22.21-.22.43-.22a10.41,10.41,0,0,1,3.64.22,9.42,9.42,0,0,0,.64-2.36,4,4,0,0,0-4.07-3.86,5,5,0,0,0-3.64,2.15c-1.29,1.71-2.14.64-1.29-.65,0,0-2.57.22-2.57,2.36,0,1.5,1.5,2.79,2.36,3.22A9.58,9.58,0,0,0,18,22.21a5,5,0,0,0-.85,3,7.43,7.43,0,0,0,1.07,3.86v.64a9.16,9.16,0,0,0,.21,1.07l-.21,1.07a1,1,0,0,0,.21,1.08c1.5,1.28,2.36,2.14,3.43,3,0,.64-.21,1.28-.21,1.92-.22,0-4.5,1.93-4.93,2.15a11.77,11.77,0,0,0-4.07,2.36c-1.5,1.71-2.57,6.64-3,9.21H46.32C45.89,49,44.82,44.07,43.32,42.57ZM19.53,25.21c0-.43,0-1.5.43-1.71a2,2,0,0,1,1.08.21,13.46,13.46,0,0,1,.64-4.29,10.09,10.09,0,0,1,6.43-2.57,9.67,9.67,0,0,1,6.43,2.57v.43a3.72,3.72,0,0,1,.21,1.5A11.83,11.83,0,0,1,35,23.71,1,1,0,0,1,36,23.5c.43.21.43.64.43,1.71v.64c-3,0-4.72-.21-5.36-.64-.86-.64-1.5-1.71-3.22-1.71-1.5,0-2.35,1.07-3.21,1.71-.43.43-2.14.64-5.15.64Zm.65,6.86a1.49,1.49,0,0,1,.43-.64l4.5,1.28a.3.3,0,0,0,0-.43L20.39,29.5c0-.65-.21-1.07-.21-1.72,3.86,0,5.14-.43,6-1.07.86-.86,1.07-1.28,1.71-1.28.86,0,1.07.42,1.93,1.28.86.64,2.14,1.07,6,1.07a4.27,4.27,0,0,1-.21,1.72l-4.5,2.78c-.22.22-.22.22,0,.43l4.5-1.28c0,.21.21.21.21.64-.86.64-1.28,1.28-1.93,1.71a7.43,7.43,0,0,1-5.78,2.36c-2.57,0-3.65-.64-5.57-2.14C21.89,33.57,21,32.71,20.18,32.07Zm7.71,14.14s-7.28-.21-9-4.5c2.79-1.28,4.72-1.71,4.93-3A2.28,2.28,0,0,1,24,37.64a10.16,10.16,0,0,0,3.85.86,6.89,6.89,0,0,0,3.86-.86v1.07c.21,1.5,2.14,1.93,4.93,3C35.39,46,27.89,46.21,27.89,46.21Z"/></g></svg>