<svg xmlns="http://www.w3.org/2000/svg" viewBox="0 0 56 56"><g id="basisregels_handenwassen"><path d="M17.85,11.48a2.22,2.22,0,0,0,2.24-2.62,5.2,5.2,0,0,0-.94-2A8.32,8.32,0,0,1,18,4.62a.19.19,0,0,0-.19-.2c-.09,0-.14,0-.16,0s0,.07,0,.17a10.59,10.59,0,0,1-1.08,2,4.93,4.93,0,0,0-1,2.09A2.3,2.3,0,0,0,17.85,11.48Z"/><path d="M16.55,16.52a6.31,6.31,0,0,0-.92-1.81,8.08,8.08,0,0,1-1.13-2.22.19.19,0,0,0-.19-.2c-.09,0-.14,0-.16,0s0,.07,0,.18a10.58,10.58,0,0,1-1.2,2.09,6,6,0,0,0-1,1.94,2.31,2.31,0,0,0,2.23,2.62A2.46,2.46,0,0,0,16.55,16.52Z"/><path d="M19.16,16.52a2.31,2.31,0,0,0,2.23,2.62,2.22,2.22,0,0,0,2.24-2.62,4.89,4.89,0,0,0-.85-2,8.68,8.68,0,0,1-1-2.07.18.18,0,0,0-.18-.2c-.19-.21-.37,0-.37.2a7.61,7.61,0,0,1-1.13,2.11A4.33,4.33,0,0,0,19.16,16.52Z"/><path d="M43.2,29.42c.64-6.45-4.56-9.13-8.27-11-.59-.3-1.13-.58-1.61-.85a48.26,48.26,0,0,1-4.47-3.15l-.38-.28c-.74-.61-1.3-.61-1.67-.2-.38.6-.38,1.61.56,2.82A20.28,20.28,0,0,0,31.08,20a1.13,1.13,0,0,1-.37,2H16.92a1.65,1.65,0,0,0,0,3.23h1.3a2.51,2.51,0,0,1,1.87-1A2.71,2.71,0,0,1,22,25a5,5,0,0,1,2.42-.81,3.9,3.9,0,0,1,3.73,4v.4a1.58,1.58,0,0,1,.93-.2,1.34,1.34,0,0,1,.94.2,2.68,2.68,0,0,1-.19-1.21,3.55,3.55,0,1,1,7.08,0v.41a4.78,4.78,0,0,1,2.43,4,6.1,6.1,0,0,1-.75,2.62c-.26-.47-.57-.9-.85-1.31a8.09,8.09,0,0,1-.83-1.31,45.36,45.36,0,0,1-2.79-5.44c-.38-.81-.94-1.21-1.49-.81-.56.2-.94,1.21-.56,2.62a15.17,15.17,0,0,0,2,4.84c.56.81-.38,2-1.12,1.41-.84-.4-1.31-.66-1.77-.91s-.93-.5-1.77-.9l-8.76-4.84a1.33,1.33,0,0,0-1.87.8,1.64,1.64,0,0,0,.56,2s8.76,4.84,8.76,5c.19,0,.19.2.19.4s-.19.61-.56.61a.54.54,0,0,1-.37-.2L16.92,31a1.33,1.33,0,0,0-1.87.81,1.65,1.65,0,0,0,.56,2L25.87,39.5a.83.83,0,0,1,.37.81c-.19.2-.37.4-.75.2l-8.94-4.84a1.33,1.33,0,0,0-1.87.81,1.63,1.63,0,0,0,.56,2l9.69,5.44a.58.58,0,0,1,.38.61c0,.2-.38.4-.56.2l-6.53-3.43a1.33,1.33,0,0,0-1.11,2.42s6,3.43,7.82,4.44a27.37,27.37,0,0,0,8,3.22c3,.41,5-.2,7.45-3.83,2.61-4.23.94-8.06-.93-11.29C41.52,34.86,42.64,33.25,43.2,29.42Z"/></g></svg>