<svg xmlns="http://www.w3.org/2000/svg" viewBox="0 0 56 56"><g id="basisregels_drukte"><path d="M8.25,4.42,6.47,6.21l6.78,6.9c-1.16.44-2.08,1-2.08,1.36s.71.57,1.43.69a1.41,1.41,0,0,0,0,.41c0,2,1,3,2.79,3a2.66,2.66,0,0,0,1.3-.28,2.62,2.62,0,0,0,1-.88l3.66,3.72C18.39,23.32,18.77,29.92,19,34v.1a2.43,2.43,0,0,0,.68,1.83,2.46,2.46,0,0,0,.81.58,2.73,2.73,0,0,0,1,.21v-5.5A20.08,20.08,0,0,1,22.17,25a.21.21,0,0,1,.3-.21V51.56a3.45,3.45,0,0,0,1.35-.15A3.64,3.64,0,0,0,25,50.74a3.48,3.48,0,0,0,.82-1.08,3.53,3.53,0,0,0,.34-1.31l.5-11.9a.38.38,0,0,1,.36-.33.34.34,0,0,1,.14,0,.37.37,0,0,1,.12.07.24.24,0,0,1,.09.11.5.5,0,0,1,0,.13l.5,11.9a3.35,3.35,0,0,0,.34,1.31,3.48,3.48,0,0,0,.82,1.08,3.54,3.54,0,0,0,1.18.67,3.41,3.41,0,0,0,1.35.15V31.22l.86.86v4.64a2.49,2.49,0,0,0,1.64-.65,2.46,2.46,0,0,0,.77-1.58l.86.89A3.56,3.56,0,0,1,35,36.65a3.51,3.51,0,0,1-1.21.84v1.19a14.1,14.1,0,0,0,2,.21v9.9a2.92,2.92,0,0,0,1.62-.88,3,3,0,0,0,.79-1.68s.21-4.93.3-7.46h.32l.3.27c0,2.56.27,7.19.27,7.19a3,3,0,0,0,.77,1.71,3,3,0,0,0,1.64.91v-7l7.73,7.71,1.78-1.79Z"/><path d="M21.31,12.24a2.18,2.18,0,0,0,1-.21,2.42,2.42,0,0,0,.84-.61,2.51,2.51,0,0,0,.59-1.94c0-1.87-.92-3-2.44-3s-2.47,1.19-2.47,3S19.73,12.24,21.31,12.24Z"/><path d="M23.83,16.43a2.92,2.92,0,0,0,.66,1.16,3,3,0,0,0,1.09.76,3.12,3.12,0,0,0,1.32.2,2.92,2.92,0,0,0,2.43-.95A2.94,2.94,0,0,0,30,16.44a5.13,5.13,0,0,0,.16-1.34c0-2.12-1.3-3.57-3.26-3.57a3.17,3.17,0,0,0-1.32.26,3.27,3.27,0,0,0-1.08.8,3.07,3.07,0,0,0-.65,1.17,5.2,5.2,0,0,0-.18,1.32A4.14,4.14,0,0,0,23.83,16.43Z"/><path d="M32.52,12.24a2.45,2.45,0,0,0,1.87-.81A2.48,2.48,0,0,0,35,9.48c0-1.87-1-3-2.47-3s-2.44,1.19-2.44,3S31.09,12.24,32.52,12.24Z"/><path d="M36.33,17.75a2.81,2.81,0,0,0,1,.64,3,3,0,0,0,1.18.16,2.65,2.65,0,0,0,2.79-3c0-1.84-1-3.21-2.79-3.21s-3,1.1-3,3.21a2.8,2.8,0,0,0,.17,1.18A2.67,2.67,0,0,0,36.33,17.75Z"/><path d="M17.89,33.69c-.18-4-.47-10.27,2.17-13a3.25,3.25,0,0,0-.86-.3,17.57,17.57,0,0,0-8,0A3.83,3.83,0,0,0,8.82,22.5C7.51,25.27,4.66,33.74,4.66,33.74a1.19,1.19,0,0,0,.83,0c.06.66.17,1.81.31,3.2h0C6.23,41.39,6.9,48.23,7,48.61s1.42.27,1.36-.18c0-.23-.25-3.4-.49-6.9-.23-3.25-.48-6.79-.61-8.47a2.44,2.44,0,0,0,.63-.83c.56-1.34,1.19-2.83,1.57-4s.9-2.55,1.34-3.54c0-.17.18-.32.27-.23V48.79a3,3,0,0,0,3-3s.48-10.8.48-10.92a.28.28,0,0,1,0-.12.25.25,0,0,1,.08-.1.24.24,0,0,1,.11-.06.28.28,0,0,1,.13,0,.35.35,0,0,1,.22.08.3.3,0,0,1,.1.21l.66,10.92A2.76,2.76,0,0,0,16,47a2.81,2.81,0,0,0,1.63,1.63,2.76,2.76,0,0,0,1.17.17V36.6a4,4,0,0,1-.86-2.35Z"/><path d="M35.76,20.27a3.76,3.76,0,0,0-1.69,1,8.15,8.15,0,0,1,1.1,2.35,16.67,16.67,0,0,1,.89,4.85l8,8a26.27,26.27,0,0,0-1.76-6.81,5.77,5.77,0,0,1,0-2.74,5.69,5.69,0,0,0,0-3.27,3.64,3.64,0,0,1,.3.63,80.6,80.6,0,0,0,2.26,10.05c.83,0,1.87-1.13,1.52-3-.15-.77-.34-1.5-.52-2.21a20.73,20.73,0,0,1-.61-2.91c-.42-3.51-1.49-5.2-3.51-5.95a10.28,10.28,0,0,0-6,0Z"/><path d="M31.21,20.48a16,16,0,0,0-3.72-.5l7.41,7.4C34.63,24.14,33.74,21.17,31.21,20.48Z"/></g></svg>