<svg xmlns="http://www.w3.org/2000/svg" viewBox="0 0 56 56" fill="currentColor"><g id="basisregels_geen_bezoek"><path d="M23.13,12.35c2.34,0,3.51-1.58,3.51-4,0-2.78-1.56-4-3.51-4-2.34,0-3.51,1.58-3.51,4C19.62,11.16,21.18,12.35,23.13,12.35Z"/><path d="M36.39,12.35c2,0,3.12-1.19,3.12-3.57,0-2-1.17-3.56-3.12-3.56s-3.12,1.19-3.12,3.56S34.44,12.35,36.39,12.35Z"/><path d="M28.59,19.88c.78,2,.78,4.36.78,7.13v3.17l2.34,2.38a3.06,3.06,0,0,0,.78-2c.39-5.16.78-14.27-3.9-15.85a20.33,20.33,0,0,0-9.75,0c-1.56.39-2.34.79-2.73,1.58L28.59,29Z"/><path d="M33.27,30.58a3.63,3.63,0,0,1-1.17,2.77l3.9,4a47.89,47.89,0,0,1,.39-5.94.39.39,0,0,1,.39-.4c.39,0,.39,0,.39.4,0,0,0,3.56.39,7.13l3.51,3.57V19.48a.39.39,0,0,1,.39.4A21.23,21.23,0,0,1,41.85,25v7.13a3.21,3.21,0,0,0,2.72-2.77c.39-4.36.78-13.08-3.89-14.27a17.27,17.27,0,0,0-9,0,1.35,1.35,0,0,0-.78.4C34.05,18.29,33.66,25.82,33.27,30.58Z"/><path d="M7.92,11.16,5.58,13.54l8.58,8.72a31.87,31.87,0,0,0-.08,5.86c0,.87.08,1.7.08,2.46,0,2.37,1.56,3.16,2.73,3.16V25.42l.78.8V51.57A3.94,3.94,0,0,0,22,48s.39-14.27.78-14.66a.39.39,0,1,1,.78,0L24.3,48c0,2.38,1.95,3.56,4.29,3.56v-15l3.9,4V48A3.3,3.3,0,0,0,36,44.44v-.39l7.41,7.52,2.33-2Z"/></g></svg>