<svg focusable="false" viewBox="0 0 36 36" fill="currentColor" xmlns="http://www.w3.org/2000/svg">
<path d="M14.1341 7.12199C14.3273 7.85366 13.6508 8.48081 12.9743 8.48081C12.2978 8.48081 11.6213 7.85366 11.8146 7.01746C11.8689 6.60659 12.0755 6.2946 12.3148 5.93342C12.5015 5.65141 12.7082 5.33942 12.8777 4.92697C12.8777 4.87334 12.8777 4.84723 12.8907 4.83451C12.9031 4.82244 12.9273 4.82244 12.9743 4.82244C12.9743 4.82244 13.071 4.82244 13.071 4.92697C13.2097 5.37695 13.4368 5.73128 13.6466 6.05857C13.8754 6.41551 14.0836 6.74031 14.1341 7.12199Z" fill="currentColor"/>
<path d="M11.8228 10.158C12.0205 10.4597 12.2044 10.7402 12.2978 11.0939C12.3945 11.8256 11.718 12.4528 11.0415 12.4528C10.365 12.4528 9.78509 11.8256 9.88173 11.0939C9.98239 10.7129 10.1879 10.4169 10.4163 10.0879C10.6265 9.78509 10.8562 9.45428 11.0415 9.00344C11.0415 8.94981 11.0415 8.9237 11.0545 8.91098C11.0669 8.89891 11.091 8.89891 11.1381 8.89891C11.1381 8.89891 11.2347 8.89891 11.2347 9.00344C11.3845 9.48931 11.6116 9.83577 11.8228 10.158Z" fill="currentColor"/>
<path d="M14.8106 12.4528C15.4871 12.4528 16.1636 11.8256 15.9703 11.0939C15.9196 10.7099 15.7357 10.4122 15.5306 10.0801C15.3448 9.77938 15.1416 9.4504 15.0039 9.00344C15.0039 8.89891 14.9072 8.89891 14.9072 8.89891C14.8106 8.79439 14.7139 8.89891 14.7139 9.00344C14.5735 9.45914 14.3423 9.79221 14.1303 10.0977C13.9047 10.4228 13.7007 10.7167 13.6509 11.0939C13.5542 11.8256 14.1341 12.4528 14.8106 12.4528Z" fill="currentColor"/>
<path d="M21.828 12.0586C23.7521 13.0493 26.4522 14.4397 26.118 17.7835C25.828 19.7695 25.2482 20.6057 24.1851 21.3374C25.1515 23.0098 26.0213 24.9957 24.6683 27.1908C23.4119 29.0722 22.3489 29.3858 20.8026 29.1767C19.2562 28.8632 17.7099 28.1315 16.6469 27.5043C15.6804 26.9817 12.5878 25.2048 12.5878 25.2048C12.2979 24.9957 12.1046 24.5776 12.2979 24.2641C12.4912 23.9505 12.8777 23.846 13.1677 23.9505L16.5502 25.7274C16.6469 25.8319 16.8401 25.7274 16.8401 25.6229C16.8401 25.5184 16.8401 25.4138 16.6469 25.3093L11.6214 22.4871C11.3314 22.2781 11.1381 21.86 11.3314 21.4419C11.5247 21.0238 11.9113 20.8148 12.2979 21.0238L16.9368 23.5324C17.1301 23.6369 17.2267 23.5324 17.3234 23.4279C17.3234 23.3233 17.3234 23.1143 17.1301 23.0098C16.9368 22.9052 11.8147 20.0831 11.8147 20.0831C11.5247 19.874 11.3314 19.4559 11.5247 19.0378C11.718 18.6197 12.1046 18.4107 12.4912 18.6197L17.9032 21.4419C17.9999 21.5464 18.0965 21.5464 18.0965 21.5464C18.2898 21.5464 18.3865 21.3374 18.3865 21.2329C18.3865 21.1283 18.3865 21.0238 18.2898 21.0238C18.2898 20.9193 13.7475 18.4107 13.7475 18.4107C13.4576 18.2016 13.2643 17.7835 13.4576 17.3654C13.6509 16.9473 14.0375 16.7383 14.424 16.9473L18.9663 19.4559C19.4012 19.665 19.6428 19.7956 19.8844 19.9263C20.126 20.0569 20.3677 20.1876 20.8026 20.3966C21.1891 20.7102 21.6724 20.0831 21.3824 19.665C20.8026 18.7243 20.5126 17.9926 20.3193 17.1564C20.126 16.4247 20.3193 15.9021 20.6093 15.7976C20.8992 15.5885 21.1891 15.7976 21.3824 16.2157C21.8656 17.3654 22.3489 18.2016 22.8321 19.0378C22.9347 19.2599 23.0919 19.482 23.2602 19.7197C23.4088 19.9295 23.5659 20.1516 23.7019 20.3966C23.8952 19.9786 24.0885 19.5605 24.0885 19.0378C24.0885 18.0971 23.5086 17.3654 22.8321 16.9473V16.7383C22.8321 15.693 22.0589 14.7523 20.9958 14.7523C20.0294 14.7523 19.1596 15.5885 19.1596 16.7383C19.1596 16.9473 19.1596 17.1564 19.2562 17.3654C19.1596 17.2609 18.9663 17.2609 18.773 17.2609C18.5797 17.2609 18.4831 17.2609 18.2898 17.3654V17.1564C18.2898 16.0066 17.42 15.0659 16.3569 15.0659C15.8737 15.0659 15.4871 15.2749 15.1006 15.484C14.9073 15.2749 14.5207 15.0659 14.1341 15.0659C13.7475 15.0659 13.4576 15.2749 13.1677 15.5885H12.4912C12.1046 15.484 11.8147 15.1704 11.8147 14.7523C11.8147 14.3342 12.1046 14.0206 12.4912 13.9161H19.6428C20.126 13.8116 20.2227 13.1844 19.8361 12.8709C19.063 12.3482 18.4831 11.8256 17.9032 11.1985C17.42 10.5713 17.42 10.0487 17.6133 9.73511C17.8066 9.52606 18.0965 9.52606 18.4831 9.83964C18.5487 9.88931 18.613 9.93802 18.6761 9.98584C19.5423 10.6423 20.1851 11.1294 20.9958 11.6166C21.2445 11.7581 21.5267 11.9034 21.828 12.0586Z" fill="currentColor"/>
</svg>
