<svg focusable="false" viewBox="0 0 36 36" fill="currentColor" xmlns="http://www.w3.org/2000/svg">
<path d="M8.29955 6.41896L7.423 7.29551L10.7539 10.6848C10.1841 10.904 9.73124 11.1669 9.73124 11.3568C9.73124 11.5468 10.0819 11.6344 10.4325 11.6929C10.4246 11.7608 10.4246 11.8294 10.4325 11.8974C10.4325 12.8616 10.9292 13.3583 11.8057 13.3583C12.0264 13.368 12.2458 13.3206 12.4428 13.2208C12.6399 13.121 12.8079 12.9721 12.9306 12.7885L14.7276 14.6147C13.2785 15.7015 13.468 18.9445 13.5852 20.9501L13.5881 20.9989C13.5802 21.1637 13.6056 21.3283 13.6628 21.4831C13.7201 21.6378 13.8079 21.7794 13.9211 21.8994C14.0343 22.0194 14.1705 22.1154 14.3216 22.1815C14.4727 22.2477 14.6357 22.2827 14.8006 22.2845V19.5818C14.7536 18.5528 14.867 17.5227 15.1366 16.5285C15.1366 16.4116 15.2535 16.397 15.2827 16.4262V29.5744C15.5062 29.5944 15.7314 29.569 15.9448 29.4997C16.1582 29.4305 16.3554 29.3188 16.5246 29.1715C16.6938 29.0241 16.8315 28.8441 16.9294 28.6422C17.0272 28.4403 17.0833 28.2208 17.0942 27.9967L17.3426 22.153C17.3463 22.1091 17.3664 22.0682 17.3988 22.0384C17.4313 22.0086 17.4738 21.9921 17.5179 21.9923C17.5409 21.9903 17.5642 21.9929 17.5862 21.9999C17.6082 22.0069 17.6287 22.0182 17.6463 22.0331C17.664 22.0481 17.6785 22.0663 17.689 22.0869C17.6996 22.1075 17.706 22.13 17.7078 22.153L17.9562 27.9967C17.9671 28.2208 18.0232 28.4403 18.1211 28.6422C18.219 28.8441 18.3566 29.0241 18.5258 29.1715C18.695 29.3188 18.8922 29.4305 19.1056 29.4997C19.319 29.569 19.5442 29.5944 19.7677 29.5744V19.5818L20.1914 20.0055V22.2845C20.4896 22.2819 20.7762 22.1682 20.995 21.9656C21.2139 21.763 21.3493 21.486 21.3747 21.1888L21.7984 21.6271C21.7211 21.8588 21.5951 22.0713 21.4288 22.2503C21.2624 22.4292 21.0597 22.5704 20.8342 22.6643V23.2487C21.1671 23.3087 21.5041 23.3429 21.8422 23.351V28.2158C22.1473 28.1592 22.4265 28.0069 22.6393 27.781C22.852 27.5551 22.9873 27.2674 23.0256 26.9594C23.0256 26.9594 23.1278 24.5343 23.1716 23.2925H23.3323L23.4784 23.424C23.4784 24.6804 23.6099 26.9594 23.6099 26.9594C23.6423 27.2726 23.775 27.567 23.9882 27.7986C24.2014 28.0303 24.4838 28.1869 24.7933 28.245V24.7973L28.5916 28.581L29.4682 27.7045L8.29955 6.41896Z" fill="currentColor"/>
<path d="M15.2118 10.1573C15.0549 10.2273 14.8848 10.2627 14.713 10.2612C13.9387 10.2612 13.5004 9.77906 13.5004 8.90251C13.5004 8.02596 13.9679 7.4416 14.713 7.4416C15.458 7.4416 15.9109 7.98213 15.9109 8.90251C15.934 9.07276 15.9201 9.24599 15.8703 9.41042C15.8205 9.57486 15.736 9.72666 15.6223 9.85553C15.5087 9.9844 15.3687 10.0873 15.2118 10.1573Z" fill="currentColor"/>
<path d="M18.1112 13.264C17.904 13.3446 17.6811 13.3769 17.4595 13.3583C17.2391 13.3745 17.0179 13.3405 16.8125 13.2588C16.6072 13.1772 16.423 13.05 16.2739 12.8868C16.1248 12.7237 16.0147 12.5288 15.9518 12.3169C15.889 12.1051 15.875 11.8817 15.9109 11.6636C15.8791 11.4434 15.8956 11.2188 15.9592 11.0056C16.0228 10.7923 16.1321 10.5955 16.2794 10.4287C16.4268 10.2619 16.6086 10.1291 16.8124 10.0397C17.0162 9.9502 17.237 9.90614 17.4595 9.91054C18.4237 9.91054 19.0227 10.5241 19.0227 11.6636C19.059 11.883 19.0448 12.1078 18.9812 12.3208C18.9175 12.5339 18.806 12.7296 18.6553 12.893C18.5045 13.0565 18.3184 13.1833 18.1112 13.264Z" fill="currentColor"/>
<path d="M20.2206 10.2612C20.3936 10.2648 20.5654 10.231 20.7241 10.1619C20.8828 10.0929 21.0246 9.99026 21.1398 9.86114C21.2551 9.73203 21.341 9.57947 21.3916 9.41398C21.4422 9.2485 21.4564 9.074 21.4332 8.90251C21.4332 7.98213 20.9657 7.4416 20.2206 7.4416C19.4755 7.4416 19.0227 8.02596 19.0227 8.90251C19.0227 9.77906 19.5194 10.2612 20.2206 10.2612Z" fill="currentColor"/>
<path d="M24.5303 11.8974C24.5303 12.8032 24.0336 13.3583 23.1571 13.3583C22.9613 13.3737 22.7645 13.3464 22.5803 13.2785C22.3961 13.2105 22.2288 13.1034 22.0899 12.9645C21.951 12.8257 21.8439 12.6584 21.776 12.4742C21.708 12.2899 21.6808 12.0932 21.6961 11.8974C21.6961 10.8601 22.2659 10.3196 23.1571 10.3196C24.0482 10.3196 24.5303 10.9916 24.5303 11.8974Z" fill="currentColor"/>
<path d="M14.0994 14.4248C13.9658 14.3563 13.8231 14.3072 13.6757 14.2787C12.3788 13.9716 11.0282 13.9716 9.73126 14.2787C9.47681 14.3564 9.24206 14.488 9.04293 14.6644C8.8438 14.8409 8.68494 15.0581 8.57714 15.3013C7.93434 16.66 6.53186 20.8236 6.53186 20.8236C6.66399 20.8716 6.80879 20.8716 6.94092 20.8236C6.97221 21.1435 7.0275 21.7108 7.09399 22.393L7.09419 22.395C7.30706 24.5792 7.63451 27.939 7.65676 28.1281C7.68598 28.3765 8.358 28.2596 8.32878 28.0405C8.31367 27.9271 8.20469 26.3668 8.08482 24.6504C7.97301 23.0494 7.8517 21.3125 7.78825 20.4876C7.91981 20.3759 8.02464 20.2361 8.09504 20.0785C8.37261 19.4211 8.6794 18.6906 8.86932 18.1209C9.05924 17.5511 9.3076 16.8645 9.52673 16.3824C9.52673 16.2947 9.61439 16.2217 9.65822 16.2655V28.2158C10.0457 28.2158 10.4173 28.0619 10.6912 27.7879C10.9652 27.5139 11.1191 27.1423 11.1191 26.7549C11.1191 26.7549 11.3529 21.4518 11.3529 21.3933C11.3547 21.3722 11.3607 21.3516 11.3705 21.3328C11.3804 21.314 11.3938 21.2973 11.4101 21.2838C11.4264 21.2702 11.4452 21.26 11.4655 21.2537C11.4858 21.2474 11.5071 21.2452 11.5282 21.2472C11.5684 21.2471 11.6072 21.262 11.6369 21.289C11.6667 21.3161 11.6852 21.3533 11.6889 21.3933L12.0103 26.7549C11.9974 26.9501 12.0263 27.1458 12.0952 27.3289C12.164 27.512 12.2712 27.6782 12.4095 27.8166C12.5478 27.9549 12.7141 28.0621 12.8972 28.1309C13.0803 28.1998 13.276 28.2287 13.4712 28.2158V22.226C13.2097 21.8968 13.0612 21.4921 13.0475 21.0719C13.0436 20.9824 13.0393 20.8902 13.0349 20.7955C12.9432 18.8052 12.8024 15.7496 14.0994 14.4248Z" fill="currentColor"/>
<path d="M21.6377 15.9441V15.8565H21.5208C21.4064 15.4443 21.2237 15.0541 20.9803 14.7023C21.2085 14.4653 21.496 14.2938 21.813 14.2056C22.2848 14.0536 22.7783 13.9796 23.2739 13.9865C23.7696 13.9796 24.263 14.0536 24.7348 14.2056C25.7283 14.5709 26.2542 15.4036 26.4587 17.1275C26.5101 17.5894 26.6315 18.0614 26.7586 18.5551C26.8485 18.9045 26.9412 19.2649 27.0139 19.6402C27.1892 20.546 26.6779 21.1011 26.2688 21.1011C25.7934 19.4806 25.4225 17.8313 25.1585 16.1633C25.1183 16.0571 25.0695 15.9545 25.0124 15.8565C25.1675 16.3809 25.1675 16.939 25.0124 17.4635C24.9029 17.9048 24.9029 18.3662 25.0124 18.8075C25.4474 19.8793 25.7373 21.0044 25.8744 22.153L21.9591 18.2378C21.9515 17.4625 21.8435 16.6916 21.6377 15.9441Z" fill="currentColor"/>
<path d="M19.5778 14.3079C20.8196 14.6439 21.2579 16.1048 21.3893 17.6972L17.7517 14.0595C18.3681 14.0696 18.9811 14.153 19.5778 14.3079Z" fill="currentColor"/>
</svg>
