<svg xmlns="http://www.w3.org/2000/svg" viewBox="0 0 56 56" fill="currentColor"><g id="basisregels_elleboog"><path d="M33.23,19.23a1,1,0,0,0-.66-.14.92.92,0,0,0-.58.32.93.93,0,0,0-.15.65,1,1,0,0,0,.33.59l.62.53h-1a.8.8,0,0,0-.8,1,.88.88,0,0,0,.89.8H32l3.36-.26a.93.93,0,0,0,.51-.18.88.88,0,0,0,.29-.44.86.86,0,0,0,0-.55.93.93,0,0,0-.33-.43l-2.57-1.86Z"/><path d="M49.62,28.18C49,26,47.05,24.9,44.92,24.64c2.22-4.08,7.54-14.89.62-16-2.21-2.48-3.63-4.34-9.12-4.17-5.14.18-11.08.27-13.38,8.78-1.06,4-.44,6,.18,10.36-2.31-1.06-4.52-2.12-5.94-2.74L17,20a5.83,5.83,0,0,0-1.51-2.57A3.37,3.37,0,0,0,13,16.84,3.8,3.8,0,0,0,9.75,16,4.27,4.27,0,0,0,7,18.35c-2.12,4.43-.44,6.64,1.33,7.7A10,10,0,0,0,13,27.47c2.21,2,12.67,10.9,15.68,11.78,2.13.62,7.35-.17,11.78-1.32.09.17-.08.35-.35.44-4,1.86-9.66,3.19-12.23,2.48-1.77-.53-6.2-3.81-10.19-7a15.64,15.64,0,0,0-4.6,2.75c-2.4,2.74-3.73,15-3.73,15h35.8S46,40.94,49,34.2c.8-1.86,1.42-3.45.62-6ZM13.2,25.7a8.2,8.2,0,0,1-4-1.15c-1.06-.62-2.31-1.95-.62-5.41a2.1,2.1,0,0,1,1.59-1.42,2.56,2.56,0,0,1,2,.8l.35.36.54-.18a1.52,1.52,0,0,1,1.33.18,4.53,4.53,0,0,1,1,1.86c0,.09.09.17.09.26l-2.3,4.7Zm12.5-1a8.5,8.5,0,0,1,.53-3.27,3.36,3.36,0,0,1-1.06-4.08c.44-1.06,1.5-2,2.83-.88-.09.62-.18,1-.18,1.15-.08.79,1.07,1.06,1.07,1.06l1.86-4.78c1.77.53,8.86,1.94,13.38,1.59l.44,4.16a20.49,20.49,0,0,1-1.24,2.48c-.8.09-1.86.27-2.21.36a1,1,0,0,0-.46.25,1,1,0,0,0-.25.46.79.79,0,0,0,0,.5.77.77,0,0,0,.31.38l1,.62a61.45,61.45,0,0,0-10,2.75c-1.59-.62-3.81-1.68-6-2.75Z"/></g></svg>