<svg xmlns="http://www.w3.org/2000/svg" viewBox="0 0 56 56"><g id="bevolking"><path d="M29,17c1.91,0,3-1.49,3-3.63,0-2.43-1.16-3.74-3-3.74s-3,1.54-3,3.74S27.07,17,29,17Z"/><path d="M47.63,30.35c-.41-2.39-.91-3.71-1.09-5.37-.41-3.69-1.44-5.46-3.35-6.11a8.63,8.63,0,0,0-2.76-.45h0a8.29,8.29,0,0,0-2.77.45A3.72,3.72,0,0,0,36,19.94a8.87,8.87,0,0,1,1.06,2.46l.06-.13,0,.2c.9,3.32.65,7.7.47,10.82a3.85,3.85,0,0,1-2.12,3.56c0,.39,0,.79,0,1.23a12.44,12.44,0,0,0,2,.23l.14,10.32A2.87,2.87,0,0,0,39.83,46s.18-5.19.26-7.83l.33-.06.29-.05c.08,2.59.27,7.87.27,7.87a2.86,2.86,0,0,0,2.31,2.75L43.43,38c1,.11,2,.29,2,.29,0-5.64-1.36-7.89-1.79-9.66a6.28,6.28,0,0,1,0-2.86,6.62,6.62,0,0,0,.05-3.46,5.1,5.1,0,0,1,.29.66c.45,1.43.32,4.19,2.17,10.56C47,33.37,48,32.31,47.63,30.35Z"/><path d="M34.36,10.32c1.49,0,2.35-1.19,2.35-2.9,0-1.95-.9-3-2.35-3S32,5.66,32,7.42,32.87,10.32,34.36,10.32Z"/><path d="M40.07,17h0c1.7,0,2.69-1.18,2.69-3.26s-.94-3.37-2.69-3.37-2.69,1.17-2.69,3.37C37.38,15.61,38.37,17,40.07,17Z"/><path d="M36.54,33.28c.26-4.67.75-13.07-3.43-14.3a15.6,15.6,0,0,0-8.25,0c-4.19,1.19-3.69,9.63-3.43,14.3C21.55,35.41,22.9,36,23.8,36V30.26a23.2,23.2,0,0,1,.54-6.46c.09-.26.22-.29.28-.22v28a3.35,3.35,0,0,0,3.52-3.39l.49-12.56a.36.36,0,0,1,.36-.34.37.37,0,0,1,.35.34l.49,12.57a3.35,3.35,0,0,0,3.52,3.38v-28c.09-.08.21-.06.28.22a28.57,28.57,0,0,1,.54,6.46V36C35.07,36,36.42,35.41,36.54,33.28Z"/><path d="M23.61,10.32c1.49,0,2.35-1.19,2.35-2.9,0-1.95-.9-3-2.35-3s-2.35,1.24-2.35,3S22.12,10.32,23.61,10.32Z"/><path d="M22.42,19.22h0a3.86,3.86,0,0,0-.72-.32,15.76,15.76,0,0,0-7.66,0,3.72,3.72,0,0,0-2.26,2.19c-1.27,2.9-4,11.8-4,11.8a1.08,1.08,0,0,0,.79.11C8.84,35.87,9.92,48.09,10,48.54s1.37.29,1.32-.17-.8-12.35-1-16.17a2.33,2.33,0,0,0,.61-.87c.53-1.39,1.11-3,1.5-4.18.51-1.56.84-2.69,1.27-3.7.09-.21.18-.35.27-.25V48.63c1.58,0,2.75-1.05,2.89-3.12l.46-11.45a.29.29,0,0,1,.1-.22.32.32,0,0,1,.55.22l.45,11.47c.11,2,1.12,3.1,2.92,3.1V35.82a4.41,4.41,0,0,1-.83-2.45C20.19,29.21,19.77,22.18,22.42,19.22Z"/><path d="M15.24,13.25c0,.14,0,.28,0,.44,0,2.08,1,3.26,2.69,3.26s2.69-1.34,2.69-3.26c0-1.13-.11-2.9-1.08-3.29a4.36,4.36,0,0,0-2.22.2h0c-1.66.46-3.39,1.38-3.4,2S14.57,13.12,15.24,13.25Z"/></g></svg>