<svg width="56" height="56" viewBox="0 0 56 56" fill="#000" xmlns="http://www.w3.org/2000/svg">
    <path d="M29.1495 16.4973C31.0602 16.4973 32.1643 15.0155 32.1643 12.8803C32.1643 10.4494 31.0091 9.1464 29.1495 9.1464C27.1876 9.1464 26.1328 10.6867 26.1328 12.8803C26.1328 15.1925 27.2387 16.4973 29.1495 16.4973V16.4973ZM47.7531 29.8743C47.3479 27.4799 46.8443 26.1714 46.6618 24.5089C46.2548 20.828 45.231 19.0596 43.3221 18.4154C42.4346 18.1122 41.5024 17.961 40.5646 17.9682H40.5281C39.5426 17.9682 38.6776 18.1088 37.7687 18.4154C37.1417 18.6212 36.5798 18.9881 36.1391 19.4793C36.5953 20.1819 36.9384 21.0141 37.1921 21.9321L37.2523 21.8098L37.2158 22.0087C38.11 25.3228 37.8673 29.6899 37.6903 32.7997C37.5844 34.7268 36.6537 35.8711 35.5697 36.351C35.5551 36.7434 35.5441 37.1467 35.5441 37.5792C35.5441 37.5792 36.411 37.7672 37.5279 37.8165L37.6684 48.1092C37.6684 48.1092 39.8218 47.7479 39.9678 45.4357C39.9678 45.4357 40.1503 40.2601 40.2343 37.6176C40.3438 37.5993 40.4533 37.5811 40.5628 37.5592L40.8493 37.5099C40.9332 40.0922 41.1175 45.37 41.1175 45.37C41.227 47.7516 43.4243 48.1074 43.4243 48.1074L43.5593 37.4661C44.5795 37.5719 45.5485 37.7544 45.5485 37.7544C45.5485 32.1263 44.1871 29.8797 43.7601 28.1168C43.5356 27.1788 43.5831 26.197 43.7875 25.259C43.9827 24.3775 44.2309 23.5544 43.8404 21.8098C43.8404 21.8098 44.0466 22.2058 44.1287 22.4613C44.585 23.8884 44.4517 26.6441 46.2968 32.9986C47.0998 32.8854 48.0852 31.8215 47.7531 29.8743V29.8743Z"/>
    <path d="M36.6852 32.7978C36.9461 28.1332 37.437 19.753 33.267 18.5212C30.8818 17.8168 27.7246 17.7547 25.0328 18.5212C20.8536 19.7111 21.3519 28.1332 21.6128 32.796C21.7333 34.9166 23.0819 35.517 23.9725 35.517V29.7794C23.9725 27.2244 24.0072 24.8118 24.5145 23.33C24.6021 23.0745 24.739 23.0434 24.7919 23.111V51.0474C26.657 51.0474 28.1443 49.9232 28.3031 47.6639L28.7959 35.1265C28.8013 34.9805 28.9291 34.787 29.1499 34.787C29.3689 34.787 29.4966 34.9787 29.5021 35.1283L29.9949 47.6658C30.1555 49.9324 31.6556 51.0474 33.5061 51.0474V23.1128C33.59 23.0325 33.7105 23.058 33.7835 23.33C34.1868 24.8355 34.3273 27.2463 34.3273 29.7794V35.517C35.2161 35.517 36.5665 34.9166 36.6852 32.7978V32.7978ZM23.7863 9.88184C25.2719 9.88184 26.1332 8.69562 26.1332 6.98746C26.1332 5.04388 25.2335 4 23.7863 4C22.2625 4 21.4395 5.23367 21.4395 6.98746C21.4395 8.83796 22.3008 9.88184 23.7863 9.88184V9.88184ZM34.5116 9.88184C35.9971 9.88184 36.8585 8.69562 36.8585 6.98746C36.8585 5.04388 35.9588 4 34.5116 4C32.9878 4 32.1647 5.23367 32.1647 6.98746C32.1647 8.83796 33.0261 9.88184 34.5116 9.88184V9.88184ZM40.211 16.4973C41.9082 16.4973 42.89 15.3239 42.89 13.2434C42.89 11.2688 41.952 9.88184 40.2091 9.88184C38.5557 9.88184 37.5265 11.0553 37.5265 13.2434C37.5265 15.1633 38.5119 16.4973 40.2091 16.4973H40.211Z"/>
    <path d="M22.5997 18.7657C22.374 18.6318 22.1333 18.5252 21.8825 18.4482C19.7655 17.8131 16.2725 17.8131 14.2359 18.4482C13.2212 18.7639 12.4584 19.5395 11.9821 20.629C10.7192 23.527 8 32.4 8 32.4C8.1679 32.5314 8.45989 32.5606 8.79203 32.5168C9.0457 35.3728 10.1279 47.5672 10.179 48.0216C10.2283 48.4468 11.5404 48.3063 11.4984 47.8483C11.4565 47.3701 10.6918 35.5243 10.4473 31.7156C10.7028 31.4729 10.9218 31.1827 11.0495 30.8433C11.5824 29.4563 12.1627 27.8814 12.5551 26.6769C13.0588 25.1184 13.3873 23.9906 13.8143 22.9869C13.9056 22.7715 13.9932 22.6401 14.0881 22.7332V48.1092C15.6666 48.1092 16.8291 47.0617 16.9751 44.9977L17.4277 33.5716C17.4315 33.4862 17.4682 33.4057 17.5302 33.3468C17.5921 33.2879 17.6744 33.2553 17.7599 33.2559C17.9734 33.2559 18.0738 33.4347 18.0792 33.5716L18.53 45.0177C18.6359 47.0106 19.6487 48.1092 21.4408 48.1092V35.3309C20.9882 34.7323 20.6762 33.9311 20.6159 32.8781C20.3787 28.73 19.9589 21.7222 22.6015 18.7676L22.5997 18.7657ZM15.4349 12.8036C15.4239 12.9496 15.4075 13.0901 15.4075 13.2416C15.4075 15.322 16.3912 16.4973 18.0902 16.4973C19.7874 16.4973 20.7692 15.1633 20.7692 13.2434C20.7692 12.1156 20.6597 10.3527 19.6925 9.96761C19.2582 9.79424 18.4023 9.90921 17.4788 10.1647C17.4715 10.1647 17.4661 10.1684 17.4588 10.1702C15.8017 10.6319 14.0789 11.5498 14.0698 12.1156C14.0625 12.6466 14.7615 12.6813 15.4349 12.8036V12.8036Z"/>
</svg>
