<svg xmlns="http://www.w3.org/2000/svg" viewBox="0 0 56 56"><g id="binnen_met_zitplaats"><path d="M28.64,5.73,51,26.86a1.91,1.91,0,0,1,.61,1.41v1.41a1,1,0,0,1-.95.95H46.86V50.51H9.14V30.63H5.37a1,1,0,0,1-1-.95V28.27A1.91,1.91,0,0,1,5,26.86L27.36,5.73A1,1,0,0,1,28.64,5.73ZM24.11,22.16a2.66,2.66,0,0,1-2.28,3.33A2.63,2.63,0,0,1,18.61,23c-.28-1.77.48-3.15,2.27-3.42S23.8,20.21,24.11,22.16Zm6.77,10.59c2.21-.73,2.77-.78,4.31,1A66,66,0,0,1,41,41.82l.11.17,0,0,0,0c-.5.37-1.47,1.1-3.5-.58-.23-.19-.51-.45-.51-.45s-1.65-3.47-2.12-4.54c-.08-.17-.22-.15-.25-.11L36.94,47.8a2.76,2.76,0,0,1-3.34-2.11c-.8-2.47-2.16-7-2.16-7s-4.66.94-6,1.19c-1.9.34-3.31-.53-3.7-1.86q-1.17-4-2-8.15c-.73-3.65,4.37-5,5.71-1,.55,1.79,1.16,3.56,1.81,5.32,1.21-.51,2.49-1,3.68-1.43Zm-1.2,7.37h-.06c-.35.07-2.09.41-4.4.83a3.85,3.85,0,0,1-4.64-2.75L18.81,31a.88.88,0,0,0-1.07-.63.87.87,0,0,0-.63,1.05h0l1.78,7.18A5.36,5.36,0,0,0,21,41.77l-2,6.09h1.84l1.74-5.32a6.2,6.2,0,0,0,1.74.25,6.06,6.06,0,0,0,1.19-.11l.2,0,.41-.07,2.11,5.29h1.88l-2.24-5.62c1.3-.24,2.13-.41,2.13-.41a.86.86,0,0,0,.64-1A.87.87,0,0,0,29.68,40.12Z"/></g></svg>