<svg xmlns="http://www.w3.org/2000/svg" viewBox="0 0 56 56" fill="currentColor"><g id="binnensportlocaties"><path d="M51.43,27.59A1.83,1.83,0,0,0,51,27L28.63,5.83a.89.89,0,0,0-1.26,0L5,27a1.83,1.83,0,0,0-.47.63,2,2,0,0,0-.15.77v1.4a.91.91,0,0,0,.28.67,1,1,0,0,0,.66.29H9.14V50.53H46.86V30.72h3.78a1,1,0,0,0,.66-.29.91.91,0,0,0,.28-.67v-1.4A2,2,0,0,0,51.43,27.59ZM26.2,22.15a2.08,2.08,0,0,1,.29-.88,2.05,2.05,0,0,1,.63-.68,2.21,2.21,0,0,1,.85-.36,2.24,2.24,0,0,1,.93,0,2.3,2.3,0,0,1,.87.36,2.12,2.12,0,0,1,.63.7,2.14,2.14,0,0,1,.27.9,2.07,2.07,0,0,1-.15.92,2.17,2.17,0,0,1-.3.85,2.14,2.14,0,0,1-.62.65,2.24,2.24,0,0,1-.83.34,2.28,2.28,0,0,1-.9,0h0a2.22,2.22,0,0,1-.86-.34,2,2,0,0,1-.63-.68,2,2,0,0,1-.28-.88A2,2,0,0,1,26.2,22.15Zm4.95,11.09a7.88,7.88,0,0,1-2.32-2.92c-.34,1.44-.76,3.24-1.06,4.78,3,2.21,3.6,2.77,3.83,3.26A4.48,4.48,0,0,1,31.84,40v3c-.06,1.83-.13,3-.24,4.84a2.83,2.83,0,0,1-1.41-.76,2.8,2.8,0,0,1-.77-1.42A50,50,0,0,0,28.9,40a26.92,26.92,0,0,0-2.45-1.27c-.17.26-.37.59-.6.94-.57.9-1.24,2-1.72,2.66-.67,1-1,1.33-1.89,1.33a23.17,23.17,0,0,1-6.65-1.8s.58-1.8,2.25-1.44a24.69,24.69,0,0,0,3.91.72,36.62,36.62,0,0,0,1.8-3.6l1.53.25c.18,0,.18-.09.18-.09l-.17-.1c-1.28-.77-2.41-1.44-2.13-3.34l.05-.31c.19-1.21.63-3.9,1.14-5.85a8.36,8.36,0,0,0-2.42.61,19.73,19.73,0,0,0-2.88,4.13,1.93,1.93,0,0,1-.52-2.47,12.05,12.05,0,0,1,2.07-3.28,10.5,10.5,0,0,1,5.8-1.35,4.08,4.08,0,0,1,4.07,2.94,14.44,14.44,0,0,0,1.8,2.79,35.07,35.07,0,0,0,4.09.47h0a2,2,0,0,1-1.8,1.54A8.37,8.37,0,0,1,31.15,33.24Zm8.76,11.6a2.54,2.54,0,0,1-1.13.92,2.51,2.51,0,0,1-3.29-3.29,2.52,2.52,0,1,1,4.42,2.37Z"/></g></svg>