<svg width="36" height="36" viewBox="0 0 36 36" fill="none" xmlns="http://www.w3.org/2000/svg">
<path fill-rule="evenodd" clip-rule="evenodd" d="M18.4404 6.14293L30.8404 17.8729C30.9509 17.9699 31.0387 18.0901 31.0975 18.225C31.1563 18.3598 31.1846 18.5059 31.1804 18.6529V19.4329C31.1804 19.5718 31.126 19.7051 31.0287 19.8042C30.9315 19.9033 30.7992 19.9603 30.6604 19.9629H28.5604V30.9629H7.6204V19.9629H5.5204C5.38158 19.9603 5.24933 19.9033 5.15208 19.8042C5.05484 19.7051 5.00038 19.5718 5.0004 19.4329V18.6529C4.99623 18.5059 5.02454 18.3598 5.0833 18.225C5.14207 18.0901 5.22986 17.9699 5.3404 17.8729L17.7404 6.14293C17.8339 6.05132 17.9595 6 18.0904 6C18.2213 6 18.3469 6.05132 18.4404 6.14293ZM18.0202 16.7627C18.1831 16.8037 18.3527 16.8097 18.5181 16.7803C18.6834 16.751 18.8407 16.687 18.9796 16.5925C19.1184 16.4981 19.2357 16.3753 19.3237 16.2323C19.4117 16.0893 19.4684 15.9292 19.4902 15.7627C19.5553 15.5992 19.583 15.4232 19.5712 15.2476C19.5595 15.0719 19.5086 14.9012 19.4223 14.7478C19.336 14.5944 19.2165 14.4622 19.0725 14.361C18.9286 14.2598 18.7638 14.192 18.5902 14.1627C18.4224 14.1185 18.2471 14.1111 18.0762 14.1412C17.9053 14.1713 17.743 14.238 17.6004 14.3369C17.4578 14.4357 17.3384 14.5643 17.2503 14.7138C17.1622 14.8633 17.1076 15.0301 17.0902 15.2027C17.0285 15.3646 17.0039 15.5382 17.018 15.7108C17.0322 15.8835 17.0849 16.0507 17.1722 16.2003C17.2594 16.35 17.3791 16.4781 17.5224 16.5754C17.6657 16.6728 17.8289 16.7368 18.0002 16.7627H18.0202ZM22.6202 20.6327C21.859 20.5917 21.101 20.5049 20.3502 20.3727C19.9582 19.8963 19.6227 19.3762 19.3502 18.8227C19.2083 18.3385 18.909 17.9153 18.4997 17.6202C18.0905 17.325 17.5945 17.1746 17.0902 17.1927C15.9668 17.1245 14.8478 17.3851 13.8702 17.9427C13.3911 18.4833 13.0028 19.098 12.7202 19.7627C12.5979 19.9883 12.5599 20.2501 12.6131 20.5011C12.6662 20.7521 12.807 20.976 13.0102 21.1327C13.4419 20.3032 13.9798 19.5334 14.6102 18.8427C15.0368 18.6614 15.4887 18.5467 15.9502 18.5027C15.6678 19.5868 15.4269 21.0777 15.3182 21.7502L15.2902 21.9227C15.1369 22.9769 15.7642 23.3515 16.4769 23.7769L16.5702 23.8327C16.5702 23.8327 16.5702 23.8827 16.4702 23.8827L15.6202 23.7427C15.4102 24.2227 14.9102 25.2927 14.6202 25.7427C13.8872 25.6687 13.1614 25.5349 12.4502 25.3427C11.5202 25.1427 11.2002 26.1427 11.2002 26.1427C12.3736 26.6579 13.6173 26.995 14.8902 27.1427C15.3902 27.1427 15.5702 26.9327 15.9402 26.4027C16.207 26.0206 16.5829 25.4254 16.8993 24.9243C17.0217 24.7306 17.1354 24.5505 17.2302 24.4027C17.6302 24.5927 18.2302 24.8827 18.5902 25.1127C18.7473 26.1664 18.8441 27.2281 18.8802 28.2927C18.942 28.5904 19.0895 28.8635 19.3045 29.0784C19.5195 29.2934 19.7925 29.4409 20.0902 29.5027C20.1502 28.5027 20.1902 27.8327 20.2202 26.8127V25.1327C20.2362 24.8173 20.1921 24.5017 20.0902 24.2027C19.9602 23.9327 19.6502 23.6227 17.9602 22.3927C18.1302 21.5427 18.3602 20.5427 18.5502 19.7427C18.8452 20.3777 19.2874 20.9331 19.8402 21.3627C20.4168 21.5169 21.0173 21.561 21.6102 21.4927C21.8479 21.4783 22.0744 21.3865 22.255 21.2311C22.4356 21.0758 22.5604 20.8656 22.6102 20.6327H22.6202ZM22.7624 25.8587C22.9926 25.7048 23.2633 25.6227 23.5402 25.6227C23.9115 25.6227 24.2676 25.7702 24.5301 26.0328C24.7927 26.2953 24.9402 26.6514 24.9402 27.0227C24.9402 27.2996 24.8581 27.5703 24.7043 27.8005C24.5504 28.0308 24.3318 28.2102 24.076 28.3162C23.8201 28.4221 23.5386 28.4498 23.2671 28.3958C22.9955 28.3418 22.746 28.2085 22.5502 28.0127C22.3545 27.8169 22.2211 27.5674 22.1671 27.2959C22.1131 27.0243 22.1408 26.7428 22.2468 26.487C22.3527 26.2312 22.5322 26.0125 22.7624 25.8587Z" fill="black"/>
</svg>
