<svg xmlns="http://www.w3.org/2000/svg" viewBox="0 0 56 56"><g id="binnensporten"><path d="M51,27.38l-22.53-21a.91.91,0,0,0-1.2,0L5,27.38a2.29,2.29,0,0,0-.6,1.5v1.2a.8.8,0,0,0,.9.9H9.23V50.5H46.77V31.28h3.91a.8.8,0,0,0,.9-.9v-1.5A2.29,2.29,0,0,0,51,27.38Zm-30-6.91a2,2,0,0,1,2.7,1.8c.31,1.5-.3,2.7-1.5,3-1.5.6-2.4,0-2.7-1.51A2.35,2.35,0,0,1,20.94,20.47Zm9.91,18.32c-.3,1.8-3,6.61-3.6,7.81a2.9,2.9,0,0,1-.9-3.3c.3-1.21,1.2-3,1.5-4.21a17.27,17.27,0,0,0-3-.6c-.3,2.4-.6,3.6-.6,4.2a11.08,11.08,0,0,1-.61,1.81c-1.2,1.8-3.9,5.4-4.5,6a3.15,3.15,0,0,1,0-3.6c.6-.9,1.5-2.7,1.8-3.3,0-.3.3-.6.3-1.21a22.5,22.5,0,0,1,.3-3.6H24v-.3a4.47,4.47,0,0,1-2.71-1.2c-.6-1.2.3-2.7-.3-6-1.8.9-1.8,1.2-2.1,1.8A23,23,0,0,0,17,37.89a2.46,2.46,0,0,1-1.2-3l.9-2.71c0-.3.3-.6.6-.9.3-.9,1.5-1.8,2.1-2.4,2.1-1.8,3-2.1,6-4.51.6-.6,1.2-.9,1.5-1.8a23.92,23.92,0,0,0,.9-4.5c.3,0,1.8.3,1.5,3a5.89,5.89,0,0,1-.9,3,7.2,7.2,0,0,1-3,3,25.72,25.72,0,0,1,.3,7.21c1.5.6,4.5,1.5,5.1,3Zm4.51-17.72a2.26,2.26,0,0,1-3.61,0,3.15,3.15,0,0,1,0-3.9c.91-1.21,2.71-.91,3.91,0A2.8,2.8,0,0,1,35.36,21.07Z"/></g></svg>