<svg xmlns="http://www.w3.org/2000/svg" viewBox="0 0 56 56"><g id="binnen_zonder_zitplaats"><path d="M51,26.91,28.64,5.79h0a.93.93,0,0,0-1.28,0L5,26.91a1.91,1.91,0,0,0-.61,1.41v1.41h0a1,1,0,0,0,1,.95H9.14V50.57H46.86V30.68h3.77a1,1,0,0,0,.95-.95V28.32A1.93,1.93,0,0,0,51,26.91Zm-23-7c1.42,0,2.3.91,2.3,2.6A2.25,2.25,0,0,1,28,25c-1.46,0-2.3-.9-2.3-2.51S26.51,19.91,28,19.91Zm-8.44.51c1.26,0,2.05.82,2.05,2.34A2,2,0,0,1,19.56,25h0c-1.3,0-2-.81-2-2.26S18.23,20.42,19.56,20.42Zm2.56,27.12a2,2,0,0,1-2.23-2.16l-.34-8.47a.23.23,0,0,0-.24-.22.25.25,0,0,0-.26.22l-.34,8.46a2.1,2.1,0,0,1-2.21,2.16V29.37c-.07-.07-.16,0-.2.17a10.87,10.87,0,0,0-.37,3.16v4.48a1.76,1.76,0,0,1-1.75-1.74c-.27-2.65-.48-8.23,2.43-9.06a13.08,13.08,0,0,1,5.84,0,3.32,3.32,0,0,1,.55.22c-2,2-1.7,6.86-1.52,9.76v.06a2.82,2.82,0,0,0,.63,1.71ZM33.76,36.32v0A1.81,1.81,0,0,1,32,38.26v-4a18,18,0,0,0-.41-4.49c-.06-.19-.15-.21-.21-.15v20a2.45,2.45,0,0,1-2.68-2.35L28.27,38a.27.27,0,0,0-.54,0l-.38,9.24a2.45,2.45,0,0,1-2.68,2.35V29.63c0-.05-.14,0-.21.15a14.72,14.72,0,0,0-.41,4.49v4a1.81,1.81,0,0,1-1.8-1.89v-.06c-.2-3.26-.55-9,2.62-9.88a13.07,13.07,0,0,1,6.28,0C34.31,27.29,34,33.07,33.76,36.32Z"/></g></svg>