<svg width="56" height="56" viewBox="0 0 56 56" fill="none" xmlns="http://www.w3.org/2000/svg">
<rect width="56" height="56" fill="white"/>
<path d="M48.5534 13.748C47.366 12.4721 42.0461 6.75586 40.8586 5.47995C39.5999 4.12743 37.7529 5.90227 38.5691 7.48071C39.519 9.31807 40.0297 10.1729 40.0297 10.1729L35.6939 14.8317C35.6939 14.8317 36.4313 16.4096 37.7043 19.1745C37.8284 19.4439 37.6823 19.5437 37.6364 19.5662C37.6364 19.5662 30.8129 12.2355 29.3647 10.6794C28.3914 9.63494 26.433 11.2438 27.2904 12.8739C28.1289 14.4678 29.319 16.5776 29.319 16.5776L14.9934 31.9703C14.5247 32.4741 14.205 33.1159 14.075 33.8144L12.5716 42.2697L4 51.8H6.88788L14.3052 44.1442L22.1981 42.5465C22.8516 42.4079 23.452 42.0636 23.9229 41.5578L38.245 26.1686C38.245 26.1686 40.2086 27.4475 41.6921 28.3484C43.2091 29.2697 44.7065 27.1654 43.7343 26.1196C42.2811 24.558 40.4932 22.6371 38.6176 20.6216L44.1857 14.6387C44.1857 14.6387 44.9813 15.1873 46.6913 16.2081C48.1604 17.085 49.8122 15.1005 48.5534 13.748ZM32.6803 27.0013L30.3053 24.4495L29.1178 27.0013L30.8991 28.9152L29.1178 30.829L26.7429 28.2772L25.5554 30.829L27.3367 32.743L25.5554 34.6568L23.1804 32.105L21.993 34.6569L23.7741 36.5707L21.993 38.4847L17.8369 34.0189L31.4928 19.3458L35.649 23.8115L32.6803 27.0013Z" fill="black"/>
<path fill-rule="evenodd" clip-rule="evenodd" d="M40.7813 46.0193V52.6987H44.121V46.0193H50.8003V42.6796H44.121V36H40.7813V42.6796H34.1016V46.0193H40.7813Z" fill="black"/>
</svg>
