<svg xmlns="http://www.w3.org/2000/svg" viewBox="0 0 56 56"><g id="boosterprik"><path d="M41.74,27.5c1.5.92,3-1.16,2-2.2L38.7,19.87,44.2,14s.79.55,2.48,1.55a1.54,1.54,0,0,0,1.84-2.43L40.91,4.9c-1.24-1.34-3.07.42-2.26,2,.94,1.81,1.44,2.66,1.44,2.66l-4.28,4.6s.73,1.56,2,4.3c.12.26,0,.36-.07.38L29.55,10c-1-1-2.9.56-2.05,2.17s2,3.66,2,3.66L15.35,31.08a3.65,3.65,0,0,0-.91,1.83L13,41.27,4.48,50.69H7.34l7.33-7.57,7.8-1.58a3.27,3.27,0,0,0,1.7-1L38.33,25.35S40.27,26.61,41.74,27.5Zm-8.91-1.33-2.35-2.52-1.17,2.52,1.76,1.9L29.31,30,27,27.43,25.79,30l1.76,1.89-1.76,1.89-2.35-2.52-1.17,2.52L24,35.63l-1.76,1.89-4.11-4.41,13.5-14.5L35.76,23Z"/><polygon points="44.14 41.67 44.14 35.07 40.84 35.07 40.84 41.67 34.23 41.67 34.23 44.97 40.84 44.97 40.84 51.57 44.14 51.57 44.14 44.97 50.74 44.97 50.74 41.67 44.14 41.67"/></g></svg>