<svg xmlns="http://www.w3.org/2000/svg" viewBox="0 0 56 56"><g id="calendar"><path d="M48.21,11.48H42.6V6.81c0-1.87-1.58-2.34-3.37-2.34s-3.37.47-3.37,2.34v4.67H20.14V6.81c0-1.87-1.57-2.34-3.37-2.34s-3.37.47-3.37,2.34v4.67H7.79A3.53,3.53,0,0,0,4.42,15V48.13a3.53,3.53,0,0,0,3.37,3.5H48.21a3.53,3.53,0,0,0,3.37-3.5V15A3.53,3.53,0,0,0,48.21,11.48ZM47.09,23.16V33.52h-11V23.16ZM22.66,33.52V23.16h11V33.52Zm11,2.62V47H22.66V36.14Zm-24.7-13H20.14V33.52H8.91v2.62H20.14V47H8.91ZM36.13,47V36.14h11V47Z"/></g></svg>