<svg xmlns="http://www.w3.org/2000/svg" width="24" height="19" viewBox="0 0 53.48 44.96"><path d="M29,40.89H4.12V16.39H43.27V9.2a3.14,3.14,0,0,0-3.09-3.06H35V2.05c0-1.64-1.44-2-3.09-2s-3.09.41-3.09,2v4.1H14.42V2.05c0-1.64-1.4-2-3.09-2S8.24.41,8.24,2v4.1H3.09A3.15,3.15,0,0,0,0,9.2V41.89A3.15,3.15,0,0,0,3.09,45h29a16.92,16.92,0,0,1-3.17-4.09Z"/><path d="M53.12,35.52,51,33.84a9.69,9.69,0,0,0,0-3.64l2.14-1.68a.86.86,0,0,0,.22-1.09l-1.94-3.38a.83.83,0,0,0-1.09-.37l-2.55,1A9.12,9.12,0,0,0,44.93,23l-.38-2.73a.88.88,0,0,0-.87-.73H39.87a.89.89,0,0,0-.87.73l-.37,2.64a9.31,9.31,0,0,0-3.19,1.82l-2.61-1.07a.86.86,0,0,0-1,.35l-2,3.37A.86.86,0,0,0,30,28.5l2.22,1.77a8.86,8.86,0,0,0-.15,1.78,9.13,9.13,0,0,0,.16,1.73l-2.16,1.74a.85.85,0,0,0-.21,1.09L31.83,40a.85.85,0,0,0,1,.36l2.6-1a9.4,9.4,0,0,0,3.15,1.82L39,43.88a.89.89,0,0,0,.87.73h3.88a.89.89,0,0,0,.87-.73L45,41.05A9.66,9.66,0,0,0,48,39.32l2.37,1a.86.86,0,0,0,1-.35l2-3.37A.86.86,0,0,0,53.12,35.52ZM41.66,37.68a5.64,5.64,0,1,1,5.59-5.63,5.61,5.61,0,0,1-5.58,5.63Z"/></svg>