<svg viewBox="0 0 56 56" fill="currentColor" xmlns="http://www.w3.org/2000/svg">
  <g>
    <path  d="m289.74,406.29H41.23v-243.78h350.5v.04h41.23v-71.14c0-16.24-14.43-30.46-30.94-30.46h-51.55V20.32c0-16.27-14.44-20.32-30.92-20.32s-30.91,4.08-30.89,20.31v40.64h-144.33V20.32c0-16.27-14.43-20.32-30.92-20.32s-30.94,4.08-30.95,20.31v40.64H30.92c-16.49,0-30.92,14.22-30.92,30.47v325.02c0,16.26,14.44,30.47,30.92,30.47h290.56c-12.59-11.75-23.33-25.45-31.74-40.63Z"/>
    <path  d="m548.75,362.16l-21.02-16.69c1.11-5.81,1.69-11.81,1.69-17.94s-.6-12.23-1.72-18.09l21.35-16.65c3.31-2.58,4.22-7.22,2.12-10.86l-19.36-33.62c-2.1-3.64-6.56-5.19-10.46-3.62l-25.48,10.25c-8.41-7.16-18.07-12.89-28.62-16.8l-3.86-27.38c-.59-4.16-4.15-7.26-8.35-7.26h-38.79c-4.2,0-7.77,3.1-8.35,7.26l-3.7,26.25c-11.84,3.91-22.65,10.08-31.93,18l-26.07-10.67c-3.89-1.59-8.36-.08-10.48,3.55l-19.56,33.5c-2.12,3.63-1.24,8.27,2.06,10.87l22.23,17.55c-1.08,5.73-1.65,11.65-1.65,17.69s.54,11.7,1.57,17.32l-21.76,16.88c-3.32,2.58-4.24,7.21-2.15,10.85l19.27,33.67c2.09,3.65,6.54,5.2,10.45,3.64l25.63-10.23c9.15,7.91,19.83,14.11,31.53,18.1l3.87,27.46c.59,4.16,4.15,7.26,8.35,7.26h38.79c4.2,0,7.77-3.1,8.35-7.26l3.96-28.09c10.88-3.95,20.83-9.83,29.45-17.22l24.52,10.11c3.89,1.6,8.36.1,10.49-3.52l19.65-33.45c2.13-3.62,1.26-8.26-2.03-10.88Zm-114.63,21.35c-30.92,0-55.98-25.06-55.98-55.98s25.06-55.98,55.98-55.98,55.98,25.06,55.98,55.98-25.06,55.98-55.98,55.98Z"/>
  </g>
</svg>