<svg focusable="false" viewBox="0 0 36 36" fill="currentColor" xmlns="http://www.w3.org/2000/svg">
<path d="M16.6287 16.0235C17.2143 15.5842 17.9463 16.6091 17.9463 16.6091C17.9463 16.6091 17.2143 17.3412 16.6287 17.3412C16.043 17.3412 15.311 16.6091 15.311 16.6091C15.311 16.6091 16.043 15.5842 16.6287 16.0235Z"/>
<path fill-rule="evenodd" clip-rule="evenodd" d="M19.9229 19.4641C19.8863 19.2445 19.8497 19.0249 19.8497 18.8053C20.7282 17.7804 21.3138 16.7555 21.4602 15.7306C22.0459 15.2914 22.3387 14.4129 22.3387 13.5345C22.3387 13.2417 22.3387 12.5096 21.8995 11.924C22.4851 8.70293 20.7282 5.77472 18.2392 6.36036C17.8 6.06754 17.0679 5.77472 16.043 5.77472C13.7005 5.92113 10.7723 8.70293 11.5043 12.0704C11.0651 12.656 11.0651 13.3881 11.0651 13.6809C11.0651 14.5594 11.3579 15.4378 11.9435 15.8771V16.0235H11.6507C10.7723 15.8771 9.8938 16.4627 9.74739 17.634C9.45457 19.2445 8.72252 18.6589 8.72252 18.6589C8.57611 18.5124 8.4297 18.2196 8.28328 17.7804C8.28328 17.7804 6.81918 19.0981 7.84405 20.4158C8.13687 20.855 8.72252 21.1478 9.45457 21.4407C10.0402 21.1478 10.6259 20.855 11.2115 20.855C11.3911 20.855 11.4606 20.855 11.4874 20.8888C11.5043 20.9101 11.5043 20.9448 11.5043 21.0014L10.9187 21.2942C10.0402 21.7335 9.16175 22.1727 8.86893 22.6119C7.69764 23.6368 7.112 28.0291 7.112 28.0291H17.9464L23.6564 21.8799C23.3636 21.5871 22.9243 21.4407 22.4851 21.2942C21.7531 21.0014 20.1425 20.2694 19.9961 20.123C19.9961 19.9034 19.9595 19.6837 19.9229 19.4641ZM16.6287 25.2473C16.6287 25.2473 12.822 24.3689 11.9435 22.0263C12.1292 21.952 12.3077 21.8825 12.4781 21.8162C13.651 21.3594 14.4325 21.055 14.4325 20.4158C14.4325 20.3253 14.4885 19.9552 14.5657 19.4437C14.6135 19.1276 14.6694 18.7575 14.7254 18.366C13.8469 17.634 13.1148 16.4627 13.1148 15.145C12.5292 14.9986 12.3828 14.2665 12.3828 13.6809V13.0953C12.3828 12.9488 12.5292 12.8024 12.5292 12.8024C12.6756 12.656 12.822 12.8024 12.9684 12.9488V12.0704C13.9933 11.924 16.3359 11.1919 17.8 9.5814C18.8248 9.72781 19.4105 10.167 19.9961 10.7527V10.8991C20.0603 11.0275 20.0964 11.1559 20.129 11.2719C20.1707 11.4205 20.2067 11.5489 20.289 11.6311V12.8024C20.4354 12.656 20.5818 12.656 20.7282 12.656C21.021 12.9488 21.021 13.0953 21.021 13.6809C21.021 14.2665 20.8746 14.9986 20.289 15.145C20.289 16.4627 19.4105 17.634 18.532 18.5124C18.4494 18.5676 18.3719 18.6279 18.2927 18.6894C17.9514 18.955 17.5795 19.2445 16.6287 19.2445C16.1895 19.2445 15.7502 19.2445 15.4574 19.0981C15.6038 19.5373 15.8966 19.9765 16.7751 20.123C17.3007 20.2281 17.8263 19.9558 18.2435 19.7397C18.4074 19.6548 18.5546 19.5786 18.6784 19.5373C18.6784 19.6837 18.6784 20.2694 18.8248 20.4158C18.9601 21.0919 19.7197 21.3933 20.9884 21.8968C21.0931 21.9383 21.2022 21.9817 21.3138 22.0263C20.4354 24.3689 16.6287 25.2473 16.6287 25.2473Z"/>
<path d="M26.1454 28.0291H22.9243L25.7061 25.3937C25.9989 26.7114 26.1454 28.0291 26.1454 28.0291Z"/>
<path fill-rule="evenodd" clip-rule="evenodd" d="M29.0736 20.4158C29.6593 20.2694 30.0985 20.4158 30.5377 20.855C30.8305 21.2942 30.9769 21.7335 30.8305 22.3191C30.8305 22.9048 30.5377 23.344 30.0985 23.7832C29.6593 24.2224 29.22 24.5153 28.6344 24.5153H28.3416C27.9023 24.5153 27.4631 24.3689 27.1703 24.076C26.8774 23.9296 26.731 23.4904 26.731 23.1976L19.4105 30.0789C19.2641 30.2253 18.9713 30.2253 18.8249 30.2253C18.532 30.2253 18.3856 30.0789 18.2392 29.9325C17.9464 29.6396 17.9464 29.2004 18.2392 28.9076L25.1205 21.5871C24.8277 21.5871 24.5349 21.4406 24.2421 21.1478C23.9492 20.855 23.6564 20.2694 23.8028 19.6837C23.8028 19.0981 24.0956 18.6588 24.5349 18.2196C24.8277 17.7804 25.2669 17.634 25.7062 17.4876C25.5598 16.4627 25.8526 15.4378 25.8526 15.4378C25.8526 15.145 26.1454 14.9986 26.4382 15.145C26.731 15.145 26.8774 15.4378 26.731 15.7306C26.731 15.7306 26.4382 16.7555 26.731 17.4876C27.0239 17.4876 27.3167 17.634 27.4631 17.7804C28.1951 18.5124 28.0487 19.8301 27.1703 20.7086C27.1703 20.855 24.5349 23.6368 24.5349 23.6368L24.6813 23.7832L27.6095 21.1478C28.0487 20.7086 28.488 20.4158 29.0736 20.4158ZM24.6813 19.8301C24.6813 19.9765 24.6813 20.2694 24.9741 20.4158C25.2669 20.855 25.999 20.7086 26.4382 20.2694C26.8774 19.6837 27.0239 18.9517 26.731 18.6588C26.5846 18.5124 26.2918 18.5124 26.1454 18.5124H25.999C25.7062 18.5124 25.4133 18.6588 25.1205 18.9517C24.8277 19.2445 24.6813 19.5373 24.6813 19.8301ZM23.0708 25.2473C23.3636 25.3937 23.6564 25.3937 23.8028 25.2473C23.9492 25.1009 23.9492 24.6617 23.8028 24.5153C23.51 24.3689 23.2172 24.3689 23.0708 24.5153C22.9244 24.8081 22.9244 25.1009 23.0708 25.2473ZM29.5128 23.0512C29.8057 22.7583 29.9521 22.4655 29.9521 22.1727C29.9521 22.0263 29.9521 21.7335 29.8057 21.4406C29.5128 21.2942 29.3664 21.2942 29.22 21.2942H29.0736C28.7808 21.2942 28.488 21.4406 28.1951 21.7335C27.9023 22.0263 27.7559 22.3191 27.7559 22.6119C27.7559 22.9048 27.7559 23.1976 27.9023 23.344C28.1951 23.4904 28.488 23.4904 28.6344 23.4904C28.9272 23.4904 29.22 23.344 29.5128 23.0512Z"/>
</svg>
