<svg xmlns="http://www.w3.org/2000/svg" viewBox="0 0 56 56"><g id="contact_beroepen"><path d="M26.47,25.34s-1.41-2-2.54-1.13c-1.13-.85-2.54,1.13-2.54,1.13s1.41,1.41,2.54,1.41S26.47,25.34,26.47,25.34Z"/><path d="M35.22,34.37a40.12,40.12,0,0,1-4.8-2.26,8,8,0,0,0-.14-1.27,7.83,7.83,0,0,1-.14-1.27,12.08,12.08,0,0,0,3.1-5.93,5.31,5.31,0,0,0,1.7-4.23,5.13,5.13,0,0,0-.85-3.11C35.22,10.09,31.83,4.44,27,5.57A7.64,7.64,0,0,0,22.8,4.44c-4.52.29-10.17,5.65-8.75,12.14a5.14,5.14,0,0,0-.85,3.11,5.34,5.34,0,0,0,1.69,4.24v.28h-.56a3.22,3.22,0,0,0-3.67,3.1c-.57,3.11-2,2-2,2a4.62,4.62,0,0,1-.84-1.69S5,30.14,7,32.68a6.54,6.54,0,0,0,3.1,2,8.1,8.1,0,0,1,3.39-1.13c.35,0,.48,0,.53.07s0,.11,0,.22l-1.13.56c-1.7.85-3.39,1.69-4,2.54-2.25,2-3.38,10.45-3.38,10.45H26.47l11-11.86A5.73,5.73,0,0,0,35.22,34.37ZM23.93,42s-7.34-1.69-9-6.21l1-.4c2.27-.88,3.77-1.47,3.77-2.7,0-.18.11-.89.26-1.88.09-.61.2-1.32.31-2.08a8.31,8.31,0,0,1-3.11-6.21c-1.13-.28-1.41-1.69-1.41-2.82V18.56A1,1,0,0,1,16,18c.28-.29.57,0,.85.28v-1.7a17.31,17.31,0,0,0,9.32-4.79A6.88,6.88,0,0,1,30.42,14v.29a4.76,4.76,0,0,1,.26.71,1.57,1.57,0,0,0,.31.7V18a1,1,0,0,1,.84-.29c.57.57.57.85.57,2s-.29,2.54-1.41,2.82c0,2.54-1.7,4.8-3.39,6.5a5,5,0,0,0-.46.34,4.45,4.45,0,0,1-3.21,1.07,5.53,5.53,0,0,1-2.26-.28,2.81,2.81,0,0,0,2.54,2A4.49,4.49,0,0,0,27,31.37a7.31,7.31,0,0,1,.84-.39c0,.29,0,1.41.28,1.7.26,1.3,1.73,1.88,4.17,2.85l.63.25C31.27,40.3,23.93,42,23.93,42Z"/><path d="M36.07,47.36h6.21s-.28-2.54-.85-5.08Z"/><path d="M50.75,33.52a2.72,2.72,0,0,0-2.83-.84,3.92,3.92,0,0,0-2.82,1.41l-5.64,5.08-.29-.28s5.08-5.37,5.08-5.65c1.7-1.69,2-4.23.57-5.64A2.12,2.12,0,0,0,43.41,27a6.2,6.2,0,0,1,0-3.39c.28-.56,0-1.13-.57-1.13-.56-.28-1.13,0-1.13.57a10.86,10.86,0,0,0-.28,4,3.91,3.91,0,0,0-2.26,1.41,4,4,0,0,0-1.41,2.83,3.14,3.14,0,0,0,.85,2.82,2.46,2.46,0,0,0,1.69.85L27,49.05a1.38,1.38,0,0,0,0,2,1.49,1.49,0,0,0,1.13.56,1.71,1.71,0,0,0,1.13-.28L43.41,38a2,2,0,0,0,.84,1.69,3.21,3.21,0,0,0,2.26.85h.57a3.9,3.9,0,0,0,2.82-1.41,3.9,3.9,0,0,0,1.41-2.82A3.32,3.32,0,0,0,50.75,33.52ZM40,32.68a1.14,1.14,0,0,1-.56-1.13A3,3,0,0,1,42,29h.28a1.71,1.71,0,0,1,1.13.28c.56.56.28,2-.57,3.1C42,33.24,40.58,33.52,40,32.68ZM37.76,42a1.23,1.23,0,0,1-1.41,0,1,1,0,1,1,1.41-1.41A1.29,1.29,0,0,1,37.76,42Zm11-4.23a2.46,2.46,0,0,1-1.69.85,3,3,0,0,1-1.41-.29,2.05,2.05,0,0,1-.29-1.41,3,3,0,0,1,2.54-2.54h.29a2.17,2.17,0,0,1,1.13.28,3.1,3.1,0,0,1,.28,1.41A2.44,2.44,0,0,1,48.77,37.76Z"/></g></svg>