<svg xmlns="http://www.w3.org/2000/svg" viewBox="0 0 56 56" fill="currentColor"><g id="coronavirus"><path d="M47.33,16.84a3.12,3.12,0,0,1,2.35,0,3.08,3.08,0,0,1,1,.67,3.17,3.17,0,0,1,.66,1,3,3,0,0,1,.24,1.18,3.23,3.23,0,0,1-.24,1.18,3.07,3.07,0,0,1-.68,1,3,3,0,0,1-1,.66,3,3,0,0,1-3-.42h0a3.2,3.2,0,0,1-1-1.36c-.06,0-.27.07-.2.4l.42,1.31-5.73,2.42a12.56,12.56,0,0,1-.17,6.69l3,1.48,0,0h0a3.07,3.07,0,0,1,3-.5,3.09,3.09,0,0,1,1.14,5,3.25,3.25,0,0,1-1,.7,3.14,3.14,0,0,1-2.36.06A3.09,3.09,0,0,1,41.87,36h0v0a3.1,3.1,0,0,1,.2-1.63s0,0,0,0-.24-.13-.42.16l-.6,1.24-2.41-1.26a12.48,12.48,0,0,1-4.57,4.47l2.73,6.66v0s0,0,0,0a3.08,3.08,0,0,1,1.48.61,2.94,2.94,0,0,1,1,1.26,3,3,0,0,1,0,2.36,3.07,3.07,0,0,1-3.64,1.8A3.08,3.08,0,0,1,34,46.76h0a3.18,3.18,0,0,1,1.34-1c0-.06-.07-.27-.4-.2L33.65,46,31.23,40a12.43,12.43,0,0,1-3.32.46,11.79,11.79,0,0,1-3.12-.42l-1.48,3.07,0,0,0,0a3.08,3.08,0,0,1-.24,4,3,3,0,0,1-1,.67,3,3,0,0,1-2.35,0A3,3,0,0,1,18,46.25,3.07,3.07,0,0,1,20.46,42h0a3,3,0,0,1,1.61.24h0s.14-.24-.14-.42l-1.23-.63L21.92,39a12.49,12.49,0,0,1-4.76-4.59l-6.54,2.71h-.08a3.17,3.17,0,0,1-.6,1.48,3.05,3.05,0,0,1-1.27,1,3,3,0,0,1-2.35,0,3.07,3.07,0,0,1-1.66-1.66,3.11,3.11,0,0,1,0-2.36,3,3,0,0,1,4.71-1.25h0a3.16,3.16,0,0,1,1,1.31s0,0,0,0,.27-.07.2-.4l-.42-1.31,5.73-2.37a12.57,12.57,0,0,1-.18-6.61l-3.28-1.3,0,0,0,0a3.15,3.15,0,0,1-1.45.66,3.07,3.07,0,0,1-1.59-.16,3.11,3.11,0,0,1-1.71-1.63,3,3,0,0,1-.06-2.36,3.06,3.06,0,0,1,.63-1,3.13,3.13,0,0,1,1-.7,3.07,3.07,0,0,1,1.17-.26,2.8,2.8,0,0,1,1.18.2,3,3,0,0,1,1.29.95,3.05,3.05,0,0,1,.64,1.46h0a.08.08,0,0,1,0,0,3.2,3.2,0,0,1-.21,1.63s0,0,0,0,.25.13.42-.15l.6-1.24,2.52,1A12.48,12.48,0,0,1,21.7,17l-2.58-6.17s0,0,0,0v0a3.08,3.08,0,0,1-1.48-.61,3,3,0,0,1-1-1.26,3.11,3.11,0,0,1,0-2.36,3.07,3.07,0,0,1,1.67-1.67,3.08,3.08,0,0,1,3.62,1,3.06,3.06,0,0,1,0,3.76h0v0a3.1,3.1,0,0,1-1.3,1l-.05,0c0,.06.07.27.4.2l1.32-.42,2.27,5.42a12.51,12.51,0,0,1,6.89.05L33,13.07,33,13l0,0a3.09,3.09,0,0,1-.42-3.06,3,3,0,0,1,1.66-1.66,3,3,0,0,1,2.35,0A3,3,0,0,1,38.31,10a3.11,3.11,0,0,1,0,2.36,3.07,3.07,0,0,1-2.45,1.87h0a3,3,0,0,1-1.65-.26c0,.05-.14.24.15.43l1.22.63-1.28,2A12.56,12.56,0,0,1,39,22l6.38-2.67h.07a3.1,3.1,0,0,1,1.87-2.46Zm-25.16,7.8a2.11,2.11,0,1,0-2.09-2.11A2.1,2.1,0,0,0,22.17,24.64Zm13.57,8A1.57,1.57,0,1,1,34.17,31,1.57,1.57,0,0,1,35.74,32.59Zm-1.05-4.77a2.12,2.12,0,1,0-2.09-2.11A2.09,2.09,0,0,0,34.69,27.82ZM22.2,31.53a1.57,1.57,0,1,1-1.57-1.59A1.57,1.57,0,0,1,22.2,31.53ZM30,21.47a1.59,1.59,0,1,0-1.57-1.58A1.57,1.57,0,0,0,30,21.47Zm.55,5.3a3.13,3.13,0,1,1-3.13-3.18A3.15,3.15,0,0,1,30.58,26.77ZM27.94,37.35a2.64,2.64,0,1,0-2.61-2.64,2.62,2.62,0,0,0,2.61,2.64Z"/></g></svg>