<svg width="56" height="56" viewBox="0 0 56 56" fill="none" xmlns="http://www.w3.org/2000/svg">
<rect width="56" height="56" fill="white"/>
<path fill-rule="evenodd" clip-rule="evenodd" d="M48.4946 16.0087C48.8903 15.8445 49.3145 15.76 49.7429 15.7601C50.1713 15.7602 50.5955 15.8449 50.9911 16.0093C51.3867 16.1737 51.746 16.4145 52.0483 16.718C52.3506 17.0215 52.5901 17.3817 52.7529 17.7779C52.9171 18.1745 53.0011 18.5996 53 19.0288C52.9988 19.458 52.9126 19.8827 52.7463 20.2784C52.5799 20.6741 52.3367 21.0328 52.0308 21.3339C51.7249 21.635 51.3623 21.8725 50.9641 22.0325C50.4344 22.2522 49.8558 22.327 49.2877 22.249C48.7196 22.1711 48.1825 21.9433 47.7316 21.589L47.7235 21.5971C47.7185 21.5923 47.7131 21.588 47.7074 21.5842C47.2309 21.2067 46.8653 20.7073 46.6493 20.1391C46.5831 20.1488 46.3606 20.2133 46.4348 20.5681L46.8864 21.9584L40.8054 24.5179C41.3947 26.8555 41.3322 29.3098 40.6247 31.6143L43.7926 33.1868C43.8136 33.1981 43.8281 33.2094 43.8426 33.2191L43.8507 33.2272L43.8668 33.2368C44.3095 32.8714 44.8412 32.63 45.4077 32.5373C45.9743 32.4447 46.5552 32.5041 47.0912 32.7094C47.9005 33.0225 48.5527 33.6435 48.9049 34.4365C49.2571 35.2294 49.2807 36.1296 48.9704 36.9399C48.8177 37.3409 48.5873 37.7079 48.2926 38.0198C47.9978 38.3317 47.6444 38.5824 47.2526 38.7575C46.8608 38.9327 46.4382 39.0288 46.0092 39.0404C45.5802 39.0521 45.1531 38.9789 44.7524 38.8253C44.2161 38.617 43.7444 38.2705 43.3855 37.821C43.0265 37.3714 42.793 36.8348 42.7087 36.2657H42.7006C42.6926 36.2496 42.6926 36.2335 42.6926 36.2238C42.5684 35.3529 42.8394 34.6706 42.9071 34.5013C42.9131 34.4886 42.9185 34.4757 42.9232 34.4626C42.8652 34.4223 42.6603 34.3239 42.4716 34.6271L41.8393 35.9448L39.2875 34.6094C38.1103 36.582 36.4384 38.2131 34.4372 39.3414L37.3261 46.412C37.3306 46.425 37.3334 46.4386 37.3342 46.4523C37.3356 46.4665 37.3383 46.4805 37.3422 46.4943C37.9124 46.5658 38.4535 46.7871 38.9105 47.1355C39.3675 47.484 39.7241 47.9471 39.944 48.478C40.275 49.2785 40.2752 50.1775 39.9444 50.978C39.6136 51.7786 38.9789 52.4154 38.1794 52.7488C37.5146 53.0263 36.7766 53.0754 36.0809 52.8886C35.3853 52.7017 34.7712 52.2894 34.335 51.7162C33.8988 51.143 33.6651 50.4414 33.6704 49.7211C33.6758 49.0009 33.9199 48.3028 34.3646 47.7361L34.3566 47.7281C34.3608 47.723 34.3646 47.7176 34.3679 47.7119L34.3743 47.7023L34.3808 47.6942C34.7548 47.2247 35.2477 46.8639 35.8083 46.6491C35.8002 46.5846 35.7341 46.362 35.3808 46.4362L33.9936 46.8878L31.4257 40.5849C30.2802 40.9076 29.0963 41.0736 27.9061 41.0784C26.7867 41.0737 25.6725 40.9241 24.5914 40.6333L23.0268 43.8799C23.0181 43.8983 23.0073 43.9156 22.9945 43.9315C22.9889 43.9388 22.9835 43.9463 22.9784 43.9541C23.3302 44.408 23.5564 44.9466 23.6343 45.5156C23.7121 46.0846 23.6389 46.6641 23.422 47.1958C23.2594 47.5922 23.02 47.9525 22.7177 48.2562C22.4154 48.5598 22.0561 48.8007 21.6605 48.9651C21.2648 49.1295 20.8405 49.2141 20.4121 49.2141C19.9836 49.2141 19.5593 49.1295 19.1637 48.9651C18.3636 48.6324 17.7283 47.9957 17.3974 47.1949C17.0665 46.3941 17.0671 45.4947 17.399 44.6943C17.8668 43.5654 18.8765 42.8589 20.0008 42.7106V42.7025H20.0411C20.9041 42.5928 21.5735 42.8831 21.7477 42.9573C21.7703 42.967 21.7848 42.9735 21.7896 42.9735C21.8219 42.9251 21.9364 42.7186 21.6332 42.5219L20.3363 41.8558L21.5541 39.4478C19.4635 38.3122 17.7199 36.6311 16.5086 34.5835L9.56627 37.456C9.55258 37.4604 9.53855 37.4636 9.52433 37.4657C9.51067 37.4671 9.49717 37.4698 9.484 37.4737C9.41345 38.0441 9.19339 38.5857 8.84611 39.0437C8.49884 39.5017 8.03668 39.8598 7.50646 40.0817C7.11076 40.2458 6.68654 40.3303 6.25812 40.3302C5.82971 40.3301 5.40553 40.2454 5.00992 40.081C4.6143 39.9167 4.25503 39.6758 3.9527 39.3723C3.65037 39.0688 3.41093 38.7086 3.24812 38.3124C2.91744 37.5121 2.91729 36.6134 3.2477 35.813C3.57811 35.0126 4.21218 34.3757 5.01114 34.0416C5.54101 33.8216 6.11993 33.7468 6.68835 33.8247C7.25677 33.9027 7.79415 34.1306 8.24522 34.4852L8.25328 34.4771C8.25821 34.4819 8.26361 34.4863 8.26941 34.49L8.28554 34.5013C8.95816 35.0335 9.23238 35.7028 9.30657 35.8867C9.31255 35.9033 9.31955 35.9194 9.32754 35.9351C9.39367 35.9254 9.61466 35.8593 9.54207 35.5061L9.09043 34.1142L15.1715 31.6047C14.4793 29.3266 14.4141 26.9041 14.9827 24.5921L11.4986 23.2131C11.4777 23.2018 11.4632 23.1906 11.4486 23.1809C11.4413 23.1753 11.4338 23.1699 11.4261 23.1648C10.9831 23.5302 10.451 23.7715 9.88417 23.8639C9.31735 23.9563 8.73616 23.8964 8.20005 23.6905C7.39078 23.3775 6.73861 22.7564 6.38638 21.9635C6.03416 21.1706 6.01061 20.2704 6.3209 19.4601C6.47362 19.0591 6.70395 18.6921 6.99872 18.3802C7.2935 18.0683 7.6469 17.8176 8.03872 17.6424C8.43053 17.4673 8.85304 17.3712 9.28207 17.3595C9.71109 17.3479 10.1382 17.421 10.5389 17.5747C11.0752 17.7829 11.5468 18.1295 11.9058 18.579C12.2648 19.0286 12.4983 19.5652 12.5826 20.1343H12.5907C12.5987 20.1504 12.5987 20.1665 12.5987 20.1762C12.7229 21.0471 12.4503 21.7293 12.3842 21.8987C12.3782 21.9113 12.3728 21.9242 12.3681 21.9374C12.4261 21.9793 12.631 22.0777 12.8197 21.7729L13.452 20.4568L16.1231 21.5213C17.3034 19.265 19.1059 17.3944 21.317 16.1312L18.5846 9.58961C18.5807 9.57588 18.578 9.56186 18.5765 9.54768L18.5685 9.50575C17.9982 9.43417 17.4571 9.21292 17.0002 8.86448C16.5432 8.51605 16.1866 8.05285 15.9667 7.52197C15.6356 6.72153 15.6355 5.8225 15.9663 5.02195C16.2971 4.2214 16.9318 3.58463 17.7313 3.25121C18.396 2.97374 19.1341 2.92458 19.8297 3.11143C20.5254 3.29829 21.1395 3.7106 21.5757 4.28379C22.0119 4.85697 22.2456 5.55864 22.2402 6.27888C22.2349 6.99912 21.9907 7.69724 21.5461 8.26387L21.5541 8.27193C21.5499 8.27697 21.5461 8.28237 21.5428 8.28806C21.538 8.29451 21.5348 8.30097 21.5299 8.30419C21.1664 8.76001 20.6906 9.11349 20.1492 9.32995C20.1324 9.3353 20.1162 9.34232 20.1008 9.35092C20.1105 9.41543 20.1766 9.638 20.5283 9.56381L21.9235 9.11222L24.3269 14.8635C26.7214 14.1961 29.2551 14.2134 31.6403 14.9135L33.3017 12.0105C33.3108 11.9928 33.3216 11.976 33.3339 11.9605C33.3395 11.9531 33.3449 11.9456 33.35 11.9379C32.9982 11.4836 32.7722 10.9447 32.6946 10.3754C32.617 9.80606 32.6906 9.22635 32.9081 8.69449C33.0707 8.29813 33.3101 7.9378 33.6124 7.63418C33.9146 7.33056 34.2739 7.08963 34.6696 6.92524C35.0653 6.76084 35.4895 6.67621 35.918 6.67621C36.3465 6.67621 36.7707 6.76083 37.1664 6.92523C37.9668 7.25996 38.6019 7.8982 38.9327 8.70018C39.2634 9.50215 39.2628 10.4025 38.931 11.204C38.4633 12.333 37.4535 13.0394 36.3293 13.1878V13.1959H36.2873C35.6912 13.2672 35.0869 13.1735 34.5404 12.9249C34.5082 12.9733 34.392 13.1798 34.6969 13.3765L35.9921 14.0442L34.6356 16.2215C36.7737 17.4655 38.5191 19.2851 39.673 21.4729L46.4348 18.6343C46.4379 18.6331 46.4411 18.632 46.4444 18.6311L46.4557 18.6295C46.4627 18.6282 46.4697 18.6272 46.4767 18.6263L46.517 18.6182C46.6654 17.4892 47.3784 16.4699 48.4946 16.0087V16.0087ZM21.8154 24.2824C23.0413 24.2824 24.0317 23.2777 24.0317 22.0406C24.0317 20.802 23.0397 19.7988 21.817 19.7988C20.5912 19.7988 19.6008 20.802 19.6008 22.0406C19.6008 23.2777 20.5928 24.2824 21.8154 24.2824ZM36.2067 32.703C36.2067 33.632 35.4615 34.3852 34.5453 34.3852C33.6259 34.3852 32.8839 33.632 32.8839 32.703C32.8839 31.7756 33.6259 31.0224 34.5453 31.0224C35.4615 31.0224 36.2067 31.7756 36.2067 32.703ZM35.0985 27.6532C36.3212 27.6532 37.3132 26.6501 37.3132 25.4114C37.3132 24.1728 36.3212 23.1696 35.0985 23.1696C33.8743 23.1696 32.8823 24.1728 32.8823 25.4114C32.8823 26.6501 33.8743 27.6532 35.0985 27.6532ZM21.8493 31.5837C21.8493 32.5127 21.1057 33.2643 20.1879 33.2643C19.2701 33.2643 18.5265 32.5127 18.5265 31.5837C18.5265 30.6547 19.2701 29.9015 20.1879 29.9015C21.1057 29.9015 21.8493 30.6547 21.8493 31.5837ZM30.1498 20.9197C31.0676 20.9197 31.8112 20.1665 31.8112 19.2375C31.8112 18.3085 31.0676 17.557 30.1498 17.557C29.2304 17.557 28.4884 18.3085 28.4884 19.2375C28.4884 20.1665 29.2304 20.9197 30.1498 20.9197ZM30.7402 26.5323C30.7402 28.3903 29.2514 29.8951 27.4174 29.8951C25.5802 29.8951 24.0946 28.3903 24.0946 26.5323C24.0946 24.6744 25.5802 23.1696 27.4174 23.1696C29.2514 23.1696 30.7402 24.6744 30.7402 26.5323ZM27.9368 37.7576C29.4659 37.7576 30.7063 36.5028 30.7063 34.9561C30.7063 33.4078 29.4659 32.153 27.9368 32.153C26.4077 32.153 25.1673 33.4078 25.1673 34.9561C25.1673 36.5044 26.4077 37.7576 27.9368 37.7576V37.7576Z" fill="black"/>
</svg>
