<svg role="img" aria-hidden="true" focusable="false" viewBox="0 0 36 36" fill="currentColor" xmlns="http://www.w3.org/2000/svg">
<path d="M21.5936 13.4069C17.7327 11.4317 12.8866 12.9148 10.736 16.6346L17.8761 20.7428L23.6885 26.5728C24.3166 25.973 24.8672 25.2712 25.2648 24.4937C27.3031 20.5099 25.5779 15.4452 21.5936 13.4069Z" fill-opacity="0.2"/>
<path d="M10.1728 7.20714C10.1696 7.47335 10.1663 7.73211 10.163 7.97865L10.1575 8.40674C10.1622 8.53013 10.3166 8.58765 10.421 8.51111C10.7383 8.28474 11.0811 8.03332 11.3673 7.74896C11.7412 7.90157 12.1545 8.00224 12.534 8.08898C12.6597 8.1196 12.7803 8.00688 12.7372 7.89137C12.591 7.5532 12.4301 7.18024 12.2617 6.78965C12.4927 6.44128 12.7186 6.08223 12.9051 5.77004C12.9672 5.6652 12.8921 5.51351 12.7678 5.50934C12.4027 5.50006 11.9708 5.51676 11.5724 5.54923L11.2825 5.16902C11.1462 4.99031 11.0138 4.8168 10.8793 4.64003C10.8417 4.59039 10.7893 4.5723 10.735 4.58297C10.6798 4.59364 10.639 4.63075 10.6233 4.69105C10.5721 4.88641 10.5216 5.07842 10.4699 5.27501L10.3329 5.79695C9.95248 5.91987 9.54705 6.07063 9.21398 6.21908C9.1008 6.27103 9.08966 6.43988 9.18708 6.51271C9.47932 6.72935 9.82538 6.97428 10.1728 7.20714Z"/><path d="M29.0213 5.61182C28.4832 5.48472 27.9539 5.48193 27.4538 5.58167C28.8223 6.49134 29.3497 8.29073 28.6186 9.81458C28.1575 10.7753 27.2979 11.4131 26.3331 11.6307C26.6847 11.8626 27.0804 12.0431 27.5169 12.1461C29.4211 12.5956 31.3165 11.466 31.7336 9.65826C32.1506 7.85051 30.9255 6.06132 29.0213 5.61182Z"/><path d="M6.01555 12.2008C6.28785 12.2755 6.57916 12.3687 6.81899 12.4634C6.90017 12.4963 6.91362 12.615 6.84729 12.6693C6.64782 12.8312 6.41077 13.0154 6.17327 13.1907C6.19043 13.4908 6.20713 13.7775 6.22244 14.0373C6.22337 14.1245 6.11575 14.1704 6.03967 14.1194C5.80866 13.97 5.55816 13.8035 5.34709 13.6115C5.08825 13.7311 4.79971 13.8156 4.53437 13.8889C4.44624 13.9144 4.35764 13.8388 4.38454 13.7557L4.40751 13.6952C4.49367 13.4684 4.58765 13.2209 4.68514 12.963C4.51072 12.7245 4.34001 12.4777 4.19852 12.2634C4.15121 12.1915 4.19945 12.082 4.28713 12.0751C4.54458 12.057 4.84981 12.0547 5.13232 12.0653L5.30829 11.8119C5.40494 11.6728 5.49821 11.5385 5.59295 11.4015C5.618 11.3653 5.65465 11.3505 5.69315 11.3565C5.73165 11.3626 5.76227 11.3871 5.77526 11.4294L6.01555 12.2008Z"/><path d="M18.5607 14.4362L18.5612 14.4432L19.0232 20.5136L19.0255 20.5465C19.0715 21.1486 18.6206 21.6742 18.018 21.7201C17.7633 21.7396 17.5212 21.6695 17.3245 21.5369L12.9538 18.5954L12.9482 18.5917C12.6718 18.4057 12.5985 18.0313 12.7845 17.7549C12.9473 17.5127 13.2553 17.4269 13.5146 17.534L16.8717 18.9192L17.1695 14.4427C17.1951 14.0586 17.5277 13.7678 17.9118 13.7933C18.2624 13.817 18.5352 14.0958 18.5607 14.4362Z"/>
<path fill-rule="evenodd" clip-rule="evenodd" d="M20.1003 10.3202C14.3399 9.08585 8.66984 12.7547 7.43499 18.5156C6.2006 24.2766 9.86944 29.9466 15.6299 31.181C21.3909 32.4154 27.0609 28.747 28.2953 22.9861C29.5301 17.2246 25.8613 11.5551 20.1003 10.3202ZM25.8014 22.4512C24.8639 26.827 20.5406 29.6242 16.1648 28.6867C11.789 27.7487 8.99177 23.4258 9.92928 19.05C10.8668 14.6742 15.1902 11.877 19.5659 12.8145C23.9417 13.752 26.7389 18.0754 25.8014 22.4512Z"/>
</svg>
