<svg xmlns="http://www.w3.org/2000/svg" viewBox="0 0 56 56" fill="currentColor"><g id="database"><path d="M49.41,12.31C48.33,1.85,7.67,1.85,6.59,12.31a1.86,1.86,0,0,0,0,.42V43.21c0,5.78,11.12,8.4,21.46,8.4S49.46,49,49.46,43.21V12.73A1.86,1.86,0,0,0,49.41,12.31ZM45.73,28c0,1.39-6,4.66-17.73,4.66S10.27,29.36,10.27,28V17.73C14.4,20,21.35,21.13,28,21.13s13.6-1.1,17.73-3.4ZM28,8.06c11.7,0,17.73,3.27,17.73,4.67s-6,4.66-17.73,4.66-17.73-3.27-17.73-4.66S16.3,8.06,28,8.06Zm0,39.82c-11.7,0-17.73-3.27-17.73-4.67V33c4.13,2.31,11.08,3.4,17.73,3.4S41.6,35.27,45.73,33V43.21C45.73,44.61,39.7,47.88,28,47.88Z"/></g></svg>