<svg viewBox="0 0 36 36" fill="currentColor" xmlns="http://www.w3.org/2000/svg">
  <path d="M18.75 18.2501C18.6 18.2501 18.51 18.2501 18.52 18.1301C19.0222 18.0316 19.486 17.7924 19.8574 17.4403C20.2288 17.0883 20.4925 16.638 20.6178 16.1419C20.7431 15.6457 20.7249 15.1242 20.5652 14.638C20.4054 14.1519 20.1109 13.7211 19.7157 13.3959C19.3206 13.0707 18.8412 12.8645 18.3334 12.8014C17.8256 12.7382 17.3103 12.8206 16.8475 13.039C16.3848 13.2574 15.9936 13.6029 15.7196 14.0351C15.4456 14.4673 15.3001 14.9684 15.3 15.4801C15.3021 16.1432 15.5517 16.7816 16 17.2701L13.5 21.7201C13.7836 22.0964 13.9723 22.5355 14.05 23.0001C14.3989 23.1813 14.7597 23.3383 15.13 23.4701L18 18.2801L20.87 23.4201C21.2574 23.3107 21.6352 23.1703 22 23.0001C22.0853 22.553 22.2736 22.1319 22.55 21.7701L20.33 17.7701C19.8851 18.0932 19.3498 18.2681 18.8 18.2701"/>
  <path d="M25.69 27.4301C25.4042 27.5309 25.1031 27.5816 24.8 27.5801C24.3985 27.5785 24.0017 27.4931 23.6349 27.3295C23.2682 27.166 22.9396 26.9278 22.67 26.6301L24.75 30.3801H11.25L13.33 26.6301C13.0605 26.9278 12.7318 27.166 12.3651 27.3295C11.9984 27.4931 11.6016 27.5785 11.2 27.5801C10.8969 27.5816 10.5959 27.5309 10.31 27.4301L8.67002 30.3801H7.20002V31.7201H28.8V30.3801H27.33L25.69 27.4301Z"/>
  <path d="M28.69 14.0001C28.4574 12.277 27.8087 10.6364 26.8 9.22014V8.68014C26.8 8.14971 26.5893 7.641 26.2142 7.26593C25.8392 6.89086 25.3304 6.68014 24.8 6.68014C24.6447 6.67976 24.49 6.69993 24.34 6.74014C22.8547 5.64701 21.1113 4.9579 19.28 4.74014C18.9251 4.43132 18.4705 4.26123 18 4.26123C17.5295 4.26123 17.0749 4.43132 16.72 4.74014C14.8898 4.96188 13.1473 5.65061 11.66 6.74014C11.5087 6.70812 11.3546 6.69137 11.2 6.69014C10.6696 6.69014 10.1609 6.90086 9.7858 7.27593C9.41073 7.651 9.20002 8.15971 9.20002 8.69014V9.23014C8.18999 10.6429 7.53799 12.2798 7.30002 14.0001C6.91722 14.1432 6.58741 14.4 6.35499 14.7361C6.12257 15.0723 5.99869 15.4715 6.00002 15.8801V17.0801C5.99798 17.5808 6.18381 18.064 6.52079 18.4343C6.85776 18.8046 7.32137 19.0351 7.82002 19.0801C8.22957 20.2463 8.83862 21.3325 9.62002 22.2901C9.35116 22.6365 9.20359 23.0617 9.20002 23.5001V24.7001C9.17178 24.9628 9.19556 25.2284 9.26998 25.4819C9.34441 25.7353 9.46802 25.9716 9.63377 26.1773C9.96853 26.5927 10.4546 26.8581 10.985 26.9151C11.5154 26.9722 12.0468 26.8161 12.4622 26.4814C12.6679 26.3156 12.8389 26.111 12.9655 25.8791C13.0921 25.6473 13.1718 25.3928 13.2 25.1301C14.1048 25.5971 15.071 25.9338 16.07 26.1301C16.0651 26.1967 16.0651 26.2636 16.07 26.3301V27.5301C16.07 28.0606 16.2807 28.5693 16.6558 28.9444C17.0309 29.3194 17.5396 29.5301 18.07 29.5301C18.6004 29.5301 19.1092 29.3194 19.4842 28.9444C19.8593 28.5693 20.07 28.0606 20.07 27.5301V26.3301C20.0754 26.2669 20.0754 26.2034 20.07 26.1401C21.0694 25.9451 22.0358 25.6083 22.94 25.1401C23.049 25.6184 23.3299 26.04 23.7293 26.3246C24.1287 26.6093 24.6189 26.7373 25.1065 26.6842C25.5941 26.6311 26.0453 26.4007 26.3741 26.0367C26.7029 25.6728 26.8865 25.2006 26.89 24.7101V23.5101C26.8864 23.0717 26.7389 22.6465 26.47 22.3001C27.246 21.3388 27.8545 20.2536 28.27 19.0901C28.7687 19.0451 29.2323 18.8146 29.5692 18.4443C29.9062 18.074 30.092 17.5908 30.09 17.0901V15.8901C30.0862 15.4676 29.9487 15.0571 29.6972 14.7176C29.4457 14.378 29.0931 14.1269 28.69 14.0001ZM24.15 8.68014C24.15 8.50775 24.2185 8.34242 24.3404 8.22052C24.4623 8.09862 24.6276 8.03014 24.8 8.03014C24.9724 8.03014 25.1377 8.09862 25.2596 8.22052C25.3815 8.34242 25.45 8.50775 25.45 8.68014V9.48014H24.15V8.68014ZM17.35 6.28014C17.35 6.10775 17.4185 5.94242 17.5404 5.82052C17.6623 5.69862 17.8276 5.63014 18 5.63014C18.1724 5.63014 18.3377 5.69862 18.4596 5.82052C18.5815 5.94242 18.65 6.10775 18.65 6.28014V7.08014H17.35V6.28014ZM10.55 8.68014C10.55 8.50775 10.6185 8.34242 10.7404 8.22052C10.8623 8.09862 11.0276 8.03014 11.2 8.03014C11.3724 8.03014 11.5377 8.09862 11.6596 8.22052C11.7815 8.34242 11.85 8.50775 11.85 8.68014V9.48014H10.55V8.68014ZM8.65002 16.6801H7.35002V15.8801C7.35002 15.7078 7.4185 15.5424 7.5404 15.4205C7.6623 15.2986 7.82763 15.2301 8.00002 15.2301C8.17241 15.2301 8.33774 15.2986 8.45964 15.4205C8.58153 15.5424 8.65002 15.7078 8.65002 15.8801V16.6801ZM11.85 24.2801H10.55V23.4801C10.55 23.3078 10.6185 23.1424 10.7404 23.0205C10.8623 22.8986 11.0276 22.8301 11.2 22.8301C11.3724 22.8301 11.5377 22.8986 11.6596 23.0205C11.7815 23.1424 11.85 23.3078 11.85 23.4801V24.2801ZM18.65 27.0801H17.35V26.2801C17.35 26.1078 17.4185 25.9424 17.5404 25.8205C17.6623 25.6986 17.8276 25.6301 18 25.6301C18.1724 25.6301 18.3377 25.6986 18.4596 25.8205C18.5815 25.9424 18.65 26.1078 18.65 26.2801V27.0801ZM25.45 24.2801H24.15V23.4801C24.15 23.3078 24.2185 23.1424 24.3404 23.0205C24.4623 22.8986 24.6276 22.8301 24.8 22.8301C24.9724 22.8301 25.1377 22.8986 25.2596 23.0205C25.3815 23.1424 25.45 23.3078 25.45 23.4801V24.2801ZM26.87 18.7201C26.4865 19.743 25.9319 20.6932 25.23 21.5301C25.0898 21.4933 24.945 21.4765 24.8 21.4801C24.2696 21.4801 23.7609 21.6909 23.3858 22.0659C23.0107 22.441 22.8 22.9497 22.8 23.4801V23.6101C21.7432 24.2339 20.5746 24.645 19.36 24.8201C18.9902 24.4772 18.5044 24.2866 18 24.2866C17.4956 24.2866 17.0098 24.4772 16.64 24.8201C15.4258 24.6432 14.2576 24.2323 13.2 23.6101V23.4801C13.2 22.9497 12.9893 22.441 12.6142 22.0659C12.2392 21.6909 11.7304 21.4801 11.2 21.4801C11.052 21.4814 10.9045 21.4982 10.76 21.5301C10.0612 20.6928 9.50995 19.7425 9.13002 18.7201C9.3968 18.5375 9.61531 18.2928 9.76683 18.0072C9.91835 17.7216 9.99837 17.4035 10 17.0801V15.8801C9.99984 15.4691 9.87303 15.0681 9.63684 14.7317C9.40065 14.3953 9.06656 14.1399 8.68002 14.0001C8.84979 12.9878 9.18779 12.0109 9.68002 11.1101C9.86527 11.3477 10.1018 11.5403 10.3719 11.6736C10.642 11.807 10.9388 11.8776 11.24 11.8801C11.7704 11.8801 12.2792 11.6694 12.6542 11.2944C13.0293 10.9193 13.24 10.4106 13.24 9.88014V8.68014C13.2426 8.28411 13.124 7.89676 12.9 7.57014C13.8463 6.94876 14.8962 6.50171 16 6.25014V7.48014C16 8.01058 16.2107 8.51928 16.5858 8.89436C16.9609 9.26943 17.4696 9.48014 18 9.48014C18.5304 9.48014 19.0392 9.26943 19.4142 8.89436C19.7893 8.51928 20 8.01058 20 7.48014V6.25014C21.1191 6.49286 22.1836 6.94038 23.14 7.57014C22.9137 7.89561 22.7948 8.28373 22.8 8.68014V9.88014C22.8 10.4106 23.0107 10.9193 23.3858 11.2944C23.7609 11.6694 24.2696 11.8801 24.8 11.8801C25.1012 11.8776 25.398 11.807 25.6681 11.6736C25.9382 11.5403 26.1748 11.3477 26.36 11.1101C26.8476 12.013 27.1853 12.989 27.36 14.0001C26.966 14.1332 26.6233 14.3858 26.3795 14.7228C26.1358 15.0597 26.0031 15.4643 26 15.8801V17.0801C26.0017 17.4035 26.0817 17.7216 26.2332 18.0072C26.3847 18.2928 26.6032 18.5375 26.87 18.7201ZM28.65 16.7201H27.35V15.9201C27.35 15.7478 27.4185 15.5824 27.5404 15.4605C27.6623 15.3386 27.8276 15.2701 28 15.2701C28.1724 15.2701 28.3377 15.3386 28.4596 15.4605C28.5815 15.5824 28.65 15.7478 28.65 15.9201V16.7201Z"/>
</svg>
