<svg xmlns="http://www.w3.org/2000/svg" viewBox="0 0 56 56" fill="currentColor"><g id="doorstroom_evenementen"><path d="M29.3,28.5l-.09,0c-.26,0-.41,0-.4-.2a4.6,4.6,0,0,0,2.3-1.19,4.62,4.62,0,0,0-2.62-7.95,4.62,4.62,0,0,0-5.2,4.59,4.54,4.54,0,0,0,1.2,3.07L20.2,34.42a5,5,0,0,1,.95,2.19,15.24,15.24,0,0,0,1.85.81l4.92-8.91,4.93,8.82a13.16,13.16,0,0,0,1.93-.72,5,5,0,0,1,.95-2.11l-3.81-6.86A4.56,4.56,0,0,1,29.3,28.5Z"/><path d="M41.11,44.21a4.62,4.62,0,0,1-1.52.26,4.93,4.93,0,0,1-2-.43,5,5,0,0,1-1.66-1.2l3.57,6.43H16.34l3.57-6.43a4.93,4.93,0,0,1-3.65,1.63,4.68,4.68,0,0,1-1.53-.26l-2.81,5.06H9.4v2.3H46.45v-2.3H43.93Z"/><path d="M48,22.4a3.47,3.47,0,0,0-1.73-1.23A18.41,18.41,0,0,0,43,13v-.92a3.43,3.43,0,0,0-3.43-3.43,2.64,2.64,0,0,0-.79.1,18.21,18.21,0,0,0-8.68-3.43,3.35,3.35,0,0,0-4.39,0,18.42,18.42,0,0,0-8.68,3.43,3.55,3.55,0,0,0-.79-.09,3.43,3.43,0,0,0-3.43,3.43V13a18.32,18.32,0,0,0-3.26,8.18A3.39,3.39,0,0,0,8,22.44a3.35,3.35,0,0,0-.61,2v2.06a3.39,3.39,0,0,0,.89,2.32,3.47,3.47,0,0,0,2.23,1.11,18.2,18.2,0,0,0,3.09,5.5,3.43,3.43,0,0,0-.72,2.08v2.06a3.46,3.46,0,0,0,.74,2.53,3.47,3.47,0,0,0,2.32,1.27,3.41,3.41,0,0,0,2.53-.75,3.32,3.32,0,0,0,.87-1,3.61,3.61,0,0,0,.4-1.28A18.66,18.66,0,0,0,24.61,42a1.93,1.93,0,0,0,0,.34v2.06a3.43,3.43,0,1,0,6.86,0V42.32a1.71,1.71,0,0,0,0-.32,18.28,18.28,0,0,0,4.93-1.72,3.39,3.39,0,0,0,1.35,2,3.43,3.43,0,0,0,4.54-.49,3.4,3.4,0,0,0,.88-2.27V37.49a3.41,3.41,0,0,0-.72-2.08,18.82,18.82,0,0,0,3.09-5.51,3.41,3.41,0,0,0,3.12-3.43V24.41A3.42,3.42,0,0,0,48,22.4ZM38.47,12.05a1.13,1.13,0,0,1,1.12-1.12,1.13,1.13,0,0,1,.79.33,1.1,1.1,0,0,1,.32.79v1.37H38.47ZM26.81,7.93a1.15,1.15,0,0,1,.32-.79,1.13,1.13,0,0,1,.79-.33A1.13,1.13,0,0,1,29,7.93V9.3H26.81ZM15.14,12.05a1.13,1.13,0,0,1,1.12-1.12,1.13,1.13,0,0,1,.79.33,1.1,1.1,0,0,1,.32.79v1.37H15.14ZM11.88,25.77H9.65V24.4a1.13,1.13,0,0,1,1.12-1.12,1.13,1.13,0,0,1,.79.33,1.1,1.1,0,0,1,.32.79Zm5.49,13H15.14V37.44a1.13,1.13,0,0,1,1.12-1.12,1.13,1.13,0,0,1,.79.33,1.1,1.1,0,0,1,.32.79ZM29,43.61H26.81V42.24a1.15,1.15,0,0,1,.32-.79,1.13,1.13,0,0,1,.79-.33A1.13,1.13,0,0,1,29,42.24Zm11.66-4.8H38.47V37.44a1.13,1.13,0,0,1,1.12-1.12,1.13,1.13,0,0,1,.79.33,1.1,1.1,0,0,1,.32.79Zm-.37-4.72a3.06,3.06,0,0,0-.74-.09,3.43,3.43,0,0,0-3.43,3.44v.22a16.19,16.19,0,0,1-5.9,2.07,3.45,3.45,0,0,0-4.67,0,16.12,16.12,0,0,1-5.9-2.07v-.22A3.45,3.45,0,0,0,16.26,34a4.78,4.78,0,0,0-.76.09,16.5,16.5,0,0,1-2.79-4.82,3.46,3.46,0,0,0,1.09-1.22,3.41,3.41,0,0,0,.4-1.59V24.4a3.43,3.43,0,0,0-2.27-3.23,16.25,16.25,0,0,1,1.72-5,3.4,3.4,0,0,0,1.19,1,3.48,3.48,0,0,0,1.49.36,3.45,3.45,0,0,0,3.43-3.44v-2a3.34,3.34,0,0,0-.59-1.91,16.47,16.47,0,0,1,5.32-2.26V10a3.43,3.43,0,0,0,6.86,0V7.88a15.82,15.82,0,0,1,5.39,2.26,3.26,3.26,0,0,0-.58,1.91v2a3.43,3.43,0,0,0,3.43,3.44,3.55,3.55,0,0,0,1.49-.36,3.36,3.36,0,0,0,1.18-1,16.25,16.25,0,0,1,1.72,5,3.43,3.43,0,0,0-2.33,3.23v2.06a3.41,3.41,0,0,0,.4,1.59,3.37,3.37,0,0,0,1.09,1.22A16.78,16.78,0,0,1,40.33,34.09Zm5.86-8.25H44V24.47a1.13,1.13,0,0,1,1.12-1.12,1.13,1.13,0,0,1,.79.33,1.1,1.1,0,0,1,.32.79Z"/></g></svg>