<svg xmlns="http://www.w3.org/2000/svg" viewBox="0 0 56 56" fill="currentColor"><g id="download"><path d="M42.15,39.78V44.5H13.85V39.78H6.77v9.43a2.36,2.36,0,0,0,.69,1.67,2.4,2.4,0,0,0,1.67.69H46.87a2.4,2.4,0,0,0,1.67-.69,2.36,2.36,0,0,0,.69-1.67V39.78Z"/><path d="M25.5,38.54a3.19,3.19,0,0,0,5,0L44.13,21.48a3.13,3.13,0,0,0,.71-2.08,3.2,3.2,0,0,0-2.75-3.08,3.16,3.16,0,0,0-2.14.46l-7.23,4.51V7.75c0-2.56-2.22-3.33-4.72-3.33s-4.72.77-4.72,3.33V21.29l-7.22-4.51a3.2,3.2,0,0,0-2.15-.46,3.2,3.2,0,0,0-2.75,3.08,3.17,3.17,0,0,0,.71,2.09L25.5,38.54Z"/></g></svg>