<svg xmlns="http://www.w3.org/2000/svg" viewBox="0 0 56 56" fill="currentColor"><g id="een_persoon_doorgestreept"><path d="M28.84,12.69c2.35,0,3.7-1.73,3.7-4.13,0-2.76-1.35-4.13-3.7-4.13s-3.69,1.72-3.69,4.13C25.15,11.31,26.49,12.69,28.84,12.69Z"/><path d="M33.88,19.91a24.28,24.28,0,0,1,1,7.57v3.1l2,2.07a1.92,1.92,0,0,0,1-1.72c.34-5.51.67-14.8-4-16.18a23.16,23.16,0,0,0-9.74,0,4.17,4.17,0,0,0-2.69,2.07L33.88,29.55Z"/><path d="M13.39,11.31,11,13.37l8.73,9a37.2,37.2,0,0,0-.07,5.78c0,.88.07,1.71.07,2.48a2.76,2.76,0,0,0,2.69,3.1V25.07l1,1V51.57c2.35,0,4-1.37,4-3.78,0,0,.67-14.46.67-14.8a.34.34,0,1,1,.67,0l.67,14.8a4,4,0,0,0,4,3.78V37.12l8.74,9L45,43.66Z"/></g></svg>