<svg viewBox="0 0 56 56" fill="currentColor" xmlns="http://www.w3.org/2000/svg">
<g id="elderly-people">
<path d="M7 50.6994C7 50.6994 8.30178 41.3208 10.7723 38.8304C12.7537 36.8338 19.5725 34.4163 22.2439 33.5215C22.4819 32.5933 22.6557 31.6995 22.7755 30.9229C21.2388 29.2182 20.0882 27.1738 19.7726 24.8228C18.2154 24.3786 17.9028 21.3975 17.9028 20.2761C17.9028 19.1537 18.1161 18.547 18.5524 18.3582C18.654 18.3144 18.7505 18.3168 18.8484 18.3083C18.6301 16.5721 18.0301 10.6809 19.6526 8.64491C20.9611 7.00366 23.4458 6.0206 25.7148 5.41835C28.9807 4.55127 30.2497 5.15385 32.1137 6.1169C34.9564 5.41937 36.4471 6.4594 37.673 8.59371C38.9636 10.8382 38.3135 16.5707 38.0809 18.2964C38.1999 18.2981 38.3217 18.3042 38.4478 18.3585C38.8839 18.547 39.0972 19.1537 39.0972 20.2761C39.0972 21.3975 38.7849 24.3789 37.2274 24.8228C36.835 27.2616 35.7072 29.2823 34.1849 30.9656C34.3002 31.7303 34.4796 32.6072 34.737 33.515C37.3956 34.4048 44.242 36.8291 46.2278 38.8304C48.6985 41.3208 50 50.6994 50 50.6994H7Z"/>
</g>
</svg>
