<svg xmlns="http://www.w3.org/2000/svg" viewBox="0 0 56 56" fill="currentColor"><g id="elderly"><path d="M50.87,27,28.59,5.66a1,1,0,0,0-1.28,0L5,27a2,2,0,0,0-.61,1.42v1.42a1,1,0,0,0,.94,1H9.13V50.58H46.77V30.77h3.77a1,1,0,0,0,.94-1V28.39A2,2,0,0,0,50.87,27ZM14.93,45.83s.79-5.68,2.29-7.19c1.2-1.21,5.33-2.67,6.94-3.21a14.29,14.29,0,0,0,.32-1.58,6.89,6.89,0,0,1-1.81-3.69c-1-.27-1.14-2.07-1.14-2.75s.13-1.05.4-1.16a.38.38,0,0,1,.18,0c-.14-1.06-.5-4.62.48-5.86a7.13,7.13,0,0,1,3.67-1.95,4.4,4.4,0,0,1,3.88.42,2.68,2.68,0,0,1,3.37,1.5c.78,1.36.38,4.83.24,5.88a.43.43,0,0,1,.22,0c.27.11.4.48.4,1.16s-.19,2.48-1.13,2.75a7.15,7.15,0,0,1-1.85,3.72,12.09,12.09,0,0,0,.34,1.54c1.61.54,5.75,2,7,3.22C40.18,40.15,41,45.83,41,45.83Z"/></g></svg>