<svg xmlns="http://www.w3.org/2000/svg" fill="currentColor" viewBox="0 0 56 56"><g id="expand"><path d="M51.25,6.77A2.4,2.4,0,0,0,51.09,6a2.23,2.23,0,0,0-.5-.76,2.37,2.37,0,0,0-.77-.5h0a2.14,2.14,0,0,0-.75-.16h-17a2.27,2.27,0,1,0,0,4.53H43.52L30.47,22.17a2.26,2.26,0,0,0,3.2,3.2l13-13V23.77a2.27,2.27,0,0,0,4.53,0v-17Z" stroke="currentColor" /><path d="M25.21,30.62a2.28,2.28,0,0,0-3.21,0L9,43.67V32.22a2.27,2.27,0,0,0-4.53,0v17h0a2.47,2.47,0,0,0,.17.77h0a2.29,2.29,0,0,0,.5.75,2.26,2.26,0,0,0,.76.51,2.38,2.38,0,0,0,.75.15h17a2.27,2.27,0,1,0,0-4.53H12.16L25.21,33.83A2.28,2.28,0,0,0,25.21,30.62Z" stroke="currentColor" /></g></svg>