<svg xmlns="http://www.w3.org/2000/svg" viewBox="0 0 56 56" fill="currentColor"><g id="experimenteel"><path d="M38.44,4.42H17.56c-1.12,0-1.38,2,0,2.37.77.21,1.68.44,2.33.6V43.44a8.13,8.13,0,1,0,16.26,0v-36c.65-.16,1.56-.39,2.33-.6C39.82,6.41,39.56,4.42,38.44,4.42ZM32.88,20.68H24.75V43.44a3.57,3.57,0,0,0,1.69,2.85,6.82,6.82,0,0,0,4.47.91c.1.09,0,.24-.13.35a4.84,4.84,0,0,1-2.73.85H28a4.83,4.83,0,0,1-4.83-4.83V7.67h9.76Z"/><path d="M29.63,13.37a1.62,1.62,0,0,0,1.62-1.63,1.62,1.62,0,0,0-1.62-1.63,1.59,1.59,0,0,0-1.15.48A1.6,1.6,0,0,0,28,11.74a1.64,1.64,0,0,0,1.63,1.63Z"/><path d="M26.37,18.24a1.62,1.62,0,0,0,1.15-2.77A1.59,1.59,0,0,0,26.37,15a1.62,1.62,0,0,0-1.62,1.63,1.6,1.6,0,0,0,1.62,1.62Z"/></g></svg>