<svg xmlns="http://www.w3.org/2000/svg" viewBox="0 0 56 56" fill="currentColor"><path d="M28.0428 40.9994C23.6639 40.9833 19.8618 39.2926 16.3242 36.8691C13.4368 34.8923 10.935 32.4881 8.71046 29.7817C7.86272 28.7499 7.73205 27.461 8.54474 26.4742C12.2544 21.9614 16.5473 18.1815 22.0927 16.1051C27.262 14.1669 32.2369 14.874 37.0078 17.4776C41.0202 19.6665 44.3443 22.6879 47.2763 26.1721C48.2069 27.2778 48.2452 28.6888 47.3592 29.7528C44.0957 33.6741 40.3414 36.9848 35.7011 39.1898C33.2631 40.3469 30.6051 40.9897 28.0428 40.9994V40.9994ZM36.6158 28.0363C36.6254 23.2632 32.7819 19.3322 28.0874 19.3129C23.3579 19.2936 19.4411 23.1764 19.4251 27.8981C19.4092 32.7613 23.1858 36.6505 27.9504 36.6762C32.734 36.7052 36.6062 32.8416 36.6158 28.0363Z" /><path d="M28.0065 22.0001C31.3491 22.022 34.0338 24.7159 33.9997 28.0186C33.9624 31.3432 31.2467 34.0309 27.9475 33.9997C24.6483 33.9716 21.945 31.2059 22.0009 27.9219C22.0567 24.6004 24.7166 21.9814 28.0065 22.0001V22.0001Z"/></svg>
