<svg width="56" height="56" viewBox="0 0 56 56" fill="none" xmlns="http://www.w3.org/2000/svg">
<rect width="56" height="56" fill="white"/>
<path d="M43.3415 7H25.3739C24.8211 7 24.5447 7.27643 23.9919 7.55286L11.5529 19.9919C11.2764 20.5447 11 20.8211 11 21.3739V47.9106C11 48.7399 11.8292 49.5691 12.6584 49.5691H43.3415C44.1707 49.5691 45 48.7399 45 47.9106V8.65855C45 7.82929 44.1707 7 43.3415 7ZM40.8537 45.4228H15.1465V22.4797L12.3822 21.6504C12.1057 21.6504 12.1057 21.3739 12.1057 21.3739H24.2684C24.8211 21.3739 25.0976 21.0976 25.0976 20.5447V8.38212C25.0976 8.38212 25.3739 8.38212 25.3739 8.65855L26.2032 11.4228H40.3009V45.4228H40.8537Z" fill="black"/>
<path d="M37.5361 18.8862H28.967V21.374H37.5361V18.8862Z" fill="black"/>
<path d="M37.2605 27.4556H24.5451V29.9434H37.2605V27.4556Z" fill="black"/>
<path d="M22.8863 27.4554H18.74V29.9432H22.8863V27.4554Z" fill="black"/>
<path d="M37.2605 32.431H24.5451V34.9188H37.2605V32.431Z" fill="black"/>
<path d="M22.8863 32.431H18.74V34.9188H22.8863V32.431Z" fill="black"/>
<path d="M22.8863 37.6832H18.74V40.171H22.8863V37.6832Z" fill="black"/>
<path d="M37.2605 37.6833H24.5451V40.1711H37.2605V37.6833Z" fill="black"/>
</svg>
