<svg width="56" height="56" viewBox="0 0 56 56" fill="none" xmlns="http://www.w3.org/2000/svg">
<rect width="56" height="56" fill="white"/>
<path fill-rule="evenodd" clip-rule="evenodd" d="M14.0019 20.8154C14.0019 13.1182 19.9839 7 27.501 7C35.018 7 41 13.1182 41 20.8154C41 23.3811 40.0358 25.7494 39.0716 28.1177C38.4757 29.6374 34.5513 37.6267 31.4639 43.9126L29.0437 48.8408C28.658 49.4348 28.0795 49.8276 27.499 49.8276C26.7315 49.8276 26.1491 49.4348 25.9563 48.8408C23.0636 42.9199 16.6959 30.0914 15.9284 28.1177C14.9642 25.7514 14 23.385 14 20.8173L14.0019 20.8154ZM19.4015 20.8154C19.4015 25.3547 23.0656 29.1046 27.501 29.1046C31.9364 29.1046 35.6004 25.3547 35.6004 20.8154C35.594 19.3683 35.2187 17.9479 34.512 16.6946C33.8052 15.4413 32.7911 14.3984 31.57 13.6689C30.3384 12.9211 28.9329 12.5264 27.501 12.5261C23.0656 12.5261 19.4015 16.2721 19.4015 20.8134V20.8154Z" fill="black"/>
<path d="M30.9981 20.5044C30.9976 20.9639 30.9065 21.4189 30.7302 21.8433C30.5539 22.2677 30.2957 22.6532 29.9705 22.9778C29.6452 23.3024 29.2592 23.5597 28.8344 23.7351C28.4097 23.9105 27.9546 24.0005 27.4951 24C27.0356 23.9995 26.5808 23.9085 26.1564 23.7321C25.7321 23.5558 25.3466 23.2976 25.0221 22.9723C24.6975 22.6469 24.4402 22.2609 24.2649 21.8361C24.0895 21.4113 23.9995 20.9562 24 20.4966C24.001 19.5682 24.3708 18.6783 25.0279 18.0225C25.685 17.3668 26.5756 16.999 27.5039 17C28.4321 17.001 29.322 17.3708 29.9776 18.028C30.6333 18.6852 31.001 19.576 31 20.5044H30.9981Z" fill="black"/>
</svg>
