<svg xmlns="http://www.w3.org/2000/svg" viewBox="0 0 56 56" fill="currentColor"><g id="frisse_lucht"><path d="M31.72,39.45H21.1V13.2a1.22,1.22,0,0,0-.56-1L12.33,7.62H31.91v7.14a9.43,9.43,0,0,1,2.89-1.42V5.73a1.3,1.3,0,0,0-1.38-1.31H6.84a1.76,1.76,0,0,0-1.7,1.5V42.06A1.75,1.75,0,0,0,6,43.3l13,8.1a1.46,1.46,0,0,0,2.17-1.12V42.62H33.42c1.07,0,1.33-1.07,1.33-1.61V32.59a13.16,13.16,0,0,1-3,1.4ZM12.05,43.09a.17.17,0,0,1-.26.14L8.32,41.06a.16.16,0,0,1-.08-.14V26.57a.17.17,0,0,1,.25-.14L12,28.34a.19.19,0,0,1,.09.15Zm0-17.6a.17.17,0,0,1-.25.15L8.33,23.7a.19.19,0,0,1-.09-.15V9.21a.17.17,0,0,1,.25-.15L12,11a.19.19,0,0,1,.09.15ZM18.11,47a.16.16,0,0,1-.25.15l-3.47-2.22a.16.16,0,0,1-.08-.14V29.84a.17.17,0,0,1,.25-.15L18,31.61a.16.16,0,0,1,.08.15Zm0-18.22a.16.16,0,0,1-.25.14L14.4,27a.16.16,0,0,1-.09-.15V12.48a.17.17,0,0,1,.25-.15L18,14.25a.16.16,0,0,1,.08.14Z"/><path d="M50.64,17.61,45,12.82a.81.81,0,0,0-1,1l1.66,2.76c-1.77.42-2.85-.4-3.9-1s-5.48-2.22-8.47.14c-2.39,1.89-5.29.75-6.51,0a1.45,1.45,0,0,0-1.93.56,1.63,1.63,0,0,0,.67,2.26,10,10,0,0,0,4.67,1.31c.75,0,3.29-.35,4.34-1.31a5.68,5.68,0,0,1,2.92-1.12C39,17.35,41,18.68,42,19.19a9.86,9.86,0,0,0,3.64.56l-1.4,2.18a1,1,0,0,0-.09,1.26c.39.42.74.33.86.23,1.71-1.43,5.23-4.4,5.62-4.81A.68.68,0,0,0,50.64,17.61Z"/><path d="M47.31,28.78c-1.21.75-4.12,1.89-6.51,0-3-2.36-7.42-.77-8.47-.14s-2.12,1.45-3.9,1l1.66-2.76a.81.81,0,0,0-1-1.05l-5.67,4.79a.69.69,0,0,0,0,1c.39.41,3.91,3.38,5.62,4.81.13.1.48.19.87-.24a1,1,0,0,0-.1-1.26l-1.4-2.17a9.83,9.83,0,0,0,3.64-.56c1-.51,3-1.84,4.58-1.75a5.71,5.71,0,0,1,2.92,1.12c1,1,3.59,1.31,4.34,1.31a10,10,0,0,0,4.66-1.31,1.64,1.64,0,0,0,.68-2.26A1.47,1.47,0,0,0,47.31,28.78Z"/><path d="M34.78,20.2a6.86,6.86,0,0,1-3,1.07v5.84a6.92,6.92,0,0,1,3-1.12Z"/></g></svg>