<svg role="img" aria-hidden="true" focusable="false" viewBox="0 0 36 36" fill="currentColor" xmlns="http://www.w3.org/2000/svg"><path d="M18.4971 12.2051C19.566 12.2051 20.1846 11.449 20.1846 10.3603C20.1846 9.12029 19.5382 8.45508 18.4971 8.45508C17.4003 8.45508 16.8096 9.24134 16.8096 10.3603C16.8096 11.5399 17.4285 12.2051 18.4971 12.2051Z"/><path d="M28.9033 19.0284C28.6759 17.8078 28.3947 17.1402 28.292 16.292C28.0648 14.4141 27.4914 13.5116 26.4248 13.1833C25.9168 13.027 25.4325 12.9551 24.8811 12.9551H24.8615C24.3101 12.9551 23.8258 13.027 23.3178 13.1833C22.9592 13.2937 22.6576 13.4709 22.405 13.7263C22.661 14.0843 22.8531 14.5092 22.995 14.9768C23.0139 14.9419 23.0288 14.9149 23.0288 14.9149C23.0199 14.951 23.0151 14.9818 23.0074 15.0163C23.5082 16.7073 23.3719 18.9343 23.2742 20.5214C23.214 21.504 22.6935 22.0873 22.0875 22.3329C22.0791 22.5327 22.0732 22.739 22.0732 22.9594C22.0732 22.9594 22.5576 23.0546 23.1823 23.0801L23.2612 28.3301C23.2612 28.3301 24.4665 28.146 24.5484 26.9665C24.5484 26.9665 24.6496 24.3265 24.6967 22.9784C24.7581 22.9687 24.8184 22.9598 24.8813 22.9485C24.9343 22.939 24.9877 22.9319 25.041 22.9241C25.0872 24.2407 25.1905 26.933 25.1905 26.933C25.2517 28.1482 26.4815 28.3301 26.4815 28.3301L26.5573 22.9012C27.1275 22.9555 27.669 23.0481 27.669 23.0481C27.669 20.1774 26.9081 19.0317 26.6698 18.1319C26.5432 17.6538 26.5698 17.1532 26.685 16.6744C26.7932 16.2242 26.9323 15.8049 26.7139 14.915C26.7139 14.915 26.8288 15.1169 26.8749 15.2477C27.1309 15.9747 27.0564 17.3811 28.0884 20.6221C28.5379 20.5645 29.0883 20.0217 28.9033 19.0284Z"/><path d="M22.7125 20.5203C22.8588 18.1416 23.133 13.8668 20.7996 13.2384C19.4652 12.879 17.6996 12.8478 16.1934 13.2384C13.8546 13.8449 14.134 18.1416 14.2805 20.5203C14.3471 21.6021 15.1024 21.9086 15.6001 21.9086C15.6001 21.9086 15.6001 19.6903 15.6001 18.9813C15.6001 17.678 15.6196 16.4475 15.9037 15.6914C15.9529 15.5605 16.0297 15.5451 16.059 15.5803V29.8303C17.1018 29.8303 17.9339 29.2567 18.023 28.1047C18.023 28.1047 18.2962 21.7856 18.2991 21.7098C18.302 21.634 18.3735 21.5355 18.4965 21.5355C18.6195 21.5355 18.6913 21.634 18.6942 21.7098C18.6972 21.7856 18.97 28.1047 18.97 28.1047C19.0594 29.2613 19.8991 29.8303 20.934 29.8303V15.5803C20.9809 15.5393 21.0486 15.5532 21.0893 15.6914C21.3149 16.4592 21.3932 17.6897 21.3932 18.9813C21.3932 19.6903 21.3932 21.9086 21.3932 21.9086C21.8905 21.9086 22.6459 21.602 22.7125 20.5203Z"/><path d="M15.4971 8.83008C16.3286 8.83008 16.8096 8.22524 16.8096 7.35434C16.8096 6.36213 16.3068 5.83008 15.4971 5.83008C14.6441 5.83008 14.1846 6.45895 14.1846 7.35434C14.1846 8.29784 14.6658 8.83008 15.4971 8.83008Z"/><path d="M21.4971 8.83008C22.3286 8.83008 22.8096 8.22524 22.8096 7.35434C22.8096 6.36213 22.3068 5.83008 21.4971 5.83008C20.6441 5.83008 20.1846 6.45895 20.1846 7.35434C20.1846 8.29784 20.6658 8.83008 21.4971 8.83008Z"/><path d="M24.6846 12.2051C25.6345 12.2051 26.1846 11.6063 26.1846 10.5449C26.1846 9.53759 25.6594 8.83008 24.6846 8.83008C23.7591 8.83008 23.1846 9.42865 23.1846 10.5449C23.1846 11.5246 23.7342 12.2051 24.6846 12.2051Z"/><path d="M14.8335 13.3623C14.7077 13.2954 14.5748 13.2394 14.4316 13.2002C13.2466 12.876 11.2934 12.876 10.1528 13.2002C9.58561 13.3614 9.1595 13.7571 8.89321 14.3128C8.18544 15.7897 6.66504 20.3175 6.66504 20.3175C6.75916 20.3845 6.92191 20.3997 7.10818 20.3772C7.24981 21.8335 7.85529 28.054 7.88416 28.2857C7.91128 28.5029 8.64534 28.4312 8.62235 28.1981C8.59824 27.9532 8.17111 21.9112 8.03394 19.9682C8.17801 19.8444 8.29865 19.696 8.37136 19.5234C8.66926 18.8159 8.99458 18.012 9.2129 17.3975C9.49535 16.6025 9.6791 16.0275 9.91839 15.5152C9.96954 15.4058 10.018 15.3394 10.0704 15.3863V28.3297C10.9544 28.3297 11.6045 27.7952 11.6857 26.7422C11.6857 26.7422 11.9373 20.9831 11.9399 20.9136C11.9425 20.844 12.0058 20.7532 12.1252 20.7532C12.2446 20.7532 12.3006 20.844 12.3035 20.9136C12.3065 20.9831 12.5555 26.7527 12.5555 26.7527C12.6148 27.7691 13.1817 28.3297 14.1841 28.3297V21.8111C13.9309 21.5063 13.7568 21.0972 13.7233 20.56C13.591 18.4443 13.3557 14.8692 14.8335 13.3623Z"/><path d="M10.8244 10.3211C10.8182 10.395 10.8093 10.4672 10.8093 10.5448C10.8093 11.6063 11.3594 12.205 12.3093 12.205C13.2597 12.205 13.8093 11.5246 13.8093 10.5448C13.8093 9.96966 13.7482 9.07064 13.2064 8.87391C12.9641 8.78605 12.4846 8.84444 11.9686 8.97457C11.9646 8.97535 11.961 8.97655 11.9571 8.97734C11.0295 9.21292 10.0661 9.68133 10.0616 9.96993C10.0572 10.2408 10.448 10.259 10.8244 10.3211Z"/></svg>
