<svg xmlns="http://www.w3.org/2000/svg" viewBox="0 0 56 56" fill="currentColor"><g id="gedeeltelijk_open_rugzak"><path d="M33.69,9.54C26.48,11.7,23,21.14,22.55,28.77c-.45,0-.76-.57-.76-1.19C21.79,11.57,32,8.32,32,8.32a7.53,7.53,0,0,0-4.4-.84C26.54,6,24.74,3.9,22.26,4.54a3.71,3.71,0,0,0-2.53,2.69,6.73,6.73,0,0,0,.5,4.71,14.73,14.73,0,0,0-1.14,1.79,7.77,7.77,0,0,0-6.48.08C10.11,15.19,8.7,18.27,8.43,23c-.58,10,5.42,18.19,7.78,21,.12,1,.24,1.89.36,2.63a4.08,4.08,0,0,0,2.93,3.27c2.66.74,6.36,1.38,8,1.64a5.19,5.19,0,0,0,1.62,0c5.86-1,13-5.76,16.53-8.38a4.86,4.86,0,0,0,1.95-4.44C46.14,25.59,44.56,6.29,33.69,9.54ZM22,7.9c.54-1.82,2.2-1.15,3.16.19a12.72,12.72,0,0,0-3,1.79c-.06,0-.11.11-.17.15A4.27,4.27,0,0,1,22,7.9ZM15.7,38c-2.21-3.61-4.55-8.91-4.2-14.83.2-3.51,1.1-5.8,2.59-6.63a4.64,4.64,0,0,1,3.76,0C15.61,22.78,15.35,31.24,15.7,38Z"/></g></svg>