<svg aria-hidden="true"  viewBox="0 0 37 36" fill="none" xmlns="http://www.w3.org/2000/svg">
  <path fill-rule="evenodd" clip-rule="evenodd" d="M21.156 8.103c0 1.2-.682 2.035-1.862 2.035-1.18 0-1.862-.734-1.862-2.035 0-1.235.652-2.103 1.862-2.103 1.15 0 1.862.733 1.862 2.103Zm-6.347 3.134c.158.043.304.105.443.18-1.618 1.648-1.374 5.548-1.228 7.889l.003.051c.037.593.23 1.045.509 1.381v7.607c-1.106 0-1.732-.619-1.797-1.74l-.278-6.857a.187.187 0 0 0-.197-.177c-.132 0-.202.1-.205.177-.002.076-.28 6.846-.28 6.846-.09 1.161-.807 1.75-1.783 1.75V13.65c-.057-.052-.129.014-.167.143-.242.795-.3 1.665-.3 2.554v3.622c-.505 0-1.295-.315-1.409-1.409-.222-2.145-.392-6.653 1.967-7.322 1.26-.358 3.414-.358 4.722 0Zm7.026.041c-1.472-.397-3.42-.432-5.082 0-2.566.665-2.277 5.352-2.114 7.986l.003.049c.073 1.194.907 1.532 1.456 1.532v-3.23c0-1.438.021-2.796.335-3.63.054-.145.139-.162.171-.123V30c1.15 0 2.07-.632 2.167-1.904l.305-7.47a.214.214 0 0 1 .218-.193c.136 0 .215.109.218.193l.304 7.47C19.915 29.372 20.842 30 21.984 30V13.862c.051-.045.126-.03.17.122.25.848.336 2.206.336 3.63v3.231c.55 0 1.383-.338 1.456-1.532l.002-.037c.162-2.631.45-7.309-2.113-7.998Zm-7.713-2.973c0 1.082-.607 1.832-1.655 1.832-1.049 0-1.655-.661-1.655-1.832 0-1.11.579-1.89 1.655-1.89 1.02 0 1.655.659 1.655 1.89Zm9.213 3.111a2.12 2.12 0 0 1 .444-.179c1.307-.358 3.462-.358 4.721 0 2.36.67 2.19 5.177 1.967 7.322-.113 1.094-.903 1.409-1.408 1.409v-3.622c0-.89-.059-1.759-.3-2.555-.04-.128-.11-.194-.168-.142v14.696c-.976 0-1.693-.59-1.783-1.751l-.28-6.846c-.003-.078-.073-.177-.205-.177-.131 0-.193.1-.196.177l-.278 6.857c-.066 1.121-.691 1.74-1.797 1.74v-7.607c.279-.336.471-.788.508-1.38l.003-.053c.147-2.34.39-6.24-1.228-7.889Zm1.131-3.111c0 1.082.607 1.832 1.656 1.832 1.048 0 1.655-.661 1.655-1.832 0-1.11-.58-1.89-1.655-1.89-1.022 0-1.656.659-1.656 1.89Z" fill="#000"/>
</svg>
