<svg xmlns="http://www.w3.org/2000/svg" viewBox="0 0 56 56" fill="currentColor"><g id="geen_max_aantal_bezoekers"><path d="M41.36,12.61c2.06,0,3.24-1.29,3.24-3.59s-1.13-3.69-3.24-3.69S38.12,6.62,38.12,9C38.12,11.14,39.31,12.61,41.36,12.61Z"/><path d="M14.64,12.61c2.05,0,3.24-1.47,3.24-3.59,0-2.4-1.25-3.69-3.24-3.69S11.4,6.85,11.4,9,12.59,12.61,14.64,12.61Z"/><path d="M28,12.61c2.31,0,3.64-1.63,3.64-4C31.64,6,30.25,4.51,28,4.51s-3.64,1.7-3.64,4.12S25.69,12.61,28,12.61Z"/><path d="M46,14.76a20.59,20.59,0,0,0-9.24,0,4.66,4.66,0,0,0-.87.35c3.17,3.23,2.69,10.86,2.4,15.44v.11a4.59,4.59,0,0,1-1,2.7V48.25a3.23,3.23,0,0,0,3.52-3.41l.54-13.42a.38.38,0,0,1,.39-.35.39.39,0,0,1,.4.35l.55,13.4a3.34,3.34,0,0,0,3.49,3.43V19.48c.11-.1.25,0,.33.28a17.41,17.41,0,0,1,.58,5v7.09a2.78,2.78,0,0,0,2.76-2.76C50.31,24.9,50.64,16.07,46,14.76Z"/><path d="M33,14.84a20.74,20.74,0,0,0-9.94,0c-5,1.3-4.46,10.48-4.14,15.63v.1a2.86,2.86,0,0,0,2.85,3V27.25c0-2.82,0-5.48.65-7.11.11-.28.27-.32.34-.24V51.49A3.9,3.9,0,0,0,27,47.76l.59-14.62a.43.43,0,0,1,.43-.38.43.43,0,0,1,.43.38L29,47.76a3.91,3.91,0,0,0,4.25,3.73V19.9c.1-.09.24-.06.33.24a28.4,28.4,0,0,1,.66,7.1v6.33a2.87,2.87,0,0,0,2.85-3V30.5C37.43,25.35,38,16.19,33,14.84Z"/><path d="M17.69,30.56c-.29-4.59-.77-12.22,2.4-15.44a4.19,4.19,0,0,0-.87-.36h0a20.31,20.31,0,0,0-9.24,0C5.36,16.07,5.7,24.9,6.13,29.1a2.78,2.78,0,0,0,2.76,2.75V24.76a17.29,17.29,0,0,1,.58-5c.08-.26.22-.39.33-.28V48.25a3.34,3.34,0,0,0,3.49-3.43s.55-13.25.55-13.4a.39.39,0,0,1,.4-.35h0a.38.38,0,0,1,.39.35l.54,13.42a3.23,3.23,0,0,0,3.52,3.41V33.36a4.52,4.52,0,0,1-1-2.7Z"/></g></svg>