<svg xmlns="http://www.w3.org/2000/svg" viewBox="0 0 56 56"><g id="geen_entertainment"><path d="M44.24,4.42,35.34,15.5a15.52,15.52,0,0,0-2.26-.17c-5,.18-6.43,1.79-7.08,2.64a57.32,57.32,0,0,0-2.49,5.47,32.26,32.26,0,0,1-6.23-2.94A3.1,3.1,0,0,0,18,24.14c.91.85,5.25,2.94,6.37,2.56.8-.28,2-2.34,2.88-3.94.36-.62.67-1.17.91-1.53.15.85.3,1.74.46,2.65L9.17,48.06l2.59,2.08L46.83,6.5Z"/><path d="M14.14,17.53a2.31,2.31,0,0,0,1,0A2.2,2.2,0,0,0,16,17a2.08,2.08,0,0,0,.58-.79,2.12,2.12,0,0,0,.19-1V9.84l2.94,1V8.61h0L15.26,6.37V13.8a3.38,3.38,0,0,0-1.12-.26c-1.44,0-2.59.73-2.59,1.85S12.73,17.39,14.14,17.53Z"/><path d="M26.8,12.13A3.38,3.38,0,0,0,29,13.88a3.28,3.28,0,0,0,1.43,0h0a3.3,3.3,0,0,0,2.49-1.39,3.28,3.28,0,0,0,.44-2.81A3.44,3.44,0,0,0,33,8.31a3.48,3.48,0,0,0-.91-1.14,3.39,3.39,0,0,0-1.29-.67,3.55,3.55,0,0,0-1.45-.07,3.27,3.27,0,0,0-2.52,1.45,3.3,3.3,0,0,0-.54,1.38,3.41,3.41,0,0,0,.12,1.49A3.33,3.33,0,0,0,26.8,12.13Z"/><path d="M23.43,39.72c.37,1.38.77,2.81,1.1,4s.61,2.18.65,2.39A4.52,4.52,0,0,0,27.91,42c-.23-1.64-.82-5.18-1.05-6.55Z"/><path d="M27.57,34.57a31.75,31.75,0,0,1,5.07-1.5c0,1.88,0,4.43-.15,6.22a39.38,39.38,0,0,1-.6,4.34A30.82,30.82,0,0,0,31.41,47a4,4,0,0,0,.48,2.76,4,4,0,0,0,2.16,1.79,81.87,81.87,0,0,0,2.61-12.48,68.13,68.13,0,0,0-.22-15.57Z"/><path d="M41.89,18l-.67-.42-2.1,2.61.39.19a41.43,41.43,0,0,1-.79,7.2,3.15,3.15,0,0,0,2.94-2.5c.32-1.7,1-6.34,0-7.11Z"/></g></svg>