<svg xmlns="http://www.w3.org/2000/svg" viewBox="0 0 56 56"><g id="geen_wedstrijden"><path d="M23.85,21.62c1.61.46,3-.69,3.46-2.31.23-1.84-.46-3.23-2.08-3.46-1.85-.46-3,.46-3.46,2.31A2.57,2.57,0,0,0,23.85,21.62Z"/><path d="M47.62,49.78,10.22,12.39,8.38,14.23l8.95,9a7.18,7.18,0,0,0-2.95,1.21,12.76,12.76,0,0,0-2.54,4.15,2.45,2.45,0,0,0,.7,3c.09-.15.25-.42.44-.76.76-1.33,2.15-3.77,3.25-4.32a7.07,7.07,0,0,1,3-.69c-.69,2.76-1.39,6.46-1.62,7.84-.41,2.3.87,3.09,2.49,4.08l.51.31h-.23A3.3,3.3,0,0,1,20,38a7.15,7.15,0,0,0-1.47-.17c-.46,1.15-1.62,3.46-2.08,4.38a22.76,22.76,0,0,1-4.85-.92,3,3,0,0,0-3.23,1.85c1.85.69,6.46,2.31,8.31,2.31,1.15,0,1.62-.47,2.31-1.62.34-.51.71-1.11,1.08-1.72A32.44,32.44,0,0,1,22,39.16c.92.46,2.31,1.16,3,1.62.12.81.23,2.19.35,3.58s.23,2.77.34,3.57a3.35,3.35,0,0,0,2.77,2.77,52.25,52.25,0,0,0,.23-6V40.78a3.45,3.45,0,0,0-.46-2.08c-.23-.69-.92-1.38-4.85-4.15.24-.93.47-2,.7-3,.1-.45.19-.89.29-1.33L36.11,42a3.23,3.23,0,1,0,3.41,3.42l6.26,6.25Z"/><path d="M34.23,30.62c-1.62-.11-2.77-.23-3.58-.34l2,2A2.27,2.27,0,0,0,34.23,30.62Z"/><path d="M23.47,23.1l3.39,3.38h0l-.12-.27A4.4,4.4,0,0,0,23.47,23.1Z"/><path d="M35.85,6.39c.46.23.92-.24,1.15-.7a.8.8,0,0,0-.69-1.15c-.69-.23-.92.23-1.15.69S35.16,6.15,35.85,6.39Z"/><path d="M41.39,13.31c.92.23,1.62-.23,1.85-1.38a1.56,1.56,0,0,0-1.16-2.08A1.81,1.81,0,0,0,40,11.23C40,12.39,40.24,13.08,41.39,13.31Z"/><path d="M34.08,13.72c.05-.06.09-.12.15-.18.12-.23.29-.52.47-.81s.34-.57.46-.8a1.74,1.74,0,0,0,.92.46c0,.23.06.69.12,1.15s.1.85.11,1.1a1.75,1.75,0,0,0-.46.29,4.58,4.58,0,0,0-1.2,1.6,7.19,7.19,0,0,1-.42.7,1.44,1.44,0,0,0,.47,1.85,6.38,6.38,0,0,0,.46-.74,8.91,8.91,0,0,1,1.61-2.26,3,3,0,0,1,1.85-.46A29.8,29.8,0,0,0,38,18.74c-.11.61-.19,1.14-.28,1.5-.21,1.22.49,1.72,1.29,2.3l.32.23h-.23a4,4,0,0,1-1.15-.23,8.87,8.87,0,0,1-1.39,2.54,11.45,11.45,0,0,1-2.15-.34,4.89,4.89,0,0,0-.62-.12c-1.15-.23-1.61,1.16-1.61,1.16A19.16,19.16,0,0,0,37,27.16c.7,0,.93-.23,1.39-.92A30.91,30.91,0,0,0,40,23.47l1.85.92a14.68,14.68,0,0,1,.23,2.08,16.14,16.14,0,0,0,.23,2.07,1.89,1.89,0,0,0,1.62,1.62,17.19,17.19,0,0,1,.12-1.89,13.34,13.34,0,0,0,.11-1.57V24.39a1.72,1.72,0,0,0-.23-1.15c-.17-.33-.45-.54-1.34-1.22-.36-.27-.83-.62-1.43-1.09.08-.39.15-.8.23-1.21.15-.82.31-1.64.46-2.25a5,5,0,0,0,1.62,2.07,7.86,7.86,0,0,0,2.31.23,1.82,1.82,0,0,0,1.61-1.15c-1-.12-1.65-.25-2.12-.34a5.86,5.86,0,0,0-.88-.12c-.46-.23-1.15-1.62-1.38-2.08,0-.08-.08-.16-.12-.24C42.49,15,42.11,14.21,40,14a6.91,6.91,0,0,0-2.77.3V12.39a.88.88,0,0,0-.23-.7c0-.23-.23-.46-1.61-1.38a2.62,2.62,0,0,0,.69-1.85A5.1,5.1,0,0,0,37,9.62a1.47,1.47,0,0,0,1.39,0c.52.17.65,0,.78-.26a.72.72,0,0,1,.14-.2,5.4,5.4,0,0,1-1.61-.24A3.1,3.1,0,0,1,37,7.77l0-.12a1.51,1.51,0,0,0-1.56-1,5.83,5.83,0,0,0-2.31.46,7.16,7.16,0,0,0-.92,1.38.7.7,0,0,0,.23.93,3.91,3.91,0,0,0,.32-.52,3,3,0,0,1,.83-1.1.73.73,0,0,0,.3-.09,1.62,1.62,0,0,1,.62-.14,8.39,8.39,0,0,0-.69,2.54c-.21.84.35,1.11.8,1.32l.13.06H34l-.23.52a3.41,3.41,0,0,1-.46.87,6.45,6.45,0,0,1-1.05-.15c-.26,0-.47-.08-.57-.08a1,1,0,0,0-.92.69,12.21,12.21,0,0,0,2.77.69A.53.53,0,0,0,34.08,13.72Z"/></g></svg>