<svg width="56" height="56" viewBox="0 0 56 56" fill="#000" xmlns="http://www.w3.org/2000/svg">
    <path d="M48.4573 26.2444L28.5688 7.22648C28.2471 6.92451 27.7527 6.92451 27.431 7.22648L7.54264 26.2444C7.19684 26.5694 7 27.0272 7 27.5068V28.7778C7 29.2516 7.37618 29.6357 7.84 29.6357H11.2V47.32H44.7999V29.6357H48.1599C48.6237 29.6357 49 29.2516 49 28.7778V27.5068C49 27.0272 48.803 26.5694 48.4573 26.2444ZM25.8336 17.9405C26.0975 16.2465 27.1635 15.2002 28.7977 15.4684C30.3491 15.7231 31.1559 16.888 30.8632 18.7656C30.6066 20.4138 29.5064 21.4071 27.9134 21.1458C26.3208 20.8843 25.5552 19.726 25.8336 17.9405ZM26.5999 44.6461C22.2623 44.6461 18.746 41.0928 18.746 36.7095C18.746 34.3044 19.8091 32.1579 21.4827 30.7069C21.4773 30.9091 21.4746 31.1035 21.4758 31.2861C21.481 32.0862 21.689 32.8054 22.0562 33.414C21.3939 34.3414 21 35.4771 21 36.7095C21 39.8348 23.5072 42.3684 26.5999 42.3684C28.7543 42.3684 30.6216 41.1373 31.5583 39.335C31.667 39.6402 31.7678 39.921 31.8519 40.1517C32.0891 40.8019 32.3673 41.3234 32.666 41.7506C31.2255 43.5184 29.0433 44.6461 26.5999 44.6461ZM33.297 39.6138C32.7958 38.2402 31.858 35.5472 31.3426 33.8871C31.3014 33.884 27.5377 33.8871 26.0558 33.8871C24.574 33.8871 23.0278 33.0988 23.016 31.2758C23.0073 29.9489 23.1952 27.8426 23.5564 25.8323C23.004 26.1579 22.2983 26.5628 22.01 27.1135C21.5076 27.936 21.0569 29.2364 20.6704 30.1205C20.4725 30.5282 19.7507 31.7562 18.3607 31.4083C18.7246 29.9014 19.3422 27.3514 19.9871 25.9439C20.1671 25.5544 20.3168 25.3348 20.7457 24.8602C22.0202 23.5423 24.5504 22.3396 25.0659 22.163C26.134 21.6225 27.9052 21.7645 28.7414 22.8116C29.377 23.6075 29.1798 24.3917 29.0108 25.6677C28.8794 26.6592 28.7026 28.0652 28.4337 29.7565C29.5344 29.987 31.5143 30.4236 32.555 30.8402C33.2518 31.1479 33.5696 31.3966 33.957 32.326C34.7425 34.3185 35.8931 39.7888 36.4 41.8864C35.8779 42.0183 34.2669 42.2751 33.297 39.6138Z"/>
</svg>
