<svg xmlns="http://www.w3.org/2000/svg" viewBox="0 0 56 56"><g id="gehandicaptenzorg"><path d="M51,27,28.64,5.62a.93.93,0,0,0-1.28,0L5,27a1.93,1.93,0,0,0-.61,1.42v1.42a1,1,0,0,0,1,1H9.14V50.63H46.86V30.78h3.77a1,1,0,0,0,.95-1V28.39A1.93,1.93,0,0,0,51,27Zm-25.4-9.32c.29-1.91,1.49-3.08,3.33-2.78s2.64,1.59,2.31,3.7c-.28,1.85-1.52,3-3.31,2.67S25.26,19.65,25.57,17.65Zm.86,30A8.92,8.92,0,0,1,20.68,32c0,.23,0,.44,0,.65A4.5,4.5,0,0,0,21.33,35,6.3,6.3,0,1,0,32,41.67c.13.34.24.65.33.91a7.73,7.73,0,0,0,.92,1.8A8.79,8.79,0,0,1,26.43,47.63ZM34,42c-.57-1.54-1.62-4.57-2.2-6.43H25.82c-1.67,0-3.4-.89-3.42-2.93A37.51,37.51,0,0,1,23,26.51a4.44,4.44,0,0,0-1.73,1.43,30,30,0,0,0-1.51,3.38,2.31,2.31,0,0,1-2.59,1.45A41.32,41.32,0,0,1,19,26.63a4.15,4.15,0,0,1,.86-1.21,16.71,16.71,0,0,1,4.85-3,3.57,3.57,0,0,1,4.12.73c.72.89.49,1.77.3,3.2-.14,1.11-.34,2.69-.64,4.59a34.49,34.49,0,0,1,4.62,1.22,2.5,2.5,0,0,1,1.58,1.67c.88,2.23,2.17,8.38,2.74,10.73C36.84,44.68,35,45,34,42Z"/></g></svg>