<svg width="36" height="36" viewBox="0 0 36 36"  fill="currentColor" xmlns="http://www.w3.org/2000/svg">
<path d="M13.7002 10.75V23.47C12.9959 22.9453 12.135 22.6736 11.257 22.6991C10.3791 22.7246 9.5354 23.0457 8.86268 23.6105C8.18997 24.1752 7.72757 24.9505 7.55039 25.8108C7.37321 26.671 7.49162 27.5659 7.88643 28.3505C8.28125 29.1351 8.92935 29.7635 9.72579 30.1338C10.5222 30.5042 11.4204 30.5949 12.2748 30.3911C13.1291 30.1874 13.8897 29.7013 14.4334 29.0114C14.977 28.3215 15.2719 27.4683 15.2702 26.59V16.44L27.0002 12.52V21.13C26.2959 20.6053 25.435 20.3336 24.557 20.3591C23.6791 20.3846 22.8354 20.7057 22.1627 21.2705C21.49 21.8352 21.0276 22.6105 20.8504 23.4708C20.6732 24.331 20.7916 25.2259 21.1864 26.0105C21.5812 26.7951 22.2294 27.4235 23.0258 27.7938C23.8222 28.1642 24.7204 28.2549 25.5748 28.0511C26.4291 27.8474 27.1897 27.3613 27.7334 26.6714C28.277 25.9815 28.5719 25.1283 28.5702 24.25V5.5L13.7002 10.75Z"/>
</svg>
