<svg viewBox="0 0 56 56" fill="currentColor" xmlns="http://www.w3.org/2000/svg">
  <path
    d="M44.7041 47.253H32.3147C32.2932 46.9778 32.2608 46.7026 32.2554 46.4274C32.2338 42.7311 32.2068 39.0348 32.2068 35.3385C32.2068 34.896 32.1259 34.6964 31.6294 34.7018C29.1419 34.7234 26.6597 34.718 24.1721 34.718C24.0857 34.718 23.9994 34.7395 23.7836 34.7719V47.28C23.4598 47.28 23.2601 47.28 23.0659 47.28C19.3696 47.28 15.6733 47.2638 11.9824 47.2962C11.3402 47.3016 11.1999 47.0912 11.1999 46.503C11.2053 41.1339 11.1783 35.7648 11.1891 30.4011C11.1891 29.8615 11.0812 29.6511 10.4876 29.6834C9.5973 29.7266 8.69615 29.6618 7.80041 29.6618C7.29318 29.6618 7.09892 29.4028 7.03956 28.928C6.87228 27.6491 7.22842 26.6616 8.24288 25.7443C13.7307 20.7907 19.1537 15.767 24.6092 10.7702C25.4833 9.97159 26.3791 9.19456 27.2748 8.42832C27.9385 7.86173 28.1004 7.85094 28.7587 8.43371C30.5125 9.98778 32.2608 11.5526 33.9929 13.1337C38.6012 17.3588 43.1824 21.6217 47.823 25.8144C48.7512 26.6562 49.1073 27.5628 48.9724 28.7499C48.9077 29.3219 48.6864 29.6672 48.0551 29.6618C47.1593 29.6511 46.2636 29.6834 45.3678 29.6511C44.9092 29.6349 44.7257 29.759 44.7311 30.2392C44.7473 31.8419 44.7203 33.4445 44.7257 35.0525C44.7311 38.8837 44.7419 42.7149 44.7527 46.5461C44.7527 46.762 44.7257 46.9832 44.7041 47.2692V47.253Z" />
</svg>