<svg role="img" aria-hidden="true" focusable="false" viewBox="0 0 36 36" fill="currentColor" xmlns="http://www.w3.org/2000/svg"><path d="M21.8722 14.9366C21.8722 15.8733 21.4129 16.4587 20.4942 16.4587C19.6903 16.4587 19.1161 15.8733 19.1161 14.9366C19.1161 13.9999 19.5755 13.2974 20.4942 13.2974C21.4129 13.2974 21.8722 13.8828 21.8722 14.9366Z"/><path d="M17.3362 17.3369C17.3936 17.3662 17.451 17.3954 17.5084 17.3954C16.2885 18.6393 16.4609 21.4121 16.5776 23.2881L16.5898 23.484C16.5898 23.8353 16.8194 24.1866 17.0491 24.5378V30.2751C16.1304 30.2751 15.6711 29.8068 15.6711 28.9872L15.4414 23.8353C15.4414 23.8353 15.4414 23.7182 15.3266 23.7182C15.2117 23.7182 15.2117 23.8353 15.2117 23.8353L14.982 28.9872C14.8672 29.8068 14.293 30.2751 13.604 30.2751V19.1518C13.604 19.0347 13.4892 19.1518 13.4892 19.1518C13.2595 19.8543 13.2595 20.4397 13.2595 21.1423V23.9524C12.915 23.9524 12.3408 23.7182 12.1111 22.7815C11.9963 21.2594 11.8815 17.7467 13.604 17.2784C14.6375 17.0442 16.2452 17.0442 17.1639 17.2784C17.2214 17.2784 17.2788 17.3076 17.3362 17.3369Z"/><path d="M22.4464 17.2784C21.298 16.9271 19.92 16.9271 18.6568 17.2784C16.7302 17.8561 16.9286 21.2848 17.0445 23.2878L17.0491 23.3669C17.0491 24.3036 17.7381 24.5378 18.0826 24.5378V22.079C18.0826 21.0252 18.0826 19.9714 18.3123 19.2689C18.3123 19.1518 18.4271 19.1518 18.4271 19.1518V31.446C19.231 31.446 19.92 30.9777 20.0348 30.041L20.2645 24.4207C20.2645 24.3036 20.3794 24.3036 20.3794 24.3036C20.4942 24.3036 20.4942 24.4207 20.4942 24.4207C20.4942 24.5378 20.7239 30.041 20.7239 30.041C20.8387 30.9777 21.5277 31.446 22.3316 31.446V19.2689C22.3316 19.2689 22.4464 19.2689 22.4464 19.3859C22.6761 19.9714 22.6761 21.0252 22.6761 22.1961V24.6549C23.1354 24.6549 23.7096 24.4207 23.7096 23.484C24.0541 21.3764 24.2838 17.8638 22.4464 17.2784Z"/><path d="M16.7046 15.0537C16.7046 15.8733 16.2452 16.4587 15.4414 16.4587C14.6375 16.4587 14.1782 15.9904 14.1782 15.0537C14.1782 14.2341 14.6375 13.6486 15.4414 13.6486C16.2452 13.6486 16.7046 14.117 16.7046 15.0537Z"/><path d="M28.7628 16.1594L18.3109 6.28023C18.1677 6.13706 17.8814 6.13706 17.7382 6.28023L7.28635 16.1594C7.14318 16.3026 7 16.5889 7 16.8753V17.5912C7 17.8775 7.14318 18.0207 7.42953 18.0207H9.14764V27.3271H12.604V24.8333C12.4028 24.7595 12.2007 24.6485 12.0102 24.4931C11.5988 24.1576 11.2973 23.6615 11.1399 23.0196L11.1202 22.9393L11.114 22.8567C11.0553 22.0798 10.9899 20.7277 11.18 19.4837C11.2748 18.8637 11.4422 18.2043 11.751 17.641C12.0663 17.0659 12.5707 16.523 13.3416 16.3134L13.3622 16.3078L13.383 16.3031L13.4368 16.2912C13.2494 15.9076 13.1782 15.4777 13.1782 15.0537C13.1782 14.4646 13.3438 13.8614 13.7522 13.3894C14.1758 12.8999 14.7785 12.6486 15.4414 12.6486C16.0382 12.6486 16.6552 12.8278 17.1106 13.323C17.5533 13.8045 17.7046 14.4354 17.7046 15.0537C17.7046 15.4818 17.6171 15.9175 17.4125 16.3047C17.4929 16.3218 17.559 16.3442 17.6072 16.3626C17.635 16.3732 17.6618 16.3846 17.686 16.3954H18.1515C18.2218 16.368 18.2945 16.343 18.3696 16.3205L18.3792 16.3176L18.3889 16.3149L18.4548 16.2969C18.2256 15.8928 18.1161 15.4237 18.1161 14.9366C18.1161 14.3198 18.2658 13.6685 18.6739 13.1484C19.1072 12.5962 19.7512 12.2974 20.4942 12.2974C21.1783 12.2974 21.8367 12.5256 22.2987 13.085C22.7331 13.6109 22.8722 14.2854 22.8722 14.9366C22.8722 15.3893 22.7913 15.8577 22.5749 16.2743C22.6299 16.2895 22.6846 16.3055 22.7389 16.3221L22.75 16.3256C23.5216 16.5714 24.0338 17.1211 24.3544 17.7368C24.666 18.3352 24.8191 19.0324 24.8906 19.7046C25.0306 21.0209 24.8811 22.4916 24.7084 23.5719C24.6904 24.2176 24.4717 24.7817 24.0232 25.1737C23.8038 25.3654 23.564 25.4854 23.3316 25.5576V27.3271H26.7583V17.8775H28.4764C28.7628 17.8775 28.906 17.7343 28.906 17.448V16.8753C29.0491 16.5889 29.0491 16.3026 28.7628 16.1594Z"/></svg>
