<svg xmlns="http://www.w3.org/2000/svg" viewBox="0 0 56 56" fill="currentColor"><g id="home_and_visits"><path d="M35.22,20.77c0-2-.85-3.06-2.57-3.06S30.08,19,30.08,20.77a2.56,2.56,0,0,0,2.57,2.84C34.37,23.61,35.22,22.52,35.22,20.77Z"/><path d="M25.35,36.35c-.22-3.5-.54-8.67,1.73-11a.87.87,0,0,1-.32-.11.82.82,0,0,0-.32-.11,16.86,16.86,0,0,0-6.64,0c-3.21.87-3,7.43-2.79,10.27.43,1.74,1.5,2.18,2.15,2.18V32.35a11,11,0,0,1,.43-3.71s.21-.22.21,0V49.39A2.58,2.58,0,0,0,22.37,47l.43-9.61a.21.21,0,0,1,.21-.22.22.22,0,0,1,.22.22L23.66,47c0,1.53.85,2.41,2.57,2.41V38.68a3.94,3.94,0,0,1-.86-2Z"/><path d="M38.65,36.72c.64-3.93,1.07-10.49-2.36-11.58a13,13,0,0,0-7.06,0c-3.6,1.08-3.23,7.47-3,11.21v.15a2,2,0,0,0,1.92,2.18V34.1a19.11,19.11,0,0,1,.43-5.25.21.21,0,0,1,.22-.21V51.57a2.85,2.85,0,0,0,3-2.62l.42-10.49a.21.21,0,0,1,.22-.21.21.21,0,0,1,.21.21c0,.22.43,10.49.43,10.49a2.85,2.85,0,0,0,3,2.62V28.85a.21.21,0,0,1,.21.22,17.5,17.5,0,0,1,.43,5.24V38.9C37.58,38.9,38.65,38.46,38.65,36.72Z"/><path d="M25.58,21c0-1.75-.85-2.62-2.35-2.62A2.34,2.34,0,0,0,20.87,21c0,1.75.86,2.62,2.36,2.62A2.33,2.33,0,0,0,25.58,21Z"/><path d="M48.08,23.05,28.58,4.62a.83.83,0,0,0-1.07,0L8,23.05a2.08,2.08,0,0,0-.53,1.34v1.33a.71.71,0,0,0,.8.81h3.21V43.89h6.44V39.23a3.62,3.62,0,0,1-1.1-.63,5,5,0,0,1-1.63-2.75l0-.15,0-.15a29.06,29.06,0,0,1,.13-6.3,10.51,10.51,0,0,1,1.06-3.43,4.84,4.84,0,0,1,3-2.48h.08l.1,0A5.27,5.27,0,0,1,19,21a4.64,4.64,0,0,1,1.08-3.1,4.05,4.05,0,0,1,3.15-1.39,4.13,4.13,0,0,1,3.11,1.26A4.65,4.65,0,0,1,27.45,21a4.88,4.88,0,0,1-.55,2.33l.37.11.14.06h.87l.41-.14h0l.12,0a5.09,5.09,0,0,1-.63-2.54,5.35,5.35,0,0,1,1-3.33A4.5,4.5,0,0,1,36,17.32a5.32,5.32,0,0,1,1.07,3.45,5.34,5.34,0,0,1-.56,2.5l.31.09h0a5.11,5.11,0,0,1,3,2.64,10.07,10.07,0,0,1,1,3.67,28.07,28.07,0,0,1-.34,7.21,4,4,0,0,1-1.27,3,3.63,3.63,0,0,1-1.29.72v3.3h6.39V26.26h3.2a.71.71,0,0,0,.81-.8V24.39C48.61,23.85,48.61,23.32,48.08,23.05Z"/></g></svg>