<svg xmlns="http://www.w3.org/2000/svg" viewBox="0 0 56 56"><g id="horeca_evenementen"><path d="M28.66,9.7l6.59-2.31c.33,0,.33-.66,0-.66L28.66,4.42c-.33,0-.66,0-.66.33V9.37C28,9.7,28.33,10,28.66,9.7Z"/><path d="M46.13,34.43l1.32-.33a1.81,1.81,0,0,0,1-1.65V28.16c0-.66-.33-1.32-1-1.32-3-1.65-13.19-7.25-18.79-14.83a1,1,0,0,0-1.32,0c-5.6,7.58-15.83,13.18-18.79,14.83-.66.33-1,.66-1,1.32v4c0,.66.33,1.32,1,1.32a3.69,3.69,0,0,0,4.94-.66s2.64,3.95,9.23.66c0,0,.66,0,0,.66-1,1-5.27,3.95-9.56,1a6.43,6.43,0,0,1-3.62,1c-1.65,11.21-3.63,15.5-3.63,15.5H19.76C24.7,51.57,28,38.38,28,38.38s3.3,13.19,8.24,13.19H50.09S47.78,46.63,46.13,34.43ZM22.4,27.17H12.83A66.3,66.3,0,0,0,27.34,16C26.35,18.27,24.37,24.54,22.4,27.17Zm11.53,0c-2.3-2.63-4.28-8.9-5.27-11.21A57.41,57.41,0,0,0,43.17,27.17Z"/></g></svg>