<svg xmlns="http://www.w3.org/2000/svg" viewBox="0 0 56 56" fill="currentColor"><g id="horeca_en_evenementen_etendrinken"><path d="M28.05,22.43c-1.84,0-3.68,2.46-3.68,5.22h7.37C31.74,24.58,29.89,22.43,28.05,22.43Z"/><path d="M28.05,30.11a2.1,2.1,0,0,0-2.15,2.15,1.69,1.69,0,0,0,.93,1.53v4.3h2.45v-4.3a1.69,1.69,0,0,0,.92-1.53A2.1,2.1,0,0,0,28.05,30.11Z"/><path d="M51.07,26.73,28.67,5.56a.93.93,0,0,0-1.23,0L5,26.73a2.34,2.34,0,0,0-.62,1.54V29.8a.82.82,0,0,0,.92.92H9v20H46.77V30.41h3.68a.81.81,0,0,0,.93-.92V28.27C51.68,27.65,51.68,27,51.07,26.73ZM34.8,39c0,.61-.61.92-1.22,1.22a41.25,41.25,0,0,1-5.53.31,41.2,41.2,0,0,1-5.52-.31A1.32,1.32,0,0,1,21.3,39,31.55,31.55,0,0,1,21,34.1a31.42,31.42,0,0,1,.31-4.91c0-.62.62-.92,1.23-1.23.31-4,2.76-7.37,5.52-7.37S33,23.36,33.58,27a.3.3,0,0,1-.31.3l-1.53,1.54a1.23,1.23,0,0,0-.47.15,1,1,0,0,1-.46.16h.31A5.53,5.53,0,0,0,33.58,28l.3-.31a4.23,4.23,0,0,0,.38.31c.27.2.54.41.54.61a35,35,0,0,1,.31,5.53A33.65,33.65,0,0,1,34.8,39Z"/></g></svg>