<svg xmlns="http://www.w3.org/2000/svg" viewBox="0 0 56 56" fill="currentColor"><g id="horeca_en_evenementen_bestellen"><path d="M27,4.42c-.52,0-.77.26-1,.77L25.44,16a.81.81,0,0,1-.77.77A.68.68,0,0,1,23.9,16l-1-10.76a.77.77,0,1,0-1.54,0L20.57,16a.81.81,0,0,1-.77.77A.68.68,0,0,1,19,16L18,5.19a.68.68,0,0,0-.77-.77.82.82,0,0,0-.77.77l-.77,12c0,1.79,1.79,3.58,4.36,4.35-1,12-1.54,27.16-1.54,27.93,0,1,1.54,2,3.59,2s3.58-.77,3.58-2c0-.77-.51-15.12-1.28-26.65a4.89,4.89,0,0,1-2.56-.77.25.25,0,0,1-.26-.25h.52c3.33,0,6.4-2.31,6.4-4.61l-.77-12A.82.82,0,0,0,27,4.42Z"/><path d="M40.3,25.18c-.51-5.13-1.79-16.4-5.64-20.24a1.37,1.37,0,0,0-2.3.76V49.78c0,1,1.53,1.53,2.3,1.53,2.56,0,6.15-1.79,2.31-23.83h.77A2.36,2.36,0,0,0,40.3,25.18Z"/></g></svg>