<svg xmlns="http://www.w3.org/2000/svg" viewBox="0 0 56 56" fill="currentColor"><g id="horeca_en_evenementen_evenementen"><path d="M28.29,9a.38.38,0,0,0,.32.05l5.8-2A.37.37,0,0,0,34.58,7a.36.36,0,0,0,0-.4.31.31,0,0,0-.17-.13l-5.8-2a.47.47,0,0,0-.17,0l-.15.06a.69.69,0,0,0-.11.13.37.37,0,0,0,0,.15v4a.37.37,0,0,0,0,.15A.69.69,0,0,0,28.29,9Z"/><path d="M27.7,13.56a53.09,53.09,0,0,1-2.16,6l20.4,20a79,79,0,0,1-2.08-10.19L45,29a1.41,1.41,0,0,0,.68-.5,1.36,1.36,0,0,0,.26-.8V24a1.39,1.39,0,0,0-.2-.72,1.38,1.38,0,0,0-.56-.51A49.34,49.34,0,0,1,28.92,10.22a.71.71,0,0,0-.25-.2.78.78,0,0,0-.31-.07.71.71,0,0,0-.56.27,32.78,32.78,0,0,1-5.88,5.89l1.49,1.43A36.71,36.71,0,0,0,27.7,13.56Zm13.74,9.53h-8.1a33.58,33.58,0,0,1-4.26-9.53A51.28,51.28,0,0,0,41.44,23.09Z"/><path d="M7.85,7.29,5.4,9.69,16.2,20.14a44.5,44.5,0,0,1-4.58,2.54,1.45,1.45,0,0,0-.56.51,1.37,1.37,0,0,0-.2.72v3.41a1.39,1.39,0,0,0,.2.71,1.3,1.3,0,0,0,.53.51,3.46,3.46,0,0,0,2.24.5,3.41,3.41,0,0,0,2.06-1s2.26,3.26,7.93.43c0,0,.52,0,0,.61A6.71,6.71,0,0,1,15.7,30a6.34,6.34,0,0,1-3,.84A52.09,52.09,0,0,1,9.46,43.55H21.35c4.22,0,7-11,7-11s2.79,11,7,11h4.87l8.19,8,2.37-2.34Zm7.44,15.8,2.44-1.45,1.49,1.45Z"/></g></svg>