<svg xmlns="http://www.w3.org/2000/svg" viewBox="0 0 56 56" fill="currentColor"><g id="hospitality"><path d="M45.23,28.15a2.56,2.56,0,0,0-2.38-2.38H38.1a2,2,0,0,0,1.48-1.19l1.19-12.77c0-.3,0-.3-.3-.59s-.29-.3-.59-.3H37.5l.6-4.75c0-.3-.3-.89-.6-.89s-.59.29-.59.89L36,10.92H31a1.07,1.07,0,0,0-.89.89l1.19,12.77a1.35,1.35,0,0,0,1.48,1.19H26.22a1.41,1.41,0,0,0-1.49-1.49H22.36V18.94a7.07,7.07,0,0,0,3.26-1.78,6.25,6.25,0,0,0,1.49-4.46l-.59-7.42c0-.3-.6-.6-.9-.6H17.31c-.6,0-.89.3-.89.6l-.89,7.12A7.3,7.3,0,0,0,17,16.86a7.11,7.11,0,0,0,3.27,1.78v5.64H18.2a1.41,1.41,0,0,0-1.49,1.49H13.15a2.34,2.34,0,0,0-2.38,2.38l-1.18,9.2,2.67,1.19a5.11,5.11,0,0,0,5,0,4.56,4.56,0,0,1,4.75,0L25.33,40V51.31h4.75V41.21a4,4,0,0,1-2.67-.29.29.29,0,0,1-.3-.3,6.13,6.13,0,0,0,3.27-.3l3.26-1.48a7.3,7.3,0,0,1,5,0,5.11,5.11,0,0,0,5.05,0l2.67-1.19ZM17.31,11.81l.59-5.64H25l.59,5.64Zm14.85,7.13-.6-6.24H39l-.6,6.24Z"/></g></svg>