<svg xmlns="http://www.w3.org/2000/svg" viewBox="0 0 56 56" fill="currentColor"><g id="information"><path d="M50.55,9.55a4.94,4.94,0,0,0-4.1-4.1c-6.15-1-16.4-1-18.45-1s-12.3,0-18.45,1a4.94,4.94,0,0,0-4.1,4.1c-1,6.15-1,16.4-1,18.45s0,12.3,1,18.45a5,5,0,0,0,4.1,4.1c6.15,1,16.4,1,18.45,1s12.3,0,18.45-1a5,5,0,0,0,4.1-4.1c1-6.15,1-16.4,1-18.45A111.88,111.88,0,0,0,50.55,9.55ZM31.1,44.5H24.32l.59-14.44V21.81H31.1ZM28,17.68A3.29,3.29,0,0,1,24.39,14,3.34,3.34,0,0,1,28,10.46c2.31,0,3.63,1.25,3.63,3.57A3.38,3.38,0,0,1,28,17.68Z"/></g></svg>