<svg viewBox="0 0 56 56" fill="currentColor" xmlns="http://www.w3.org/2000/svg">
<path d="M26.6298 6C24.1759 6 21.7771 6.72767 19.7368 8.09098C17.6964 9.45429 16.1062 11.392 15.1671 13.6591C14.228 15.9262 13.9823 18.4209 14.4611 20.8277C14.9398 23.2344 16.1215 25.4451 17.8566 27.1803C19.5918 28.9155 21.8025 30.0972 24.2093 30.5759C26.616 31.0546 29.1107 30.8089 31.3778 29.8698C33.6449 28.9308 35.5826 27.3405 36.946 25.3002C38.3093 23.2598 39.0369 20.861 39.0369 18.4071C39.0369 15.1166 37.7298 11.9608 35.403 9.63397C33.0762 7.30718 29.9204 6 26.6298 6ZM34.0741 20.0378C34.0741 20.2728 33.9807 20.4983 33.8145 20.6644C33.6483 20.8306 33.4229 20.924 33.1879 20.924H29.1112V25.0007C29.1112 25.2357 29.0179 25.4611 28.8517 25.6273C28.6855 25.7935 28.46 25.8869 28.225 25.8869H25.0346C24.7996 25.8869 24.5741 25.7935 24.4079 25.6273C24.2417 25.4611 24.1484 25.2357 24.1484 25.0007V20.924H20.0717C19.8367 20.924 19.6113 20.8306 19.4451 20.6644C19.2789 20.4983 19.1855 20.2728 19.1855 20.0378V16.8562C19.1855 16.6212 19.2789 16.3958 19.4451 16.2296C19.6113 16.0634 19.8367 15.97 20.0717 15.97H24.1484V11.8934C24.1484 11.6583 24.2417 11.4329 24.4079 11.2667C24.5741 11.1005 24.7996 11.0072 25.0346 11.0072H28.225C28.46 11.0072 28.6855 11.1005 28.8517 11.2667C29.0179 11.4329 29.1112 11.6583 29.1112 11.8934V15.97H33.1879C33.4229 15.97 33.6483 16.0634 33.8145 16.2296C33.9807 16.3958 34.0741 16.6212 34.0741 16.8562V20.0378Z"/>
<path d="M10.5272 45.5167H13.9568V46.8106C14.2268 46.8446 14.483 46.9494 14.6993 47.1144C14.9157 47.2794 15.0845 47.4987 15.1887 47.75C15.2419 47.9184 15.1267 47.9716 15.1267 47.9716C14.9784 47.8083 14.7979 47.6775 14.5966 47.5875C14.3952 47.4975 14.1774 47.4502 13.9568 47.4487C13.7241 47.4679 13.4974 47.5327 13.2897 47.6396C13.082 47.7464 12.8974 47.8931 12.7464 48.0712C12.5954 48.2494 12.4809 48.4556 12.4096 48.6779C12.3383 48.9003 12.3114 49.1346 12.3306 49.3674C12.3498 49.6001 12.4147 49.8268 12.5215 50.0345C12.6283 50.2422 12.775 50.4268 12.9532 50.5778C13.1313 50.7289 13.3375 50.8433 13.5599 50.9146C13.7823 50.986 14.0165 51.0128 14.2493 50.9936C14.6729 50.9085 15.0532 50.6773 15.3237 50.3404C15.5942 50.0035 15.7378 49.5822 15.7293 49.1502V45.5167H40.0384V46.8106C40.3094 46.8449 40.5666 46.9497 40.7843 47.1145C41.002 47.2794 41.1727 47.4985 41.2791 47.75C41.3323 47.9184 41.2171 47.9716 41.2171 47.9716C41.0668 47.8084 40.8847 47.6779 40.682 47.5879C40.4792 47.498 40.2602 47.4506 40.0384 47.4487C39.8057 47.4685 39.5791 47.5339 39.3716 47.6413C39.1641 47.7486 38.9798 47.8958 38.8292 48.0744C38.6786 48.2529 38.5647 48.4594 38.4939 48.682C38.4231 48.9047 38.3969 49.139 38.4166 49.3718C38.4364 49.6046 38.5019 49.8311 38.6092 50.0386C38.7166 50.2461 38.8637 50.4304 39.0423 50.581C39.2209 50.7316 39.4274 50.8455 39.65 50.9163C39.8726 50.9871 40.107 51.0134 40.3397 50.9936C40.7617 50.9067 41.1399 50.6747 41.4087 50.338C41.6774 50.0012 41.8197 49.581 41.8109 49.1502V45.5167H44.1948C44.6649 45.5167 45.1157 45.33 45.4481 44.9976C45.7805 44.6652 45.9673 44.2143 45.9673 43.7443V40.8463H8.74585V43.7443C8.74585 43.9778 8.79198 44.209 8.88161 44.4246C8.97124 44.6402 9.10259 44.836 9.26812 45.0007C9.43364 45.1654 9.63008 45.2958 9.84615 45.3843C10.0622 45.4729 10.2937 45.5179 10.5272 45.5167ZM13.9568 49.8947C13.8254 49.8947 13.6969 49.8557 13.5876 49.7826C13.4783 49.7096 13.3931 49.6058 13.3428 49.4844C13.2925 49.3629 13.2793 49.2293 13.305 49.1003C13.3306 48.9714 13.3939 48.853 13.4869 48.76C13.5798 48.667 13.6982 48.6037 13.8272 48.5781C13.9561 48.5525 14.0898 48.5656 14.2112 48.6159C14.3327 48.6662 14.4365 48.7514 14.5095 48.8607C14.5825 48.97 14.6215 49.0985 14.6215 49.23C14.6215 49.4063 14.5515 49.5753 14.4268 49.7C14.3022 49.8246 14.1331 49.8947 13.9568 49.8947ZM40.0384 49.8947C39.8621 49.8947 39.6931 49.8246 39.5684 49.7C39.4438 49.5753 39.3738 49.4063 39.3738 49.23C39.3738 49.0537 39.4438 48.8847 39.5684 48.76C39.6931 48.6354 39.8621 48.5653 40.0384 48.5653C40.2147 48.5653 40.3838 48.6354 40.5084 48.76C40.6331 48.8847 40.7031 49.0537 40.7031 49.23C40.7031 49.4063 40.6331 49.5753 40.5084 49.7C40.3838 49.8246 40.2147 49.8947 40.0384 49.8947Z"/>
<path d="M48.4753 34.0401L48.174 33.2071C48.1355 33.0938 48.0744 32.9894 47.9945 32.9003C47.9146 32.8113 47.8175 32.7393 47.709 32.6888C47.6005 32.6383 47.4829 32.6102 47.3633 32.6064C47.2437 32.6026 47.1245 32.623 47.013 32.6665L33.8792 37.3014H7.88622C7.65118 37.3014 7.42577 37.3948 7.25957 37.561C7.09337 37.7272 7 37.9526 7 38.1876V39.0739C7 39.3089 7.09337 39.5343 7.25957 39.7005C7.42577 39.8667 7.65118 39.9601 7.88622 39.9601H34.3312L47.8993 35.1745C48.0126 35.1394 48.1177 35.0819 48.2084 35.0054C48.2991 34.9289 48.3736 34.835 48.4273 34.7292C48.481 34.6234 48.5129 34.5079 48.5212 34.3895C48.5294 34.2711 48.5138 34.1523 48.4753 34.0401Z"/>
</svg>