<svg id="Layer_1" data-name="Layer 1" xmlns="http://www.w3.org/2000/svg" viewBox="0 0 56 56"><path d="M51.54,26.35,29.19,5A1.57,1.57,0,0,0,28,4.42a1.54,1.54,0,0,0-1.19.6L4.45,26.35a3.28,3.28,0,0,0-.89,2.1V30c0,.9.89,1.5,2.09,1.5h3V51a.64.64,0,0,0,.59.6H47.08a.65.65,0,0,0,.59-.61V31.75h3A1.93,1.93,0,0,0,52.44,30v-1.5A2.72,2.72,0,0,0,51.54,26.35ZM32,36.44a.68.68,0,0,1-.51.78,2.48,2.48,0,0,1-1,.13s.11.06.32.42.53,1.25.12,1.46-.55.1-.77.54c-.39.79-.91,1.61-2.11,1.07s-4.57-2.35-4.57-2.35a.23.23,0,0,0,0,.3l2.2,2.4V43h-11A73.51,73.51,0,0,0,18,36c.59-2.65-.89-6.78-1-9.44C17,24.25,17.75,20,22.41,19c4.41-1,9.56.7,10.71,2.08a2.92,2.92,0,0,1-.3,4.15,18.55,18.55,0,0,1,0,3.58c0,.32-.36.95-.39,1.34l1.67,3.64a.87.87,0,0,1-.57,1.08L32,35.14A1.73,1.73,0,0,0,32,36.44Zm.66,2.21a1,1,0,1,1,.95,1A1,1,0,0,1,32.63,38.65Zm1.09,3.29a.95.95,0,1,1,.94,1A.95.95,0,0,1,33.72,41.94Zm2,4.24a1,1,0,1,1,1-1A1,1,0,0,1,35.75,46.18Zm.68-8.62a.95.95,0,1,1,1,.95A1,1,0,0,1,36.43,37.56Zm2,4.33a1,1,0,1,1,1-1A.95.95,0,0,1,38.43,41.89Zm2.75-4.47a1,1,0,1,1,1-1A1,1,0,0,1,41.18,37.42Z"/></svg>