<svg xmlns="http://www.w3.org/2000/svg" viewBox="0 0 56 56" fill="currentColor"><g id="kunst_cultuur"><polygon points="17.7 29.89 17.7 29.89 17.7 29.89 17.7 29.89"/><path d="M31,12.48A35.83,35.83,0,0,1,17.7,7.81,35.75,35.75,0,0,1,4.46,12.48c0,14,2.09,21.82,13.24,25.71C28.86,34.3,31,26.51,31,12.48Zm-22.6,7.4s1.57-1.94,3.51-1.94,3.51,1.94,3.51,1.94-1.57,1.95-3.51,1.95S8.35,19.88,8.35,19.88Zm9.35,10a8,8,0,0,0-4.63,1.42C13.35,29.44,15.32,28,17.7,28s4.35,1.45,4.64,3.32A8,8,0,0,0,17.7,29.89Zm2.34-10s1.57-1.94,3.51-1.94,3.5,1.94,3.5,1.94-1.57,1.95-3.5,1.95S20,19.88,20,19.88Z"/><path d="M40.5,19.52a33.24,33.24,0,0,1-8.16.78,36,36,0,0,1-1.25,6.8,3.25,3.25,0,0,1,.62.13c1.84.63,2.7,3,2.7,3s-2.11,1.34-3.95.71a3,3,0,0,1-.74-.37,16.71,16.71,0,0,1-6.16,6.75c.69,4.12,2.89,7.64,7.19,11C42.56,48.19,47,41.48,51.54,28.2A35.79,35.79,0,0,1,40.5,19.52ZM32.93,41.85c-2.26-.77-3.65-2.77-3.32-4.63a8.27,8.27,0,0,0,8.78,3C37.52,41.87,35.19,42.61,32.93,41.85Zm8.6-7.17c-1.83-.63-2.69-3-2.69-3S41,30.37,42.78,31s2.7,3,2.7,3S43.37,35.3,41.53,34.68Z"/><polygon points="40.5 19.52 40.5 19.52 40.5 19.52 40.5 19.52"/></g></svg>