<svg xmlns="http://www.w3.org/2000/svg" viewBox="0 0 56 56"><g id="location"><path d="M28,4.42A15,15,0,0,0,13.14,19.63h0c0,2.83,1.06,5.44,2.12,8,.85,2.17,7.86,16.3,11,22.81A1.67,1.67,0,0,0,28,51.57a2.15,2.15,0,0,0,1.7-1.09l2.66-5.42c3.4-6.92,7.72-15.72,8.38-17.39,1.06-2.61,2.12-5.21,2.12-8A15,15,0,0,0,28,4.42Zm0,24.34a9.08,9.08,0,0,1-8.92-9.13h0A9.08,9.08,0,0,1,28,10.51a8.65,8.65,0,0,1,4.48,1.25,9.19,9.19,0,0,1,3.24,3.34,9.32,9.32,0,0,1,1.2,4.53A9.08,9.08,0,0,1,28,28.76Z"/><path d="M28,15.43a3.86,3.86,0,0,0-3.85,3.85,3.94,3.94,0,0,0,.29,1.48A3.85,3.85,0,0,0,25.27,22a3.9,3.9,0,0,0,1.25.83,3.75,3.75,0,0,0,1.47.3A3.81,3.81,0,0,0,30.72,22a3.81,3.81,0,0,0,1.13-2.72h0A3.84,3.84,0,0,0,28,15.43Z"/></g></svg>