<svg xmlns="http://www.w3.org/2000/svg" viewBox="0 0 56 56" fill="currentColor"><g id="locaties"><ellipse cx="27.6" cy="14.24" rx="3.25" ry="3.33"/><path d="M26.2,34A1.42,1.42,0,0,0,29,34a35.74,35.74,0,0,1,5-11.08c1.78-2.83,3.33-5.33,3.33-8.58a9.67,9.67,0,1,0-19.34,0c0,3.25,1.55,5.75,3.33,8.58A39.91,39.91,0,0,1,26.2,34ZM27.58,8.34a5.92,5.92,0,1,1-5.77,5.92A5.77,5.77,0,0,1,27.58,8.34Z"/><path d="M49.49,38.82c-.44-.75-1.66-2.79-5.49-1.41-2.27.83-5.2,2-7.47,3a2.83,2.83,0,0,1,0,1.16c-.33,2.33-2.28,3.83-5,3.92a24.72,24.72,0,0,1-10.91-1.65l0,0a.31.31,0,0,1-.25-.33,29.22,29.22,0,0,0,11,.33c2.68-.41,3.65-1.75,3.65-2.83s-.73-1.67-2.43-1.75A79.39,79.39,0,0,1,21,38c-.7-.12-1.43-.24-2.19-.35a13.32,13.32,0,0,0-9.26,2.16,14.72,14.72,0,0,0-3.25,2.5L11,51.57l6.1-2.5a4,4,0,0,1,2.19-.25l8.37,1.92a8.09,8.09,0,0,0,5.36-1L49.69,39.07S49.59,39,49.49,38.82Z"/></g></svg>