<svg xmlns="http://www.w3.org/2000/svg" viewBox="0 0 56 56"><g id="lopend"><path d="M30,12.4c2.19.38,3.71-1,4.08-3.3.41-2.62-.69-4.25-2.83-4.62s-3.73,1.07-4.11,3.44S27.79,12,30,12.4Z"/><path d="M34.19,36.89l-.12-.21c-.43-.74-.84-1.32-1.25-1.9l-.19-.27c-1-1.37-2-2.71-3-4,.4-2.21,1-4.95,1.55-7.4a18.73,18.73,0,0,0,.92,2.43,14.33,14.33,0,0,0,2.27,2.72l.65.68a3.32,3.32,0,0,0,4.15.92c-.48-.66-1.43-1.83-2.14-2.69l-.75-.93L36.14,26a12.29,12.29,0,0,1-1.33-1.91A17.59,17.59,0,0,1,34,21.56c0-.1-.11-.46-.23-1-.36-1.5-1-4.23-1.15-4.42-.59-1.54-5.07-3.69-7.72-2a30.73,30.73,0,0,0-5.59,4.6,6.09,6.09,0,0,0-1.55,3.7,30.37,30.37,0,0,0-.38,4.25,3.05,3.05,0,0,0,2.25,3.26c.33-2.57.85-6.41,1.64-8.08a8.67,8.67,0,0,1,2.4-2.1c0,.18-.09.41-.14.66a90.14,90.14,0,0,0-1.59,8.88,4.4,4.4,0,0,0,1.54,3.18l.26.27,2.74,3s-.1.18-.33,0l-2.78-1.66c-.4,1.54-1,4.06-1.61,5.55a10,10,0,0,1-.4,1c-.06.14-.14.26-.33.6-.41.73-.87,1.46-1.35,2.21S18.54,45.27,18,46.22a4.45,4.45,0,0,0,.61,5.35c.67-1,1.55-2.16,2.46-3.38,1.23-1.65,2.51-3.36,3.39-4.75l.12-.17a14.44,14.44,0,0,0,1-1.84c.44-.92,1-2.25,1.9-4.47.27.26.54.54.81.83l.31.33.6.61a6.42,6.42,0,0,1,1.27,1.55c.11.22.34.71.58,1.33.94,2.53,1.76,4.36,2.39,5.76.31.69.58,1.28.78,1.79a4,4,0,0,0,4.3,2.34c-.72-3-2.39-9-3.32-12A9.52,9.52,0,0,0,34.19,36.89Z"/></g></svg>