<svg viewBox="0 0 17 36" fill="#000" xmlns="http://www.w3.org/2000/svg">
    <path fill-rule="evenodd" clip-rule="evenodd" d="M5.684 9.276a1.297 1.297 0 0 1-1.273-1.043c-.135-.675-.14-1.275-.146-1.884l-.002-.14a.675.675 0 0 1 .541-.684l1.571-.276V5.24C6.375 4.004 7.326 3 8.5 3c1.173 0 2.125 1.004 2.125 2.241 0 .63-.248 1.198-.645 1.605l-.011.021c.079.082.223.06.482-.162.123-.104.568-.55.969-1.317l.775.137a.675.675 0 0 1 .541.684l-.001.14c-.006.609-.012 1.21-.146 1.884a1.297 1.297 0 0 1-1.274 1.043h-5.63ZM9.458 5.24c0-.558-.429-1.01-.958-1.01-.53 0-.959.452-.959 1.01 0 .559.43 1.011.959 1.011.53 0 .958-.452.958-1.01Z"/>
    <path d="M16.15 6.586h-2.516c-.007.569-.027 1.16-.161 1.832a2.2 2.2 0 0 1-.128.41h1.53v17.93H2.125V8.829h1.53a2.17 2.17 0 0 1-.128-.41c-.134-.672-.153-1.263-.16-1.832H.85c-.47 0-.85.402-.85.897v20.62C0 28.6.38 29 .85 29h15.3c.468 0 .85-.404.85-.897V7.483c0-.495-.38-.897-.85-.897Z"/>
    <path d="m4.866 15.381-1.419-2.497a.364.364 0 0 1 .072-.449.32.32 0 0 1 .431.004l1.171 1.07L7.07 11.21a.32.32 0 0 1 .446-.048c.138.108.176.31.086.464l-2.166 3.757a.33.33 0 0 1-.284.169H5.15a.33.33 0 0 1-.284-.17Zm2.204.76a.32.32 0 0 1 .445-.048.363.363 0 0 1 .086.464l-2.166 3.757a.33.33 0 0 1-.284.169H5.15a.33.33 0 0 1-.284-.17l-1.419-2.498a.364.364 0 0 1 .072-.449.319.319 0 0 1 .431.004l1.171 1.07 1.949-2.3Zm0 4.931-1.95 2.299-1.17-1.07a.319.319 0 0 0-.432-.004.364.364 0 0 0-.072.45l1.419 2.496a.33.33 0 0 0 .284.17.33.33 0 0 0 .285-.168L7.6 21.488a.363.363 0 0 0-.086-.464.32.32 0 0 0-.446.048Zm1.855-8.658h5.1v1.345h-5.1v-1.345Zm5.1 4.931h-5.1v1.345h5.1v-1.345Zm-5.1 4.931h5.1v1.345h-5.1v-1.345Z"/>
</svg>
