<svg width="56" height="56" viewBox="0 0 56 56" fill="transparent" xmlns="http://www.w3.org/2000/svg">
<g clip-path="url(#clip0_1909_2401)">
<rect width="56" height="56" fill="transparent"/>
<path d="M23.6552 10.2586C23.6552 10.2586 22.5255 29.191 22.4684 29.4033C22.4684 32.131 19.5596 31.0485 19.5596 31.0485L21.2632 10.2911L7.84753 15.7503C7.33129 15.9857 7 16.5007 7 17.0681V45.7406C7 46.2676 7.54499 46.6181 8.02451 46.3994L21.4556 39.8757L32.4886 46.1643C32.6183 46.2298 34.5159 26.8723 34.656 26.8963C34.7022 26.9042 36.2221 26.8839 36.2866 27.5783C36.6184 31.1497 35.7255 46.126 35.9495 46.0239L48.1525 40.2496C48.6687 40.0143 49 39.4992 49 38.9318V10.2595C49 9.73243 48.455 9.38195 47.9755 9.60057L34.5172 16.112L23.6552 10.2586Z" fill="currentColor"/>
</g>
<defs>
<clipPath id="clip0_1909_2401">
<rect width="56" height="56" fill="currentColor"/>
</clipPath>
</defs>
</svg>
