<svg xmlns="http://www.w3.org/2000/svg" viewBox="0 0 56 56"><g id="max_aantal_bezoekers"><path d="M51.42,27.58A1.75,1.75,0,0,0,51,27h-.11L28.58,5.84a.93.93,0,0,0-1.27,0L5,27a1.83,1.83,0,0,0-.45.62,2,2,0,0,0-.15.76v1.42a1,1,0,0,0,.28.67,1,1,0,0,0,.66.29H9.12v19.8H46.77V30.71h3.87a1,1,0,0,0,.67-.29,1,1,0,0,0,.27-.67V28.33A1.78,1.78,0,0,0,51.42,27.58ZM36.5,20.44a2.1,2.1,0,0,1,2.06,2.35,1.92,1.92,0,0,1-.06.86,2.05,2.05,0,0,1-.43.76,2.23,2.23,0,0,1-.71.5,2,2,0,0,1-.86.14,2.21,2.21,0,0,1-.84-.17,2.26,2.26,0,0,1-.69-.5,2.18,2.18,0,0,1-.42-.74,2.06,2.06,0,0,1-.09-.85C34.46,21.26,35.26,20.44,36.5,20.44ZM25.8,21.56a2.21,2.21,0,0,1,.47-.85,2.25,2.25,0,0,1,.79-.58,2.22,2.22,0,0,1,1-.2c1.45,0,2.32.91,2.32,2.6a2.22,2.22,0,0,1-.09,1,2.4,2.4,0,0,1-.49.83,2.17,2.17,0,0,1-.79.55,2.2,2.2,0,0,1-.95.18c-1.44,0-2.29-.91-2.29-2.52A2.28,2.28,0,0,1,25.8,21.56Zm-6.27-1.12c1.24,0,2,.82,2,2.35a1.9,1.9,0,0,1-.08.85,2.06,2.06,0,0,1-1.12,1.24,2.16,2.16,0,0,1-.83.17,1.93,1.93,0,0,1-.86-.14,2.23,2.23,0,0,1-.71-.5,2,2,0,0,1-.5-1.62A2.11,2.11,0,0,1,19.53,20.44Zm2.54,27.07a2.15,2.15,0,0,1-.87-.1,2.19,2.19,0,0,1-.74-.46,2,2,0,0,1-.49-.73,2.1,2.1,0,0,1-.13-.86l-.34-8.49a.3.3,0,0,0-.07-.15.26.26,0,0,0-.16-.07.27.27,0,0,0-.17.06.3.3,0,0,0-.08.16c0,.14-.37,8.49-.37,8.49a2.18,2.18,0,0,1-.14.84,2.3,2.3,0,0,1-.47.72,2.11,2.11,0,0,1-.72.46,2.23,2.23,0,0,1-.85.13V29.38c-.22-.06-.22,0-.22.17a11.28,11.28,0,0,0-.37,3.17v4.46a1.7,1.7,0,0,1-1.22-.52,1.73,1.73,0,0,1-.51-1.23c-.39-2.63-.39-8.2,2.44-9a12.45,12.45,0,0,1,5.82,0,1.81,1.81,0,0,1,.54.22c-2,2-1.7,7-1.5,9.79a2.9,2.9,0,0,0,.62,1.7Zm10.81-9.4a1.74,1.74,0,0,1-.71.15v-4a17.7,17.7,0,0,0-.42-4.47l-.2-.17v19.8a2.56,2.56,0,0,1-1-.06,2.35,2.35,0,0,1-.91-.48,2.3,2.3,0,0,1-.64-.81,2.46,2.46,0,0,1-.25-1l-.37-9.2a.27.27,0,0,0-.28-.25.24.24,0,0,0-.18.07.25.25,0,0,0-.08.18c0,.09-.36,9.2-.36,9.2a2.46,2.46,0,0,1-.25,1,2.42,2.42,0,0,1-.64.81,2.35,2.35,0,0,1-.91.48,2.56,2.56,0,0,1-1,.06V29.63s-.2,0-.2.17A14,14,0,0,0,24,34.27v4a1.88,1.88,0,0,1-.71-.15,1.81,1.81,0,0,1-.6-.42,1.84,1.84,0,0,1-.38-.61,1.76,1.76,0,0,1-.12-.72v0c-.19-3.23-.55-9.06,2.64-9.88a12.72,12.72,0,0,1,6.25,0h.28c3.16.84,2.81,6.55,2.61,9.79v.11a1.78,1.78,0,0,1-.48,1.34A1.61,1.61,0,0,1,32.88,38.11Zm8.85-2.68a1.73,1.73,0,0,1-.52,1.23,1.74,1.74,0,0,1-1.23.52V32.72a10.59,10.59,0,0,0-.37-3.17c0-.14,0-.23-.2-.17V47.51a2.23,2.23,0,0,1-.85-.13,2.11,2.11,0,0,1-.72-.46,2.07,2.07,0,0,1-.48-.72,2,2,0,0,1-.15-.84s-.34-8.35-.34-8.49a.26.26,0,0,0-.09-.16.27.27,0,0,0-.42.16L36,45.36a2.07,2.07,0,0,1-.6,1.59,2.19,2.19,0,0,1-.74.46,2.15,2.15,0,0,1-.87.1V38.12a2.77,2.77,0,0,0,.62-1.7c.2-2.83.51-7.75-1.49-9.79a1.65,1.65,0,0,1,.53-.22,12.49,12.49,0,0,1,5.83,0C42.13,27.23,42.13,32.8,41.73,35.43Z"/></g></svg>