<svg xmlns="http://www.w3.org/2000/svg" viewBox="0 0 56 56" fill="currentColor"><g id="max_visitors"><path d="M51,27,28.63,5.89a1,1,0,0,0-1.26,0L5.05,27a2,2,0,0,0-.63,1.42v1.41a1,1,0,0,0,1,.94H9.14V50.45H46.86V30.8h3.77a.78.78,0,0,0,.37-.06.79.79,0,0,0,.31-.2.87.87,0,0,0,.2-.31,1,1,0,0,0,.07-.37V28.45A2,2,0,0,0,51,27Zm-17.84-7.7c1.33,0,2.2.86,2.2,2.51a2.17,2.17,0,0,1-2.2,2.44c-1.42,0-2.2-.86-2.2-2.44S31.69,19.33,33.11,19.33Zm-10.06-.71c1.33,0,2.2.87,2.2,2.52a2.17,2.17,0,0,1-2.2,2.43c-1.42,0-2.2-.86-2.2-2.43S21.63,18.62,23.05,18.62ZM37.51,35.91a52.88,52.88,0,0,1-1.65-7.54l-.24-.47a3.9,3.9,0,0,1-.08,2.43,4.58,4.58,0,0,0-.15,2,18.13,18.13,0,0,1,1.33,6.84A4.45,4.45,0,0,0,35.54,39h-.15v8.33s-2-.32-2-2.13v-6c-.23,0-.55.08-.78.08v6a2.5,2.5,0,0,1-2.05,2.13V39.84a1.36,1.36,0,0,0,1.42-1.34c0-2.43.07-6.36-1.34-6.91a9.3,9.3,0,0,0-4.63,0c-1.5.71-1.58,4.56-1.42,6.91A1.36,1.36,0,0,0,26,39.84v7.47A2.32,2.32,0,0,1,23.52,45s-.31-9-.31-9.12a.36.36,0,0,0-.32-.24.34.34,0,0,0-.31.24c0,.08-.32,9.12-.32,9.12a2,2,0,0,1-2.12,2.28V28.37c0-.08-.31,0-.47.23a3.79,3.79,0,0,0-.32,1.89V36.3a1.78,1.78,0,0,1-1.8-1.8c-.16-3.15-.55-8.88,2.51-9.67a12.14,12.14,0,0,1,6.05,0,2.9,2.9,0,0,1,1.42.94,2.38,2.38,0,0,0-1.26,2.28,2.07,2.07,0,0,0,2.2,2.36,2.11,2.11,0,0,0,2.2-2.36,2.62,2.62,0,0,0-.71-2,3,3,0,0,1,1.1-.63,6.69,6.69,0,0,1,2.12-.32,6.25,6.25,0,0,1,2.13.32c1.41.47,2.2,1.73,2.51,4.32.16,1.18.55,2.12.87,3.85C38.92,35.05,38.14,35.83,37.51,35.91Z"/></g></svg>