<svg xmlns="http://www.w3.org/2000/svg" viewBox="0 0 56 56"><g id="medische_screening"><path d="M26.48,37.72a11.2,11.2,0,0,1,22.25-1.85,1.85,1.85,0,0,0,1.9-1.8v-13a1.85,1.85,0,0,0-1.85-1.85H35.88V6.3a1.86,1.86,0,0,0-1.82-1.88H21a1.86,1.86,0,0,0-1.89,1.81v13H6.25A1.85,1.85,0,0,0,4.4,21.06V34a1.85,1.85,0,0,0,1.85,1.85h12.9V48.81A1.85,1.85,0,0,0,21,50.66H34a1.84,1.84,0,0,0,1.88-1.81v-.1A11.2,11.2,0,0,1,26.48,37.72Z"/><path d="M51.05,46.8,46.5,42.25A8.62,8.62,0,0,1,44,44.08c-.58.24-.85.2-1,0a8.54,8.54,0,1,0-1.75,1.11l5.68,5.68c1.08,1.09,2.37.45,3.45-.63S52.13,47.89,51.05,46.8ZM42.4,37.72A4.73,4.73,0,1,1,37.67,33a4.71,4.71,0,0,1,4.73,4.73Z"/></g></svg>