<svg xmlns="http://www.w3.org/2000/svg" viewBox="0 0 56 56"><g id="meerdaagse_evenementen"><path d="M23.84,26.9h7.47v5.59H23.84Z"/><path d="M42.52,26.9H35v5.59h7.48Z"/><path d="M12.66,36.23h7.47v5.59H12.66Z"/><path d="M42.64,10.11h6.55a2,2,0,0,1,.72.13,2,2,0,0,1,.61.4,2,2,0,0,1,.41.61,1.91,1.91,0,0,1,.14.71V49.29a1.91,1.91,0,0,1-.14.71,2,2,0,0,1-.41.61,2,2,0,0,1-.61.4,2,2,0,0,1-.72.13H6.31A2,2,0,0,1,5.59,51a1.8,1.8,0,0,1-.61-.4A1.69,1.69,0,0,1,4.57,50a1.74,1.74,0,0,1-.15-.71V12a1.74,1.74,0,0,1,.15-.71A1.69,1.69,0,0,1,5,10.64a1.8,1.8,0,0,1,.61-.4,2,2,0,0,1,.72-.13h6.57c.1-1.18.29-3.23.39-3.83s.29-1.76,1.18-1.76h2.68c.76,0,.92.8,1.05,1.43a2.72,2.72,0,0,0,.07.33,26.6,26.6,0,0,1,.16,3.83V15.7a.2.2,0,0,0,.11,0,.21.21,0,0,0,.11,0,.3.3,0,0,0,.08-.08.22.22,0,0,0,.05-.11l1.6-5.36H35.27c.09-1.18.28-3.23.38-3.83s.29-1.76,1.21-1.76h2.56c.89,0,1.12,1.12,1.12,1.76a32.62,32.62,0,0,1,.15,3.83V15.7a.24.24,0,0,0,.12,0,.21.21,0,0,0,.11,0,.3.3,0,0,0,.08-.08.37.37,0,0,0,0-.11ZM8.93,46.48H46.41l-.16-24.24H8.93Z"/><path d="M20.13,26.9H12.66v5.59h7.47Z"/><path d="M31.31,36.23H23.84v5.59h7.47Z"/><path d="M35,36.23h7.48v5.59H35Z"/></g></svg>