<svg xmlns="http://www.w3.org/2000/svg" viewBox="0 0 56 56"><g id="mondkapje"><path d="M43.89,42.86a12.83,12.83,0,0,0-4.35-2.46c-1.14-.45-4.8-1.79-5-2,0-.67-.23-1.34-.23-2,1.14-.9,2.05-1.79,3.65-2.91a1,1,0,0,0,.23-1.12l-.46-.89c0-.22.23-.89.23-1.12v-.67a6.25,6.25,0,0,0,1.15-3.8,4.69,4.69,0,0,0-.92-3.12,9.9,9.9,0,0,0-6.85-11.18A3,3,0,0,0,29,10.68c0-.22.23-.22.46-.22a11.29,11.29,0,0,1,3.88.22,7.78,7.78,0,0,0,.69-2.46,3.88,3.88,0,0,0-4.12-3.8,5.13,5.13,0,0,0-4.11,2.24c-1.37,1.79-2.29.67-1.37-.67,0,0-2.75.22-2.75,2.23,0,1.57,1.6,2.91,2.29,3.35A9.59,9.59,0,0,0,18.06,22.3a4.72,4.72,0,0,0-.92,3.13,6.36,6.36,0,0,0,1.14,3.8v.67A2.34,2.34,0,0,1,18.51,31l-.45.9A1,1,0,0,0,18.28,33a31,31,0,0,0,3.66,2.91c0,.67-.23,1.34-.23,2-.22,0-4.57,2-5,2a13,13,0,0,0-4.34,2.46c-1.6,1.56-2.74,6.48-3.2,9.16H46.86C46.63,49.34,45.49,44.42,43.89,42.86ZM19.43,25.43c0-.45,0-1.57.46-1.79.22-.22.68,0,.91.22a11.82,11.82,0,0,1,.69-4.24,10.08,10.08,0,0,1,6.63-2.46,9.24,9.24,0,0,1,6.62,2.68v.22A3.73,3.73,0,0,1,35,21.63a9.75,9.75,0,0,1,.23,2.46c.23-.23.69-.45.91-.23.69,0,.92.67.92,1.57v.44q-4.45,0-5.49-.67c-.91-.67-1.6-1.56-3.2-1.56-1.83,0-2.51.89-3.43,1.56-.45.45-2.28.67-5.48.9Zm.68,6.7a.81.81,0,0,0,.23-.67l4.57,1.12s.23-.23,0-.23l-4.8-2.68c0-.67-.22-1.11-.22-1.78,3.88,0,5.25-.45,6.17-1.12s1.14-1.12,2.05-1.12c.69,0,1.15.45,2.06,1.12s2.29,1.12,6.17,1.12a4.75,4.75,0,0,1-.23,1.78l-4.79,2.68c-.23.23-.23.23,0,.23l4.57-1.12c0,.22.22.22.22.67a16.31,16.31,0,0,0-2,1.79,7.1,7.1,0,0,1-5.72,2.46,7.32,7.32,0,0,1-5.71-2.24A16.84,16.84,0,0,1,20.11,32.13Zm8.23,14.3S20.8,46.21,19,41.74c3-1.12,5-1.57,5-3.13a2.39,2.39,0,0,1,.23-1.12,10.39,10.39,0,0,0,4.11.67,11.26,11.26,0,0,0,4.12-.67v1.12c.22,1.57,2,1.79,5,3.13C35.89,46.21,28.34,46.43,28.34,46.43Z"/></g></svg>