<svg role="img"  aria-hidden="true" viewBox="0 0 48 48" focusable="false" fill="none" xmlns="http://www.w3.org/2000/svg">
<path fill-rule="evenodd" clip-rule="evenodd" d="M33.9887 7.76163L33.8746 7.8187L33.418 7.87578L33.3609 7.93286L33.1897 7.98994H33.1326L33.0755 8.04702H32.9613L32.8472 8.16117H32.676L32.4476 8.27533L32.3906 8.21825L32.3335 8.27533H32.0481L31.8769 8.3324L31.6486 8.38948H31.5344L31.4202 8.44656H31.3061L30.9636 8.56071L30.9065 8.61779V8.67487L30.7924 8.73195L30.6782 8.61779L30.3928 8.44656H30.3358L30.1075 8.56071V8.50364H30.0504V8.56071H29.9933V8.50364L29.9362 8.56071L29.9933 8.61779H30.0504L30.1075 8.67487H30.1645L30.2216 8.73195H30.2787V8.78902H30.1075V8.73195L29.9933 8.67487V8.61779H29.8792L29.8221 8.73195H29.8792L29.9362 8.78902H29.9933V8.8461L29.9362 8.90318L29.8792 8.8461V8.90318L29.9362 8.96026H30.2216V9.01734H30.0504L29.9362 8.96026V9.01734L29.8792 8.96026V9.01734L29.9362 9.07441H30.2216L30.2787 9.01734V9.13149H30.2216L30.2787 9.18857L30.3358 9.13149H30.3928V9.18857L30.3358 9.24565H30.2216V9.30272L30.2787 9.3598L30.3358 9.30272H30.3928L30.3358 9.3598H30.2787H30.2216L30.2787 9.41688V9.47396H30.2216V9.41688L30.1645 9.3598V9.30272H30.1075L30.1645 9.24565H30.1075L30.0504 9.18857V9.24565L29.9933 9.3598V9.24565L29.8792 9.18857L29.8221 9.24565V9.30272L29.9362 9.41688V9.47396H29.8792V9.41688L29.8221 9.47396V9.41688L29.765 9.3598V9.13149L29.7079 9.07441V9.01734L29.765 8.96026H29.7079V8.8461L29.6508 8.78902L29.7079 8.67487V8.56071L29.8221 8.50364L29.5367 8.61779H29.4796L29.3655 8.56071H29.1942V8.61779H29.0801L29.023 8.56071L28.7947 8.61779H28.6234L28.5664 8.67487L28.3381 8.73195H28.2239L27.9956 8.8461H27.7102V8.78902L27.6531 8.73195V8.8461L27.4248 8.96026L27.3677 9.01734L27.2536 9.07441L27.1965 9.13149L27.0823 9.18857H26.9682L26.797 9.30272L26.4545 9.47396L26.1691 9.64519H25.9979L25.9408 9.70227L25.8266 9.75934H25.7696L25.7125 9.81642L25.4842 9.93058L25.3129 10.1018L25.2559 10.216L25.1988 10.273V10.3301H25.1417V10.3872L25.0275 10.4443L24.9705 10.5014H24.9134L24.7422 10.6726H24.6851L24.628 10.7297L24.5709 10.8438H24.5139L24.4568 10.9009L24.3997 11.0151L24.3426 11.1863L24.2855 11.2434V11.3004H24.3426L24.2855 11.3575L24.1714 11.4717V11.5288H24.2285V11.6429L24.1714 11.7571V12.0995L24.1143 12.1566V12.2137L24.0002 12.2708H23.9431L24.0002 12.3278L23.9431 12.3849V12.442L23.886 12.4991H23.9431L24.0002 12.5561L24.0572 12.6703V12.8415L24.1143 12.9557H24.0572L24.1143 13.0128H24.0572V12.9557V12.8415H24.0002V12.7274H23.886V12.6703H23.8289L23.886 12.7845V12.8415L24.0002 12.9557H23.9431V13.0698H24.0572V13.2411L24.1143 13.184V13.2411H24.0572V13.2982H24.1143L24.1714 13.3552V13.5265L24.1143 13.5835V13.6977L24.1714 13.8689V13.9831L24.2285 14.0402V14.0592L24.3426 13.9831L24.2285 14.0972V14.0592L24.1714 14.0972V14.2685H24.1143L24.0572 14.3256L24.1143 14.3826L24.1714 14.4968V14.7251L24.1143 14.7822H24.0002L23.7718 15.0105L23.8289 15.0676V15.1817H23.9431V15.2388H24.0002L24.2285 15.4671H24.5139V15.41L24.6851 15.4671H24.7992L24.8563 15.5242L25.0846 15.6383H25.1988V15.6954H25.3129L25.37 15.6383H25.4271V15.5813L25.4842 15.5242V15.4671L25.5983 15.41L25.7125 15.4671L25.7696 15.41L25.8837 15.353H25.9408L25.9979 15.41V15.5242H26.3403V15.5813H26.3974L26.4545 15.5242V15.6383H26.3974L26.112 15.6954H26.0549V15.7525L25.8837 16.0379L25.5983 16.4945V16.5516L25.5412 16.7228V17.8073H25.5983L25.7125 17.9214L25.8266 18.0927L25.9979 18.321L26.0549 18.3781H27.4248L27.3677 18.4351V18.6635L27.4248 18.7205V18.7776L27.1965 18.7205L27.2536 18.7776H27.3677V18.8347L27.4248 18.8918V19.0059L27.539 19.1201V19.2342L27.596 19.2913V19.5767L27.539 19.7479L27.4819 19.8621V19.9762L27.4248 20.0904V20.2046L27.3677 20.1475V20.2616H27.3107V20.1475L27.539 19.6909V19.2342L27.4819 19.1201L27.1965 18.8347V18.7776H26.797L26.5686 18.7205L26.0549 18.5493H25.9979L25.9408 18.4351H25.8837L25.8266 18.4922L25.4271 18.6064H25.37L25.3129 18.6635L24.8563 19.063V19.1201H24.5139V19.1772L24.4568 19.3484V19.2913L24.3997 19.4055V19.6338L24.2855 19.6909H24.2285L24.1714 19.7479L24.1143 19.8621H24.0002V19.9192L23.0298 20.547L22.8586 20.6612V20.7183H22.8015V20.7753H22.71L22.3449 21.0036L22.2878 21.0607L22.0595 21.232H22.0024V21.289L22.1166 21.4032V21.6886L22.0595 21.7456H22.1166L22.1737 21.8598H22.1166L22.1737 21.9169L22.2307 21.8598H22.2878L22.5161 21.8027H22.6303L22.6874 21.8598H22.9157L23.0869 21.9169L23.2011 22.031L23.3723 22.0881L23.4294 22.1452V22.2023H23.4865L24.0002 22.6589L24.0572 22.773H24.1143L24.2285 22.8301L24.3426 22.773L24.628 22.6589H24.7992L24.8563 22.6018L25.0275 22.5447H25.0846L25.1417 22.3164L25.1988 22.2593V22.0881H25.2559V21.8027H25.1988V21.7456L25.1417 21.6315L25.37 21.4032L25.4842 21.4603L25.6554 21.4032H25.7125L25.7696 21.3461H25.7125L26.0549 21.0036L26.5116 20.7753H26.6257L26.6828 20.8324H26.7399L26.9682 20.6612L27.0253 20.547L27.1394 20.4329L27.1965 20.3187L27.2536 20.2616V20.3187H27.3107V20.3758H27.2536L27.3107 20.4329L26.9111 20.8324L26.797 20.8895V20.9466H26.7399L26.6828 21.0036H26.6257L26.5686 21.0607V21.1178H26.5116V21.1749H26.3974L26.2833 21.232L26.2262 21.289H26.1691L26.112 21.3461L25.9979 21.4032H25.9408L25.8266 21.5173V21.5744H25.7125V21.6886H25.6554V21.7456H25.5983V21.8027H25.5412V21.8598L25.4271 21.9169L25.3129 22.031V22.0881L25.2559 22.2023V22.3164L25.1988 22.4306V22.4877L25.1417 22.6018L25.0846 22.6589H24.7992L24.6851 22.773L24.628 22.716L24.5709 22.773L24.3997 22.8301H24.2855L24.2285 22.8872H24.1143L23.9431 22.716H23.886V22.6589L23.8289 22.6018H23.6577L23.6006 22.5447H23.4865L23.3152 22.3735V22.3164L23.3723 22.2593H23.2581L23.2011 22.2023H23.144L23.0869 22.1452H23.0298V22.0881L22.9728 22.031L22.9157 22.0881H22.5732L22.5161 22.1452H22.4591L22.402 22.2023H22.3449V22.1452H22.2878L22.1737 22.031L22.1166 21.9169H22.0595V21.8598H21.8883L21.8312 21.7456H21.5458L21.4317 21.8027L21.3746 21.7456V21.8027H21.3175V21.7456H21.3746V21.6886L21.3175 21.6315H21.2604L21.2033 21.6886H21.0892V21.6315H21.1463V21.5173L21.0321 21.4603H20.975V21.5173H20.918L20.8609 21.4603H20.8038V21.4032H20.918L20.975 21.3461L20.8038 21.232V21.1749L20.918 21.232L20.975 21.289H21.0321L21.0892 21.232V21.289L21.1463 21.3461L21.2033 21.289V21.1749H21.2604L21.3175 21.1178V21.0036L21.4887 20.8324H21.6029V20.7753L21.66 20.7183V20.6612L21.7741 20.547H21.66L21.6029 20.4899V20.547L21.4887 20.4899V20.3187L21.5458 20.2616V20.2046H21.4887L21.4317 20.2616L21.3746 20.2046L21.4887 20.1475H21.6029V20.0904L21.5458 20.0333V19.9192L21.6029 19.8621L21.66 19.9192V19.8621L21.717 19.805L21.7741 19.6909H21.717V19.5767H21.66V19.5196L21.6029 19.4625V19.4055L21.5458 19.2913V19.2342L21.4317 19.063V19.0059L21.3746 18.9488V18.8347L21.3175 18.7205V18.6635L21.2604 18.6064L21.3175 18.5493L21.2604 18.4922V18.1498H21.3175V18.0927H21.3746L21.4317 18.0356H21.5458V18.0927L21.6029 18.1498V18.0927L21.66 18.0356H21.8312L21.9454 18.1498H22.0024L22.0595 18.2068V18.2639H22.2878L22.4591 18.0927H22.6303V18.0356L22.6874 17.9785H22.7444V17.9214L22.8586 17.8644V17.8073L22.9157 17.7502V17.579L22.9728 17.4648H23.144L23.2011 17.4077H23.2581L23.2011 17.3507H23.2581L23.3723 17.2365L23.2581 17.1224V16.7799H23.2011L23.144 16.7228L23.0298 16.6657H22.8015L22.7444 16.6087H22.5732L22.5161 16.7228L22.4591 16.7799V16.837L22.402 16.7799H22.2307L22.0024 16.5516L22.0595 16.4374H22.0024L21.9454 16.3804H21.8883L22.0024 15.5242L21.8883 15.353L21.717 15.0105V14.9534L21.66 14.8963L21.4887 14.5539H21.4317H21.3746V14.668L21.2604 14.7822H21.2033L21.0892 14.8393H21.0321L20.975 14.9534H20.6326V15.0105H20.5184L20.4043 14.9534L20.233 15.0105L20.1759 14.9534L20.0047 14.8393H19.9476L19.7764 14.7251L19.6623 14.6109L19.6052 14.4968V14.2685L19.6623 14.1543V14.0972H19.6052V14.1543H19.491V14.0402H19.1486L19.0344 14.2114V14.4397L18.9773 14.6109V15.0105L18.8632 15.353L18.8061 15.6954L18.6919 16.0379V16.152H18.6349V16.2662L18.5207 16.4945V16.6087L18.4065 16.9511V17.3507L18.3495 17.579V17.8073L18.2924 18.0356V18.321L18.2353 18.3781V18.4351L18.1782 18.8347L18.1212 19.3484L18.0641 19.6338L17.8928 19.9762L17.8358 20.1475L17.9499 20.0904H18.007L18.1212 20.0333L18.1782 20.0904H18.1212V20.1475H18.007L17.9499 20.2046H18.0641V20.2616L17.9499 20.2046H17.8928V20.2616L17.7787 20.2046V20.3187L17.8358 20.4329L17.7787 20.4899V20.6041L17.7216 20.7183L17.6645 20.9466L17.6075 21.1178L17.4933 21.4032L17.265 21.8598L16.9225 22.6018L16.8084 22.773L16.7513 22.8872L16.5801 23.1726L16.523 23.2297V23.2867L16.4088 23.458L16.3517 23.5721L15.838 24.2571L15.6668 24.3712V24.4283L15.5527 24.5425H15.4956V24.6566H15.5527L15.4956 24.7137V24.6566H15.4385L15.3814 24.7137L15.3243 24.8278L14.9819 25.1703L14.8106 25.3986L14.5823 25.6269V25.684L14.4682 25.8552L14.354 25.9123L14.2399 26.0265H14.1828L14.1257 25.9694L13.8403 25.9123L13.7833 25.9694H13.6691L13.612 26.0265V26.0835L13.5549 26.1406L13.4979 26.2548L13.612 26.3689V26.426L13.4979 26.5402L13.4408 26.6543L13.3266 26.8256H13.4408L13.4979 26.8826L13.5549 26.8256L13.7833 26.7685H13.8403L13.8974 26.8826H13.8403V26.9397L13.7262 27.0539V27.1109L13.6691 27.168V27.2251L13.7262 27.2822L13.9545 27.6246V27.7388L13.8974 27.7959L14.0116 27.7388L14.1828 27.91V27.9671H14.4111L14.354 28.0242L14.4111 28.0813H14.4682V28.0242H14.6394L14.6965 28.0813L14.8106 28.2525H14.9819V28.3096H15.096L15.1531 28.4237L15.2102 28.4808H15.3243L15.2673 28.5379H15.2102L15.2673 28.652L15.3243 28.7091L15.4956 28.7662V28.8233H15.6097L15.7239 28.8804H15.838V28.9374L16.0664 28.9945L16.1805 29.1087H16.2376L16.3517 29.1657L16.523 29.2799H16.5801L16.6371 29.337H16.7513V29.3941H17.0367L17.1508 29.4511H17.265L17.3221 29.5082H17.3791L17.4362 29.5653H17.4933L17.6075 29.5082H17.6645L17.8358 29.4511H17.8928L17.9499 29.3941H18.0641L18.1212 29.2799L18.1782 29.337H18.2353L18.3495 29.2799V29.3941L18.2353 29.4511L18.1782 29.5082H18.1212L18.007 29.6224L17.5504 29.7365H17.4362L17.265 29.7936H17.1508L16.9796 29.7365L16.9225 29.6794H16.8654L16.8084 29.6224H16.6371L16.5801 29.6794L16.4659 29.7365L16.4088 29.7936V29.8507L16.3517 29.9648L16.1805 30.1361L16.0664 30.1931H16.0093L15.9522 30.2502H15.8951V30.1931H15.838L15.781 30.2502H15.6097L15.5527 30.3073H15.4385L15.3814 30.4215H15.3243V30.3644H15.1531L15.039 30.3073H14.8677H14.8106L14.6965 30.2502L14.5253 30.1361H14.4682L14.297 30.079V30.1361L14.1828 30.2502H14.1257L14.1828 30.3644H14.2399L14.354 30.5927H14.6965V30.5356H14.7536V30.6498L14.6965 30.7068H14.4111L14.354 30.7639H14.297L14.1828 30.6498L13.9545 30.5927H13.8974L13.7833 30.6498L13.7262 30.7068H13.6691L13.5549 30.7639L13.4979 30.821L13.4408 30.7639L13.3266 30.821L13.2696 30.8781V30.9922H13.3266V31.0493H13.4408L13.5549 31.1635H13.612V31.2776L13.6691 31.3347H13.7262L13.8403 31.4488V31.563L13.8974 31.6201H13.9545V31.6772H14.4111L14.4682 31.7342H14.5253V31.6772L14.7536 31.7913L14.6965 31.8484V31.9625H14.7536L14.9819 32.0767L15.039 32.1338V32.5333L15.096 32.7616H14.9248L14.8677 32.7046H14.6965L14.6394 32.7616H14.5823L14.5253 32.8187H14.354V32.7616H14.297L14.1257 32.6475H14.0686L14.0116 32.4762H13.9545L13.8403 32.305V32.2479L13.7833 32.1909L13.8403 32.1338L13.7833 32.0767V31.9625H13.7262L13.4979 31.7342H13.3837L13.3266 31.6772H13.2696L13.1554 31.6201H13.0983L13.0412 31.563L12.9842 31.6201H12.9271V31.6772L12.8129 31.5059H12.87L12.8129 31.4488V31.3918H12.6417L12.5846 31.4488H12.1851V31.3918L12.128 31.3347H12.0138L11.8997 31.3918H11.8426L11.7855 31.4488L11.6143 31.3918H11.5572L11.5001 31.3347L11.4431 31.3918L11.3289 31.4488V31.5059L11.2718 31.563V31.6201L11.2148 31.6772H11.1577L11.1006 31.7342H11.2148L11.1006 31.7913V31.7342L10.9294 31.563V31.5059L10.8723 31.3347V31.2776H10.8152L10.7581 31.2205L10.644 31.1635L10.5298 31.0493V30.8781L10.5869 30.821H10.4727L10.4157 30.7639H10.0161V30.821H9.90197L9.84489 30.8781L9.73074 30.9352L9.67366 30.9922L9.55951 31.0493H9.50243L9.38827 31.1635L9.27412 31.2205L9.21704 31.2776H9.15996L9.04581 31.3918V31.563L9.10288 31.6772H9.15996L9.27412 31.7913L9.38827 31.8484V31.9055H9.44535L9.55951 32.0196V32.0767L9.61658 32.1338V32.1909L9.67366 32.2479V32.305L9.78782 32.4192L9.90197 32.4762V32.5333H9.95905L10.0161 32.5904V32.6475H10.2444V32.4762H10.3015V32.5904L10.3586 32.6475H10.5298L10.5869 32.5904V32.5333H10.8152L10.7011 32.4762L10.7581 32.4192L10.8723 32.3621H10.9294V32.4192L11.1006 32.305V32.1909L11.1577 32.2479V32.305H11.2148L11.1577 32.3621H11.1006L10.9864 32.4192L11.1006 32.4762H11.2148L11.1577 32.5333L11.2148 32.5904V32.6475L11.1577 32.5904L11.1006 32.6475H11.0435L11.1006 32.5333L10.9864 32.4762L10.9294 32.4192L10.8723 32.5333L10.9294 32.5904L11.1006 32.7046L11.1577 32.7616V32.8187H11.2148V32.9899H11.2718L11.3289 33.047H11.386V32.9899H11.4431L11.5572 33.047H11.6143V33.1041L11.7285 33.1612V33.2183H11.7855L11.8997 33.3324H12.0709L12.1851 33.2753H12.2422L12.2992 33.2183H12.4705L12.5275 33.2753L12.5846 33.2183L12.6417 32.9899H12.6988V32.8758H12.7559V32.5333L12.87 32.5904L12.9842 32.5333H13.0412L13.1554 32.4192L13.3266 32.5904V32.6475H13.3837V32.7046H13.4979L13.612 32.8187H13.7262V32.9899L13.8403 33.047H13.8974L13.9545 33.1041H14.0116L14.2399 33.2183H14.354L14.4111 33.2753H14.5253L14.6965 33.2183L14.8106 33.1612H14.9248V33.2183H15.039L15.1531 33.2753L15.2102 33.4466V33.5607H15.3814L15.4956 33.5036H15.8951V33.5607L15.9522 33.6178V33.789L16.0093 33.732L16.1805 33.789H16.4088L16.4659 33.732L16.5801 33.6749H16.6371V33.5607L16.3517 33.1612L16.2947 32.9899L16.3517 32.9329H16.4088V32.7046H16.3517L16.2947 32.6475L16.3517 32.5904L16.7513 32.4192H16.8654L16.9796 32.305H17.0938L17.4933 32.2479L17.5504 32.3621L17.4362 32.6475L17.4933 32.9899L17.7787 32.8758H17.9499L18.1782 32.9329L18.2924 32.9899H18.3495V32.9329L18.4065 32.9899L18.5207 32.9329L18.4636 32.7046L18.6349 32.6475H18.6919L18.749 32.4762L18.8632 32.4192L18.9202 32.3621L18.9773 32.2479L19.0915 32.1909L19.1486 32.1338L19.0915 32.0767H19.2056V32.0196L19.3198 31.9625L19.3769 32.0196V32.0767H19.491L19.6052 32.1338H19.6623V32.2479L19.7193 32.305L19.7764 32.2479L19.8335 32.305L19.7764 32.4192V32.5333H19.8335V32.5904H19.7764L19.6623 32.7046L19.7193 32.9329V32.9899H19.8335V33.047H19.7764L19.6052 32.9899L19.5481 32.9329H19.4339V32.8758H19.3769L19.2627 32.9329V33.047L19.3198 33.1041L19.4339 33.1612H19.491L19.6623 33.1041H19.8906L19.9476 33.1612H20.0047V33.1041H20.233L20.3472 33.2183V33.2753H20.4043L20.4613 33.3324H20.5184L20.7467 32.9899L21.0892 32.7616V32.6475H21.1463V32.5904L21.0892 32.5333V32.4762L21.1463 32.4192V32.3621L21.2033 32.305L21.3175 32.2479H21.3746L21.3175 32.305L21.3746 32.3621V32.4192H21.66L21.8312 32.9329L21.6029 33.3895L21.9454 33.789V33.8461L22.0595 33.9603V34.3598L22.2878 34.4169L22.3449 34.3598L22.5161 34.3027H22.5732V34.2457L22.9157 34.474L22.8015 34.9306L22.8586 34.9877L23.0869 34.9306L23.3152 34.9877H23.6006L23.6577 34.9306L23.7148 34.8164L23.886 34.8735L24.1143 34.9306L24.2285 34.9877L24.4568 34.7594L24.628 34.7023L24.7422 34.5881V34.531H24.7992L25.0275 34.5881V34.6452L25.0846 34.7594L25.2559 34.8735L25.3129 34.9306V35.2731L25.37 35.5014H25.4271L25.5412 35.5584L25.9979 35.7297L26.0549 35.7867V35.8438L26.112 35.958L26.1691 35.9009L26.2262 35.958H26.6828L26.7399 35.9009H26.797L26.854 35.958H26.9682L27.0253 36.0151V36.0721H27.0823L27.0253 36.1292H26.9682V36.1863H27.0253V36.3575H27.0823V36.3004H27.1965V36.2434H27.3107V36.1863L27.4248 36.1292V36.1863H27.4819V36.3004L27.6531 36.4146L27.539 36.5288V36.5858L27.4248 36.6429H27.3677V36.7L27.2536 36.8141L27.3107 36.8712H27.4248L27.4819 36.9283V36.9854L27.4248 37.0425V37.0995H27.3677L27.3107 37.0425H27.1965V37.1566L27.2536 37.2137V37.2708H27.1965V37.3278L27.2536 37.442H27.1965V37.4991H27.1394L27.0253 37.442L26.9682 37.6132V37.7274L26.9111 37.7845V37.8415H26.9682L27.0253 37.8986V37.9557L26.9682 38.0699V38.2411L26.854 38.3552L26.797 38.4694H26.7399L26.6257 38.6977V38.7548H26.7399L26.797 38.6977H26.854L26.9111 38.7548V38.8119L26.797 38.8689V38.9831L26.6828 39.0973V39.1543L26.6257 39.2114L26.6828 39.2685L26.6257 39.3256H26.4545L26.3974 39.3826V39.4968L26.2833 39.611V39.668H26.2262L26.1691 39.7251H26.112V39.7822H25.9979L26.0549 39.8393L25.9979 39.8963V40.2388H26.0549V40.353H26.112V40.41L26.1691 40.4671H26.2833V40.5242H26.3974L26.4545 40.5813V40.6383L26.3974 40.6954L26.4545 40.8667V40.9808L26.3403 41.152V41.2091H26.4545L26.5116 41.152H26.5686L26.6257 41.095V41.152L26.6828 41.2091H26.7399L26.797 41.152V41.095L26.854 41.0379L26.9682 40.8667H27.0823V40.9808L27.1394 41.095L27.1965 41.0379L27.3107 41.2091H27.3677L27.4248 41.152L27.4819 41.2091L27.596 41.095V41.2662L27.7102 41.152V41.095H27.8244L27.9385 41.0379V41.2091L28.0527 41.2662V41.2091H28.1668V41.2662L28.281 41.2091L28.3381 41.152H28.5664L28.6234 41.2091L28.7376 41.2662H28.7947V41.2091H28.9659V41.095L29.023 40.9808L28.8518 40.8667H28.7947L28.7376 40.8096V40.7525H28.6805L28.6234 40.6954V40.5813L28.6805 40.5242L28.7376 40.5813L28.8518 40.6383L28.9088 40.5242L28.9659 40.4671V40.41H29.023L28.9659 40.353V40.2959L28.9088 40.2388V40.1246L28.9659 40.0676H29.0801L29.1371 40.0105H29.1942V39.9534H29.2513V40.0105L29.3655 40.0676V39.8963H29.4225V39.8393L29.4796 39.7822V39.668L29.4225 39.611V39.668L29.3655 39.5539V39.4397L29.4225 39.3826V39.3256L29.4796 39.2685V39.2114L29.4225 39.1543H29.1942V39.0402L29.1371 39.0973L29.0801 39.0402L28.9088 38.9831V38.8119L28.7947 38.7548L28.8518 38.6977H28.9088V38.6406L28.9659 38.4123H28.6234L28.5664 38.4694H28.5093L28.4522 38.4123V38.3552H28.3951L28.281 38.4123H28.2239L28.1668 38.4694H28.1097L28.0527 38.5265H27.9956L27.9385 38.4694L28.0527 38.3552V38.184H27.9956L27.9385 38.1269V38.0699H27.8814V38.0128H27.8244V37.7274L27.7673 37.6703L27.7102 37.5562H27.9385V37.4991L28.0527 37.442L28.1097 37.3849V37.442L28.2239 37.6132L28.281 37.7274V37.7845L28.3381 37.7274H28.3951V37.7845H28.4522V37.7274L28.5093 37.6703V37.6132L28.5664 37.5562V37.442L28.6234 37.3849V37.3278L28.6805 37.2708V37.2137L28.7376 37.1566L28.8518 37.0995L28.9088 37.0425L29.023 36.9854H29.0801L29.1942 36.8712V36.8141L29.2513 36.7571H29.3655L29.4225 36.7V36.5858L29.4796 36.5288H29.5938L29.6508 36.4717H29.7079V36.4146H29.8221L29.8792 36.3575H30.0504L29.9933 36.3004H30.0504L30.1075 36.2434L29.8792 36.0721H29.8221L30.1645 35.9009L30.0504 35.7867L29.7079 35.958L29.5938 36.0721H29.3655V36.0151L29.3084 35.958V35.5584L29.2513 35.5014L29.3084 35.4443H29.4225L29.3084 35.216L29.4225 35.1589L29.4796 35.0447L29.7079 34.8164V34.7594L29.765 34.7023L29.8792 34.531L29.9362 34.4169V34.3598L29.9933 34.3027V34.1886L30.0504 34.1315V34.0744H30.2216V34.0173L30.507 33.732L30.4499 33.5607L30.3928 33.4466V33.3895L30.507 33.2753H30.3358V33.2183L30.3928 32.8758V32.7046H30.4499L30.3928 32.5904L30.4499 32.5333V32.3621L30.3358 32.1338L30.3928 32.0196L30.3358 31.9625V31.7913L30.2787 31.6772L30.0504 31.563L29.9362 31.2205L29.8221 31.1635L29.7079 31.0493L29.6508 30.9352V30.8781H29.5938L29.4225 30.7639V30.5356H29.4796V30.4785L29.5367 30.3073V30.2502L29.5938 30.1931V30.1361L29.4796 30.079H29.3655V30.0219H29.2513L28.9659 29.9078L28.9088 29.8507V29.7365L28.9659 29.6794L28.9088 29.6224V29.4511H29.023V29.3941H28.9659V29.2799H28.9088L28.7376 29.1657L28.6805 29.1087H28.3381V28.9945L28.3951 28.9374L28.5093 28.8804H28.5664L28.6234 28.7662V28.7091H28.5664V28.595H28.6234L28.5664 28.5379H28.5093V28.3667L28.3951 28.2525H28.281V28.1954L28.3381 28.1383H28.3951L28.281 28.0813L28.3951 27.91H28.4522V27.9671H28.6234L28.7376 27.91H28.7947L28.9088 27.7959L28.9659 27.853L29.0801 27.7388H29.1371L29.0801 27.6817L29.1942 27.5676L29.3655 27.7388H29.4796L29.7079 27.7959H29.8792L29.9362 27.853V27.5676L29.8221 27.5105H29.765V27.3963L29.7079 27.2822L29.6508 27.2251H29.4796L29.5367 27.168V27.1109H29.5938L29.6508 27.168L29.8792 27.0539L29.9362 27.1109H29.9933L30.0504 27.168L30.1645 27.2251V27.2822H30.0504L30.2216 27.4534L30.3358 27.5105H30.4499V27.4534H30.5641L30.6212 27.5105H30.6782V27.4534H30.7353V27.3963L30.7924 27.4534L30.9636 27.5105V27.5676L31.0207 27.6817V27.7388L31.1349 27.6817H31.3061L31.3632 27.7388H31.4202L31.4773 27.7959V27.91H31.6486L31.7627 27.9671H31.8198L31.7627 27.853L31.8198 27.91L31.7627 27.7959V27.7388L31.8198 27.6817H31.7627V27.6246H31.7056L31.6486 27.5676V27.3963L31.7627 27.4534H31.8198L31.8769 27.5105H31.9339V27.5676H32.0481L32.1052 27.5105L32.1623 27.6246H32.2193L32.2764 27.6817L32.3335 27.6246L32.5047 27.5676V27.4534H32.5618L32.6189 27.3963H32.733L32.7901 27.3393V27.2822H32.8472L32.9043 27.2251V27.2822H32.9613L33.0184 27.2251L33.1326 27.168L33.418 27.0539H33.5321V26.9968L33.7604 26.8826H33.8175L33.8746 26.8256V26.8826H33.9887V26.9397L34.16 27.1109L34.2741 27.0539V26.9968H34.3312L34.3883 26.9397H34.4454V26.8826L34.5024 26.8256H34.5595L34.6737 26.6543L34.7308 26.5972V26.3119L34.8449 26.2548H34.9591L35.0161 26.1406L34.9591 26.0835V25.9123L34.7878 25.8552H34.8449L34.5024 25.6269L34.4454 25.5699L34.3883 25.4557L34.1029 25.3415H33.8746V25.1132L33.9317 25.0562V24.942H34.1029L34.3312 24.8278V24.6566H34.3883V24.5995L34.4454 24.3712H35.0732L35.2444 24.2V24.1429L35.3015 23.8575H35.3586V23.8004L35.5298 23.6863V23.6292L35.7011 23.5721H35.8723L35.9294 23.458V23.4009L35.9865 23.3438V23.2867L36.0435 23.2297V23.0584L36.1006 23.0014L36.2148 22.9443L36.2718 23.0014H36.5002L36.6714 22.8872V22.8301L36.5002 22.6018L36.4431 22.5447V22.4306H36.386V22.2023L36.4431 22.031V21.974H36.5002V21.9169H36.5572V21.8027L36.6143 21.6886V21.6315L36.7285 21.4603V21.1749L36.6143 20.9466V20.8324H36.4431L36.3289 20.6041L36.2148 20.4899V20.4329L36.1577 20.3187V20.2046L36.1006 20.0904V20.0333H35.9865L35.9294 20.1475L35.8723 20.3187L35.7581 20.3758V20.4329H35.7011L35.4157 20.3758L35.3015 20.3187L35.1303 20.2616H35.0161L35.0732 20.1475H34.3312L34.2741 20.0904L34.0458 19.9762L33.9887 19.9192L33.8746 19.8621L33.9317 19.4055L33.8175 19.2342L33.7034 19.0059H33.7604L33.8746 19.063H33.9887L34.0458 18.8918H34.16L34.2741 18.9488L34.3312 18.8918L33.9887 18.6064V18.4922L34.0458 18.2639V18.2068L33.9317 18.0927L33.9887 18.0356H34.0458L34.1029 17.9785L34.16 17.8644H34.3312L34.3883 17.8073H34.6737L34.7308 17.8644L34.7878 17.8073H35.0732L35.1303 17.7502L35.1874 17.8073H35.3586L35.4728 17.8644V17.9214H35.8723L35.9294 17.8644H35.9865L36.0435 17.9214L36.1006 17.8644V17.9214H36.1577L36.3289 17.9785H36.386L36.5002 17.8644V17.4648L36.5572 16.894V15.8096L36.7285 15.4671L36.6714 15.353V15.2959L36.7855 15.1246L37.128 14.5539L37.3563 14.1543L37.4705 13.6977L37.5276 13.4123L37.5846 13.3552V13.2982L37.4705 12.7845V12.0425L37.2992 11.9283V11.7L37.3563 11.6429V11.4717L37.4134 11.3004H37.4705L37.5276 11.2434H37.6417L37.5276 11.1863L37.4705 11.1292L37.5276 11.0721V10.7867L37.4705 10.6155V10.5584H37.4134L37.2422 10.5014H37.1851V10.4443H36.9568V10.3872H36.7285L36.6714 10.3301H36.6143L36.5002 10.216V10.0447L36.5572 9.98766L36.5002 9.8735V9.81642H36.5572L36.6143 9.70227V9.64519L36.5002 9.70227L36.4431 9.75934H36.1006L35.9865 9.70227V9.64519H35.8723L35.644 9.53103V9.58811L35.4157 9.47396H35.3586V9.41688H35.4157L35.2444 9.24565H35.1874L35.1303 9.18857V8.90318L35.0732 8.8461V8.61779L35.0161 8.50364H34.9591V8.3324L35.0161 8.16117V8.10409L34.8449 7.93286L34.7308 7.87578L34.6737 7.98994L34.7308 8.04702H34.6166H34.5595V7.98994L34.6166 8.04702V7.98994L34.6737 7.87578H34.6166L34.5024 7.8187L34.3883 7.93286L34.3312 7.87578L34.2171 7.8187H34.0458L33.9887 7.76163ZM35.4157 9.41688L35.4728 9.47396V9.41688H35.4157ZM37.4705 10.5584V10.4443L37.4134 10.5014L37.4705 10.5584ZM20.4613 33.3324H20.3472L20.4043 33.3895L20.4613 33.3324ZM10.5869 30.821H10.644V30.9352H10.7011V31.0493H10.7581L10.8152 31.1064H10.8723L10.9864 31.2205L11.0435 31.1635V31.2205H10.9864L11.1006 31.3347V31.4488L11.0435 31.5059L11.1006 31.563V31.6201L11.1577 31.5059H11.2148L11.2718 31.3918L11.3289 31.3347L11.5572 31.2776H11.6714L11.7285 31.3347H11.9568V31.2776H12.128L12.2422 31.3918H12.3563L12.4134 31.2776H12.5275L12.5846 31.2205V31.0493H12.5275V30.9922L12.4705 30.9352L12.4134 30.821V30.7639L12.3563 30.7068H12.2422V30.6498H12.128L12.0138 30.7068L11.9568 30.6498H11.8426L11.7285 30.7068L11.6714 30.7639L11.5572 30.7068L11.4431 30.7639H11.386L11.3289 30.821H11.2718L11.2148 30.7639H11.1577L11.1006 30.7068H10.9864V30.6498H10.9294V30.7068L10.5869 30.821ZM13.8974 27.7959L13.8403 27.853H13.8974V27.7959ZM19.6623 14.0972V14.0402H19.6052L19.6623 14.0972ZM20.918 21.4032V21.4603H20.975L20.918 21.4032ZM25.8266 21.5173L25.7125 21.4603L25.7696 21.5173H25.8266ZM22.71 20.7753L22.8015 20.7183L22.6874 20.7753H22.71ZM23.886 12.4991L23.7148 12.6703H23.6006L23.6577 12.7274H23.7148L23.7718 12.6703L23.886 12.4991ZM24.2855 11.3575V11.3004L24.2285 11.3575H24.2855ZM30.1645 9.24565V9.30272L30.2216 9.3598L30.1645 9.24565ZM29.8221 9.58811H29.8792V9.64519L29.8221 9.58811ZM29.7079 9.64519H29.765L29.7079 9.70227V9.64519ZM24.1143 13.0698H24.1714L24.1143 13.1269V13.0698ZM21.7515 17.4529L21.7563 17.4553L21.7206 17.472L21.7515 17.4529ZM21.5851 17.5695L21.5732 17.5802V17.579L21.5851 17.5695ZM21.5732 17.6004L21.5779 17.6361L21.4923 17.6491L21.4911 17.648L21.3746 17.6931L21.4887 17.648H21.4911L21.5732 17.6349V17.6004ZM26.5686 18.4922V18.5493H26.6257V18.6064L26.6828 18.6635V18.6064H26.7399L26.797 18.5493L26.7399 18.4922H26.5686ZM21.8883 20.1475V20.2616L21.8312 20.3758H21.8883L21.9454 20.3187H22.0024L22.0595 20.2616H22.1166V20.2046L22.0024 20.2616L21.8883 20.1475ZM16.8084 28.1383H16.8654L16.8084 28.1954V28.1383Z" fill="black"/>
<path fill-rule="evenodd" clip-rule="evenodd" d="M28.9646 8.04576L28.9075 8.10284H28.8505V7.98868L28.9075 7.9316H28.9646V8.04576Z" fill="black"/>
<path fill-rule="evenodd" clip-rule="evenodd" d="M26.9109 7.93286L27.6529 7.87578L27.9954 7.8187H28.1666L28.2808 7.87578H28.3378V7.98994H27.8241L27.5958 8.10409H27.5387L27.0821 8.21825H26.8538L26.6826 8.16117H26.4543V8.21825L26.3401 8.3324H26.226L26.1689 8.38948H26.1118L26.0547 8.44656L25.9976 8.38948H25.8835L25.8264 8.3324L25.7123 8.27533L25.6552 8.16117V8.10409L25.7123 8.04702L25.7693 7.93286L25.9406 7.76163H26.0547L26.1118 7.8187H26.1689L26.226 7.87578H26.1689L26.1118 7.8187H25.9406L25.8835 7.87578H26.0547L26.283 7.93286H26.9109Z" fill="black"/>
<path fill-rule="evenodd" clip-rule="evenodd" d="M31.0761 7.30406V7.41821H30.8477L30.7336 7.47529L30.5624 7.53237L30.5053 7.58944V7.64652L30.3911 7.7036H30.1628L29.9916 7.76068H29.7062L29.6491 7.87483V7.93191H29.592V7.98899H29.4779V8.04607L29.4208 7.93191V7.87483H29.4779L29.535 7.81776L29.4779 7.76068V7.58944L29.535 7.53237L29.6491 7.47529V7.41821H29.4779L29.535 7.36113L29.6491 7.41821H29.8204L30.3911 7.36113H30.5624L30.9048 7.30406L31.019 7.24698L31.0761 7.30406Z" fill="black"/>
<path fill-rule="evenodd" clip-rule="evenodd" d="M24.1145 8.61658L24.0003 8.67366H23.9432L23.7149 8.90197H23.6008V8.95905H23.5437L23.4866 8.90197V8.95905H23.4295L23.3725 9.01613H23.3154V9.0732L23.2583 9.01613H23.0871L22.9729 9.13028L22.9158 9.0732L22.8588 9.13028H22.8017L22.7446 9.18736V9.24444H22.6875L22.5734 9.30152H22.6305L22.5734 9.35859H22.4021L22.3451 9.24444H22.288V9.18736L22.3451 9.13028L22.5734 8.78782L22.8017 8.67366L23.03 8.61658L23.3725 8.55951H23.4866L23.8291 8.44535L24.1145 8.33119L24.7423 8.10288H24.9136L25.0848 8.04581L25.1419 8.10288H25.199L25.256 8.15996V8.27412V8.21704L25.199 8.15996V8.21704L25.0848 8.33119H24.9136L24.7994 8.38827L24.7423 8.33119V8.38827H24.7994L24.7423 8.44535H24.6282V8.38827H24.5711L24.6282 8.44535V8.50243H24.514L24.5711 8.55951H24.6853L24.6282 8.61658H24.1145Z" fill="black"/>
<path fill-rule="evenodd" clip-rule="evenodd" d="M22.3414 9.93057L22.2272 10.0447H22.056V10.1018H21.9989V10.0447L22.1131 9.93057H22.3414Z" fill="black"/>
<path fill-rule="evenodd" clip-rule="evenodd" d="M21.6025 9.98852V10.0456L21.5455 10.1027L21.4313 10.1598L21.0888 10.2739L20.9747 10.331V10.5022H21.0318V10.4451H21.0888L21.0318 10.5022L20.9747 10.6164L20.8034 10.7305L20.7464 10.7876H20.6893V10.8447L20.6322 10.9018L20.5181 10.9588H20.1756L20.1185 11.0159V11.073H20.0614V10.8447L20.4039 10.6735L20.5751 10.5022L20.6893 10.4451L20.8605 10.2739L21.0888 10.1027L21.203 10.0456L21.2601 9.98852L21.4313 9.93145L21.6596 9.81729H21.7167L21.8879 9.87437V9.93145L21.8308 9.98852H21.6025Z" fill="black"/>
<path fill-rule="evenodd" clip-rule="evenodd" d="M18.7429 13.9817L18.6858 14.0388H18.6287V14.0958H18.5716L18.5146 14.0388V13.8675H18.6858L18.857 13.8105H18.9712V13.8675L18.7429 13.9817Z" fill="black"/>
<path fill-rule="evenodd" clip-rule="evenodd" d="M20.1176 13.0695L19.9464 13.2407H19.7751L19.6039 13.469V13.5832H19.4897L19.4327 13.5261L19.3185 13.469H19.2614L19.4327 13.6402H19.4897H19.3756V13.6973H19.2614L19.2043 13.7544H19.1473L19.0902 13.8115H19.0331V13.6402L18.976 13.4119V13.2407L19.0331 13.0695V13.0124L19.2043 12.4987L19.2614 12.4416L19.3756 12.2704L19.4897 12.0421L19.661 11.8708V11.985L19.8322 11.8137V11.7567L19.7751 11.8137L19.661 11.8708L19.8322 11.5284L19.8893 11.4713L20.0034 11.4142V11.3571H20.1176L20.2317 11.4713V11.5854V11.6425L20.3459 11.7567L20.46 11.9279V11.985L20.403 12.0421V12.6128L20.3459 12.727H20.2888L20.2317 12.7841V12.8982L20.1176 13.0124V13.0695Z" fill="black"/>
<path fill-rule="evenodd" clip-rule="evenodd" d="M21.5975 14.3255L21.5404 14.3825H21.4833V14.3255H21.5975Z" fill="black"/>
<path fill-rule="evenodd" clip-rule="evenodd" d="M20.5184 15.0105L20.4043 14.9534L20.233 15.0105L20.4616 14.8964L20.5187 14.8393L20.6328 14.7823H20.6899L20.8041 14.611V14.554L20.9182 14.4398H21.0324L21.0895 14.3827H21.1465L21.2036 14.4398H21.2607L21.3178 14.3827H21.3749L21.4319 14.4398V14.3827H21.489V14.4969L21.4319 14.4398L21.4317 14.5539H21.3746V14.668L21.2604 14.7822H21.2033L21.0892 14.8393H21.0321L20.975 14.9534H20.6326V15.0105H20.5184Z" fill="black"/>
<path fill-rule="evenodd" clip-rule="evenodd" d="M13.4992 27.6806L13.3851 27.7376H13.4992V27.6806ZM13.4992 27.7376L13.328 27.7947H13.2138L13.328 27.7376L12.8143 27.9089L12.7001 27.966H12.6431L12.4718 28.023H12.4147L12.3577 28.1372V28.2513L12.4147 28.4226V28.4797H12.4718V28.5367H12.5289L12.6431 28.4797V28.4226H12.586V28.3655H12.7572L12.8143 28.3084H12.9855L13.0997 28.1943L13.2138 28.2513H13.328L13.4421 28.3084V28.3655L13.4992 28.4226L13.5563 28.5367H13.6134V28.708H13.5563V28.765H13.6134L13.5563 28.8221V28.8792L13.6134 28.9934H13.6705V29.0504L13.7275 29.1075V29.1646L13.7846 29.2787V29.3929H13.8988L13.9558 29.45L14.0129 29.3929V29.45H14.3554L14.4125 29.5071L14.5837 29.5641L14.6408 29.6783L14.6978 29.7354H14.8691V29.7924H14.9832L15.0403 29.8495H15.0974V29.9637L15.2115 30.0208L15.2686 30.0778H15.554L15.6682 30.0208H15.8394L16.0106 29.9637L16.1248 29.9066L16.1819 29.8495L16.2389 29.7354V29.6783H16.1819V29.6212H16.4102L16.5243 29.5641H16.4673V29.45H16.4102L16.3531 29.5071H15.8394L15.7252 29.3358H15.6111L15.554 29.2787H15.4969L15.4399 29.2217V29.1646L15.3257 29.1075V28.9934H15.2686L14.9262 28.6509H14.8691V28.5938H14.7549L14.6978 28.5367H14.6408L14.5266 28.4226L14.4125 28.3655H14.3554L14.1271 28.2513L14.07 28.1943L13.8988 28.1372V28.0801L13.8417 28.023H13.7846V28.0801L13.7275 28.023H13.7846V27.9089H13.7275V27.966H13.6705V27.9089L13.5563 27.8518V27.7947L13.4992 27.7376ZM12.4147 28.5367L12.3577 28.6509L12.3006 28.708L12.1864 28.765H12.2435L12.3577 28.8221L12.4147 28.8792H12.4718V28.8221L12.3577 28.708L12.4147 28.5367Z" fill="black"/>
<path fill-rule="evenodd" clip-rule="evenodd" d="M13.0938 28.5374H12.9796L12.7513 28.6515H12.6942V28.5944L12.8084 28.5374V28.4803L12.9226 28.3661V28.4232H12.9796L13.0938 28.5374Z" fill="black"/>
<path fill-rule="evenodd" clip-rule="evenodd" d="M15.7242 28.9364L15.8384 28.9935L16.0096 29.0505L16.1238 29.1076L16.1808 29.1647H16.1238L16.0096 29.2218H15.7813L15.6671 29.1076H15.6101L15.4959 28.9935H15.4388L15.3817 28.9364L15.4388 28.8793H15.553L15.7242 28.9364Z" fill="black"/>
<path fill-rule="evenodd" clip-rule="evenodd" d="M9.49986 33.046V33.1031H9.3857L9.27155 33.1602H9.15739L9.10032 33.2173H8.81493V33.2743H8.75785L8.70077 33.3314H8.58662L8.52954 33.3885H8.47246V33.4456L8.52954 33.5026V33.731L8.58662 33.788V33.9022L8.35831 34.1305L8.52954 34.3017H8.41538V34.3588L8.52954 34.473V34.53L8.47246 34.5871L8.52954 34.6442H8.58662L8.6437 34.7584H8.70077L8.75785 34.8725L8.81493 34.8154L8.87201 34.8725V34.9867H8.92908L8.98616 35.0437H9.21447L9.67109 34.9867L9.61402 34.5871L9.55694 34.53L9.67109 34.473L9.72817 34.53H9.78525V34.473H9.8994V34.4159H9.95648L10.0706 34.53L10.1277 34.473L10.0706 34.3588L10.1848 34.3017L10.2419 34.3588L10.356 34.4159L10.4131 34.473L10.5273 34.53H10.5843V34.473H10.6985L10.8126 34.5871H10.8697L10.9268 34.6442V34.7013H11.098L11.1551 34.7584V34.7013L11.3834 34.7584H11.4405L11.4976 34.8725H11.5547V34.8154L11.6688 34.9296H11.7259V34.9867L11.6688 35.0437V35.4433L11.7259 35.5004H11.783V35.4433L11.84 35.5004H12.2396L12.3537 35.3862H12.4679V35.5004H12.4108L12.3537 35.5574L12.4108 35.6145H12.525L12.6391 35.5574H12.6962L12.6391 35.4433L12.7533 35.3862L12.8104 35.5004H12.8674V35.4433H12.9816L13.0387 35.3862V35.3291H13.1528L13.2099 35.215H13.267L13.3241 35.1579L13.4382 35.1008H13.4953V35.1579H13.5524L13.6095 35.1008V35.1579H13.7236L13.7807 35.1008H13.8378L14.009 34.9296L14.2373 34.8154L14.5227 34.5871L14.5798 34.53L15.1505 33.8451H15.0935V33.788H15.0364V33.6739L14.9793 33.731V33.6168L14.9222 33.5597H14.8081L14.8652 33.5026H14.751V33.5597L14.6939 33.6168V33.6739L14.751 33.731H14.8081V33.788V33.8451L14.751 33.788L14.6939 33.8451H14.751L14.6939 33.9022H14.751V33.9593L14.6939 33.9022H14.5798L14.6368 33.9593V34.0163L14.5798 33.9022L14.5227 33.8451H14.4656L14.5227 33.9022L14.5798 33.9593H14.5227V33.9022H14.4656V33.8451V33.788L14.3515 33.6739H14.1802V33.731H14.3515L14.2944 33.788V33.8451L14.3515 33.788L14.4085 33.8451H14.3515V33.9593H14.4085V34.0163H14.3515L14.2373 33.788H14.1802L14.009 33.6739V33.6168H13.9519V33.6739L13.7236 33.6168L13.6665 33.5597V33.5026L13.6095 33.4456V33.3885L13.5524 33.3314L13.6095 33.2743H13.5524L13.4953 33.2173V33.1602H13.3241L13.267 33.1031H13.1528L13.0958 33.2173V33.2743H13.0387V33.5597L12.9816 33.6168V33.5597L12.9245 33.6168H12.8674L12.6962 33.6739L12.5821 33.731L12.525 33.788H12.4679V33.8451H12.3537V33.9022L12.2967 33.9593H12.0684L12.0113 33.9022H11.9542V33.9593L11.8971 33.9022V34.0163L11.84 33.9022V33.8451H11.7259V33.788H11.5547V33.9593L11.4405 33.9022V33.8451L11.4976 33.788H11.1551V33.731L11.041 33.6168H10.9839V33.5597L10.9268 33.5026H10.7556L10.6414 33.4456H10.5843L10.4131 33.3885H10.356V33.3314H10.2989L10.1848 33.2743H10.1277L10.0136 33.1602H9.95648L9.8994 33.1031H9.84233V33.046H9.49986ZM14.6939 33.8451L14.6368 33.788L14.5798 33.8451H14.6939ZM14.6368 33.788H14.751H14.8081L14.751 33.731H14.6939V33.6739H14.6368V33.6168H14.5227V33.731L14.5798 33.788H14.6368ZM14.751 33.6168L14.8081 33.6739H14.751V33.6168ZM14.8652 33.6168H14.9222L14.8652 33.6739V33.6168ZM14.4656 34.0163H14.5227V34.0734H14.4656V34.0163Z" fill="black"/>
<path fill-rule="evenodd" clip-rule="evenodd" d="M10.9779 31.3914L10.9208 31.3343V31.2773H10.9779L11.035 31.3343V31.3914L10.9779 31.4485V31.3914Z" fill="black"/>
<path fill-rule="evenodd" clip-rule="evenodd" d="M11.2164 30.1351V30.3063L11.2735 30.3634L11.1593 30.3063V30.4205L11.1022 30.3634L11.0452 30.4205H11.1022V30.4776H11.0452V30.4205L10.9881 30.4776V30.5347V30.6488H10.931L10.9881 30.5347V30.4776L10.931 30.4205L10.9881 30.3063L11.1022 30.2493V30.1922H11.2164V30.1351Z" fill="black"/>
<path fill-rule="evenodd" clip-rule="evenodd" d="M31.0771 7.30362H31.1912V7.3607L31.0771 7.41777V7.30362Z" fill="black"/>
<path fill-rule="evenodd" clip-rule="evenodd" d="M32.1036 6.79087V6.84795L32.2178 6.96211H31.9895V7.07626H32.0466L31.9895 7.19042L31.9324 7.13334L31.8753 6.96211L31.8183 6.90503V6.84795L31.8753 6.7338H32.0466L32.1036 6.79087Z" fill="black"/>
<path fill-rule="evenodd" clip-rule="evenodd" d="M32.6732 6.84805H32.9015L33.0157 6.90513H32.6732L32.6161 6.96221V6.90513L32.6732 6.84805Z" fill="black"/>
<path fill-rule="evenodd" clip-rule="evenodd" d="M12.7489 29.0521V28.995H12.806L12.9202 29.0521H12.7489Z" fill="black"/>
<path fill-rule="evenodd" clip-rule="evenodd" d="M14.8672 30.2497L14.7531 30.1355V30.1926H14.696L14.5818 30.0785L14.6389 30.0214H14.5818V30.0785H14.4677V30.0214H14.5818H14.7531H14.696V30.0785H14.8101V30.1355L14.8672 30.1926V30.2497Z" fill="black"/>
<path fill-rule="evenodd" clip-rule="evenodd" d="M13.2646 28.8221H13.3216L13.3787 28.765V28.8792L13.4358 29.0504L13.5499 29.1646L13.4929 29.2217H13.4358V29.1646L13.3787 29.1075V29.0504L13.3216 28.9363L13.2646 28.8792V28.8221Z" fill="black"/>
<path fill-rule="evenodd" clip-rule="evenodd" d="M13.0999 28.9369L13.0428 28.994H12.9286V28.9369H13.1569H13.0999Z" fill="black"/>
<path fill-rule="evenodd" clip-rule="evenodd" d="M12.9245 30.306L12.8674 30.3631H12.7533L12.6391 30.306H12.582H12.525L12.582 30.1919L12.525 30.1348V30.0206H12.4679V29.9065L12.4108 29.7923L12.2966 29.7352L12.2396 29.7923V29.7352L12.0683 29.6782V29.564L12.0113 29.5069H11.84L11.7829 29.564V29.6211H11.84H11.7259L11.6688 29.7352L11.5546 29.7923H11.4405L11.3263 29.8494L11.2693 29.9065V30.0206H11.3263V30.0777H11.2693L11.2122 30.0206H11.2693V29.9065L11.2122 29.8494H11.098V29.7923L11.0409 29.7352L10.9839 29.6211V29.3357L11.0409 29.2215L11.1551 29.1074L11.2693 29.0503H11.3834L11.6117 28.9932L11.6688 28.9362H11.8971L12.0683 28.9932V28.8791L12.1254 28.822V28.7649H12.2396L12.1825 28.822H12.2396L12.1825 28.8791V28.822H12.1254V28.8791L12.0683 28.9932H12.4679L12.582 28.9362L12.6962 29.0503V29.1074H12.8674L12.9816 29.0503L13.0387 29.1074H13.2099L13.267 29.1645V29.2786L13.4382 29.4499L13.4953 29.564V29.6782H13.7236L13.8377 29.7352L14.009 29.8494H14.0661V29.9065H14.1231L14.2373 29.7923H14.5227L14.5798 29.7352H14.6368V29.9065H14.6939L14.6368 29.9636H14.5798L14.6368 29.9065L14.5798 29.8494V29.7923H14.5227V29.8494L14.4656 29.7923L14.2944 29.8494H14.2373L14.1802 29.9065H14.1231V29.9636L14.1802 30.0206V30.0777L14.1231 30.1348H14.1802V30.0777L14.1231 30.1348V30.1919H14.0661L14.009 30.2489L13.9519 30.3631H13.8948L13.8377 30.4202L13.7807 30.3631L13.6665 30.4202L13.6094 30.4773H13.4953V30.5343H13.0957L12.9816 30.4202L12.9245 30.306Z" fill="black"/>
<path fill-rule="evenodd" clip-rule="evenodd" d="M16.5193 29.5658L16.4623 29.6229V29.68L16.4052 29.6229L16.5193 29.5658Z" fill="black"/>
</svg>
