<svg role="img" aria-hidden="true" focusable="false" width="122" height="144"  viewBox="0 0 122 144" fill="currentColor" xmlns="http://www.w3.org/2000/svg">
  <path fill-rule="evenodd" clip-rule="evenodd" d="M75.967 5.58h1.414l3.065-.235 1.415-.236h.707l.472.236h.235v.471h-2.122l-.471.236-.472.236h-.235l-.943.235-.944.236h-.943l-.707-.236h-.943v.236l-.236.236-.235.236h-.472l-.236.235h-.471.236l-.236.236-.236-.236h-.472l-.235-.235-.472-.236-.236-.472v-.235l.236-.236.236-.472.236-.235.471-.472h.472l.236.236h.235l.236.236h-.236l-.236-.236h-.707l-.236.236h.708l.943.235h1.179Zm18.624-2.592v.471h-.943l-.471.236-.708.236-.235.236v.235l-.472.236h-.943l-.707.236h-1.179l-.236.471v.236h-.236v.236h-.471v.236l-.236-.472v-.236h.236l.235-.235-.235-.236v-.707l.235-.236.472-.236v-.236h-.943.236l.235-.236.472.236h.707l2.358-.236h.707l1.415-.235.471-.236.236.236ZM66.77 8.408h-.942l-.472.236h-.235l-.236.236-.472.472-.236.235h-.471v.236h-.236l-.236-.236v.236H63l-.236.236h-.236v.236l-.236-.236h-.707l-.236.236-.236.235-.235-.235-.236.235h-.236l-.236.236v.236h-.235l-.472.236h.236l-.236.235h-.707l-.236-.471h-.236v-.236l.236-.236.471-.707.472-.707.472-.236.471-.236.943-.236 1.415-.235h.471L64.65 7.7l1.179-.471 2.593-.943h.707l.708-.236.236.236h.235l.236.235v.708-.472l-.236-.236v.236l-.235.236-.236.236h-.708l-.471.235-.236-.235v.235h.236l-.236.236h-.471v-.236h-.236l.236.236v.236h-.472l-.236-.236.236.236.236.236h.472l-.236.235H66.77Zm-11.315 5.659v.235l-.236.236-.472.236-1.414.472-.472.235v.708h.236v-.236h.236l-.236.236-.236.471-.707.472-.236.235h-.236v.236l-.236.236-.471.236H49.56l-.235.236v.235h.235-.471v-.943l1.415-.707.707-.707.471-.236.472-.472.236-.236.943-.707.471-.236.236-.235.707-.236.472-.236.471-.236h.236l.707.236v.236l-.235.236h-.943ZM44.137 30.335l-.471.236-.236.235h-.236v.236h-.236l-.235-.236V30.1h.707l.707-.236h.472v.236l-.472.236Zm5.187-3.535-.472.471-.235.236h-.708l-.707.943v.472h-.472l-.235-.236-.472-.236h-.236l.236.236.236.236.236.235h.235-.471v.236h-.708.236l-.236.236h-.235l-.236.236h-.236v-.708l-.236-.943v-.707l.236-.707v-.236l.236-.707.236-.708.235-.707.236-.236.472-.707.471-.943.708-.707v.471l.235-.236.236-.235.236-.236h.236v.236-.236h-.236v-.236l-.236.236-.471.236.707-1.415.236-.236.471-.236v-.235h.472l.236.235.235.236v.472h.236-.236v.235l.236.236.236.236.471.707v.236l-.235.236v2.357l-.236.472h-.236l-.236.236v.471l-.471.472v.236Zm9.431 2.358-3.301 2.83-.236.235h-.236v-.236h.472l3.3-2.829Zm-7.78 5.658-.472-.236-.707.236.943-.471.236-.236.471-.236h.236l.472-.707v-.236l.471-.472h.472l.235-.235h.236l.236.235h.236l.236-.235h.235l.236.235v-.235h.236v.471l-.236-.236v.472h-.236v.471l-.471.472h-.236l-.472.236h-.235l-.236.471h-1.415v.236h-.471Zm-29.002 52.34-.471.236h.471v-.236Zm0 .236-.707.236h-.471l.471-.236-.707.236-1.415.471-.471.236h-.236l-.707.236h-.236l-.236.471v.472l.236.707v.236h.236v.236h.235l.472-.236v-.236H18.2v-.236h.708l.235-.235h.708l.235-.236.236-.236.472.236h.471l.472.236v.236l.235.235.236.472h.236v.707h-.236v.236h.236l-.236.236v.235l.236.472h.236v.236l.235.236v.235l.236.472v.471h.472l.236.236.235-.236v.236h1.416l.236.236.707.236.236.471.236.236h.707v.236h.471l.236.235h.236v.472l.472.236.235.236h1.179l.472-.236h.707l.707-.236.472-.236.235-.236.236-.471v-.236h-.236v-.236h.944l.471-.235h-.236v-.472h-.235l-.236.236H31.64l-.472-.707h-.471l-.236-.236h-.236l-.235-.236v-.236l-.472-.236v-.471h-.236l-.707-.707-.707-.708h-.236v-.236h-.472l-.235-.235h-.236l-.472-.472-.471-.236h-.236l-.943-.471-.236-.236-.707-.236v-.235l-.236-.236h-.236v.236l-.236-.236h.236v-.472h-.236v.236h-.235V88.1l-.472-.235v-.236l-.236-.236Zm-4.48 3.3-.235.472-.236.236-.471.236h.236l.471.236.236.235h.236v-.235l-.236-.236-.236-.236.236-.707Z"/>
  <path fill-rule="evenodd" clip-rule="evenodd" d="m31.17 92.343.471.236.707.236.472.236.236.235h-.236l-.472.236h-.943l-.236-.236-.235-.236h-.236l-.472-.471h-.235l-.236-.236.236-.236h.471l.707.236Z"/>
  <path fill-rule="evenodd" clip-rule="evenodd" d="m106.142 5.109.472-.236.236.236h.707l.471.236.236.235.472-.471.471.236h.236l-.236.471v.236l-.236-.236v.236h.708l-.236-.236.236-.471.471.235.708.708v.235l-.236.708v.707h.236l.235.472v.943l.236.235v1.18l.236.235h.236l.707.707h-.236v.236h.236l.943.472v-.236l.943.471h.472v.236l.471.236h1.415l.236-.236.471-.236v.236l-.236.472h-.235v.236l.235.471-.235.236v.707l.471.472h.236l.236.235h.943v.236h.943v.236h.236l.707.236h.236v.235l.235.708v1.179l-.235.235.235.236.472.236h-.472l-.235.236h-.236l-.236.707v.707l-.236.236v.943l.708.472v3.065l.471 2.122v.235l-.236.236-.235 1.179-.472 1.886-.943 1.65-1.415 2.358-.471.707v.236l.236.472-.708 1.414v4.48l-.235 2.358v1.65l-.472.471h-.236l-.707-.235h-.236v-.236l-.236.236-.235-.236h-.236l-.236.236h-1.65v-.236l-.472-.236h-.707l-.236-.236-.236.236h-1.179l-.235.236-.236-.236h-1.179l-.236.236h-.707l-.236.471-.235.236h-.236l-.236.236.472.472v.235l-.236.943v.472l1.414 1.179-.235.236-.472-.236h-.471l-.236.707h-.472l-.471-.236h-.236l.471.943.472.708-.236 1.886.472.236.236.235.943.472.235.236h3.065l-.235.471h.471l.707.236.472.236 1.179.236h.236v-.236l.471-.236.236-.707.236-.472h.471v.236l.236.471v.472l.236.472v.235l.471.472.472.943h.707v.472l.472.943v1.178l-.472.708v.236l-.236.471v.471h-.235v.236h-.236v.236l-.236.707v.943h.236v.472l.236.236.707.943v.236l-.707.471h-.944l-.235-.236-.472.236-.236.236v.707l-.235.236v.236l-.236.236v.235l-.236.472h-.707l-.708.236v.235l-.707.472v.236h-.236l-.235 1.178v.236l-.708.707H108.5l-.236.944v.235h-.236v.708l-.943.471h-.707v.472l-.236.235v.944h.943l1.179.471.236.472.236.235 1.414.944h-.236l.708.235v.708l.236.235-.236.472h-.472l-.471.236v1.178l-.236.236-.472.708h-.235l-.236.235v.236h-.236l-.236.236h-.235v.236l-.472.235-.707-.707v-.236h-.472v-.235l-.236.235h-.235l-.943.472v.236h-.472l-1.179.471-.471.236-.236.236h-.236v-.236l-.236.236h-.235v.236l-.236.235h-.472l-.235.236h-.236v.472l-.707.235-.236.236-.236-.236h-.236l-.236-.471-.235.236h-.472v-.236h-.236l-.235-.236h-.236l-.472-.236v.708l.236.235h.236v.236h.236l-.236.236v.236l.236.471-.236-.236.236.472h-.236l-.472-.236h-.707v-.471l-.236-.236h-.236l-.235-.236h-.708l-.471.236v-.236l-.236-.471v-.236l-.707-.236-.236-.236v.236h-.236v.236h-.236l-.235-.236h-.472v.236h-.471l-.472-.236-.707-.707h.471v-.236l-.471-.236-.236-.236h-.236l-.236-.235-.943.471-.235-.236h-.236v.236l-.236.236h.707l.236.236.236.471v.472h.236l.471.236v1.178l-.236-.235h-.707l-.943-.236h-.472l-.707-.707-.471.471.236.236h-.236l-.472.471-.236-.235-.471.471h-.236l-.472.236h-.707v-.236h-.236l-.471.707.471.236h-.235l-.236.236v.236h.471l.472.471v.708h.236l.236.235h-.236v.472h.236v.236l-.236.471h-.236l-.472.236-.235.236v.471h1.414l.236.236.707.472h.236v.471h.236v.236h-.472v.707l.236.236-.236.236v.471l.236.236 1.179.472h.471v.235h.472l.472.236v.236l-.236.236V98l-.236.708v.236h-.236v.943l.708.471h.235v.236l.236.471.472.472.471.236.472 1.414.943.472.236.471v.708l.235.235-.235.472.471.943v.707l-.236.236.236.472h-.236v.707l-.235 1.415v.235h.707l-.472.472v.236l.236.471.236.708-1.179 1.178v.236h-.707v.236l-.236.236v.471l-.236.236v.236l-.236.471-.471.708-.236.235v.236l-.943.943-.236.472-.471.235.471.944h-.471l-.236.235.236.236v1.65l.235.236v.236h.944l.471-.472 1.415-.707.471.472-1.414.707h.235l.944.707-.236.236h-.236l.236.236h-.708l-.235.236h-.472v.235h-.236l-.235.236h-.472l-.236.236v.471l-.236.236h-.471l-.236.236v.236l-.471.471h-.236l-.472.236-.235.236-.472.236-.236.235v.236l-.236.236v.236l-.235.235v.472l-.236.236v.236l-.236.235v.236h-.236v-.236h-.235l-.236.236v-.236l-.236-.471-.471-.708v-.235l-.236.235-.472.236v.236h-.943l.236.472.236.235v1.179h.236v.236h.235v.236l.236.235h.236v.708l-.472.471.236.236h.236l.236-.236h.235l.236-.236h.236l.471-.235h.236v.235l.236.236h.236l.236-.236h1.414l-.236.944v.235h-.235l-.236.236.471.236v.707l.708.236.236.236.235-.236v.471h.943l.236.236v.236l-.236.236v.236l-.236.235v.472l.236.471v-.235l.236.235v.472l-.236.236v.235h-.236v.708l-.471-.236v-.236h-.236v.236h-.236l-.235.236h-.472l-.236.236v.471l.236.236v.236l.236.235h-.236v.236l-.236.236-.235.471-.472-.235-.236-.236-.236.236v.471l.236.236h.236v.236l.236.236h.236l.707.471-.236.472v.471h-.707v.236h-.236l-.472-.236-.235-.236h-.943l-.236.236-.472.236v-.236h-.471v.236l-.472-.236v-.707l-.471.236h-.472v.235l-.471.472v-.707l-.472.471-.236-.236-.235.236h-.236l-.472-.707-.235.236-.236-.472v-.471h-.472l-.471.707-.236.236v.235l-.236.236h-.236l-.235-.236v-.235l-.236.235h-.236l-.236.236h-.471v-.236l.471-.707v-.471l-.235-.708.235-.236v-.235l-.235-.236h-.472v-.236h-.471l-.236-.236v-.235h-.236v-.472h-.236v-1.415l.236-.235-.236-.236h.472v-.236h.236l.235-.236h.236v-.235l.472-.472v-.471l.235-.236h.708l.235-.236-.235-.236.235-.236v-.235l.472-.472v-.471l.472-.236v-.236l-.236-.236h-.236l-.236.236H76.2v-.236l.471-.943h.236l.236-.471.471-.472v-.707l.236-.472v-.235l-.236-.236h-.236v-.236l.236-.236v-.471l.236-.708.472.236h.235v-.236h.236l-.236-.471v-.236h.236v-.236l-.236-.235v-.472h.472l.236.236h.235v-.236l.236-.236v-.235l-.236-.236h-.471l-.236-.236.472-.472v-.235h.235l.472-.236v-.236l.472-.471-.708-.472v-.471H79.5v-.236l-.471.236v.235h-.472v.236h-.471v.236h-.236v-.707h-.236v-.236h.236l.236-.236h-.236v-.236l-.236-.236h-.471l-.236-.235h-.236l-.236.235H74.55l-.236-.235-.235.235-.236-.471v-.236l-.236-.236-1.886-.707-.471-.236h-.236l-.236-.943v-1.414l-.236-.236-.707-.472-.236-.471v-.236l-.943-.236h-.236v.236l-.471.472-.707.235-.944.943-.471-.235-.943-.236-.707-.236-.236.472-.236.235h-1.179l-.943-.235-.943.235-.236-.235.472-1.887-1.415-.943v.236h-.236l-.707.236-.236.236-.943-.236v-1.65l-.471-.472v-.236l-1.415-1.65.943-1.886-.707-2.122H54.51v-.236l-.236-.236.236-.235h-.236l-.471.235-.236.236v.236l-.236.236v.235l.236.236v.236h-.236v.471l-1.414.944-.944 1.414h-.235l-.236-.236h-.236v-.235l-.471-.472h-.943v.236h-.236l-.236-.236h-.943l-.707.236h-.236l-.472-.236-.235-.236v-.471l.471-.236h.236v.236h.471l.236.236.707.235h.236v-.235h-.471v-.236l-.236-.943.471-.472h.236v-.236h-.236v-.471l.236-.472-.236-.235-.235.235-.236-.235v-.472H47.2l-.471-.236h-.472v-.236l-.236-.235-.471.235v.236h-.472l.236.236-.236.236-.471.236-.236.471-.236.236-.471.236-.236.707h-.236l-.707.236.236.943-.472.236-.236-.236v.236h-.235l-.472-.236-.943-.236h-.707l-1.18.472-.235-1.415.472-1.179-.236-.471-1.65.235h-.472l-.472.472h-.471l-1.65.707-.236.236.235.236h.236v.943h-.236l-.235.236.235.707 1.18 1.65v.472h-.236l-.472.236-.236.235h-.943l-.707-.235-.236.235v-.707l-.236-.236v-.236h-1.65l-.472.236h-.707v-.471l-.236-.708-.471-.235h-.472v-.236h-.471l-.472.236-.707.235h-.472l-.236-.235h-.471l-.943-.472h-.236l-.236-.236h-.235l-.472-.235v-.708h-.471l-.472-.471h-.471v-.236h-.236v-.236l-.708-.707-.471.471h-.236l-.471.236-.472-.236v1.415h-.236v.472h-.236l-.235.943-.236.235-.236-.235h-.707l-.236.235h-.236l-.471.236h-.708l-.471-.471h-.236v-.236l-.471-.236v-.236h-.236l-.472-.235h-.235v.235h-.236l-.236-.235h-.236v-.708h-.236v-.236l-.235-.235-.707-.472-.236-.236.236-.471.235.236.472.235-.236.472h.236l.236-.236.235.236v-.236l-.236-.236.236-.235h-.471l-.472-.236.472-.236h.236l.235-.236h-.236v-.235l-.235-.236v.471l-.707.472v-.236h-.236l-.472.236-.236.236.472.235h-.943v.236l-.236.236h-.707l-.236-.236v-.471h-.236v.707h-.943v-.236l-.236-.236H7.12v-.235l-.472-.236-.471-.472v-.235l-.236-.236v-.236l-.236-.236v-.236l-.471-.471h-.236v-.236l-.472-.236-.471-.471h-.236l-.236-.472v-.707l.472-.472h.235l.236-.235.472-.236.471-.472h.236l.472-.235.235-.236.472-.236.236-.236h.471v-.235h1.65l.236.235h.472l-.236.236v.707l.472.472.471.236.236.235h.236v.236l.236.708v.235l.707.708v.235l.471-.235h-.471l.236-.236h.235l.236-.236v-.236l.236-.235v-.236l.471-.236.236-.236.236.236h.236l.707.236.236-.236h.236l.471-.236h.472l.235.236v.236h1.65l.236-.236h.708v.236l.236.236h-.236l.471.707v-.236h.236l.236-.236.236.236h.235l.472.236h.236l.236.236h.471l.943.943h.236v.471l.236.236-.236.236.236.236v.235l.471.708h.236l.236.707h.236l.707.471h.235v.236h.708l.236-.236h.235l.236-.235h.707l.236.235h.707l-.235-.943v-1.65l-.236-.236-.943-.471h-.236v-.472l.236-.236-.943-.471v.236h-.236l-.236-.236H23.86v-.236h-.236l-.235-.236v-.471l-.472-.472h-.236l-.235-.236v-.471h-.236l-.472-.472h-.471v-.235h-.236v-.472l.236-.236.471-.235.236.235.236-.235.471-.236h.236l.236-.236.471-.236h.236l.943.236.472.472h.235l.236-.236h1.18l.235-.236v-.471h-.236v.235H25.51l-.471-.943h-.236l-.235-.471h.235l.472-.472v-.236l.707.236h.236l.707.472.472.235h.943l.471.236h.708v.236h.235L29.99 98h.472l.235-.235h.708l.236-.236h.235v.236h.236l.236-.236h.236l.471-.236.707-.707.236-.472v-.236l.236-.235.472-.236.235-.236h.708l.235.236h.236l.236.236.707.235h.472l.707-.235h.472l1.886-.472.471-.471h.236l.236-.236.471-.236v-.471l-.471.235h-.236l-.236-.235-.236.471h-.471l-.236.236h-.236l-.707.236h-.236l-.471.235h-.236l-.236-.235h-.236l-.235-.236h-.472l-.471-.236h-1.18v-.236h-.47l-.236-.235h-.236l-.708-.472-.471-.236h-.236l-.471-.471-.943-.236v-.236h-.472l-.472-.236h-.471v-.235l-.707-.236-.236-.236-.236-.471h.236l.236-.236h-.472l-.236-.236-.235-.472h-.472v-.235h-.707l-.472-.707-.236-.236h-.707v.236h-.236l-.236-.236.236-.236h-.943v-.236l-.707-.707-.472.236.236-.236v-.472l-.943-1.414-.236-.236v-.236l.236-.236v-.235l.472-.472v-.236h.235l-.235-.471h-.236l-.943.236-.236.235-.236-.235h-.471l.471-.708.236-.471.472-.472v-.236l-.472-.471.236-.472.236-.235v-.236l.235-.236h.472l.236-.236 1.178.236.236.236h.236l.471-.472.472-.235.472-.708v-.236l.943-.943.707-.943 1.415-1.414.235-.472.236-.236h.236v.236l.236-.236h-.236v-.471h.236l.471-.472v-.236l.708-.471 2.121-2.83.236-.47.472-.708v-.236l.236-.236.707-1.178.236-.472.471-.707 1.415-3.065.943-1.886.471-1.18.236-.706.236-.944.236-.471v-.472l.235-.235-.235-.472v-.471l.471.235v-.236h.236l.471.236v-.236h-.471l.236-.235h.471v-.236h.236l-.236-.236-.471.236h-.236l-.472.236.236-.708.707-1.414.236-1.179.236-2.122.236-1.65v-.236l.236-.236V47.31l.235-.943v-.943l.236-.943v-1.65l.472-1.415v-.471l.471-.944v-.471h.236v-.472l.472-1.414.235-1.415.472-1.414v-1.65l.236-.708v-.943l.471-.707h1.415v.471h.471v-.236h.236v.236l-.236.472v.943l.236.471.471.472.708.471h.236l.707.472.236.236.707-.236.471.236h.472v-.236h1.415l.235-.472h.236l.472-.235h.236l.471-.472v-.472h.471l.708 1.415.236.236v.236l.707 1.414.471.708-.471 3.536h.236l.236.236h.235l-.236.471.944.943h.707l.236.236v-.236l.235-.235.236-.472h.707l.236.236h.943l.472.236.236.235h.235v1.415l.472.471-.472.472h-.235l.235.236h-.235l-.236.236h-.707l-.236.471v.708l-.236.235v.236l-.472.236v.235h-.235l-.236.236v.236h-.707l-.708.707h-.943v-.235l-.236-.236h-.235l-.472-.472h-.707l-.236.236v.236l-.236-.236v-.236h-.471l-.236.236h-.236v.236h-.236v1.414l.236.236-.236.236.236.236v.236l.236.471v.472l.236.235v.236l.471.707v.236l.236.472v.236l.236.235v.236h.236v.472h.235l-.235.471-.236.236v.236l-.236-.236-.236.236v.471l.236.236v.236h-.471l-.472.236.236.235.236-.236h.235v.236l-.236.236v.707l.472.236v-.236l.236.236h.471l-.471.472v.235l-.236.236v.236h-.471l-.708.707v.472l-.236.236h-.235v.471l-.236.236-.236-.236v-.236l-.236.236h-.235l-.236-.236-.472-.236v.236l.708.472-.236.236h-.472v.235h.236l.236.236h.236v-.236h.235l.472.236v.472h-.236v.236h.472l.236-.236h.235l.236.236v.235h-.236v.236h.236v-.236l.236.236.471-.236h1.18l.235.472h.707v.236h.236l.236.471.471.472h.236v.235h.236l.236-.235h.235l.236-.236h1.415l.236-.236.235.236v.236h.236l.236.235h.236l.235.236h.472l-.236.236v.236l.707.707h.472l.236.236h.707l.236.236v.235h.236l.707.708h.471l.236-.236h.472l.707-.236.236-.236.236.236.471-.471h1.179l.236-.236.236-.472v-.236l.235-.471v-.472l.236-.471v-.236l.472-.471.471-.236v-.236h.236v-.236h.236V62.4h.235v-.471h.472v-.236l.472-.471h.235l.472-.236.236-.236h.235l.236-.236.472-.236h.471v-.235h.236v-.236l.236-.236h.235l.236-.235h.236V59.1l.472-.236 1.65-1.65-.236-.236h.236v-.236h-.236v-.236l-.236.236-.235.472-.472.471-.236.472-.943.707h-.236l-.235-.236h-.472l-1.886.943-1.415 1.415h.236l-.236.236h-.235l-.708.235-.471-.235-.943.943.236.471v.236h.235v1.179h-.236v.707l-.235.236-.236.943h-.236l-.707.236-.236.236h-.707l-1.18.471-.47.236-.472-.236h-.236l-.236-.471-2.122-1.887h-.235v-.235l-.236-.236-.707-.236-.472-.471-.707-.236h-.943l-.236-.236h-.472l-.943.236h-.236l-.235.236-.236-.236h.236l-.236-.472h-.236l.236-.236v-1.178l-.471-.472v-.236h.235l.943-.707.236-.236 1.508-.943h.378v-.236h.236v-.235l.707-.472 4.008-2.593v-.236h.472l.236-.472.235-.235h.236l.472-.236v-.943l.236-.472v.236l.235-.707v-.236h1.415v-.236l1.886-1.65.236-.236h.236l1.65-.472.236-.235h.236l.235.471h.236l2.122.708.943.235h1.65v.236l1.18 1.179.235.471v1.887l-.943 1.886v.471h.236v-.471l.235.236v-.472l.236-.472v-.471l.236-.472.236-.707v-1.179l-.236-.236v-.471l-.472-.472v-.471l-.235-.236v-.236h-.472l-.236-.235.943.235v-.235l-.235-.236v-.943l.235-.236h-5.658l-.236-.236-.707-.943-.472-.707-.471-.472h-.236v-4.48l.236-.707v-.235l1.179-1.887.707-1.178v-.236h.236l1.179-.236h.235v-.471l-.235.235h-.236v-.236h-1.415v-.471l-.235-.236h-.236l-.472.236-.236.236-.471-.236-.472.236v.236l-.235.235v.236h-.236l-.236.236h-.472v-.236h-.471l-.943-.471-.236-.236h-.471l-.708-.236v.236h-1.179l-.943-.943h-.235v-.236h-.472v-.472l-.236-.235.943-.944h.472l.236-.235v-.943l-.236-.472-.236-.236.236-.235h.236v-.708l.235-.157v.157l.472-.471-.472.314v-.078l-.235-.236V30.1l-.236-.707v-.472l.236-.235v-.708l-.236-.236h-.236v-.235h.236v-.236l-.236.236v-.708h-.471v-.471h.235l-.471-.472v-.235l-.236-.472h.236v.236h.471v.471h.236v.708h.236l-.236-.236h.236l-.236-.472v-.707l-.236-.471-.235-.236h-.236l.236-.236v-.236l.235-.235-.235-.236h.235l.472-.236v-.236l.236-.236v-1.414l.235-.472v-.471h-.235v-.236l.471-.472.236-.235h-.236v-.236l.236-.236.236-.707.236-.472.235-.235h.236l.236-.472.236-.236h.235l.708-.707h.235l.236-.236.472-.236v-.235h.236v-.236l.235-.236.236-.471.707-.708.943-.471.236-.236h.236l.472-.236.235-.236h.708l1.178-.707 1.415-.707.707-.472h.472l.471-.236.236-.235.472-.236.235-.236.944-.471V8.88l.235.236v.236h1.18l.942-.472h.472l.943-.236.236-.235h.707l.943-.236.236.236h.471v-.236h.707l.472.236h.236l1.179-.472-.472.236v.471l-.236.472.236.236v.471h.236l-.236.236v.236l.236.236v.943l.236.235v.236l.235-.236v.236h.236v-.236l-.471-.471v-.236l.235-.236.472.236v.472l.236-.472v-.236l.236.236h.235l-.235.236h.235v.236l.236.235v.236h.236v-.236l-.236-.235h.472l.235-.236h-.235l-.236.236-.236-.236v-.236h.472l.235-.236v-.236h-.235l-.236.236-.236-.236h.236v-.471l-.236.236h-1.179l-.236-.236v-.236l.236.236v-.236l.472.236h.707v-.236h-1.179l-.236-.236v-.235l.236.235.236-.235v-.236h-.236l-.236-.236h-.235l.235-.471h.472v.235l.472.236v.236h.707V8.88h-.236l-.236-.236h-.235l-.236-.235h-.236l-.236-.236.236-.236v.236h.236v-.236h.236v.236l.943-.472h.235l1.18.708.47.471.472-.236V8.41l.236-.236 1.415-.472h.471l.472-.236h.471l.943-.235.708-.236h1.178l.236-.236.236.236.943-.472h.707l.472-.471h.471l.236-.236h.236l.707-.236.236-.235 1.886-.236Zm-16.504 7.309h-.235l.235.235v-.235Zm-.471.235h-.236v.236l.236-.236ZM66.062 26.8h-.236v.236l.236-.236Zm-9.976 18.115-.02-.01-.128.08.148-.07Zm-.757.516.05-.044-.05.04v.004Zm.02.23-.02-.146v.142l-.339.054h-.01l-.471.187.481-.187.005.005.354-.054ZM35.883 89.043h-.235v.236l.235-.236Z"/>
  <path d="m91.053 11.475-.236-.472v.236l.236.236Zm-24.52 8.015-.236.236h.236v-.235Zm-1.65 4.952-.472.707-.236.236h-.235l-.236-.236h.471l.708-.707Zm-4.48 33.95-.471.236h.093l.378-.236Zm12.496 3.301h-.236l-.236-.236.472.236Zm-20.04-.236-.236-.235v.235h.236Zm-5.423-30.414-.236-.235h.236v.235ZM23.623 87.628v.235h-.235l.235-.235Z"/>
  <path fill-rule="evenodd" clip-rule="evenodd" d="m11.6 101.774-.472-.472h-.236l-.236-.236h-.236v-.471h-.235v-.472h-.236l1.415-.471v-.236h.235v.236h.472l.236.236h.235l.236.235h.236l.236-.235h.235l.472-.236.471.236.236-.236.472-.236h.471l.236.236.472-.236h.471v.236h.472l.235.236v.235l.236.472.236.236v.235h.236v.708l-.236.235h-.472l-.235.472h-.472l-.471-.472h-.708v.236h-.943l-.236-.236h-.471l-.943.236-.236.236-.236.472h-.236l-.235.471v-.236l-.236-.235.236-.236v-.472l-.472-.471Zm0 0h.235v-.236l-.236.236Z"/>
  <path d="m50.737 110.497-.236.236-.236-.236h.472Zm70.259-94.071-.236-.236.236-.236v.472Zm-8.488-4.716h.236v.236l-.236-.236ZM75.964 49.433v-.236h.707l.236.236-.236.236h-.236v.236l-.235-.236v-.236h-.236ZM56.63 56.035l.472.471.472-.236v.236h-.236l-.236.236h-.235l-.236.236h-.236l.236-.472v-.471Z"/>
  <path fill-rule="evenodd" clip-rule="evenodd" d="M5.47 109.554v-.236h1.414v.236h.236l.235.236h.236l.472.471h.235l.472.236h.236v.236h.236l.707.236h.236l.471.235h.707l.236.236v.236h.236l.471.472v.235h1.415l-.236.236v.236l.472.236v-.708h.707v.236h.472v.236l.236.471v-.471l.235.236v-.236h.236l.236.236h.943l.236-.236v-.236h.471v-.236h.236l.236-.235.471-.236.708-.236h.235l.236-.236v.236l.236-.236v-1.179h.236v-.235l.235-.472h.472l.236.236h.707v.236l.236.235h.236l-.236.236.236.236v.236l.235.235v.236l.236.236.943.236v-.236h.236v.236l.707.471h.236l.471.943h.236v-.235h-.236v-.472h.236l-.236-.236-.235.236v-.236l.235-.235h-.707v-.236h.707l.472.471v.472h.236v.236h.236l-.236-.236-.236-.236h.236l.236.236.235.471v-.235l-.235-.236h.471l.236.236v-.236h-.236l.236-.236h-.236l.236-.236.236.236v-.471h-.236l-.236-.236v-.236l.236-.236v-.236h.471l-.235.236h.471l.236.236v.472l.236-.236v.471h.236v.236h.235l-2.357 2.829-.236.236-1.179.943-.943.472-.707.707h-.236l-.236.236h-.471v-.236l-.236.236h-.236v-.236h-.236l-.471.236-.236.235h-.236l-.236.472h-.471v.236l-.236.236h-.471v.235h-.236l-.236-.471-.472.236.236.471h-.236l-.471.236h-.472l-.235-.236.235-.236h.236v-.471h-.471l-.472.471h-1.65l-.236-.235v.235h-.236l-.236-.235v-1.651l.236-.236v-.235h-.236l-.471-.472v.236h-.236l-.236-.472h-.235l-.944-.235v.235l-.235-.235h-.707v-.236l-.236-.236h-.236l-.472-.472h-.47v.236h-.236l-.471-.236-.236-.235-.472-.236-.236-.236-.471.236.236.471-.236.236-.472-.471H7.12v.235h-.472v.236h-.236l-.235-.236-.472.236.236.236.236 1.65-1.887.236h-.943l-.235-.236h-.236v-.471l-.236-.236-.236.236-.235-.472h-.236l-.236-.471h-.236l-.236-.236.236-.236v-.236l-.471-.471v-.236h.471l-.707-.707.943-.943v-.472l-.236-.235v-.944l-.236-.235v-.236h.236l.236-.236h.472l.235-.236h.236v-.235h1.179l.236-.236h.471l.472-.236h.471Zm21.926 2.358-.236-.236v.236h.236Zm.471-.236h-.236v.236l.236-.236Zm-1.65 1.65h-.236v.236h.236v-.236Z"/>
  <path d="m26.688 112.383.236.236h-.471l.235-.236Z"/>
  <path d="M26.688 112.383h-.235l-.236-.235v-.472h.471v.236h.236v.236h.236l.236.235h-.708Z"/>
  <path fill-rule="evenodd" clip-rule="evenodd" d="m58.755 29.158.943-.943.236-.235 2.593-2.358h.236l.707-.236h.236v-.236.236l.236.236-.236-.236h-.236l-.471.236h-.472l-2.122 2.122-.236.236h-.235l-.236.235-.943.943Zm3.536 15.559h.472l1.65.707.236.236 1.179 1.179.471.707v.236l1.18 1.886.47 1.179v.236h-.235l-.236.235-.471.236-.236.943-.236.472h.236l-.236.471v-.471l.236-.472.236-.943.236-.236.471-.235h.236v-.236l-.472-1.18-1.65-2.828-1.179-1.18-.236-.235L63 44.717l-.236.471h-.707.235l.236-.235.236-.236h-.472ZM98.835.865V1.1l.236.236.236.236.235.236-.235-.236h-.943v.472h.235l-.235.471-.236-.236-.236-.707-.236-.236V1.1l.236-.471h.707l.236.236Zm2.358.235h.943l.471.235v.236-.236h-1.414l-.236.236v-.236l.236-.235ZM19.617 98.002l-.236.236h-.472l-.471-.236h-.236l.472-.235v-.236.236l-.472.236h-.236l.236-.472-.236-.236v-.471h-.235v-.472l-.236-.472-.472-.235-.235.236v-.236l-.708-.236v-.472l-.236-.235h-.707l-.236.236v.235h.236l.236-.236.236.236-.236-.236-.236.236h-.471l-.236.472-.472.236h-.471l-.472.235-.236.236v.472h.236v.235h-.236l-.235-.235h.235v-.472l-.235-.236h-.472v-.236l-.236-.235-.235-.472v-1.179l.235-.471.472-.472.471-.235h.472l.943-.236.236-.236h.943l.707.236v-.472l.236-.236v-.235h.472l-.236.236h.236l-.236.235v-.236h-.236v.236l-.236.472h1.651l.471-.236.236.236.236.236v.235h.707l.471-.235.236.235h.707v.236-.236l.236.236v.472l.236.235.472.472.235.472v.471h.943l.472.236.707.471h.236v.236h.236l.471-.472h1.179l.236-.235h.236v.707h.235l-.235.236h-.236l.236-.236-.236-.236v-.236h-.236v.236l-.236-.236-.707.236h-.236l-.235.236h-.236v.236l.236.236v.235l-.236.236h.236v-.236l-.236.236v.236h-.236l-.236.236-.236.471h-.235l-.236.236-.236-.236-.471.236-.236.236h-.472v.236h-1.65l-.472-.472-.235-.472Z"/>
</svg>
