<svg xmlns="http://www.w3.org/2000/svg" viewBox="0 0 56 56"><g id="nederland"><polygon points="23.58 10.27 23.66 10.19 24.13 10.19 24.28 10.11 24.36 10.03 24.36 9.96 24.44 9.96 24.52 9.88 24.75 9.72 24.83 9.57 24.75 9.57 24.75 9.33 24.91 9.26 25.38 9.1 25.53 9.02 25.61 8.94 25.61 8.87 25.92 8.87 26 8.79 26 8.71 25.76 8.63 25.69 8.63 25.53 8.71 25.38 8.79 25.14 8.87 25.06 8.94 24.91 9.02 24.6 9.25 24.52 9.33 24.36 9.49 24.21 9.57 23.97 9.8 23.5 10.03 23.5 10.35 23.58 10.35 23.58 10.27"/><polygon points="12.98 34.58 13.06 34.66 13.14 34.66 13.14 34.58 13.06 34.5 12.98 34.43 13.06 34.19 13.06 34.19 12.98 34.35 12.9 34.43 12.75 34.5 12.83 34.5 12.98 34.58"/><polygon points="26.7 8.01 26.93 8.01 27.01 7.93 26.93 7.93 27.09 7.85 27.17 7.85 27.17 7.77 27.25 7.7 27.32 7.7 27.4 7.62 27.48 7.7 27.56 7.62 27.64 7.54 27.87 7.54 27.95 7.62 27.95 7.54 28.02 7.54 28.1 7.46 28.18 7.46 28.18 7.38 28.26 7.46 28.34 7.46 28.34 7.38 28.49 7.38 28.57 7.31 28.73 7.15 28.8 7.07 28.88 7.07 29.04 7 29.35 7 29.35 6.99 29.74 6.99 29.82 6.92 29.66 6.92 29.58 6.84 29.74 6.84 29.74 6.76 29.66 6.68 29.74 6.68 29.74 6.76 29.89 6.76 29.97 6.68 29.89 6.68 29.89 6.61 29.97 6.68 30.13 6.61 30.36 6.61 30.44 6.53 30.52 6.45 30.52 6.37 30.6 6.45 30.6 6.37 30.52 6.29 30.44 6.29 30.36 6.21 30.13 6.29 29.89 6.29 29.04 6.61 28.65 6.76 28.18 6.92 28.02 6.92 27.56 7 27.25 7.07 27.09 7.15 26.93 7.23 26.78 7.46 26.62 7.7 26.54 7.77 26.54 7.85 26.62 7.85 26.7 8.01"/><polygon points="36.36 6.14 36.52 6.14 36.52 6.06 36.6 6.06 36.6 5.98 36.67 5.83 37.06 5.83 37.3 5.75 37.61 5.75 37.77 5.67 37.77 5.59 37.84 5.51 38.08 5.44 38.23 5.36 38.55 5.36 38.55 5.2 38.47 5.13 38.31 5.2 37.84 5.28 37.61 5.28 36.83 5.36 36.6 5.36 36.6 5.44 36.44 5.51 36.36 5.59 36.36 5.83 36.44 5.9 36.36 5.98 36.28 5.98 36.28 6.06 36.36 6.22 36.36 6.14"/><polygon points="31.38 6.61 31.45 6.68 31.61 6.68 31.69 6.76 31.77 6.68 31.84 6.68 31.92 6.61 32.08 6.61 32.16 6.53 32.23 6.45 32.23 6.37 32.54 6.37 32.78 6.45 33.09 6.45 33.4 6.37 33.71 6.29 33.79 6.29 33.95 6.22 34.1 6.14 34.8 6.14 34.8 5.98 34.73 5.98 34.57 5.9 34.34 5.9 33.87 5.98 32.86 6.06 32.39 6.06 32 6.06 31.69 5.98 31.45 5.98 31.53 5.9 31.77 5.9 31.84 5.98 31.92 5.98 31.84 5.9 31.77 5.9 31.69 5.83 31.53 5.83 31.38 5.98 31.3 6.06 31.22 6.22 31.14 6.29 31.14 6.37 31.22 6.53 31.38 6.61"/><polygon points="24.83 9.49 24.83 9.57 24.91 9.49 24.83 9.49"/><polygon points="36.36 5.36 36.6 5.36 36.44 5.28 36.36 5.36"/><polygon points="22.1 14.09 22.18 14.09 22.26 14.01 22.34 14.01 22.41 13.93 22.57 13.93 22.57 13.85 22.65 13.85 22.57 13.78 22.49 13.7 22.41 13.62 22.49 13.62 22.65 13.7 22.73 13.78 22.88 13.78 22.88 13.62 23.11 13.31 23.35 13.31 23.43 13.23 23.58 13.07 23.58 13 23.74 12.84 23.74 12.68 23.82 12.61 23.89 12.61 23.97 12.45 23.97 11.67 24.05 11.59 24.05 11.52 23.89 11.28 23.82 11.2 23.74 11.13 23.74 11.05 23.74 10.89 23.66 10.81 23.58 10.74 23.43 10.74 23.43 10.81 23.27 10.89 23.19 10.97 22.96 11.44 23.11 11.36 23.19 11.28 23.19 11.36 23.11 11.44 23.04 11.52 22.96 11.59 22.96 11.44 22.73 11.67 22.57 11.98 22.41 12.22 22.34 12.29 22.26 12.53 22.18 12.76 22.1 13 22.1 13.07 22.02 13.31 22.02 13.54 22.1 13.85 22.1 14.09"/><polygon points="21.56 14.48 21.56 14.4 21.63 14.4 21.71 14.32 21.87 14.24 21.87 14.24 22.02 14.16 22.02 14.09 21.87 14.09 21.63 14.16 21.4 14.16 21.4 14.4 21.48 14.48 21.56 14.48"/><polygon points="14.39 33.1 14.54 33.1 14.54 33.02 14.39 33.1"/><polygon points="25.45 14.87 25.53 14.87 25.61 14.79 26.7 13.85 26.7 13.85 25.61 14.79 25.45 14.79 25.45 14.87 25.38 14.87 25.38 14.94 25.45 15.02 25.45 14.87"/><polygon points="13.06 34.12 13.14 34.12 13.14 34.19 13.22 34.19 13.37 34.12 13.37 34.04 13.29 34.04 13.29 33.96 13.53 33.96 13.61 33.88 13.84 33.88 13.92 33.8 14 33.73 14.15 33.8 14.31 33.8 14.46 33.88 14.46 33.96 14.54 34.04 14.62 34.19 14.7 34.19 14.7 34.43 14.62 34.43 14.62 34.5 14.7 34.5 14.62 34.58 14.62 34.66 14.7 34.82 14.78 34.82 14.78 34.89 14.85 34.97 14.85 35.05 14.93 35.21 14.93 35.36 15.09 35.36 15.16 35.44 15.24 35.36 15.24 35.44 15.71 35.44 15.79 35.52 16.02 35.6 16.1 35.75 16.18 35.83 16.41 35.83 16.41 35.91 16.57 35.91 16.65 35.98 16.72 35.98 16.72 36.14 16.88 36.22 16.96 36.3 17.35 36.3 17.5 36.22 17.74 36.22 17.97 36.14 18.13 36.06 18.2 35.98 18.28 35.83 18.28 35.75 18.2 35.75 18.2 35.67 18.52 35.67 18.67 35.6 18.59 35.6 18.59 35.44 18.52 35.44 18.44 35.52 17.74 35.52 17.58 35.28 17.43 35.28 17.35 35.21 17.27 35.21 17.19 35.13 17.19 35.05 17.04 34.97 17.04 34.82 16.96 34.82 16.72 34.58 16.49 34.35 16.41 34.35 16.41 34.27 16.26 34.27 16.18 34.19 16.1 34.19 15.94 34.04 15.79 33.96 15.71 33.96 15.4 33.8 15.32 33.73 15.09 33.65 15.09 33.57 15.01 33.49 14.93 33.49 14.93 33.57 14.85 33.49 14.93 33.49 14.93 33.34 14.85 33.34 14.85 33.41 14.78 33.41 14.78 33.34 14.62 33.26 14.62 33.18 14.54 33.1 14.54 33.1 14.31 33.18 14.15 33.18 14.31 33.1 14.07 33.18 13.61 33.34 13.45 33.41 13.37 33.41 13.14 33.49 13.06 33.49 12.98 33.65 12.98 33.8 13.06 34.04 13.06 34.12"/><polygon points="17.27 34.82 17.43 34.97 17.5 34.97 17.58 35.05 17.66 35.13 17.97 35.13 18.13 35.05 18.2 35.05 18.13 34.97 17.97 34.89 17.74 34.82 17.58 34.74 17.58 34.74 17.35 34.66 17.19 34.66 17.11 34.74 17.19 34.82 17.27 34.82"/><path d="M47.27,11.67,47,11.51V11.2l.08-.07v-.24l.07-.23h.08l.08-.08h.16l-.16-.08-.08-.08.08-.07V10l-.08-.24V9.64h-.08L47,9.57h-.08V9.49h-.31V9.41h-.31l-.08-.08H46.1L46,9.18V8.94L46,8.87,46,8.71V8.63H46l.07-.15V8.4L46,8.48l-.08.07H45.4l-.15-.07V8.4h-.16l-.31-.16v.08l-.31-.16h-.08V8.09h.08l-.24-.24h-.07l-.08-.08V7.38L44,7.31V7l-.08-.16h-.08V6.61l.08-.24V6.29l-.23-.23L43.53,6l-.08.16.08.08H43.3V6.14l.08.08V6.14L43.45,6h-.07l-.16-.08-.16.16L43,6l-.16-.08H42.6l-.08-.07-.16.07h0L41.74,6l-.08.08-.23.08h-.08l-.08.08h-.15L41,6.37h-.23l-.32.16-.07-.08-.08.08h-.39l-.23.08-.32.07h-.15L39,6.76h-.15l-.47.16L38.31,7v.07l-.16.08L38,7l-.39-.23h-.08l-.31.16V6.84h-.08v.08h-.08V6.84L37,6.92l.07.07h.08l.08.08h.08l.08.08h.07v.08h-.23V7.15l-.16-.08V7h-.15l-.08.16h.08l.08.08h.07v.08L37,7.38l-.08-.07v.07l.08.08h.39v.08h-.24L37,7.46v.08l-.08-.08v.08l.08.08h.39l.07-.08V7.7h-.07l.07.07.08-.07h.08v.07l-.08.08h-.15v.08l.07.08.08-.08h.08L37.53,8h-.15l.07.08v.07h-.07V8.09L37.3,8V7.93l.08.08-.08-.16h-.08l-.08-.08v.08L37.06,8V7.85l-.15-.08-.08.08v.08l.16.16v.07h-.08V8.09l-.08.07V8.09L36.75,8V7.7l-.08-.08V7.54l.08-.08h-.08V7.31l-.07-.08.07-.16V6.92l.16-.08L36.44,7h-.08l-.15-.07H36V7h-.15l-.08-.07L35.43,7h-.24l-.07.08-.32.08h-.15l-.31.16H34V7.23l-.08-.08v.16l-.31.15-.08.08-.16.08-.07.08-.16.07h-.16l-.23.16-.47.23-.39.24h-.23l-.08.08-.16.07H31.3l-.08.08-.31.16L30.67,9l-.07.16-.08.08v.07h-.08v.08l-.16.08-.07.08h-.08l-.24.23h-.07l-.08.08-.08.15h-.08l-.08.08-.07.16-.08.23-.08.08v.08h.08l-.08.08-.16.15V11h.08v.16l-.08.15v.47l-.07.08v.07l-.16.08H28.8l.08.08-.08.08v.08l-.07.07h.07l.08.08.08.16v.23l.08.16H29L29,13H29v-.24h-.08v-.15h-.15v-.08h-.08l.08.15v.08l.15.16H28.8v.15H29v.24l.08-.08v.08H29v.08H29l.07.07v.24l-.07.07v.16l.07.23v.16l.08.08v0l.16-.1-.16.16v-.06l-.08.06v.23H29l-.08.08.08.08.07.15v.31l-.07.08h-.16l-.31.31.08.08V16h.15V16h.08l.31.31h.39v-.08l.24.08H30l.08.07.31.16h.16v.08h.15l.08-.08h.08V16.5l.08-.08v-.07l.15-.08.16.08.08-.08.15-.08h.08l.08.08v.15h.47v.08h.07l.08-.08v.16h-.08l-.39.08h-.07v.08l-.24.39-.39.62v.08l-.07.23v1.48h.07l.16.16.15.23.24.31.08.08h1.87l-.08.08v.31l.08.08v.08l-.31-.08.07.08h.16v.07l.08.08v.16l.15.15v.16l.08.08V22l-.08.23-.08.16v.15l-.07.16v.16l-.08-.08v.15H33.4v-.15l.31-.63v-.62l-.07-.16-.39-.39v-.07H32.7l-.31-.08-.7-.24h-.08l-.08-.15h-.08l-.08.08-.54.15h-.08l-.08.08-.62.55v.07h-.47v.08l-.08.24v-.08l-.07.15V22l-.16.07h-.08l-.08.08-.07.16h-.16v.08l-1.32.85-.24.16v.08h-.08v.07h-.12l-.5.32-.08.07-.31.24h-.08v.08l.16.15v.39l-.08.08h.08l.08.15h-.08l.08.08.08-.08h.07l.31-.07H27l.08.07h.31l.23.08.16.16.23.08.08.07v.08h.08l.7.63.08.15H29l.15.08.16-.08.39-.15H30l.08-.08.23-.08h.08l.08-.31.08-.08v-.23h.08V25h-.08v-.08l-.08-.16.31-.31.16.08.23-.08h.08l.08-.08h-.08l.47-.46.62-.32h.16l.07.08h.08l.31-.23.08-.16.16-.15.08-.16.07-.08V23h.08v.08h-.08l.08.08-.54.54-.16.08v.08h-.08l-.08.08h-.07l-.08.07v.08h-.08v.08h-.16l-.15.08-.08.08h-.08l-.08.07-.15.08h-.08l-.16.16v.08h-.15v.15h-.08v.08h-.08V25H31v.07l-.16.08-.16.16v.08l-.07.15v.16l-.08.15v.08l-.08.16-.08.08H30l-.15.15-.08-.08-.08.08-.23.08h-.16l-.08.08H29l-.24-.24h-.07v-.07l-.08-.08h-.24L28.34,26h-.16L28,25.78V25.7l.07-.08h-.15l-.08-.08h-.08l-.08-.08h-.07v-.07l-.08-.08-.08.08h-.47l-.08.07h-.07l-.08.08h-.08v-.08h-.08l-.15-.15-.08-.16h-.08v-.08H26l-.08-.15h-.39l-.16.08-.07-.08V25h-.08v-.08h.08v-.08l-.08-.08h-.08l-.08.08h-.15v-.08H25v-.15l-.15-.08h-.08v.08h-.08l-.08-.08h-.07v-.08h.15l.08-.08-.23-.15v-.08l.15.08.08.08h.08l.08-.08v.08l.07.07.08-.07v-.16h.08l.08-.08v-.15l.23-.24h.16v-.08l.08-.07v-.08l.15-.16h-.15l-.08-.08v.08l-.16-.08V23l.08-.08v-.08h-.08l-.08.08-.07-.08.15-.07h.16v-.08l-.08-.08v-.15l.08-.08.08.08v-.08l.07-.08.08-.16h-.08V22h-.07v-.08l-.08-.08v-.08l-.08-.15v-.08l-.16-.23v-.08l-.07-.08v-.16l-.08-.15v-.08l-.08-.08.08-.08-.08-.07V20h.08v-.08h.08l.07-.08h.16v.08l.08.08v-.08l.08-.08h.23l.16.16h.07l.08.08v.07h.31l.24-.23H27v-.08l.08-.07h.08V19.7l.15-.08v-.08l.08-.08v-.23l.08-.16h.23l.08-.07h.08l-.08-.08h.08l.15-.16-.15-.15v-.47h-.08l-.08-.08L27.56,18h-.32l-.07-.08h-.24l-.08.16-.07.08v.08l-.08-.08h-.23l-.32-.31.08-.16h-.08l-.07-.08H26l.15-1.17L26,16.19l-.24-.47v-.07l-.07-.08-.24-.47h-.08v-.16l-.07-.07h-.08l-.08.07h-.08L25,14.87h-.07l-.08.07h-.16l-.15.16v.08l-.16.23h-.08l-.15.08-.08.08-.31.15h0l-.08-.07-.23-.16h-.08l-.24-.16L23,15.18,22.88,15v-.31l.08-.16v-.07h0V14.4h-.08l.08.08h-.08v.07h-.16V14.4h-.46l-.16.23v.31l-.08.24v.54l-.15.47-.08.47-.16.47v.15h-.07v.16l-.16.31v.15l-.16.47v.55l-.07.31v.31l-.08.31v.39l-.08.08v.08l-.08.54-.08.71-.07.39-.24.46-.08.24.16-.08h.08l.15-.08.08.08h-.08v.08H20.7l-.08.07h.16v.08l-.16-.08h-.08v.08l-.15-.08V23l.07.16-.07.07v.16l-.08.16-.08.31-.08.23-.15.39-.31.62-.47,1-.16.23-.08.16-.23.39-.08.07V27l-.15.24-.08.15-.7.94-.24.15v.08l-.15.16h-.08v.15h.08l-.08.08v-.08h-.08l-.08.08-.07.16-.47.46-.24.32-.31.31v.08l-.15.23-.16.08-.15.15h-.08l-.08-.07L15,30.61l-.08.08h-.15l-.08.07v.08l-.08.08-.08.16.16.15v.08l-.16.15-.08.16-.15.23h.15l.08.08.08-.08.31-.07H15l.08.15H15V32l-.16.16v.07l-.07.08v.08l.07.08.32.47v.15l-.08.08.15-.08.24.24v.07h.31l-.08.08.08.08h.08v-.08h.23l.08.08.15.23h.24v.08h.15l.08.16.08.07H17l-.08.08h-.08l.08.16.08.08.23.07v.08h.16l.15.08h.16v.08l.31.08.15.15h.08l.16.08.23.16h.08l.08.07H19v.08h.39l.16.08h.16l.07.08h.08l.08.07H20l.15-.07h.08l.23-.08h.08l.08-.08h.16l.07-.15.08.07H21l.16-.07v.15l-.16.08-.08.08h-.08l-.15.15-.62.16h-.16l-.23.08h-.16l-.23-.08-.08-.08h-.08l-.08-.08h-.23l-.08.08-.16.08-.07.08V36l-.08.16-.24.23-.15.08H18l-.08.08h-.08v-.08h-.07l-.08.08h-.23l-.08.08h-.16l-.08.15H17v-.07H16.8l-.15-.08h-.32l-.15-.08-.24-.16h-.07l-.24-.07v.07l-.15.16H15.4l.08.16h.08l.15.31h.47v-.08h.08v.16l-.08.07h-.39l-.08.08h-.08l-.15-.15L15.17,37h-.08l-.16.08-.08.07h-.07l-.16.08-.08.08-.08-.08-.15.08-.08.08v.15h.08v.08h.15l.16.16h.08v.15l.08.08h.07l.16.16v.15l.08.08h.08v.08h.62l.08.08h.07v-.08l.32.15-.08.08v.16h.08l.31.15.08.08v.55l.07.31h-.23l-.08-.08h-.23L16.1,40H16l-.08.08h-.23V40h-.08l-.23-.16h-.08l-.08-.23h-.08L15,39.34v-.08l-.08-.08L15,39.1,14.93,39v-.15h-.08l-.31-.31h-.15l-.08-.08h-.08l-.16-.08H14l-.08-.08-.08.08h-.08v.08l-.15-.24h.07l-.07-.07v-.08h-.24l-.08.08h-.54v-.08L12.67,38h-.15l-.16.08h-.08l-.08.08L12,38.09h-.08L11.81,38l-.07.08-.16.08v.07l-.08.08v.08l-.08.08h-.07l-.08.08h.15l-.15.07v-.07L11,38.32v-.08L11,38v-.08h-.08l-.08-.07-.15-.08-.16-.16v-.23l.08-.08h-.16l-.08-.08H9.79v.08H9.63l-.08.08-.15.08-.08.07-.16.08H9.09l-.16.16-.16.08-.07.07H8.62l-.16.16v.23l.08.16h.08l.15.15.16.08v.08H9l.15.16V39l.08.08v.08l.08.08v.08l.16.15.15.08v.08h.08l.08.08v.07h.31v-.23h.08v.16l.08.07h.23l.08-.07v-.08h.31l-.16-.08.08-.08.16-.08H11v.08l.24-.15v-.16l.08.08v.08h.07l-.07.07h-.08l-.16.08.16.08h.15l-.07.08.07.08v.07l-.07-.07-.08.07h-.08l.08-.15-.16-.08L11,39.49l-.07.16.07.08.24.15.08.08V40h.07v.23h.08l.08.08h.08v-.08h.08l.15.08H12v.08l.16.07v.08h.07l.16.16h.23l.16-.08h.08l.08-.08h.23l.08.08.07-.08.08-.31h.08v-.15h.08v-.47l.15.08.16-.08h.08l.15-.16.24.24v.07h.08v.08h.15l.16.16h.15v.23l.16.08h.08l.07.08h.08l.31.15h.16l.08.08h.15l.24-.08.15-.08h.16v.08h.16l.15.08.08.23v.16h.23l.16-.08h.54v.08l.08.08v.23l.08-.08.23.08h.32l.07-.08.16-.07h.08v-.16l-.39-.55-.08-.23.08-.08h.08v-.31h-.08l-.08-.08.08-.07.54-.24h.16l.16-.15h.15l.55-.08.07.15-.15.39.08.47.39-.15h.23l.31.07.16.08h.08v-.08l.07.08.16-.08-.08-.31.24-.08h.07l.08-.23.16-.08.07-.08.08-.15.16-.08.08-.08L22.18,39h.15V39l.16-.08.08.08V39h.15l.16.08H23v.16l.08.08.07-.08.08.08-.08.15v.16h.08v.08h-.08l-.15.15.08.31v.08h.15v.08h-.08l-.23-.08-.08-.08h-.15v-.07h-.08l-.16.07v.16l.08.08.16.07h.07l.24-.07h.31l.08.07h.08v-.07h.31l.15.15v.08H24l.08.08h.08l.31-.47.47-.31V39.8H25v-.07l-.07-.08v-.08l.07-.08v-.08l.08-.07.16-.08h.08l-.08.08.08.07v.08h.39l.23.7-.31.63.47.54v.08l.15.16v.54l.31.08.08-.08.23-.08h.08V42l.47.31-.16.62.08.08.31-.08L28,43h.39l.07-.08.08-.16.24.08.31.08.15.08.31-.31.24-.08.15-.16v-.08H30l.31.08v.08l.08.16.24.15.07.08v.47l.08.31h.08l.16.08.62.23.08.08v.08l.07.15.08-.07.08.07h.62l.08-.07h.08l.08.07h.15l.08.08v.08h.08l-.08.08h-.08v.08H33v.23h.08v-.08h.15v-.08h.16v-.07l.16-.08v.08h.07v.15l.24.16-.16.15v.08l-.15.08h-.08v.08l-.16.15.08.08h.16l.07.08v.08l-.07.07v.08h-.08l-.08-.08h-.16V46l.08.08v.08h-.08v.07l.08.16h-.08v.08h-.07L33,46.35l-.08.23v.16l-.08.08v.07h.08L33,47v.08l-.08.16v.23l-.15.16-.08.15h-.08l-.15.31v.08h.15l.08-.08h.08l.08.08v.08l-.16.08v.15l-.16.16v.08l-.07.08.07.07-.07.08h-.24l-.08.08v.15l-.15.16v.08h-.08l-.08.08h-.08v.07h-.15l.08.08-.08.08v.47h.08v.15h.07v.08l.08.08H32v.08h.15l.08.08v.07l-.08.08.08.24v.15l-.15.23v.08h.15l.08-.08h.08l.08-.07v.07l.07.08h.08l.08-.08v-.07l.08-.08.15-.23h.16v.15l.08.16.07-.08.16.23h.08l.08-.08.07.08.16-.15v.23l.16-.16v-.07h.15l.16-.08v.23l.15.08v-.08h.16v.08l.16-.08.07-.08h.32l.07.08.16.08h.08v-.08h.23v-.15l.08-.16L35.5,51h-.07L35.35,51v-.08h-.08l-.08-.08v-.15l.08-.08.08.08.15.07.08-.15.08-.08V50.4h.08l-.08-.08v-.07l-.08-.08V50l.08-.08h.16l.07-.07H36v-.08h.08v.08l.16.07V49.7h.07v-.08l.08-.08v-.15l-.08-.08v.08l-.07-.16v-.15l.07-.08v-.08l.08-.08v-.07l-.08-.08H36v-.16l-.08.08-.07-.08-.24-.08v-.23l-.15-.08.07-.08h.08V48l.08-.32h-.47l-.07.08H35L35,47.67V47.6h-.08l-.15.07h-.08l-.08.08h-.08l-.08.08h-.07l-.08-.08.15-.15v-.24h-.07l-.08-.08v-.07h-.08v-.08H34.1v-.39L34,46.66,34,46.51h.31v-.08l.15-.08.08-.08v.08l.16.23.08.16v.08l.07-.08h.08v.08H35v-.08l.08-.08v-.08l.08-.07v-.16l.07-.08v-.08l.08-.07V46l.08-.08.15-.08.08-.08.16-.07h.08l.15-.16v-.08l.08-.08h.16l.07-.07v-.16l.08-.08h.16L36.6,45h.07V45h.16l.08-.08h.23l-.08-.08h.08l.08-.08-.31-.23h-.08l.47-.23-.16-.16-.47.23-.15.16h-.31V44.4l-.08-.08v-.54l-.08-.08.08-.08h.15l-.15-.31.15-.08.08-.15.31-.32v-.07l.08-.08.16-.24.08-.15v-.08l.07-.08v-.15l.08-.08v-.08h.24v-.08l.38-.39-.07-.23-.08-.16v-.07l.15-.16h-.23v-.08l.08-.46v-.24h.08l-.08-.15.08-.08v-.24l-.16-.31.08-.15-.08-.08v-.24l-.08-.15-.31-.16L37,37.86l-.16-.08-.16-.16-.07-.15v-.08h-.08l-.24-.16v-.31h.08v-.08l.08-.23v-.08l.08-.08v-.08l-.16-.07h-.15v-.08h-.16l-.39-.16L35.58,36v-.15l.08-.08-.08-.08v-.23h.16v-.08h-.08v-.15h-.08l-.23-.16L35.27,35H34.8v-.15l.08-.08.16-.08h.08l.07-.16v-.07h-.07v-.16h.07l-.07-.08H35V34l-.16-.16h-.15v-.07l.07-.08h.08l-.15-.08.15-.23H35v.07h.23l.16-.07h.08l.15-.16.08.08.16-.16h.07L35.82,33l.15-.15.24.23h.15l.31.08h.24l.08.08v-.39l-.16-.08h-.08v-.16l-.08-.15-.07-.08h-.24l.08-.08v-.08h.08l.08.08.31-.15.08.07h.07l.08.08.16.08v.08h-.16l.24.23.15.08h.16v-.08h.15l.08.08H38v-.08h.08v-.08l.07.08.24.08v.08l.08.15v.08l.15-.08h.24l.07.08H39l.08.08v.16h.23l.16.07h.08l-.08-.15.08.08-.08-.16V33.1l.08-.08h-.08V33H39.4l-.08-.08v-.24l.16.08h.08l.07.08h.08v.08h.16l.08-.08L40,33h.08l.08.07.08-.07.23-.08v-.16h.08l.08-.08h.15l.08-.07v-.08H41L41,32.4v.08h.08l.07-.08.16-.08.39-.15h.16v-.08l.31-.16h.07l.08-.08v.08h.16V32l.23.23.16-.07v-.08H43l.07-.08h.08v-.08l.08-.08h.08l.15-.23.08-.08v-.39l.16-.07h.15l.08-.16-.08-.08v-.23l-.23-.08h.08l-.47-.31-.08-.08L43.06,30l-.39-.15h-.31v-.31l.08-.08v-.16h.23l.32-.15v-.24h.07v-.07l.08-.32H44l.23-.23v-.08l.08-.39h.08v-.08l.23-.15v-.08l.24-.08h.23l.08-.15v-.08l.08-.08V27l.07-.07v-.24l.08-.08.16-.07.08.07H46l.23-.15V26.4L46,26.09,45.87,26v-.16h-.08v-.31l.08-.23v-.08H46v-.08H46V25l.07-.16v-.08l.16-.23v-.39l-.16-.31v-.16h-.23l-.16-.31-.15-.16v-.07L45.48,23v-.16l-.08-.15v-.08h-.15l-.08.16-.08.23-.16.08v.08h-.07l-.39-.08L44.31,23l-.23-.08h-.16l.08-.15H43l-.08-.08-.31-.16-.08-.07-.16-.08.08-.63-.16-.23-.15-.31h.08l.15.08h.16L42.6,21h.15l.16.08L43,21l-.47-.39v-.15l.08-.31v-.08l-.16-.16.08-.08h.08l.07-.07.08-.16H43l.07-.08h.39l.08.08.08-.08H44l.08-.08.08.08h.23l.15.08v.08h.55l.08-.08h.08l.07.08.08-.08v.08h.08l.23.08h.08l.16-.16v-.55l.08-.78V16.81l.23-.46-.08-.16v-.08l.16-.23.46-.78.32-.55.15-.62.08-.39.08-.08v-.07l-.16-.71ZM29,13.15v-.08h.07Zm-3.23,5.91h0l-.05,0ZM19.06,33.73v-.08h.08Zm6.51-14.5h0Zm-.12.09h.12v0h0l-.11,0h0l-.15.07.15-.07Zm-1.34-3.6h0ZM36.67,8.48V8.4h.08Zm.24-.08-.08-.08h.08Zm.31-.47.08-.08v.08Z"/><polygon points="15.01 33.26 15.09 33.26 15.09 33.18 15.01 33.26"/><polygon points="29.27 10.66 29.27 10.66 29.19 10.74 29.27 10.74 29.27 10.66"/><polygon points="28.49 12.53 28.34 12.53 28.41 12.61 28.49 12.61 28.57 12.53 28.73 12.29 28.49 12.53"/><polygon points="24.67 24.53 24.75 24.53 24.67 24.45 24.67 24.53"/><polygon points="27.12 23.59 27.24 23.52 27.09 23.59 27.12 23.59"/><polygon points="31.38 24.61 31.22 24.53 31.3 24.61 31.38 24.61"/><polygon points="10.64 37.31 10.64 37.47 10.72 37.47 10.72 37.62 10.8 37.62 10.88 37.7 10.96 37.7 11.11 37.85 11.19 37.78 11.19 37.85 11.11 37.85 11.11 37.85 11.11 37.85 11.27 38.01 11.27 38.17 11.19 38.24 11.27 38.32 11.27 38.4 11.35 38.24 11.42 38.24 11.5 38.09 11.58 38.01 11.89 37.93 12.05 37.93 12.13 38.01 12.44 38.01 12.44 37.93 12.67 37.93 12.83 38.09 12.98 38.09 13.06 37.93 13.22 37.93 13.29 37.85 13.29 37.62 13.22 37.62 13.22 37.54 13.14 37.47 13.06 37.31 13.06 37.23 12.98 37.15 12.83 37.15 12.83 37.08 12.67 37.08 12.52 37.15 12.44 37.08 12.28 37.08 12.13 37.15 12.05 37.23 11.89 37.15 11.74 37.23 11.66 37.23 11.58 37.31 11.5 37.31 11.42 37.23 11.35 37.23 11.27 37.15 11.11 37.15 11.11 37.08 11.04 37.08 11.04 37.15 10.57 37.31 10.64 37.31"/><polygon points="25.92 23.05 26 23.05 26.07 22.97 26.15 22.97 26.23 22.89 26.31 22.89 26.31 22.82 26.15 22.89 26 22.74 26 22.89 25.92 23.05"/><polygon points="32.54 20.71 32.54 20.63 32.62 20.63 32.7 20.55 32.62 20.48 32.39 20.48 32.39 20.55 32.47 20.55 32.47 20.63 32.54 20.71"/><polygon points="44.55 8.09 44.47 8.09 44.55 8.16 44.55 8.09"/><polygon points="26 22.74 26 22.74 26 22.74 26 22.74"/><polygon points="47.19 9.57 47.27 9.64 47.27 9.49 47.19 9.57"/><polygon points="23.97 40.82 24.05 40.74 23.89 40.74 23.97 40.82"/><path d="M16.72,41.36h-.07v-.15l-.08.07v-.15l-.08-.08h-.16l.08-.08h-.15v.08l-.08.08v.08l.08.07h.07v.16l-.07-.08-.08.08h.08l-.08.08h.08v.08l-.08-.08H16l.08.08v.07L16,41.52l-.08-.08h-.07l.07.08.08.08h-.08v-.08h-.07v-.16l-.16-.15h-.23v.07h.23l-.08.08v.08l.08-.08.08.08h-.08v.16h.08v.07h-.08l-.16-.31h-.07l-.24-.15v-.08h-.08v.08l-.31-.08-.07-.08V41l-.08-.08v-.07l-.08-.08.08-.08h-.08l-.08-.08v-.07h-.23l-.08-.08h-.16l-.07.15v.08h-.08v.39l-.08.08v-.08l-.08.08h-.08l-.23.08-.16.07-.07.08h-.08v.08H13v.08l-.07.08h-.32l-.07-.08h-.08v.08l-.08-.08v.15l-.08-.15v-.08h-.15v-.08h-.24v.24l-.15-.08v-.08l.07-.08h-.46v-.08l-.16-.15h-.08v-.08L11,41H10.8l-.15-.08h-.08l-.24-.07h-.07v-.08h-.08L10,40.66H9.94l-.15-.15H9.71l-.08-.08H9.55v-.08H9.09v.08H8.93l-.16.08H8.62l-.08.07H8.15v.08H8.07L8,40.74H7.84l-.08.08H7.68v.07l.08.08v.31l.08.08v.16l-.31.31.23.23H7.61v.08l.15.16v.08l-.08.07.08.08h.08l.08.16H8l.07.15.08-.08.08.08V43h.08l.08.08H8.7L9.32,43l-.08-.55-.08-.07.16-.08.08.08h.08V42.3h.15v-.08h.08l.16.16.07-.08-.07-.16.15-.08.08.08.16.08.07.08.16.08h.08V42.3h.15l.16.15H11l.07.08v.08h.24l.08.08v-.08l.31.08h.08l.07.15h.08v-.08l.16.16h.08V43l-.08.08v.54l.08.08h.07v-.08l.08.08h.55l.15-.16h.16v.16h-.08l-.08.08.08.08h.16l.15-.08h.08l-.08-.16.16-.08.08.16h.07v-.08h.16l.08-.08v-.07h.15l.08-.16h.08l.08-.08.15-.08h.08v.08h.08l.08-.08v.08h.15l.08-.08H15l.23-.23.31-.16.39-.31.08-.07.78-.94h-.08Zm-.78.39h-.07v-.08h.07Zm.32-.54v-.08l.07.08Zm.15,0v-.08h.08Z"/><polygon points="16.02 41.44 16.18 41.44 16.1 41.36 16.02 41.44"/><polygon points="16.33 41.36 16.26 41.28 16.18 41.28 16.18 41.21 16.1 41.21 16.1 41.13 15.94 41.13 15.94 41.28 16.02 41.36 16.1 41.36 16.26 41.36 16.33 41.36"/><polygon points="41.19 4.66 41.04 4.58 40.73 4.58 40.65 4.66 40.65 4.74 40.73 4.66 41.19 4.66"/><polygon points="29.58 20.63 29.19 19.96 29.19 20.01 29.58 20.63"/><polygon points="28.02 19 28.02 19 28.02 19 28.02 19"/><polygon points="27.95 19.07 27.87 19.15 28.02 19.15 28.09 19.02 28.02 19 27.95 19.07"/><polygon points="29.74 21.1 29.74 21.1 29.74 21.02 29.64 20.78 29.74 21.02 29.74 21.1"/><polygon points="29.64 20.78 29.58 20.63 29.58 20.63 29.58 20.63 29.64 20.78"/><polygon points="39.71 4.97 39.79 5.05 39.87 4.89 39.79 4.89 39.79 4.74 40.1 4.74 40.02 4.66 39.95 4.58 39.95 4.5 39.87 4.42 39.64 4.42 39.56 4.58 39.56 4.66 39.64 4.74 39.71 4.97"/><polygon points="28.09 19.02 28.57 19.23 28.1 19 28.09 19.02"/><polygon points="15.95 35.91 15.87 35.91 15.95 35.98 15.95 35.91"/><polygon points="28.57 19.23 28.65 19.31 29.04 19.7 28.65 19.31 28.57 19.23"/><polygon points="16.1 36.14 16.18 36.06 16.1 36.06 16.02 36.14 16.1 36.14"/><polygon points="11.27 35.91 11.27 35.98 11.43 35.98 11.5 36.06 11.58 35.98 11.74 35.91 11.89 35.91 12.05 35.83 12.13 35.67 12.2 35.67 12.2 35.6 12.28 35.52 12.52 35.52 12.59 35.6 12.59 35.75 12.83 35.83 12.83 35.91 12.9 35.83 13.06 35.91 13.14 36.06 13.14 36.22 13.22 36.22 13.22 36.38 13.29 36.45 13.22 36.61 13.29 36.61 13.3 36.61 13.29 36.61 13.45 36.53 13.3 36.61 13.37 36.61 13.53 36.69 13.69 36.69 13.76 36.61 13.84 36.77 14 36.92 14.54 36.92 14.54 36.84 14.7 36.84 14.78 36.77 14.93 36.69 15.01 36.77 15.09 36.69 15.16 36.69 15.24 36.53 15.32 36.45 15.4 36.45 15.4 36.38 15.48 36.38 15.48 36.3 15.48 36.22 15.4 36.14 15.4 36.06 15.32 36.06 15.32 35.98 15.24 35.98 15.01 35.83 14.85 35.75 14.54 35.75 14.54 35.6 14.46 35.44 14.31 35.28 14.23 35.21 14.23 35.05 14.15 34.97 13.92 34.97 13.84 34.9 13.69 34.97 13.45 34.97 13.45 34.9 13.37 34.82 13.29 34.74 13.14 34.82 12.59 34.82 12.36 34.74 12.05 34.74 11.97 34.82 11.66 34.9 11.5 34.9 11.35 34.97 11.19 35.13 11.11 35.28 11.11 35.67 11.19 35.83 11.27 35.91"/><polygon points="11.43 36.22 11.5 36.3 11.58 36.3 11.58 36.22 11.5 36.22 11.43 36.22"/><polygon points="12.67 34.58 12.59 34.66 12.59 34.82 12.67 34.66 12.67 34.58"/><polygon points="15.55 35.98 15.63 35.98 15.87 35.91 15.55 35.91 15.4 36.06 15.48 36.06 15.55 35.98"/><polygon points="16.02 35.98 16.1 36.06 16.1 35.83 16.02 35.83 15.95 35.91 16.02 35.91 16.02 35.98"/><polygon points="12.75 34.58 12.83 34.51 12.67 34.51 12.67 34.58 12.75 34.58 12.75 34.58"/><polygon points="29.43 21.26 29.58 21.18 29.66 21.1 29.5 21.18 29.43 21.26"/><polygon points="29.04 19.7 29.19 19.96 29.19 19.93 29.04 19.7"/><polygon points="29.35 21.72 29.27 21.72 29.27 21.88 29.35 21.72"/><polygon points="28.26 12.61 28.02 12.68 28.1 12.68 28.26 12.61"/><polygon points="12.83 34.58 12.75 34.58 12.75 34.66 12.83 34.58"/><polygon points="27.17 13.46 27.25 13.39 27.95 12.68 27.09 13.46 27.17 13.46"/></g></svg>