<svg xmlns="http://www.w3.org/2000/svg" viewBox="0 0 56 56"><g id="notification"><path d="M26.48,34.21l7.61-7.71a2.33,2.33,0,0,1,2.83-.22,2,2,0,0,1,.43,2.79l-8.7,12.86a2.7,2.7,0,0,1-1.73.85,2.75,2.75,0,0,1-1.75-.85l-6.3-8.36a1.91,1.91,0,0,1,0-2.57,2,2,0,0,1,2.61-.22Z"/><path d="M42.14,10.85h5.43a3.32,3.32,0,0,1,3.27,3.22V48.36a3.32,3.32,0,0,1-3.27,3.21H8.43a3.33,3.33,0,0,1-3.27-3.21V14.07a3.32,3.32,0,0,1,3.27-3.22h5.43V6.57c0-1.72,1.53-2.15,3.27-2.15s3.26.43,3.26,2.15v4.28H35.61V6.57c0-1.72,1.52-2.15,3.26-2.15s3.27.43,3.27,2.15v4.28ZM9.51,21.57V47.28h37V21.57Z"/></g></svg>