<svg xmlns="http://www.w3.org/2000/svg" viewBox="0 0 56 56"><g id="onderwijs_en_kinderopvang_noodopvang.svg"><path d="M15.57,23.66c2.11-.47,3.05-2.35,2.58-4.69-.71-2.35-2.35-3.29-4.46-2.82-2.34.47-3,2.35-2.58,4.69C11.82,23.19,13.46,24.13,15.57,23.66Z"/><path d="M33.4,8.88a4.46,4.46,0,1,0-4.46,4.46A4.19,4.19,0,0,0,33.4,8.88Z"/><path d="M20.26,35.39a26.54,26.54,0,0,1-.47-6.34c3.75-2.58,4.93-6.57,4.22-10.79-.23-1.64-1.17-2.81-2.81-2.34,1.41,4.92.47,9.14-5.4,9.85-5.63.7-8.68-2.35-8.44-8C5.72,17.79,5,19.44,5,20.84c.24,4.22,2.82,7.27,6.81,8.68.23,5.63.46,6.57,2.58,12.67,0,0-1.41.94-2.35,1.41-1.64,1.17-2.35,2.81-1.41,4.45,1.41-.7,5.4-2.81,6.57-3.52.7-.23.94-.93.94-1.87,0-.47-.47-2.35-.71-4,.47.47,1.41.94,3.76,2.81,0,1.41-.24,3.29-.24,4.93,0,2.35.94,3.28,2.82,3.75,0,0,.7-6.33,1.17-9.61a2.54,2.54,0,0,0-.7-1.65C22.61,37.5,21.43,36.32,20.26,35.39Z"/><path d="M38.09,23.89A3.45,3.45,0,0,0,41.84,22,2.29,2.29,0,0,0,44,23c1.64-.47,1.41-1.64,3.28-1.17a.23.23,0,0,0,.24-.23A5,5,0,0,0,44,19.9a2.32,2.32,0,0,0-1.88.71c.24-2.35-.7-4-2.81-4.22-2.35-.47-3.75,1.17-4.22,3.28A3.69,3.69,0,0,0,38.09,23.89Z"/><path d="M45.36,29.76c-3.52-2.11-3-3.52-5.87-4.23-3.05-.7-5.16.71-7.27-3.28-.94-1.41-1.41-3.52-2.11-6.33-1.64.47-2.34,1.87-1.88,3.75.71,3.52,1.88,6.8,5.17,8.91a59.61,59.61,0,0,0-2.82,11.26c0,.47.23.94.7.94h1.65a8.9,8.9,0,0,0-.24,2.11,5.07,5.07,0,0,0,.24,1.88c.47,1.64,1.87,5.39,2.34,6.8,1.88-.7,2.35-1.88,1.88-4s-.94-3.75-.94-3.75L37.15,41h.7a13.18,13.18,0,0,0,.24,1.64A1.55,1.55,0,0,0,39,43.83c6.1,4,4.7,3.05,6.57,4.22,1.18-1.64.24-2.81-.94-4.22L42.78,42,40,41.48a.23.23,0,0,1-.23-.23h3.52c.47,0,.94-.47.7-.94L42.31,31.4A10.07,10.07,0,0,0,47.23,34c1.88.23,3.52,0,3.76-1.64A44.37,44.37,0,0,1,45.36,29.76Z"/></g></svg>