<svg xmlns="http://www.w3.org/2000/svg" viewBox="0 0 56 56"><g id="onderwijs_en_kinderopvang_op_afstand"><polygon points="33.02 20.57 22.79 18.21 28.3 26.61 29.35 24.25 32.76 26.35 34.07 24.25 30.66 22.15 33.02 20.57"/><path d="M51.12,39.2,46.4,31.86l-1-19.16a2.82,2.82,0,0,0-2.62-2.62H13.08a2.63,2.63,0,0,0-2.62,2.62L9.67,31.86l-5,7.34c-.27.26-.27.79-.27,1.31v3.68A1.79,1.79,0,0,0,6.26,46H49.81a1.79,1.79,0,0,0,1.84-1.83V40.51A2,2,0,0,0,51.12,39.2Zm-29.38.53,1.84-3.41h8.65l1.84,3.41Zm23.61-7.87H10.72a.26.26,0,0,1,.26-.27,22.3,22.3,0,0,0,2.36-.78l.79-17.32H42.2L43,30.81a20.45,20.45,0,0,1,2.36.78Z"/></g></svg>