<svg xmlns="http://www.w3.org/2000/svg" viewBox="0 0 56 56"><g id="openbaar_vervoer"><path d="M10.19,10.1h-5a.82.82,0,0,0-.83.83v7.44a.83.83,0,0,0,.24.58.83.83,0,0,0,.59.25H6.87V44.82H8.53V19.2h1.66a.71.71,0,0,0,.32-.07.68.68,0,0,0,.26-.18.71.71,0,0,0,.18-.27.65.65,0,0,0,.05-.31V10.93a.83.83,0,0,0-.23-.58A.88.88,0,0,0,10.19,10.1Z"/><path d="M41.2,34.9H35.39a1.29,1.29,0,0,0-.89.36,1.27,1.27,0,0,0-.36.88,1.25,1.25,0,0,0,1.25,1.25H41.2a1.23,1.23,0,0,0,.88-.37,1.25,1.25,0,0,0,.36-.88A1.23,1.23,0,0,0,41.2,34.9Z"/><path d="M30.82,23.9h-.08a10.67,10.67,0,0,0-4.77,0c-2.74.66-2.57,5-2.57,8.79a1.75,1.75,0,0,0,.47,1.19,1.72,1.72,0,0,0,1.17.51v-4a12.65,12.65,0,0,1,.34-3.25c0-.17.17-.13.17-.13V44.77a2.25,2.25,0,0,0,2.27-2.21s.32-8.32.32-8.4a.2.2,0,0,1,.07-.16.23.23,0,0,1,.16-.06.25.25,0,0,1,.16.06.23.23,0,0,1,.06.16l.32,8.34a2.19,2.19,0,0,0,.18.87,2.23,2.23,0,0,0,.49.73,2.21,2.21,0,0,0,.73.48,2.36,2.36,0,0,0,.87.17V27.05a.22.22,0,0,1,.19.13,13,13,0,0,1,.39,3.23v4a1.72,1.72,0,0,0,1.17-.51,1.66,1.66,0,0,0,.47-1.19C33.4,28.92,33.57,24.54,30.82,23.9Z"/><path d="M29.24,22.55A2.29,2.29,0,0,0,30,22a2.12,2.12,0,0,0,.44-.77,2.21,2.21,0,0,0,.09-.88c0-1.57-.81-2.42-2.13-2.42a2.16,2.16,0,0,0-2.14,2.42,2.06,2.06,0,0,0,2.14,2.32A2.2,2.2,0,0,0,29.24,22.55ZM27,21l.92-.36a1.53,1.53,0,0,1,1,0l.92.36a1.34,1.34,0,0,1-.5.81,1.73,1.73,0,0,1-1.84,0A1.28,1.28,0,0,1,27,21Z"/><path d="M51.33,12a.83.83,0,0,0-.58-.24v0H15.14a.83.83,0,0,0-.59.25.78.78,0,0,0-.24.58v1.66a.82.82,0,0,0,.83.83h5.77c0,.12,0,.27-.24.31l-1.4.3V44.82h2.49V15.06H44.14V44.82h2.47V15.06h4.14a.85.85,0,0,0,.58-.23.88.88,0,0,0,.25-.58V12.61A.83.83,0,0,0,51.33,12Z"/></g></svg>