<svg xmlns="http://www.w3.org/2000/svg" viewBox="0 0 56 56" fill="currentColor"><g id="openingstijden"><path d="M40.61,27.74l-10.46-1-.82-11.5a1.49,1.49,0,0,0-1.49-1.39,1.43,1.43,0,0,0-.54.09,1.35,1.35,0,0,0-.47.3,1.47,1.47,0,0,0-.32.46,1.25,1.25,0,0,0-.12.54l-1,13.52a2.44,2.44,0,0,0,2.18,2.44l13-.92c.85,0,1.48-.44,1.48-1.23S41.53,27.81,40.61,27.74Z"/><path d="M44.66,11.32A23.59,23.59,0,1,0,51.57,28,23.55,23.55,0,0,0,44.66,11.32ZM40.54,40.5A17.73,17.73,0,1,1,45.73,28,17.77,17.77,0,0,1,40.54,40.5Z"/></g></svg>