<svg xmlns="http://www.w3.org/2000/svg" viewBox="0 0 56 56" fill="currentColor"><g id="overige"><path d="M34.21,12.21a1.4,1.4,0,0,0,1.8-.66L38.44,7a1.36,1.36,0,0,0-.63-1.88l-1.3-.56a1.27,1.27,0,0,0-1.72.87l-1.41,5A1.52,1.52,0,0,0,34.21,12.21Z"/><path d="M20.16,20.61h0a1,1,0,0,1,.77-.95A26.52,26.52,0,0,1,28,18.61a26.1,26.1,0,0,1,7.06,1.05,1,1,0,0,1,.77.94l.1,1.28c-10-1.79-13.17.07-13.17.07l-.45,5.56a5.55,5.55,0,0,1,6.14-1,6.12,6.12,0,0,0,0,11,5.54,5.54,0,0,1-2.34.51,5.68,5.68,0,0,1-4.47-2.21l-.48,6H40.82L39.24,20.34A4.59,4.59,0,0,0,36,16.22a30.78,30.78,0,0,0-8-1.12,30.87,30.87,0,0,0-8,1.12,4.59,4.59,0,0,0-3.3,4.12L15.17,41.79h3.42Z"/><path d="M20,11.54a1.4,1.4,0,0,0,1.8.66,1.49,1.49,0,0,0,.83-1.79l-1.4-5a1.27,1.27,0,0,0-1.72-.87l-1.3.57A1.35,1.35,0,0,0,17.56,7Z"/><path d="M50.13,18.91h0l-.53-1.35a1.27,1.27,0,0,0-1.81-.66l-4.4,2.52a1.51,1.51,0,0,0-.63,1.87,1.41,1.41,0,0,0,1.72.87L49.3,20.7A1.36,1.36,0,0,0,50.13,18.91Z"/><path d="M13.25,21.29a1.51,1.51,0,0,0-.63-1.87l-4.4-2.53a1.27,1.27,0,0,0-1.81.66L5.87,18.9a1.35,1.35,0,0,0,.83,1.79l4.83,1.46A1.4,1.4,0,0,0,13.25,21.29Z"/><path d="M42.64,47.33c-.6-.18-1.21-.33-1.82-.47V43.57H15.17v3.29c-.64.16-1.28.32-1.82.47-2.36.67-1.89,4.24,0,4.24H42.61C44.54,51.57,45,48,42.64,47.33Z"/></g></svg>