<svg role="img" aria-hidden="true" focusable="false" viewBox="0 0 41 44" xmlns="http://www.w3.org/2000/svg"><path d="M40.081 14.022l-.486-1.222c-.263-.667-1.028-.94-1.63-.595l-3.979 2.275c-.58.33-.826 1.062-.572 1.697.255.635.92.973 1.553.78l4.365-1.319c.664-.201 1.012-.957.75-1.616zM25.697 7.969c.61.265 1.313.008 1.63-.595l2.194-4.14c.332-.628.07-1.424-.572-1.697l-1.174-.506c-.641-.274-1.367.088-1.553.78l-1.274 4.534c-.186.659.139 1.358.749 1.624zM12.835 7.365c.316.603 1.02.86 1.63.595.61-.265.934-.956.749-1.616l-1.267-4.542c-.193-.691-.92-1.053-1.553-.78l-1.174.507c-.641.273-.904 1.07-.572 1.696l2.187 4.14zM6.755 16.177c.255-.636.008-1.367-.572-1.697l-3.978-2.283c-.603-.345-1.368-.072-1.63.595l-.487 1.222c-.263.667.085 1.423.75 1.616l4.364 1.318c.626.201 1.298-.136 1.553-.771zM33.314 39.707a31.064 31.064 0 00-1.645-.426v-2.974H8.493v2.974c-.58.145-1.159.29-1.646.426-2.132.611-1.715 3.835.024 3.835h26.42c1.738 0 2.155-3.224.023-3.835zM12.997 15.557a.958.958 0 01.695-.86c1.483-.41 3.8-.948 6.389-.948 2.588 0 4.905.53 6.389.948.386.105.664.45.695.852l.085 1.158c-9.054-1.616-11.897.064-11.897.064l-.41 5.025c.92-.837 2.117-1.351 3.438-1.351.75 0 1.46.169 2.11.466-1.816.852-3.09 2.75-3.09 4.96 0 2.211 1.266 4.108 3.09 4.96a5.04 5.04 0 01-2.11.467c-1.63 0-3.09-.78-4.04-2.002l-.44 5.402h17.768l-1.422-19.382c-.131-1.769-1.329-3.264-2.974-3.722-1.669-.458-4.264-1.013-7.192-1.013s-5.524.555-7.192 1.013c-1.654.458-2.851 1.954-2.982 3.722L8.493 34.698h3.09l1.414-19.14z" fill="#01689B"/></svg>
