<svg width="56" height="56" viewBox="0 0 56 56" fill="#000" xmlns="http://www.w3.org/2000/svg">
    <path d="M37.2737 38.1323C37.552 37.2755 38.66 37.2755 38.3817 36.1319C38.3817 35.5583 37.8286 35.2733 37.552 35.2733C37.8286 34.9865 38.1051 34.7015 38.3817 34.1297C38.3817 33.8429 38.3817 33.2711 38.1051 32.9861C37.2737 32.4143 37.2737 31.5557 37.2737 31.5557L39.4914 30.4121C40.0445 29.8403 40.3229 28.9817 40.0445 28.41L35.6108 23.262C35.3343 22.6902 35.6108 21.5466 35.6108 20.9748C35.0577 18.1158 33.948 14.9701 33.948 14.9701C35.3343 12.1111 34.7794 9.5371 32.5634 8.10852C30.0673 6.39132 20.9234 6.39132 13.9953 10.1089C6.79077 14.1115 7.62041 21.5466 8.73019 25.266C10.1165 29.5535 14.2737 35.8451 14.5484 40.4213C14.5484 42.4216 13.1657 49 13.1657 49H28.9611V44.1388C28.9611 44.1388 25.0823 42.1366 24.804 42.1366C24.5256 42.1366 24.804 41.8498 24.804 41.8498C24.804 41.8498 30.6222 42.9934 32.84 43.5652C34.5028 43.852 36.1657 43.2802 36.7188 42.4216C38.3835 40.4213 37.2755 39.2759 37.2755 38.1323H37.2737ZM52.7926 44.4238L47.2491 38.7059C47.2491 38.9909 46.9726 38.9909 46.9726 38.9909L46.696 38.7059C46.696 38.7059 46.9726 38.4191 46.9726 38.1341C46.9726 37.8473 47.2491 37.8473 46.4177 36.9905C46.1411 36.7037 43.0937 33.2711 42.5388 32.9861C42.2623 32.6993 41.7074 32.1275 41.1525 32.6993C40.5994 33.2729 40.876 33.8429 41.4309 34.4165L45.3097 38.4191C46.1411 39.2777 46.1411 38.9909 46.4177 38.9909L52.2377 44.9956C52.7926 45.5674 52.7926 45.2824 52.7926 44.9956C53.0691 44.9956 53.0691 44.7106 52.7926 44.4238V44.4238Z"/>
</svg>
