<svg xmlns="http://www.w3.org/2000/svg" viewBox="0 0 56 56"><g id="recreatie"><path d="M15.52,40.57a2.8,2.8,0,0,1,3.12,2.86c0-1.3,1-2.6,3.12-2.6s3.12,1.3,3.12,2.6c0-1.3,1-2.6,3.12-2.6s3.12,1.3,3.12,2.6c0-1.3,1-2.6,3.12-2.6h.26C36.84,32,40,16.13,40,16.13s2.6.78,4.16,1.3c1.82.52,3.64-1,1.56-3.64a51.13,51.13,0,0,0-4.94-5.21,5.14,5.14,0,0,0-1.94-.91l-.4-.13L37.36,6a.36.36,0,0,1,.13-.26.32.32,0,0,0,.13-.26,1,1,0,1,0-2.08,0c0,.52.26.78.78,1l.52,1.56c-.26,0-.52,0-.52.26a8.85,8.85,0,0,0-2.6-.26c-.78,0-1.3,0-1.56.52-.78,1.3,1.82,2.6,2.86,2.87-.29.91-.64,2.07-1,3.38-1.4,4.64-3.39,11.2-5.21,15.86-1.11,2.78-4.09,4.08-7.21,5.44-2.71,1.18-5.54,2.41-7.35,4.7a1.83,1.83,0,0,0,.43-.09A3,3,0,0,1,15.52,40.57Zm25-29.65a.84.84,0,0,1,.78.79.78.78,0,1,1-1.56,0A.69.69,0,0,1,40.48,10.92Z"/><path d="M46.2,42.13c-.78,0-1.56.26-1.56,1V45H41.52V43.43c0-.78-.78-1-1.56-1s-1.56.26-1.56,1v1.82H35.28V43.43c0-.78-.78-1-1.56-1s-1.3,0-1.3,1v1.82H29.3V43.43c0-.78-.78-1-1.56-1s-1.56.26-1.56,1v1.82H23.06V43.43c0-.78-.78-1-1.56-1s-1.56,0-1.56,1v1.82H17.08V43.43c0-.78-.78-1-1.56-1s-1.56.26-1.56,1v1.82H10.84V43.43c0-.78-.78-1-1.56-1-.79-.26-1.57,0-1.57,1V51.5h3.13V48.37H14V51.5h3.12V48.37H20.2V51.5h3.12V48.37h3.12V51.5h3.12V48.37h3.12V51.5H35.8V48.37h3.12V51.5H42V48.37h3.12V51.5h3.13V43.43A2,2,0,0,0,46.2,42.13Z"/></g></svg>