<svg xmlns="http://www.w3.org/2000/svg" viewBox="0 0 56 56"><g id="reproductie_graf"><path d="M48.88,28.26a9.44,9.44,0,0,0-6.8-2.54,9.79,9.79,0,0,0-7,2.94,10.3,10.3,0,0,0-3,7.8q0,4.92,2.65,7.45a9.7,9.7,0,0,0,6.84,2.49,9.86,9.86,0,0,0,7-2.9,10.31,10.31,0,0,0,3-7.8Q51.58,30.8,48.88,28.26Zm-2.33,7.56a6.84,6.84,0,0,1-1.41,4.63,4.23,4.23,0,0,1-3.34,1.61,4.54,4.54,0,0,1-3.46-1.41,6.39,6.39,0,0,1-1.28-4.35,6.85,6.85,0,0,1,1.36-4.62,4.54,4.54,0,0,1,6.8-.16,6,6,0,0,1,1.33,4.3Z"/><path d="M25.29,24.79A10.62,10.62,0,0,0,26.9,19a8.23,8.23,0,0,0-3.17-6.63Q20.61,9.7,14.28,9.7H4.42v33H11V30.37h3.87L22,42.69h7.69L21,28.51A10.25,10.25,0,0,0,25.29,24.79Zm-6.79-1a5.65,5.65,0,0,1-4.12,1.51H10.86V14.88h3c2.21,0,3.8.4,4.77,1.21a4.4,4.4,0,0,1,1.46,3.62A5.39,5.39,0,0,1,18.5,23.78Z"/></g></svg>