<svg width="56" height="56" viewBox="0 0 56 56" fill="none" xmlns="http://www.w3.org/2000/svg">
<rect width="56" height="56" fill="white"/>
<path d="M21.0969 14.2804V26.9024H25.5249C27.6756 26.9024 29.4047 26.2926 30.712 25.0732C32.0193 23.8536 32.6729 22.2074 32.6729 20.1342C32.6729 18.183 32.0614 16.7196 30.8385 15.744C29.6155 14.7682 27.6124 14.2804 24.8291 14.2804H21.0969ZM21.2234 33.061V48H13V8H25.3984C30.712 8 34.676 9.05692 37.2907 11.1708C39.9474 13.2846 41.276 15.9674 41.276 19.2196C41.276 21.9024 40.6011 24.2602 39.2517 26.2926C37.9022 28.2846 36.0887 29.7886 33.8115 30.8048L44.8182 48H35.14L26.0942 33.061H21.2234Z" fill="black"/>
</svg>
