<svg xmlns="http://www.w3.org/2000/svg" viewBox="0 0 56 56"><g id="rioolvirus"><path d="M12.32,15a10.47,10.47,0,0,0,5.23,1.7A10.54,10.54,0,0,0,22.79,15,10.47,10.47,0,0,0,28,16.7,10.51,10.51,0,0,0,33.26,15a10.54,10.54,0,0,0,5.24,1.7A10.47,10.47,0,0,0,43.73,15,10.54,10.54,0,0,0,49,16.7a8.41,8.41,0,0,0,2.58-.45V12.41a6.29,6.29,0,0,1-2.58.72c-2,0-4.1-1.62-5.1-2.41l-.14-.11-.16.13c-1,.76-3,2.39-5.07,2.39s-4.1-1.62-5.11-2.41l-.13-.11-.16.13c-1,.76-3,2.39-5.08,2.39s-4.1-1.62-5.1-2.41l-.13-.11-.17.13c-1,.76-3,2.39-5.07,2.39s-4.1-1.62-5.1-2.41l-.13-.11-.17.13c-1,.76-3,2.39-5.07,2.39a6.31,6.31,0,0,1-2.66-.76v3.86a8.64,8.64,0,0,0,2.66.47A10.54,10.54,0,0,0,12.32,15Z"/><path d="M28.89,33.1l2.64-4.77A6.75,6.75,0,0,1,28,29.58c-2.05,0-4.1-1.62-5.1-2.41l-.13-.1-.17.13c-1,.76-3,2.38-5.07,2.38s-4.1-1.62-5.1-2.41l-.13-.1-.17.13c-1,.76-3,2.38-5.07,2.38a6.17,6.17,0,0,1-2.66-.76v3.86a8.36,8.36,0,0,0,2.66.48,10.54,10.54,0,0,0,5.24-1.71,10.47,10.47,0,0,0,5.23,1.71,10.54,10.54,0,0,0,5.24-1.71A10.47,10.47,0,0,0,28,33.16,8.29,8.29,0,0,0,28.89,33.1Z"/><path d="M49,29.55a6.86,6.86,0,0,1-3.56-1.28l2.7,4.8a6.22,6.22,0,0,0,.86.06,8.47,8.47,0,0,0,2.58-.45V28.83A6.18,6.18,0,0,1,49,29.55Z"/><path d="M43.81,18.94l-.14-.1-.13.1a14,14,0,0,1-3,1.92A4.4,4.4,0,0,1,42,22.42l.74,1.31c.33-.17.63-.35.89-.51a10.54,10.54,0,0,0,5.24,1.71,8.41,8.41,0,0,0,2.58-.45V20.63a6.14,6.14,0,0,1-2.58.72C46.86,21.35,44.81,19.74,43.81,18.94Z"/><path d="M12.32,23.22a10.47,10.47,0,0,0,5.23,1.71,10.54,10.54,0,0,0,5.24-1.71A10.47,10.47,0,0,0,28,24.93a10.51,10.51,0,0,0,5.24-1.71c.24.15.53.32.84.48l.69-1.25a4.47,4.47,0,0,1,1.55-1.62,14.41,14.41,0,0,1-3-1.91l-.1-.08L33.1,19c-1,.76-3,2.38-5.08,2.38s-4.1-1.61-5.1-2.41l-.13-.1-.16.13h0c-1,.76-3,2.38-5.07,2.38s-4.1-1.61-5.1-2.41l-.13-.1-.17.13c-1,.76-3,2.38-5.07,2.38a6.3,6.3,0,0,1-2.66-.75v3.85a8.36,8.36,0,0,0,2.66.48A10.54,10.54,0,0,0,12.32,23.22Z"/><path d="M38.44,40.15a1.07,1.07,0,0,0-1.07,1.21c0,.76.39,1.18,1.08,1.18a1.06,1.06,0,0,0,1.07-1.18C39.52,40.58,39.12,40.15,38.44,40.15Z"/><polygon points="37.69 39.16 39.35 39.12 39.51 32.27 37.13 32.27 37.69 39.16"/><path d="M39.62,23.92a1.43,1.43,0,0,0-1.24-.74h0a1.44,1.44,0,0,0-1.24.75L25.67,44.61a1.61,1.61,0,0,0,0,1.52,1.45,1.45,0,0,0,1.25.75H50a1.45,1.45,0,0,0,1.26-.76,1.61,1.61,0,0,0,0-1.52ZM30,43.38l8.42-15.21L47,43.38Z"/></g></svg>