<svg width="56" height="56" viewBox="0 0 56 56" fill="#000" xmlns="http://www.w3.org/2000/svg">
    <path d="M44.1475 11.1042C45.1433 11.8906 47.1752 13.4952 49.2124 13.4952C50.0646 13.4952 50.9942 13.163 51.7738 12.7824V16.596C50.977 16.8592 50.1066 17.043 49.2124 17.043C47.1362 17.043 45.1733 16.0666 44.0153 15.3524C42.8573 16.0666 40.8945 17.043 38.8183 17.043C36.7421 17.043 34.7791 16.0666 33.6211 15.3524C32.4631 16.0666 30.5003 17.043 28.4241 17.043C26.3479 17.043 24.385 16.0666 23.227 15.3524C22.069 16.0666 20.1062 17.043 18.0299 17.043C15.9537 17.043 13.9909 16.0666 12.8329 15.3524C11.6749 16.0666 9.71202 17.043 7.63579 17.043C6.71408 17.043 5.81646 16.8484 5 16.5722V12.7446C5.79559 13.142 6.75375 13.4952 7.63579 13.4952C9.68802 13.4952 11.7169 11.8852 12.6695 11.1292C12.728 11.0828 12.7827 11.0394 12.8329 11L12.965 11.1042C13.9609 11.8906 15.9926 13.4952 18.0299 13.4952C20.0822 13.4952 22.1111 11.8852 23.0636 11.1292C23.1222 11.0828 23.1768 11.0394 23.227 11L23.3591 11.1042C24.355 11.8906 26.3867 13.4952 28.4241 13.4952C30.4763 13.4952 32.5053 11.8852 33.4577 11.1292C33.5165 11.0828 33.5709 11.0394 33.6211 11L33.7533 11.1042C34.7491 11.8906 36.7809 13.4952 38.8183 13.4952C40.8705 13.4952 42.8993 11.8852 43.8519 11.1292C43.9105 11.0828 43.9651 11.0394 44.0153 11L44.1475 11.1042Z"/>
    <path d="M31.9027 28.5905L29.2835 33.3183C29.0001 33.3529 28.7137 33.3755 28.4241 33.3755C26.3479 33.3755 24.385 32.3991 23.227 31.6849C22.069 32.3991 20.1062 33.3755 18.0299 33.3755C15.9537 33.3755 13.9909 32.3991 12.8329 31.6849C11.6749 32.3991 9.71202 33.3755 7.63579 33.3755C6.71408 33.3755 5.81646 33.1811 5 32.9047V29.0771C5.79559 29.4745 6.75375 29.8279 7.63579 29.8279C9.68802 29.8279 11.7169 28.2177 12.6695 27.4619C12.7281 27.4153 12.7826 27.3721 12.8329 27.3325L12.965 27.4367C13.9609 28.2233 15.9926 29.8279 18.0299 29.8279C20.0822 29.8279 22.1111 28.2177 23.0636 27.4619C23.1222 27.4153 23.1768 27.3721 23.227 27.3325L23.3591 27.4367C24.355 28.2233 26.3867 29.8279 28.4241 29.8279C29.6745 29.8279 30.9077 29.2285 31.9027 28.5905Z"/>
    <path d="M45.707 28.5249L48.3938 33.2925C48.6724 33.3259 48.9538 33.3475 49.2386 33.3475C50.1326 33.3475 51.0031 33.1637 51.7999 32.9005V29.0867C51.0205 29.4673 50.0906 29.7995 49.2386 29.7995C47.9752 29.7997 46.7202 29.1813 45.707 28.5249Z"/>
    <path d="M43.8252 19.2692L43.9556 19.1662L44.0878 19.2706C45.0836 20.057 47.1152 21.6616 49.1526 21.6614C50.0048 21.6614 50.9344 21.3292 51.714 20.9486V24.7625C50.9172 25.0257 50.0468 25.2095 49.1526 25.2095C47.0764 25.2095 45.1136 24.2328 43.9556 23.5186C43.6982 23.6774 43.3958 23.849 43.0666 24.0202L42.3356 22.7234C41.9686 22.0726 41.449 21.5446 40.8418 21.1714C42.1092 20.6258 43.2088 19.7564 43.8252 19.2692Z"/>
    <path d="M12.8329 23.5186C13.9909 24.2328 15.9537 25.2095 18.0299 25.2095C20.1062 25.2095 22.069 24.2328 23.227 23.5186C24.385 24.2328 26.3479 25.2095 28.4241 25.2095C30.5003 25.2095 32.4631 24.2328 33.6211 23.5186C33.8627 23.6676 34.1465 23.8284 34.4519 23.989L35.1369 22.7522C35.5125 22.0748 36.0499 21.526 36.6799 21.1466C35.4391 20.5988 34.3549 19.7444 33.7201 19.244L33.6211 19.1662C33.5709 19.2058 33.5165 19.249 33.4577 19.2956C32.5053 20.0514 30.4763 21.6616 28.4241 21.6616C26.3867 21.6616 24.355 20.057 23.3591 19.2704L23.227 19.1662C23.1777 19.205 23.1243 19.2474 23.0669 19.293L23.0645 19.2948C22.112 20.0508 20.0822 21.6616 18.0299 21.6616C15.9926 21.6616 13.9609 20.057 12.965 19.2704L12.8329 19.1662C12.7826 19.2058 12.7281 19.249 12.6695 19.2956C11.7169 20.0514 9.688 21.6616 7.63579 21.6616C6.75375 21.6616 5.79559 21.3082 5 20.9108V24.7384C5.81646 25.0148 6.71408 25.2095 7.63579 25.2095C9.71194 25.2095 11.6749 24.2328 12.8329 23.5186Z"/>
    <path d="M38.758 40.3199C38.0604 40.3199 37.6982 40.8457 37.6982 41.5179C37.6982 42.2775 38.0888 42.6863 38.772 42.6863C39.469 42.6863 39.8318 42.1751 39.8318 41.5179C39.8318 40.7433 39.4412 40.3199 38.758 40.3199Z"/>
    <path d="M39.6632 39.2925L38.0184 39.3385L37.46 32.4939H39.8192L39.6632 39.2925Z"/>
    <path d="M38.7001 23.4754C39.2073 23.4754 39.6767 23.7561 39.9343 24.2137L51.5007 44.7349C51.7623 45.1993 51.7665 45.7747 51.5113 46.2429C51.2561 46.7111 50.7809 47.0001 50.2663 47.0001H27.3318C26.8188 47.0001 26.3454 46.7131 26.0896 46.2479C25.8338 45.7825 25.8348 45.2091 26.092 44.7449L37.4603 24.2235C37.7161 23.7625 38.1853 23.4774 38.6945 23.4754H38.7001ZM38.7155 28.4245L30.352 43.5219H47.2245L38.7155 28.4245Z"/>
</svg>
