<svg xmlns="http://www.w3.org/2000/svg" viewBox="0 0 56 56" fill="currentColor"><g id="sport_wedstrijden"><path d="M36.68,29.12a11.39,11.39,0,0,0,8.84-3.47,18.28,18.28,0,0,0,4.25-12.78c0-1.14-.52-1.16-1.26-1.16H40.62V10H23.83v7.65L36,29.82A5.78,5.78,0,0,0,36.68,29.12Zm4-10.32v-5h5.7c.6,0,.91,0,.79.8a16.1,16.1,0,0,1-3.5,9.4,8.77,8.77,0,0,1-5.08,2.57A15.43,15.43,0,0,0,40.65,18.8Z"/><path d="M7.07,4.42,4.43,7.06l6,6.05a18.28,18.28,0,0,0,4.15,12.54,11.58,11.58,0,0,0,8.84,3.47,6.41,6.41,0,0,0,4.16,2.17s.82,3.91-2.11,5.16c-.77.33-1.54.62-2.26.9-2.06.79-3.71,1.43-3.67,2.15v6.41h21V43.25l8.31,8.32,2.64-2.64ZM16.44,24A16.37,16.37,0,0,1,13,15.63l6.81,6.82a15.51,15.51,0,0,0,1.59,4.08A8.72,8.72,0,0,1,16.44,24ZM38.17,43.58H21.83V41.07H38.17Z"/><polygon points="22.06 10.02 19.58 10.02 19.58 11.65 17.8 11.65 22.06 15.9 22.06 10.02"/></g></svg>