<svg xmlns="http://www.w3.org/2000/svg" viewBox="0 0 56 56" fill="currentColor"><g id="sport_met_zweetband"><path d="M44.87,39c-2.09-1.84-6.55-3.41-8.9-3.93a13.66,13.66,0,0,0-.53-2.88,10.67,10.67,0,0,0,2.62-5.5,6.16,6.16,0,0,0,1.57-4.46,4.54,4.54,0,0,0-1.31-3.66A17.1,17.1,0,0,0,39.63,12l1.57-.79c-2.62-5.5-8.64-2.88-8.64-2.88-2.36-3.93-9.69-3.93-9.69-3.93a7.87,7.87,0,0,1,1.57,2.36c-7.86-.79-8.91,5.76-8.91,5.76s.79-.26,1.84-.52a26.23,26.23,0,0,0,1.05,6.81c-.79.52-1.31,1.57-1.31,3.4a6.16,6.16,0,0,0,1.57,4.46,12.73,12.73,0,0,0,2.88,6,4.73,4.73,0,0,1-.11.84,7.13,7.13,0,0,0-.15,1.26c-1.84.52-7.34,2.35-9.43,4.19,1.83,1.31,5.5,4.71,7.33,12.31H37.54A22.68,22.68,0,0,1,44.87,39ZM37,13.07a15.48,15.48,0,0,1-.52,3.4,67.67,67.67,0,0,0-16.24-.26,13.85,13.85,0,0,0-.13-1.57A12,12,0,0,1,20,13.07,61.41,61.41,0,0,1,37,13.07ZM33.71,36.8a4,4,0,0,1-.63,1.67c-1.83,3.93-7.85,3.67-9.16-.52a3.07,3.07,0,0,0-.06-.52,1.58,1.58,0,0,1,.06-1c0-.54,0-.77,0-1,0-.44.16-.87.5-3.45C22.61,30.09,21,28,21,25.38c-1.31-.26-1.58-2.1-1.58-3.15A2.51,2.51,0,0,1,20,20.4a.44.44,0,0,1,.52-.06.88.88,0,0,0,.26.06A2.69,2.69,0,0,0,21,21.45a1.14,1.14,0,0,0,1,.78V18.57a28.74,28.74,0,0,1,4.72-.26,9.41,9.41,0,0,1-1.05,2.61,6.28,6.28,0,0,0,5-2.88h1a12,12,0,0,0,1.31,2.36,8.9,8.9,0,0,1,1.55-1.58l.29-.25v3.66s.78,0,.78-.52A2,2,0,0,1,36,20.66a.88.88,0,0,0,.26-.06c.17-.05.35-.11.52.06a2.53,2.53,0,0,1,.52,1.84c0,1-.26,2.62-1.57,3.14,0,2.88-2.09,5.24-4.45,7.33a5,5,0,0,1-3.14.79,6.27,6.27,0,0,1-2.36-.52c.17.11.35.25.55.4a6.48,6.48,0,0,0,2.85,1.43,5,5,0,0,0,4.46-.79s.26,1.57.26,1.84Z"/><path d="M10.82,41.09C9.25,44.76,8.2,51.57,8.2,51.57h8.64C15.27,45,12.13,42.14,10.82,41.09Z"/><path d="M46.18,41.09c-1.31,1-4.45,3.93-6,10.48H48.8S48,44.76,46.18,41.09Z"/></g></svg>