<svg focusable="false" width="36" height="36" viewBox="0 0 36 36" fill="currentColor" xmlns="http://www.w3.org/2000/svg"><path fill-rule="evenodd" clip-rule="evenodd" d="M22.0053 22.0313C23.3491 22.3299 25.8873 23.2258 27.0818 24.2709C26.186 25.0175 23.9463 27.1078 22.9012 31.2884H12.4496C11.4045 26.9585 9.31415 25.0175 8.269 24.2709C9.46346 23.2258 12.5989 22.1806 13.6441 21.882C13.6441 21.6354 13.6893 21.3888 13.73 21.1672C13.7632 20.9862 13.7934 20.8218 13.7934 20.6875C12.8975 19.4931 12.3003 18.4479 12.151 17.2535C11.5538 16.6562 11.2552 15.7604 11.2552 14.7152C11.2552 13.6701 11.5538 13.0728 12.0017 12.7742C11.7031 11.7291 11.4045 10.236 11.4045 8.89222C10.8072 9.04153 10.3593 9.19083 10.3593 9.19083C10.3593 9.19083 10.9565 5.45813 15.4358 5.90606C15.4358 5.90606 15.1372 5.15952 14.5399 4.56229C14.5399 4.56229 18.7206 4.56229 20.0643 6.80191C20.0643 6.80191 23.4984 5.30883 24.9915 8.44429L24.0956 8.89222C24.0956 10.0867 23.797 11.7291 23.3491 12.6249C23.9463 13.2221 24.0956 13.8194 24.0956 14.7152C24.0956 15.7604 23.797 16.6562 23.1998 17.2535C23.0505 18.2986 22.6026 19.3438 21.7067 20.3889C21.856 20.9862 22.0053 21.5834 22.0053 22.0313ZM12.9722 10.3853C13.0095 10.6839 13.0469 10.9825 13.0469 11.2811C16.1823 10.9825 19.3178 10.9825 22.304 11.4305C22.4533 10.8332 22.6026 10.0867 22.6026 9.48945C19.4671 9.04153 16.033 9.04153 12.8975 9.48945C12.8975 9.78807 12.9349 10.0867 12.9722 10.3853ZM15.1372 23.6737C15.8837 26.0626 19.3178 26.2119 20.3629 23.9723C20.5894 23.6327 20.6441 23.3789 20.7225 23.0156C20.7474 22.8998 20.7748 22.7729 20.8109 22.6286C20.8109 22.4792 20.6616 21.5834 20.6616 21.5834C20.6616 21.5834 19.6164 22.4792 18.1233 22.0313C17.421 21.9143 16.9023 21.522 16.4951 21.214C16.3829 21.1291 16.2791 21.0507 16.1823 20.9862C16.4809 21.1355 17.0782 21.2848 17.5261 21.2848C18.2726 21.2848 19.0192 21.1355 19.3178 20.8369C20.6616 19.6424 21.856 18.2986 21.856 16.6562C22.6026 16.3576 22.7519 15.4618 22.7519 14.8645C22.7519 14.2673 22.6026 13.9687 22.4533 13.8194C22.3537 13.7198 22.2542 13.753 22.1546 13.7862C22.1049 13.8028 22.0551 13.8194 22.0053 13.8194C21.856 14.118 21.856 14.2673 21.856 14.4166C21.856 14.7152 21.4081 14.7152 21.4081 14.7152V12.6249C21.3708 12.6622 21.3148 12.7089 21.2448 12.7672C21.0348 12.9422 20.6989 13.2222 20.3629 13.6701C20.3629 13.6701 19.915 13.0728 19.6164 12.3263H19.0192C18.5712 13.0728 17.6754 13.8194 16.1823 13.9687C16.1823 13.9687 16.6302 13.2221 16.7796 12.4756C15.8837 12.4756 14.9879 12.4756 14.092 12.6249V14.7152C14.092 14.7152 13.6441 14.7152 13.4948 14.2673C13.4948 14.2673 13.3455 13.9687 13.3455 13.6701C13.2957 13.6701 13.2459 13.6535 13.1962 13.6369C13.0966 13.6037 12.9971 13.5705 12.8975 13.6701C12.7482 13.8194 12.5989 14.118 12.5989 14.7152C12.5989 15.3125 12.7482 16.3576 13.4948 16.5069C13.4948 18 14.3906 19.1945 15.4358 20.2396C15.2395 21.7118 15.1722 21.9582 15.1492 22.2087C15.1372 22.3392 15.1372 22.4709 15.1372 22.7779C15.0376 22.9769 15.0708 23.176 15.104 23.3751C15.1206 23.4746 15.1372 23.5742 15.1372 23.6737Z"/><path d="M7.67173 25.4654C6.77588 27.5557 6.17865 31.4377 6.17865 31.4377H11.1058C10.21 27.705 8.41827 26.0626 7.67173 25.4654Z"/><path d="M27.8283 25.4654C27.0818 26.0626 25.2901 27.705 24.3942 31.4377H29.3214C29.3214 31.4377 28.8735 27.5557 27.8283 25.4654Z"/></svg>
