<svg xmlns="http://www.w3.org/2000/svg" viewBox="0 0 56 56" fill="currentColor"><g id="sport_buiten"><path d="M27.86,12.45c2.21.55,3.86-.83,4.41-3,.55-2.76-.55-4.41-2.75-5a4,4,0,0,0-4.41,3.3C24.56,10.24,25.66,12.17,27.86,12.45Z"/><path d="M28,28a56.92,56.92,0,0,1,1.55-6.21C30.34,23.19,32,26,33.37,26.5c1.1.55,4.14.55,5.51.55a3.61,3.61,0,0,0,2.92-2.51l.11-.24A36.27,36.27,0,0,1,35,23.47c-.83-.55-2.48-3.58-3-4.69-.14-.24-.27-.5-.4-.76-.92-1.77-1.92-3.71-6.48-4.19-3.31-.28-8.54,1.1-9.92,2.48a23,23,0,0,0-3.58,5.51A3.85,3.85,0,0,0,12.43,26c.11-.16.29-.46.53-.86,1-1.7,3.09-5.14,4.43-6,.55-.55,2.21-.83,4.14-1.1-.73,3.15-1.46,7.59-1.81,9.73h0c0,.29-.09.53-.12.73C19.08,31.52,21,32.68,23,33.94h0l.43.26h-.27a4.45,4.45,0,0,1-.52-.07,12.37,12.37,0,0,0-2-.2,63.4,63.4,0,0,1-3,6.06,22.81,22.81,0,0,1-4.14-.67,16.36,16.36,0,0,0-2.47-.43C8.3,38.35,7.2,41.38,7.2,41.38c.46.15,1.06.37,1.73.61,2.91,1,7.33,2.64,9.56,2.42,1.66,0,2.21-.55,3.31-2.21s2.76-4.4,3.86-6.33l.22.11.65.31a21,21,0,0,1,3.26,1.78,57.05,57.05,0,0,1,.83,9.64,4.9,4.9,0,0,0,3.58,3.86c.14-1.57.21-2.84.28-4.16h0c.07-1.22.14-2.5.27-4.08V38.07a4.51,4.51,0,0,0-.55-2.75c-.28-.83-1.38-1.66-6.61-5.51.12-.57.25-1.16.37-1.76Z"/><path d="M44.67,39.72a4.14,4.14,0,1,0,4.13,4.14A4.06,4.06,0,0,0,44.67,39.72Z"/></g></svg>