<svg xmlns="http://www.w3.org/2000/svg" viewBox="0 0 56 56"><g id="stap_1_winkels_markten"><path d="M50.63,45.34H48.75L44,35.28h-2.2l4.09,10.06H43.09L39.63,35.28h-2.2l2.83,10.06H37.43L35.54,35h-2.2L34.92,45H32.09L31.14,35h-2.2L29.26,45H26.74L27.06,35h-2.2L23.91,45H21.08L22.66,35h-2.2L18.26,45H15.43L18.26,35H16.05L12.6,45H10.08L14.17,35H11.65L6.94,45H5.37a.84.84,0,0,0-1,.94V48.8a.84.84,0,0,0,1,.94H50.63a.84.84,0,0,0,.95-.94V46C51.58,45.65,51.26,45.34,50.63,45.34Z"/><path d="M50.63,28.68H48.75L44,18.31V7.3a.83.83,0,0,0-.94-.94H12.6c-.32,0-.63.31-.63.94v11L7.25,28.68H5.37a.84.84,0,0,0-1,.94v2.83a.84.84,0,0,0,1,.95H50.63a.84.84,0,0,0,.95-.95V29.62A.84.84,0,0,0,50.63,28.68Zm-40.55,0,4.09-10.06h2.2L12.6,28.68Zm8.18,0H15.43l2.83-10.06h2.2Zm5.65,0H21.08l1.58-10.06h2.2Zm2.83,0,.32-10.06h2.2l.31,10.06Zm5.35-.31v.31l-1-10.37h2.2l1.58,10.06Zm5.65,0v.31l-2.2-10.37h2.2l2.83,10.06Zm5.66.31L40,18.62h2.2l4.08,10.06Z"/></g></svg>