<svg xmlns="http://www.w3.org/2000/svg" viewBox="0 0 56 56" fill="currentColor"><g id="stap_1_winkels_open"><path d="M51.45,40.05,45,31.23c-.29-.29-.59-.59-.88-.59H39.4l-.3.3-1.17,4.11a1.09,1.09,0,0,0,.29.88l6.47,8.82a.9.9,0,0,0,1.17,0l5.59-4.12A.4.4,0,0,0,51.45,40.05Zm-9.11-5.59c-.59.3-1.18.3-1.47-.29s-.3-1.18.29-1.47,1.18-.29,1.47.29S42.92,34.17,42.34,34.46Z"/><path d="M47,22.41,40.28,12.13a5.25,5.25,0,0,0-2.06-1.47L32.64,8.6c-1.77,2.65-4.71,5.58-7.94,5a.29.29,0,0,1-.29-.3,10.4,10.4,0,0,0,5.29-3.23,17.62,17.62,0,0,1-4.12.59A14.4,14.4,0,0,1,18.82,8.6l-5.58,1.76a5.46,5.46,0,0,0-2.06,1.47L4.42,22.41l6.18,6.17,3.82-3.23v22H37.34V25.06l3.82,3.23Z"/></g></svg>