<svg xmlns="http://www.w3.org/2000/svg" viewBox="0 0 56 56"><g id="stap_1_uitvaarten"><path d="M44.9,11.25H41.49a17,17,0,0,0-27.29,0H10.78a.82.82,0,0,0-.93.93V51.57h18V41.64c2.8-.31,4-3.72,4.35-3.72v-.31c-.93.93-2.79,2.79-4.35,2.48-.93-.31-.93-2.79-.31-4a.83.83,0,0,1,.94-.93,57.8,57.8,0,0,1,8.06-.93.82.82,0,0,1,.93.93V51.57h8.69V12.18C45.84,11.56,45.53,11.25,44.9,11.25ZM33.12,32.65a2.37,2.37,0,0,0,.62-1.55,3.35,3.35,0,0,0-1.24-2.48,3.17,3.17,0,0,0-1.24,2.17,3.32,3.32,0,0,0,.62,1.86c-1.55,0-2.79-1.24-3.1-3.1-.62-3.41,2.48-7.76,3.72-9,.31,4.35,2.79,3.72,3.72,7.14C36.84,30.48,35.29,32,33.12,32.65Z"/></g></svg>