<svg xmlns="http://www.w3.org/2000/svg" viewBox="0 0 56 56" fill="currentColor"><g id="stap_1-horeca_pertafel"><path d="M34.48,12.64c2.39,0,3.58-1.52,3.58-4,0-2.74-1.19-4.26-3.58-4.26S30.9,6.25,30.9,8.68,32.39,12.64,34.48,12.64Z"/><path d="M24.31,30.38C24,25.5,23.55,18.3,26.72,15.07a1.1,1.1,0,0,1-.44-.15,1,1,0,0,0-.45-.15,23.59,23.59,0,0,0-9.25,0C12.11,16,12.4,25.11,12.7,29.06c.6,2.44,2.09,3,3,3V24.8a15.53,15.53,0,0,1,.59-5.17s.3-.3.3,0v28.9a3.59,3.59,0,0,0,3.58-3.35l.6-13.38a.29.29,0,0,1,.3-.3.29.29,0,0,1,.29.3L22,45.18c0,2.13,1.19,3.35,3.58,3.35V33.62a5.46,5.46,0,0,1-1.19-2.73Z"/><path d="M39.55,14.77a17.88,17.88,0,0,0-9.84,0c-5,1.5-4.49,10.4-4.19,15.61v.2a2.74,2.74,0,0,0,2.69,3V27.24c0-2.74,0-5.48.59-7.3a.3.3,0,0,1,.3-.31V51.57a4,4,0,0,0,4.18-3.65l.59-14.6a.3.3,0,0,1,.6,0c0,.3.6,14.6.6,14.6a4,4,0,0,0,4.17,3.65V19.94a.29.29,0,0,1,.3.3c.6,1.52.6,4.26.6,7.3v6.39c1.19,0,2.68-.61,2.68-3C43.73,25.41,44.32,16.29,39.55,14.77Z"/><path d="M21.35,12.64c2.09,0,3.29-1.52,3.29-3.65,0-2.44-1.2-3.65-3.29-3.65S18.07,6.86,18.07,9C18.07,11.42,19.27,12.64,21.35,12.64Z"/></g></svg>