<svg xmlns="http://www.w3.org/2000/svg" viewBox="0 0 56 56"><g id="stap_1_avondklok"><path d="M14.65,9.63c0,.36,0,.71,0,1l0,1a.28.28,0,0,0,.45.18,14.19,14.19,0,0,0,1.62-1.3,12.9,12.9,0,0,0,2,.58A.27.27,0,0,0,19,10.8c-.24-.58-.52-1.21-.81-1.88.4-.59.78-1.21,1.1-1.74a.29.29,0,0,0-.23-.44,20.27,20.27,0,0,0-2,.06l-.68-.88-.51-.67a.23.23,0,0,0-.24-.09.21.21,0,0,0-.19.18c-.08.28-.15.55-.22.83l-.28,1.06A18.52,18.52,0,0,0,13,8a.3.3,0,0,0,0,.5C13.47,8.82,14.06,9.24,14.65,9.63Z"/><path d="M46.81,6.91a6.19,6.19,0,0,0-2.67,0,5.71,5.71,0,0,1-1.92,10.32,6.33,6.33,0,0,0,2,.88,5.91,5.91,0,0,0,7.2-4.24A5.89,5.89,0,0,0,46.81,6.91Z"/><path d="M7.56,18.15l-.41-1.31A.2.2,0,0,0,7,16.71a.19.19,0,0,0-.18.08l-.78,1.13a13.68,13.68,0,0,0-1.44,0,.22.22,0,0,0-.16.32c.25.37.54.79.84,1.19l-.39,1-.13.34A.19.19,0,0,0,5,21a8,8,0,0,0,1.38-.47,9.06,9.06,0,0,0,1.19.87.2.2,0,0,0,.31-.14c0-.45-.06-.93-.09-1.45.41-.3.81-.61,1.15-.89a.21.21,0,0,0,0-.35C8.52,18.44,8,18.28,7.56,18.15Z"/><path d="M29,22h0a1.19,1.19,0,0,0-2.37,0L26,30.7l-7.42,1a1,1,0,0,0,.08,2.05h0l9.18.54h.24a1.78,1.78,0,0,0,1.65-1.92v0Z"/><path d="M31.59,14.94a18.2,18.2,0,1,0,14,21.62A18.21,18.21,0,0,0,31.59,14.94Zm9.73,20.7A13.85,13.85,0,1,1,30.68,19.2,13.87,13.87,0,0,1,41.32,35.64Z"/></g></svg>