<svg focusable="false"  width="36" height="36" viewBox="0 0 36 36" fill="currentColor" xmlns="http://www.w3.org/2000/svg"><path d="M27.9516 17.9337C27.9516 17.2636 27.2814 16.5934 26.6112 16.5934H23.9304C24.2655 16.5934 24.6006 16.2583 24.7682 15.9232L25.4383 8.7186C25.4383 8.55106 25.4383 8.55106 25.2708 8.38351C25.1032 8.21596 25.1032 8.21596 24.9357 8.21596H23.5953L23.9304 5.53519C23.9304 5.36764 23.7629 5.03254 23.5953 5.03254C23.4278 5.03254 23.2602 5.20009 23.2602 5.53519L22.7576 8.21596H19.9093C19.7417 8.21596 19.5742 8.38351 19.5742 8.38351C19.5742 8.38351 19.4066 8.55106 19.4066 8.7186L20.0768 15.9232C20.0768 16.2583 20.4119 16.5934 20.9145 16.5934H17.2285C17.2285 16.0907 16.8934 15.7556 16.3907 15.7556H15.0504V12.7398C15.7206 12.5722 16.3907 12.2371 16.8934 11.7345C17.5636 11.0643 17.7311 10.059 17.7311 9.22125L17.396 5.03254C17.396 4.865 17.0609 4.69745 16.8934 4.69745H12.202C11.8669 4.69745 11.6994 4.865 11.6994 5.03254L11.1968 9.0537C11.1968 10.059 11.5319 10.8967 12.0345 11.5669C12.5371 12.0696 13.2073 12.4047 13.8775 12.5722V15.7556H12.7047C12.202 15.7556 11.8669 16.0907 11.8669 16.5934H9.85637C9.18618 16.5934 8.51599 17.096 8.51599 17.9337L7.84579 23.1277L9.35373 23.7979C10.1915 24.3006 11.3643 24.3006 12.202 23.7979C13.0398 23.2953 14.0451 23.2953 14.8828 23.7979L16.7258 24.6357V31.0025H19.4066V25.3059C18.904 25.4734 18.2338 25.3059 17.8987 25.1383C17.7311 25.1383 17.7311 24.9708 17.7311 24.9708C18.4013 25.1383 18.904 24.9708 19.5742 24.8032L21.4172 23.9655C22.2549 23.6304 23.2602 23.6304 24.2655 23.9655C25.1033 24.4681 26.2761 24.4681 27.1138 23.9655L28.6218 23.2953L27.9516 17.9337ZM24.4331 9.22125L24.098 12.7398H20.5795L20.2444 9.22125H24.4331ZM16.5583 5.53519L16.8934 8.7186H12.202L12.5371 5.53519H16.5583Z"/></svg>