<svg xmlns="http://www.w3.org/2000/svg" viewBox="0 0 56 56" fill="currentColor"><g id="stap_1_horeca_max"><path d="M38,12.62a3.77,3.77,0,0,0,3.81-4.1c0-2.63-1.46-4.1-3.81-4.1s-3.51,1.76-3.51,4.1C34.44,11.16,35.61,12.62,38,12.62Z"/><path d="M42.35,14.67a20.92,20.92,0,0,0-8.49,0c-5,1.17-4.69,9.08-4.69,15.82.29,2.34,1.76,2.92,2.93,2.92V27.26a31.43,31.43,0,0,1,.88-7,.29.29,0,0,1,.29-.3V51.57a3.88,3.88,0,0,0,3.81-3.81s.58-14.64.58-14.93,0-.29.29-.29a.29.29,0,0,1,.3.29l.58,14.64c.3,4.1,3.81,4.1,3.81,4.1V19.94a.29.29,0,0,1,.29.3c.59.88,1.17,4.1,1.17,6.73v6.15c1.18,0,2.64-.58,2.93-2.93C47,23.75,47.33,15.84,42.35,14.67Z"/><path d="M11.6,27.56H10.43v-2h3.8V24H9v5h1.76c1.46,0,2.34.88,2.34,1.76,0,1.17-1.17,2-2.92,2H9V34h1.18c2.92,0,4.68-1.46,4.68-3.51C14.82,28.73,13.65,27.56,11.6,27.56Z"/><path d="M19.51,23.75A3.92,3.92,0,0,0,16,27.85c0,2.64,1.47,3.81,3.52,3.81A3.92,3.92,0,0,0,23,27.56C23,24.92,21.56,23.75,19.51,23.75Zm0,6.44c-1.18,0-1.76-.58-1.76-2.34,0-1.46.58-2.34,1.76-2.63,1.17,0,1.75.87,1.75,2.34C21.26,29.31,20.38,30.19,19.51,30.19Z"/></g></svg>