<svg xmlns="http://www.w3.org/2000/svg" viewBox="0 0 56 56" fill="currentColor"><g id="stap_1_theorie"><path d="M45,4.42H25.09c-.61,0-.92.31-1.53.62L9.78,18.81c-.3.61-.61.92-.61,1.53V49.73A2,2,0,0,0,11,51.57H45a2,2,0,0,0,1.84-1.84V6.26A2,2,0,0,0,45,4.42ZM13.76,47V21.57l-3.06-.92a.3.3,0,0,1-.3-.31H23.87a.81.81,0,0,0,.92-.92V6a.3.3,0,0,1,.3.31L26,9.32H41.62V47Z"/><rect x="29.07" y="17.59" width="9.49" height="2.76"/><rect x="24.17" y="27.08" width="14.08" height="2.76"/><rect x="17.74" y="27.08" width="4.59" height="2.76"/><rect x="24.17" y="32.59" width="14.08" height="2.76"/><rect x="17.74" y="32.59" width="4.59" height="2.76"/><rect x="17.74" y="38.41" width="4.59" height="2.76"/><rect x="24.17" y="38.41" width="14.08" height="2.76"/></g></svg>