<svg focusable="false"  width="36" height="36" viewBox="0 0 36 36" fill="currentColor" xmlns="http://www.w3.org/2000/svg"><path d="M28.711 26.4639H27.7767L25.4411 21.4813H24.3511L26.3754 26.4639H24.974L23.2612 21.4813H22.1712L23.5726 26.4639H22.1712L21.237 21.3256H20.147L20.9256 26.3082H19.5242L19.0571 21.3256H17.9671L18.1228 26.3082H16.8772L17.0329 21.3256H15.9429L15.4758 26.3082H14.0744L14.853 21.3256H13.763L12.6731 26.3082H11.2717L12.6731 21.3256H11.5831L9.87031 26.3082H8.62464L10.6488 21.3256H9.40318L7.06756 26.3082H6.28902C5.97761 26.3082 5.8219 26.4639 5.8219 26.7753V28.1767C5.8219 28.4881 5.97761 28.6438 6.28902 28.6438H28.711C29.0224 28.6438 29.1781 28.4881 29.1781 28.1767V26.7753C29.1781 26.6196 29.0224 26.4639 28.711 26.4639ZM28.711 18.2114H27.7767L25.4411 13.073V7.62325C25.4411 7.31184 25.2854 7.15613 24.974 7.15613H9.87031C9.7146 7.15613 9.55889 7.31184 9.55889 7.62325V13.073L7.22327 18.2114H6.28902C5.97761 18.2114 5.8219 18.3671 5.8219 18.6785V20.0799C5.8219 20.3913 5.97761 20.547 6.28902 20.547H28.711C29.0224 20.547 29.1781 20.3913 29.1781 20.0799V18.6785C29.1781 18.3671 29.0224 18.2114 28.711 18.2114ZM8.62464 18.2114L10.6488 13.2287H11.7388L9.87031 18.2114H8.62464ZM12.6731 18.2114H11.2717L12.6731 13.2287H13.763L12.6731 18.2114ZM15.4758 18.2114H14.0744L14.853 13.2287H15.9429L15.4758 18.2114ZM16.8772 18.2114L17.0329 13.2287H18.1228L18.2785 18.2114H16.8772ZM19.5242 18.2114L19.0571 13.073H20.147L20.9256 18.0557H19.5242V18.2114ZM22.3269 18.2114L21.237 13.073H22.3269L23.7283 18.0557H22.3269V18.2114ZM25.1297 18.2114L23.4169 13.2287H24.5069L26.5311 18.2114H25.1297Z"/></svg>