<svg xmlns="http://www.w3.org/2000/svg" viewBox="0 0 56 56" fill="currentColor"><g id="stap_1_winkels_alleen"><path d="M26.34,12.74c2.49,0,3.88-1.66,3.88-4.16,0-2.77-1.39-4.16-3.88-4.16s-3.61,1.67-3.61,4.16C22.73,11.36,24.12,12.74,26.34,12.74Z"/><path d="M36.88,33.82a3.13,3.13,0,0,0-2-3.05c0-6.66.28-14.7-4.43-15.81a21.18,21.18,0,0,0-8.32,0c-4.72.83-4.44,8.6-4.44,15.26a3.22,3.22,0,0,0,2.77,3.05V26.33a22.18,22.18,0,0,1,.56-5.54.27.27,0,0,1,.28-.28V51.57a3.94,3.94,0,0,0,3.88-3.88s.55-14.42.55-14.7,0-.28.28-.28a.27.27,0,0,1,.28.28c0,.28.55,14.7.55,14.7a3.94,3.94,0,0,0,3.88,3.88V46h7.49V33.82Zm-4.72-2.77c-.28.28-.55.83-.83,1.11V20.23a.27.27,0,0,1,.28.28,22.86,22.86,0,0,1,.55,5.55Zm.28,2.77c0-1.11.55-1.94,1.39-1.94a1.85,1.85,0,0,1,1.66,1.94Z"/></g></svg>