<svg focusable="false"  width="36" height="36" viewBox="0 0 36 36" fill="currentColor" xmlns="http://www.w3.org/2000/svg"><path d="M16.7972 10.2218C18.1518 10.2218 18.9044 9.31869 18.9044 7.96406C18.9044 6.45893 18.1518 5.70636 16.7972 5.70636C15.4426 5.70636 14.8405 6.60944 14.8405 7.96406C14.8405 9.4692 15.5931 10.2218 16.7972 10.2218Z"/><path d="M22.5167 21.6608C22.5167 20.9082 22.0652 20.1557 21.4631 20.0051C21.4631 16.3928 21.6136 12.0279 19.0549 11.4259C17.7003 11.1248 15.8941 11.1248 14.5395 11.4259C11.9808 11.8774 12.1313 16.0918 12.1313 19.7041C12.2818 20.9082 13.1849 21.3598 13.6364 21.3598C13.6364 21.3598 13.6364 17.7474 13.6364 17.5969C13.6364 16.2423 13.7869 15.0382 13.9374 14.5867C13.9374 14.4361 14.088 14.4361 14.088 14.4361V31.2937C14.088 31.2937 16.0446 31.2937 16.1951 29.1865C16.1951 29.1865 16.4962 21.3598 16.4962 21.2093C16.4962 21.0587 16.4962 21.0587 16.6467 21.0587C16.7972 21.0587 16.7972 21.2093 16.7972 21.2093C16.7972 21.3598 17.0982 29.1865 17.0982 29.1865C17.2487 31.2937 19.2054 31.2937 19.2054 31.2937V28.2834H23.2693V21.6608H22.5167ZM19.958 20.1557C19.8075 20.3062 19.657 20.6072 19.5064 20.7577V14.2856C19.5064 14.2856 19.657 14.2856 19.657 14.4361C19.8075 14.8877 19.958 16.0918 19.958 17.4464C19.958 17.5969 19.958 19.1021 19.958 20.1557ZM21.7641 21.6608H20.1085C20.1085 21.0587 20.4095 20.6072 20.8611 20.6072C21.3126 20.6072 21.7641 21.0587 21.7641 21.6608Z"/></svg>