<svg xmlns="http://www.w3.org/2000/svg" viewBox="0 0 56 56"><g id="stap_1_horeca_verplaatsen"><path d="M16.62,14.24c2.79-.35,4.18-2.79,3.84-5.58-.7-3.14-2.8-4.53-5.59-4.18A4.75,4.75,0,0,0,11,10.06C11.73,13.2,13.48,14.94,16.62,14.24Z"/><path d="M38.6,27.85c-2.45-2.79-3.49-2.79-7-1.75-2.09,1-4.19,1.75-6.28,2.8-1.4-4.89-2.79-9.07-2.79-9.07-2.44-6.63-10.82-4.19-9.77,1.74a127.44,127.44,0,0,0,3.49,13.6c.7,2.1,3.14,3.49,6.28,3.14C25,38,32.67,36.22,32.67,36.22s2.09,7.68,3.48,11.51c1.4,4.19,4.54,3.84,5.59,3.49L37.9,32.38a.34.34,0,0,1,.35.35c.69,1.75,3.49,7.68,3.49,7.68l.69.7c3.49,3.13,5.24,1.39,5.93.69C48,40.76,44.18,34.13,38.6,27.85Z"/><path d="M29.53,38.66s-3.14.7-7.33,1.4c-3.49.7-7-1.4-7.67-4.54L11.39,23.66a1.18,1.18,0,0,0-1.75-1c-.7,0-1.05.69-1.05,1.74l2.8,11.86a10.66,10.66,0,0,0,3.48,5.23L11.39,51.57h3.14l2.79-8.72a7.63,7.63,0,0,0,2.79.35,4.42,4.42,0,0,0,2.09-.35,1.29,1.29,0,0,0,1.05-.35l3.49,8.72h3.13L26,41.8c2.09-.35,3.49-.69,3.49-.69a1.34,1.34,0,0,0,1-1.75C30.92,39,30.22,38.66,29.53,38.66Z"/></g></svg>