<svg xmlns="http://www.w3.org/2000/svg" viewBox="0 0 56 56"><g id="stap_1_thuisbezoek"><path d="M51,27.08,28.59,5.86a.89.89,0,0,0-1.18,0L5,27.08a1.54,1.54,0,0,0-.59,1.17v1.48a.78.78,0,0,0,.89.88H9.14V50.36H46.86V30.61h3.83a.78.78,0,0,0,.89-.88V28.25A1.54,1.54,0,0,0,51,27.08ZM34.78,40.93h-13l-.59-3c.3-1.77,1.77-3.54,4.13-4.72l2.36-1.17c1.76-.89,2.35-1.48,2.35-2.66s-1.18-1.76-3.24-1.76c-.88.14-1.62.29-2.36.44s-1.47.29-2.35.44V25.31a15.4,15.4,0,0,1,5-.59c4.42,0,6.48,2.06,6.48,5,.29,2.36-1.18,4.12-3.83,5l-2.06.88a12,12,0,0,0-1.84,1.18c-.26.2-.52.39-.82.59h9.73Z"/></g></svg>