<svg focusable="false"  width="36" height="36" viewBox="0 0 36 36" fill="currentColor" xmlns="http://www.w3.org/2000/svg"><path d="M17.986 18.8652C17.483 18.8652 16.98 19.3682 16.98 19.8712C16.98 20.2065 17.1477 20.5418 17.483 20.7095V22.8891H18.8243V20.7095C18.992 20.5418 19.1596 20.2065 19.1596 19.8712C19.1596 19.3682 18.6566 18.8652 17.986 18.8652Z"/><path d="M19.9979 17.6915C19.9979 16.1825 19.1596 15.0088 18.1536 15.0088C17.1477 15.0088 16.3093 16.1825 16.1417 17.6915C16.98 17.6915 17.8183 17.6915 17.986 17.6915C18.3213 17.5238 19.1596 17.5238 19.9979 17.6915Z"/><path d="M29.5548 17.1886L18.3213 6.62575C18.1537 6.45808 17.8183 6.45808 17.6507 6.62575L6.58487 17.1886C6.41721 17.3562 6.24954 17.5239 6.24954 17.8592V18.5299C6.24954 18.8652 6.41721 19.0329 6.75253 19.0329H8.59683V28.925H27.3752V19.0329H29.2194C29.5548 19.0329 29.7224 18.8652 29.7224 18.5299V17.8592C29.8901 17.5239 29.7224 17.3562 29.5548 17.1886ZM21.3393 23.2244C21.3393 23.5598 21.0039 23.7274 20.6686 23.7274C19.6626 23.8951 18.1537 23.8951 17.8183 23.8951C17.483 23.8951 15.974 23.8951 15.1357 23.7274C14.968 23.7274 14.6327 23.5598 14.6327 23.2244C14.4651 22.3861 14.4651 21.0448 14.4651 20.7095C14.4651 20.3742 14.4651 19.0329 14.6327 18.1945C14.6327 17.8592 14.968 17.6915 15.3034 17.6915C15.3034 15.6796 16.477 14.1706 17.986 14.1706C19.3273 14.1706 20.5009 15.5119 20.6686 17.3562C20.6686 17.3562 20.6686 17.5239 20.5009 17.5239C20.3333 17.6915 20.1656 17.8592 19.8303 18.1945C19.6626 18.1945 19.495 18.3622 19.3273 18.5299C19.3273 18.5299 19.3273 18.5299 19.495 18.5299C19.6626 18.5299 20.1656 18.3622 20.8363 18.0269L21.0039 17.8592C21.1716 17.8592 21.3393 18.0269 21.3393 18.1945C21.5069 19.0329 21.5069 19.8712 21.5069 20.7095C21.5069 21.0448 21.5069 22.3861 21.3393 23.2244Z"/></svg>