<svg xmlns="http://www.w3.org/2000/svg" viewBox="0 0 56 56" fill="currentColor"><g id="stap_1_onderwijs_open"><path d="M51.45,20.32,41.53,6.24a1.76,1.76,0,0,0-1.6-1h-24a1.66,1.66,0,0,0-1.28.64L4.42,20.32c0,.32,0,.64.32.64h6.4L25.86,8.8a2.91,2.91,0,0,1,3.84,0L44.41,21h6.4C51.45,21,51.77,20.64,51.45,20.32Z"/><path d="M28.1,11.36,12.74,23.84H7.62V50.71H48.25V23.84H43.13ZM21.38,45H14V40.47h7.36Zm0-7.36H14V29.28h7.36ZM31.62,45H24.26V40.47h7.36Zm0-7.36H24.26V29.28h7.36ZM28.1,24.8A3.7,3.7,0,0,1,24.26,21a3.7,3.7,0,0,1,3.84-3.84A3.7,3.7,0,0,1,31.94,21,3.89,3.89,0,0,1,28.1,24.8ZM41.85,45H34.5V40.47h7.35Zm0-7.36H34.5V29.28h7.35Z"/></g></svg>