<svg xmlns="http://www.w3.org/2000/svg" viewBox="0 0 56 56"><g id="stap_1_onderwijs_bibliotheek"><path d="M49.58,10.78H46.26V7.46A1.57,1.57,0,0,0,44.6,5.8H18c-4.32,0-8.64,1.66-8.64,6v7.31c-2.65.66-5,2.32-5,5.64V46A4.4,4.4,0,0,0,8.74,50.3H27.67a1.57,1.57,0,0,0,1.66-1.66V26.39a1.57,1.57,0,0,0-1.66-1.66H9.4c-.33,0-.66-.33-.66-1,.66-1.32,3.32-1.66,4.32-1.66H32.65V47h5a1.57,1.57,0,0,0,1.66-1.66V13.44a1.56,1.56,0,0,0-1.66-1.66H14.39c-.34,0-.67-.33-.67-1C14.39,9.46,17,9.12,18,9.12h24.9V41.67H44.6A1.57,1.57,0,0,0,46.26,40V13.44h2.66V38.35h1a1.58,1.58,0,0,0,1.66-1.67V12.78A2.15,2.15,0,0,0,49.58,10.78Z"/></g></svg>