<svg xmlns="http://www.w3.org/2000/svg" viewBox="0 0 56 56" fill="currentColor"><g id="stopwatch"><rect x="21.6" y="37.48" width="13.2" height="3.77"/><path d="M28.2,4.48A23.57,23.57,0,1,0,51.78,28.05,23.59,23.59,0,0,0,28.2,4.48ZM41.63,40.14l-2.76-2.75-1.33,1.33,2.75,2.75a17.94,17.94,0,0,1-24.17,0l2.75-2.75-1.34-1.33-2.75,2.75A18,18,0,0,1,10.16,29h3.9V27.11h-3.9A18,18,0,0,1,14.79,16l2.74,2.75,1.34-1.34-2.75-2.74A18.06,18.06,0,0,1,27.26,10v3.91h1.89V10a18,18,0,0,1,11.13,4.64l-2.74,2.74,1.33,1.34L41.61,16a18,18,0,0,1,4.64,11.14h-3.9V29h3.9A18.09,18.09,0,0,1,41.63,40.14Z"/><path d="M28,34.24a3.29,3.29,0,0,0,3-2.6c.2-.94,2.71-14,2.71-14,.21-1.16-1-1.6-1.65-.57L26.7,26.21a3.56,3.56,0,0,1,3,1.32c.36.5.19.68.1.69h0a3.21,3.21,0,0,0-2.16-.7A3.36,3.36,0,0,0,28,34.24Z"/></g></svg>