<svg xmlns="http://www.w3.org/2000/svg" viewBox="0 0 56 56" fill="currentColor"><g id="taxi"><path d="M49.22,25.09a6.31,6.31,0,0,0,2-2.14A2.08,2.08,0,0,0,49.79,20a12.91,12.91,0,0,0-3.22.16c-.91-3.29-2.49-8.63-3.42-9.59S39.34,9,33.66,8.76V6.11a1,1,0,0,0-.94-1,62,62,0,0,0-9.44,0,1.06,1.06,0,0,0-.94,1V8.76c-5.67.22-8.52.84-9.49,1.85s-2.51,6.3-3.42,9.59A12,12,0,0,0,6.22,20,2.07,2.07,0,0,0,4.77,23a6.1,6.1,0,0,0,2,2.14C5,27.55,4.42,29.68,4.42,33.65V44.5a31.64,31.64,0,0,0,.45,5.28A1.7,1.7,0,0,0,6.56,51.1h6.1a1.7,1.7,0,0,0,1.69-1.32A25.49,25.49,0,0,0,14.76,46L9,44.84c-.3-.1-.25-.29-.24-.35H47.26c0,.06.06.25-.24.35L41.24,46a26.84,26.84,0,0,0,.4,3.79,1.72,1.72,0,0,0,1.7,1.32h6.1a1.7,1.7,0,0,0,1.69-1.32,31.73,31.73,0,0,0,.45-5.29V33.65C51.58,29.68,51,27.55,49.22,25.09Zm-33.57-12c.55-.28,4.61-.74,12.35-.74s11.81.47,12.36.74a66.83,66.83,0,0,1,2.8,9.41c-2.75.76-9,1.29-15.16,1.29s-12.4-.52-15.15-1.29A66.83,66.83,0,0,1,15.65,13.13Zm1.49,24.5h0l-5.55-.44a3.08,3.08,0,0,1-2.7-2.64L8.66,33a1.46,1.46,0,0,1,1.86-1.54L15,32.67a3.44,3.44,0,0,1,2,2.09l.61,2.29A.47.47,0,0,1,17.14,37.63Zm16.52,4H22.34V38.84H33.66Zm13.46-7.12a3.1,3.1,0,0,1-2.71,2.64l-5.55.44a.48.48,0,0,1-.52-.58L39,34.76a3.43,3.43,0,0,1,2-2.09l4.49-1.25A1.46,1.46,0,0,1,47.34,33Z"/></g></svg>