<svg viewBox="0 0 56 56" fill="currentColor" xmlns="http://www.w3.org/2000/svg"><g id="testbewijs"><path d="M19.19 13.66a3.74 3.74 0 0 1-1.07 4.21c-1.31 1.37-2.55 2.61-3.05 3.06a2 2 0 0 0-.62 2.66c4.33 8.55 10 13.49 18 18a2 2 0 0 0 2.67-.62c.44-.49 1.74-1.73 3.05-3.05a3.77 3.77 0 0 1 4.22-1.07l13.65 9.49a8.4 8.4 0 0 1-1.56 3.9c-.347.44-.718.86-1.11 1.26-.07.07-.13.14-.21.21a15.43 15.43 0 0 1-10.15 4.26c-7 .46-14-4.21-15-4.86C17.37 44.43 10.97 38.24 4.9 28c-.66-1-5.32-8-4.87-15A15.54 15.54 0 0 1 4.32 2.84l.21-.21c.49-.48.94-.84 1.27-1.11A6.67 6.67 0 0 1 9.71 0c.69-.02 9.48 13.66 9.48 13.66Z"/></g></svg>