<svg xmlns="http://www.w3.org/2000/svg" viewBox="0 0 56 56"><g id="testbewijs"><path d="M39.08,21.52l-.62-.45c-.29-.2-.65-.45-1.1-.78a11.33,11.33,0,0,1-2-1.73A4,4,0,0,1,35,17c0-.31-.08-.64-.14-1-.28-1.53-2.46-4.76-2.46-4.76.45-1.74-.91-7-9.61-4.68-6.64,1.77-9.5,5.27-10.73,8.12.82,0,1.64-.06,2.46-.06a56.13,56.13,0,0,1,8,.58,4.28,4.28,0,0,1,3.57,4.16V40.8h7.79a23.06,23.06,0,0,1-.39-4.34,7,7,0,0,1-3.76-1.38c-.43-.32-.36-.43-.32-.49l0,0a11.8,11.8,0,0,0,5.94.78c2-.18,3.23-1.33,2.67-3.71a2,2,0,0,1,.4-1.46,1.74,1.74,0,0,0,.11-.18c.33-.5.54-.83,0-1.48a4,4,0,0,0-.52-.56,2.66,2.66,0,0,0,.7-.95.86.86,0,0,0-.18-1,2.77,2.77,0,0,1-.28-.4,2.28,2.28,0,0,1-.3-1.05s.69-.59,1.18-1.11A1.15,1.15,0,0,0,39.08,21.52Z"/><path d="M51.44,33.83l-7.23-6.07a.74.74,0,0,0-.25-.69l-2.85-2.4a.77.77,0,0,0-1.06.09.76.76,0,0,0,.1,1.06L43,28.21a.7.7,0,0,0,.72.12L51,34.41a.38.38,0,0,0,.48-.58Z"/><path d="M13.24,35a1,1,0,0,0,.77.45h0a.91.91,0,0,0,.77-.44c2.82-4.46,4.49-7,4.49-7a.89.89,0,0,0-1.43-1.06l-3.91,4.4L11.36,29a.91.91,0,0,0-1.16,0,.89.89,0,0,0-.2,1.14S11.41,32.29,13.24,35Z"/><path d="M22.28,16.73a53.74,53.74,0,0,0-15.51,0,2.81,2.81,0,0,0-2.35,2.68v27.1a2.86,2.86,0,0,0,2.4,2.68,53.39,53.39,0,0,0,15.46,0,2.76,2.76,0,0,0,2.3-2.68V19.41A2.76,2.76,0,0,0,22.28,16.73ZM14.5,47.87a1.81,1.81,0,1,1,1.81-1.81A1.81,1.81,0,0,1,14.5,47.87Zm7.09-5.58H7.41V20.65H21.59Z"/></g></svg>