<svg viewBox="0 0 56 56" fill="#000" xmlns="http://www.w3.org/2000/svg">
    <path d="M37.1449 7H18.8335C17.8321 7 17.6175 8.73792 18.8335 9.1C19.4772 9.31725 20.3356 9.46208 20.9078 9.6069V9.89656V41.7587C20.9078 45.7413 24.1266 49 28.0607 49C31.9948 49 35.2136 45.7413 35.2136 41.7587V9.89656V9.67931C35.7857 9.53448 36.5727 9.31725 37.2878 9.17242C38.3609 8.73792 38.1463 7 37.1449 7ZM23.6974 9.89656H32.2809V21.4827H25.128H23.6974V9.89656ZM29.6343 40.8896C28.8475 43.2792 26.9878 44.8 25.5572 44.3656C24.1266 43.8587 23.6259 41.5413 24.4842 39.0792C25.0565 37.4138 26.1294 36.1827 27.2023 35.7483L30.4927 26.0448L32.3524 28.5792L29.6343 36.6173C30.135 37.631 30.2066 39.2242 29.6343 40.8896Z"/>
</svg>
