<svg xmlns="http://www.w3.org/2000/svg" viewBox="0 0 56 56"><g id="toegangsbewijzen"><path d="M8.34,19.26l-2.47-.73c-.27,0-.16-.29-.16-.29H17a.79.79,0,0,0,.78-.78V6.18a.33.33,0,0,1,.29.19l.73,2.47h13.1v2c1.32-.16,2.69-.27,4-.35V6.47a1.62,1.62,0,0,0-.47-1.11,1.65,1.65,0,0,0-1.11-.47H17.64a1.59,1.59,0,0,0-1.11.48L4.88,17a1.57,1.57,0,0,0-.46,1.1V42.59a1.53,1.53,0,0,0,.12.6,1.41,1.41,0,0,0,.35.51A1.57,1.57,0,0,0,5.4,44a1.61,1.61,0,0,0,.61.11H26.42V40.23H8.34Z"/><path d="M38.26,33.78l0,.17a1.1,1.1,0,0,0,.38.36,1.08,1.08,0,0,0,.5.15,1.11,1.11,0,0,0,.51-.14,1,1,0,0,0,.38-.37l5.23-8.25A1,1,0,0,0,45,24.33a1.14,1.14,0,0,0-.7-.26,1.1,1.1,0,0,0-.7.26l-4.57,5.16-3-2.69a1.07,1.07,0,0,0-1.35,0,1,1,0,0,0-.37.61,1,1,0,0,0,.13.71S36.11,30.64,38.26,33.78Z"/><path d="M50.8,13.71a3.2,3.2,0,0,0-1.91-1.09h0a62.58,62.58,0,0,0-18.13,0A3.31,3.31,0,0,0,28,15.77V47.43a3.41,3.41,0,0,0,.85,2.07,3.35,3.35,0,0,0,2,1.07,63.39,63.39,0,0,0,18,0,3.25,3.25,0,0,0,2.69-3.14V15.77A3.23,3.23,0,0,0,50.8,13.71Zm-9,34a2,2,0,0,1-.48.69,2.13,2.13,0,0,1-.7.44,2.21,2.21,0,0,1-.8.14h0a2.2,2.2,0,0,1-1.16-.36,2.1,2.1,0,0,1-.78-1,2.07,2.07,0,0,1-.11-1.23,2.11,2.11,0,0,1,1.68-1.66,2.17,2.17,0,0,1,1.23.14,2.12,2.12,0,0,1,.94.79,2.15,2.15,0,0,1,.35,1.19A2.11,2.11,0,0,1,41.77,47.74Zm6.69-5.15H31.17V17.46H48.46Z"/><rect x="20.91" y="15.87" width="5.5" height="2.36"/><rect x="16.99" y="23.74" width="9.43" height="2.36"/><rect x="11.49" y="23.74" width="3.92" height="2.36"/><rect x="16.99" y="28.44" width="9.43" height="2.36"/><rect x="11.49" y="28.44" width="3.92" height="2.36"/><rect x="11.49" y="33.14" width="3.92" height="2.36"/><rect x="16.99" y="33.14" width="9.43" height="2.36"/></g></svg>