<svg viewBox="0 0 37 36" fill="currentColor" xmlns="http://www.w3.org/2000/svg"><path d="M8.16687 13.268L9.37451 13.6224V23.8745H18.2089V25.791H8.23248C8.1314 25.7927 8.03098 25.7743 7.93708 25.7368C7.84319 25.6994 7.75772 25.6435 7.68563 25.5727C7.61353 25.5018 7.55626 25.4173 7.51718 25.3241C7.4781 25.2308 7.45799 25.1307 7.45801 25.0296V13.058C7.45809 12.8561 7.53834 12.6625 7.68114 12.5198L13.3782 6.83588C13.5196 6.68946 13.7129 6.60459 13.9164 6.59961H22.0419C22.2462 6.60299 22.4413 6.68564 22.5858 6.83015C22.7303 6.97467 22.813 7.16974 22.8164 7.37409V9.35621C22.1994 9.39559 21.5299 9.4481 20.8867 9.52686V8.52925H14.4809L14.1264 7.32157C14.087 7.22968 13.982 7.22967 13.982 7.22967V12.7429C13.982 12.8439 13.9419 12.9407 13.8705 13.0121C13.7991 13.0835 13.7023 13.1236 13.6013 13.1236H8.08807C8.08807 13.1236 8.0356 13.268 8.16687 13.268Z"/><path d="M24.1978 20.9796C24.1226 20.9363 24.0586 20.8757 24.0111 20.803L23.998 20.7242C22.9479 19.1884 22.1471 17.9545 22.1471 17.9545C22.0832 17.8518 22.0599 17.729 22.0817 17.61C22.1036 17.4911 22.169 17.3845 22.2653 17.3113C22.3573 17.2344 22.4735 17.1923 22.5934 17.1923C22.7134 17.1923 22.8295 17.2344 22.9216 17.3113L24.3918 18.624L26.6234 16.1036C26.7185 16.0223 26.8395 15.9775 26.9647 15.9775C27.0898 15.9775 27.2109 16.0223 27.306 16.1036C27.4088 16.1777 27.4796 16.2881 27.5039 16.4124C27.5283 16.5367 27.5045 16.6657 27.4372 16.7731L24.8775 20.803C24.8326 20.8781 24.7693 20.9405 24.6934 20.9842C24.6176 21.0278 24.5318 21.0513 24.4443 21.0524C24.3576 21.0479 24.2731 21.023 24.1978 20.9796Z"/><path fill-rule="evenodd" clip-rule="evenodd" d="M20.3088 10.38C23.2464 9.9469 26.2317 9.9469 29.1694 10.38H29.1956C29.5597 10.4415 29.8907 10.629 30.1306 10.9097C30.3705 11.1905 30.5042 11.5466 30.5083 11.9158V27.3924C30.5017 27.7609 30.3671 28.1157 30.1276 28.3959C29.8881 28.6761 29.5586 28.8643 29.1956 28.9282C26.2702 29.3482 23.2998 29.3482 20.3744 28.9282C20.0036 28.8686 19.6644 28.6836 19.4136 28.4041C19.1627 28.1246 19.0154 27.7675 18.9961 27.3924V11.9158C19.0076 11.5487 19.1439 11.1965 19.3825 10.9172C19.6212 10.638 19.9479 10.4485 20.3088 10.38ZM24.1813 27.9911C24.3521 28.1056 24.5531 28.1668 24.7587 28.1668H24.7325C24.8702 28.1721 25.0076 28.1496 25.1364 28.1005C25.2652 28.0514 25.3828 27.9768 25.4821 27.8812C25.5814 27.7856 25.6603 27.6709 25.7143 27.5441C25.7682 27.4172 25.7959 27.2808 25.7958 27.143C25.7984 26.9373 25.7398 26.7355 25.6274 26.5633C25.515 26.391 25.354 26.2561 25.1648 26.1756C24.9755 26.095 24.7666 26.0727 24.5646 26.1112C24.3626 26.1497 24.1766 26.2474 24.0302 26.3919C23.8839 26.5364 23.7838 26.7211 23.7427 26.9226C23.7016 27.1241 23.7214 27.3333 23.7995 27.5236C23.8776 27.7138 24.0105 27.8766 24.1813 27.9911ZM20.5319 25.0295H28.9856V12.7428H20.5319V25.0295Z"/><path d="M18.2086 11.9683H15.5176V13.1234H18.2086V11.9683Z"/><path d="M13.6016 15.8145H18.2091V16.9696H13.6016V15.8145Z"/><path d="M12.8267 15.8145H10.9102V16.9696H12.8267V15.8145Z"/><path d="M13.6016 18.1118H18.2091V19.267H13.6016V18.1118Z"/><path d="M12.8267 18.1118H10.9102V19.267H12.8267V18.1118Z"/><path d="M10.9102 20.4092H12.8267V21.5643H10.9102V20.4092Z"/><path d="M18.2091 20.4092H13.6016V21.5643H18.2091V20.4092Z"/></svg>
