<svg viewBox="0 0 56 56" fill="currentColor" xmlns="http://www.w3.org/2000/svg">
    <path
        d="M38.1748 43.1352C38.4726 45.1282 38.7566 47.0204 39.0545 48.9859C38.665 48.9859 38.3076 48.9859 37.9549 48.9859C37.0248 48.9859 36.0901 48.9951 35.1601 48.9951C34.033 48.9951 34.143 49.1326 34.1521 47.9505C34.1659 45.8338 34.175 43.7171 34.175 41.6004C34.175 41.4034 34.1246 41.1789 34.0193 41.0139C32.4294 38.5124 30.8259 36.0154 29.1994 33.468C29.0803 33.578 28.9703 33.6467 28.9108 33.7429C27.4401 36.0337 25.9602 38.3199 24.5216 40.6291C24.32 40.9544 24.2146 41.3988 24.21 41.7882C24.1871 44.0378 24.2008 46.2874 24.2146 48.5324C24.2146 48.876 24.1046 49.0043 23.7564 48.9997C19.972 48.9859 16.1922 48.9814 12.4078 48.9814C12.1191 48.9814 12 48.8943 12 48.5919C12.0092 46.2095 11.9908 43.8316 12.0229 41.4492C12.0229 41.1422 12.2199 40.7986 12.4123 40.5329C14.0617 38.2466 15.7249 35.9696 17.4155 33.7154C17.5987 33.4726 17.9973 33.2985 18.3181 33.271C19.0328 33.2069 19.7567 33.2481 20.5997 33.2481C20.5997 32.6616 20.5997 32.121 20.5997 31.585C20.6134 27.3149 20.6226 23.0448 20.6363 18.7748C20.6363 18.5503 20.6363 18.3212 20.6363 18.0967C20.6455 17.0292 20.6455 17.0063 21.7084 17.0292C22.0979 17.0383 22.2628 16.9009 22.4094 16.5481C23.5732 13.6983 24.7552 10.8577 25.9419 8.0217C26.0839 7.68266 26.2992 7.37111 26.4825 7.0504C26.5512 7.03207 26.6245 7.01833 26.6932 7C26.9315 7.38027 27.2201 7.73306 27.3942 8.14082C28.5534 10.8898 29.7034 13.6388 30.8213 16.4061C31.0183 16.8917 31.2565 17.0612 31.7788 17.0337C32.6997 16.9879 32.7272 17.0337 32.7318 17.9638C32.7456 19.5903 32.7318 21.2122 32.7501 22.8387C32.7547 23.3014 32.5852 23.4984 32.127 23.6038C30.3494 24.0024 29.0619 25.0241 28.306 26.6964C28.1869 26.9575 27.9303 27.1958 27.6783 27.3607C26.5054 28.1304 25.6899 29.1017 25.6853 30.5816C25.6853 31.3696 25.5891 32.176 26.2992 32.9549C26.2992 32.6937 26.3084 32.5517 26.2992 32.4097C26.1297 30.4808 27.1285 28.9551 28.9749 28.2862C29.1444 28.2221 29.346 28.0159 29.3781 27.8418C29.9141 25.2028 33.2541 23.8833 35.7053 25.4914C35.9756 25.6701 36.4246 25.6609 36.7728 25.6105C38.2985 25.386 39.7005 25.6105 40.6809 26.8796C41.1483 27.4844 41.3727 28.277 41.7255 28.9734C41.8401 29.2025 41.9775 29.4957 42.1883 29.592C45.2213 31.0397 45.5374 35.3465 43.155 37.4128C43.0405 37.5136 42.9488 37.8022 43.0084 37.9168C44.305 40.258 41.9684 43.8683 38.665 43.1856C38.5734 43.1673 38.4818 43.1673 38.1702 43.1398L38.1748 43.1352Z M26.9726 42.5488C28.3608 42.5488 29.6483 42.5397 30.9357 42.5672C31.0548 42.5672 31.261 42.8054 31.2656 42.9383C31.2931 43.8408 31.2656 44.748 31.2747 45.6506C31.2747 45.985 31.1556 46.1317 30.812 46.1317C29.6757 46.1317 28.5349 46.1546 27.3987 46.1408C27.2567 46.1408 26.9955 45.9438 26.9909 45.8338C26.9588 44.7663 26.9726 43.6942 26.9726 42.5534V42.5488Z" />
</svg>