<svg xmlns="http://www.w3.org/2000/svg" viewBox="0 0 56 56"><g id="travel"><path d="M29.23,10c2.27-1,3.66-2.38,3.5-3.41S30.45,4.52,26.91,6L21.65,8.29,13.08,5.18a.69.69,0,0,0-.51,0l-.71.31a.22.22,0,0,0-.07.36l4.51,4.72-.38.16c-1.91.82-3.5,1.61-4.79,2.32L5.82,10.35a.69.69,0,0,0-.58,0l-.68.29a.23.23,0,0,0-.08.36L8,15a10.4,10.4,0,0,0-.93.75.46.46,0,0,0,.21.81c2.38.36,7.09-.63,10.05-1.55l-2.18,7.64a.23.23,0,0,0,.31.27L17,22.27a.67.67,0,0,0,.3-.25l6.39-9.6Z"/><path d="M49.9,32.34a4.35,4.35,0,0,0,1.43-1.52,1.47,1.47,0,0,0-1-2.07,8.89,8.89,0,0,0-2.28.11c-.65-2.34-1.78-6.14-2.44-6.83-.89-.92-4-1.38-10.79-1.38S24.89,21.11,24,22c-.66.69-1.79,4.49-2.44,6.83a8.54,8.54,0,0,0-2.29-.11,1.47,1.47,0,0,0-1,2.07,4.31,4.31,0,0,0,1.44,1.52c-1.3,1.75-1.68,3.27-1.68,6.1v7.72a23.26,23.26,0,0,0,.31,3.76,1.23,1.23,0,0,0,1.21.94h4.34a1.23,1.23,0,0,0,1.21-.94,19.85,19.85,0,0,0,.29-2.7s-3.69-.84-4-.92-.35-.16-.31-.39H48.5c0,.23-.09.33-.31.39s-4,.92-4,.92a17.11,17.11,0,0,0,.29,2.7,1.21,1.21,0,0,0,1.2.94h4.34a1.21,1.21,0,0,0,1.21-.94,22.55,22.55,0,0,0,.32-3.76V38.44C51.58,35.61,51.2,34.09,49.9,32.34ZM26,23.83c.4-.2,3.29-.53,8.8-.53s8.41.33,8.8.53a46.58,46.58,0,0,1,2,6.7,51.58,51.58,0,0,1-10.79.91A51.58,51.58,0,0,1,24,30.53,47.9,47.9,0,0,1,26,23.83Zm1.07,17.44L23.11,41a2.22,2.22,0,0,1-1.93-1.88L21,38a1,1,0,0,1,1.33-1.1l3.2.89A2.41,2.41,0,0,1,27,39.23l.44,1.63A.34.34,0,0,1,27.06,41.27Zm11.42,2.22H31.11V41.85h7.37ZM48.56,38l-.16,1.13A2.21,2.21,0,0,1,46.48,41l-4,.31a.34.34,0,0,1-.37-.41l.44-1.63A2.41,2.41,0,0,1,44,37.74l3.2-.89A1,1,0,0,1,48.56,38Z"/></g></svg>