<svg width="56" height="56" viewBox="0 0 56 56" fill="#000" xmlns="http://www.w3.org/2000/svg">
    <path d="M49.5534 13.7481C48.3658 12.4721 43.046 6.75587 41.8586 5.47995C40.5998 4.12743 38.7529 5.90227 39.5691 7.4807C40.519 9.31809 41.0296 10.1729 41.0296 10.1729L36.6939 14.8316C36.6939 14.8316 37.4313 16.4097 38.7042 19.1746C38.8284 19.444 38.6822 19.5438 38.6365 19.5662C38.6365 19.5662 31.8129 12.2355 30.3647 10.6794C29.3914 9.63495 27.4329 11.2438 28.2905 12.8738C29.1288 14.4678 30.319 16.5778 30.319 16.5778L15.9935 31.9705C15.5246 32.4742 15.205 33.1158 15.0749 33.8144L13.5715 42.2698L5 51.8H7.88788L15.3052 44.1443L23.1981 42.5465C23.8516 42.408 24.452 42.0637 24.9228 41.5577L39.2451 26.1686C39.2451 26.1686 41.2086 27.4475 42.692 28.3483C44.2091 29.2697 45.7063 27.1654 44.7343 26.1195C43.2809 24.5581 41.4932 22.6371 39.6174 20.6217L45.1857 14.6387C45.1857 14.6387 45.9813 15.1872 47.6912 16.208C49.1603 17.0851 50.812 15.1006 49.5534 13.7481ZM33.6802 27.0013L31.3052 24.4495L30.1178 27.0013L31.899 28.9152L30.1178 30.8291L27.7429 28.2772L26.5553 30.8291L28.3365 32.7431L26.5553 34.6568L24.1803 32.1051L22.9929 34.657L24.7741 36.5707L22.9929 38.4847L18.8368 34.019L32.4928 19.3457L36.649 23.8116L33.6802 27.0013Z"/>
</svg>
