<svg aria-hidden="true" role="img" focusable="false"  viewBox="0 0 43 43" fill="none" xmlns="http://www.w3.org/2000/svg">
<path d="M40.0944 9.96138C39.1443 9.01121 34.8875 4.75441 33.9373 3.80425C32.9301 2.79704 31.4522 4.11875 32.1053 5.2942C32.8654 6.66247 33.274 7.29907 33.274 7.29907L29.8047 10.7684C29.8047 10.7684 30.3947 11.9435 31.4133 14.0025C31.5126 14.2031 31.3957 14.2774 31.359 14.2942C31.359 14.2942 25.8991 8.83505 24.7403 7.67626C23.9615 6.89844 22.3944 8.09652 23.0805 9.31047C23.7514 10.4974 24.7037 12.0686 24.7037 12.0686L13.2409 23.5314C12.8658 23.9066 12.61 24.3845 12.506 24.9047L11.303 31.2013L4.44434 38.2984H6.75512L12.6902 32.5972L19.0058 31.4074C19.5287 31.3042 20.0091 31.0478 20.3859 30.6711L31.846 19.2109C31.846 19.2109 33.4172 20.1633 34.6042 20.8342C35.8181 21.5203 37.0162 19.9532 36.2383 19.1744C35.0755 18.0115 33.6449 16.581 32.1441 15.0801L36.5995 10.6247C36.5995 10.6247 37.2361 11.0332 38.6044 11.7934C39.7799 12.4464 41.1016 10.9686 40.0944 9.96138ZM27.3933 19.831L25.4929 17.9307L24.5427 19.831L25.968 21.2563L24.5427 22.6815L22.6424 20.7812L21.6922 22.6815L23.1175 24.1068L21.6922 25.532L19.7918 23.6317L18.8417 25.5321L20.2669 26.9573L18.8417 28.3826L15.5161 25.057L26.4431 14.13L29.7687 17.4556L27.3933 19.831Z" fill="currentColor"/>
<path d="M35.3857 27.7709V41.2084" stroke="currentColor" stroke-width="2.6875"/>
<path d="M28.667 34.4897H42.1045" stroke="currentColor" stroke-width="2.6875"/>
</svg>
