<svg xmlns="http://www.w3.org/2000/svg" viewBox="0 0 56 56"><g id="vaccine_booster_third"><path d="M42.06,26.13c1.51.86,3-1.1,2-2.07L39,19l5.56-5.56s.8.51,2.5,1.45c1.47.82,3.12-1,1.86-2.28L41.23,4.87a1.49,1.49,0,0,0-2.29,1.86c1,1.71,1.46,2.5,1.46,2.5l-4.33,4.33,2,4c.12.25,0,.35-.07.37L29.74,9.7c-1-1-2.93.53-2.07,2s2,3.45,2,3.45L15.39,29.5a3.38,3.38,0,0,0-.92,1.71L13,39.08,4.4,47.94H7.29l7.41-7.12,7.88-1.49a3.36,3.36,0,0,0,1.73-.92l14.31-14.3S40.58,25.29,42.06,26.13Zm-9-1.25-2.38-2.37L29.5,24.88l1.78,1.78L29.5,28.44l-2.38-2.37-1.18,2.37,1.78,1.78L25.94,32l-2.37-2.37L22.38,32l1.78,1.78-1.78,1.78L18.23,31.4,31.87,17.76,36,21.91Z"/><polygon points="51.42 41.5 44.71 41.5 44.71 34.79 41.36 34.79 41.36 41.5 34.65 41.5 34.65 44.86 41.36 44.86 41.36 51.57 44.71 51.57 44.71 44.86 51.42 44.86 51.42 41.5"/></g></svg>