<svg xmlns="http://www.w3.org/2000/svg" viewBox="0 0 56 56"><g id="vaccinaties"><path d="M50.05,13.35c-1.18-1.28-6.5-7-7.69-8.27s-3.11.42-2.29,2c1,1.84,1.46,2.69,1.46,2.69l-4.34,4.66s.74,1.58,2,4.34c.13.27,0,.37-.06.4l-8.28-8.89c-1-1-2.93.56-2.07,2.19s2,3.71,2,3.71L16.49,31.57a3.78,3.78,0,0,0-.92,1.84l-1.5,8.46L5.5,51.4H8.39l7.42-7.66,7.89-1.59a3.34,3.34,0,0,0,1.72-1L39.75,25.77s2,1.28,3.44,2.18,3-1.18,2-2.23l-5.11-5.5,5.57-6s.79.55,2.5,1.57A1.56,1.56,0,0,0,50.05,13.35ZM34.18,26.6l-2.37-2.55L30.62,26.6l1.78,1.92-1.78,1.91-2.38-2.55-1.18,2.55,1.78,1.91-1.78,1.92-2.38-2.55-1.19,2.55,1.78,1.91-1.78,1.91-4.15-4.46L33,19l4.16,4.46Z"/></g></svg>