<?xml version="1.0" encoding="UTF-8"?>
<svg xmlns="http://www.w3.org/2000/svg" viewBox="0 0 56 56" fill="currentColor">
    <path d="M11.8,12.7C11.8,12.7,11.8,12.8,11.8,12.7c0,0.1,0,0.1,0,0.1l0.1,7.2c1.1-0.2,2.7-0.3,4.2-0.1L16,13.7l-1.9-0.1
	c-0.5-0.1-0.4-0.4-0.4-0.4c0,0,0,0,0.1,0c0.2,0,1.2,0,2.1-0.6c0,0,0,0,0,0l0,0c1.2-0.8,2-2.1,2-3.6c-0.1-2.3-2-4-4.3-3.9
	c-2.3,0.1-4.1,2-4,4.3C9.7,10.8,10.6,12.1,11.8,12.7z"/>
    <path d="M36.5,14.9c-1.7-1.5-4.3-1.4-5.9,0.2c-1.1,1.1-1.3,2.6-0.9,4c0,0,0,0,0,0c0,0,0,0-0.1,0l-3.2,3.3
	c0.9,0.6,2.1,1.7,3,2.8l2.5-2.6l-1.3-1.4c-0.3-0.4-0.1-0.6,0-0.6c0,0,0,0,0,0c0.2,0.2,0.8,0.8,1.9,1.1c0,0,0,0,0.1,0l0,0
	c1.4,0.3,2.9-0.1,4-1.2C38.3,19,38.2,16.4,36.5,14.9z"/>
    <path d="M45.6,34.8c-1.5,0.1-2.8,0.9-3.5,2.2c0,0,0,0,0,0c0,0,0,0-0.1,0l-7.2,0.1c0.2,1.1,0.3,2.7,0.1,4.1l6.2-0.1
	l0.1-1.8c0.1-0.4,0.4-0.4,0.4-0.4c0,0,0,0,0,0.1c0,0.2,0,1.2,0.6,2.1c0,0,0,0,0,0l0,0c0.8,1.2,2.1,2,3.7,2c2.3-0.1,4.1-2,4-4.3
	C49.8,36.5,47.9,34.7,45.6,34.8z"/>
    <path d="M31.6,35.4c-0.5-1.9-1.3-3.7-2.4-5.3c-0.8-1.2-1.7-2.5-4.2-4.2c-2.4-1.7-5.2-2.8-8.3-3.1c-2-0.2-3.1,0-4.1,0.2
	c-2,0.3-3.8,0.9-5.5,1.9v25.9h20.7l0.9-0.9c1.5-1.9,2.6-4,3.1-6.4C32.2,40.9,32.3,37.8,31.6,35.4z M11.5,28.2
	c0.4-1.1,1.7-1.6,2.8-1.1c1.1,0.4,1.6,1.7,1.2,2.7c-0.4,1.1-1.7,1.6-2.8,1.1C11.6,30.5,11.1,29.3,11.5,28.2z M20.1,41.3
	c-0.9,2.2-3.4,3.2-5.6,2.3c-2.2-0.9-3.3-3.3-2.4-5.5c0.9-2.2,3.4-3.2,5.6-2.3C19.9,36.7,20.9,39.1,20.1,41.3z M25.4,47.2
	c-0.4,1.1-1.7,1.6-2.8,1.2c-1.1-0.4-1.6-1.7-1.2-2.7c0.4-1.1,1.7-1.6,2.8-1.2C25.3,44.8,25.9,46.1,25.4,47.2z M26.6,36.4
	c-0.6,1.4-2.2,2.1-3.7,1.5c-1.5-0.6-2.2-2.2-1.6-3.6c0.6-1.4,2.2-2.1,3.7-1.5C26.5,33.4,27.2,35,26.6,36.4z"/>
</svg>