<?xml version="1.0" encoding="UTF-8"?>
<svg xmlns="http://www.w3.org/2000/svg" viewBox="0 0 56 56" fill="currentColor">
   <g id="varianten">
      <path d="M10.7,20.13A15.47,15.47,0,0,1,15.06,20L15,13.58,13,13.5c-.47-.07-.46-.37-.44-.47h.06a4.48,4.48,0,0,0,2.22-.63.05.05,0,0,0,0,0h0A4.31,4.31,0,1,0,8.27,8.89a4.23,4.23,0,0,0,2.33,3.63v0s0,0,0,.08Z" />
      <path d="M29,25.72a14.87,14.87,0,0,0-3.18-3l3.36-3.5.07-.05,0,0a4.24,4.24,0,0,1,1-4.2,4.41,4.41,0,0,1,6.16-.22,4.28,4.28,0,0,1,.23,6.09,4.38,4.38,0,0,1-4.17,1.24h0l0,0a4.47,4.47,0,0,1-2-1.1l0,0c-.08.05-.31.25,0,.63L31.65,23Z" />
      <path d="M34.73,42.36a14.75,14.75,0,0,0-.13-4.31l7.58-.12h.11a4.33,4.33,0,1,1,.17,4.27h0a.09.09,0,0,1,0,0A4.42,4.42,0,0,1,41.78,40v-.06c-.09,0-.4,0-.47.43l-.08,1.93Z" />
      <path d="M28.09,50.59l-.91,1H5.52V24.41a18,18,0,0,1,5.8-1.95,15.88,15.88,0,0,1,4.34-.17,17.72,17.72,0,0,1,8.75,3.21,15.5,15.5,0,0,1,4.39,4.42,17.59,17.59,0,0,1,2.52,5.51,19.55,19.55,0,0,1,.06,8.48A17.5,17.5,0,0,1,28.09,50.59ZM21.4,34a2.93,2.93,0,0,0,1.67,3.81,3,3,0,0,0,3.86-1.61,2.92,2.92,0,0,0-1.66-3.8A3,3,0,0,0,21.4,34Zm-9-3.54A2.19,2.19,0,1,1,14,26.4a2.18,2.18,0,0,1,1.25,2.85A2.24,2.24,0,0,1,12.37,30.46Zm9.05,15.36a2.19,2.19,0,0,0,1.25,2.86,2.24,2.24,0,0,0,2.9-1.2,2.21,2.21,0,0,0-1.25-2.86A2.23,2.23,0,0,0,21.42,45.82Zm-7.22-2a4.39,4.39,0,0,1-2.5-5.71,4.44,4.44,0,0,1,5.79-2.4A4.37,4.37,0,0,1,20,41.38,4.47,4.47,0,0,1,14.2,43.79Z" fill-rule="evenodd" />
   </g>
</svg>