<svg width="56" height="56" viewBox="0 0 56 56" fill="none" xmlns="http://www.w3.org/2000/svg">
<rect width="56" height="56" fill="white"/>
<path d="M13.7762 20.4774C14.8417 20.2995 16.3708 20.1661 17.7917 20.3599L17.7109 14.4386L15.9206 14.3602C15.4861 14.2947 15.4988 14.0185 15.5176 13.9348C15.5231 13.9337 15.5405 13.9333 15.5682 13.9326C15.7917 13.9273 16.6925 13.9059 17.6159 13.3524C17.6252 13.3485 17.6437 13.3407 17.6584 13.3237L17.6544 13.3145C18.8347 12.589 19.6124 11.2862 19.5596 9.8141C19.4837 7.62627 17.6185 5.92285 15.4024 6.0027C13.1862 6.08254 11.4568 7.92781 11.5327 10.1156C11.5854 11.5877 12.4487 12.826 13.6794 13.4653C13.6771 13.4771 13.6745 13.4878 13.6718 13.4986C13.6664 13.5201 13.661 13.5416 13.6592 13.5712L13.7762 20.4774Z" fill="black"/>
<path d="M30.6611 25.6231C29.7949 24.4918 28.6183 23.5164 27.7378 22.8969L30.8335 19.6703C30.856 19.6506 30.8751 19.6391 30.8944 19.6276C30.9039 19.6219 30.9135 19.6162 30.9234 19.6094C30.5101 18.2965 30.7848 16.8169 31.7995 15.7389C33.3094 14.1388 35.8509 14.044 37.4752 15.5381C39.0993 17.0321 39.2006 19.5414 37.6909 21.1415C36.676 22.2195 35.1952 22.5965 33.842 22.2839L33.8382 22.2932C33.8158 22.2949 33.7969 22.2875 33.7876 22.2837C32.7393 22.0291 32.087 21.4139 31.9251 21.2613C31.905 21.2424 31.8924 21.2305 31.8877 21.2275C31.8145 21.2736 31.6084 21.4598 31.8686 21.8104L33.0786 23.1181L30.6611 25.6231Z" fill="black"/>
<path d="M35.919 40.9597C36.1149 39.5538 35.9801 38.041 35.8003 36.9868L42.7803 36.8711C42.8103 36.8729 42.8321 36.8782 42.8536 36.8835C42.8645 36.8862 42.8754 36.8888 42.8874 36.8911C43.5335 35.6733 44.785 34.8192 46.2728 34.767C48.4841 34.6918 50.3491 36.403 50.4299 38.5958C50.5104 40.7884 48.7888 42.6339 46.5777 42.709C45.0897 42.7612 43.773 41.9918 43.0398 40.8239L43.0306 40.8279C43.0134 40.8134 43.0054 40.795 43.0014 40.7858C42.442 39.8723 42.4205 38.9809 42.4151 38.7599C42.4143 38.7324 42.414 38.7152 42.4128 38.7097C42.3282 38.6912 42.0491 38.6785 41.9829 39.1084L41.9037 40.8798L35.919 40.9597Z" fill="black"/>
<path fill-rule="evenodd" clip-rule="evenodd" d="M29.7976 48.5423L28.9569 49.4444H9V24.4208C10.653 23.5204 12.4587 22.9154 14.3465 22.6222C15.359 22.4647 16.4467 22.3019 18.3455 22.4649C21.339 22.7227 24.0922 23.7856 26.4052 25.4242C28.7799 27.1064 29.6567 28.3372 30.453 29.4949C31.5032 31.0215 32.2968 32.7336 32.7726 34.5704C33.3886 36.9496 33.3571 39.925 32.83 42.3859C32.269 44.6618 31.2218 46.7539 29.7976 48.5423ZM23.6353 33.2536C23.0761 34.6301 23.7642 36.2001 25.1723 36.7602C26.5804 37.3202 28.1751 36.6584 28.7345 35.2817C29.2936 33.9053 28.6054 32.3353 27.1974 31.7752C25.7893 31.2152 24.1945 31.877 23.6353 33.2536ZM15.3175 29.9889C14.2615 29.5688 13.7454 28.3913 14.1648 27.3588C14.5842 26.3263 15.7803 25.8299 16.8364 26.25C17.8924 26.6701 18.4085 27.8476 17.9891 28.8801C17.5697 29.9124 16.3736 30.4088 15.3175 29.9889ZM23.6495 44.1495C23.2301 45.1818 23.7462 46.3593 24.8023 46.7794C25.8583 47.1995 27.0544 46.7031 27.4738 45.6706C27.8932 44.6382 27.3771 43.4608 26.3211 43.0407C25.265 42.6206 24.0689 43.117 23.6495 44.1495ZM16.9981 42.275C14.886 41.4348 13.8538 39.0797 14.6927 37.015C15.5315 34.9501 17.9237 33.9573 20.0358 34.7974C22.1479 35.6374 23.1801 37.9925 22.3412 40.0572C21.5024 42.1222 19.1102 43.115 16.9981 42.275Z" fill="black"/>
</svg>
