<svg role="img" aria-hidden="true" focusable="false"  viewBox="0 0 32 32" fill="none" xmlns="http://www.w3.org/2000/svg"><path d="M14.905 11.547c1.071 0 1.667-.707 1.667-1.887 0-1.179-.596-1.886-1.667-1.886-1.19 0-1.786.825-1.786 1.886 0 1.18.714 1.887 1.786 1.887zM11.81 8.127c.833 0 1.309-.59 1.309-1.415 0-1.061-.476-1.533-1.31-1.533-.833 0-1.309.59-1.309 1.533 0 .944.476 1.415 1.31 1.415zM17.88 8.127c.834 0 1.31-.59 1.31-1.415 0-.943-.476-1.533-1.31-1.533-.832 0-1.309.59-1.309 1.533 0 .944.476 1.415 1.31 1.415zM21.095 11.547c.953 0 1.548-.59 1.548-1.65 0-.944-.476-1.652-1.548-1.652-.952 0-1.547.59-1.547 1.651 0 .944.595 1.651 1.547 1.651zM11.214 12.608c-.119 0-.238-.117-.476-.117-1.19-.354-3.095-.354-4.286 0-.476.117-.952.59-1.19 1.06C4.548 15.086 3 19.567 3 19.567c.12.118.238.118.476.118.12 1.415.714 7.547.714 7.783 0 .236.715.118.715-.118s-.476-6.25-.595-8.137c.119-.118.238-.236.357-.471.357-.708.595-1.534.833-2.123.238-.826.476-1.415.714-1.887.12 0 .12-.118.238-.118v12.854c.834 0 1.548-.472 1.667-1.533 0 0 .238-5.66.238-5.778 0-.118.12-.118.238-.118.12 0 .12.118.238.118 0 .118.238 5.778.238 5.778 0 1.061.596 1.533 1.667 1.533v-6.486c-.238-.354-.476-.707-.476-1.297-.357-2.005-.595-5.543.952-7.076zM19.429 14.142c0 .117 0 .117 0 0 .238.825.238 1.768.357 2.594l4.285 4.245c-.238-2.005-.714-2.83-.952-3.655a2.85 2.85 0 010-1.416c.12-.471.238-.825 0-1.768 0 0 .12.235.12.353.237.708.237 2.123 1.19 5.307.476 0 .952-.59.833-1.533-.238-1.18-.476-1.887-.595-2.712-.238-1.887-.834-2.713-1.905-3.066-.476-.236-.952-.236-1.548-.236-.476 0-1.071 0-1.547.236-.357.117-.715.236-.953.59.358.235.477.707.715 1.06 0 0 0 .118 0 0z" fill="#000"/><path d="M4.905 4l-.953.943 3.572 3.538c-.595.354-1.072.59-1.072.826 0 .235.358.235.715.353v.236c0 1.061.595 1.651 1.547 1.651.596 0 .953-.236 1.19-.59l2.025 2.005c-1.667 1.18-1.429 4.835-1.19 6.958.118 1.061.832 1.415 1.309 1.415v-2.948c0-1.297 0-2.477.357-3.302 0-.118.119-.118.119-.118v14.15c1.071 0 1.905-.589 2.024-1.768 0 0 .238-6.25.238-6.368 0-.118.119-.118.238-.118s.238.118.238.118c0 .118.238 6.368.238 6.368.12 1.18.952 1.769 2.024 1.769V18.387l.476.471v2.477c.476 0 1.19-.236 1.31-1.18l.476.472c-.238.59-.596.944-1.072 1.18v.59s.477.117 1.072.117l.119 5.189s1.19-.236 1.31-1.297c0 0 .118-2.595.118-4.01h.238l.12.118c0 1.297.119 3.774.119 3.774.119 1.179 1.31 1.415 1.31 1.415v-3.774l4.166 4.128.952-.944L4.905 4zM19.071 16.146c-.119-1.769-.595-3.302-1.904-3.655-.596-.118-1.31-.236-2.024-.236l3.928 3.891z" fill="#000"/></svg>
