<svg width="56" height="56" viewBox="0 0 56 56" fill="none" xmlns="http://www.w3.org/2000/svg">
<rect width="56" height="56" fill="white"/>
<path fill-rule="evenodd" clip-rule="evenodd" d="M32.6621 12.7687H52.1504C52.6196 12.7687 53 13.1587 53 13.6398V50.2305H30.6627C30.6488 49.8061 30.7234 47.7222 30.8119 45.2513C30.9516 41.3498 31.1259 36.4834 31.0407 35.6613C30.88 34.1082 29.9134 31.838 29.4176 30.6733C29.387 30.6015 29.3583 30.534 29.3315 30.471L29.3102 30.4216C28.6621 28.9157 27.6626 26.594 25.3946 25.8574C21.7625 24.6786 20.9813 28.009 20.7023 29.199C20.68 29.2935 20.661 29.3747 20.644 29.4389C20.1982 31.1251 20.1692 31.2413 20.1345 31.3559C20.1158 31.4174 20.0954 31.4785 20.0074 31.7833C19.7503 32.5159 19.2204 33.4068 18.6276 34.4032C18.1522 35.2023 17.6364 36.0694 17.1884 36.9774C17.0958 37.165 17.0934 37.4661 17.0934 37.4661C17.0934 37.4661 17.0964 38.3192 17.1394 39.5978C17.1672 40.4187 17.2143 41.4149 17.2644 42.474C17.2923 43.0645 17.3212 43.6747 17.3482 44.2851L17.623 50.2305H11.3679C11.3679 50.2305 12.7346 46.638 13.7346 40.5627C13.3765 40.6123 13.0138 40.6471 12.6423 40.6471C8.18454 40.6471 4.57089 36.9416 4.57089 32.3705C4.57089 31.1739 4.82365 30.0394 5.26946 29.0124C3.87062 27.6091 3 25.6545 3 23.4894C3 20.4695 4.69315 17.8609 7.15547 16.5888C7.13304 16.3504 7.11979 16.1091 7.11979 15.8647C7.11979 11.7489 10.3739 8.41262 14.3874 8.41262C14.5825 8.41262 14.7741 8.42708 14.9653 8.4425C16.2945 6.94543 18.2045 6 20.3346 6C23.4977 6 26.1815 8.07617 27.1799 10.9693C30.2393 12.2178 32.4048 15.2758 32.4048 18.8585C32.4048 19.4966 32.3306 20.1162 32.2005 20.7141C33.6149 22.2379 34.4884 24.2948 34.4884 26.5649C34.4884 27.7042 34.2661 28.7891 33.8694 29.7818C35.0341 28.2744 35.7345 26.3725 35.7345 24.2999C35.7345 22.6265 35.2731 21.0678 34.4858 19.7336C34.5087 19.4443 34.5289 19.154 34.5289 18.8585C34.5289 16.5931 33.8358 14.4963 32.6621 12.7687ZM19.157 22.22C19.5383 23.9985 20.7977 25.0092 22.518 24.6219C24.2376 24.2345 25 22.9233 24.5876 20.9974C24.5864 20.9916 24.5846 20.9862 24.5828 20.9805C24.5814 20.9757 24.5798 20.9707 24.5784 20.9655L24.5858 20.9641C24.5858 20.9641 24.1137 17.971 22.76 17.7825C21.4062 17.5943 16.5111 20.6782 16.6781 21.5352C16.7703 22.0081 17.9818 21.9082 18.7776 21.8426C18.8954 21.833 19.0042 21.8239 19.0988 21.8177C19.1041 21.8565 19.1087 21.8947 19.1133 21.9329C19.1245 22.0266 19.1357 22.1205 19.157 22.22ZM39.4059 42.3896H47.0526V34.5487H39.4059V42.3896ZM39.4059 27.5792H47.0526V19.7383H39.4059V27.5792Z" fill="black"/>
<path d="M22.9013 31.874C22.7458 32.3718 22.4063 33.3259 22.1354 33.7821C22.0566 33.9188 21.9734 34.0656 21.885 34.2216C21.3077 35.2399 20.5129 36.6416 19.3341 38.094C19.2601 38.1853 19.1685 38.2496 19.0748 38.3079C19.0823 38.6475 19.089 39.0709 19.0912 39.5572C19.0945 40.3773 19.0852 41.3731 19.0754 42.4316L19.0753 42.4332C19.0698 43.0255 19.0641 43.6375 19.0603 44.2493C19.0488 45.6412 19.0403 47.0314 19.0331 48.1907V48.1921C19.0281 49.0162 19.0237 49.7233 19.0195 50.2307H22.278L22.2974 49.6475C22.3971 46.6329 22.4501 45.032 22.6585 42.9755C22.8388 41.9459 23.707 40.1184 24.4155 38.627C24.7 38.0279 24.959 37.4826 25.1371 37.0656C24.5424 35.5513 23.6733 33.5783 22.9013 31.874Z" fill="black"/>
<path d="M24.9748 50.0686L24.9463 50.2305H28.0829L27.3362 41.5596C27.0155 42.1177 26.6992 42.6871 26.4433 43.2117C26.0334 44.0727 25.7788 45.5145 24.9748 50.0686Z" fill="black"/>
</svg>
