<svg xmlns="http://www.w3.org/2000/svg" viewBox="0 0 56 56" fill="currentColor"><g id="verpleeghuis"><path d="M32.4,13.52H50.78a.82.82,0,0,1,.8.83v34.5H30.51c0-.4.06-2.36.14-4.69.13-3.68.3-8.27.22-9a20.1,20.1,0,0,0-1.53-4.7l-.08-.19,0,0c-.62-1.42-1.56-3.61-3.7-4.3-3.42-1.11-4.16,2-4.42,3.15,0,.09,0,.16-.06.23-.42,1.59-.44,1.69-.48,1.8s0,.12-.12.41a15.45,15.45,0,0,1-1.3,2.47c-.45.75-.93,1.57-1.36,2.42a1.56,1.56,0,0,0-.09.47s0,.8.05,2c0,.77.07,1.71.12,2.71,0,.56.05,1.13.07,1.71l.26,5.6h-5.9a51.85,51.85,0,0,0,2.24-9.11,8.76,8.76,0,0,1-1,.08A7.72,7.72,0,0,1,5.9,32a8,8,0,0,1,.66-3.17A7.37,7.37,0,0,1,8.34,17.13q0-.35,0-.69a6.94,6.94,0,0,1,6.85-7l.55,0a6.74,6.74,0,0,1,5.06-2.3,6.87,6.87,0,0,1,6.46,4.69,8,8,0,0,1,4.92,7.44A8.45,8.45,0,0,1,32,21a8,8,0,0,1,2.16,5.51,8.26,8.26,0,0,1-.58,3,8.52,8.52,0,0,0,.58-9.48c0-.27,0-.54,0-.82A10.26,10.26,0,0,0,32.4,13.52ZM19.66,22.44c.36,1.67,1.55,2.63,3.17,2.26s2.34-1.6,2-3.42h0v0h0s-.45-2.82-1.72-3S17.17,21,17.32,21.79c.09.45,1.23.35,2,.29l.31,0a.45.45,0,0,0,0,.11C19.63,22.25,19.64,22.34,19.66,22.44Zm19.1,19H46v-7.4H38.76Zm0-14H46V20.1H38.76Z"/><path d="M23.19,31.54a11.65,11.65,0,0,1-.72,1.8l-.24.42a25.07,25.07,0,0,1-2.4,3.65,1.22,1.22,0,0,1-.25.2c0,.32,0,.72,0,1.18,0,.77,0,1.71,0,2.71h0c0,.56,0,1.14,0,1.71,0,1.32,0,2.63,0,3.72h0c0,.78,0,1.44,0,1.92H22.6l0-.55c.1-2.84.15-4.35.34-6.29a21.7,21.7,0,0,1,1.66-4.1c.27-.56.51-1.08.68-1.47C24.74,35,23.92,33.15,23.19,31.54Z"/><path d="M25.15,48.7l0,.15h3l-.71-8.17c-.3.52-.6,1.06-.84,1.55C26.15,43.05,25.91,44.41,25.15,48.7Z"/></g></svg>