<svg xmlns="http://www.w3.org/2000/svg" viewBox="0 0 56 56" fill="currentColor"><g id="vervoer_en_reizen_ov"><path d="M51,13.07c-1.1-2.23-3.86-7.25-4.68-7.81C45,4.7,39.72,4.42,35.86,4.42c-4.14,0-9.38.28-10.75.84-1.11.56-3.59,5.58-4.69,7.81a8.16,8.16,0,0,0-.55,2.51L20.69,34c.28,10.32,9.1,11.71,15.17,11.71S50.47,44.32,51,34l.55-18.42A8.16,8.16,0,0,0,51,13.07ZM35.86,8.33a2.51,2.51,0,1,1-2.48,2.51A2.48,2.48,0,0,1,35.86,8.33Zm-7.17,29a2.51,2.51,0,1,1,2.48-2.51A2.48,2.48,0,0,1,28.69,37.34Zm14.06,0a2.51,2.51,0,1,1,2.48-2.51A2.48,2.48,0,0,1,42.75,37.34ZM47.16,16.7l-2.75,8.65c0,.28-.28.55-.83.55h-16c-.28,0-.56-.27-.83-.55L24,16.7a1.2,1.2,0,0,1,1.11-1.12h21.5A.82.82,0,0,1,47.16,16.7Z"/><path d="M12.42,21.16a1.94,1.94,0,0,0,2.48-1.95c.28-1.67-.55-2.79-1.93-2.79-1.1-.56-1.93.56-2.2,1.95A2.13,2.13,0,0,0,12.42,21.16Z"/><path d="M15.18,27a7,7,0,0,1-.55-1.67,8.1,8.1,0,0,0-.55-1.68c-.28-.83-3-2.23-5-1.11a32,32,0,0,0-3.58,2.79,9.26,9.26,0,0,0-.83,2.23,9.8,9.8,0,0,0-.27,2.79A2.09,2.09,0,0,0,5.8,32.32c0-.27.09-.56.14-.85a17.48,17.48,0,0,1,1-4.17,8.6,8.6,0,0,1,1.65-1.4c-.05.24-.11.55-.18.91C8,28.54,7.46,31.35,7.46,32a2.89,2.89,0,0,0,1.1,2.23l1.66,2s0,.28-.28,0L8.29,35.11A18.9,18.9,0,0,1,6.91,39.3a12,12,0,0,1-1,1.53,11.94,11.94,0,0,0-1,1.53,2.62,2.62,0,0,0,.12,3,.8.8,0,0,1,.15.3c.55-.7,1.24-1.6,1.93-2.51s1.38-1.81,1.93-2.51A17,17,0,0,0,11,36.78l1.93,2,2.48,5.58a2.36,2.36,0,0,0,2.76,1.39c-.07-.22-.24-.85-.46-1.69-.62-2.4-1.68-6.48-2.3-7.51a12.7,12.7,0,0,0-1.37-2A11.71,11.71,0,0,1,12.7,32.6,8.75,8.75,0,0,1,13,29.08c.08-.33.15-.64.21-.94a7.66,7.66,0,0,0,1.66,2.66c.23.26.49.56.82,1a2.58,2.58,0,0,0,2.53.6l.23,0a21.78,21.78,0,0,0-1.78-2.18A5.07,5.07,0,0,1,15.18,27Z"/><path d="M44,46.64a23.63,23.63,0,0,1-2.89.75l.82,4.18h4.69l-1.38-5.3C44.85,46.37,44.44,46.5,44,46.64Z"/><path d="M26.48,46.27l-1.65,5.3h4.69l.82-4.18a22.24,22.24,0,0,1-2.4-.68C27.42,46.54,26.93,46.38,26.48,46.27Z"/></g></svg>