<svg xmlns="http://www.w3.org/2000/svg" viewBox="0 0 56 56"><g id="vervoer_en_reizen_buitenland"><path d="M7.4,4.42,4.82,7l8.59,8.6h-.62a3.73,3.73,0,0,0-3.48,3.49,134.47,134.47,0,0,0,0,21.8,3.75,3.75,0,0,0,3.48,3.49H42.2l6.23,6.23L51,48ZM20.64,28.68l-5.23-2.62,2.82-5.64,4.24,4.24Z"/><path d="M48.55,40.89a136.77,136.77,0,0,0,0-21.8,3.8,3.8,0,0,0-3.78-3.49h-9.3V12.11A3.53,3.53,0,0,0,32,8.62H25.59a3.53,3.53,0,0,0-3.49,3.49v2.94L48.45,41.4A3.84,3.84,0,0,0,48.55,40.89ZM32.27,15.6H25.59V12.11h6.68Z"/></g></svg>