<svg xmlns="http://www.w3.org/2000/svg" viewBox="0 0 56 56" fill="currentColor"><g id="vliegen"><path d="M51.16,16.26H48.29V12.43c0-.46-.38-.68-.84-.68s-.83.22-.83.68v3.83H33.7a.42.42,0,0,0-.38.46l1.59,15.84a.41.41,0,0,0,.41.38h3V51.28h8.34V34.65l-5.73-1.39c-.29-.09-.24-.27-.23-.32h8.92a.42.42,0,0,0,.41-.38l1.58-15.85A.4.4,0,0,0,51.16,16.26Zm-4,10.84H37.69L37,20.42H47.87Z"/><path d="M25.35,5.55l-1.23.52h0L20.45,7.65l-8-2.9a.64.64,0,0,0-.47,0l-.66.29-.07,0a.22.22,0,0,0,0,.3l4.2,4.39-.12.05a50.29,50.29,0,0,0-4.68,2.25L5.72,9.56a.68.68,0,0,0-.54,0l-.63.27-.06,0a.22.22,0,0,0,0,.3l3.3,3.72a8.67,8.67,0,0,0-.86.69.43.43,0,0,0,.19.76c2.21.33,6.6-.59,9.35-1.45l-2,7.12a.22.22,0,0,0,0,.14.21.21,0,0,0,.28.11l1.38-.59a.7.7,0,0,0,.28-.23l5.94-8.93,1.95-.84L27.5,9.27c2.11-.91,3.41-2.21,3.26-3.17S28.64,4.14,25.35,5.55Z"/></g></svg>