<svg viewBox="0 0 56 56"  fill="currentColor" xmlns="http://www.w3.org/2000/svg">
<g id="elderly-people">
<path d="M29.1495 17.9535C31.0602 17.9535 32.1643 16.5361 32.1643 14.4939C32.1643 12.1688 31.0091 10.9225 29.1495 10.9225C27.1876 10.9225 26.1328 12.3957 26.1328 14.4939C26.1328 16.7055 27.2387 17.9535 29.1495 17.9535ZM47.7531 30.7483C47.3479 28.4582 46.8443 27.2066 46.6618 25.6164C46.2548 22.0957 45.231 20.4043 43.3221 19.7881C42.4346 19.4981 41.5024 19.3535 40.5646 19.3604H40.5281C39.5426 19.3604 38.6776 19.4948 37.7687 19.7881C37.1417 19.985 36.5798 20.3359 36.1391 20.8057C36.5953 21.4778 36.9384 22.2737 37.1921 23.1517L37.2523 23.0348L37.2158 23.225C38.11 26.3949 37.8673 30.572 37.6903 33.5464C37.5844 35.3897 36.6537 36.4842 35.5697 36.9432C35.5551 37.3185 35.5441 37.7043 35.5441 38.118C35.5441 38.118 36.411 38.2978 37.5279 38.3449L37.6684 48.1898C37.6684 48.1898 39.8218 47.8441 39.9678 45.6325C39.9678 45.6325 40.1503 40.6822 40.2343 38.1546C40.3438 38.1372 40.4533 38.1197 40.5628 38.0988L40.8493 38.0517C40.9332 40.5216 41.1175 45.5697 41.1175 45.5697C41.227 47.8476 43.4243 48.188 43.4243 48.188L43.5593 38.0098C44.5795 38.111 45.5485 38.2856 45.5485 38.2856C45.5485 32.9023 44.1871 30.7536 43.7601 29.0674C43.5356 28.1702 43.5831 27.2311 43.7875 26.3339C43.9827 25.4908 44.2309 24.7035 43.8404 23.0348C43.8404 23.0348 44.0466 23.4136 44.1287 23.6579C44.585 25.023 44.4517 27.6587 46.2968 33.7367C47.0998 33.6285 48.0852 32.6108 47.7531 30.7483Z"/>
<path d="M36.6852 33.5446C36.9462 29.083 37.4371 21.0675 33.267 19.8893C30.8818 19.2155 27.7246 19.1561 25.0328 19.8893C20.8537 21.0273 21.3519 29.083 21.6129 33.5429C21.7333 35.5712 23.0819 36.1455 23.9725 36.1455V30.6575C23.9725 28.2137 24.0072 25.9061 24.5145 24.4888C24.6021 24.2444 24.739 24.2147 24.7919 24.2793V51C26.657 51 28.1444 49.9247 28.3031 47.7638L28.7959 35.7719C28.8014 35.6323 28.9291 35.4472 29.1499 35.4472C29.3689 35.4472 29.4967 35.6305 29.5021 35.7737L29.9949 47.7655C30.1555 49.9335 31.6556 51 33.5061 51V24.281C33.5901 24.2042 33.7105 24.2287 33.7835 24.4888C34.1868 25.9288 34.3273 28.2347 34.3273 30.6575V36.1455C35.2161 36.1455 36.5666 35.5712 36.6852 33.5446ZM23.7864 11.6259C25.2719 11.6259 26.1333 10.4913 26.1333 8.85745C26.1333 6.99845 25.2336 6 23.7864 6C22.2625 6 21.4395 7.17998 21.4395 8.85745C21.4395 10.6274 22.3009 11.6259 23.7864 11.6259ZM34.5117 11.6259C35.9972 11.6259 36.8586 10.4913 36.8586 8.85745C36.8586 6.99845 35.9588 6 34.5117 6C32.9878 6 32.1648 7.17998 32.1648 8.85745C32.1648 10.6274 33.0261 11.6259 34.5117 11.6259ZM40.211 17.9535C41.9082 17.9535 42.89 16.8311 42.89 14.8412C42.89 12.9525 41.952 11.6259 40.2092 11.6259C38.5558 11.6259 37.5265 12.7483 37.5265 14.8412C37.5265 16.6775 38.512 17.9535 40.2092 17.9535H40.211Z"/>
<path d="M22.5997 20.1232C22.374 19.9951 22.1333 19.8931 21.8825 19.8195C19.7655 19.212 16.2725 19.212 14.2359 19.8195C13.2212 20.1214 12.4584 20.8633 11.9821 21.9054C10.7192 24.6773 8 33.1641 8 33.1641C8.1679 33.2898 8.45989 33.3177 8.79203 33.2758C9.0457 36.0076 10.1279 47.6713 10.179 48.1059C10.2283 48.5126 11.5404 48.3782 11.4984 47.9401C11.4565 47.4828 10.6918 36.1525 10.4473 32.5095C10.7028 32.2774 10.9218 31.9998 11.0495 31.6752C11.5824 30.3485 12.1627 28.8421 12.5551 27.6901C13.0588 26.1994 13.3873 25.1207 13.8143 24.1606C13.9056 23.9546 13.9932 23.829 14.0881 23.918V48.1897C15.6666 48.1897 16.8291 47.1878 16.9751 45.2136L17.4277 34.2847C17.4315 34.2031 17.4682 34.126 17.5302 34.0697C17.5921 34.0134 17.6744 33.9822 17.7599 33.9828C17.9734 33.9828 18.0738 34.1538 18.0792 34.2847L18.53 45.2328C18.6359 47.1389 19.6487 48.1897 21.4408 48.1897V35.9674C20.9882 35.3949 20.6762 34.6286 20.6159 33.6214C20.3787 29.6538 19.959 22.951 22.6015 20.1249L22.5997 20.1232ZM15.4349 14.4205C15.4239 14.5601 15.4075 14.6946 15.4075 14.8394C15.4075 16.8293 16.3912 17.9535 18.0902 17.9535C19.7874 17.9535 20.7692 16.6775 20.7692 14.8412C20.7692 13.7624 20.6597 12.0762 19.6925 11.7079C19.2582 11.5421 18.4023 11.6521 17.4788 11.8965C17.4715 11.8965 17.4661 11.8999 17.4588 11.9017C15.8017 12.3433 14.0789 13.2213 14.0698 13.7624C14.0625 14.2704 14.7615 14.3035 15.4349 14.4205Z"/>
</g>
</svg>
