<svg xmlns="http://www.w3.org/2000/svg" viewBox="0 0 56 56"><g id="warning"><path d="M51.11,44.5l-21-35.65a2.7,2.7,0,0,0-1-.94,2.64,2.64,0,0,0-1.29-.34h0a2.63,2.63,0,0,0-2.25,1.3L4.88,44.51a2.61,2.61,0,0,0,0,2.61,2.65,2.65,0,0,0,1,1,2.62,2.62,0,0,0,1.31.35H48.86a2.62,2.62,0,0,0,1.31-.35,2.61,2.61,0,0,0,1.3-2.28A2.57,2.57,0,0,0,51.11,44.5ZM11.67,43.21,27.84,15.34,44.29,43.21Z"/><path d="M28,36.28a2,2,0,0,0-2,2.16,1.87,1.87,0,0,0,2,2.11,1.93,1.93,0,0,0,2-2.11A1.9,1.9,0,0,0,28,36.28Z"/><polygon points="26.38 35.39 29.59 35.31 29.59 31.06 29.9 22.6 26.38 22.91 26.38 35.39"/></g></svg>