<svg xmlns="http://www.w3.org/2000/svg" viewBox="0 0 56 56"><g id="warn"><path d="M28,4.42A23.46,23.46,0,1,0,51.44,27.88,23.49,23.49,0,0,0,28,4.42Zm0,45.24A21.79,21.79,0,1,1,49.76,27.88,21.81,21.81,0,0,1,28,49.66Z"/><path d="M29.94,35.49a1.73,1.73,0,0,0-.65-.45l0,0L29.17,35l0,0a2.42,2.42,0,0,0-.76-.12h-.05a2.29,2.29,0,0,0-.94.19,1.73,1.73,0,0,0-.72.45l0,0a2.1,2.1,0,0,0-.42.72v0a3.18,3.18,0,0,0-.11.92,2.79,2.79,0,0,0,.15.93,2.24,2.24,0,0,0,.42.72l0,0a2.27,2.27,0,0,0,.68.42h0a2.73,2.73,0,0,0,.92.14h.06a2.24,2.24,0,0,0,.73-.12h.05l0,0h.11l0,0a1.61,1.61,0,0,0,.63-.43,2.15,2.15,0,0,0,.46-.73,2.79,2.79,0,0,0,.15-.9,3.06,3.06,0,0,0-.15-1A1.62,1.62,0,0,0,29.94,35.49Z"/><polygon points="26.8 33.3 29.67 33.15 29.9 33.14 30.14 16.57 30.14 16.32 26.59 16.32 26.8 33.04 26.8 33.3"/></g></svg>