<svg role="img" aria-hidden="true" ocusable="false" width="32" height="32" fill="currentColor" viewBox="0 0 32 32" xmlns="http://www.w3.org/2000/svg">
  
  <path d="M9.373 6.168c.819 0 1.753-.701 1.52-1.636-.117-.818-.935-1.286-1.286-2.454-.117-.117-.117-.117-.233-.117 0 0-.117 0-.117.117-.35 1.168-1.169 1.636-1.286 2.454-.234.935.584 1.636 1.402 1.636zM8.556 9.206c-.234-.818-.935-1.285-1.403-2.454 0-.117-.117-.117-.117-.117-.117 0-.117 0-.117.117-.35 1.169-1.168 1.636-1.285 2.454-.234.935.584 1.636 1.402 1.636s1.636-.7 1.52-1.636zM11.828 10.842c.818 0 1.636-.7 1.519-1.636-.234-.818-1.052-1.285-1.403-2.454 0-.117-.116-.117-.116-.117-.117 0-.117 0-.234.117-.35 1.169-1.169 1.636-1.286 2.454-.233.935.585 1.636 1.52 1.636z" fill="currentColor"/>
  <path d="M25.967 17.036c.468-4.44-4.207-5.96-6.427-7.245a21.102 21.102 0 01-3.155-2.104c-.468-.35-.818-.35-1.052 0-.35.35-.35.935.35 1.636.702.818 1.403 1.402 2.455 1.987.467.35.35 1.168-.234 1.168-4.44.117-7.479.117-9.115.117-.467 0-.935.468-.935.935 0 .468.35.935.935.935h.818c.35-.35.818-.584 1.286-.584.467 0 .934.233 1.285.467.35-.35.935-.467 1.52-.467a2.344 2.344 0 012.336 2.337v.233c.234-.116.468-.116.701-.116.234 0 .468 0 .702.116-.234-.116-.234-.35-.234-.584a2.344 2.344 0 012.337-2.337 2.344 2.344 0 012.337 2.337v.234a2.726 2.726 0 011.52 2.454c0 .584-.234 1.169-.468 1.52-.467-.585-.818-1.17-1.169-1.637-.584-.935-1.168-1.87-1.87-3.272-.233-.584-.584-.701-.934-.584-.35.117-.584.7-.35 1.636.233 1.052.7 1.87 1.285 2.921.35.468-.234 1.169-.818.935-1.052-.584-1.286-.584-2.338-1.169l-5.726-2.92c-.467-.235-1.051 0-1.168.466-.234.468 0 1.052.35 1.286 0 0 5.726 2.921 5.843 3.038v.35c0 .118-.116.351-.35.351 0 0-.117 0-.234-.116l-6.778-3.273c-.467-.233-1.051 0-1.168.468-.234.467 0 1.052.35 1.285l6.778 3.39c.234 0 .35.233.234.35-.117.117-.234.234-.468.117l-5.843-2.922c-.467-.233-1.051 0-1.168.468-.234.467 0 1.051.35 1.285l6.428 3.272c.233.117.233.234.233.35 0 .118-.233.235-.35.118l-4.324-2.104c-.35-.234-.935 0-1.052.35-.233.351 0 .936.35 1.053 0 0 3.974 2.103 5.026 2.687 1.402.701 3.272 1.636 5.258 1.87 1.987.35 3.39-.117 4.792-2.337 1.636-2.454.7-4.908-.585-6.778 1.403-.584 2.22-1.636 2.454-3.973z" fill="currentColor"/>
</svg>
