<svg xmlns="http://www.w3.org/2000/svg" viewBox="0 0 56 56"><g id="winkelen_en_boodschappen_open"><path d="M18.33,34.85H44.08s3,.34,3.68-3.68c.67-3.34,2.34-18.05,2.34-18.05a2.62,2.62,0,0,0-2.68-2.68H16.33L16,6.76a2.58,2.58,0,0,0-2.67-2.34H8a2.16,2.16,0,0,0-2,2C6,8.77,10,9.1,12.65,9.1l3,21.74a5.65,5.65,0,0,0-4,5.68c0,3.68,2,6.69,6.35,6.69H45.08c2.34,0,2.34-3.68,0-3.68,0,0-14.37-.33-26.75-.67a1.88,1.88,0,0,1-2-2A1.77,1.77,0,0,1,18.33,34.85Zm6.36-4H19.34l-1-6.69h6.36Zm14.38-17h7.35l-1.34,9.36a.33.33,0,0,1-.33-.34c-.33-1.33-.67-2.34-.67-2.34h-5Zm0,10.36h5.68l-1,6.69H39.07ZM28.7,13.79h6.69v9.36a.33.33,0,0,1-.34-.34,8.55,8.55,0,0,1-1-2.34H28.7Zm0,10.36h6.69v6.69H28.7ZM25,13.79v9.36a.33.33,0,0,1-.33-.34,8.75,8.75,0,0,1-1-2.34H18l-1-6.68Z"/><path d="M17.33,44.21A3.68,3.68,0,1,0,21,47.89,3.72,3.72,0,0,0,17.33,44.21Z"/><path d="M42.07,44.21a3.68,3.68,0,1,0,3.68,3.68A3.71,3.71,0,0,0,42.07,44.21Z"/></g></svg>