<svg xmlns="http://www.w3.org/2000/svg" viewBox="0 0 56 56"><g id="winkelen_en_boodschappen_alcohol"><path d="M33.72,34.48,47.44,48.2l2.45-2.45L8.56,4.42,6.11,6.88,16.93,17.7A29.8,29.8,0,0,0,17.47,27a11.92,11.92,0,0,0,9.08,8.33V48.58a58.4,58.4,0,0,0-5.9.77,1,1,0,0,0-.64.4,1.1,1.1,0,0,0,0,1.42,1.14,1.14,0,0,0,.64.4H37a1.2,1.2,0,0,0,.65-.4,1.13,1.13,0,0,0,0-1.42,1.09,1.09,0,0,0-.65-.4,58.4,58.4,0,0,0-5.9-.77V35.34A11.89,11.89,0,0,0,33.72,34.48ZM25,31.64a8.48,8.48,0,0,1-4.79-5.53,25.22,25.22,0,0,1-.63-5.73l1.88,1.88a16.62,16.62,0,0,0,1.8,6.31,10,10,0,0,0,2.64,3.07S25.94,32.09,25,31.64Z"/><path d="M21.42,11a48.27,48.27,0,0,1,7.41-.45,50.06,50.06,0,0,1,7.33.58,29.61,29.61,0,0,1,1.48,5.54H24.08L38.26,30.83A11.84,11.84,0,0,0,40.18,27,29.51,29.51,0,0,0,38.62,9.35a1.68,1.68,0,0,0-.49-.63,1.77,1.77,0,0,0-.73-.35,52.41,52.41,0,0,0-8.57-.77,52.43,52.43,0,0,0-8.58.77,1.79,1.79,0,0,0-.72.35,1.82,1.82,0,0,0-.5.63c-.22.54-.43,1.09-.62,1.64l2.24,2.23C20.87,12.47,21.13,11.73,21.42,11Z"/></g></svg>