<svg width="56" height="56" viewBox="0 0 56 56" fill="none" xmlns="http://www.w3.org/2000/svg">
<rect width="56" height="56" fill="white"/>
<path d="M25.3382 12.1771H22.311C21.8948 12.1771 21.5542 11.8209 21.5542 11.3856V8.21959C21.5542 7.78427 21.8948 7.4281 22.311 7.4281H25.3382V4.26211C25.3382 3.82679 25.6788 3.47063 26.095 3.47063H29.1222C29.5385 3.47063 29.879 3.82679 29.879 4.26211V7.4281H32.9062C33.3224 7.4281 33.663 7.78427 33.663 8.21959V11.3856C33.663 11.8209 33.3224 12.1771 32.9062 12.1771H29.879V15.343C29.879 15.7783 29.5385 16.1345 29.1222 16.1345H26.095C25.6788 16.1345 25.3382 15.7783 25.3382 15.343V12.1771Z" fill="black"/>
<path fill-rule="evenodd" clip-rule="evenodd" d="M13.998 17.7037H41.243C41.6592 17.7037 41.9998 18.0598 41.9998 18.4953V52.5294H34.4317V45.4059L31.4045 46.1974V52.5294H23.8365V45.4059L20.8093 46.1974V52.5294H13.2412V18.4953C13.2412 18.0598 13.5818 17.7037 13.998 17.7037ZM29.8909 23.2441H25.3501V27.993H29.8909V23.2441ZM29.8909 31.159H25.3501V35.9081H29.8909V31.159ZM22.3229 23.2441H17.782V27.993H22.3229V23.2441ZM22.3229 31.159H17.782V35.9081H22.3229V31.159ZM19.2956 43.823H35.9454V40.657H19.2956V43.823ZM32.9181 35.9081H37.4589V31.159H32.9181V35.9081ZM32.9181 27.993H37.4589V23.2441H32.9181V27.993Z" fill="black"/>
</svg>
