<svg xmlns="http://www.w3.org/2000/svg" viewBox="0 0 56 56" fill="currentColor"><g id="ziekenhuis"><path d="M23.4,12.79h2.9v3a.74.74,0,0,0,.72.76h2.9a.75.75,0,0,0,.72-.76v-3h2.89a.75.75,0,0,0,.73-.76V9a.75.75,0,0,0-.73-.76H30.64V5.18a.75.75,0,0,0-.72-.76H27a.74.74,0,0,0-.72.76V8.23H23.4a.74.74,0,0,0-.72.76v3A.74.74,0,0,0,23.4,12.79Z"/><path d="M41.51,18.1H15.45a.74.74,0,0,0-.72.76V51.57H22V45.49l2.89-.76v6.84H32.1V45.49l2.9-.76v6.84h7.24V18.86A.75.75,0,0,0,41.51,18.1Zm-15.2,5.33h4.34V28H26.31Zm0,7.61h4.34V35.6H26.31Zm-7.24-7.61h4.34V28H19.07Zm0,7.61h4.34V35.6H19.07ZM36.44,43.2H20.52v-3H36.44Zm1.45-7.6H33.55V31h4.34Zm0-7.61H33.55V23.43h4.34Z"/></g></svg>