<svg xmlns="http://www.w3.org/2000/svg" viewBox="0 0 56 56"><g id="ziektegolf"><path d="M38.55,38.67a1.63,1.63,0,1,0-1.63,1.65A1.63,1.63,0,0,0,38.55,38.67Zm1.86,5.63A1.63,1.63,0,1,0,38.78,46,1.63,1.63,0,0,0,40.41,44.3ZM36.9,32.12a1.48,1.48,0,0,0,1-1.84L35,24c0-.66.6-1.75.67-2.3a32,32,0,0,0-.06-6.14c2.24-2.36,2.26-5.05.52-7.11-2-2.37-10.8-5.21-18.36-3.57-8,1.74-9.31,9.07-9.19,13,.14,4.56,2.68,11.64,1.67,16.18-.45,2-5.84,12-5.84,12H23.3V43l-3.78-4.12a.37.37,0,0,1,0-.51s5.74,3.07,7.83,4,3-.47,3.61-1.82c.37-.76.75-.66,1.32-.94s.2-1.8-.2-2.5-.56-.72-.56-.72a4.46,4.46,0,0,0,1.79-.22,1.15,1.15,0,0,0,.87-1.34,3,3,0,0,1,.11-2.23Zm8.16,4.68a1.63,1.63,0,1,0-1.62,1.64A1.63,1.63,0,0,0,45.06,36.8ZM50,33.28a1.64,1.64,0,1,0,1.63,1.64A1.63,1.63,0,0,0,50,33.28Zm-9.31,15a1.65,1.65,0,1,0,1.63,1.64A1.62,1.62,0,0,0,40.64,48.29Zm4.6-7.35a1.65,1.65,0,1,0,1.63,1.65A1.64,1.64,0,0,0,45.24,40.94Z"/></g></svg>