<svg width="25" height="36" viewBox="0 0 25 36" fill="currentColor" xmlns="http://www.w3.org/2000/svg" focusable="false">
	<path d="M16.5829 12.8743C12.8197 10.9051 8.09619 12.3837 6 16.0921L12.9595 20.1878L18.6248 26C19.237 25.402 19.7737 24.7024 20.1612 23.9272C22.1479 19.9556 20.4664 14.9064 16.5829 12.8743Z" fill="currentColor" />
	<path d="M5.39518 7.65903C5.39182 7.92754 5.38835 8.18854 5.38488 8.43722L5.3791 8.86902C5.38404 8.99348 5.54629 9.05149 5.656 8.97429C5.98944 8.74596 6.34967 8.49236 6.65043 8.20554C7.04334 8.35947 7.47766 8.46101 7.87646 8.54851C8.00855 8.57939 8.13529 8.46569 8.08999 8.34918C7.93636 8.00809 7.76728 7.6319 7.59031 7.23792C7.83306 6.88654 8.07045 6.52438 8.26643 6.20948C8.33169 6.10373 8.25277 5.95073 8.12215 5.94652C7.73848 5.93716 7.28462 5.95401 6.86596 5.98676L6.56131 5.60326C6.41808 5.423 6.27895 5.24799 6.13761 5.06969C6.0981 5.01962 6.04303 5.00137 5.98597 5.01213C5.92796 5.02289 5.88509 5.06033 5.86859 5.12115C5.81479 5.3182 5.76172 5.51187 5.70739 5.71017L5.56342 6.23663C5.16365 6.36061 4.7376 6.51268 4.3876 6.66241C4.26866 6.71481 4.25695 6.88512 4.35933 6.95858C4.66643 7.1771 5.03009 7.42415 5.39518 7.65903Z" fill="currentColor" />
	<path d="M22.4518 5.95137C21.961 5.81924 21.4783 5.81634 21.0222 5.92003C22.2703 6.86569 22.7514 8.73626 22.0845 10.3204C21.664 11.3191 20.88 11.9822 20 12.2084C20.3207 12.4494 20.6816 12.6371 21.0797 12.7442C22.8165 13.2114 24.5452 12.0372 24.9257 10.1579C25.306 8.27863 24.1886 6.41865 22.4518 5.95137Z" fill="currentColor" />
	<path d="M2.13411 12.6207C2.4356 12.7011 2.75814 12.8015 3.02367 12.9035C3.11355 12.9389 3.12845 13.0668 3.05501 13.1253C2.83416 13.2996 2.5717 13.498 2.30874 13.6868C2.32774 14.01 2.34623 14.3188 2.36318 14.5986C2.36421 14.6925 2.24505 14.742 2.16082 14.687C1.90505 14.5261 1.6277 14.3468 1.394 14.14C1.10742 14.2688 0.787951 14.3598 0.49417 14.4388C0.396594 14.4663 0.298497 14.3848 0.328281 14.2953L0.353712 14.2302C0.449108 13.9859 0.553162 13.7193 0.661101 13.4416C0.467986 13.1847 0.278978 12.9189 0.122322 12.6881C0.0699408 12.6107 0.123351 12.4927 0.220429 12.4853C0.505475 12.4658 0.843421 12.4633 1.15621 12.4747L1.35104 12.2018C1.45805 12.052 1.56132 11.9074 1.66622 11.7598C1.69395 11.7208 1.73453 11.7049 1.77716 11.7114C1.81978 11.7179 1.85369 11.7443 1.86807 11.7899L2.13411 12.6207Z" fill="currentColor" />
	<path d="M13.6313 15.5688L13.6317 15.5749L13.9956 20.9324L13.9975 20.9614C14.0337 21.4928 13.6785 21.9567 13.2038 21.9972C13.0031 22.0144 12.8124 21.9525 12.6575 21.8355L9.21437 19.2395L9.20996 19.2362C8.99222 19.072 8.93448 18.7416 9.081 18.4977C9.20925 18.2839 9.45188 18.2082 9.65615 18.3027L12.3008 19.5252L12.5354 15.5745C12.5555 15.2355 12.8175 14.9789 13.1201 15.0014C13.3963 15.0223 13.6112 15.2683 13.6313 15.5688Z" fill="currentColor" />
	<path fill-rule="evenodd" clip-rule="evenodd" d="M14.7096 10.2587C9.31056 9.10176 3.99615 12.5404 2.83876 17.9399C1.6818 23.3394 5.12051 28.6537 10.5196 29.8106C15.9193 30.9676 21.2336 27.5293 22.3906 22.1299C23.5479 16.7299 20.1093 11.4161 14.7096 10.2587ZM20.0531 21.6286C19.1744 25.7298 15.1223 28.3515 11.021 27.4728C6.91966 26.5937 4.29789 22.542 5.17659 18.4407C6.05531 14.3395 10.1075 11.7178 14.2088 12.5965C18.3101 13.4751 20.9318 17.5273 20.0531 21.6286Z" fill="currentColor" />
</svg>
