<svg width="33" height="36" viewBox="0 0 33 36" fill="currentColor" xmlns="http://www.w3.org/2000/svg" focusable="false">
	<path d="M13.12 15.303C13.2553 15.1635 13.2553 14.8856 13.12 14.8856C12.9873 14.7473 12.8533 14.7473 12.5853 14.7473L10.1782 16.8294C9.91138 17.1073 9.91138 17.3852 10.1782 17.5235L12.7193 19.6069C12.8533 19.7452 13.12 19.6069 13.12 19.6069C13.12 19.6069 13.2553 19.4673 13.2553 19.329C13.2553 19.329 13.2553 19.1894 13.12 19.0511L12.4525 17.9397H14.3248V16.4132H12.4513L13.12 15.3018V15.303ZM16.5979 16.4132H15.2603V17.9409H18.3374V16.4132H16.5979ZM21.0113 14.7473C20.8773 14.6077 20.6093 14.6077 20.6093 14.7473C20.4765 14.8856 20.4765 15.1635 20.6093 15.1635L21.2781 16.2749H19.4058V17.8013H21.2781L20.6093 18.9128C20.4765 19.0511 20.4765 19.0511 20.4765 19.1894C20.4765 19.329 20.4765 19.4673 20.6093 19.4673C20.7445 19.6069 21.0113 19.6069 21.0113 19.4673L23.5524 17.3852C23.8192 17.2468 23.8192 16.969 23.5524 16.6911L21.0113 14.7473ZM11.5157 23.355C11.7837 23.2167 12.1845 23.2167 12.4513 23.2167H12.7193V26.1312H12.0505V23.7724H11.3817V23.355H11.5157ZM14.0568 25.1605C14.3248 25.1605 14.4576 25.2988 14.4576 25.5767C14.4576 25.9929 13.9228 26.6882 13.7888 26.6882H13.522L13.7888 25.9929C13.656 25.9929 13.522 25.8546 13.522 25.5767C13.656 25.4384 13.7888 25.1605 14.0568 25.1605ZM16.8659 23.7712H15.6611V24.3269H15.9291C16.5979 24.3269 16.9987 24.6048 16.9987 25.1605C16.9987 25.8546 16.4639 26.272 15.5283 26.272H15.1263V25.7162H15.5283C16.0631 25.7162 16.3299 25.5767 16.3299 25.2988C16.3299 25.021 16.0631 24.8826 15.6611 24.8826H15.1263V23.355H16.8659V23.7712ZM19.005 23.9107V26.1324H18.3362L18.4702 23.2167H19.407L19.9418 24.8826H20.0745L20.6105 23.2154H21.5461L21.6801 26.1324H21.0113L20.8773 23.9095L20.3425 25.5767H19.5398L19.005 23.9095V23.9107ZM22.5025 25.0802C22.5025 25.0024 22.5247 24.9357 22.5714 24.8826C22.6193 24.8295 22.6894 24.8036 22.7841 24.8036C22.8775 24.8036 22.9488 24.8295 22.9967 24.8826C23.0459 24.9357 23.0705 25.0024 23.0705 25.0802C23.0705 25.158 23.0459 25.221 22.9967 25.2729C22.9488 25.3235 22.8775 25.3495 22.7841 25.3495C22.6906 25.3495 22.6193 25.3248 22.5714 25.2729C22.5249 25.2203 22.5003 25.1518 22.5025 25.0815V25.0802Z" fill="currentColor" />
	<path d="M6.663 8.0501C6.663 9.22163 6.0639 10.0352 5.02852 10.0352C3.99349 10.0352 3.39404 9.31936 3.39404 8.0501C3.39404 6.84605 3.96618 6 5.02852 6C6.03695 6 6.663 6.7158 6.663 8.0501Z" fill="currentColor" />
	<path d="M9.11211 18.9819L9.11409 18.9461C9.25625 16.3797 9.50885 11.8194 7.2593 11.1463C5.96686 10.7595 4.25672 10.7259 2.79782 11.1463C0.546299 11.795 0.799903 16.3663 0.942406 18.9351L0.945007 18.9819C1.00955 20.146 1.74114 20.4759 2.22321 20.4759V17.3259C2.22321 15.9235 2.24202 14.5994 2.51723 13.7859C2.56489 13.645 2.63927 13.6284 2.66764 13.6663V29C3.67764 29 4.48362 28.3828 4.56992 27.1432C4.56992 27.1432 4.83453 20.3435 4.83736 20.2619C4.84019 20.1804 4.90939 20.0743 5.02856 20.0743C5.14773 20.0743 5.21725 20.1804 5.22008 20.2619C5.22292 20.3435 5.48719 27.1432 5.48719 27.1432C5.57382 28.3878 6.38714 29 7.38947 29V13.6663C7.43488 13.6221 7.50051 13.6371 7.53988 13.7859C7.75839 14.612 7.83427 15.9361 7.83427 17.3259V20.4759C8.31597 20.4759 9.04764 20.146 9.11211 18.9819Z" fill="currentColor" />
	<path d="M30.3149 8.0501C30.3149 9.22163 29.7158 10.0352 28.6804 10.0352C27.6454 10.0352 27.0459 9.31936 27.0459 8.0501C27.0459 6.84605 27.6181 6 28.6804 6C29.6888 6 30.3149 6.7158 30.3149 8.0501Z" fill="currentColor" />
	<path d="M32.764 18.9819L32.766 18.9461C32.9081 16.3797 33.1607 11.8194 30.9112 11.1463C29.6187 10.7595 27.9086 10.7259 26.4497 11.1463C24.1982 11.795 24.4518 16.3663 24.5943 18.9351L24.5969 18.9819C24.6614 20.146 25.393 20.4759 25.8751 20.4759V17.3259C25.8751 15.9235 25.8939 14.5994 26.1691 13.7859C26.2168 13.645 26.2912 13.6284 26.3195 13.6663V29C27.3295 29 28.1355 28.3828 28.2218 27.1432C28.2218 27.1432 28.4864 20.3435 28.4892 20.2619C28.4921 20.1804 28.5613 20.0743 28.6804 20.0743C28.7996 20.0743 28.8691 20.1804 28.872 20.2619C28.8748 20.3435 29.1391 27.1432 29.1391 27.1432C29.2257 28.3878 30.039 29 31.0414 29V13.6663C31.0868 13.6221 31.1524 13.6371 31.1918 13.7859C31.4103 14.612 31.4861 15.9361 31.4861 17.3259V20.4759C31.9678 20.4759 32.6995 20.146 32.764 18.9819Z" fill="currentColor" />
</svg>
