<svg fill="currentColor" height="36" viewBox="0 0 22 36" width="22" xmlns="http://www.w3.org/2000/svg" focusable="false">
	<g fill="currentColor">
		<path d="m7.02385 8.13924c0 1.22246.6744 2.07136 1.83994 2.07136 1.16511 0 1.83991-.74692 1.83991-2.07136 0-1.2564-.644-2.13924-1.83991-2.13924-1.1352 0-1.83994.74692-1.83994 2.13924z" />
		<path d="m4.26687 19.5464-.00223-.0374c-.15278-2.5567-.41888-7.0099 1.76099-8.0192l5.49577 5.3239v13.1863c-1.1369 0-2.04422-.6441-2.14137-1.9376 0 0-.29787-7.0952-.30106-7.1804-.00319-.0851-.08107-.1957-.21523-.1957-.13415 0-.21241.1106-.2156.1957-.00319.0852-.30068 7.1804-.30068 7.1804-.09752 1.2988-1.01308 1.9376-2.14141 1.9376v-16.0004c-.05111-.0461-.12499-.0305-.16932.1248-.24598.8621-.33139 2.2437-.33139 3.6939v3.2869c-.54225 0-1.36589-.3442-1.43847-1.5588z" />
		<path d="m12.0202 17.2968c.0012.1646.0015.338.0015.5215v.4879c.2445 0 .5459.4981.81.9345.0943.1559.1839.3038.2644.4185-.0837-.0194-.1649-.0237-.2409-.004v9.5172c1.0257 0 1.858-.5948 1.9467-1.8039 0 0 .2704-6.606.2733-6.6852.0029-.0793.0741-.1823.196-.1823.0254 0 .0485.0045.0693.0122l-1.0241-.992-.0015.0252c-.0411.6875-.3764.5113-.758.3107-.0438-.0231-.0883-.0464-.1329-.0688.0177-.0543.0301-.1335.0366-.2419l.0029-.0489c.0143-.2384.0296-.4932.0437-.7602z" />
		<path d="m13.5572 16.3755-5.4656-5.2946c1.07967-.0772 2.2387.0101 3.2833.2891 1.6962.453 2.1294 2.7392 2.1823 5.0055z" />
		<path d="m14.4154 17.2069 3.2719 3.1695v-6.1009c.0291-.0368.1052-.0207.154.1162.2816.7903.3008 2.0767.3008 3.4392v2.9861l.0741.0717c.4909-.0309 1.1712-.3734 1.234-1.449l.0027-.0455c.1458-2.4956.4053-6.9367-1.8988-7.5669-1.4669-.4013-3.182-.3768-4.4959-.0194 1.1706 1.0068 1.3827 3.3112 1.3572 5.399z" />
		<path d="m17.6873 22.7866v6.3858c-1.0336 0-1.8584-.5996-1.9467-1.8039 0 0-.2708-6.606-.2737-6.6852-.0007-.0198-.0056-.041-.0145-.0617z" />
		<path d="m13.5986 8.81929c0 1.13816.6131 1.92851 1.6727 1.92851 1.0592 0 1.6727-.6954 1.6727-1.92851 0-1.16975-.5856-1.9917-1.6727-1.9917-1.032 0-1.6727.6954-1.6727 1.9917z" />
		<path d="m.956656 6.17556-.8815888.854c-.1000896.09696-.1000896.25416 0 .35112l20.6058328 19.96102c.1001.097.2624.097.3625 0l.8815-.854c.1001-.097.1001-.2542 0-.3511l-20.60579-19.96104c-.10009-.09696-.26236-.09696-.362454 0z" />
	</g>
</svg>
