<svg fill="currentColor" height="36" viewBox="0 0 22 36" width="22" xmlns="http://www.w3.org/2000/svg" focusable="false">
	<g fill="currentColor">
		<path d="m7.24105 12.7094c-.67984 1.7331-.52262 4.4551-.42035 6.2257l.00271.0468c.0672 1.1641.82894 1.494 1.33087 1.494v-3.15c0-1.3615.01846-2.6491.28172-3.4675z" />
		<path d="m8.61702 14.0324v14.9676c1.05162 0 1.89078-.6172 1.98068-1.8568 0 0 .2755-6.7997.2784-6.8813.003-.0815.075-.1876.1991-.1876s.1965.1061.1994.1876c.003.0816.2781 6.8813.2781 6.8813.0902 1.2446.9371 1.8568 1.9807 1.8568v-10.2405z" />
		<path d="m13.5334 16.1832-5.10951-4.9128c.10341-.0505.21286-.0921.32867-.1241 1.51904-.4204 3.29964-.3868 4.64534 0 2.0649.5934 2.105 4.2082 1.9841 6.8143l-1.3927-1.3391c-.0241-1.1233-.1106-2.1506-.2993-2.8356-.041-.1488-.1093-.1638-.1566-.1196z" />
		<path d="m13.9965 19.2048v1.2711c.2789 0 .6381-.102.9137-.3925z" />
		<path d="m11.0752 10.0352c1.078 0 1.7018-.81357 1.7018-1.9851 0-1.3343-.6518-2.0501-1.7018-2.0501-1.10614 0-1.70185.84605-1.70185 2.0501 0 1.26926.62415 1.9851 1.70185 1.9851z" />
		<path d="m.956656 6.17425-.8815888.84765c-.1000896.09624-.1000896.25227 0 .3485l20.6058328 19.8125c.1001.0963.2624.0963.3625 0l.8815-.8477c.1001-.0962.1001-.2522 0-.3484l-20.60579-19.81255c-.10009-.09623-.26236-.09623-.362454 0z" />
	</g>
</svg>
