<svg fill="currentColor" height="36" viewBox="0 0 14 36" width="14" xmlns="http://www.w3.org/2000/svg" focusable="false">
	<g fill="currentColor">
		<path d="m5.6 6.3913c.14-.26087.28-.3913.56-.3913.14 0 .42.13043.42.3913l.42 6.1304c0 1.174-1.68 2.3479-3.5 2.3479h-.28s0 .1304.14.1304c.56.3913 1.4.3913 1.4.3913.42 5.8696.7 13.1739.7 13.5652 0 .6522-.84 1.0435-1.96 1.0435s-1.96-.5217-1.96-1.0435c0-.3913.28-8.0869.84-14.2174-1.4-.3913-2.38-1.3043-2.38-2.2174l.42-6.1304c0-.26087.28-.3913.42-.3913.28 0 .42.13043.42.3913l.56 5.4783c0 .2608.14.3913.42.3913.14 0 .42-.1305.42-.3913l.42-5.4783c0-.26087.14-.3913.42-.3913s.42.13043.42.3913l.56 5.4783c0 .2608.14.3913.42.3913.14 0 .42-.1305.42-.3913z" />
		<path d="m11.1613 6.19001c1.9355 1.9732 2.5806 7.76129 2.8387 10.39219 0 .6578-.5161 1.1839-1.2903 1.1839h-.3871c1.9355 11.3131.129 12.2339-1.1613 12.2339-.3871 0-1.1613-.2631-1.1613-.7893v-22.62605c0-.52618.7742-.78928 1.1613-.39464z" />
	</g>
</svg>
