<svg fill="currentColor" height="36" viewBox="0 0 11 36" width="11" xmlns="http://www.w3.org/2000/svg" focusable="false">
	<g fill="currentColor">
		<path d="m8.4287 8.38007c-.18329 1.17047-.95131 1.87293-2.05864 1.68233-1.10714-.19047-1.63617-1.01585-1.43758-2.28369.18833-1.20303.93274-1.94292 2.06882-1.74754 1.0784.1857 1.63626 1.01581 1.4274 2.3489z" />
		<path d="m8.49064 22.526c.16433.2778.23158.3915.52834 1.3389.46958 1.4997 1.31202 4.5872 1.67672 6.0981-.3707.1178-1.69232.0012-2.16812-1.1883-.10508-.2627-.2383-.5621-.39552-.9155-.31631-.7109-.72979-1.6405-1.20727-2.9298-.11713-.3162-.23336-.5669-.28916-.6772-.14102-.2788-.34327-.4848-.63973-.7868-.09155-.0933-.19218-.1957-.30268-.3123-.05363-.0565-.10676-.1135-.15969-.1703-.135-.1447-.26851-.2878-.40529-.4188-.43412 1.1273-.73631 1.8032-.95841 2.274-.26911.5415-.31473.6123-.52311.9355-.01787.0278-.03703.0576-.05757.0896-.44637.7036-1.09134 1.5775-1.71063 2.4167-.45743.6199-.900938 1.2208-1.240061 1.7202-.137862-.1397-1.120274-1.2337-.307917-2.7232.264761-.4855.552729-.9425.831418-1.3847.24135-.3831.4759-.7553.68249-1.1256.0956-.1713.1349-.2357.16739-.3034.04227-.0882.07298-.182.20146-.5251.2851-.7618.60981-2.0425.8087-2.8287 0 0 .79745.4823 1.40281.8496.11792.0716.16927-.0208.16927-.0208l-1.38395-1.5198c-.04098-.0449-.08453-.0909-.12967-.1384-.34524-.3642-.77897-.8216-.77897-1.6173 0-.6562.54986-3.3052.80139-4.5174.02736-.1318.05126-.2466.07041-.3401-.30821.21-1.04591.726-1.20885 1.0715-.40006.8486-.66097 2.8048-.82589 4.1138-.766038-.1672-1.1528599-.8922-1.13814545-1.6584.01313435-.6895.08453435-1.482.19583045-2.1673.182598-1.0867.354628-1.3849.780557-1.8802.700958-.8051 2.084018-1.8831 2.819348-2.3424 1.33664-.8348 3.59497.2578 3.89479 1.0414.06419.0978.39521 1.4866.57801 2.2532.05974.2509.10369.4351.11712.4855.11693.4381.25054.9232.41477 1.2945.10656.2469.46583.7062.67449.973.02657.034.05076.0649.0716.0917.07476.0964.21272.2671.37764.471.35544.4394.83544 1.033 1.07544 1.3693-.1984.109-1.16936.5532-2.09143-.4654-.08878-.0981-.20215-.2165-.32707-.3468-.41191-.4298-.94943-.9908-1.14319-1.3875-.20817-.439-.34445-.8459-.46424-1.2369-.28057 1.2466-.58029 2.6415-.7855 3.7701.51748.6787 1.02626 1.3612 1.51618 2.059.03229.047.06469.0937.09718.1406.20254.2926.40924.5911.62571.964.02271.0391.04355.0743.063.1072z" />
	</g>
</svg>
