<svg width="27" height="36" viewBox="0 0 27 36" fill="currentColor" xmlns="http://www.w3.org/2000/svg" focusable="false">
	<path d="M16.4343 13.4459L10.4343 11.9047L13.6953 17.2294L14.2171 15.6883L16.1734 16.9491L16.9562 15.6872L14.9998 14.4264L16.4343 13.4459Z" fill="currentColor" />
	<path d="M26.7391 24.7965L24 20.3117L23.4782 8.54112C23.4782 7.7002 22.8264 7 22.0437 7H5.08732C4.1736 7 3.52183 7.7002 3.52183 8.54112L3 20.4524L0.260915 24.9361C0.0975549 25.1281 0.0048117 25.3774 0 25.6375V27.8788C0 28.4394 0.390853 29 1.04366 29H25.9563C26.4782 29 27 28.5801 27 27.8788V25.6363C27 25.3572 26.869 25.0769 26.7391 24.7965ZM10.0437 25.2164L11.0873 23.1147H16.0437L16.9563 25.2164H10.0437ZM23.3472 20.4524H3.52287C3.52287 20.4524 3.52287 20.3117 3.65281 20.3117C4.30561 20.1721 4.95738 19.8918 4.95738 19.8918L5.34927 9.24244H21.3898L21.7817 19.8918C21.7817 19.8918 22.3035 20.0314 23.0863 20.3117C23.3462 20.1721 23.3472 20.3117 23.3472 20.4524Z" fill="currentColor" />
</svg>
