<svg fill="currentColor" height="36" viewBox="0 0 26 36" width="26" xmlns="http://www.w3.org/2000/svg" focusable="false">
	<g fill="currentColor">
		<path d="m14.7839 16.8173c0-1.6243-.9771-2.7615-1.9542-2.7615-.9772 0-1.9542 1.2995-1.9542 2.7615z" />
		<path d="m12.8297 18.1167c-.6514 0-1.14.4874-1.14 1.1371 0 .3248.1628.6498.4886.8122v2.2741h1.3028v-2.2741c.3257-.1624.4886-.4874.4886-.8122 0-.6497-.4886-1.1371-1.14-1.1371z" />
		<path clip-rule="evenodd" d="m13.1555 5.12182 11.8883 11.20818c.3257.1624.2698.6795.1629.8217v.6402c0 .3248-.1629.4873-.4886.4873h-1.9543v10.7208h-20.03096v-10.5583h-1.954238c-.325705 0-.488563-.1625-.488563-.4873v-.8122c0-.3249.162858-.6498.325705-.8122l11.888356-11.20818c.1628-.16243.4885-.16243.6514 0zm2.6056 18.35528c.3258-.1623.6514-.3248.6514-.6497.1629-.8121.1629-2.4365.1629-2.599 0-.9745 0-1.7867-.1629-2.9239 0-.1082-.1447-.2165-.2895-.3248-.0723-.0541-.1448-.1083-.199-.1624l-.1629.1624c-.6514.4873-1.1399.6498-1.3028.6498h-.1628c.0813 0 .1628-.0407.2442-.0813.0815-.0406.1629-.0812.2443-.0812l.8143-.8122c.1628 0 .1628-.1624.1628-.1624-.3256-1.9492-1.4656-3.4111-2.9313-3.4111s-2.7685 1.7867-2.93139 3.8984c-.32576.1625-.65141.3248-.65141.6498-.16288.8122-.16288 2.2741-.16288 2.5989 0 .325 0 1.7869.16288 2.599 0 .3249.32565.6497.65141.6497.97719.1625 2.60569.1625 2.93139.1625s1.9542 0 2.9313-.1625z" fill-rule="evenodd" />
	</g>
</svg>
