<svg width="22" height="36" viewBox="0 0 22 36" fill="currentColor" xmlns="http://www.w3.org/2000/svg" focusable="false">
	<path fill-rule="evenodd" clip-rule="evenodd" d="M7.95788 22.6666C6.86599 22.6666 6.32014 23.3333 6.32014 24C6.32014 23.2 5.7742 22.5333 4.68241 22.5333C4.5225 22.5333 4.36259 22.579 4.23015 22.617C4.13656 22.6438 4.05656 22.6666 4 22.6666C4.95189 21.4888 6.43469 20.8586 7.85883 20.2533C9.49762 19.5568 11.0585 18.8935 11.6427 17.4666C12.6002 15.0761 13.6407 11.7132 14.3761 9.33609C14.584 8.66379 14.7677 8.07032 14.9181 7.6C14.3723 7.46667 13.0075 6.8 13.4169 6.13333C13.5534 5.86667 13.8263 5.86667 14.2357 5.86667C14.6452 5.86667 15.191 5.86667 15.6005 6C15.6005 5.86667 15.737 5.86667 15.8734 5.86667L15.6005 5.06667C15.3276 4.93334 15.191 4.8 15.191 4.53333C15.191 4.26667 15.4641 4 15.737 4C16.0099 4 16.2829 4.26667 16.2829 4.53333C16.2829 4.6 16.2488 4.63333 16.2147 4.66667C16.1805 4.7 16.1465 4.73334 16.1465 4.8L16.6923 5.6C16.7587 5.62164 16.8288 5.64328 16.9006 5.66548C17.2717 5.78012 17.692 5.90994 17.9206 6.13333C18.33 6.4 19.6948 7.86666 20.5136 8.80001C21.6054 10.1333 20.6501 10.9333 19.6948 10.6667C18.8759 10.4 17.5112 9.99998 17.5112 9.99998C17.5112 9.99998 15.8734 18.1333 14.6452 22.6666H14.5087C13.4169 22.6666 12.871 23.3333 12.871 24C12.871 23.3333 12.325 22.6666 11.2333 22.6666C10.1415 22.6666 9.59552 23.3333 9.59552 24C9.59552 23.3333 9.04967 22.6666 7.95788 22.6666ZM18.1936 7.73333C18.1936 7.6 18.0571 7.33333 17.7841 7.33333C17.5112 7.33333 17.3747 7.46667 17.3747 7.73333C17.3747 7.86666 17.5112 8.13333 17.7841 8.13333C17.9206 8.13333 18.1936 8 18.1936 7.73333Z" fill="currentColor" />
	<path d="M20.0257 23.6666C20.0257 23.1667 20.4487 23 20.8717 23C21.4359 23 21.7179 23.1667 22 23.8333V29H20.3077V27H18.6153V29H16.923V27H15.2307V29H13.5385V27H11.8461V29H10.1538V27H8.46149V29H6.76926V27H5.07693V29H3.3846V27H1.69231V29H0V23.8333C0 23.1667 0.423072 23 0.846153 23.1667C1.26923 23.1667 1.69231 23.3333 1.69231 23.8333V24.9999H3.3846V23.8333C3.3846 23.3333 3.80764 23.1667 4.23077 23.1667C4.6538 23.1667 5.07693 23.3333 5.07693 23.8333V24.9999H6.62815V23.8333C6.62815 23.1667 7.05128 23.1667 7.47431 23.1667C7.89744 23.1667 8.32048 23.3333 8.32048 23.8333V24.9999H10.0128V23.8333C10.0128 23.3333 10.4358 23.1667 10.859 23.1667C11.282 23.1667 11.7051 23.3333 11.7051 23.8333V24.9999H13.3975V23.8333C13.3975 23.1667 13.6795 23.1667 14.1025 23.1667C14.5256 23.1667 14.9487 23.3333 14.9487 23.8333V24.9999H16.641V23.8333C16.641 23.3333 17.064 23.1667 17.4872 23.1667C17.9102 23.1667 18.3333 23.3333 18.3333 23.8333V24.8333H20.0257V23.6666Z" fill="currentColor" />
</svg>
