<svg fill="currentColor" height="36" viewBox="0 0 22 36" width="22" xmlns="http://www.w3.org/2000/svg" focusable="false">
	<g fill="currentColor">
		<path clip-rule="evenodd" d="m14.685 20.3408c1.26.2793 3.64 1.1173 4.7601 2.0949-.84.6984-2.9401 2.6537-3.92 6.5643h-9.80016c-.97995-4.0503-2.94001-5.8659-3.92001-6.5643 1.12001-.9776 4.06-1.9553 5.04005-2.2346 0-.2307.04239-.4613.08055-.6686.03113-.1693.05945-.3231.05945-.4487-.84006-1.1173-1.40003-2.095-1.54003-3.2123-.55997-.5587-.83996-1.3966-.83996-2.3743 0-.9776.27999-1.5363.69997-1.8157-.27999-.9776-.55997-2.37423-.55997-3.63122-.56007.13967-.98005.27933-.98005.27933s.55997-3.49163 4.76006-3.07263c0 0-.27999-.69832-.84005-1.25698 0 0 3.92015 0 5.18005 2.09497 0 0 3.22-1.39665 4.6201 1.53631l-.8401.419c0 1.11733-.28 2.65362-.7 3.49162.56.5586.7 1.1173.7 1.9553 0 .9777-.28 1.8156-.84 2.3743-.1399.9776-.5599 1.9553-1.4 2.9329.14.5588.28 1.1174.28 1.5364zm-8.47003-10.89387c.03497.27931.07004.55867.07004.83797 2.93996-.2793 5.87999-.2793 8.68009.1397.14-.5587.28-1.25698.28-1.81566-2.9401-.41899-6.16012-.41899-9.10018 0 0 .27933.03507.55867.07005.83799zm2.03004 12.43017c.69997 2.2346 3.91999 2.3743 4.89999.2793.2124-.3177.2637-.5551.3372-.8949.0233-.1083.049-.227.0829-.362 0-.1398-.14-.9777-.14-.9777s-.9801.8379-2.3801.419c-.6585-.1095-1.14491-.4764-1.52673-.7645-.1052-.0795-.20253-.1528-.2933-.2131.27999.1396.84003.2793 1.26003.2793.7 0 1.4-.1397 1.68-.419 1.2601-1.1173 2.38-2.3744 2.38-3.9107.7001-.2793.8401-1.1172.8401-1.676 0-.5586-.14-.8379-.28-.9776-.0934-.0931-.1867-.0621-.2801-.031-.0466.0155-.0933.031-.14.031-.14.2794-.14.419-.14.5587 0 .2793-.42.2793-.42.2793v-1.9553c-.0349.0349-.0875.0786-.1531.1331-.1969.1637-.5119.4256-.8269.8446 0 0-.42-.5587-.7-1.257h-.56c-.42.6983-1.26 1.3966-2.66003 1.5363 0 0 .41998-.6984.56007-1.3967-.84006 0-1.68002 0-2.52007.1397v1.9553s-.41999 0-.55998-.419c0 0-.13999-.2793-.13999-.5586-.0467 0-.09339-.0155-.14-.0311-.09339-.031-.18669-.0621-.28008.0311-.13999.1396-.27999.419-.27999.9776 0 .5587.14 1.5363.84006 1.676 0 1.3966.83996 2.514 1.82001 3.4916-.18406 1.3771-.24717 1.6076-.26873 1.8419-.01125.1221-.01126.2453-.01126.5325-.09339.1861-.06226.3723-.03113.5586.01557.0931.03113.1862.03113.2793z" fill-rule="evenodd" />
		<path d="m1.3975 23.1664c-.763649 2.0416-1.272744 5.8333-1.272744 5.8333h4.200034c-.7636-3.6458-2.29092-5.25-2.92729-5.8333z" />
		<path d="m19.8521 23.1664c-.6363.5833-2.1636 2.1875-2.9273 5.8333h4.2s-.3818-3.7917-1.2727-5.8333z" />
	</g>
</svg>
