<svg width="26" height="36" viewBox="0 0 26 36" fill="currentColor" xmlns="http://www.w3.org/2000/svg" focusable="false">
	<path d="M15.3342 16.8173C15.3342 15.193 14.358 14.0558 13.3818 14.0558C12.4056 14.0558 11.4295 15.3553 11.4295 16.8173H15.3342Z" fill="currentColor" />
	<path d="M13.3819 18.1167C12.7311 18.1167 12.2429 18.6041 12.2429 19.2538C12.2429 19.5786 12.4056 19.9036 12.7311 20.066V22.3401H14.0327V20.066C14.358 19.9036 14.5207 19.5786 14.5207 19.2538C14.5207 18.6041 14.0327 18.1167 13.3819 18.1167Z" fill="currentColor" />
	<path fill-rule="evenodd" clip-rule="evenodd" d="M13.7073 5.12182L25.5845 16.33C25.9098 16.4924 25.9098 16.8173 25.7472 17.1422V17.7919C25.7472 18.1167 25.5845 18.2792 25.259 18.2792H23.3066V29H3.29451V18.4417H1.34211C1.01671 18.4417 0.854004 18.2792 0.854004 17.9544V17.1422C0.854004 16.8173 1.01671 16.4924 1.1794 16.33L13.0565 5.12182C13.2192 4.95939 13.5446 4.95939 13.7073 5.12182ZM16.3105 23.4771C16.6359 23.3148 16.9613 23.1523 16.9613 22.8274C17.124 22.0153 17.124 20.3909 17.124 20.2284C17.124 19.2539 17.124 18.4417 16.9613 17.3045C16.9613 17.1963 16.8167 17.088 16.6721 16.9797C16.5998 16.9256 16.5274 16.8714 16.4732 16.8173L16.3105 16.9797C15.6597 17.467 15.1716 17.6295 15.0089 17.6295H14.8463C14.9275 17.6295 15.0089 17.5888 15.0903 17.5482C15.1716 17.5076 15.253 17.467 15.3344 17.467L16.1479 16.6548C16.3105 16.6548 16.3105 16.4924 16.3105 16.4924C15.9851 14.5432 14.8463 13.0813 13.382 13.0813C11.9176 13.0813 10.6161 14.868 10.4533 16.9797C10.1279 17.1422 9.80253 17.3045 9.80253 17.6295C9.6398 18.4417 9.6398 19.9036 9.6398 20.2284C9.6398 20.5534 9.6398 22.0153 9.80253 22.8274C9.80253 23.1523 10.1279 23.4771 10.4533 23.4771C11.4296 23.6396 13.0565 23.6396 13.382 23.6396C13.7073 23.6396 15.3344 23.6396 16.3105 23.4771Z" fill="currentColor" />
</svg>
