<svg width="18" height="36" viewBox="0 0 18 36" fill="currentColor" xmlns="http://www.w3.org/2000/svg" focusable="false">
	<path d="M17.2932 9.33605H15.6098C14.0794 7.34657 11.6308 5.96924 8.87616 5.96924C6.12146 5.96924 3.67286 7.34657 2.14256 9.33605H0.45911C0.15304 9.33605 0 9.48908 0 9.79516V29.2308H8.87616V24.3336C10.2535 24.1806 10.8656 22.4972 11.0187 22.4972C11.0187 22.3442 11.0187 22.3442 11.0187 22.3442C10.5596 22.8033 9.64126 23.7215 8.87616 23.5685C8.41706 23.4154 8.41706 22.1911 8.72306 21.579C8.72306 21.2729 8.87616 21.1199 9.18216 21.1199C10.1005 20.9668 11.9369 20.6608 13.1612 20.6608C13.4673 20.6608 13.6203 20.8138 13.6203 21.1199V29.2308H17.9053V9.79516C17.7523 9.48908 17.5993 9.33605 17.2932 9.33605ZM11.4778 19.8956C11.6308 19.7425 11.7839 19.4365 11.7839 19.1304C11.7839 18.3652 11.1717 17.9061 11.1717 17.9061C11.1717 17.9061 10.5596 18.3652 10.5596 18.9774C10.5596 19.2834 10.7126 19.7425 10.8656 19.8956C10.1005 19.8956 9.48826 19.2834 9.33526 18.3652C9.02916 16.6818 10.5596 14.5393 11.1717 13.9271C11.3248 16.0697 12.549 15.7636 13.0082 17.447C13.3142 18.8243 12.549 19.5895 11.4778 19.8956Z" fill="currentColor" />
</svg>
