<svg width="26" height="36" viewBox="0 0 26 36" fill="currentColor" xmlns="http://www.w3.org/2000/svg" focusable="false">
	<path fill-rule="evenodd" clip-rule="evenodd" d="M13.6664 5.11861L25.5415 16.5057C25.6977 16.664 25.854 16.8221 25.854 17.1384V17.9292C25.854 18.2455 25.6977 18.4036 25.3853 18.4036H23.354V29H3.354V18.4036H1.32275C1.01025 18.4036 0.854004 18.2455 0.854004 17.9292V17.1384C0.854004 16.8221 1.01025 16.664 1.1665 16.5057L13.0415 5.11861C13.1977 4.96046 13.5102 4.96046 13.6664 5.11861ZM12.8853 15.2405C12.1041 15.2405 11.1666 15.2405 10.2291 15.5569V17.2965C10.6978 17.2175 11.0885 17.1384 11.4791 17.0593C11.8697 16.9802 12.2604 16.9012 12.7291 16.8221C13.8229 16.8221 14.4478 17.1384 14.4478 17.7709C14.4478 18.4036 14.1354 18.7199 13.1978 19.1944L11.9479 19.827C10.6978 20.4597 9.91655 21.4086 9.76035 22.3575L10.0729 23.9391H16.9478V22.0412H11.7916C11.9479 21.9357 12.0867 21.8303 12.2256 21.7249C12.5034 21.514 12.7812 21.3031 13.1978 21.0922L14.2916 20.6178C15.6979 20.1434 16.4791 19.1944 16.3228 17.9292C16.3228 16.3476 15.229 15.2405 12.8853 15.2405Z" fill="currentColor" />
</svg>
