<svg width="25" height="36" viewBox="0 0 25 36" fill="currentColor" xmlns="http://www.w3.org/2000/svg" focusable="false">
	<path d="M24.5 26.6667H23.5L21 21.3334H19.8333L22 26.6667H20.5L18.6667 21.3334H17.5L19 26.6667H17.5L16.5 21.1667H15.3333L16.1667 26.5H14.6667L14.1667 21.1667H13L13.1666 26.5H11.8334L12 21.1667H10.8333L10.3333 26.5H8.83331L9.6667 21.1667H8.49999L7.33338 26.5H5.83335L7.33338 21.1667H6.16667L4.33333 26.5H3L5.16661 21.1667H3.83333L1.33333 26.5H0.499996C0.166669 26.5 0 26.6667 0 27V28.5C0 28.8333 0.166669 29 0.499996 29H24.5C24.8333 29 25 28.8333 25 28.5V27C25 26.8333 24.8333 26.6667 24.5 26.6667ZM24.5 17.8334H23.5L21 12.3333V6.5C21 6.16667 20.8333 6 20.5 6H4.33333C4.16667 6 4 6.16667 4 6.5V12.3333L1.5 17.8334H0.499996C0.166669 17.8334 0 18 0 18.3333V19.8334C0 20.1667 0.166669 20.3333 0.499996 20.3333H24.5C24.8333 20.3333 25 20.1667 25 19.8334V18.3333C25 18 24.8333 17.8334 24.5 17.8334ZM3 17.8334L5.16661 12.5H6.33333L4.33333 17.8334H3ZM7.33338 17.8334H5.83335L7.33338 12.5H8.49999L7.33338 17.8334ZM10.3333 17.8334H8.83331L9.6667 12.5H10.8333L10.3333 17.8334ZM11.8334 17.8334L12 12.5H13.1666L13.3333 17.8334H11.8334ZM14.6667 17.8334L14.1667 12.3333H15.3333L16.1667 17.6667H14.6667V17.8334ZM17.6666 17.8334L16.5 12.3333H17.6666L19.1666 17.6667H17.6666V17.8334ZM20.6667 17.8334L18.8333 12.5H20L22.1667 17.8334H20.6667Z" fill="currentColor" />
</svg>
