<svg width="15" height="36" viewBox="0 0 15 36" fill="currentColor" xmlns="http://www.w3.org/2000/svg" focusable="false">
	<path d="M12.2518 8.13924C12.2518 9.3617 11.6378 10.2106 10.5767 10.2106C9.51596 10.2106 8.90161 9.46368 8.90161 8.13924C8.90161 6.88284 9.48797 6 10.5767 6C11.6102 6 12.2518 6.74692 12.2518 8.13924Z" fill="currentColor" />
	<path d="M14.7617 19.5464L14.7638 19.509C14.9095 16.831 15.1683 12.0724 12.8629 11.37C11.5384 10.9665 9.78573 10.9314 8.29058 11.37C5.98313 12.0469 6.24303 16.817 6.38907 19.4975L6.39174 19.5464C6.45789 20.7611 7.20766 21.1052 7.7017 21.1052V17.8183C7.7017 16.3549 7.72098 14.9733 8.00302 14.1244C8.05186 13.9773 8.1281 13.9601 8.15717 13.9996V30C9.19226 30 10.0183 29.3559 10.1067 28.0624C10.1067 28.0624 10.3779 20.9672 10.3808 20.882C10.3837 20.7969 10.4546 20.6863 10.5767 20.6863C10.6989 20.6863 10.7701 20.7969 10.773 20.882C10.7759 20.9672 11.0468 28.0624 11.0468 28.0624C11.1356 29.3612 11.9691 30 12.9963 30V13.9996C13.0428 13.9535 13.1101 13.9691 13.1505 14.1244C13.3744 14.9865 13.4522 16.3681 13.4522 17.8183V21.1052C13.9458 21.1052 14.6957 20.761 14.7617 19.5464Z" fill="currentColor" />
	<path d="M6.75814 11.8079C5.26898 13.2147 5.48364 17.1544 5.6113 19.4974L5.61396 19.5464C5.67452 20.6584 6.43565 21.5595 6.94295 21.7039V29.1724C6.0091 29.1724 5.25135 28.5776 5.17064 27.3685C5.17064 27.3685 4.92442 20.7625 4.92178 20.6833C4.91914 20.604 4.85437 20.501 4.74334 20.501C4.63231 20.501 4.56784 20.604 4.5652 20.6833C4.56256 20.7625 4.31604 27.3685 4.31604 27.3685C4.23563 28.5728 3.48472 29.1724 2.54373 29.1724V14.2755C2.5173 14.2387 2.44799 14.2548 2.40359 14.3917C2.14719 15.182 2.12966 16.4684 2.12966 17.8309V20.8911C1.68053 20.8911 0.998923 20.5706 0.938789 19.4397L0.936366 19.3942C0.803599 16.8986 0.567324 12.4575 2.66501 11.8273C4.00047 11.426 5.56188 11.4505 6.75814 11.8079Z" fill="currentColor" />
	<path d="M6.94295 16.2856V18.3062L6.92392 17.8183C6.92392 17.2897 6.92644 16.7717 6.94295 16.2856Z" fill="currentColor" />
	<path d="M4.7433 10.7478C5.70795 10.7478 6.26611 9.95745 6.26611 8.81929C6.26611 7.52299 5.68284 6.82759 4.7433 6.82759C3.75354 6.82759 3.22049 7.64954 3.22049 8.81929C3.22049 10.0524 3.77899 10.7478 4.7433 10.7478Z" fill="currentColor" />
</svg>
