<svg width="27" height="36" viewBox="0 0 27 36" fill="currentColor" xmlns="http://www.w3.org/2000/svg" focusable="false">
	<path d="M26.7112 24.8448L23.0384 19.8365C22.8714 19.6695 22.7045 19.5026 22.5376 19.5026H20.2003C20.0334 19.5026 20.0334 19.5026 19.8664 19.5026L19.6995 19.6695L19.0317 22.0067C19.0317 22.1737 19.0317 22.3406 19.1987 22.5076L22.8714 27.5159C23.0384 27.6829 23.3723 27.6829 23.5392 27.5159L26.7112 25.1787C26.7112 25.1787 26.8781 25.0117 26.7112 24.8448ZM21.5359 21.6729C21.202 21.8398 20.8681 21.8398 20.7012 21.5059C20.5342 21.172 20.5342 20.8381 20.8681 20.6712C21.202 20.5042 21.5359 20.5042 21.7028 20.8381C21.8698 21.172 21.8698 21.5059 21.5359 21.6729Z" fill="currentColor" />
	<path d="M24.207 14.8281L20.3673 8.98503C20.0334 8.65114 19.6995 8.31725 19.1987 8.1503L16.0267 6.98169C15.025 8.48419 13.3556 10.1537 11.5192 9.81975C11.3523 9.81975 11.3523 9.65281 11.3523 9.65281C12.3539 9.48586 13.3556 8.81808 14.3573 7.81641C13.6895 7.98336 12.8548 8.1503 12.02 8.1503C10.0167 8.1503 8.18029 6.98169 8.18029 6.98169L5.00839 7.98336C4.50749 8.1503 4.17362 8.48419 3.83973 8.81808L0 14.8281L3.50584 18.334L5.67609 16.4976V29.0184H18.6978V16.3306L20.8681 18.167L24.207 14.8281Z" fill="currentColor" />
</svg>
