<svg width="20" height="36" viewBox="0 0 20 36" fill="currentColor" xmlns="http://www.w3.org/2000/svg" focusable="false">
	<path d="M19.1549 10.2388H17.7465V8.74627C17.7465 8.2985 17.4648 8 17.0423 8C12.1127 8 10.7042 8 5.77463 8C3.94365 8 2.11267 8.74627 2.11267 10.6866V13.9701C0.98592 14.2687 0 15.0149 0 16.5075V26.0597C0 27.1045 0.845068 28 1.83099 28H9.85913C10.2817 28 10.5633 27.7015 10.5633 27.2537V17.2537C10.5633 16.8059 10.2817 16.5075 9.85913 16.5075C7.04227 16.5075 7.18306 16.5075 6.61972 16.5075H3.66198C3.23943 16.5075 2.67606 16.5075 2.11267 16.5075C1.97183 16.5075 1.83099 16.3582 1.83099 16.0597C2.11267 15.4627 3.23943 15.3134 3.66198 15.3134C11.9719 15.3134 3.80285 15.3134 11.9719 15.3134V26.5075H14.0845C14.5071 26.5075 14.7887 26.2089 14.7887 25.7612V11.4328C14.7887 10.9851 14.5071 10.6866 14.0845 10.6866C9.01412 10.6866 6.47884 10.6866 4.22532 10.6866C4.08452 10.6866 3.94365 10.5373 3.94365 10.2388C4.22532 9.64179 5.35208 9.49254 5.77463 9.49254C10.5633 9.49254 11.4084 9.49254 16.338 9.49254V24.1194H17.0423C17.4648 24.1194 17.7465 23.8208 17.7465 23.3732V11.4328H18.8732V22.6268H19.2958C19.7183 22.6268 20 22.3283 20 21.8806V11.1344C20 10.6866 19.5775 10.2388 19.1549 10.2388Z" fill="currentColor" />
</svg>
