<svg width="20" height="36" viewBox="0 0 20 36" fill="currentColor" xmlns="http://www.w3.org/2000/svg" focusable="false">
	<path d="M3.95788 9.92345C5.42288 9.74853 6.15543 8.52424 5.97236 7.12504C5.60604 5.55094 4.50727 4.85133 3.04217 5.02624C1.57706 5.37604 0.844523 6.42544 1.02766 7.82464C1.39393 9.39874 2.30961 10.2732 3.95788 9.92345Z" fill="currentColor" />
	<path d="M15.0713 17.0694C13.8391 15.6565 13.3111 15.6565 11.5508 16.1863C10.4946 16.7161 9.43845 17.0694 8.38234 17.5992C7.67823 15.1267 6.97413 13.0074 6.97413 13.0074C5.74197 9.65181 1.51736 10.8881 2.04543 13.8904C2.39748 16.0097 3.27756 19.012 3.80571 20.7781C4.15772 21.8378 5.38987 22.5442 6.97413 22.3676C8.20629 22.1909 12.0788 21.3079 12.0788 21.3079C12.0788 21.3079 13.135 25.1933 13.8391 27.136C14.5432 29.2553 16.1274 29.0786 16.6555 28.902L14.7192 19.3652C14.7192 19.3652 14.8952 19.3652 14.8952 19.5418C15.2473 20.4249 16.6555 23.4272 16.6555 23.4272C16.6555 23.4272 16.8315 23.6038 17.0075 23.7804C18.7677 25.3698 19.6479 24.4869 20 24.1336C19.824 23.6038 17.8877 20.2483 15.0713 17.0694Z" fill="currentColor" />
	<path d="M10.4322 22.3434C10.4322 22.3434 8.86731 22.7032 6.78087 23.063C5.04222 23.4229 3.30348 22.3434 2.95578 20.7241L1.39096 14.6072C1.39096 14.0675 0.869344 13.8875 0.521614 14.0675C0.173874 14.0675 0 14.4273 0 14.9671L1.39096 21.084C1.73869 22.1634 2.26029 23.063 3.12967 23.7826L1.39096 29H2.95578L4.34674 24.5023C4.86833 24.6822 5.21602 24.6822 5.7377 24.6822C6.08539 24.6822 6.43318 24.6822 6.78087 24.5023C6.95476 24.5023 7.12866 24.5023 7.30246 24.3224L9.0412 28.8202H10.606L8.69342 23.9626C9.73668 23.7826 10.4322 23.6027 10.4322 23.6027C10.7799 23.6027 11.1276 23.063 10.9537 22.7032C11.1276 22.5233 10.7799 22.3434 10.4322 22.3434Z" fill="currentColor" />
</svg>
