<svg width="10" height="36" viewBox="0 0 10 36" fill="currentColor" xmlns="http://www.w3.org/2000/svg" focusable="false">
	<path d="M4.07512 10.0352C5.15316 10.0352 5.77694 9.22163 5.77694 8.0501C5.77694 6.7158 5.1251 6 4.07512 6C2.969 6 2.37329 6.84605 2.37329 8.0501C2.37329 9.31936 2.99744 10.0352 4.07512 10.0352Z" fill="currentColor" />
	<path d="M9.3244 20.3708C9.3244 19.6966 8.91909 19.0225 8.37859 18.8876C8.37859 15.6517 8.51369 11.7416 6.21676 11.2023C5.00075 10.9326 3.37934 10.9326 2.16332 11.2023C-0.133606 11.6068 0.00149677 15.382 0.00149677 18.618C0.1366 19.6966 0.947306 20.1011 1.35261 20.1011C1.35261 20.1011 1.35261 16.8651 1.35261 16.7303C1.35261 15.5169 1.48772 14.4382 1.62282 14.0338C1.62282 13.8989 1.75801 13.8989 1.75801 13.8989V29C1.75801 29 3.51444 29 3.64954 27.1124C3.64954 27.1124 3.91984 20.1011 3.91984 19.9663C3.91984 19.8314 3.91984 19.8314 4.05494 19.8314C4.19004 19.8314 4.19004 19.9663 4.19004 19.9663C4.19004 20.1011 4.46025 27.1124 4.46025 27.1124C4.59535 29 6.35187 29 6.35187 29V26.3034H10V20.3708H9.3244ZM7.02747 19.0225C6.89237 19.1573 6.75726 19.427 6.62207 19.5618V13.764C6.62207 13.764 6.75726 13.764 6.75726 13.8989C6.89237 14.3034 7.02747 15.382 7.02747 16.5955C7.02747 16.7303 7.02747 18.0787 7.02747 19.0225ZM8.64879 20.3708H7.16257C7.16257 19.8314 7.43278 19.427 7.83817 19.427C8.24348 19.427 8.64879 19.8314 8.64879 20.3708Z" fill="currentColor" />
</svg>
