<svg fill="currentColor" height="36" viewBox="0 0 26 36" width="26" xmlns="http://www.w3.org/2000/svg" focusable="false">
	<path clip-rule="evenodd" d="m13.1025 5.11861 11.875 11.38709c.1562.1583.3125.3164.3125.6327v.7908c0 .3163-.1563.4744-.4687.4744h-2.0313v10.5964h-19.99997v-10.5964h-2.031246c-.312497 0-.468745-.1581-.468745-.4744v-.7908c0-.3163.156248-.4744.312497-.6327l11.875064-11.38709c.1562-.15815.4687-.15815.6249 0zm-.7812 10.12189c-.7812 0-1.7186 0-2.6562.3164v1.7396c.4687-.079.8594-.1581 1.2501-.2372.3905-.0791.7812-.1581 1.2499-.2372 1.0938 0 1.7187.3163 1.7187.9488 0 .6327-.3124.949-1.2499 1.4235l-1.25.6326c-1.2501.6327-2.03131 1.5816-2.18752 2.5305l.31252 1.5816h6.875v-1.8979h-5.1563c.1563-.1055.2951-.2109.434-.3163.2778-.2109.5556-.4218.9723-.6327l1.0937-.4744c1.4063-.4744 2.1875-1.4234 2.0312-2.6886 0-1.5816-1.0937-2.6887-3.4375-2.6887z" fill="currentColor" fill-rule="evenodd" />
</svg>
