<svg width="26" height="36" viewBox="0 0 26 36" fill="currentColor" xmlns="http://www.w3.org/2000/svg" focusable="false">
	<path d="M25.531 16.455L13.6926 5.13481C13.5012 4.95506 13.2068 4.95506 13.0154 5.13481L1.177 16.455C0.971171 16.6485 0.854004 16.921 0.854004 17.2065V17.963C0.854004 18.245 1.07792 18.4737 1.354 18.4737H3.354V29H23.354V18.4737H25.354C25.6301 18.4737 25.854 18.245 25.854 17.963V17.2065C25.854 16.921 25.7368 16.6485 25.531 16.455ZM6.43734 26.4737C6.43734 26.4737 6.85613 23.4565 7.65092 22.6554C8.28834 22.013 10.482 21.2353 11.3414 20.9475C11.418 20.6489 11.4739 20.3613 11.5124 20.1115C11.018 19.5631 10.6479 18.9053 10.5463 18.149C10.0454 18.0062 9.94484 17.0471 9.94484 16.6864C9.94484 16.3253 10.0135 16.1301 10.1538 16.0694C10.1865 16.0553 10.2175 16.056 10.249 16.0533C10.1788 15.4948 9.9858 13.5995 10.5078 12.9445C10.9287 12.4166 11.728 12.1003 12.458 11.9065C13.5087 11.6276 13.9169 11.8215 14.5166 12.1312C15.431 11.9069 15.9107 12.2414 16.305 12.9281C16.7202 13.6501 16.511 15.4943 16.4362 16.0495C16.4745 16.0501 16.5137 16.052 16.5542 16.0694C16.6945 16.1301 16.7632 16.3253 16.7632 16.6864C16.7632 17.0472 16.6627 18.0062 16.1617 18.149C16.0355 18.9336 15.6725 19.5837 15.1829 20.1253C15.22 20.3712 15.2776 20.6533 15.3605 20.9454C16.2158 21.2317 18.4183 22.0116 19.0572 22.6554C19.8519 23.4565 20.2707 26.4737 20.2707 26.4737H6.43734Z" fill="currentColor" />
</svg>
