<svg fill="currentColor" height="36" viewBox="0 0 25 36" width="25" xmlns="http://www.w3.org/2000/svg" focusable="false">
	<g fill="currentColor">
		<path clip-rule="evenodd" d="m22.102 6.42568c.3913.28377 1.6956 2.83784 2.2173 3.97292.1305.4257.2609.8514.2609 1.2771l-.2609 9.3649c-.2608 5.25-4.3043 5.9594-7.1739 5.9594s-7.0435-.7094-7.17389-5.9594l-.39131-9.3649c0-.4257.13044-.8514.26087-1.2771.52173-1.13508 1.69563-3.68915 2.21743-3.97292.6521-.28379 3.1304-.42568 5.0869-.42568 1.8261 0 4.3044.14189 4.9566.42568zm-3.7827 2.83784c0-.70947-.5217-1.27704-1.1739-1.27704s-1.1739.56757-1.1739 1.27704c0 .70945.5217 1.27698 1.1739 1.27698s1.1739-.56753 1.1739-1.27698zm-5.7391 12.20268c0 .7095.5217 1.277 1.1739 1.277s1.1739-.5675 1.1739-1.277-.5217-1.277-1.1739-1.277-1.1739.5675-1.1739 1.277zm6.6522 0c0 .7095.5217 1.277 1.1739 1.277s1.174-.5675 1.174-1.277-.5218-1.277-1.174-1.277-1.1739.5675-1.1739 1.277zm1.9565-4.8243 1.3044-4.3986c.1304-.2839-.1304-.5676-.2609-.5676h-10.1739c-.2609 0-.5218.2837-.5218.5676l1.3043 4.3986c.1305.1419.2609.2837.3913.2837h7.5653c.2609 0 .3913-.1418.3913-.2837z" fill-rule="evenodd" />
		<path d="m20.2156 29-.3-1.579c.3929-.0689.7429-.183 1.05-.283.162-.0528.312-.1017.45-.138l.5 2z" />
		<path d="m14.2272 29 .3-1.579c-.3929-.0689-.7429-.183-1.05-.283-.1619-.0528-.3119-.1017-.45-.138l-.5 2z" />
		<path d="m5.94392 13.4875c-.11664.7316-.60538 1.1706-1.31005 1.0515-.70454-.119-1.0412-.6349-.91482-1.4273.11985-.7519.59356-1.2143 1.31652-1.0922.68626.116 1.04126.6349.90835 1.468z" />
		<path d="m5.98334 22.3288c.10457.1736.14737.2446.33621.8368.29882.9372.83494 2.867 1.06703 3.8113-.23592.0736-1.07696.0007-1.37974-.7427-.06687-.1642-.15164-.3513-.25169-.5722-.20129-.4443-.46442-1.0253-.76827-1.8311-.07453-.1977-.1485-.3543-.184-.4232-.08974-.1743-.21845-.3031-.40711-.4918-.05825-.0583-.12229-.1223-.19261-.1952-.03413-.0353-.06794-.071-.10162-.1064-.08591-.0905-.17087-.1799-.25791-.2618-.27626.7045-.46857 1.127-.6099 1.4212-.17125.3385-.20029.3827-.33289.5848-.01137.0173-.02356.0359-.03664.0559-.28405.4398-.69448.9859-1.08858 1.5104-.29109.3875-.57332.7631-.789128 1.0752-.08773-.0873-.712901-.7711-.195947-1.702.168484-.3035.351735-.589.529085-.8655.15359-.2394.30284-.472.43431-.7034.06083-.1071.08585-.1473.10652-.1897.0269-.0551.04644-.1137.1282-.3282.18143-.4761.38806-1.2765.51463-1.7679 0 0 .50747.3015.8927.531.07504.0448.10772-.013.10772-.013l-.8807-.9499c-.02608-.028-.05379-.0568-.08251-.0865-.21971-.2276-.49572-.5135-.49572-1.0108 0-.4101.34992-2.0657.50998-2.8234.01741-.0823.03262-.1541.04481-.2125-.19614.1312-.66558.4537-.76927.6697-.25458.5303-.42062 1.7529-.52557 2.5711-.487477-.1045-.733636-.5576-.724272-1.0365.008358-.4309.053794-.9263.124619-1.3546.116199-.6792.225672-.8655.496723-1.1751.44606-.5032 1.32619-1.1769 1.79413-1.464.85059-.5217 2.2877.1611 2.4785.6509.04084.0611.2515.9291.36782 1.4082.03802.1568.06599.272.07454.3035.0744.2738.15943.577.26394.8091.06781.1543.29643.4413.42922.6081.01691.0212.0323.0405.04556.0573.04758.0602.13537.1669.24032.2943.22617.2747.53166.6457.68437.8559-.12625.0681-.74414.3457-1.33091-.2909-.0565-.0613-.12864-.1353-.20814-.2168-.26212-.2686-.60418-.6192-.72748-.8671-.13247-.2744-.2192-.5288-.29543-.7731-.17854.7791-.36927 1.6509-.49986 2.3563.3293.4242.65308.8507.96484 1.2869.02055.0293.04117.0586.06184.0878.1289.1829.26043.3695.39818.6025.01446.0245.02772.0465.0401.0671z" />
	</g>
</svg>
