<svg fill="currentColor" height="36" viewBox="0 0 21 36" width="21" xmlns="http://www.w3.org/2000/svg" focusable="false">
	<g fill="currentColor">
		<path clip-rule="evenodd" d="m17.4544 26h2.5456l-14.21035-15h-2.54557-.30636c-.86118 0-1.57888.7576-1.72241 1.8181-.287079 3.788-.287079 7.5758 0 11.3637 0 .9091.86123 1.8182 1.72241 1.8182zm-9.73791-10.2792-2.09289-2.2091-1.39401 2.9428 2.58373 1.3637z" fill-rule="evenodd" />
		<path clip-rule="evenodd" d="m20.7891 23.7495c-.0121.0856-.0294.1693-.0515.2505l-12.7376-12.8596v-1.43774c0-.99325.84325-1.70266 1.6865-1.70266h3.0919c.9838 0 1.6865.85133 1.6865 1.70266v1.70264h4.4973c.9838 0 1.8269.8513 1.8269 1.7026.2812 3.4053.2812 7.0944 0 10.6416zm-7.8702-12.3442h-3.2324v-1.70264h3.2324z" fill-rule="evenodd" />
		<path d="m.994385 6.19042-.82877.86823c-.0926864.0971-.0926864.2499 0 .347l19.476485 20.40395c.099.1037.2646.1037.3636 0l.8287-.8683c.0927-.0971.0927-.2499 0-.347l-19.47649-20.40388c-.09899-.1037-.26454-.1037-.363525 0z" />
	</g>
</svg>
