<svg fill="currentColor" height="36" viewBox="0 0 22 36" width="22" xmlns="http://www.w3.org/2000/svg" focusable="false">
	<g fill="currentColor">
		<path clip-rule="evenodd" d="m4.53925 8.65016 9.66195 9.97504-1.2279 1.3057c-.4259.2067-.8753.3609-1.3393.458v7.0238c.9946.0834 1.9846.2194 2.9663.4074.1273.0294.2413.104.323.2114.0817.1073.1263.2408.1263.3785s-.0446.2713-.1263.3786-.1957.1819-.323.2114h-8.19384c-.12741-.0295-.24141-.1041-.32313-.2114-.08171-.1073-.12623-.2409-.12623-.3786s.04452-.2712.12623-.3785c.08172-.1074.19572-.182.32313-.2114.9817-.188 1.97162-.324 2.96623-.4074v-7.0238c-1.06977-.2294-2.05988-.7627-2.86387-1.5425-.804-.7797-1.39133-1.7763-1.6986-2.8824-.33908-1.6307-.42764-3.298-.27097-4.9399zm1.35003 3.79954c-.00205 1.0163.10334 2.0348.31765 3.0366.16704.6488.4702 1.2496.88687 1.7578.41678.5081.93649.9109 1.5207 1.1781.45229.2388.45229 0 .45229 0-.54516-.4404-.99804-.9952-1.33016-1.6295-.51189-1.0502-.81535-2.1883-.90352-3.3463z" fill-rule="evenodd" />
		<path d="m5.28277 7.46212 1.12496 1.18804c.11058-.39983.23877-.79524.38438-1.18496 1.23398-.17957 2.4791-.25941 3.72449-.23881 1.2338.0048 2.4655.1081 3.6846.30905.3386.95057.5881 1.93393.7449 2.93596h-6.81384l7.12264 7.5219c.4341-.6068.7631-1.2937.9682-2.0293.6518-3.1345.3779-6.40472-.7849-9.36975-.0567-.13084-.1416-.24594-.2478-.33615s-.2308-.15308-.364-.18361c-1.4236-.26033-2.865-.39658-4.3098-.40738-1.44472.0108-2.88615.14705-4.30967.40738-.13328.03053-.25786.0934-.36403.18361-.10627.09021-.19111.20531-.24787.33615-.11244.28657-.21646.57599-.31226.86787z" />
		<path d="m1.05275 5.18293-.880198.8975c-.0958364.09771-.0958363.25416 0 .35188l20.415948 20.81709c.0985.1005.2603.1005.3588 0l.8802-.8975c.0958-.0977.0958-.2542 0-.3519l-20.41595-20.81707c-.09851-.10045-.26029-.10045-.3588 0z" />
	</g>
</svg>
