<svg xmlns="http://www.w3.org/2000/svg" width="185" height="227" viewBox="0 0 185 227" fill="none"><path fill="#8FCAE7" fill-rule="evenodd" d="M31.206 205.386c-2.116 15.826 49.196 26.149 93.361 18.945 44.165-7.204 64.426-35.337 43.351-50.328-21.075-14.99-134.596 15.556-136.712 31.383Z" clip-rule="evenodd" opacity=".505"/><path fill="#BFFFE3" fill-rule="evenodd" d="m23.528 159.089 24.298-2.9c2.94-.352 5.02-2.977 4.645-5.865L41.345 64.656 6.4 68.828l11.125 85.668c.376 2.888 3.063 4.944 6.003 4.593Z" clip-rule="evenodd"/><path fill="#A5E7CA" fill-rule="evenodd" d="m23.378 159.105 24.408-2.893c2.953-.35 5.04-2.981 4.662-5.877l-6.485-49.601-35.103 4.161 6.485 49.602c.38 2.895 3.08 4.958 6.033 4.608ZM1.31 64.502l43.728-5.337.575 4.527L1.885 69.03l-.576-4.528Z" clip-rule="evenodd"/><mask id="a" width="31" height="23" x="6" y="35" maskUnits="userSpaceOnUse" style="mask-type:alpha"><path fill="#fff" d="m36.136 43.164-24.429-7.972L6.735 49.69l24.429 7.972 4.972-14.498Z"/></mask><g mask="url(#a)"><path fill="#A5E7CA" fill-rule="evenodd" d="m8.148 45.742 26.022-3.234.563 4.614-26.022 3.235-.563-4.615Z" clip-rule="evenodd"/></g><path fill="#BFFFE3" fill-rule="evenodd" d="m13.442 49.727 16.423-2.101 1.597 13.184-16.422 2.1-1.598-13.183Z" clip-rule="evenodd"/><path fill="#A5E7CA" fill-rule="evenodd" d="m29.785 158.748 10.896-1.06.617 4.007-10.896 1.06-.617-4.007Zm3.341 3.805 4.888-.519.562 3.91-4.888.519-.562-3.91Z" clip-rule="evenodd"/><path fill="#6459E7" fill-rule="evenodd" d="m10.736 103.324 35.022-4.209.45 3.497-35.02 4.209-.452-3.497Z" clip-rule="evenodd"/><path fill="#4A2CB1" fill-rule="evenodd" d="m38.54 72.65 3.453-.318-.194-1.212-3.452.317.194 1.212Zm-3.662 9.25 8.255-1.095-.169-1.451-8.255 1.094.17 1.452Zm2.213 17.07 8.255-1.094-.169-1.452-8.255 1.094.17 1.452Zm5.179 8.236 4.068-.476-.198-1.499-4.068.476.198 1.499Zm-1.946-17.063 4.068-.475-.198-1.5-4.068.476.198 1.5Zm-1.017 25.889 8.255-1.094-.169-1.451-8.255 1.094.17 1.451Zm5.173 8.244 4.068-.475-.198-1.5-4.068.476.198 1.499Zm-2.96 8.834 8.255-1.094-.169-1.451-8.255 1.094.17 1.451Zm5.176 8.236 4.068-.475-.199-1.499-4.067.475.198 1.499Zm-2.963 8.827 8.255-1.094-.169-1.452-8.255 1.094.17 1.452Z" clip-rule="evenodd"/><path fill="#0C8751" fill-rule="evenodd" d="m14.87 63.143-1.712-13.31-4.54.547-.588-4.571 12.936-1.559L36.64 166.055l-2.491.3-.528-4.1-2.833.341-.528-4.101-6.826.823c-2.941.355-5.627-1.706-6-4.601L6.38 68.807l-4.643.56-.588-4.57 13.721-1.654Z" clip-rule="evenodd" opacity=".3"/><path fill="#4A2CB1" fill-rule="evenodd" d="m39.617 184.557-1.75.268-2.582-20.871 1.75-.269 2.582 20.872Z" clip-rule="evenodd"/><path fill="#BA7F48" fill-rule="evenodd" d="M103.128 71.505c1.774-2.083 2.974-4.634 2.774-7.494-.578-8.239-12.047-6.426-14.278-2.268-2.23 4.158-1.966 14.706.918 15.449 1.15.296 3.599-.43 6.092-1.932l-1.565 11.07h9.239l-3.18-14.825Z" clip-rule="evenodd"/><path fill="#191847" fill-rule="evenodd" d="M96.89 56.955c1.218-.2 4.497-.337 5.102-.337.386 0 .805.088 1.034-.267.187-.29.118-.782.174-1.119.065-.392.157-.778.251-1.164a11.81 11.81 0 0 1 1.229-3.121c1.054-1.84 2.598-3.28 4.548-4.118 2.153-.926 4.589-1.138 6.905-.95 2.478.2 4.722 1.019 7.061 1.789 2.23.733 4.566 1.022 6.898.664 2.349-.36 4.125-1.634 6.107-2.843 2.029-1.238 4.347-2.047 6.746-1.86 2.239.173 4.302 1.097 6.154 2.332 1.732 1.156 3.161 2.546 3.968 4.503.868 2.104.868 4.414-.56 6.274-2.069 2.697-5.91 3.394-9.106 3.324a17.395 17.395 0 0 1-5.409-.99c-2.328-.82-4.339-2.207-6.516-3.333a16.964 16.964 0 0 0-3.185-1.274c-1.075-.304-2.133-.443-3.106.206-1.029.687-1.951 1.361-3.128 1.79a10.085 10.085 0 0 1-3.529.634c-2.34-.018-4.648-.747-6.922-1.236-1.854-.398-3.837-.795-5.728-.412-.788.16-1.94.49-2.225 1.31 4.794.868 6.677 6.798 5.326 11.151-.73 2.35-5.115 5.096-6.82 3.861-1.08-.783-.425-1.81 0-2.488.813-1.299 1.091-2.967-.413-3.871-1.298-.78-2.661 1.072-2.687 1.07-.357-.028-3.438-1.77-5.56-4.313-2.094.124-2.412-1.257-1.912-2.386.5-1.13 3.62-2.55 5.303-2.826Z" clip-rule="evenodd"/><path fill="#BA7F48" fill-rule="evenodd" d="m108.613 118.297-28.607 47.825-21.447 40.432H53.94l35.934-88.257h18.739Z" clip-rule="evenodd"/><path fill="#191847" fill-rule="evenodd" d="M61.382 204.688c.43 1.15.646 2.01.646 2.581 0 .694-.116 1.707-.347 3.039H39.968c-.565-1.865-.239-2.872.977-3.021 1.215-.149 2.225-.283 3.03-.403l10.092-4.499a.385.385 0 0 1 .508.195l.004.01.65 1.574c1.124.525 2.039.787 2.743.787.571 0 1.36-.231 2.368-.692a.769.769 0 0 1 1.042.429Z" clip-rule="evenodd"/><path fill="#CA005D" fill-rule="evenodd" d="m64.517 200.079-8.909-2.695c3.903-11.668 8.687-24.508 14.352-38.52 5.664-14.013 11.747-27.535 18.25-40.567h25.16c-7.229 16.485-14.893 31.464-22.991 44.937-8.099 13.472-16.72 25.754-25.862 36.845Z" clip-rule="evenodd"/><path fill="#BA7F48" fill-rule="evenodd" d="M110.492 118.297c2.7 16.806 7.907 38.277 8.398 38.94.328.442 12.123 4.394 35.384 11.857l-.998 4.073c-27.739-4.002-42.355-7.107-43.848-9.315-2.24-3.312-13.424-29.477-17.755-45.555h18.819Z" clip-rule="evenodd"/><path fill="#E86166" fill-rule="evenodd" d="m146.096 165.573-1.757 6.56c-20.748 1.82-33.46.505-38.138-3.944-4.677-4.45-10.008-21.08-15.992-49.892H114.2c3.792 23.593 5.911 35.885 6.359 36.875.448.991 8.96 4.457 25.536 10.401Z" clip-rule="evenodd"/><path fill="#191847" fill-rule="evenodd" d="M153.137 167.394c1.207-.225 2.092-.288 2.654-.189.684.121 1.661.411 2.933.87l-3.771 21.384c-1.935.231-2.87-.264-2.806-1.487.065-1.223.108-2.241.13-3.054l-2.679-10.72a.386.386 0 0 1 .281-.467l.01-.003 1.663-.365c.712-1.017 1.13-1.872 1.252-2.565.099-.563.009-1.381-.271-2.453a.77.77 0 0 1 .604-.951Z" clip-rule="evenodd"/><path fill="#BA7F48" fill-rule="evenodd" d="m75.488 112.18-10.905 10.639c-3.173 1.353-5.773 2.848-7.8 4.483-.456.55-.952 1.603 1.192 1.132 2.145-.471 4.422-.871 4.825-.173.403.697-.785 1.766-.04 2.678.497.609 2.167-1.327 5.01-5.806l11.34-6.686-3.622-6.267Zm48.406 1.5-8.045.032c4.968 16.036 7.65 24.544 8.045 25.525.891 2.208-.994 5.57-1.8 7.377 2.626 1.175 2.346-3.176 5.658-1.635 3.023 1.406 5.323 3.955 8.816 1.8.429-.265.9-1.263-.237-2.043-2.833-1.942-6.915-5.341-7.466-6.46-.753-1.526-2.409-9.725-4.971-24.596Z" clip-rule="evenodd"/><path fill="#0D99FF" fill-rule="evenodd" d="m101.032 79.918-3.33-.57c-5.73 14.317-15.737 27.326-30.019 39.027l10.792 13.111c14.28-16.661 23.082-33.85 22.557-51.568Z" clip-rule="evenodd"/><path fill="#DDE3E9" fill-rule="evenodd" d="M115.545 121.755H85.901C92.77 105.056 96.203 90.871 96.203 79.2l8.942-1.333c7.027 11.303 9.012 25.218 10.4 43.888Z" clip-rule="evenodd"/><path fill="#8FCAE7" fill-rule="evenodd" d="m105.334 77.874-.003-.007h-.584c-.698.024-1.762.068-3.191.13l-2.161 6.175c-.229 7.529-1.563 22.7-4.004 45.516h19.432a118.195 118.195 0 0 1-.252 4.771h14.448c-2.161-24.383-10.054-43.247-23.678-56.592l-.007.007Z" clip-rule="evenodd"/><path fill="#0D99FF" fill-rule="evenodd" d="M113.536 109.523c-.553 9.823-1.937 16.595-4.154 20.315h5.433c.238-7.067-.188-13.839-1.279-20.315Z" clip-rule="evenodd"/><path fill="#fff" fill-opacity=".2" fill-rule="evenodd" d="m110.494 117.908-9.582-4.455v4.455h9.582Z" clip-rule="evenodd"/><path fill="#8FCAE7" fill-rule="evenodd" d="m72.01 63.406 6.966-4.875-.634-.906-6.965 4.875.634.906Zm-4.42-2.752 1.006-5.34-1.087-.205-1.006 5.34 1.087.205Zm-12.118-5.09 5.03 6.191.858-.697-5.03-6.19-.858.696Zm24.958 10.28h-6.58v1.106h6.578v-1.106Zm-7.613 6.183 5.727 3.096.526-.973-5.727-3.095-.526.972Zm-4.89 2.968 3.327 8.358 1.028-.41-3.328-8.357-1.027.409Zm-3.281.715-.774 4.644 1.09.182.775-4.643-1.091-.182Zm-4.173-2.382-3.096 4.643.92.614 3.096-4.643-.92-.614Zm-2.762-3.633-7.893 1.858.253 1.076 7.894-1.857-.254-1.077Zm.881-4.928-5.495-2.322-.43 1.019 5.494 2.322.43-1.02Z" clip-rule="evenodd"/><path fill="#8FCAE7" d="M79.27 60.285a2.283 2.283 0 1 1 0-4.566 2.283 2.283 0 0 1 0 4.566Z"/><path fill="#01689B" d="M65.96 77.966c-5.514 0-9.984-4.47-9.984-9.983 0-5.513 4.47-9.983 9.983-9.983 5.514 0 9.983 4.47 9.983 9.983 0 5.513-4.47 9.983-9.983 9.983Z"/><path fill="#8FCAE7" fill-rule="evenodd" d="M79.27 55.99a2.006 2.006 0 1 1 0 4.013 2.006 2.006 0 0 1 0-4.013Zm2.56 2.007a2.56 2.56 0 1 0-5.119 0 2.56 2.56 0 0 0 5.12 0Z" clip-rule="evenodd"/><path fill="#8FCAE7" d="M54.974 56.18a2.05 2.05 0 1 1 0-4.102 2.05 2.05 0 0 1 0 4.102Z"/><path fill="#8FCAE7" fill-rule="evenodd" d="M54.974 52.358a1.774 1.774 0 1 1 0 3.548 1.774 1.774 0 0 1 0-3.548Zm2.327 1.774a2.327 2.327 0 1 0-4.654 0 2.327 2.327 0 0 0 4.654 0Z" clip-rule="evenodd"/><path fill="#8FCAE7" d="M48.697 74.442a2.206 2.206 0 1 1 0-4.41 2.206 2.206 0 0 1 0 4.41Z"/><path fill="#8FCAE7" fill-rule="evenodd" d="M48.702 70.319a1.93 1.93 0 1 1 0 3.858 1.93 1.93 0 0 1 0-3.859Zm2.482 1.929a2.482 2.482 0 1 0-4.964 0 2.482 2.482 0 0 0 4.964 0Z" clip-rule="evenodd"/><path fill="#8FCAE7" d="M72.112 86.444a2.554 2.554 0 1 1 0-5.108 2.554 2.554 0 0 1 0 5.108Z"/><path fill="#8FCAE7" fill-rule="evenodd" d="M72.115 81.608a2.277 2.277 0 1 1 0 4.554 2.277 2.277 0 0 1 0-4.555Zm2.83 2.277a2.83 2.83 0 1 0-5.66 0 2.83 2.83 0 0 0 5.66 0Z" clip-rule="evenodd"/><path fill="#8FCAE7" d="M80.625 67.792a1.47 1.47 0 1 1 0-2.94 1.47 1.47 0 0 1 0 2.94Z"/><path fill="#8FCAE7" fill-rule="evenodd" d="M80.627 65.123a1.194 1.194 0 1 1 0 2.388 1.194 1.194 0 0 1 0-2.388Zm1.747 1.194a1.747 1.747 0 1 0-3.493 0 1.747 1.747 0 0 0 3.493 0Z" clip-rule="evenodd"/><path fill="#8FCAE7" d="M70.878 67.321a.774.774 0 1 1 0-1.547.774.774 0 0 1 0 1.547Z"/><path fill="#8FCAE7" fill-rule="evenodd" d="M70.878 66.06a.497.497 0 1 1 0 .996.497.497 0 0 1 0-.995Zm1.05.498a1.05 1.05 0 1 0-2.1 0 1.05 1.05 0 0 0 2.1 0Z" clip-rule="evenodd"/><path fill="#8FCAE7" d="M67.896 64.69a1.896 1.896 0 1 1 0-3.792 1.896 1.896 0 0 1 0 3.792Z"/><path fill="#8FCAE7" fill-rule="evenodd" d="M67.896 61.178a1.62 1.62 0 1 1 0 3.239 1.62 1.62 0 0 1 0-3.24Zm2.173 1.62a2.172 2.172 0 1 0-4.345 0 2.172 2.172 0 0 0 4.345 0Z" clip-rule="evenodd"/><path fill="#8FCAE7" d="M63.564 75.296a1.277 1.277 0 1 1 0-2.554 1.277 1.277 0 0 1 0 2.554Z"/><path fill="#8FCAE7" fill-rule="evenodd" d="M63.564 73.014a1 1 0 1 1 0 2 1 1 0 0 1 0-2Zm1.554 1a1.553 1.553 0 1 0-3.107 0 1.553 1.553 0 0 0 3.107 0Z" clip-rule="evenodd"/><path fill="#8FCAE7" d="M66.35 71.113a1.045 1.045 0 1 1 0-2.09 1.045 1.045 0 0 1 0 2.09Z"/><path fill="#8FCAE7" fill-rule="evenodd" d="M66.352 69.303a.768.768 0 1 1 0 1.536.768.768 0 0 1 0-1.536Zm1.321.768a1.321 1.321 0 1 0-2.642 0 1.321 1.321 0 0 0 2.642 0Z" clip-rule="evenodd"/><path fill="#8FCAE7" d="M61.047 70.416a.696.696 0 1 1 0-1.393.696.696 0 0 1 0 1.393Z"/><path fill="#8FCAE7" fill-rule="evenodd" d="M61.045 69.303a.42.42 0 1 1 0 .84.42.42 0 0 1 0-.84Zm.973.42a.973.973 0 1 0-1.946 0 .973.973 0 0 0 1.946 0Z" clip-rule="evenodd"/><path fill="#8FCAE7" d="M70.182 74.293a.62.62 0 1 1 0-1.238.62.62 0 0 1 0 1.238Z"/><path fill="#8FCAE7" fill-rule="evenodd" d="M70.181 73.326a.343.343 0 1 1 0 .686.343.343 0 0 1 0-.686Zm.896.343a.896.896 0 1 0-1.791 0 .896.896 0 0 0 1.79 0ZM68.13 52.442a1.304 1.304 0 1 1 0 2.609 1.304 1.304 0 0 1 0-2.61Zm2.41 1.304a2.41 2.41 0 1 0-4.82 0 2.41 2.41 0 0 0 4.82 0Zm-19.053 7.055a1.305 1.305 0 1 1 0 2.61 1.305 1.305 0 0 1 0-2.61Zm2.41 1.304a2.41 2.41 0 1 0-4.82 0 2.41 2.41 0 0 0 4.82 0Zm26.194 12.391a.879.879 0 1 1 0 1.758.879.879 0 0 1 0-1.758Zm1.985.88a1.985 1.985 0 1 0-3.97 0 1.985 1.985 0 0 0 3.97 0Zm-25.4 3.074a1.691 1.691 0 1 1 0 3.382 1.691 1.691 0 0 1 0-3.382Zm2.797 1.69a2.797 2.797 0 1 0-5.594 0 2.797 2.797 0 0 0 5.594 0Zm4.826.552a.879.879 0 1 1 0 1.757.879.879 0 0 1 0-1.757Zm1.984.879a1.985 1.985 0 1 0-3.969 0 1.985 1.985 0 0 0 3.97 0Z" clip-rule="evenodd"/><path fill="#8FCAE7" d="M61.63 66.245a1.509 1.509 0 1 1 0-3.018 1.509 1.509 0 0 1 0 3.018Z"/><path fill="#8FCAE7" fill-rule="evenodd" d="M61.63 63.498a1.233 1.233 0 1 1 0 2.465 1.233 1.233 0 0 1 0-2.465Zm1.785 1.233a1.786 1.786 0 1 0-3.57 0 1.786 1.786 0 0 0 3.57 0Z" clip-rule="evenodd"/><path fill="#CEC8FE" fill-rule="evenodd" d="m130.67 21.884-8.053 2.727-.354-1.047 8.052-2.728.355 1.048Zm.4-5.191-4.899-2.35.478-.996 4.899 2.35-.478.996Zm3.066-12.78 2.013 7.719-1.07.279-2.013-7.72 1.07-.278Zm-6.484 26.201 3.893-5.301.891.654-3.893 5.302-.891-.655Zm9.488-2.474-.895 6.447-1.095-.152.895-6.448 1.095.153Zm5.289-2.186 4.767 7.63-.938.585-4.767-7.63.938-.585Zm2.516-2.224 4.201 2.125-.499.987-4.201-2.125.499-.987Zm.548-4.774 5.575.254-.05 1.104-5.575-.253.05-1.105Zm-1.293-4.372 6.169-5.263.718.84-6.17 5.264-.717-.841Zm-4.494-2.209 1.381-5.802 1.076.256-1.381 5.802-1.076-.256Z" clip-rule="evenodd"/><path fill="#6459E7" d="M145.987 25.627c3.264-4.444 2.307-10.692-2.137-13.955-4.444-3.264-10.692-2.307-13.956 2.137-3.263 4.444-2.306 10.692 2.138 13.955 4.444 3.264 10.692 2.307 13.955-2.137Z"/><path fill="#CEC8FE" fill-rule="evenodd" d="M120.497 26.599a2.56 2.56 0 1 1 3.032-4.127 2.56 2.56 0 0 1-3.032 4.127ZM131.9 4.539a2.327 2.327 0 1 1 2.754-3.751 2.327 2.327 0 0 1-2.754 3.751Zm18.217 5.791a2.481 2.481 0 1 1 2.937-4 2.481 2.481 0 0 1-2.937 4Zm-4.675 26.043a2.83 2.83 0 1 1 3.35-4.562 2.83 2.83 0 0 1-3.35 4.562Zm-18.559-4.41a1.746 1.746 0 1 1 2.067-2.816 1.746 1.746 0 0 1-2.067 2.816Zm6.37-8.283a1.05 1.05 0 1 1 1.24-1.693 1.05 1.05 0 0 1-1.24 1.693Zm-1.925-3.721a2.173 2.173 0 1 1 2.572-3.502 2.173 2.173 0 0 1-2.572 3.502Zm11.975 2.652a1.553 1.553 0 1 1 1.837-2.504 1.553 1.553 0 0 1-1.837 2.504Zm-4.695-.278a1.321 1.321 0 1 1 1.564-2.13 1.321 1.321 0 0 1-1.564 2.13Zm3.067-4.764a.973.973 0 1 1 1.152-1.57.973.973 0 0 1-1.152 1.57Zm-2.181 9.639a.895.895 0 1 1 1.058-1.443.895.895 0 0 1-1.058 1.443Zm-15.366-14.942a1.304 1.304 0 1 0 2.1 1.545 1.304 1.304 0 0 0-2.1-1.545Zm-.376 2.715a2.411 2.411 0 1 1 2.854-3.883 2.411 2.411 0 0 1-2.854 3.883ZM140.715 3.8a1.304 1.304 0 1 0 2.103 1.544 1.304 1.304 0 0 0-2.103-1.544Zm-.375 2.714a2.41 2.41 0 1 1 2.853-3.885 2.41 2.41 0 0 1-2.853 3.885Zm-5.515 28.446a.878.878 0 1 0 1.415 1.041.878.878 0 0 0-1.415-1.04Zm-.467 2.12a1.986 1.986 0 1 1 2.352-3.2 1.986 1.986 0 0 1-2.352 3.2Zm17.509-18.654a1.691 1.691 0 1 0 2.726 2.002 1.691 1.691 0 0 0-2.726-2.002Zm-.292 3.255a2.797 2.797 0 1 1 3.31-4.51 2.797 2.797 0 0 1-3.31 4.51Zm-2.414 4.217a.878.878 0 1 0 1.415 1.04.878.878 0 0 0-1.415-1.04Zm-.467 2.12a1.986 1.986 0 1 1 2.352-3.2 1.986 1.986 0 0 1-2.352 3.2Zm-11.869-12.273a1.787 1.787 0 0 1 2.114-2.879 1.785 1.785 0 1 1-2.114 2.879Z" clip-rule="evenodd"/><path fill="#1FB573" fill-rule="evenodd" d="m172.335 95.322 8.51-5.957-.775-1.107-8.51 5.957.775 1.107Zm-5.401-3.36 1.229-6.524-1.328-.25-1.229 6.524 1.328.25Zm-14.804-6.219 6.146 7.564 1.049-.852-6.147-7.564-1.048.852Zm30.494 12.562h-8.037v1.35h8.037v-1.35Zm-9.3 7.555 6.997 3.783.643-1.189-6.998-3.782-.642 1.188Zm-5.979 3.632 4.066 10.212 1.256-.5-4.066-10.212-1.256.5Zm-4.009.867-.946 5.674 1.333.222.945-5.674-1.332-.222Zm-5.097-2.914-3.782 5.674 1.124.749 3.783-5.673-1.125-.75Zm-3.371-4.437-9.645 2.269.31 1.315 9.645-2.269-.31-1.315Zm1.075-6.023-6.713-2.837-.526 1.245 6.713 2.837.526-1.245Z" clip-rule="evenodd"/><path fill="#1FB573" d="M181.205 91.516a2.79 2.79 0 1 1 0-5.579 2.79 2.79 0 0 1 0 5.58Z"/><path fill="#A5E7CA" d="M164.945 113.122c-6.737 0-12.198-5.461-12.198-12.198 0-6.736 5.461-12.197 12.198-12.197 6.736 0 12.197 5.46 12.197 12.197 0 6.737-5.461 12.198-12.197 12.198Z"/><path fill="#1FB573" fill-rule="evenodd" d="M181.21 86.261a2.451 2.451 0 1 1 0 4.903 2.451 2.451 0 0 1 0-4.903Zm3.127 2.452a3.127 3.127 0 1 0-6.254 0 3.127 3.127 0 0 0 6.254 0Z" clip-rule="evenodd"/><path fill="#1FB573" d="M151.52 86.504a2.506 2.506 0 1 1 0-5.012 2.506 2.506 0 0 1 0 5.012Z"/><path fill="#1FB573" fill-rule="evenodd" d="M151.519 81.824a2.168 2.168 0 1 1 0 4.335 2.168 2.168 0 0 1 0-4.335Zm2.844 2.168a2.844 2.844 0 1 0-5.687 0 2.844 2.844 0 0 0 5.687 0Z" clip-rule="evenodd"/><path fill="#1FB573" d="M143.852 108.812a2.695 2.695 0 1 1 0-5.39 2.695 2.695 0 0 1 0 5.39Z"/><path fill="#1FB573" fill-rule="evenodd" d="M143.859 103.769a2.357 2.357 0 1 1 0 4.715 2.357 2.357 0 0 1 0-4.715Zm3.033 2.357a3.033 3.033 0 1 0-6.066.002 3.033 3.033 0 0 0 6.066-.002Z" clip-rule="evenodd"/><path fill="#1FB573" d="M172.461 123.467a3.12 3.12 0 1 1 0-6.24 3.12 3.12 0 0 1 0 6.24Z"/><path fill="#1FB573" fill-rule="evenodd" d="M172.463 117.574a2.783 2.783 0 1 1 0 5.566 2.783 2.783 0 0 1 0-5.566Zm3.458 2.783a3.459 3.459 0 1 0-6.917 0 3.459 3.459 0 0 0 6.917 0Z" clip-rule="evenodd"/><path fill="#1FB573" d="M182.866 100.679a1.796 1.796 0 1 1 0-3.592 1.796 1.796 0 0 1 0 3.592Z"/><path fill="#1FB573" fill-rule="evenodd" d="M182.866 97.433a1.459 1.459 0 1 1-.001 2.918 1.459 1.459 0 0 1 .001-2.918Zm2.134 1.46a2.135 2.135 0 1 0-4.27 0 2.135 2.135 0 0 0 4.27 0Z" clip-rule="evenodd"/><path fill="#1FB573" d="M170.953 100.118a.945.945 0 1 1 0-1.89.945.945 0 0 1 0 1.89Z"/><path fill="#1FB573" fill-rule="evenodd" d="M170.952 98.558a.608.608 0 1 1 0 1.216.608.608 0 0 1 0-1.216Zm1.284.608a1.284 1.284 0 1 0-2.568.001 1.284 1.284 0 0 0 2.568 0Z" clip-rule="evenodd"/><path fill="#1FB573" d="M167.311 96.899a2.317 2.317 0 1 1 0-4.633 2.317 2.317 0 0 1 0 4.633Z"/><path fill="#1FB573" fill-rule="evenodd" d="M167.307 92.605a1.979 1.979 0 1 1 0 3.958 1.979 1.979 0 0 1 0-3.958Zm2.655 1.98a2.655 2.655 0 1 0-5.31 0 2.655 2.655 0 0 0 5.31 0Z" clip-rule="evenodd"/><path fill="#1FB573" d="M162.016 109.863a1.56 1.56 0 1 1 .002-3.122 1.56 1.56 0 0 1-.002 3.122Z"/><path fill="#1FB573" fill-rule="evenodd" d="M162.016 107.066a1.222 1.222 0 1 1 0 2.444 1.222 1.222 0 0 1 0-2.444Zm1.898 1.223a1.898 1.898 0 1 0-3.795 0 1.898 1.898 0 0 0 3.795 0Z" clip-rule="evenodd"/><path fill="#1FB573" d="M165.42 104.748a1.276 1.276 0 1 1-.001-2.553 1.276 1.276 0 0 1 .001 2.553Z"/><path fill="#1FB573" fill-rule="evenodd" d="M165.422 102.535a.938.938 0 1 1 0 1.877.938.938 0 0 1 0-1.877Zm1.614.939a1.615 1.615 0 1 0-3.23 0 1.615 1.615 0 0 0 3.23 0Z" clip-rule="evenodd"/><path fill="#1FB573" d="M158.941 103.897a.851.851 0 1 1 0-1.702.851.851 0 0 1 0 1.702Z"/><path fill="#1FB573" fill-rule="evenodd" d="M158.937 102.535a.513.513 0 1 1 0 1.026.513.513 0 0 1 0-1.026Zm1.189.513a1.19 1.19 0 1 0-2.378 0 1.19 1.19 0 0 0 2.378 0Z" clip-rule="evenodd"/><path fill="#1FB573" d="M170.101 108.63a.757.757 0 1 1 0-1.514.757.757 0 0 1 0 1.514Z"/><path fill="#1FB573" fill-rule="evenodd" d="M170.103 107.449a.418.418 0 1 1 0 .836.418.418 0 0 1 0-.836Zm1.094.419a1.094 1.094 0 1 0-2.189-.001 1.094 1.094 0 0 0 2.189.001Zm-3.603-25.938a1.593 1.593 0 1 1 .001 3.186 1.593 1.593 0 0 1-.001-3.187Zm2.945 1.593a2.945 2.945 0 1 0-5.89 0 2.945 2.945 0 0 0 5.89 0ZM147.26 92.14a1.594 1.594 0 1 1 0 3.188 1.594 1.594 0 0 1 0-3.188Zm2.945 1.594a2.945 2.945 0 1 0-5.89 0 2.945 2.945 0 0 0 5.89 0Zm32.003 15.14a1.074 1.074 0 1 1 0 2.148 1.074 1.074 0 0 1 0-2.148Zm2.425 1.074a2.425 2.425 0 1 0-4.85 0 2.425 2.425 0 0 0 4.85 0Zm-31.033 3.755a2.066 2.066 0 1 1 .002 4.132 2.066 2.066 0 0 1-.002-4.132Zm3.418 2.066a3.417 3.417 0 1 0-6.835 0 3.417 3.417 0 0 0 6.835 0Zm5.897.676a1.073 1.073 0 1 1 0 2.147 1.073 1.073 0 0 1 0-2.147Zm2.424 1.074a2.424 2.424 0 1 0-4.848-.002 2.424 2.424 0 0 0 4.848.002Z" clip-rule="evenodd"/><path fill="#1FB573" d="M159.655 98.797a1.844 1.844 0 1 1 0-3.688 1.844 1.844 0 0 1 0 3.688Z"/><path fill="#1FB573" fill-rule="evenodd" d="M159.655 95.441a1.507 1.507 0 1 1-.001 3.013 1.507 1.507 0 0 1 .001-3.013Zm2.181 1.506a2.182 2.182 0 1 0-4.363 0 2.182 2.182 0 0 0 4.363 0Z" clip-rule="evenodd"/></svg>