<svg xmlns="http://www.w3.org/2000/svg" width="315" height="97" viewBox="0 0 315 97" fill="none">
<g clip-path="url(#clip0)">
<rect width="315" height="97" fill="white"/>
<path d="M3.65067 11.5596V92.9172" stroke="#DADADA"/>
<path d="M26.5977 11.5596V92.9172" stroke="#DADADA"/>
<path d="M49.5447 11.5596V92.9172" stroke="#DADADA"/>
<path d="M72.4917 11.5596V92.9172" stroke="#DADADA"/>
<path d="M1.04305 47.5662C0.19085 47.5662 -0.5 48.2571 -0.5 49.1093V53.2815C-0.5 54.1337 0.19085 54.8245 1.04305 54.8245H1.58609V57.4536C1.58609 58.3059 2.27695 58.9967 3.12914 58.9967H4.17219C5.02437 58.9967 5.71523 58.3059 5.71523 57.4536V54.8245H6.25828C7.11047 54.8245 7.80132 54.1337 7.80132 53.2815V49.1093C7.80132 48.2571 7.11047 47.5662 6.25828 47.5662H1.04305Z" fill="#01689B" stroke="white"/>
<path d="M3.65066 43.394C2.51042 43.394 1.58609 44.3184 1.58609 45.4586C1.58609 46.5988 2.51042 47.5232 3.65066 47.5232C4.7909 47.5232 5.71523 46.5988 5.71523 45.4586C5.71523 44.3184 4.7909 43.394 3.65066 43.394Z" fill="#01689B" stroke="white"/>
<path d="M46.9371 21.4901C46.0849 21.4901 45.394 22.1809 45.394 23.0331V27.2053C45.394 28.0575 46.0849 28.7483 46.9371 28.7483H47.4801V31.3775C47.4801 32.2297 48.171 32.9205 49.0232 32.9205H50.0662C50.9184 32.9205 51.6093 32.2297 51.6093 31.3775V28.7483H52.1523C53.0045 28.7483 53.6954 28.0575 53.6954 27.2053V23.0331C53.6954 22.1809 53.0045 21.4901 52.1523 21.4901H46.9371Z" fill="#DADADA" stroke="white"/>
<path d="M49.5447 17.3179C48.4045 17.3179 47.4801 18.2423 47.4801 19.3825C47.4801 20.5227 48.4045 21.447 49.5447 21.447C50.6849 21.447 51.6093 20.5227 51.6093 19.3825C51.6093 18.2423 50.6849 17.3179 49.5447 17.3179Z" fill="#DADADA" stroke="white"/>
<path d="M75.0993 23.5762C74.2471 23.5762 73.5563 24.267 73.5563 25.1192V29.2914C73.5563 30.1436 74.2471 30.8344 75.0993 30.8344H75.6424V33.4636C75.6424 34.3158 76.3332 35.0066 77.1854 35.0066H78.2285C79.0807 35.0066 79.7715 34.3158 79.7715 33.4636V30.8344H80.3146C81.1668 30.8344 81.8576 30.1436 81.8576 29.2914V25.1192C81.8576 24.267 81.1668 23.5762 80.3146 23.5762H75.0993Z" fill="#DADADA" stroke="white"/>
<path d="M77.707 19.404C76.5668 19.404 75.6424 20.3283 75.6424 21.4685C75.6424 22.6087 76.5668 23.5331 77.707 23.5331C78.8472 23.5331 79.7715 22.6087 79.7715 21.4685C79.7715 20.3283 78.8472 19.404 77.707 19.404Z" fill="#DADADA" stroke="white"/>
<path d="M64.6689 15.2318C63.8167 15.2318 63.1258 15.9226 63.1258 16.7748V20.947C63.1258 21.7992 63.8167 22.4901 64.6689 22.4901H65.2119V25.1192C65.2119 25.9714 65.9027 26.6623 66.755 26.6623H67.798C68.6502 26.6623 69.3411 25.9714 69.3411 25.1192V22.4901H69.8841C70.7363 22.4901 71.4272 21.7992 71.4272 20.947V16.7748C71.4272 15.9226 70.7363 15.2318 69.8841 15.2318H64.6689Z" fill="#DADADA" stroke="white"/>
<path d="M67.2765 11.0596C66.1363 11.0596 65.2119 11.984 65.2119 13.1242C65.2119 14.2644 66.1363 15.1887 67.2765 15.1887C68.4167 15.1887 69.341 14.2644 69.341 13.1242C69.341 11.984 68.4167 11.0596 67.2765 11.0596Z" fill="#DADADA" stroke="white"/>
<path d="M46.9371 39.2219C46.0849 39.2219 45.394 39.9127 45.394 40.7649V44.9371C45.394 45.7893 46.0849 46.4801 46.9371 46.4801H47.4801V49.1093C47.4801 49.9615 48.171 50.6523 49.0232 50.6523H50.0662C50.9184 50.6523 51.6093 49.9615 51.6093 49.1093V46.4801H52.1523C53.0045 46.4801 53.6954 45.7893 53.6954 44.9371V40.7649C53.6954 39.9127 53.0045 39.2219 52.1523 39.2219H46.9371Z" fill="#DADADA" stroke="white"/>
<path d="M49.5447 35.0497C48.4045 35.0497 47.4801 35.974 47.4801 37.1142C47.4801 38.2544 48.4045 39.1788 49.5447 39.1788C50.6849 39.1788 51.6093 38.2544 51.6093 37.1142C51.6093 35.974 50.6849 35.0497 49.5447 35.0497Z" fill="#DADADA" stroke="white"/>
<path d="M75.0993 41.3079C74.2471 41.3079 73.5563 41.9988 73.5563 42.851V47.0232C73.5563 47.8754 74.2471 48.5662 75.0993 48.5662H75.6424V51.1954C75.6424 52.0476 76.3332 52.7384 77.1854 52.7384H78.2285C79.0807 52.7384 79.7715 52.0476 79.7715 51.1954V48.5662H80.3146C81.1668 48.5662 81.8576 47.8754 81.8576 47.0232V42.851C81.8576 41.9988 81.1668 41.3079 80.3146 41.3079H75.0993Z" fill="#DADADA" stroke="white"/>
<path d="M77.707 37.1358C76.5668 37.1358 75.6424 38.0601 75.6424 39.2003C75.6424 40.3405 76.5668 41.2649 77.707 41.2649C78.8472 41.2649 79.7715 40.3405 79.7715 39.2003C79.7715 38.0601 78.8472 37.1358 77.707 37.1358Z" fill="#DADADA" stroke="white"/>
<path d="M64.6689 32.9636C63.8167 32.9636 63.1258 33.6544 63.1258 34.5066V38.6788C63.1258 39.531 63.8167 40.2219 64.6689 40.2219H65.2119V42.851C65.2119 43.7032 65.9027 44.394 66.755 44.394H67.798C68.6502 44.394 69.3411 43.7032 69.3411 42.851V40.2219H69.8841C70.7363 40.2219 71.4272 39.531 71.4272 38.6788V34.5066C71.4272 33.6544 70.7363 32.9636 69.8841 32.9636H64.6689Z" fill="#DADADA" stroke="white"/>
<path d="M67.2765 28.7914C66.1363 28.7914 65.2119 29.7158 65.2119 30.856C65.2119 31.9962 66.1363 32.9205 67.2765 32.9205C68.4167 32.9205 69.341 31.9962 69.341 30.856C69.341 29.7158 68.4167 28.7914 67.2765 28.7914Z" fill="#DADADA" stroke="white"/>
<path d="M46.9371 56.9536C46.0849 56.9536 45.394 57.6445 45.394 58.4967V62.6689C45.394 63.5211 46.0849 64.2119 46.9371 64.2119H47.4801V66.8411C47.4801 67.6933 48.171 68.3841 49.0232 68.3841H50.0662C50.9184 68.3841 51.6093 67.6933 51.6093 66.8411V64.2119H52.1523C53.0045 64.2119 53.6954 63.5211 53.6954 62.6689V58.4967C53.6954 57.6445 53.0045 56.9536 52.1523 56.9536H46.9371Z" fill="#DADADA" stroke="white"/>
<path d="M49.5447 52.7815C48.4045 52.7815 47.4801 53.7058 47.4801 54.846C47.4801 55.9862 48.4045 56.9106 49.5447 56.9106C50.6849 56.9106 51.6093 55.9862 51.6093 54.846C51.6093 53.7058 50.6849 52.7815 49.5447 52.7815Z" fill="#DADADA" stroke="white"/>
<path d="M75.0993 59.0397C74.2471 59.0397 73.5563 59.7306 73.5563 60.5828V64.755C73.5563 65.6072 74.2471 66.298 75.0993 66.298H75.6424V68.9272C75.6424 69.7794 76.3332 70.4702 77.1854 70.4702H78.2285C79.0807 70.4702 79.7715 69.7794 79.7715 68.9272V66.298H80.3146C81.1668 66.298 81.8576 65.6072 81.8576 64.755V60.5828C81.8576 59.7306 81.1668 59.0397 80.3146 59.0397H75.0993Z" fill="#DADADA" stroke="white"/>
<path d="M77.707 54.8676C76.5668 54.8676 75.6424 55.7919 75.6424 56.9321C75.6424 58.0723 76.5668 58.9967 77.707 58.9967C78.8472 58.9967 79.7715 58.0723 79.7715 56.9321C79.7715 55.7919 78.8472 54.8676 77.707 54.8676Z" fill="#DADADA" stroke="white"/>
<path d="M64.6689 50.6954C63.8167 50.6954 63.1258 51.3862 63.1258 52.2384V56.4106C63.1258 57.2628 63.8167 57.9536 64.6689 57.9536H65.2119V60.5828C65.2119 61.435 65.9027 62.1258 66.755 62.1258H67.798C68.6502 62.1258 69.3411 61.435 69.3411 60.5828V57.9536H69.8841C70.7363 57.9536 71.4272 57.2628 71.4272 56.4106V52.2384C71.4272 51.3862 70.7363 50.6954 69.8841 50.6954H64.6689Z" fill="#DADADA" stroke="white"/>
<path d="M67.2765 46.5232C66.1363 46.5232 65.2119 47.4476 65.2119 48.5878C65.2119 49.728 66.1363 50.6523 67.2765 50.6523C68.4167 50.6523 69.341 49.728 69.341 48.5878C69.341 47.4476 68.4167 46.5232 67.2765 46.5232Z" fill="#DADADA" stroke="white"/>
<path d="M46.9371 74.6854C46.0849 74.6854 45.394 75.3763 45.394 76.2285V80.4007C45.394 81.2529 46.0849 81.9437 46.9371 81.9437H47.4801V84.5729C47.4801 85.4251 48.171 86.1159 49.0232 86.1159H50.0662C50.9184 86.1159 51.6093 85.4251 51.6093 84.5729V81.9437H52.1523C53.0045 81.9437 53.6954 81.2529 53.6954 80.4007V76.2285C53.6954 75.3763 53.0045 74.6854 52.1523 74.6854H46.9371Z" fill="#DADADA" stroke="white"/>
<path d="M49.5447 70.5132C48.4045 70.5132 47.4801 71.4376 47.4801 72.5778C47.4801 73.718 48.4045 74.6424 49.5447 74.6424C50.6849 74.6424 51.6093 73.718 51.6093 72.5778C51.6093 71.4376 50.6849 70.5132 49.5447 70.5132Z" fill="#DADADA" stroke="white"/>
<path d="M75.0993 76.7715C74.2471 76.7715 73.5563 77.4624 73.5563 78.3146V82.4868C73.5563 83.339 74.2471 84.0298 75.0993 84.0298H75.6424V86.6589C75.6424 87.5112 76.3332 88.202 77.1854 88.202H78.2285C79.0807 88.202 79.7715 87.5112 79.7715 86.6589V84.0298H80.3146C81.1668 84.0298 81.8576 83.339 81.8576 82.4868V78.3146C81.8576 77.4624 81.1668 76.7715 80.3146 76.7715H75.0993Z" fill="#DADADA" stroke="white"/>
<path d="M77.707 72.5993C76.5668 72.5993 75.6424 73.5237 75.6424 74.6639C75.6424 75.8041 76.5668 76.7285 77.707 76.7285C78.8472 76.7285 79.7715 75.8041 79.7715 74.6639C79.7715 73.5237 78.8472 72.5993 77.707 72.5993Z" fill="#DADADA" stroke="white"/>
<path d="M64.6689 68.4272C63.8167 68.4272 63.1258 69.118 63.1258 69.9702V74.1424C63.1258 74.9946 63.8167 75.6854 64.6689 75.6854H65.2119V78.3146C65.2119 79.1668 65.9027 79.8576 66.755 79.8576H67.798C68.6502 79.8576 69.3411 79.1668 69.3411 78.3146V75.6854H69.8841C70.7363 75.6854 71.4272 74.9946 71.4272 74.1424V69.9702C71.4272 69.118 70.7363 68.4272 69.8841 68.4272H64.6689Z" fill="#DADADA" stroke="white"/>
<path d="M67.2765 64.255C66.1363 64.255 65.2119 65.1793 65.2119 66.3195C65.2119 67.4597 66.1363 68.3841 67.2765 68.3841C68.4167 68.3841 69.341 67.4597 69.341 66.3195C69.341 65.1793 68.4167 64.255 67.2765 64.255Z" fill="#DADADA" stroke="white"/>
<path d="M23.9901 64.255C23.1379 64.255 22.447 64.9458 22.447 65.798V69.9702C22.447 70.8224 23.1379 71.5133 23.9901 71.5133H24.5331V74.1424C24.5331 74.9946 25.2239 75.6854 26.0762 75.6854H27.1192C27.9714 75.6854 28.6623 74.9946 28.6623 74.1424V71.5133H29.2053C30.0575 71.5133 30.7483 70.8224 30.7483 69.9702V65.798C30.7483 64.9458 30.0575 64.255 29.2053 64.255H23.9901Z" fill="#DADADA" stroke="white"/>
<path d="M26.5977 60.0828C25.4575 60.0828 24.5331 61.0072 24.5331 62.1474C24.5331 63.2876 25.4575 64.2119 26.5977 64.2119C27.7379 64.2119 28.6623 63.2876 28.6623 62.1474C28.6623 61.0072 27.7379 60.0828 26.5977 60.0828Z" fill="#DADADA" stroke="white"/>
<path d="M4.28693 1.61937V3.77847H5.01706C5.3717 3.77847 5.65679 3.67417 5.87236 3.46556C6.08792 3.25695 6.1957 2.97533 6.1957 2.62069C6.1957 2.28692 6.09487 2.03659 5.89322 1.8697C5.69157 1.70281 5.36127 1.61937 4.90232 1.61937H4.28693ZM4.30779 4.83195V7.38742H2.95183V0.545031H4.9962C5.87236 0.545031 6.526 0.725822 6.95713 1.08742C7.39521 1.44901 7.61425 1.90795 7.61425 2.46424C7.61425 2.92318 7.50298 3.32649 7.28047 3.67417C7.05796 4.0149 6.75895 4.27218 6.38345 4.44602L8.19835 7.38742H6.60249L5.11093 4.83195H4.30779ZM10.9332 3.86192V2.85016H15.0428V3.86192H10.9332ZM10.9332 5.7394V4.72765H15.0428V5.7394H10.9332ZM20.6084 0.451157C21.2481 0.451157 21.794 0.711918 22.246 1.23344C22.7049 1.74801 22.9344 2.64503 22.9344 3.9245C22.9344 5.16225 22.6841 6.06622 22.1834 6.63642C21.6828 7.19967 21.1195 7.48129 20.4937 7.48129C19.8679 7.48129 19.3255 7.24486 18.8665 6.77202C18.4146 6.29917 18.1885 5.39867 18.1885 4.07053C18.1885 2.79105 18.4284 1.8697 18.9082 1.30645C19.395 0.736253 19.9617 0.451157 20.6084 0.451157ZM20.5563 1.53593C20.2989 1.53593 20.0765 1.71672 19.8887 2.07831C19.701 2.43295 19.6071 3.0553 19.6071 3.94536C19.6071 4.89106 19.694 5.53775 19.8679 5.88543C20.0417 6.22616 20.2642 6.39652 20.5354 6.39652C20.8205 6.39652 21.0535 6.21573 21.2342 5.85414C21.422 5.4856 21.5159 4.88063 21.5159 4.03924C21.5159 3.08659 21.4254 2.43295 21.2447 2.07831C21.0639 1.71672 20.8344 1.53593 20.5563 1.53593Z" fill="#01689B"/>
<path d="M120.472 11.5596V92.9172" stroke="#DADADA"/>
<path d="M143.419 11.5596V92.9172" stroke="#DADADA"/>
<path d="M166.366 11.5596V92.9172" stroke="#DADADA"/>
<path d="M189.313 11.5596V92.9172" stroke="#DADADA"/>
<path d="M117.864 47.5662C117.012 47.5662 116.321 48.257 116.321 49.1093V53.2815C116.321 54.1338 117.012 54.8245 117.864 54.8245H118.407V57.4536C118.407 58.306 119.099 58.9967 119.95 58.9967H120.993C121.845 58.9967 122.536 58.306 122.536 57.4536V54.8245H123.079C123.931 54.8245 124.623 54.1338 124.623 53.2815V49.1093C124.623 48.257 123.931 47.5662 123.079 47.5662H117.864Z" fill="#01689B" stroke="white"/>
<path d="M120.472 43.394C119.332 43.394 118.407 44.3183 118.407 45.4586C118.407 46.5989 119.332 47.5232 120.472 47.5232C121.612 47.5232 122.536 46.5989 122.536 45.4586C122.536 44.3183 121.612 43.394 120.472 43.394Z" fill="#01689B" stroke="white"/>
<path d="M140.811 30.8775C139.959 30.8775 139.268 31.5682 139.268 32.4205V36.5927C139.268 37.445 139.959 38.1358 140.811 38.1358H141.354V40.7649C141.354 41.6172 142.046 42.308 142.897 42.308H143.94C144.792 42.308 145.483 41.6172 145.483 40.7649V38.1358H146.026C146.878 38.1358 147.57 37.445 147.57 36.5927V32.4205C147.57 31.5682 146.878 30.8775 146.026 30.8775H140.811Z" fill="#DADADA" stroke="white"/>
<path d="M143.419 26.7053C142.279 26.7053 141.354 27.6296 141.354 28.7699C141.354 29.9102 142.279 30.8344 143.419 30.8344C144.559 30.8344 145.483 29.9102 145.483 28.7699C145.483 27.6296 144.559 26.7053 143.419 26.7053Z" fill="#DADADA" stroke="white"/>
<path d="M163.758 21.4901C162.906 21.4901 162.215 22.1808 162.215 23.0331V27.2053C162.215 28.0576 162.906 28.7483 163.758 28.7483H164.301V31.3775C164.301 32.2298 164.993 32.9205 165.844 32.9205H166.887C167.739 32.9205 168.43 32.2298 168.43 31.3775V28.7483H168.974C169.825 28.7483 170.517 28.0576 170.517 27.2053V23.0331C170.517 22.1808 169.825 21.4901 168.974 21.4901H163.758Z" fill="#DADADA" stroke="white"/>
<path d="M166.366 17.3179C165.226 17.3179 164.301 18.2422 164.301 19.3825C164.301 20.5227 165.226 21.447 166.366 21.447C167.506 21.447 168.43 20.5227 168.43 19.3825C168.43 18.2422 167.506 17.3179 166.366 17.3179Z" fill="#DADADA" stroke="white"/>
<path d="M191.921 23.5762C191.069 23.5762 190.377 24.2669 190.377 25.1192V29.2914C190.377 30.1437 191.069 30.8344 191.921 30.8344H192.464V33.4636C192.464 34.3159 193.155 35.0066 194.007 35.0066H195.05C195.901 35.0066 196.593 34.3159 196.593 33.4636V30.8344H197.136C197.988 30.8344 198.679 30.1437 198.679 29.2914V25.1192C198.679 24.2669 197.988 23.5762 197.136 23.5762H191.921Z" fill="#DADADA" stroke="white"/>
<path d="M194.528 19.404C193.388 19.404 192.464 20.3283 192.464 21.4685C192.464 22.6088 193.388 23.5331 194.528 23.5331C195.668 23.5331 196.593 22.6088 196.593 21.4685C196.593 20.3283 195.668 19.404 194.528 19.404Z" fill="#DADADA" stroke="white"/>
<path d="M181.49 15.2318C180.638 15.2318 179.947 15.9225 179.947 16.7748V20.947C179.947 21.7993 180.638 22.4901 181.49 22.4901H182.033V25.1192C182.033 25.9715 182.724 26.6623 183.576 26.6623H184.619C185.471 26.6623 186.162 25.9715 186.162 25.1192V22.4901H186.705C187.557 22.4901 188.248 21.7993 188.248 20.947V16.7748C188.248 15.9225 187.557 15.2318 186.705 15.2318H181.49Z" fill="#DADADA" stroke="white"/>
<path d="M184.098 11.0596C182.958 11.0596 182.033 11.9839 182.033 13.1242C182.033 14.2645 182.958 15.1887 184.098 15.1887C185.237 15.1887 186.162 14.2645 186.162 13.1242C186.162 11.9839 185.237 11.0596 184.098 11.0596Z" fill="#DADADA" stroke="white"/>
<path d="M163.758 39.2219C162.906 39.2219 162.215 39.9126 162.215 40.7649V44.9371C162.215 45.7894 162.906 46.4801 163.758 46.4801H164.301V49.1093C164.301 49.9616 164.993 50.6523 165.844 50.6523H166.887C167.739 50.6523 168.43 49.9616 168.43 49.1093V46.4801H168.974C169.825 46.4801 170.517 45.7894 170.517 44.9371V40.7649C170.517 39.9126 169.825 39.2219 168.974 39.2219H163.758Z" fill="#DADADA" stroke="white"/>
<path d="M166.366 35.0497C165.226 35.0497 164.301 35.974 164.301 37.1142C164.301 38.2545 165.226 39.1788 166.366 39.1788C167.506 39.1788 168.43 38.2545 168.43 37.1142C168.43 35.974 167.506 35.0497 166.366 35.0497Z" fill="#DADADA" stroke="white"/>
<path d="M191.921 41.3079C191.069 41.3079 190.377 41.9987 190.377 42.851V47.0232C190.377 47.8755 191.069 48.5662 191.921 48.5662H192.464V51.1954C192.464 52.0477 193.155 52.7384 194.007 52.7384H195.05C195.901 52.7384 196.593 52.0477 196.593 51.1954V48.5662H197.136C197.988 48.5662 198.679 47.8755 198.679 47.0232V42.851C198.679 41.9987 197.988 41.3079 197.136 41.3079H191.921Z" fill="#DADADA" stroke="white"/>
<path d="M194.528 37.1358C193.388 37.1358 192.464 38.06 192.464 39.2003C192.464 40.3406 193.388 41.2649 194.528 41.2649C195.668 41.2649 196.593 40.3406 196.593 39.2003C196.593 38.06 195.668 37.1358 194.528 37.1358Z" fill="#DADADA" stroke="white"/>
<path d="M181.49 32.9636C180.638 32.9636 179.947 33.6543 179.947 34.5066V38.6788C179.947 39.5311 180.638 40.2219 181.49 40.2219H182.033V42.851C182.033 43.7033 182.724 44.394 183.576 44.394H184.619C185.471 44.394 186.162 43.7033 186.162 42.851V40.2219H186.705C187.557 40.2219 188.248 39.5311 188.248 38.6788V34.5066C188.248 33.6543 187.557 32.9636 186.705 32.9636H181.49Z" fill="#DADADA" stroke="white"/>
<path d="M184.098 28.7914C182.958 28.7914 182.033 29.7157 182.033 30.856C182.033 31.9963 182.958 32.9205 184.098 32.9205C185.237 32.9205 186.162 31.9963 186.162 30.856C186.162 29.7157 185.237 28.7914 184.098 28.7914Z" fill="#DADADA" stroke="white"/>
<path d="M163.758 56.9536C162.906 56.9536 162.215 57.6444 162.215 58.4967V62.6689C162.215 63.5212 162.906 64.2119 163.758 64.2119H164.301V66.8411C164.301 67.6934 164.993 68.3841 165.844 68.3841H166.887C167.739 68.3841 168.43 67.6934 168.43 66.8411V64.2119H168.974C169.825 64.2119 170.517 63.5212 170.517 62.6689V58.4967C170.517 57.6444 169.825 56.9536 168.974 56.9536H163.758Z" fill="#01689B" stroke="white"/>
<path d="M166.366 52.7815C165.226 52.7815 164.301 53.7057 164.301 54.846C164.301 55.9863 165.226 56.9106 166.366 56.9106C167.506 56.9106 168.43 55.9863 168.43 54.846C168.43 53.7057 167.506 52.7815 166.366 52.7815Z" fill="#01689B" stroke="white"/>
<path d="M191.921 59.0397C191.069 59.0397 190.377 59.7305 190.377 60.5828V64.755C190.377 65.6073 191.069 66.298 191.921 66.298H192.464V68.9272C192.464 69.7795 193.155 70.4702 194.007 70.4702H195.05C195.901 70.4702 196.593 69.7795 196.593 68.9272V66.298H197.136C197.988 66.298 198.679 65.6073 198.679 64.755V60.5828C198.679 59.7305 197.988 59.0397 197.136 59.0397H191.921Z" fill="#DADADA" stroke="white"/>
<path d="M194.528 54.8676C193.388 54.8676 192.464 55.7918 192.464 56.9321C192.464 58.0724 193.388 58.9967 194.528 58.9967C195.668 58.9967 196.593 58.0724 196.593 56.9321C196.593 55.7918 195.668 54.8676 194.528 54.8676Z" fill="#DADADA" stroke="white"/>
<path d="M181.49 86.1589C180.638 86.1589 179.947 86.8497 179.947 87.702V91.8742C179.947 92.7265 180.638 93.4172 181.49 93.4172H182.033V96.0464C182.033 96.8987 182.724 97.5894 183.576 97.5894H184.619C185.471 97.5894 186.162 96.8987 186.162 96.0464V93.4172H186.705C187.557 93.4172 188.248 92.7265 188.248 91.8742V87.702C188.248 86.8497 187.557 86.1589 186.705 86.1589H181.49Z" fill="#DADADA" stroke="white"/>
<path d="M184.098 81.9868C182.958 81.9868 182.033 82.911 182.033 84.0513C182.033 85.1916 182.958 86.1159 184.098 86.1159C185.237 86.1159 186.162 85.1916 186.162 84.0513C186.162 82.911 185.237 81.9868 184.098 81.9868Z" fill="#DADADA" stroke="white"/>
<path d="M163.758 74.6854C162.906 74.6854 162.215 75.3762 162.215 76.2285V80.4007C162.215 81.253 162.906 81.9437 163.758 81.9437H164.301V84.5729C164.301 85.4252 164.993 86.1159 165.844 86.1159H166.887C167.739 86.1159 168.43 85.4252 168.43 84.5729V81.9437H168.974C169.825 81.9437 170.517 81.253 170.517 80.4007V76.2285C170.517 75.3762 169.825 74.6854 168.974 74.6854H163.758Z" fill="#DADADA" stroke="white"/>
<path d="M166.366 70.5132C165.226 70.5132 164.301 71.4375 164.301 72.5778C164.301 73.7181 165.226 74.6424 166.366 74.6424C167.506 74.6424 168.43 73.7181 168.43 72.5778C168.43 71.4375 167.506 70.5132 166.366 70.5132Z" fill="#DADADA" stroke="white"/>
<path d="M191.921 76.7715C191.069 76.7715 190.377 77.4623 190.377 78.3146V82.4868C190.377 83.3391 191.069 84.0298 191.921 84.0298H192.464V86.6589C192.464 87.5113 193.155 88.202 194.007 88.202H195.05C195.901 88.202 196.593 87.5113 196.593 86.6589V84.0298H197.136C197.988 84.0298 198.679 83.3391 198.679 82.4868V78.3146C198.679 77.4623 197.988 76.7715 197.136 76.7715H191.921Z" fill="#DADADA" stroke="white"/>
<path d="M194.528 72.5993C193.388 72.5993 192.464 73.5236 192.464 74.6639C192.464 75.8042 193.388 76.7285 194.528 76.7285C195.668 76.7285 196.593 75.8042 196.593 74.6639C196.593 73.5236 195.668 72.5993 194.528 72.5993Z" fill="#DADADA" stroke="white"/>
<path d="M181.49 68.4272C180.638 68.4272 179.947 69.1179 179.947 69.9702V74.1424C179.947 74.9947 180.638 75.6854 181.49 75.6854H182.033V78.3146C182.033 79.1669 182.724 79.8576 183.576 79.8576H184.619C185.471 79.8576 186.162 79.1669 186.162 78.3146V75.6854H186.705C187.557 75.6854 188.248 74.9947 188.248 74.1424V69.9702C188.248 69.1179 187.557 68.4272 186.705 68.4272H181.49Z" fill="#01689B" stroke="white"/>
<path d="M184.098 64.255C182.958 64.255 182.033 65.1793 182.033 66.3195C182.033 67.4598 182.958 68.3841 184.098 68.3841C185.237 68.3841 186.162 67.4598 186.162 66.3195C186.162 65.1793 185.237 64.255 184.098 64.255Z" fill="#01689B" stroke="white"/>
<path d="M140.811 64.255C139.959 64.255 139.268 64.9457 139.268 65.798V69.9702C139.268 70.8225 139.959 71.5133 140.811 71.5133H141.354V74.1424C141.354 74.9947 142.046 75.6854 142.897 75.6854H143.94C144.792 75.6854 145.483 74.9947 145.483 74.1424V71.5133H146.026C146.878 71.5133 147.57 70.8225 147.57 69.9702V65.798C147.57 64.9457 146.878 64.255 146.026 64.255H140.811Z" fill="#01689B" stroke="white"/>
<path d="M143.419 60.0828C142.279 60.0828 141.354 61.0071 141.354 62.1474C141.354 63.2876 142.279 64.2119 143.419 64.2119C144.559 64.2119 145.483 63.2876 145.483 62.1474C145.483 61.0071 144.559 60.0828 143.419 60.0828Z" fill="#01689B" stroke="white"/>
<path d="M127.252 48.0661C132.467 45.4584 138.204 47.5447 139.768 57.9752" stroke="#154273"/>
<path d="M141.604 55.1174L139.832 58.1432L136.806 56.3716" stroke="#154273"/>
<path d="M170.017 52.2852C174.652 49.8485 180.83 51.426 183.055 62.1474" stroke="#154273"/>
<path d="M184.995 59.2896L183.223 62.3154L180.197 60.5438" stroke="#154273"/>
<path d="M147.07 59.8962C147.591 53.803 150.199 46.5017 160.108 52.2384" stroke="#154273"/>
<path d="M160.449 49.1959L160.707 52.6926L157.211 52.952" stroke="#154273"/>
<path d="M121.108 1.61937V3.77847H121.838C122.193 3.77847 122.478 3.67417 122.694 3.46556C122.909 3.25695 123.017 2.97533 123.017 2.62069C123.017 2.28692 122.916 2.03658 122.714 1.8697C122.513 1.70281 122.182 1.61937 121.724 1.61937H121.108ZM121.129 4.83195V7.38741H119.773V0.545029H121.817C122.694 0.545029 123.348 0.72582 123.778 1.08741C124.216 1.44901 124.435 1.90795 124.435 2.46423C124.435 2.92317 124.324 3.32649 124.102 3.67417C123.879 4.0149 123.58 4.27218 123.205 4.44602L125.02 7.38741H123.424L121.932 4.83195H121.129ZM127.754 3.86192V2.85016H131.864V3.86192H127.754ZM127.754 5.7394V4.72764H131.864V5.7394H127.754ZM135.594 1.85927V0.868373C135.928 0.777972 136.282 0.701486 136.658 0.638903C137.041 0.57632 137.381 0.545029 137.68 0.545029H138.431V7.38741H137.065V1.71324C136.856 1.71324 136.616 1.72714 136.345 1.75496C136.081 1.77582 135.831 1.81059 135.594 1.85927Z" fill="#01689B"/>
<path d="M237.293 11.5596V92.9172" stroke="#DADADA"/>
<path d="M260.24 11.5596V92.9172" stroke="#DADADA"/>
<path d="M283.187 11.5596V92.9172" stroke="#DADADA"/>
<path d="M306.134 11.5596V92.9172" stroke="#DADADA"/>
<path d="M234.685 47.5662C233.834 47.5662 233.142 48.257 233.142 49.1093V53.2815C233.142 54.1338 233.834 54.8245 234.685 54.8245H235.228V57.4536C235.228 58.306 235.92 58.9967 236.772 58.9967H237.815C238.666 58.9967 239.358 58.306 239.358 57.4536V54.8245H239.901C240.752 54.8245 241.444 54.1338 241.444 53.2815V49.1093C241.444 48.257 240.752 47.5662 239.901 47.5662H234.685Z" fill="#01689B" stroke="white"/>
<path d="M237.293 43.394C236.153 43.394 235.228 44.3183 235.228 45.4586C235.228 46.5989 236.153 47.5232 237.293 47.5232C238.433 47.5232 239.358 46.5989 239.358 45.4586C239.358 44.3183 238.433 43.394 237.293 43.394Z" fill="#01689B" stroke="white"/>
<path d="M257.632 30.8775C256.781 30.8775 256.089 31.5682 256.089 32.4205V36.5927C256.089 37.445 256.781 38.1358 257.632 38.1358H258.175V40.7649C258.175 41.6172 258.867 42.3079 259.719 42.3079H260.762C261.613 42.3079 262.305 41.6172 262.305 40.7649V38.1358H262.848C263.699 38.1358 264.391 37.445 264.391 36.5927V32.4205C264.391 31.5682 263.699 30.8775 262.848 30.8775H257.632Z" fill="#01689B" stroke="white"/>
<path d="M260.24 26.7053C259.1 26.7053 258.176 27.6296 258.176 28.7699C258.176 29.9102 259.1 30.8344 260.24 30.8344C261.38 30.8344 262.305 29.9102 262.305 28.7699C262.305 27.6296 261.38 26.7053 260.24 26.7053Z" fill="#01689B" stroke="white"/>
<path d="M280.579 21.4901C279.728 21.4901 279.036 22.1808 279.036 23.0331V27.2053C279.036 28.0576 279.728 28.7483 280.579 28.7483H281.123V31.3775C281.123 32.2298 281.814 32.9205 282.666 32.9205H283.709C284.56 32.9205 285.252 32.2298 285.252 31.3775V28.7483H285.795C286.647 28.7483 287.338 28.0576 287.338 27.2053V23.0331C287.338 22.1808 286.647 21.4901 285.795 21.4901H280.579Z" fill="#01689B" stroke="white"/>
<path d="M283.187 17.3179C282.047 17.3179 281.123 18.2422 281.123 19.3825C281.123 20.5227 282.047 21.447 283.187 21.447C284.327 21.447 285.252 20.5227 285.252 19.3825C285.252 18.2422 284.327 17.3179 283.187 17.3179Z" fill="#01689B" stroke="white"/>
<path d="M308.742 23.5762C307.89 23.5762 307.199 24.2669 307.199 25.1192V29.2914C307.199 30.1437 307.89 30.8344 308.742 30.8344H309.285V33.4636C309.285 34.3159 309.976 35.0066 310.828 35.0066H311.871C312.723 35.0066 313.414 34.3159 313.414 33.4636V30.8344H313.957C314.809 30.8344 315.5 30.1437 315.5 29.2914V25.1192C315.5 24.2669 314.809 23.5762 313.957 23.5762H308.742Z" fill="#01689B" stroke="white"/>
<path d="M311.349 19.404C310.21 19.404 309.285 20.3283 309.285 21.4685C309.285 22.6088 310.21 23.5331 311.349 23.5331C312.489 23.5331 313.414 22.6088 313.414 21.4685C313.414 20.3283 312.489 19.404 311.349 19.404Z" fill="#01689B" stroke="white"/>
<path d="M298.311 15.2318C297.459 15.2318 296.768 15.9225 296.768 16.7748V20.947C296.768 21.7993 297.459 22.4901 298.311 22.4901H298.854V25.1192C298.854 25.9715 299.546 26.6623 300.397 26.6623H301.44C302.292 26.6623 302.983 25.9715 302.983 25.1192V22.4901H303.527C304.378 22.4901 305.07 21.7993 305.07 20.947V16.7748C305.07 15.9225 304.378 15.2318 303.527 15.2318H298.311Z" fill="#01689B" stroke="white"/>
<path d="M300.919 11.0596C299.779 11.0596 298.854 11.9839 298.854 13.1242C298.854 14.2645 299.779 15.1887 300.919 15.1887C302.059 15.1887 302.983 14.2645 302.983 13.1242C302.983 11.9839 302.059 11.0596 300.919 11.0596Z" fill="#01689B" stroke="white"/>
<path d="M280.579 39.2219C279.728 39.2219 279.036 39.9126 279.036 40.7649V44.9371C279.036 45.7894 279.728 46.4801 280.579 46.4801H281.123V49.1093C281.123 49.9616 281.814 50.6523 282.666 50.6523H283.709C284.56 50.6523 285.252 49.9616 285.252 49.1093V46.4801H285.795C286.647 46.4801 287.338 45.7894 287.338 44.9371V40.7649C287.338 39.9126 286.647 39.2219 285.795 39.2219H280.579Z" fill="#01689B" stroke="white"/>
<path d="M283.187 35.0497C282.047 35.0497 281.123 35.974 281.123 37.1142C281.123 38.2545 282.047 39.1788 283.187 39.1788C284.327 39.1788 285.252 38.2545 285.252 37.1142C285.252 35.974 284.327 35.0497 283.187 35.0497Z" fill="#01689B" stroke="white"/>
<path d="M308.742 41.3079C307.89 41.3079 307.199 41.9987 307.199 42.851V47.0232C307.199 47.8755 307.89 48.5662 308.742 48.5662H309.285V51.1954C309.285 52.0477 309.976 52.7384 310.828 52.7384H311.871C312.723 52.7384 313.414 52.0477 313.414 51.1954V48.5662H313.957C314.809 48.5662 315.5 47.8755 315.5 47.0232V42.851C315.5 41.9987 314.809 41.3079 313.957 41.3079H308.742Z" fill="#01689B" stroke="white"/>
<path d="M311.349 37.1358C310.21 37.1358 309.285 38.06 309.285 39.2003C309.285 40.3406 310.21 41.2649 311.349 41.2649C312.489 41.2649 313.414 40.3406 313.414 39.2003C313.414 38.06 312.489 37.1358 311.349 37.1358Z" fill="#01689B" stroke="white"/>
<path d="M298.311 32.9636C297.459 32.9636 296.768 33.6543 296.768 34.5066V38.6788C296.768 39.5311 297.459 40.2219 298.311 40.2219H298.854V42.851C298.854 43.7033 299.546 44.394 300.397 44.394H301.44C302.292 44.394 302.983 43.7033 302.983 42.851V40.2219H303.527C304.378 40.2219 305.07 39.5311 305.07 38.6788V34.5066C305.07 33.6543 304.378 32.9636 303.527 32.9636H298.311Z" fill="#01689B" stroke="white"/>
<path d="M300.919 28.7914C299.779 28.7914 298.854 29.7157 298.854 30.856C298.854 31.9962 299.779 32.9205 300.919 32.9205C302.059 32.9205 302.983 31.9962 302.983 30.856C302.983 29.7157 302.059 28.7914 300.919 28.7914Z" fill="#01689B" stroke="white"/>
<path d="M280.579 56.9536C279.728 56.9536 279.036 57.6444 279.036 58.4967V62.6689C279.036 63.5212 279.728 64.2119 280.579 64.2119H281.123V66.8411C281.123 67.6934 281.814 68.3841 282.666 68.3841H283.709C284.56 68.3841 285.252 67.6934 285.252 66.8411V64.2119H285.795C286.647 64.2119 287.338 63.5212 287.338 62.6689V58.4967C287.338 57.6444 286.647 56.9536 285.795 56.9536H280.579Z" fill="#01689B" stroke="white"/>
<path d="M283.187 52.7815C282.047 52.7815 281.123 53.7057 281.123 54.846C281.123 55.9863 282.047 56.9106 283.187 56.9106C284.327 56.9106 285.252 55.9863 285.252 54.846C285.252 53.7057 284.327 52.7815 283.187 52.7815Z" fill="#01689B" stroke="white"/>
<path d="M308.742 59.0397C307.89 59.0397 307.199 59.7305 307.199 60.5828V64.755C307.199 65.6073 307.89 66.298 308.742 66.298H309.285V68.9272C309.285 69.7795 309.976 70.4702 310.828 70.4702H311.871C312.723 70.4702 313.414 69.7795 313.414 68.9272V66.298H313.957C314.809 66.298 315.5 65.6073 315.5 64.755V60.5828C315.5 59.7305 314.809 59.0397 313.957 59.0397H308.742Z" fill="#01689B" stroke="white"/>
<path d="M311.349 54.8676C310.21 54.8676 309.285 55.7918 309.285 56.9321C309.285 58.0724 310.21 58.9967 311.349 58.9967C312.489 58.9967 313.414 58.0724 313.414 56.9321C313.414 55.7918 312.489 54.8676 311.349 54.8676Z" fill="#01689B" stroke="white"/>
<path d="M298.311 86.1589C297.459 86.1589 296.768 86.8497 296.768 87.702V91.8742C296.768 92.7265 297.459 93.4172 298.311 93.4172H298.854V96.0464C298.854 96.8987 299.546 97.5894 300.397 97.5894H301.44C302.292 97.5894 302.983 96.8987 302.983 96.0464V93.4172H303.527C304.378 93.4172 305.07 92.7265 305.07 91.8742V87.702C305.07 86.8497 304.378 86.1589 303.527 86.1589H298.311Z" fill="#01689B" stroke="white"/>
<path d="M300.919 81.9868C299.779 81.9868 298.854 82.911 298.854 84.0513C298.854 85.1916 299.779 86.1159 300.919 86.1159C302.059 86.1159 302.983 85.1916 302.983 84.0513C302.983 82.911 302.059 81.9868 300.919 81.9868Z" fill="#01689B" stroke="white"/>
<path d="M280.579 74.6854C279.728 74.6854 279.036 75.3762 279.036 76.2285V80.4007C279.036 81.253 279.728 81.9437 280.579 81.9437H281.123V84.5729C281.123 85.4252 281.814 86.1159 282.666 86.1159H283.709C284.56 86.1159 285.252 85.4252 285.252 84.5729V81.9437H285.795C286.647 81.9437 287.338 81.253 287.338 80.4007V76.2285C287.338 75.3762 286.647 74.6854 285.795 74.6854H280.579Z" fill="#01689B" stroke="white"/>
<path d="M283.187 70.5132C282.047 70.5132 281.123 71.4375 281.123 72.5778C281.123 73.7181 282.047 74.6424 283.187 74.6424C284.327 74.6424 285.252 73.7181 285.252 72.5778C285.252 71.4375 284.327 70.5132 283.187 70.5132Z" fill="#01689B" stroke="white"/>
<path d="M308.742 76.7715C307.89 76.7715 307.199 77.4623 307.199 78.3146V82.4868C307.199 83.3391 307.89 84.0298 308.742 84.0298H309.285V86.6589C309.285 87.5113 309.976 88.202 310.828 88.202H311.871C312.723 88.202 313.414 87.5113 313.414 86.6589V84.0298H313.957C314.809 84.0298 315.5 83.3391 315.5 82.4868V78.3146C315.5 77.4623 314.809 76.7715 313.957 76.7715H308.742Z" fill="#01689B" stroke="white"/>
<path d="M311.349 72.5993C310.21 72.5993 309.285 73.5236 309.285 74.6639C309.285 75.8042 310.21 76.7285 311.349 76.7285C312.489 76.7285 313.414 75.8042 313.414 74.6639C313.414 73.5236 312.489 72.5993 311.349 72.5993Z" fill="#01689B" stroke="white"/>
<path d="M298.311 68.4272C297.459 68.4272 296.768 69.1179 296.768 69.9702V74.1424C296.768 74.9947 297.459 75.6854 298.311 75.6854H298.854V78.3146C298.854 79.1669 299.546 79.8576 300.397 79.8576H301.44C302.292 79.8576 302.983 79.1669 302.983 78.3146V75.6854H303.527C304.378 75.6854 305.07 74.9947 305.07 74.1424V69.9702C305.07 69.1179 304.378 68.4272 303.527 68.4272H298.311Z" fill="#01689B" stroke="white"/>
<path d="M300.919 64.255C299.779 64.255 298.854 65.1793 298.854 66.3195C298.854 67.4598 299.779 68.3841 300.919 68.3841C302.059 68.3841 302.983 67.4598 302.983 66.3195C302.983 65.1793 302.059 64.255 300.919 64.255Z" fill="#01689B" stroke="white"/>
<path d="M257.632 64.255C256.781 64.255 256.089 64.9457 256.089 65.798V69.9702C256.089 70.8225 256.781 71.5133 257.632 71.5133H258.175V74.1424C258.175 74.9947 258.867 75.6854 259.719 75.6854H260.762C261.613 75.6854 262.305 74.9947 262.305 74.1424V71.5133H262.848C263.699 71.5133 264.391 70.8225 264.391 69.9702V65.798C264.391 64.9457 263.699 64.255 262.848 64.255H257.632Z" fill="#01689B" stroke="white"/>
<path d="M260.24 60.0828C259.1 60.0828 258.176 61.0071 258.176 62.1474C258.176 63.2876 259.1 64.2119 260.24 64.2119C261.38 64.2119 262.305 63.2876 262.305 62.1474C262.305 61.0071 261.38 60.0828 260.24 60.0828Z" fill="#01689B" stroke="white"/>
<path d="M242.508 53.2815C246.68 53.2815 250.853 54.846 252.939 62.6689" stroke="#154273"/>
<path d="M254.698 60.1027L253.271 63.3056L250.068 61.879" stroke="#154273"/>
<path d="M265.977 70.9088C268.584 70.9088 272.757 71.5348 274.843 77.2714" stroke="#154273"/>
<path d="M276.046 74.2173L275.211 77.6224L271.805 76.7864" stroke="#154273"/>
<path d="M265.977 36.4883C268.584 36.4883 272.757 37.1142 274.843 42.8509" stroke="#154273"/>
<path d="M276.046 39.7967L275.211 43.2019L271.805 42.3659" stroke="#154273"/>
<path d="M287.881 24.0762C295.182 26.1623 298.833 27.7268 306.134 27.2053" stroke="#154273"/>
<path d="M303.177 24.9616L305.856 27.2241L303.593 29.9027" stroke="#154273"/>
<path d="M287.881 44.3018C295.182 46.3879 298.833 47.9524 306.134 47.4309" stroke="#154273"/>
<path d="M303.177 45.1872L305.856 47.4498L303.593 50.1284" stroke="#154273"/>
<path d="M265.977 67.057C268.584 67.057 272.757 66.431 274.843 60.6944" stroke="#154273"/>
<path d="M276.046 63.7486L275.211 60.3435L271.805 61.1794" stroke="#154273"/>
<path d="M265.977 32.6364C268.584 32.6364 272.757 32.0105 274.843 26.2739" stroke="#154273"/>
<path d="M276.046 29.3281L275.211 25.923L271.805 26.7589" stroke="#154273"/>
<path d="M287.881 21.1629C291.531 20.4255 293.096 19.3825 295.704 15.8434" stroke="#154273"/>
<path d="M296.211 19.1527L295.979 15.654L292.481 15.8852" stroke="#154273"/>
<path d="M287.881 41.3885C291.531 40.6511 293.096 39.6081 295.704 36.069" stroke="#154273"/>
<path d="M296.211 39.3781L295.979 35.8795L292.481 36.1106" stroke="#154273"/>
<path d="M287.414 60.372C294.987 59.8244 298.881 59.0402 305.921 61.0451" stroke="#154273"/>
<path d="M302.567 62.6358L305.652 60.9695L303.985 57.8845" stroke="#154273"/>
<path d="M287.881 63.2406C291.531 63.978 293.096 65.021 295.704 68.5601" stroke="#154273"/>
<path d="M296.211 65.251L295.979 68.7496L292.481 68.5185" stroke="#154273"/>
<path d="M287.441 81.4335C295.002 80.7354 298.879 79.8737 305.958 81.7381" stroke="#154273"/>
<path d="M302.636 83.3955L305.687 81.6681L303.959 78.6169" stroke="#154273"/>
<path d="M287.881 84.1015C291.531 84.8389 293.096 85.882 295.704 89.421" stroke="#154273"/>
<path d="M296.211 86.112L295.979 89.6106L292.481 89.3794" stroke="#154273"/>
<path d="M242.895 49.3145C247.202 48.0662 249.81 47.0232 252.939 40.7649" stroke="#154273"/>
<path d="M249.715 41.3491L253.031 40.21L254.17 43.5261" stroke="#154273"/>
<path d="M237.929 1.61937V3.77848H238.659C239.014 3.77848 239.299 3.67417 239.515 3.46556C239.731 3.25695 239.838 2.97533 239.838 2.62069C239.838 2.28692 239.737 2.03659 239.536 1.8697C239.334 1.70281 239.004 1.61937 238.545 1.61937H237.929ZM237.95 4.83195V7.38742H236.594V0.545033H238.639C239.515 0.545033 240.169 0.725824 240.6 1.08742C241.038 1.44901 241.257 1.90795 241.257 2.46424C241.257 2.92318 241.145 3.32649 240.923 3.67417C240.701 4.0149 240.401 4.27218 240.026 4.44603L241.841 7.38742H240.245L238.753 4.83195H237.95ZM244.576 3.86192V2.85017H248.685V3.86192H244.576ZM244.576 5.7394V4.72765H248.685V5.7394H244.576ZM252.3 1.83841V0.701489C252.585 0.63195 252.871 0.576324 253.156 0.534602C253.44 0.49288 253.722 0.472019 254.001 0.472019C254.723 0.472019 255.284 0.649337 255.68 1.00397C256.084 1.35165 256.285 1.82798 256.285 2.43295C256.285 2.87103 256.181 3.25695 255.972 3.59073C255.763 3.91755 255.401 4.25828 254.887 4.61291L254.324 5.00927C253.997 5.23178 253.761 5.43692 253.615 5.62467C253.469 5.81242 253.364 6.0245 253.302 6.26093H256.389L256.379 7.38742H252.175L252.029 6.42781C252.099 6.01755 252.245 5.64553 252.467 5.31175C252.689 4.97102 252.999 4.64768 253.396 4.34172L254.084 3.8202C254.362 3.60463 254.561 3.40645 254.679 3.22566C254.796 3.04487 254.856 2.83626 254.856 2.59983C254.856 2.29388 254.762 2.06092 254.574 1.90099C254.386 1.73411 254.115 1.65066 253.761 1.65066C253.497 1.65066 253.253 1.66457 253.031 1.69238C252.808 1.7202 252.564 1.76887 252.3 1.83841Z" fill="#01689B"/>
<path d="M23.9901 30.8775C23.1379 30.8775 22.447 31.5683 22.447 32.4205V36.5927C22.447 37.4449 23.1379 38.1358 23.9901 38.1358H24.5331V40.7649C24.5331 41.6171 25.2239 42.308 26.0762 42.308H27.1192C27.9714 42.308 28.6623 41.6171 28.6623 40.7649V38.1358H29.2053C30.0575 38.1358 30.7483 37.4449 30.7483 36.5927V32.4205C30.7483 31.5683 30.0575 30.8775 29.2053 30.8775H23.9901Z" fill="#DADADA" stroke="white"/>
<path d="M26.5977 26.7053C25.4575 26.7053 24.5331 27.6297 24.5331 28.7699C24.5331 29.9101 25.4575 30.8344 26.5977 30.8344C27.7379 30.8344 28.6623 29.9101 28.6623 28.7699C28.6623 27.6297 27.7379 26.7053 26.5977 26.7053Z" fill="#DADADA" stroke="white"/>
</g>
<defs>
<clipPath id="clip0">
<rect width="315" height="97" fill="white"/>
</clipPath>
</defs>
</svg>