<svg viewBox="0 0 315 100" fill="none" xmlns="http://www.w3.org/2000/svg">
<g clip-path="url(#clip0)">
<path d="M3.65066 13.5596V94.9172" stroke="#C4C4C4"/>
<path d="M26.5977 13.5596V94.9172" stroke="#C4C4C4"/>
<path d="M49.5447 13.5596V94.9172" stroke="#C4C4C4"/>
<path d="M72.4917 13.5596V94.9172" stroke="#C4C4C4"/>
<path d="M0 51.1093C0 50.5333 0.466987 50.0663 1.04305 50.0663H6.25828C6.83433 50.0663 7.30132 50.5333 7.30132 51.1093V55.2815C7.30132 55.8576 6.83433 56.3246 6.25828 56.3246H5.21523V59.4537C5.21523 60.0298 4.74824 60.4967 4.17219 60.4967H3.12914C2.55309 60.4967 2.08609 60.0298 2.08609 59.4537V56.3246H1.04305C0.466987 56.3246 0 55.8576 0 55.2815V51.1093Z" fill="#01689B"/>
<path d="M2.08609 47.4586C2.08609 46.5946 2.78657 45.894 3.65066 45.894C4.51475 45.894 5.21523 46.5946 5.21523 47.4586C5.21523 48.3227 4.51475 49.0232 3.65066 49.0232C2.78657 49.0232 2.08609 48.3227 2.08609 47.4586Z" fill="#01689B"/>
<g opacity="0.4">
<path opacity="0.4" d="M22.947 34.4206C22.947 33.8445 23.414 33.3776 23.9901 33.3776H29.2053C29.7814 33.3776 30.2483 33.8445 30.2483 34.4206V38.5928C30.2483 39.1689 29.7814 39.6358 29.2053 39.6358H28.1623V42.765C28.1623 43.3411 27.6953 43.808 27.1192 43.808H26.0762C25.5001 43.808 25.0331 43.3411 25.0331 42.765V39.6358H23.9901C23.414 39.6358 22.947 39.1689 22.947 38.5928V34.4206Z" fill="#595959"/>
<path opacity="0.4" d="M25.0331 30.7699C25.0331 29.9058 25.7336 29.2053 26.5977 29.2053C27.4617 29.2053 28.1623 29.9058 28.1623 30.7699C28.1623 31.634 27.4617 32.3345 26.5977 32.3345C25.7336 32.3345 25.0331 31.634 25.0331 30.7699Z" fill="#595959"/>
</g>
<g opacity="0.4">
<path opacity="0.4" d="M45.894 25.0332C45.894 24.4571 46.361 23.9901 46.9371 23.9901H52.1523C52.7284 23.9901 53.1954 24.4571 53.1954 25.0332V29.2053C53.1954 29.7814 52.7284 30.2484 52.1523 30.2484H51.1093V33.3775C51.1093 33.9536 50.6423 34.4206 50.0662 34.4206H49.0232C48.4471 34.4206 47.9801 33.9536 47.9801 33.3775V30.2484H46.9371C46.361 30.2484 45.894 29.7814 45.894 29.2053V25.0332Z" fill="#595959"/>
<path opacity="0.4" d="M47.9801 21.3824C47.9801 20.5184 48.6806 19.8179 49.5447 19.8179C50.4088 19.8179 51.1093 20.5184 51.1093 21.3824C51.1093 22.2465 50.4088 22.947 49.5447 22.947C48.6806 22.947 47.9801 22.2465 47.9801 21.3824Z" fill="#595959"/>
</g>
<g opacity="0.4">
<path opacity="0.4" d="M74.0563 27.1192C74.0563 26.5431 74.5233 26.0762 75.0993 26.0762H80.3146C80.8906 26.0762 81.3576 26.5431 81.3576 27.1192V31.2914C81.3576 31.8675 80.8906 32.3344 80.3146 32.3344H79.2715V35.4636C79.2715 36.0397 78.8046 36.5066 78.2285 36.5066H77.1854C76.6094 36.5066 76.1424 36.0397 76.1424 35.4636V32.3344H75.0993C74.5233 32.3344 74.0563 31.8675 74.0563 31.2914V27.1192Z" fill="#595959"/>
<path opacity="0.4" d="M76.1424 23.4685C76.1424 22.6044 76.8429 21.9039 77.707 21.9039C78.571 21.9039 79.2715 22.6044 79.2715 23.4685C79.2715 24.3326 78.571 25.0331 77.707 25.0331C76.8429 25.0331 76.1424 24.3326 76.1424 23.4685Z" fill="#595959"/>
</g>
<g opacity="0.4">
<path opacity="0.4" d="M63.6258 18.7749C63.6258 18.1988 64.0928 17.7318 64.6689 17.7318H69.8841C70.4602 17.7318 70.9272 18.1988 70.9272 18.7749V22.947C70.9272 23.5231 70.4602 23.9901 69.8841 23.9901H68.8411V27.1192C68.8411 27.6953 68.3741 28.1623 67.798 28.1623H66.755C66.1789 28.1623 65.7119 27.6953 65.7119 27.1192V23.9901H64.6689C64.0928 23.9901 63.6258 23.5231 63.6258 22.947V18.7749Z" fill="#595959"/>
<path opacity="0.4" d="M65.7119 15.1241C65.7119 14.2601 66.4124 13.5596 67.2765 13.5596C68.1405 13.5596 68.8411 14.2601 68.8411 15.1241C68.8411 15.9882 68.1405 16.6887 67.2765 16.6887C66.4124 16.6887 65.7119 15.9882 65.7119 15.1241Z" fill="#595959"/>
</g>
<g opacity="0.4">
<path opacity="0.4" d="M45.894 42.765C45.894 42.1889 46.361 41.7219 46.9371 41.7219H52.1523C52.7284 41.7219 53.1954 42.1889 53.1954 42.765V46.9372C53.1954 47.5132 52.7284 47.9802 52.1523 47.9802H51.1093V51.1093C51.1093 51.6854 50.6423 52.1524 50.0662 52.1524H49.0232C48.4471 52.1524 47.9801 51.6854 47.9801 51.1093V47.9802H46.9371C46.361 47.9802 45.894 47.5132 45.894 46.9372V42.765Z" fill="#595959"/>
<path opacity="0.4" d="M47.9801 39.1143C47.9801 38.2502 48.6806 37.5497 49.5447 37.5497C50.4088 37.5497 51.1093 38.2502 51.1093 39.1143C51.1093 39.9783 50.4088 40.6788 49.5447 40.6788C48.6806 40.6788 47.9801 39.9783 47.9801 39.1143Z" fill="#595959"/>
</g>
<g opacity="0.4">
<path opacity="0.4" d="M74.0563 44.851C74.0563 44.275 74.5233 43.808 75.0993 43.808H80.3146C80.8906 43.808 81.3576 44.275 81.3576 44.851V49.0232C81.3576 49.5993 80.8906 50.0663 80.3146 50.0663H79.2715V53.1954C79.2715 53.7715 78.8046 54.2384 78.2285 54.2384H77.1854C76.6094 54.2384 76.1424 53.7715 76.1424 53.1954V50.0663H75.0993C74.5233 50.0663 74.0563 49.5993 74.0563 49.0232V44.851Z" fill="#595959"/>
<path opacity="0.4" d="M76.1424 41.2003C76.1424 40.3363 76.8429 39.6357 77.707 39.6357C78.571 39.6357 79.2715 40.3363 79.2715 41.2003C79.2715 42.0644 78.571 42.7649 77.707 42.7649C76.8429 42.7649 76.1424 42.0644 76.1424 41.2003Z" fill="#595959"/>
</g>
<g opacity="0.4">
<path opacity="0.4" d="M63.6258 36.5067C63.6258 35.9306 64.0928 35.4636 64.6689 35.4636H69.8841C70.4602 35.4636 70.9272 35.9306 70.9272 36.5067V40.6789C70.9272 41.2549 70.4602 41.7219 69.8841 41.7219H68.8411V44.851C68.8411 45.4271 68.3741 45.8941 67.798 45.8941H66.755C66.1789 45.8941 65.7119 45.4271 65.7119 44.851V41.7219H64.6689C64.0928 41.7219 63.6258 41.2549 63.6258 40.6789V36.5067Z" fill="#595959"/>
<path opacity="0.4" d="M65.7119 32.856C65.7119 31.9919 66.4124 31.2914 67.2765 31.2914C68.1405 31.2914 68.8411 31.9919 68.8411 32.856C68.8411 33.72 68.1405 34.4205 67.2765 34.4205C66.4124 34.4205 65.7119 33.72 65.7119 32.856Z" fill="#595959"/>
</g>
<g opacity="0.4">
<path opacity="0.4" d="M45.894 60.4968C45.894 59.9207 46.361 59.4537 46.9371 59.4537H52.1523C52.7284 59.4537 53.1954 59.9207 53.1954 60.4968V64.669C53.1954 65.245 52.7284 65.712 52.1523 65.712H51.1093V68.8412C51.1093 69.4172 50.6423 69.8842 50.0662 69.8842H49.0232C48.4471 69.8842 47.9801 69.4172 47.9801 68.8412V65.712H46.9371C46.361 65.712 45.894 65.245 45.894 64.669V60.4968Z" fill="#595959"/>
<path opacity="0.4" d="M47.9801 56.8461C47.9801 55.982 48.6806 55.2815 49.5447 55.2815C50.4088 55.2815 51.1093 55.982 51.1093 56.8461C51.1093 57.7101 50.4088 58.4106 49.5447 58.4106C48.6806 58.4106 47.9801 57.7101 47.9801 56.8461Z" fill="#595959"/>
</g>
<g opacity="0.4">
<path opacity="0.4" d="M74.0563 62.5828C74.0563 62.0068 74.5233 61.5398 75.0993 61.5398H80.3146C80.8906 61.5398 81.3576 62.0068 81.3576 62.5828V66.755C81.3576 67.3311 80.8906 67.7981 80.3146 67.7981H79.2715V70.9272C79.2715 71.5033 78.8046 71.9703 78.2285 71.9703H77.1854C76.6094 71.9703 76.1424 71.5033 76.1424 70.9272V67.7981H75.0993C74.5233 67.7981 74.0563 67.3311 74.0563 66.755V62.5828Z" fill="#595959"/>
<path opacity="0.4" d="M76.1424 58.9321C76.1424 58.0681 76.8429 57.3676 77.707 57.3676C78.571 57.3676 79.2715 58.0681 79.2715 58.9321C79.2715 59.7962 78.571 60.4967 77.707 60.4967C76.8429 60.4967 76.1424 59.7962 76.1424 58.9321Z" fill="#595959"/>
</g>
<g opacity="0.4">
<path opacity="0.4" d="M63.6258 54.2385C63.6258 53.6624 64.0928 53.1954 64.6689 53.1954H69.8841C70.4602 53.1954 70.9272 53.6624 70.9272 54.2385V58.4107C70.9272 58.9867 70.4602 59.4537 69.8841 59.4537H68.8411V62.5829C68.8411 63.1589 68.3741 63.6259 67.798 63.6259H66.755C66.1789 63.6259 65.7119 63.1589 65.7119 62.5829V59.4537H64.6689C64.0928 59.4537 63.6258 58.9867 63.6258 58.4107V54.2385Z" fill="#595959"/>
<path opacity="0.4" d="M65.7119 50.5878C65.7119 49.7237 66.4124 49.0232 67.2765 49.0232C68.1405 49.0232 68.8411 49.7237 68.8411 50.5878C68.8411 51.4518 68.1405 52.1523 67.2765 52.1523C66.4124 52.1523 65.7119 51.4518 65.7119 50.5878Z" fill="#595959"/>
</g>
<g opacity="0.4">
<path opacity="0.4" d="M45.894 78.2285C45.894 77.6524 46.361 77.1854 46.9371 77.1854H52.1523C52.7284 77.1854 53.1954 77.6524 53.1954 78.2285V82.4007C53.1954 82.9767 52.7284 83.4437 52.1523 83.4437H51.1093V86.5728C51.1093 87.1489 50.6423 87.6159 50.0662 87.6159H49.0232C48.4471 87.6159 47.9801 87.1489 47.9801 86.5728V83.4437H46.9371C46.361 83.4437 45.894 82.9767 45.894 82.4007V78.2285Z" fill="#595959"/>
<path opacity="0.4" d="M47.9801 74.5778C47.9801 73.7137 48.6806 73.0132 49.5447 73.0132C50.4088 73.0132 51.1093 73.7137 51.1093 74.5778C51.1093 75.4418 50.4088 76.1423 49.5447 76.1423C48.6806 76.1423 47.9801 75.4418 47.9801 74.5778Z" fill="#595959"/>
</g>
<g opacity="0.4">
<path opacity="0.4" d="M74.0563 80.3147C74.0563 79.7386 74.5233 79.2716 75.0993 79.2716H80.3146C80.8906 79.2716 81.3576 79.7386 81.3576 80.3147V84.4868C81.3576 85.0629 80.8906 85.5299 80.3146 85.5299H79.2715V88.659C79.2715 89.2351 78.8046 89.7021 78.2285 89.7021H77.1854C76.6094 89.7021 76.1424 89.2351 76.1424 88.659V85.5299H75.0993C74.5233 85.5299 74.0563 85.0629 74.0563 84.4868V80.3147Z" fill="#595959"/>
<path opacity="0.4" d="M76.1424 76.6639C76.1424 75.7999 76.8429 75.0994 77.707 75.0994C78.571 75.0994 79.2715 75.7999 79.2715 76.6639C79.2715 77.528 78.571 78.2285 77.707 78.2285C76.8429 78.2285 76.1424 77.528 76.1424 76.6639Z" fill="#595959"/>
</g>
<g opacity="0.4">
<path opacity="0.4" d="M63.6258 71.9703C63.6258 71.3942 64.0928 70.9272 64.6689 70.9272H69.8841C70.4602 70.9272 70.9272 71.3942 70.9272 71.9703V76.1425C70.9272 76.7185 70.4602 77.1855 69.8841 77.1855H68.8411V80.3147C68.8411 80.8907 68.3741 81.3577 67.798 81.3577H66.755C66.1789 81.3577 65.7119 80.8907 65.7119 80.3147V77.1855H64.6689C64.0928 77.1855 63.6258 76.7185 63.6258 76.1425V71.9703Z" fill="#595959"/>
<path opacity="0.4" d="M65.7119 68.3196C65.7119 67.4555 66.4124 66.755 67.2765 66.755C68.1405 66.755 68.8411 67.4555 68.8411 68.3196C68.8411 69.1836 68.1405 69.8841 67.2765 69.8841C66.4124 69.8841 65.7119 69.1836 65.7119 68.3196Z" fill="#595959"/>
</g>
<g opacity="0.4">
<path opacity="0.4" d="M22.947 67.798C22.947 67.222 23.414 66.755 23.9901 66.755H29.2053C29.7814 66.755 30.2483 67.222 30.2483 67.798V71.9702C30.2483 72.5463 29.7814 73.0133 29.2053 73.0133H28.1623V76.1424C28.1623 76.7185 27.6953 77.1855 27.1192 77.1855H26.0762C25.5001 77.1855 25.0331 76.7185 25.0331 76.1424V73.0133H23.9901C23.414 73.0133 22.947 72.5463 22.947 71.9702V67.798Z" fill="#595959"/>
<path opacity="0.4" d="M25.0331 64.1473C25.0331 63.2833 25.7336 62.5828 26.5977 62.5828C27.4617 62.5828 28.1623 63.2833 28.1623 64.1473C28.1623 65.0114 27.4617 65.7119 26.5977 65.7119C25.7336 65.7119 25.0331 65.0114 25.0331 64.1473Z" fill="#595959"/>
</g>
<path d="M4.28692 3.61938V5.77849H5.01705C5.37169 5.77849 5.65678 5.67419 5.87235 5.46558C6.08792 5.25697 6.1957 4.97534 6.1957 4.62071C6.1957 4.28693 6.09486 4.0366 5.89321 3.86972C5.69156 3.70283 5.36126 3.61938 4.90232 3.61938H4.28692ZM4.30778 6.83197V9.38743H2.95182V2.54505H4.99619C5.87235 2.54505 6.526 2.72584 6.95712 3.08743C7.3952 3.44902 7.61424 3.90796 7.61424 4.46425C7.61424 4.92319 7.50298 5.32651 7.28046 5.67419C7.05795 6.01492 6.75894 6.2722 6.38344 6.44604L8.19834 9.38743H6.60248L5.11093 6.83197H4.30778ZM10.9332 5.86193V4.85018H15.0428V5.86193H10.9332ZM10.9332 7.73942V6.72766H15.0428V7.73942H10.9332ZM20.6084 2.45117C21.2481 2.45117 21.794 2.71193 22.246 3.23346C22.7049 3.74802 22.9344 4.64504 22.9344 5.92452C22.9344 7.16227 22.6841 8.06624 22.1834 8.63644C21.6827 9.19968 21.1195 9.48131 20.4937 9.48131C19.8678 9.48131 19.3255 9.24488 18.8665 8.77203C18.4146 8.29919 18.1885 7.39869 18.1885 6.07054C18.1885 4.79107 18.4284 3.86972 18.9082 3.30647C19.395 2.73627 19.9617 2.45117 20.6084 2.45117ZM20.5563 3.53594C20.2989 3.53594 20.0765 3.71673 19.8887 4.07832C19.701 4.43296 19.6071 5.05531 19.6071 5.94538C19.6071 6.89108 19.694 7.53777 19.8678 7.88544C20.0417 8.22618 20.2642 8.39654 20.5354 8.39654C20.8205 8.39654 21.0535 8.21575 21.2342 7.85415C21.422 7.48561 21.5159 6.88065 21.5159 6.03925C21.5159 5.08661 21.4254 4.43296 21.2447 4.07832C21.0639 3.71673 20.8344 3.53594 20.5563 3.53594Z" fill="#01689B"/>
<path d="M120.472 13.5596V94.9172" stroke="#C4C4C4"/>
<path d="M143.419 13.5596V94.9172" stroke="#C4C4C4"/>
<path d="M166.366 13.5596V94.9172" stroke="#C4C4C4"/>
<path d="M189.313 13.5596V94.9172" stroke="#C4C4C4"/>
<path d="M116.821 51.1093C116.821 50.5333 117.288 50.0663 117.864 50.0663H123.079C123.655 50.0663 124.123 50.5333 124.123 51.1093V55.2815C124.123 55.8576 123.655 56.3246 123.079 56.3246H122.036V59.4537C122.036 60.0298 121.569 60.4967 120.993 60.4967H119.95C119.375 60.4967 118.907 60.0298 118.907 59.4537V56.3246H117.864C117.288 56.3246 116.821 55.8576 116.821 55.2815V51.1093Z" fill="#01689B"/>
<path d="M118.907 47.4586C118.907 46.5946 119.608 45.894 120.472 45.894C121.335 45.894 122.036 46.5946 122.036 47.4586C122.036 48.3227 121.335 49.0232 120.472 49.0232C119.608 49.0232 118.907 48.3227 118.907 47.4586Z" fill="#01689B"/>
<g opacity="0.4">
<path opacity="0.4" d="M139.768 34.4206C139.768 33.8445 140.235 33.3776 140.811 33.3776H146.026C146.602 33.3776 147.07 33.8445 147.07 34.4206V38.5928C147.07 39.1689 146.602 39.6358 146.026 39.6358H144.983V42.765C144.983 43.3411 144.516 43.808 143.94 43.808H142.897C142.322 43.808 141.854 43.3411 141.854 42.765V39.6358H140.811C140.235 39.6358 139.768 39.1689 139.768 38.5928V34.4206Z" fill="#595959"/>
<path opacity="0.4" d="M141.854 30.7699C141.854 29.9058 142.555 29.2053 143.419 29.2053C144.283 29.2053 144.983 29.9058 144.983 30.7699C144.983 31.634 144.283 32.3345 143.419 32.3345C142.555 32.3345 141.854 31.634 141.854 30.7699Z" fill="#595959"/>
</g>
<g opacity="0.4">
<path opacity="0.4" d="M162.715 25.0332C162.715 24.4571 163.183 23.9901 163.758 23.9901H168.974C169.549 23.9901 170.017 24.4571 170.017 25.0332V29.2053C170.017 29.7814 169.549 30.2484 168.974 30.2484H167.93V33.3775C167.93 33.9536 167.463 34.4206 166.887 34.4206H165.844C165.269 34.4206 164.801 33.9536 164.801 33.3775V30.2484H163.758C163.183 30.2484 162.715 29.7814 162.715 29.2053V25.0332Z" fill="#595959"/>
<path opacity="0.4" d="M164.801 21.3824C164.801 20.5184 165.502 19.8179 166.366 19.8179C167.23 19.8179 167.93 20.5184 167.93 21.3824C167.93 22.2465 167.23 22.947 166.366 22.947C165.502 22.947 164.801 22.2465 164.801 21.3824Z" fill="#595959"/>
</g>
<g opacity="0.4">
<path opacity="0.4" d="M190.877 27.1192C190.877 26.5431 191.345 26.0762 191.921 26.0762H197.136C197.712 26.0762 198.179 26.5431 198.179 27.1192V31.2914C198.179 31.8675 197.712 32.3344 197.136 32.3344H196.093V35.4636C196.093 36.0397 195.625 36.5066 195.05 36.5066H194.007C193.431 36.5066 192.964 36.0397 192.964 35.4636V32.3344H191.921C191.345 32.3344 190.877 31.8675 190.877 31.2914V27.1192Z" fill="#595959"/>
<path opacity="0.4" d="M192.964 23.4685C192.964 22.6044 193.665 21.9039 194.528 21.9039C195.392 21.9039 196.093 22.6044 196.093 23.4685C196.093 24.3326 195.392 25.0331 194.528 25.0331C193.665 25.0331 192.964 24.3326 192.964 23.4685Z" fill="#595959"/>
</g>
<g opacity="0.4">
<path opacity="0.4" d="M180.447 18.7749C180.447 18.1988 180.914 17.7318 181.49 17.7318H186.705C187.281 17.7318 187.748 18.1988 187.748 18.7749V22.947C187.748 23.5231 187.281 23.9901 186.705 23.9901H185.662V27.1192C185.662 27.6953 185.195 28.1623 184.619 28.1623H183.576C183 28.1623 182.533 27.6953 182.533 27.1192V23.9901H181.49C180.914 23.9901 180.447 23.5231 180.447 22.947V18.7749Z" fill="#595959"/>
<path opacity="0.4" d="M182.533 15.1241C182.533 14.2601 183.234 13.5596 184.098 13.5596C184.961 13.5596 185.662 14.2601 185.662 15.1241C185.662 15.9882 184.961 16.6887 184.098 16.6887C183.234 16.6887 182.533 15.9882 182.533 15.1241Z" fill="#595959"/>
</g>
<g opacity="0.4">
<path opacity="0.4" d="M162.715 42.765C162.715 42.1889 163.183 41.7219 163.758 41.7219H168.974C169.549 41.7219 170.017 42.1889 170.017 42.765V46.9372C170.017 47.5132 169.549 47.9802 168.974 47.9802H167.93V51.1093C167.93 51.6854 167.463 52.1524 166.887 52.1524H165.844C165.269 52.1524 164.801 51.6854 164.801 51.1093V47.9802H163.758C163.183 47.9802 162.715 47.5132 162.715 46.9372V42.765Z" fill="#595959"/>
<path opacity="0.4" d="M164.801 39.1143C164.801 38.2502 165.502 37.5497 166.366 37.5497C167.23 37.5497 167.93 38.2502 167.93 39.1143C167.93 39.9783 167.23 40.6788 166.366 40.6788C165.502 40.6788 164.801 39.9783 164.801 39.1143Z" fill="#595959"/>
</g>
<g opacity="0.4">
<path opacity="0.4" d="M190.877 44.851C190.877 44.275 191.345 43.808 191.921 43.808H197.136C197.712 43.808 198.179 44.275 198.179 44.851V49.0232C198.179 49.5993 197.712 50.0663 197.136 50.0663H196.093V53.1954C196.093 53.7715 195.625 54.2384 195.05 54.2384H194.007C193.431 54.2384 192.964 53.7715 192.964 53.1954V50.0663H191.921C191.345 50.0663 190.877 49.5993 190.877 49.0232V44.851Z" fill="#595959"/>
<path opacity="0.4" d="M192.964 41.2003C192.964 40.3363 193.665 39.6357 194.528 39.6357C195.392 39.6357 196.093 40.3363 196.093 41.2003C196.093 42.0644 195.392 42.7649 194.528 42.7649C193.665 42.7649 192.964 42.0644 192.964 41.2003Z" fill="#595959"/>
</g>
<g opacity="0.4">
<path opacity="0.4" d="M180.447 36.5067C180.447 35.9306 180.914 35.4636 181.49 35.4636H186.705C187.281 35.4636 187.748 35.9306 187.748 36.5067V40.6789C187.748 41.2549 187.281 41.7219 186.705 41.7219H185.662V44.851C185.662 45.4271 185.195 45.8941 184.619 45.8941H183.576C183 45.8941 182.533 45.4271 182.533 44.851V41.7219H181.49C180.914 41.7219 180.447 41.2549 180.447 40.6789V36.5067Z" fill="#595959"/>
<path opacity="0.4" d="M182.533 32.856C182.533 31.9919 183.234 31.2914 184.098 31.2914C184.961 31.2914 185.662 31.9919 185.662 32.856C185.662 33.72 184.961 34.4205 184.098 34.4205C183.234 34.4205 182.533 33.72 182.533 32.856Z" fill="#595959"/>
</g>
<path d="M162.715 60.4967C162.715 59.9206 163.183 59.4536 163.758 59.4536H168.974C169.549 59.4536 170.017 59.9206 170.017 60.4967V64.6688C170.017 65.2449 169.549 65.7119 168.974 65.7119H167.93V68.841C167.93 69.4171 167.463 69.8841 166.887 69.8841H165.844C165.269 69.8841 164.801 69.4171 164.801 68.841V65.7119H163.758C163.183 65.7119 162.715 65.2449 162.715 64.6688V60.4967Z" fill="#01689B"/>
<path d="M164.801 56.8461C164.801 55.982 165.502 55.2815 166.366 55.2815C167.23 55.2815 167.93 55.982 167.93 56.8461C167.93 57.7101 167.23 58.4106 166.366 58.4106C165.502 58.4106 164.801 57.7101 164.801 56.8461Z" fill="#01689B"/>
<g opacity="0.4">
<path opacity="0.4" d="M190.877 62.5828C190.877 62.0068 191.345 61.5398 191.921 61.5398H197.136C197.712 61.5398 198.179 62.0068 198.179 62.5828V66.755C198.179 67.3311 197.712 67.7981 197.136 67.7981H196.093V70.9272C196.093 71.5033 195.625 71.9703 195.05 71.9703H194.007C193.431 71.9703 192.964 71.5033 192.964 70.9272V67.7981H191.921C191.345 67.7981 190.877 67.3311 190.877 66.755V62.5828Z" fill="#595959"/>
<path opacity="0.4" d="M192.964 58.9321C192.964 58.0681 193.665 57.3676 194.528 57.3676C195.392 57.3676 196.093 58.0681 196.093 58.9321C196.093 59.7962 195.392 60.4967 194.528 60.4967C193.665 60.4967 192.964 59.7962 192.964 58.9321Z" fill="#595959"/>
</g>
<g opacity="0.4">
<path opacity="0.4" d="M180.447 89.7021C180.447 89.126 180.914 88.6591 181.49 88.6591H186.705C187.281 88.6591 187.748 89.126 187.748 89.7021V93.8743C187.748 94.4504 187.281 94.9173 186.705 94.9173H185.662V98.0465C185.662 98.6226 185.195 99.0895 184.619 99.0895H183.576C183 99.0895 182.533 98.6226 182.533 98.0465V94.9173H181.49C180.914 94.9173 180.447 94.4504 180.447 93.8743V89.7021Z" fill="#595959"/>
<path opacity="0.4" d="M182.533 86.0514C182.533 85.1873 183.234 84.4868 184.098 84.4868C184.961 84.4868 185.662 85.1873 185.662 86.0514C185.662 86.9154 184.961 87.616 184.098 87.616C183.234 87.616 182.533 86.9154 182.533 86.0514Z" fill="#595959"/>
</g>
<g opacity="0.4">
<path opacity="0.4" d="M162.715 78.2285C162.715 77.6524 163.183 77.1854 163.758 77.1854H168.974C169.549 77.1854 170.017 77.6524 170.017 78.2285V82.4007C170.017 82.9767 169.549 83.4437 168.974 83.4437H167.93V86.5728C167.93 87.1489 167.463 87.6159 166.887 87.6159H165.844C165.269 87.6159 164.801 87.1489 164.801 86.5728V83.4437H163.758C163.183 83.4437 162.715 82.9767 162.715 82.4007V78.2285Z" fill="#595959"/>
<path opacity="0.4" d="M164.801 74.5778C164.801 73.7137 165.502 73.0132 166.366 73.0132C167.23 73.0132 167.93 73.7137 167.93 74.5778C167.93 75.4418 167.23 76.1423 166.366 76.1423C165.502 76.1423 164.801 75.4418 164.801 74.5778Z" fill="#595959"/>
</g>
<g opacity="0.4">
<path opacity="0.4" d="M190.877 80.3147C190.877 79.7386 191.345 79.2716 191.921 79.2716H197.136C197.712 79.2716 198.179 79.7386 198.179 80.3147V84.4868C198.179 85.0629 197.712 85.5299 197.136 85.5299H196.093V88.659C196.093 89.2351 195.625 89.7021 195.05 89.7021H194.007C193.431 89.7021 192.964 89.2351 192.964 88.659V85.5299H191.921C191.345 85.5299 190.877 85.0629 190.877 84.4868V80.3147Z" fill="#595959"/>
<path opacity="0.4" d="M192.964 76.6639C192.964 75.7999 193.665 75.0994 194.528 75.0994C195.392 75.0994 196.093 75.7999 196.093 76.6639C196.093 77.528 195.392 78.2285 194.528 78.2285C193.665 78.2285 192.964 77.528 192.964 76.6639Z" fill="#595959"/>
</g>
<path d="M180.447 71.9702C180.447 71.3941 180.914 70.9271 181.49 70.9271H186.705C187.281 70.9271 187.748 71.3941 187.748 71.9702V76.1424C187.748 76.7184 187.281 77.1854 186.705 77.1854H185.662V80.3145C185.662 80.8906 185.195 81.3576 184.619 81.3576H183.576C183 81.3576 182.533 80.8906 182.533 80.3145V77.1854H181.49C180.914 77.1854 180.447 76.7184 180.447 76.1424V71.9702Z" fill="#01689B"/>
<path d="M182.533 68.3196C182.533 67.4555 183.234 66.755 184.098 66.755C184.961 66.755 185.662 67.4555 185.662 68.3196C185.662 69.1836 184.961 69.8841 184.098 69.8841C183.234 69.8841 182.533 69.1836 182.533 68.3196Z" fill="#01689B"/>
<path d="M139.768 67.798C139.768 67.222 140.235 66.755 140.811 66.755H146.026C146.602 66.755 147.07 67.222 147.07 67.798V71.9702C147.07 72.5463 146.602 73.0133 146.026 73.0133H144.983V76.1424C144.983 76.7185 144.516 77.1855 143.94 77.1855H142.897C142.322 77.1855 141.854 76.7185 141.854 76.1424V73.0133H140.811C140.235 73.0133 139.768 72.5463 139.768 71.9702V67.798Z" fill="#01689B"/>
<path d="M141.854 64.1473C141.854 63.2833 142.555 62.5828 143.419 62.5828C144.283 62.5828 144.983 63.2833 144.983 64.1473C144.983 65.0114 144.283 65.7119 143.419 65.7119C142.555 65.7119 141.854 65.0114 141.854 64.1473Z" fill="#01689B"/>
<path d="M127.252 50.0661C132.467 47.4584 138.204 49.5447 139.768 59.9752" stroke="#154273"/>
<path d="M141.604 57.1174L139.832 60.1432L136.806 58.3716" stroke="#154273"/>
<path d="M170.017 54.2852C174.652 51.8485 180.83 53.426 183.055 64.1474" stroke="#154273"/>
<path d="M184.995 61.2897L183.223 64.3154L180.197 62.5438" stroke="#154273"/>
<path d="M147.07 61.8962C147.591 55.803 150.199 48.5017 160.108 54.2384" stroke="#154273"/>
<path d="M160.449 51.1958L160.707 54.6925L157.211 54.9519" stroke="#154273"/>
<path d="M121.108 3.61938V5.77849H121.838C122.193 5.77849 122.478 5.67418 122.694 5.46557C122.909 5.25696 123.017 4.97534 123.017 4.62071C123.017 4.28693 122.916 4.0366 122.714 3.86971C122.513 3.70283 122.182 3.61938 121.724 3.61938H121.108ZM121.129 6.83196V9.38743H119.773V2.54504H121.817C122.694 2.54504 123.348 2.72584 123.778 3.08743C124.216 3.44902 124.435 3.90796 124.435 4.46425C124.435 4.92319 124.324 5.3265 124.102 5.67418C123.879 6.01491 123.58 6.27219 123.205 6.44604L125.02 9.38743H123.424L121.932 6.83196H121.129ZM127.754 5.86193V4.85018H131.864V5.86193H127.754ZM127.754 7.73941V6.72766H131.864V7.73941H127.754ZM135.594 3.85928V2.86839C135.928 2.77799 136.282 2.7015 136.658 2.63892C137.041 2.57634 137.381 2.54504 137.68 2.54504H138.431V9.38743H137.065V3.71326C136.856 3.71326 136.616 3.72716 136.345 3.75498C136.081 3.77584 135.831 3.8106 135.594 3.85928Z" fill="#01689B"/>
<path d="M237.293 13.5596V94.9172" stroke="#C4C4C4"/>
<path d="M260.24 13.5596V94.9172" stroke="#C4C4C4"/>
<path d="M283.187 13.5596V94.9172" stroke="#C4C4C4"/>
<path d="M306.134 13.5596V94.9172" stroke="#C4C4C4"/>
<path d="M233.642 51.1093C233.642 50.5333 234.11 50.0663 234.685 50.0663H239.901C240.476 50.0663 240.944 50.5333 240.944 51.1093V55.2815C240.944 55.8576 240.476 56.3246 239.901 56.3246H238.858V59.4537C238.858 60.0298 238.39 60.4967 237.815 60.4967H236.772C236.196 60.4967 235.728 60.0298 235.728 59.4537V56.3246H234.685C234.11 56.3246 233.642 55.8576 233.642 55.2815V51.1093Z" fill="#01689B"/>
<path d="M235.728 47.4586C235.728 46.5946 236.429 45.894 237.293 45.894C238.157 45.894 238.858 46.5946 238.858 47.4586C238.858 48.3227 238.157 49.0232 237.293 49.0232C236.429 49.0232 235.728 48.3227 235.728 47.4586Z" fill="#01689B"/>
<path d="M256.589 34.4205C256.589 33.8444 257.057 33.3774 257.632 33.3774H262.848C263.423 33.3774 263.891 33.8444 263.891 34.4205V38.5927C263.891 39.1687 263.423 39.6357 262.848 39.6357H261.805V42.7649C261.805 43.3409 261.337 43.8079 260.762 43.8079H259.719C259.143 43.8079 258.675 43.3409 258.675 42.7649V39.6357H257.632C257.057 39.6357 256.589 39.1687 256.589 38.5927V34.4205Z" fill="#01689B"/>
<path d="M258.676 30.7699C258.676 29.9058 259.376 29.2053 260.24 29.2053C261.104 29.2053 261.805 29.9058 261.805 30.7699C261.805 31.634 261.104 32.3345 260.24 32.3345C259.376 32.3345 258.676 31.634 258.676 30.7699Z" fill="#01689B"/>
<path d="M279.536 25.0332C279.536 24.4571 280.004 23.9901 280.579 23.9901H285.795C286.37 23.9901 286.838 24.4571 286.838 25.0332V29.2053C286.838 29.7814 286.37 30.2484 285.795 30.2484H284.752V33.3775C284.752 33.9536 284.284 34.4206 283.709 34.4206H282.666C282.09 34.4206 281.623 33.9536 281.623 33.3775V30.2484H280.579C280.004 30.2484 279.536 29.7814 279.536 29.2053V25.0332Z" fill="#01689B"/>
<path d="M281.623 21.3824C281.623 20.5184 282.323 19.8179 283.187 19.8179C284.051 19.8179 284.752 20.5184 284.752 21.3824C284.752 22.2465 284.051 22.947 283.187 22.947C282.323 22.947 281.623 22.2465 281.623 21.3824Z" fill="#01689B"/>
<path d="M307.699 27.1192C307.699 26.5431 308.166 26.0762 308.742 26.0762H313.957C314.533 26.0762 315 26.5431 315 27.1192V31.2914C315 31.8675 314.533 32.3344 313.957 32.3344H312.914V35.4636C312.914 36.0397 312.447 36.5066 311.871 36.5066H310.828C310.252 36.5066 309.785 36.0397 309.785 35.4636V32.3344H308.742C308.166 32.3344 307.699 31.8675 307.699 31.2914V27.1192Z" fill="#01689B"/>
<path d="M309.785 23.4685C309.785 22.6044 310.486 21.9039 311.349 21.9039C312.213 21.9039 312.914 22.6044 312.914 23.4685C312.914 24.3326 312.213 25.0331 311.349 25.0331C310.486 25.0331 309.785 24.3326 309.785 23.4685Z" fill="#01689B"/>
<path d="M297.268 18.7749C297.268 18.1988 297.736 17.7318 298.311 17.7318H303.527C304.102 17.7318 304.57 18.1988 304.57 18.7749V22.947C304.57 23.5231 304.102 23.9901 303.527 23.9901H302.483V27.1192C302.483 27.6953 302.016 28.1623 301.44 28.1623H300.397C299.822 28.1623 299.354 27.6953 299.354 27.1192V23.9901H298.311C297.736 23.9901 297.268 23.5231 297.268 22.947V18.7749Z" fill="#01689B"/>
<path d="M299.354 15.1241C299.354 14.2601 300.055 13.5596 300.919 13.5596C301.783 13.5596 302.483 14.2601 302.483 15.1241C302.483 15.9882 301.783 16.6887 300.919 16.6887C300.055 16.6887 299.354 15.9882 299.354 15.1241Z" fill="#01689B"/>
<path d="M279.536 42.7648C279.536 42.1888 280.004 41.7218 280.579 41.7218H285.795C286.37 41.7218 286.838 42.1888 286.838 42.7648V46.937C286.838 47.5131 286.37 47.9801 285.795 47.9801H284.752V51.1092C284.752 51.6853 284.284 52.1523 283.709 52.1523H282.666C282.09 52.1523 281.623 51.6853 281.623 51.1092V47.9801H280.579C280.004 47.9801 279.536 47.5131 279.536 46.937V42.7648Z" fill="#01689B"/>
<path d="M281.623 39.1143C281.623 38.2502 282.323 37.5497 283.187 37.5497C284.051 37.5497 284.752 38.2502 284.752 39.1143C284.752 39.9783 284.051 40.6788 283.187 40.6788C282.323 40.6788 281.623 39.9783 281.623 39.1143Z" fill="#01689B"/>
<path d="M307.699 44.851C307.699 44.275 308.166 43.808 308.742 43.808H313.957C314.533 43.808 315 44.275 315 44.851V49.0232C315 49.5993 314.533 50.0663 313.957 50.0663H312.914V53.1954C312.914 53.7715 312.447 54.2384 311.871 54.2384H310.828C310.252 54.2384 309.785 53.7715 309.785 53.1954V50.0663H308.742C308.166 50.0663 307.699 49.5993 307.699 49.0232V44.851Z" fill="#01689B"/>
<path d="M309.785 41.2003C309.785 40.3363 310.486 39.6357 311.349 39.6357C312.213 39.6357 312.914 40.3363 312.914 41.2003C312.914 42.0644 312.213 42.7649 311.349 42.7649C310.486 42.7649 309.785 42.0644 309.785 41.2003Z" fill="#01689B"/>
<path d="M297.268 36.5067C297.268 35.9306 297.736 35.4636 298.311 35.4636H303.527C304.102 35.4636 304.57 35.9306 304.57 36.5067V40.6789C304.57 41.2549 304.102 41.7219 303.527 41.7219H302.483V44.851C302.483 45.4271 302.016 45.8941 301.44 45.8941H300.397C299.822 45.8941 299.354 45.4271 299.354 44.851V41.7219H298.311C297.736 41.7219 297.268 41.2549 297.268 40.6789V36.5067Z" fill="#01689B"/>
<path d="M299.354 32.856C299.354 31.9919 300.055 31.2914 300.919 31.2914C301.783 31.2914 302.483 31.9919 302.483 32.856C302.483 33.72 301.783 34.4205 300.919 34.4205C300.055 34.4205 299.354 33.72 299.354 32.856Z" fill="#01689B"/>
<path d="M279.536 60.4967C279.536 59.9206 280.004 59.4536 280.579 59.4536H285.795C286.37 59.4536 286.838 59.9206 286.838 60.4967V64.6688C286.838 65.2449 286.37 65.7119 285.795 65.7119H284.752V68.841C284.752 69.4171 284.284 69.8841 283.709 69.8841H282.666C282.09 69.8841 281.623 69.4171 281.623 68.841V65.7119H280.579C280.004 65.7119 279.536 65.2449 279.536 64.6688V60.4967Z" fill="#01689B"/>
<path d="M281.623 56.8461C281.623 55.982 282.323 55.2815 283.187 55.2815C284.051 55.2815 284.752 55.982 284.752 56.8461C284.752 57.7101 284.051 58.4106 283.187 58.4106C282.323 58.4106 281.623 57.7101 281.623 56.8461Z" fill="#01689B"/>
<path d="M307.699 62.5828C307.699 62.0068 308.166 61.5398 308.742 61.5398H313.957C314.533 61.5398 315 62.0068 315 62.5828V66.755C315 67.3311 314.533 67.7981 313.957 67.7981H312.914V70.9272C312.914 71.5033 312.447 71.9703 311.871 71.9703H310.828C310.252 71.9703 309.785 71.5033 309.785 70.9272V67.7981H308.742C308.166 67.7981 307.699 67.3311 307.699 66.755V62.5828Z" fill="#01689B"/>
<path d="M309.785 58.9321C309.785 58.0681 310.486 57.3676 311.349 57.3676C312.213 57.3676 312.914 58.0681 312.914 58.9321C312.914 59.7962 312.213 60.4967 311.349 60.4967C310.486 60.4967 309.785 59.7962 309.785 58.9321Z" fill="#01689B"/>
<path d="M297.268 89.702C297.268 89.1259 297.736 88.6589 298.311 88.6589H303.527C304.102 88.6589 304.57 89.1259 304.57 89.702V93.8742C304.57 94.4502 304.102 94.9172 303.527 94.9172H302.483V98.0464C302.483 98.6224 302.016 99.0894 301.44 99.0894H300.397C299.822 99.0894 299.354 98.6224 299.354 98.0464V94.9172H298.311C297.736 94.9172 297.268 94.4502 297.268 93.8742V89.702Z" fill="#01689B"/>
<path d="M299.354 86.0514C299.354 85.1873 300.055 84.4868 300.919 84.4868C301.783 84.4868 302.483 85.1873 302.483 86.0514C302.483 86.9154 301.783 87.616 300.919 87.616C300.055 87.616 299.354 86.9154 299.354 86.0514Z" fill="#01689B"/>
<path d="M279.536 78.2285C279.536 77.6524 280.004 77.1854 280.579 77.1854H285.795C286.37 77.1854 286.838 77.6524 286.838 78.2285V82.4007C286.838 82.9767 286.37 83.4437 285.795 83.4437H284.752V86.5728C284.752 87.1489 284.284 87.6159 283.709 87.6159H282.666C282.09 87.6159 281.623 87.1489 281.623 86.5728V83.4437H280.579C280.004 83.4437 279.536 82.9767 279.536 82.4007V78.2285Z" fill="#01689B"/>
<path d="M281.623 74.5778C281.623 73.7137 282.323 73.0132 283.187 73.0132C284.051 73.0132 284.752 73.7137 284.752 74.5778C284.752 75.4418 284.051 76.1423 283.187 76.1423C282.323 76.1423 281.623 75.4418 281.623 74.5778Z" fill="#01689B"/>
<path d="M307.699 80.3145C307.699 79.7385 308.166 79.2715 308.742 79.2715H313.957C314.533 79.2715 315 79.7385 315 80.3145V84.4867C315 85.0628 314.533 85.5298 313.957 85.5298H312.914V88.6589C312.914 89.235 312.447 89.702 311.871 89.702H310.828C310.252 89.702 309.785 89.235 309.785 88.6589V85.5298H308.742C308.166 85.5298 307.699 85.0628 307.699 84.4867V80.3145Z" fill="#01689B"/>
<path d="M309.785 76.6639C309.785 75.7999 310.486 75.0994 311.349 75.0994C312.213 75.0994 312.914 75.7999 312.914 76.6639C312.914 77.528 312.213 78.2285 311.349 78.2285C310.486 78.2285 309.785 77.528 309.785 76.6639Z" fill="#01689B"/>
<path d="M297.268 71.9702C297.268 71.3941 297.736 70.9271 298.311 70.9271H303.527C304.102 70.9271 304.57 71.3941 304.57 71.9702V76.1424C304.57 76.7184 304.102 77.1854 303.527 77.1854H302.483V80.3145C302.483 80.8906 302.016 81.3576 301.44 81.3576H300.397C299.822 81.3576 299.354 80.8906 299.354 80.3145V77.1854H298.311C297.736 77.1854 297.268 76.7184 297.268 76.1424V71.9702Z" fill="#01689B"/>
<path d="M299.354 68.3196C299.354 67.4555 300.055 66.755 300.919 66.755C301.783 66.755 302.483 67.4555 302.483 68.3196C302.483 69.1836 301.783 69.8841 300.919 69.8841C300.055 69.8841 299.354 69.1836 299.354 68.3196Z" fill="#01689B"/>
<path d="M256.589 67.798C256.589 67.222 257.057 66.755 257.632 66.755H262.848C263.423 66.755 263.891 67.222 263.891 67.798V71.9702C263.891 72.5463 263.423 73.0133 262.848 73.0133H261.805V76.1424C261.805 76.7185 261.337 77.1855 260.762 77.1855H259.719C259.143 77.1855 258.675 76.7185 258.675 76.1424V73.0133H257.632C257.057 73.0133 256.589 72.5463 256.589 71.9702V67.798Z" fill="#01689B"/>
<path d="M258.676 64.1473C258.676 63.2833 259.376 62.5828 260.24 62.5828C261.104 62.5828 261.805 63.2833 261.805 64.1473C261.805 65.0114 261.104 65.7119 260.24 65.7119C259.376 65.7119 258.676 65.0114 258.676 64.1473Z" fill="#01689B"/>
<path d="M242.508 55.2815C246.68 55.2815 250.853 56.8461 252.939 64.6689" stroke="#154273"/>
<path d="M254.698 62.1027L253.271 65.3055L250.068 63.879" stroke="#154273"/>
<path d="M265.977 72.9088C268.584 72.9088 272.757 73.5347 274.843 79.2714" stroke="#154273"/>
<path d="M276.046 76.2173L275.211 79.6224L271.805 78.7864" stroke="#154273"/>
<path d="M265.977 38.4883C268.584 38.4883 272.757 39.1142 274.843 44.8509" stroke="#154273"/>
<path d="M276.046 41.7968L275.211 45.2019L271.805 44.3659" stroke="#154273"/>
<path d="M287.881 26.0762C295.182 28.1623 298.833 29.7268 306.134 29.2053" stroke="#154273"/>
<path d="M303.177 26.9615L305.856 29.224L303.593 31.9027" stroke="#154273"/>
<path d="M287.881 46.3018C295.182 48.3878 298.833 49.9524 306.134 49.4309" stroke="#154273"/>
<path d="M303.177 47.1873L305.856 49.4498L303.593 52.1285" stroke="#154273"/>
<path d="M265.977 69.0569C268.584 69.0569 272.757 68.431 274.843 62.6943" stroke="#154273"/>
<path d="M276.046 65.7486L275.211 62.3435L271.805 63.1794" stroke="#154273"/>
<path d="M265.977 34.6364C268.584 34.6364 272.757 34.0105 274.843 28.2738" stroke="#154273"/>
<path d="M276.046 31.3281L275.211 27.923L271.805 28.7589" stroke="#154273"/>
<path d="M287.881 23.1629C291.531 22.4255 293.096 21.3824 295.704 17.8434" stroke="#154273"/>
<path d="M296.211 21.1526L295.979 17.6539L292.481 17.8852" stroke="#154273"/>
<path d="M287.881 43.3885C291.531 42.6511 293.096 41.608 295.704 38.069" stroke="#154273"/>
<path d="M296.211 41.3781L295.979 37.8795L292.481 38.1107" stroke="#154273"/>
<path d="M287.414 62.3721C294.987 61.8245 298.881 61.0403 305.921 63.0451" stroke="#154273"/>
<path d="M302.567 64.6358L305.652 62.9695L303.985 59.8845" stroke="#154273"/>
<path d="M287.881 65.2406C291.531 65.978 293.096 67.0211 295.704 70.5601" stroke="#154273"/>
<path d="M296.211 67.2511L295.979 70.7497L292.481 70.5185" stroke="#154273"/>
<path d="M287.441 83.4335C295.002 82.7353 298.879 81.8737 305.958 83.738" stroke="#154273"/>
<path d="M302.636 85.3954L305.687 83.668L303.959 80.6168" stroke="#154273"/>
<path d="M287.881 86.1016C291.531 86.839 293.096 87.882 295.704 91.4211" stroke="#154273"/>
<path d="M296.211 88.1119L295.979 91.6105L292.481 91.3794" stroke="#154273"/>
<path d="M242.895 51.3145C247.202 50.0662 249.81 49.0232 252.939 42.7649" stroke="#154273"/>
<path d="M249.715 43.3491L253.031 42.21L254.17 45.526" stroke="#154273"/>
<path d="M237.929 3.6194V5.7785H238.659C239.014 5.7785 239.299 5.6742 239.515 5.46559C239.731 5.25698 239.838 4.97536 239.838 4.62072C239.838 4.28695 239.737 4.03662 239.536 3.86973C239.334 3.70284 239.004 3.6194 238.545 3.6194H237.929ZM237.95 6.83198V9.38744H236.594V2.54506H238.639C239.515 2.54506 240.169 2.72585 240.6 3.08744C241.038 3.44904 241.257 3.90798 241.257 4.46426C241.257 4.92321 241.145 5.32652 240.923 5.6742C240.701 6.01493 240.401 6.27221 240.026 6.44605L241.841 9.38744H240.245L238.753 6.83198H237.95ZM244.576 5.86195V4.85019H248.685V5.86195H244.576ZM244.576 7.73943V6.72767H248.685V7.73943H244.576ZM252.3 3.83844V2.70152C252.585 2.63198 252.871 2.57635 253.156 2.53463C253.44 2.49291 253.722 2.47205 254.001 2.47205C254.723 2.47205 255.284 2.64936 255.68 3.004C256.084 3.35168 256.285 3.82801 256.285 4.43297C256.285 4.87105 256.181 5.25698 255.972 5.59075C255.763 5.91757 255.401 6.2583 254.887 6.61294L254.324 7.0093C253.997 7.23181 253.761 7.43695 253.615 7.62469C253.469 7.81244 253.364 8.02453 253.302 8.26095H256.389L256.379 9.38744H252.175L252.029 8.42784C252.099 8.01758 252.245 7.64556 252.467 7.31178C252.689 6.97105 252.999 6.6477 253.396 6.34175L254.084 5.82022C254.362 5.60466 254.561 5.40648 254.679 5.22569C254.796 5.0449 254.856 4.83629 254.856 4.59986C254.856 4.2939 254.762 4.06095 254.574 3.90102C254.386 3.73413 254.115 3.65069 253.761 3.65069C253.497 3.65069 253.253 3.66459 253.031 3.69241C252.808 3.72023 252.564 3.7689 252.3 3.83844Z" fill="#01689B"/>
</g>
<defs>
<clipPath id="clip0">
<rect width="315" height="99.0894" fill="white"/>
</clipPath>
</defs>
</svg>
