<svg width="26" height="36" viewBox="0 0 26 36" fill="none" xmlns="http://www.w3.org/2000/svg">
<path fill-rule="evenodd" clip-rule="evenodd" d="M12.0348 6C5.9985 6 1.09033 10.8733 1.09033 16.9032C1.09033 22.934 5.9985 27.8073 12.0348 27.8073C14.4909 27.8073 16.7611 26.9999 18.5897 25.6363L22.5166 29.5451C22.6553 29.688 22.821 29.8018 23.0041 29.8799C23.1871 29.958 23.3839 29.9988 23.5829 30C23.7819 30.0011 23.9791 29.9626 24.1631 29.8866C24.347 29.8106 24.514 29.6987 24.6543 29.5574C24.7946 29.4162 24.9054 29.2483 24.9803 29.0637C25.0551 28.8791 25.0925 28.6814 25.0902 28.4822C25.088 28.2829 25.0461 28.0862 24.9671 27.9033C24.888 27.7205 24.7734 27.5552 24.63 27.4171L20.726 23.5303C22.1895 21.6322 22.9817 19.3011 22.9782 16.9032C22.9782 10.8733 18.0701 6 12.0338 6H12.0348ZM4.08799 16.9032C4.08799 12.5471 7.63722 9.00142 12.0348 9.00142C16.4314 9.00142 19.9806 12.5471 19.9806 16.9032C19.9806 21.2602 16.4314 24.8059 12.0338 24.8059C7.63722 24.8059 4.08799 21.2602 4.08799 16.9032V16.9032Z" fill="black"/>
</svg>
