<svg width="40" height="76" viewBox="0 0 40 76" xmlns="http://www.w3.org/2000/svg"><g fill-rule="nonzero" fill="none"><path fill="#154273" d="M40 0H0v60h40z"/><path d="M20.72 41.888h-.696V39.96h.696v1.928zm3.144-8.512h-.696v-1.928h.696v1.928zm-12.896-3.328c-.056 0-.416 0-.416.072s.168.04.416.08c.56.096.776.376 1.168.376.352 0 .72-.24.576-.752-.024-.088-.072-.064-.088-.008-.056.232-.336.36-.632.36-.368 0-.44-.128-1.024-.128zm-3.832 1.928c.064.088.72.936-.288 1.264-.048.016-.056.056.008.088.744.312 1.104-.264 1.104-.264.376.864-.2 1.336-.2 1.336.08.152.44.416.976.536.208-.112.496-.32.616-.64 0 0 .144.376.016.736 1.52.136 2.056-1.08 3.232-.856.032.008.048-.016.048-.048 0-.752-.456-2.12-1.912-2.4-1.448-.28-1.056-.872-1.056-.872.608-.024.96.24.96.24.112-.184-.048-.376-.048-.376.056-.072.088-.32.088-.32-.688 0-.864-.152-.864-.152-.104-.408.176-.984 1.2-.368.256-.224.232-.576.232-.576.08-.04.128-.16.128-.208 0-.168-.816-.624-1.024-.68-.048-.248-.368-.6-1.328-.472-.456.056-.784-.064-.632-.328.024-.048-.056-.056-.096-.008-.104.104-.248.4.144.6.44.224.464.664.472.728.008.096-.104.104-.128.008-.2-.744-1.224-.904-1.824-.512.032.4.464.664.696.664.136 0 .32-.136.32-.32 0-.088.048-.08.072-.008.096.264-.296.816-.872.48-.592.592-.352 1.328-.296 1.592.104.48-.128.952-.568.736-.024-.008-.048-.016-.048.032.008.288.4.632.872.368zm3.264-2.984c-.28.312-.728.24-.84-.272.576-.032.816.024.84.272zm17.656 1.184c-.296 0-.576-.128-.632-.36-.016-.056-.064-.08-.088.008-.144.512.224.752.576.752.392 0 .608-.28 1.168-.376.248-.04.416 0 .416-.08 0-.072-.36-.072-.416-.072-.576 0-.656.128-1.024.128zm5.728 1.416c0-.048-.024-.04-.048-.032-.44.216-.672-.248-.568-.736.056-.272.296-1-.296-1.592-.584.336-.976-.216-.872-.48.024-.072.072-.08.072.008 0 .184.184.32.32.32.232 0 .664-.264.696-.664-.6-.392-1.624-.232-1.824.512-.024.096-.136.088-.128-.008.4-.2.256-.496.144-.6-.04-.04-.128-.032-.096.008.152.264-.176.384-.624.328-.96-.128-1.272.232-1.328.472-.208.056-1.024.512-1.024.68 0 .048.048.176.128.208 0 0-.016.344.232.576 1.016-.616 1.304-.04 1.2.368 0 0-.184.144-.872.152 0 0 .032.248.088.32 0 0-.16.2-.048.376 0 0 .352-.264.96-.24 0 0 .392.592-1.056.872s-1.912 1.648-1.912 2.4c0 .04.016.056.048.048 1.176-.216 1.712 1 3.232.856-.136-.36.016-.736.016-.736.12.32.408.536.616.64.544-.12.896-.376.976-.536 0 0-.576-.472-.2-1.336 0 0 .36.576 1.104.264.064-.032.048-.072.008-.088-1.008-.328-.352-1.176-.288-1.264.472.28.872-.064.872-.368l.472-.728zm-3.296-2.872c-.112.512-.56.584-.84.272.024-.248.272-.304.84-.272zM19.76 20.168c0 .128.056.24.096.304.088.128.072.2.032.24-.04.04-.112.056-.24-.032a.527.527 0 01-.096 0c-.216 0-.328.144-.328.264 0 .12.112.264.328.264.128 0 .24-.056.304-.096.128-.088.2-.072.24-.032.04.04-.016.48-.072.832-.36.08-.536.368-.536.536 0 .44.464.688.744.84.272-.144.744-.4.744-.84 0-.168-.176-.464-.536-.536-.048-.344-.112-.792-.072-.832.04-.04.112-.056.24.032.216 0 .328-.144.328-.264 0-.12-.112-.264-.328-.264a.593.593 0 01.096 0c-.128.088-.2.072-.24.032-.04-.04-.056-.112.032-.24 0-.216-.144-.328-.264-.328-.12 0-.264.112-.264.328l-.208-.208zm.264 3.248a.536.536 0 11.536.536l-.536-.536zm0 5.128c2.136 0 3.336.408 3.336.408.008-1.08.008-1.68.624-1.592-.336-.904 1.12-1.264 1.12-2.44 0-.776-.552-.864-.712-.864-.48 0-.408.312-.816.312-.048 0-.104-.016-.104.024 0 .136.112.368.304.368.256 0 .256-.256.448-.256.08 0 .2.064.2.328 0 .504-.328 1.056-.72 1.488a.441.441 0 01-.2 0c-.232 0-.432.24-.432.536 0 .112.016.192.056.28a.754.754 0 11.112 0c-.176 0-.44-.072-.44-.456 0-.856 1.144-1.608 1.144-2.696 0-.52-.344-1.032-1.072-1.032-.776 0-.632.704-1.304.704-.032 0-.056.008-.056.04 0 .048.12.44.464.44.368 0 .472-.64.808-.64.12 0 .304.072.304.504 0 .336-.168.888-.408 1.408a.487.487 0 01-.152 0c-.288 0-.496.28-.496.608 0 .208.08.416.224.544-.168.216-.344.392-.576.392-.464 0-.664-.264-.664-.552 0-.312.568-.424.568-.904 0-.328-.216-.512-.416-.512-.224 0-.336.144-.36.144-.024 0-.136-.144-.36-.144-.208 0-.416.184-.416.512 0 .48.568.6.568.904 0 .288-.208.552-.664.552-.232 0-.408-.176-.576-.392 0-.336-.208-.608-.496-.608a.472.472 0 01.152 0c-.24-.528-.408-1.072-.408-1.408 0-.432.184-.504.304-.504.328 0 .432.64.808.64.344 0 .464-.392.464-.44 0-.024-.024-.04-.056-.04-.672 0-.528-.704-1.304-.704-.72 0-1.072.512-1.072 1.032 0 1.088 1.144 1.84 1.144 2.696 0 .384-.264.456-.44.456-.088 0-.2-.04-.328-.112 0-.296-.2-.536-.432-.536-.144 0-.264.08-.352.2-.392-.432-.72-.984-.72-1.488 0-.256.12-.328.2-.328.184 0 .192.256.448.256.192 0 .304-.232.304-.368 0-.04-.056-.024-.104-.024-.408 0-.336-.312-.816-.312-.16 0-.712.088-.712.864 0 1.184 1.456 1.536 1.12 2.44.616-.088.608.512.624 1.592-.008 0 1.192-.408 3.328-.408l-.992-.912zm-3.912 1.592c-.584.128-1 .248-1.184.304.008-.256.104-.496.336-.544.032-.008.04-.048.008-.064-.52-.344-.792.312-.8.336-.184-.016-.464.04-.464.288 0 .744-1.696 1.152-2.088 1.216.696.264.984 1.144.984 1.144.504-.504 1.088-.944 1.224-.944.136 0 .184.168.192.264 0 .032.032.04.056.016.264-.392.136-.48.112-.6-.016-.088.008-.432.392-.392v4.952l-.2.04c-.088.016-.816-.6-1.64-1.176-.832-.576-1.272-.232-2.216.28-1.24.672-2.488.064-2.488.064-1.064.76-1.432 2.968-1.432 2.968a2.571 2.571 0 11.184 0c-.816 0-.96-.496-.96-.784 0-1.256 1.576-1.792 1.576-3.032 0-.304-.136-1.52-1.648-1.52H3.624c-.568 0-.704-.408-.784-.56-.032-.064-.088-.024-.064.024.04.104-.064.264-.064.576 0 .504.296.808.848.808.248 0 .488-.072.56-.12.048-.032.08.016.056.048-.24.28-.256.808-.16.928.024.032.056.024.056 0 .136-.528.632-1.032 1.304-1.032.824 0 .816.696.816.864 0 1.008-1.768 1.744-1.768 3.136 0 1.408 1.488 1.704 2.344 1.488-.048 1.408-1.664 1.888-1.712.88 0-.048-.04-.056-.064.008-.2.496-.12.936.504 1.072.04.008.024.032-.016.064-.624.392-.288 1.944-.256 2.4.048.656-.608.576-.664.56-.024-.008-.056 0-.008.056.464.568 1.04.048 1.04.048.432.136.168.504-.128.696-.048.032-.04.064.008.064.064.008.736.064.856-.472.296.352.736.224.824.176.128-.064.76-.296.816.408 0 .048.032.016.056-.008.472-.6-.032-.968-.32-1.008.024.032.048.04.048-.024.04-.76-.576-.824-.976-.496-.016-.08-.152-.504.448-.488.016 0 .04-.024.016-.048-.464-.496-.848-.048-.944.064-.208.248-.728.144-.776.144.16-2.632 2.48-1.696 2.8-2.976.016-.064.048-.04.048-.016.088.312.872.352 1.016-.256.008-.04 0-.064-.024-.04-.672.672-2.184-1.424-.12-3.128 1.76-1.448 3.336-.64 3.936-.168.032.208-.096.28-.176.304-.032.008-.04.032.008.056.168.064.4.04.512-.112.376.264.056.6-.096.688-.04.024-.024.048.008.056.344.064.632-.288.648-.496l.056.032v1.496c0 2.128 2.456 2.424 5.152 4.224 2.696-1.808 5.144-2.096 5.144-4.224v-1.496l.056-.032c.016.2.296.56.648.496.032-.008.048-.032.008-.056-.152-.096-.48-.424-.096-.688.112.16.344.176.512.112.048-.016.04-.048.008-.056-.08-.024-.208-.096-.176-.304.6-.48 2.176-1.288 3.936.168 2.064 1.704.552 3.792-.12 3.128-.032-.032-.032 0-.024.04.144.616.928.568 1.016.256.008-.024.04-.048.048.016.32 1.28 2.632.344 2.8 2.976-.048.008-.568.104-.776-.144-.088-.104-.472-.56-.944-.064-.032.032 0 .048.016.048.6-.016.472.408.448.488-.4-.328-1.016-.264-.976.496 0 .056.024.056.048.024.344-.44.72-.12.744-.088-.28.04-.792.408-.32 1.008.024.024.048.056.056.008.064-.704.688-.48.816-.408.088.048.528.176.824-.176.12.536.792.48.856.472.048 0 .048-.032.008-.064-.288-.192-.56-.56-.128-.696 0 0 .576.52 1.04-.048.04-.048.016-.064-.008-.056-.056.016-.712.096-.664-.56.032-.456.368-2.008-.256-2.4-.04-.024-.056-.048-.016-.064.624-.136.704-.576.504-1.072-.024-.064-.064-.048-.064-.008-.048 1.008-1.656.528-1.712-.88.864.224 2.344-.08 2.344-1.488 0-1.384-1.768-2.128-1.768-3.136 0-.168-.008-.864.816-.864.672 0 1.168.504 1.304 1.032.008.024.032.032.056 0 .096-.128.08-.648-.16-.928-.024-.024 0-.08.056-.048.072.048.312.12.56.12.552 0 .848-.304.848-.808 0-.312-.112-.472-.064-.576.024-.048-.04-.08-.064-.024-.08.16-.224.56-.784.56h-.608c-1.512 0-1.648 1.224-1.648 1.52 0 1.24 1.576 1.776 1.576 3.032 0 .296-.152.784-.96.784-.336 0-.688-.096-.896-.184 0 0-.36-2.2-1.432-2.968 0 0-1.248.608-2.488-.064-.944-.512-1.392-.856-2.224-.28-.832.576-1.552 1.192-1.64 1.176l-.2-.04v-4.68c.384-.04.408.304.392.392-.024.112-.144.208.112.6.024.032.048.016.056-.016.008-.096.064-.264.192-.264s.72.44 1.224.944c0 0 .288-.872.984-1.144-.392-.064-2.088-.472-2.088-1.216 0-.248-.28-.304-.464-.288-.008-.024-.288-.68-.8-.336-.024.016-.024.056.008.064.232.056.328.288.336.544-.496-.152-2.6-.744-5.096-.744-1.216 0-2.328.144-3.216.304v1.712h-.696v-1.576zM11.504 47.72c-.184-.072-.304-.192-.304-.44v-1.064c-.304-.104-1.136-.424-2.808-.424-1.384 0-1.816.312-1.84.424l-.368 2.024s.56-.512 2.568-.384c2.416.152 4.92 1.584 4.92.056v-.896c-1.888.008-2.168.616-2.168.704zm14.872-.696v.896c0 1.52 2.504.096 4.92-.056 2.008-.128 2.568.384 2.568.384l-.368-2.032c-.016-.112-.456-.424-1.84-.424-1.664 0-2.496.32-2.808.424v1.064c0 .24-.12.36-.304.44.008-.088-.272-.696-2.168-.696zm-6.352-.92c3.896 0 7.848.2 8.36.792.04.048.056 0 .056-.04v-2.064c0-.6-4.08-.952-8.424-.952-4.344 0-8.424.352-8.424.952v2.064c0 .032.016.08.056.04.536-.584 4.488-.792 8.376-.792zm-3.472-9.728l-.392-.104-.032.048-.456-.2h.408c.04 0 .04-.024.024-.04-.184-.184-.352-.344-.352-.344s.184.072.448.168c.032.008.04-.008.024-.032l-.304-.44.44.296c.024.016.04 0 .032-.024l-.208-.52.4.384c.016.016.04.008.032-.016l-.112-.52.296.432c.016.024.04.016.04-.008 0-.088.008-.472.008-.472s.128.288.184.432c.016.032.032.032.048-.008.016-.048.152-.368.152-.368l.016.496-.064.016-.08.592c.584-.136 1.32-1.144 1.88-1.144.672 0 .912.784 2.144.384.312.464.424.864.544 1.416.48.448 1.144.296 1.144-.176 0-.64-.696-.76-.696-1.432 0-.296.208-.728.776-.728.304 0 .744.128 1 .128.304 0 .368-.216.4-.312.024-.064.112-.048.104.008-.008.064.032.152.032.296 0 .424-.616.48-.688.424-.032-.024-.056.008-.032.032.096.072.072.328-.04.488-.016.016-.032.016-.032 0-.064-.304-.424-.68-.736-.68-.112 0-.344.064-.344.336 0 .376.76.728.76 1.512 0 .816-.808 1.016-1.624.808.024.776 1.184 1.232 1.208.68 0-.04.024-.016.032 0 .168.24.096.416-.128.512.2.088.24.496.296.744.088.368.472.16.496.152.024-.016.032 0 .016.024-.144.376-.536.232-.536.232-.2.144.04.272.224.328.024.008.024.024.008.04-.136.048-.424.144-.568-.104-.104.256-.32.248-.4.248-.152 0-.248.152-.216.36 0 .016-.008.024-.024.016-.352-.232-.152-.512-.008-.584-.024-.016-.272-.12-.376.168-.008.024-.024.024-.032 0-.152-.416.184-.536.424-.432-.016-.056-.144-.264-.464-.192-.016.008-.024 0-.016-.024.056-.128.208-.312.504-.128.152.096.408-.04.432-.056-.52-1.032-1.52-.168-1.752-.976-.008-.016-.024-.032-.04.016-.056.168-.496.184-.576-.152-.008-.024 0-.032.024-.016.064.064.2.12.384-.136.12-.176.136-.408.136-.56 0-.624-.624-1.68-1.6-1.68-.616 0-1.28.24-1.776.6l.456.104a.7.7 0 11.616 0l.072-.528c-.072.024-.248.088-.344.224-.008.008-.024.008-.024-.008-.08-.304.168-.456.24-.488.008-.008.008-.008-.008-.008a.449.449 0 01.208 0c-.008.008-.016.008-.016 0 .024-.064-.016-.216.088-.328l-2.104.824zm1.368 3.584c-.176.216-.328.008-.56.008-.216 0-.256.184-.256.256 0 .016-.008.016-.016.008-.248-.336.032-.52.192-.544-.024-.024-.264-.184-.416.04-.008.016-.024.008-.024-.008-.008-.416.32-.448.544-.264.04-.16-.064-.264-.24-.272-.024 0-.024-.016-.016-.024.072-.08.144-.112.216-.112.232 0 .264.296.416.296.224 0 .552-.304.576-.336-.008-.016-.224-.608-.184-.96 0-.016-.008-.016-.016-.008-.112.064-.384.056-.384-.28 0-.024.008-.032.024-.008.12.168.32-.024.416-.136.104-.12.68-.952 1.44-.952.168 0 .384.096.56.216-.264.32 0 .624.192.584.024-.008.024.016.008.024-1.008.376-1.456.528-1.456 1.376 0 .44.152.688.408.624.016-.008.024 0 .008.016-.096.112-.2.152-.288.152-.208 0-.248-.112-.36-.112-.112 0-.488.224-.488.408 0 .072.048.168.176.248.008.008 0 .016 0 .016-.112 0-.408.024-.472-.256zm2.648-8.2c-.312-.016-.52.048-.504.152.152.16.352.144.504-.152zm-1.16.776c.224-.056.464-.032.496-.024.032.008.032.064-.008.072-.464.056-.488.272-.784.272-.192 0-.408-.2-.328-.488.008-.04.04-.04.048 0 .032.128.216.264.576.168zm-6.024 10.288c.304.392.6.024 1.008.024.2 0 .44.064.48.464 0 .024.016.024.04 0 .44-.6-.064-.936-.352-.984.064-.056.488-.32.768.072.016.024.048.016.048-.016 0-.76-.568-.816-.984-.488-.08-.296.144-.488.432-.488.032 0 .048-.024.032-.04-.512-.544-.888.144-.976.248-.2.272-.928-.24-1.224-.544 0 0 .64-.672.64-1.288 0-.04-.008-.088-.008-.112 0-.016.008-.024.024-.016.064.04.152.064.24.064.144 0 .424-.048.424-.568 0-.04-.016-.04-.032-.016-.08.112-.16.136-.224.136-.52 0-1.6-1.728-2.88-1.728-.336 0-.968.24-1.28.584.152.088.184.28.168.416-.024.216-.2.328-.376.376-.032.008-.032.032 0 .048.648.248 1.816.688 2.088.92.312.272.256.784.072 1.496-.176.68-.552.592-.696.568-.024 0-.024.008-.016.024.336 0 .464-.208.632-.208.288 0 .904.416.904.736 0 .176-.136.344-.32.456-.008.008-.008.024.008.024.136.024.704.072.816-.44l.544.28zm14.104.44c.016 0 .024-.016.008-.024-.176-.12-.32-.28-.32-.456 0-.32.608-.736.904-.736.176 0 .296.208.632.208.016-.016.008-.032-.016-.024-.136.024-.52.112-.696-.568-.184-.712-.248-1.224.072-1.496.264-.232 1.44-.672 2.088-.92.032-.016.032-.04 0-.048-.176-.048-.352-.16-.376-.376-.016-.136.016-.32.168-.416-.32-.344-.952-.584-1.288-.584-1.28 0-2.36 1.728-2.88 1.728-.064 0-.152-.024-.224-.136-.016-.024-.032-.024-.032.016 0 .52.28.568.424.568.08 0 .176-.024.24-.064.016-.008.024 0 .024.016 0 .024-.008.072-.008.112 0 .616.64 1.288.64 1.288-.288.304-1.016.808-1.224.544-.088-.112-.464-.792-.976-.248-.016.024-.008.04.032.04.288 0 .512.192.432.488-.416-.328-.984-.272-.984.488 0 .032.032.04.048.016.272-.392.704-.128.76-.072-.288.04-.784.384-.352.984.016.024.032.024.04 0 .048-.392.288-.464.48-.464.4 0 .696.368 1.008-.024.128.512.696.464.832.44l.544-.28zM17.16 33.288c-.04.056-.176 0-.224-.024-.008-.008-.016 0-.008.008.032.072.16.288.352.288.088 0 .216-.048.248-.112 0 0 .752.248 1.12.344a1.33 1.33 0 01.672 0c-.296-.184-1.496-.824-1.496-.824l-.368.512c-.064.08-.36-.136-.296-.216l.28-.392c-.096-.096-.32-.04-.384-.016-.008 0-.016 0-.008-.016.04-.08.176-.312.528-.208 0-.216-.32-.144-.408-.12-.008 0-.016 0-.008-.008.088-.096.352-.304.64-.128l.128-.176-.256-.272.16-.224.184.24 1.384-1.896c.032-.048.312-.128.408-.152.008.104.024.392-.008.44l-1.36 1.912.288.096-.16.224-.336-.16-.144.208-.928.672zm4.856-.312c0 .176.104.432.336.352.008-.008.024 0 .016.008-.032.192-.384.368-.536.144-.144.296-.104.576.192.736.016.008.016.032 0 .048a.395.395 0 11-.152 0c-.248.184-.216.584-.064.72 0 0-.688.408-1.312.12-.416-.2-.752-.456-1.288-.408.072-.752.448-.944 1.136-1.056.552-.088.616-.344.544-.536-.184-.048-.528.12-.528.12-.064-.104.024-.208.024-.208-.032-.04-.048-.176-.048-.176.384 0 .456-.088.456-.088.072-.4-.336-.44-.648-.224-.144-.128-.12-.296-.12-.296a.176.176 0 11-.12 0c0-.096.456-.352.576-.384.032-.136.192-.32.68-.272.056-.128-.04-.6-.096-.72-.016-.04.008-.056.048-.032.168.104.336.504.456.512 0 0 .544-.288.568-.272.024.016.104.624.104.624.072.088.496 0 .68.08.048.024.048.056 0 .064-.136.024-.576.216-.648.336.256.376.136.928.136 1.08l-.392-.272zM0 60h40v16H0z" fill="#FFF"/></g></svg>

