<svg xmlns="http://www.w3.org/2000/svg" height="125" width="314"><path fill="none" d="M0 0h314v125H0z"/><path fill="#154273" d="M0 0h50v100H0z"/><path d="M25.9 77.36h-.87v-2.41h.87v2.41zm3.93-10.64h-.87v-2.41h.87v2.41zm-16.12-4.16c-.07 0-.52 0-.52.09s.21.05.52.1c.7.12.97.47 1.46.47.44 0 .9-.3.72-.94-.03-.11-.09-.08-.11-.01-.07.29-.42.45-.79.45-.46 0-.55-.16-1.28-.16zm-4.79 2.41c.08.11.9 1.17-.36 1.58-.06.02-.07.07.01.11.93.39 1.38-.33 1.38-.33.47 1.08-.25 1.67-.25 1.67.1.19.55.52 1.22.67.26-.14.62-.4.77-.8 0 0 .18.47.02.92 1.9.17 2.57-1.35 4.04-1.07.04.01.06-.02.06-.06 0-.94-.57-2.65-2.39-3-1.81-.35-1.32-1.09-1.32-1.09.76-.03 1.2.3 1.2.3.14-.23-.06-.47-.06-.47.07-.09.11-.4.11-.4-.86 0-1.08-.19-1.08-.19-.13-.51.22-1.23 1.5-.46.32-.28.29-.72.29-.72.1-.05.16-.2.16-.26 0-.21-1.02-.78-1.28-.85-.06-.31-.46-.75-1.66-.59-.57.07-.98-.08-.79-.41.03-.06-.07-.07-.12-.01-.13.13-.31.5.18.75.55.28.58.83.59.91.01.12-.13.13-.16.01-.25-.93-1.53-1.13-2.28-.64.04.5.58.83.87.83.17 0 .4-.17.4-.4 0-.11.06-.1.09-.01.12.33-.37 1.02-1.09.6-.74.74-.44 1.66-.37 1.99.13.6-.16 1.19-.71.92-.03-.01-.06-.02-.06.04.01.36.5.79 1.09.46zM13 61.24c-.35.39-.91.3-1.05-.34.72-.04 1.02.03 1.05.34zm22.07 1.48c-.37 0-.72-.16-.79-.45-.02-.07-.08-.1-.11.01-.18.64.28.94.72.94.49 0 .76-.35 1.46-.47.31-.05.52 0 .52-.1 0-.09-.45-.09-.52-.09-.72 0-.82.16-1.28.16zm7.16 1.77c0-.06-.03-.05-.06-.04-.55.27-.84-.31-.71-.92.07-.34.37-1.25-.37-1.99-.73.42-1.22-.27-1.09-.6.03-.09.09-.1.09.01 0 .23.23.4.4.4.29 0 .83-.33.87-.83-.75-.49-2.03-.29-2.28.64-.03.12-.17.11-.16-.01 0-.08.04-.63.59-.91.5-.25.32-.62.18-.75-.05-.05-.16-.04-.12.01.19.33-.22.48-.78.41-1.2-.16-1.59.29-1.66.59-.26.07-1.28.64-1.28.85 0 .06.06.22.16.26 0 0-.02.43.29.72 1.27-.77 1.63-.05 1.5.46 0 0-.23.18-1.09.19 0 0 .04.31.11.4 0 0-.2.25-.06.47 0 0 .44-.33 1.2-.3 0 0 .49.74-1.32 1.09-1.81.35-2.39 2.06-2.39 3 0 .05.02.07.06.06 1.47-.27 2.14 1.25 4.04 1.07-.17-.45.02-.92.02-.92.15.4.51.67.77.8.68-.15 1.12-.47 1.22-.67 0 0-.72-.59-.25-1.67 0 0 .45.72 1.38.33.08-.04.06-.09.01-.11-1.26-.41-.44-1.47-.36-1.58.59.35 1.09-.08 1.09-.46zm-4.12-3.59c-.14.64-.7.73-1.05.34.03-.31.34-.38 1.05-.34zM24.7 50.21c0 .16.07.3.12.38.11.16.09.25.04.3-.05.05-.14.07-.3-.04a.659.659 0 00-.38-.12c-.27 0-.41.18-.41.33 0 .15.14.33.41.33.16 0 .3-.07.38-.12.16-.11.25-.09.3-.04.05.05-.02.6-.09 1.04-.45.1-.67.46-.67.67 0 .55.58.86.93 1.05.34-.18.93-.5.93-1.05 0-.21-.22-.58-.67-.67-.06-.43-.14-.99-.09-1.04.05-.05.14-.07.3.04.08.06.22.12.38.12.27 0 .41-.18.41-.33 0-.15-.14-.33-.41-.33-.16 0-.3.07-.38.12-.16.11-.25.09-.3.04-.05-.05-.07-.14.04-.3.06-.08.12-.22.12-.38 0-.27-.18-.41-.33-.41-.15 0-.33.14-.33.41zm.33 4.06a.67.67 0 100 1.34.67.67 0 000-1.34zm0 6.41c2.67 0 4.17.51 4.17.51.01-1.35.01-2.1.78-1.99-.42-1.13 1.4-1.58 1.4-3.05 0-.97-.69-1.08-.89-1.08-.6 0-.51.39-1.02.39-.06 0-.13-.02-.13.03 0 .17.14.46.38.46.32 0 .32-.32.56-.32.1 0 .25.08.25.41 0 .63-.41 1.32-.9 1.86-.11-.15-.26-.25-.45-.25-.29 0-.54.3-.54.67 0 .14.02.24.07.35-.16.09-.31.14-.41.14-.22 0-.55-.09-.55-.57 0-1.07 1.43-2.01 1.43-3.37 0-.65-.43-1.29-1.34-1.29-.97 0-.79.88-1.63.88-.04 0-.07.01-.07.05 0 .06.15.55.58.55.46 0 .59-.8 1.01-.8.15 0 .38.09.38.63 0 .42-.21 1.11-.51 1.76a.609.609 0 00-.42-.19c-.36 0-.62.35-.62.76 0 .26.1.52.28.68-.21.27-.43.49-.72.49-.58 0-.83-.33-.83-.69 0-.39.71-.53.71-1.13 0-.41-.27-.64-.52-.64-.28 0-.42.18-.45.18-.03 0-.17-.18-.45-.18-.26 0-.52.23-.52.64 0 .6.71.75.71 1.13 0 .36-.26.69-.83.69-.29 0-.51-.22-.72-.49.18-.17.28-.42.28-.68 0-.42-.26-.76-.62-.76a.59.59 0 00-.42.19c-.3-.66-.51-1.34-.51-1.76 0-.54.23-.63.38-.63.41 0 .54.8 1.01.8.43 0 .58-.49.58-.55 0-.03-.03-.05-.07-.05-.84 0-.66-.88-1.63-.88-.9 0-1.34.64-1.34 1.29 0 1.36 1.43 2.3 1.43 3.37 0 .48-.33.57-.55.57-.11 0-.25-.05-.41-.14.05-.12.07-.21.07-.35 0-.37-.25-.67-.54-.67-.18 0-.33.1-.44.25-.49-.54-.9-1.23-.9-1.86 0-.32.15-.41.25-.41.23 0 .24.32.56.32.24 0 .38-.29.38-.46 0-.05-.07-.03-.13-.03-.51 0-.42-.39-1.02-.39-.2 0-.89.11-.89 1.08 0 1.48 1.82 1.92 1.4 3.05.77-.11.76.64.78 1.99-.01 0 1.49-.51 4.16-.51zm-4.89 1.99c-.73.16-1.25.31-1.48.38.01-.32.13-.62.42-.68.04-.01.05-.06.01-.08-.65-.43-.99.39-1 .42-.23-.02-.58.05-.58.36 0 .93-2.12 1.44-2.61 1.52.87.33 1.23 1.43 1.23 1.43.63-.63 1.36-1.18 1.53-1.18.17 0 .23.21.24.33 0 .04.04.05.07.02.33-.49.17-.6.14-.75-.02-.11.01-.54.49-.49v6.19l-.25.05c-.11.02-1.02-.75-2.05-1.47-1.04-.72-1.59-.29-2.77.35-1.55.84-3.11.08-3.11.08-1.33.95-1.79 3.71-1.79 3.71-.27.11-.71.23-1.12.23-1.02 0-1.2-.62-1.2-.98 0-1.57 1.97-2.24 1.97-3.79 0-.38-.17-1.9-2.06-1.9H4.53c-.71 0-.88-.51-.98-.7-.04-.08-.11-.03-.08.03.05.13-.08.33-.08.72 0 .63.37 1.01 1.06 1.01.31 0 .61-.09.7-.15.06-.04.1.02.07.06-.3.35-.32 1.01-.2 1.16.03.04.07.03.07 0 .17-.66.79-1.29 1.63-1.29 1.03 0 1.02.87 1.02 1.08 0 1.26-2.21 2.18-2.21 3.92 0 1.76 1.86 2.13 2.93 1.86-.06 1.76-2.08 2.36-2.14 1.1 0-.06-.05-.07-.08.01-.25.62-.15 1.17.63 1.34.05.01.03.04-.02.08-.78.49-.36 2.43-.32 3 .06.82-.76.72-.83.7-.03-.01-.07 0-.01.07.58.71 1.3.06 1.3.06.54.17.21.63-.16.87-.06.04-.05.08.01.08.08.01.92.08 1.07-.59.37.44.92.28 1.03.22.16-.08.95-.37 1.02.51 0 .06.04.02.07-.01.59-.75-.04-1.21-.4-1.26.03-.04.5-.44.93.11.03.04.06.05.06-.03.05-.95-.72-1.03-1.22-.62-.02-.1-.19-.63.56-.61.02 0 .05-.03.02-.06-.58-.62-1.06-.06-1.18.08-.26.31-.91.18-.97.18.2-3.29 3.1-2.12 3.5-3.72.02-.08.06-.05.06-.02.11.39 1.09.44 1.27-.32.01-.05 0-.08-.03-.05-.84.84-2.73-1.78-.15-3.91 2.2-1.81 4.17-.8 4.92-.21.04.26-.12.35-.22.38-.04.01-.05.04.01.07.21.08.5.05.64-.14.47.33.07.75-.12.86-.05.03-.03.06.01.07.43.08.79-.36.81-.62l.07.04v1.87c0 2.66 3.07 3.03 6.44 5.28 3.37-2.26 6.43-2.62 6.43-5.28v-1.87l.07-.04c.02.25.37.7.81.62.04-.01.06-.04.01-.07-.19-.12-.6-.53-.12-.86.14.2.43.22.64.14.06-.02.05-.06.01-.07-.1-.03-.26-.12-.22-.38.75-.6 2.72-1.61 4.92.21 2.58 2.13.69 4.74-.15 3.91-.04-.04-.04 0-.03.05.18.77 1.16.71 1.27.32.01-.03.05-.06.06.02.4 1.6 3.29.43 3.5 3.72-.06.01-.71.13-.97-.18-.11-.13-.59-.7-1.18-.08-.04.04 0 .06.02.06.75-.02.59.51.56.61-.5-.41-1.27-.33-1.22.62 0 .07.03.07.06.03.43-.55.9-.15.93-.11-.35.05-.99.51-.4 1.26.03.03.06.07.07.01.08-.88.86-.6 1.02-.51.11.06.66.22 1.03-.22.15.67.99.6 1.07.59.06 0 .06-.04.01-.08-.36-.24-.7-.7-.16-.87 0 0 .72.65 1.3-.06.05-.06.02-.08-.01-.07-.07.02-.89.12-.83-.7.04-.57.46-2.51-.32-3-.05-.03-.07-.06-.02-.08.78-.17.88-.72.63-1.34-.03-.08-.08-.06-.08-.01-.06 1.26-2.07.66-2.14-1.1 1.08.28 2.93-.1 2.93-1.86 0-1.73-2.21-2.66-2.21-3.92 0-.21-.01-1.08 1.02-1.08.84 0 1.46.63 1.63 1.29.01.03.04.04.07 0 .12-.16.1-.81-.2-1.16-.03-.03 0-.1.07-.06.09.06.39.15.7.15.69 0 1.06-.38 1.06-1.01 0-.39-.14-.59-.08-.72.03-.06-.05-.1-.08-.03-.1.2-.28.7-.98.7h-1.69c-1.89 0-2.06 1.53-2.06 1.9 0 1.55 1.97 2.22 1.97 3.79 0 .37-.19.98-1.2.98-.42 0-.86-.12-1.12-.23 0 0-.45-2.75-1.79-3.71 0 0-1.56.76-3.11-.08-1.18-.64-1.74-1.07-2.78-.35-1.04.72-1.94 1.49-2.05 1.47l-.25-.05v-6.19c.48-.05.51.38.49.49-.03.14-.18.26.14.75.03.04.06.02.07-.02.01-.12.08-.33.24-.33.16 0 .9.55 1.53 1.18 0 0 .36-1.09 1.23-1.43-.49-.08-2.61-.59-2.61-1.52 0-.31-.35-.38-.58-.36-.01-.03-.36-.85-1-.42-.03.02-.03.07.01.08.29.07.41.36.42.68-.62-.19-3.25-.93-6.37-.93-1.52 0-2.91.18-4.02.38v2.14h-.87v-1.97m-5.76 21.98c-.23-.09-.38-.24-.38-.55v-1.33c-.38-.13-1.42-.53-3.51-.53-1.73 0-2.27.39-2.3.53l-.46 2.53s.7-.64 3.21-.48c3.02.19 6.15 1.98 6.15.07v-1.12c-2.36.01-2.71.77-2.71.88zm18.59-.87v1.12c0 1.9 3.13.12 6.15-.07 2.51-.16 3.21.48 3.21.48l-.46-2.54c-.02-.14-.57-.53-2.3-.53-2.08 0-3.12.4-3.51.53v1.33c0 .3-.15.45-.38.55.01-.11-.34-.87-2.71-.87zm-7.94-1.15c4.87 0 9.81.25 10.45.99.05.06.07 0 .07-.05v-2.58c0-.75-5.1-1.19-10.53-1.19s-10.53.44-10.53 1.19v2.58c0 .04.02.1.07.05.67-.73 5.61-.99 10.47-.99zm-4.34-12.16l-.49-.13-.04.06-.57-.25h.51c.05 0 .05-.03.03-.05-.23-.23-.44-.43-.44-.43s.23.09.56.21c.04.01.05-.01.03-.04l-.38-.55.55.37c.03.02.05 0 .04-.03l-.26-.65.5.48c.02.02.05.01.04-.02l-.14-.65.37.54c.02.03.05.02.05-.01 0-.11.01-.59.01-.59s.16.36.23.54c.02.04.04.04.06-.01.02-.06.19-.46.19-.46l.02.62-.08.02-.1.74c.73-.17 1.65-1.43 2.35-1.43.84 0 1.14.98 2.68.48.39.58.53 1.08.68 1.77.6.56 1.43.37 1.43-.22 0-.8-.87-.95-.87-1.79 0-.37.26-.91.97-.91.38 0 .93.16 1.25.16.38 0 .46-.27.5-.39.03-.08.14-.06.13.01-.01.08.04.19.04.37 0 .53-.77.6-.86.53-.04-.03-.07.01-.04.04.12.09.09.41-.05.61-.02.02-.04.02-.04 0-.08-.38-.53-.85-.92-.85-.14 0-.43.08-.43.42 0 .47.95.91.95 1.89 0 1.02-1.01 1.27-2.03 1.01.03.97 1.48 1.54 1.51.85 0-.05.03-.02.04 0 .21.3.12.52-.16.64.25.11.3.62.37.93.11.46.59.2.62.19.03-.02.04 0 .02.03-.18.47-.67.29-.67.29-.25.18.05.34.28.41.03.01.03.03.01.05-.17.06-.53.18-.71-.13-.13.32-.4.31-.5.31-.19 0-.31.19-.27.45 0 .02-.01.03-.03.02-.44-.29-.19-.64-.01-.73-.03-.02-.34-.15-.47.21-.01.03-.03.03-.04 0-.19-.52.23-.67.53-.54-.02-.07-.18-.33-.58-.24-.02.01-.03 0-.02-.03.07-.16.26-.39.63-.16.19.12.51-.05.54-.07-.65-1.29-1.9-.21-2.19-1.22-.01-.02-.03-.04-.05.02-.07.21-.62.23-.72-.19-.01-.03 0-.04.03-.02.08.08.25.15.48-.17.15-.22.17-.51.17-.7 0-.78-.78-2.1-2-2.1-.77 0-1.6.3-2.22.75l.57.13c-.05.58-.61.92-1.12.77l.09-.66c-.09.03-.31.11-.43.28-.01.01-.03.01-.03-.01-.1-.38.21-.57.3-.61.01-.01.01-.01-.01-.01-.28-.01-.43.19-.48.26-.01.01-.02.01-.02 0 .03-.08-.02-.27.11-.41zm1.71 4.48c-.22.27-.41.01-.7.01-.27 0-.32.23-.32.32 0 .02-.01.02-.02.01-.31-.42.04-.65.24-.68-.03-.03-.33-.23-.52.05-.01.02-.03.01-.03-.01-.01-.52.4-.56.68-.33.05-.2-.08-.33-.3-.34-.03 0-.03-.02-.02-.03.09-.1.18-.14.27-.14.29 0 .33.37.52.37.28 0 .69-.38.72-.42-.01-.02-.28-.76-.23-1.2 0-.02-.01-.02-.02-.01-.14.08-.48.07-.48-.35 0-.03.01-.04.03-.01.15.21.4-.03.52-.17.13-.15.85-1.19 1.8-1.19.21 0 .48.12.7.27-.33.4 0 .78.24.73.03-.01.03.02.01.03-1.26.47-1.82.66-1.82 1.72 0 .55.19.86.51.78.02-.01.03 0 .01.02-.12.14-.25.19-.36.19-.26 0-.31-.14-.45-.14s-.61.28-.61.51c0 .09.06.21.22.31.01.01 0 .02 0 .02-.14 0-.51.03-.59-.32zm3.31-10.25c-.39-.02-.65.06-.63.19.19.2.44.18.63-.19zm-1.45.97c.28-.07.58-.04.62-.03.04.01.04.08-.01.09-.58.07-.61.34-.98.34-.24 0-.51-.25-.41-.61.01-.05.05-.05.06 0 .04.16.27.33.72.21zm-7.53 12.86c.38.49.75.03 1.26.03.25 0 .55.08.6.58 0 .03.02.03.05 0 .55-.75-.08-1.17-.44-1.23.08-.07.61-.4.96.09.02.03.06.02.06-.02 0-.95-.71-1.02-1.23-.61-.1-.37.18-.61.54-.61.04 0 .06-.03.04-.05-.64-.68-1.11.18-1.22.31-.25.34-1.16-.3-1.53-.68 0 0 .8-.84.8-1.61 0-.05-.01-.11-.01-.14 0-.02.01-.03.03-.02.08.05.19.08.3.08.18 0 .53-.06.53-.71 0-.05-.02-.05-.04-.02-.1.14-.2.17-.28.17-.65 0-2-2.16-3.6-2.16-.42 0-1.21.3-1.6.73.19.11.23.35.21.52-.03.27-.25.41-.47.47-.04.01-.04.04 0 .06.81.31 2.27.86 2.61 1.15.39.34.32.98.09 1.87-.22.85-.69.74-.87.71-.03 0-.03.01-.02.03.21.26.46.35.68.35.42 0 .58-.26.79-.26.36 0 1.13.52 1.13.92 0 .22-.17.43-.4.57-.01.01-.01.03.01.03.17.03.88.09 1.02-.55zm17.63.55c.02 0 .03-.02.01-.03-.22-.15-.4-.35-.4-.57 0-.4.76-.92 1.13-.92.22 0 .37.26.79.26.22 0 .47-.09.68-.35.02-.02.01-.04-.02-.03-.17.03-.65.14-.87-.71-.23-.89-.31-1.53.09-1.87.33-.29 1.8-.84 2.61-1.15.04-.02.04-.05 0-.06-.22-.06-.44-.2-.47-.47-.02-.17.02-.4.21-.52-.4-.43-1.19-.73-1.61-.73-1.6 0-2.95 2.16-3.6 2.16-.08 0-.19-.03-.28-.17-.02-.03-.04-.03-.04.02 0 .65.35.71.53.71.1 0 .22-.03.3-.08.02-.01.03 0 .03.02 0 .03-.01.09-.01.14 0 .77.8 1.61.8 1.61-.36.38-1.27 1.01-1.53.68-.11-.14-.58-.99-1.22-.31-.02.03-.01.05.04.05.36 0 .64.24.54.61-.52-.41-1.23-.34-1.23.61 0 .04.04.05.06.02.34-.49.88-.16.95-.09-.36.05-.98.48-.44 1.23.02.03.04.03.05 0 .06-.49.36-.58.6-.58.5 0 .87.46 1.26-.03.16.64.87.58 1.04.55zM21.45 66.61c-.05.07-.22 0-.28-.03-.01-.01-.02 0-.01.01.04.09.2.36.44.36.11 0 .27-.06.31-.14 0 0 .94.31 1.4.43-.18.24-.29.53-.32.84-.37-.23-1.87-1.03-1.87-1.03l-.46.64c-.08.1-.45-.17-.37-.27l.35-.49c-.12-.12-.4-.05-.48-.02-.01 0-.02 0-.01-.02.05-.1.22-.39.66-.26 0-.27-.4-.18-.51-.15-.01 0-.02 0-.01-.01.11-.12.44-.38.8-.16l.16-.22-.32-.34.2-.28.23.3 1.73-2.37c.04-.06.39-.16.51-.19.01.13.03.49-.01.55l-1.7 2.39.36.12-.2.28-.42-.2-.18.26zm6.07-.39c0 .22.13.54.42.44.01-.01.03 0 .02.01-.04.24-.48.46-.67.18-.18.37-.13.72.24.92.02.01.02.04 0 .06-.23.16-.58.13-.74-.19-.31.23-.27.73-.08.9 0 0-.86.51-1.64.15-.52-.25-.94-.57-1.61-.51.09-.94.56-1.18 1.42-1.32.69-.11.77-.43.68-.67-.23-.06-.66.15-.66.15-.08-.13.03-.26.03-.26-.04-.05-.06-.22-.06-.22.48 0 .57-.11.57-.11.09-.5-.42-.55-.81-.28-.18-.16-.15-.37-.15-.37a.22.22 0 01-.09-.15c0-.12.57-.44.72-.48.04-.17.24-.4.85-.34.07-.16-.05-.75-.12-.9-.02-.05.01-.07.06-.04.21.13.42.63.57.64 0 0 .68-.36.71-.34.03.02.13.78.13.78.09.11.62 0 .85.1.06.03.06.07 0 .08-.17.03-.72.27-.81.42.32.47.17 1.16.17 1.35z" fill="#fff"/><g><path d="M61.88 64.46c.6-.17.9-.48.9-1.18v-7.61l-.98-.31v-.34c.98-.17 1.86-.23 3.09-.23 2.34 0 3.46.91 3.46 2.62 0 1.53-.85 2.54-2.23 2.96l2.19 2.93c.37.5.88.87 1.44 1.05v.29c-.29.2-.68.34-1.18.34-.67 0-1.1-.26-1.66-1.1l-2.05-3.1h-.73v3.27l.98.25v.34c-.51.16-1.08.26-1.77.26-.54 0-1.01-.05-1.46-.16v-.28zm2.85-4.41c1.21 0 2.2-.79 2.2-2.4 0-1.27-.81-2-2.14-2-.2 0-.47.03-.67.06v4.34h.61zM70.45 64.5c.42-.15.82-.46.82-.84v-5.24l-.99-.42v-.33c.7-.2 1.41-.29 1.84-.29h.5l-.08.84v5.89l.87.23v.29c-.53.19-1.01.26-1.8.26-.36 0-.81-.03-1.16-.14v-.25zm.65-9.43c0-.48.34-.91.88-.91.43 0 .81.33.81.84 0 .54-.37.96-.87.96-.46-.01-.82-.38-.82-.89zM75.52 58.42l-1-.42v-.33c.71-.2 1.41-.29 1.86-.29h.5l-.09.87v6.96c0 2.54-.76 3.33-1.75 3.33-.34 0-.68-.12-.87-.37v-.25c.68 0 1.35-.78 1.35-2.36v-7.14zm-.18-3.35c0-.48.34-.91.88-.91.43 0 .81.33.81.84 0 .54-.37.96-.87.96-.46-.01-.82-.38-.82-.89zM78.83 64.5c.42-.15.84-.46.84-.84v-8.99l-1.02-.42v-.34c.71-.2 1.43-.28 1.86-.28h.53l-.09.87v6.2l.85-.74c.84-.71 1.6-1.78 1.6-2.48.28-.09.51-.12.82-.12.23 0 .42.05.62.14-.03.67-.7 1.72-2.11 2.73l-.54.39 2.39 2.9c.43.53.82.74 1.15.74v.33c-.34.23-.7.33-1.15.33-.43 0-.81-.19-1.1-.59L80.95 61v3.13l.81.25v.29c-.57.19-1.02.25-1.75.25-.36 0-.81-.03-1.16-.14v-.28zM86.15 63.08c.7.65 1.36.98 2.19.98.87 0 1.32-.42 1.32-.96s-.31-.88-1.33-1.32l-.77-.33c-.9-.39-1.4-1.04-1.4-1.92 0-1.22 1.08-2.28 2.7-2.28 1.24 0 1.74.37 1.74.96 0 .23-.03.43-.08.65-.5-.34-1.18-.59-1.77-.59-.99 0-1.46.43-1.46.96 0 .56.28.87 1.21 1.22l.84.33c1.12.43 1.54 1.01 1.54 1.92 0 1.19-1.15 2.28-2.88 2.28-1.36 0-1.97-.43-1.97-1.27-.02-.21.03-.46.12-.63zM95.6 57.26c1.91 0 3.38 1.43 3.38 3.58 0 2.56-1.78 4.17-3.63 4.17-1.88 0-3.4-1.32-3.4-3.58.01-2.55 1.75-4.17 3.65-4.17zm-.15 6.85c1.04 0 2.12-1.01 2.12-3.13 0-1.81-.98-2.82-2.08-2.82-1.07 0-2.12 1.07-2.12 3.12 0 1.87.98 2.83 2.08 2.83zM100.02 58.2l-.64-.45v-.37h2.96v.37l-.88.37 1.67 4.91h.02l1.72-4.87-.88-.42v-.37h2.39v.37l-.43.36-2.76 6.84-.53.03-2.64-6.77zM110.03 57.27c1.67 0 2.68 1.12 2.68 2.9 0 .29 0 .6-.02.99h-4.57c0 1.74 1.01 2.74 2.29 2.74.76 0 1.6-.26 2.19-.67.03.08.06.25.06.4 0 .7-1.02 1.35-2.67 1.35-1.77 0-3.21-1.38-3.21-3.55.01-2.69 1.64-4.16 3.25-4.16zm1.45 3.09c0-1.52-.65-2.25-1.57-2.25-.85 0-1.75 1.02-1.75 2.25h3.32zM114.05 64.5c.4-.15.82-.46.82-.84v-5.24l-1.01-.42v-.34c.71-.2 1.41-.28 1.86-.28h.37v1.08h.01l.43-.48c.42-.45.84-.68 1.36-.68.54 0 .81.23.81.67 0 .29-.09.64-.25.93-.29-.23-.64-.36-.96-.36-.48 0-.93.22-1.36.64v4.93l1.07.23v.29c-.53.19-1.04.26-1.92.26-.45 0-.88-.03-1.24-.14v-.25zM119.35 64.5c.42-.15.82-.46.82-.84v-8.99l-1.01-.42v-.34c.7-.2 1.33-.28 1.86-.28h.5l-.08.87v3.71c.56-.54 1.27-.85 2.25-.85 1.32 0 2.17.82 2.17 2.42v4.34l.81.23v.29c-.43.17-.98.26-1.64.26-.31 0-.7-.03-.99-.14v-.26c.37-.17.56-.46.56-1.02v-2.96c0-1.52-.62-2.09-1.58-2.09-.61 0-1.21.22-1.57.48v5.21l.87.23v.29c-.53.19-1.01.26-1.8.26-.36 0-.81-.03-1.16-.14v-.26zM131.07 57.27c1.67 0 2.68 1.12 2.68 2.9 0 .29 0 .6-.02.99h-4.57c0 1.74 1.01 2.74 2.29 2.74.76 0 1.6-.26 2.19-.67.03.08.06.25.06.4 0 .7-1.02 1.35-2.67 1.35-1.77 0-3.21-1.38-3.21-3.55.01-2.69 1.64-4.16 3.25-4.16zm1.44 3.09c0-1.52-.65-2.25-1.57-2.25-.85 0-1.75 1.02-1.75 2.25h3.32zM135.08 64.5c.42-.15.82-.46.82-.84v-5.24l-.99-.42v-.33c.7-.2 1.41-.29 1.85-.29h.5l-.08.84v5.89l.87.23v.29c-.53.19-1.01.26-1.8.26-.36 0-.81-.03-1.16-.14v-.25zm.65-9.43c0-.48.34-.91.88-.91.43 0 .81.33.81.84 0 .54-.37.96-.87.96-.46-.01-.82-.38-.82-.89zM142.96 57.29c.37 0 .82.05 1.07.11v-2.73l-1.05-.42v-.34c.71-.2 1.47-.28 1.92-.28h.5l-.09.87v8.88c.11.31.29.64.59.9-.31.28-.65.5-1.08.73-.31-.25-.59-.6-.74-.93-.5.51-1.35.88-1.98.88-1.57 0-2.82-1.3-2.82-3.36-.03-2.79 1.66-4.31 3.68-4.31zm1.08 6.17v-5.13c-.26-.09-.71-.17-1.13-.17-1.32 0-2.31 1.04-2.31 3.19 0 1.69.88 2.6 1.86 2.6.59 0 1.22-.2 1.58-.49z"/></g></svg>

