<?xml version="1.0" encoding="UTF-8" standalone="no"?>
<!DOCTYPE svg PUBLIC "-//W3C//DTD SVG 1.1//EN" "http://www.w3.org/Graphics/SVG/1.1/DTD/svg11.dtd">
<svg version="1.1" xmlns="http://www.w3.org/2000/svg" xmlns:xlink="http://www.w3.org/1999/xlink" preserveAspectRatio="xMidYMid meet" viewBox="0 0 640 640" width="640" height="640"><defs><path d="M640 0C640 0 640 0 640 0C640 288 640 448 640 480C640 480 640 480 640 480C256 480 42.67 480 0 480C0 480 0 480 0 480C0 192 0 32 0 0C0 0 0 0 0 0C384 0 597.33 0 640 0Z" id="h1xH1KIsuO"></path><path d="M640 0C640 0 640 0 640 0C640 96.12 640 149.52 640 160.2C640 160.2 640 160.2 640 160.2C256 160.2 42.67 160.2 0 160.2C0 160.2 0 160.2 0 160.2C0 64.08 0 10.68 0 0C0 0 0 0 0 0C384 0 597.33 0 640 0Z" id="auzd9ou3S"></path><path d="M187.83 249.96C193.1 252.27 199.91 254.45 202.84 254.66C208.01 254.92 226.3 264.72 226.12 267.08C226.09 269.28 198.43 259.77 188.74 254.23C177.11 247.71 176.83 247.39 177.83 246.3C177.83 246.3 177.83 246.3 177.83 246.3C180.98 247.21 184.31 248.43 187.83 249.96Z" id="eiuFweYsL"></path><path d="M215.63 252.38L217.23 252.44L218.75 252.48L220.2 252.51L220.61 252.51L221.68 253.06L222.89 253.65L224.1 254.19L225.31 254.7L226.5 255.15L228.86 256.17L230.93 257.14L232.7 258.06L234.14 258.93L235.25 259.71L236.02 260.42L236.43 261.02L236.47 261.52L236.12 261.89L235.37 262.13L234.22 262.23L232.64 262.17L230.88 261.93L229.12 261.57L227.37 261.07L225.63 260.45L223.89 259.7L222.16 258.82L220.44 257.81L218.72 256.67L217.01 255.41L215.31 254.01L213.61 252.49L213.39 252.27L213.98 252.3L215.63 252.38Z" id="b2dhfwuZWR"></path><path d="M402.34 369.37L402.59 369.4L402.87 369.45L403.16 369.51L403.47 369.59L403.81 369.68L404.16 369.8L404.53 369.93L404.92 370.08L405.33 370.24L405.78 370.43L406.28 370.66L406.85 370.92L407.46 371.2L408.13 371.52L408.85 371.86L409.61 372.23L410.42 372.63L411.27 373.05L412.17 373.49L413.1 373.96L414.07 374.44L415.07 374.95L416.11 375.47L417.18 376.01L418.27 376.57L419.4 377.14L420.54 377.72L421.71 378.32L422.9 378.92L424.11 379.54L425.33 380.16L426.57 380.8L427.82 381.43L429.08 382.08L430.35 382.72L431.62 383.37L432.9 384.02L434.18 384.67L435.45 385.32L436.73 385.97L438 386.61L439.26 387.25L440.51 387.88L441.75 388.51L442.98 389.13L444.2 389.73L445.39 390.33L446.57 390.92L447.73 391.49L449.1 392.17L450.57 392.89L452.13 393.65L453.77 394.44L455.49 395.26L457.28 396.11L459.14 396.98L461.06 397.88L463.03 398.8L465.05 399.74L467.12 400.69L469.23 401.66L471.37 402.64L473.53 403.62L475.72 404.62L477.93 405.62L480.14 406.62L482.36 407.62L484.58 408.62L486.79 409.62L488.99 410.61L491.17 411.59L493.33 412.55L495.46 413.51L497.55 414.44L499.61 415.36L501.61 416.26L503.57 417.14L505.47 417.99L507.31 418.81L509.08 419.6L510.78 420.36L512.39 421.08L513.92 421.77L515.37 422.42L516.71 423.02L517.95 423.58L519.09 424.1L520.11 424.56L521.01 424.98L520.92 425.15L520.83 425.32L520.74 425.49L520.65 425.66L520.57 425.83L520.48 425.99L520.39 426.15L520.31 426.31L520.23 426.46L520.15 426.61L520.07 426.76L519.99 426.91L519.91 427.06L519.84 427.2L519.76 427.35L519.69 427.48L519.62 427.62L519.55 427.76L519.48 427.89L519.41 428.02L519.34 428.15L519.28 428.28L519.21 428.4L519.15 428.52L519.09 428.64L519.02 428.76L518.96 428.88L518.9 428.99L518.85 429.1L518.79 429.21L518.73 429.32L518.68 429.42L518.63 429.53L518.57 429.63L518.52 429.73L518.47 429.83L518.42 429.92L518.37 430.02L518.33 430.11L518.28 430.2L517.78 430.02L517.21 429.81L516.57 429.55L515.86 429.26L515.08 428.93L514.25 428.57L513.35 428.17L512.39 427.74L511.38 427.28L510.31 426.79L509.19 426.27L508.02 425.72L506.81 425.14L505.54 424.54L504.24 423.91L502.89 423.26L501.51 422.59L500.09 421.9L498.63 421.19L497.14 420.45L495.62 419.71L494.08 418.94L492.51 418.16L490.91 417.37L489.3 416.56L487.66 415.75L486.01 414.92L484.34 414.08L482.66 413.24L480.97 412.39L479.28 411.53L477.57 410.67L475.87 409.81L474.16 408.95L472.45 408.08L470.75 407.22L469.05 406.36L467.36 405.5L465.67 404.64L464 403.79L462.31 402.93L460.58 402.06L458.83 401.18L457.05 400.29L455.25 399.4L453.42 398.5L451.59 397.59L449.74 396.69L447.88 395.78L446.02 394.87L444.15 393.96L442.29 393.05L440.43 392.15L438.57 391.25L436.73 390.36L434.9 389.47L433.09 388.6L431.31 387.73L429.54 386.87L427.8 386.03L426.1 385.2L424.42 384.38L422.79 383.59L421.19 382.8L419.64 382.04L418.14 381.3L416.68 380.58L415.28 379.88L413.94 379.2L412.66 378.55L411.44 377.93L410.29 377.34L409.21 376.77L408.2 376.23L407.27 375.73L406.42 375.26L405.66 374.82L404.98 374.42L404.39 374.05L403.9 373.72L403.56 373.49L403.25 373.26L402.95 373.02L402.67 372.8L402.42 372.57L402.18 372.35L401.95 372.14L401.75 371.93L401.57 371.72L401.4 371.52L401.26 371.32L401.13 371.14L401.02 370.96L400.94 370.78L400.87 370.62L400.81 370.46L400.78 370.31L400.77 370.17L400.78 370.04L400.8 369.92L400.85 369.81L400.91 369.71L400.99 369.62L401.09 369.55L401.21 369.48L401.35 369.43L401.51 369.39L401.69 369.36L401.89 369.35L402.1 369.35L402.34 369.37Z" id="b17EC3fRIH"></path><path d="M330.73 426.25C334.57 429.34 336.71 431.06 337.13 431.4C346.3 438.6 351.35 448.6 350.85 458.92C350.82 459.49 350.71 462.33 350.51 467.44C352.31 462.41 353.32 459.62 353.52 459.06C356.81 450.28 356.36 436.99 352.47 427.15C352.32 426.76 351.56 424.85 350.2 421.41C354.52 423.53 356.93 424.7 357.41 424.94C367.7 429.83 374.49 438.43 375.9 448.65C375.98 449.21 376.4 452.02 377.14 457.07C377.98 451.72 378.45 448.75 378.54 448.16C380.14 438.8 377.25 425.91 371.62 417.19C371.4 416.85 370.31 415.16 368.34 412.11C372.96 413.17 375.53 413.76 376.04 413.87C387.02 416.25 395.24 423.07 398.51 432.74C398.7 433.27 399.62 435.91 401.28 440.68C401.11 435.25 401.02 432.24 401 431.63C400.84 422.11 395.63 410.17 388.52 402.96C388.24 402.68 386.86 401.28 384.37 398.76C389.09 398.72 391.71 398.69 392.23 398.69C403.41 398.44 412.71 403.19 417.69 411.88C417.97 412.35 419.36 414.72 421.87 418.99C420.7 413.73 420.05 410.8 419.92 410.21C418.01 400.94 410.71 390.48 402.42 385.1C402.1 384.89 400.49 383.84 397.59 381.95C402.2 380.81 404.75 380.17 405.27 380.04C416.15 377.18 426.12 379.65 432.6 386.98C432.96 387.38 434.76 389.37 438 392.97C435.89 388.09 434.71 385.38 434.48 384.83C430.89 376.2 421.82 367.69 412.72 364.36C412.37 364.23 410.6 363.58 407.42 362.42C411.71 360.22 414.09 359 414.57 358.75C424.69 353.4 434.9 353.49 442.59 359.13C443.02 359.44 445.14 360.97 448.98 363.73C446.01 359.45 444.36 357.07 444.03 356.6C438.93 348.99 428.49 342.79 418.97 341.67C418.6 341.63 416.75 341.41 413.42 341.01C417.22 337.85 419.33 336.1 419.75 335.75C428.66 328.15 438.66 325.83 447.22 329.56C447.7 329.76 450.06 330.76 454.32 332.56C450.63 329.07 448.57 327.13 448.16 326.74C441.77 320.5 430.41 316.88 420.9 318.01C420.53 318.05 418.68 318.27 415.35 318.66C418.48 314.69 420.21 312.48 420.56 312.03C427.87 302.52 437.23 297.91 446.3 299.55C446.8 299.64 449.29 300.06 453.79 300.82C449.53 298.27 447.17 296.86 446.69 296.57C439.29 291.97 427.51 291.08 418.41 294.41C418.06 294.54 416.29 295.19 413.1 296.35C415.43 291.73 416.72 289.17 416.98 288.65C422.37 277.63 430.68 270.93 439.85 270.41C440.35 270.38 442.87 270.2 447.41 269.9C442.78 268.4 440.2 267.57 439.69 267.4C431.59 264.63 419.91 266.53 411.62 271.92C411.3 272.12 409.69 273.17 406.79 275.06C408.21 269.99 409 267.18 409.16 266.61C412.4 254.57 419.29 246.07 428.16 243.42C428.65 243.27 431.08 242.51 435.46 241.15C430.66 240.77 427.98 240.56 427.45 240.52C419.02 239.7 407.94 244.29 400.83 251.5C400.56 251.78 399.17 253.18 396.69 255.71C397.14 250.42 397.39 247.48 397.44 246.89C398.39 234.35 403.56 224.43 411.75 219.75C412.2 219.49 414.44 218.18 418.47 215.82C413.7 216.58 411.05 216.99 410.52 217.08C402.12 218.25 392.13 225.34 386.51 234.06C386.29 234.4 385.2 236.09 383.23 239.14C382.7 233.86 382.41 230.93 382.35 230.34C380.96 217.85 384.18 206.94 391.33 200.45C391.72 200.09 393.67 198.28 397.18 195.03C392.65 196.88 390.13 197.91 389.63 198.12C381.63 201.24 373.17 210.51 369.28 220.35C369.13 220.73 368.37 222.65 367.01 226.09C365.52 221.05 364.69 218.25 364.52 217.69C360.86 205.8 361.99 194.37 367.79 186.35C368.1 185.9 369.68 183.68 372.51 179.68C368.42 182.55 366.15 184.15 365.7 184.47C358.45 189.39 351.88 200.44 349.9 210.98C349.82 211.39 349.43 213.44 348.74 217.13C346.34 212.55 345.02 210.01 344.75 209.5C338.97 198.72 337.97 187.27 342.16 178.07C342.38 177.56 343.51 175.02 345.55 170.44C342.08 174.21 340.15 176.3 339.77 176.72C333.59 183.23 329.2 195.58 329.2 206.35C329.2 206.77 329.2 208.87 329.2 212.64C326.02 208.72 324.25 206.54 323.9 206.11C316.26 196.92 313.17 185.96 315.56 175.97C315.69 175.42 316.32 172.67 317.47 167.71C314.77 172.22 313.27 174.72 312.97 175.22C308.13 183.03 306.12 196.13 308.11 206.67C308.19 207.08 308.57 209.13 309.27 212.82C305.43 209.73 303.3 208.02 302.87 207.67C293.7 200.48 288.66 190.48 289.16 180.15C289.18 179.58 289.29 176.74 289.5 171.63C287.69 176.66 286.69 179.46 286.49 180.02C283.19 188.79 283.65 202.08 287.53 211.92C287.69 212.31 288.44 214.22 289.8 217.67C285.48 215.55 283.08 214.37 282.6 214.13C272.3 209.24 265.52 200.64 264.1 190.42C264.02 189.86 263.6 187.06 262.86 182.01C262.02 187.35 261.56 190.32 261.46 190.92C259.86 200.27 262.76 213.17 268.38 221.88C268.6 222.22 269.69 223.92 271.66 226.97C267.04 225.9 264.47 225.31 263.96 225.19C252.98 222.82 244.76 216 241.49 206.33C241.31 205.8 240.38 203.16 238.72 198.39C238.89 203.82 238.99 206.83 239 207.44C239.16 216.96 244.38 228.9 251.49 236.1C251.76 236.38 253.14 237.79 255.63 240.31C250.92 240.35 248.29 240.38 247.77 240.38C236.6 240.63 227.29 235.88 222.31 227.2C222.03 226.72 220.64 224.35 218.14 220.07C219.3 225.34 219.95 228.27 220.08 228.85C222 238.14 229.3 248.59 237.58 253.97C237.9 254.18 239.51 255.23 242.41 257.12C237.81 258.26 235.25 258.9 234.74 259.03C223.85 261.89 213.88 259.42 207.4 252.09C207.04 251.69 205.24 249.7 202 246.1C204.12 250.98 205.29 253.69 205.53 254.24C209.11 262.87 218.18 271.38 227.28 274.71C227.63 274.84 229.4 275.48 232.59 276.65C228.3 278.85 225.91 280.07 225.43 280.32C215.31 285.66 205.1 285.58 197.41 279.93C196.99 279.63 194.86 278.09 191.03 275.34C193.99 279.62 195.64 281.99 195.97 282.47C201.07 290.07 211.52 296.27 221.03 297.4C221.4 297.44 223.25 297.66 226.58 298.06C222.79 301.21 220.68 302.97 220.26 303.32C211.35 310.92 201.34 313.23 192.78 309.5C192.31 309.3 189.94 308.31 185.69 306.51C189.38 310 191.43 311.94 191.84 312.32C198.23 318.57 209.59 322.19 219.11 321.06C219.48 321.02 221.33 320.8 224.65 320.4C221.53 324.38 219.79 326.59 219.44 327.03C212.13 336.55 202.77 341.16 193.71 339.52C193.21 339.43 190.71 339.01 186.22 338.25C190.47 340.8 192.84 342.21 193.31 342.5C200.72 347.1 212.49 347.98 221.59 344.65C221.95 344.52 223.72 343.88 226.9 342.71C224.58 347.34 223.28 349.9 223.03 350.42C217.63 361.44 209.33 368.14 200.16 368.66C199.65 368.69 197.13 368.86 192.6 369.17C197.23 370.66 199.8 371.5 200.32 371.66C208.41 374.43 220.1 372.54 228.38 367.15C228.7 366.94 230.32 365.89 233.21 364.01C231.79 369.07 231 371.89 230.85 372.45C227.6 384.5 220.72 392.99 211.85 395.65C211.36 395.8 208.92 396.56 204.54 397.92C209.35 398.3 212.02 398.51 212.56 398.55C220.98 399.36 232.07 394.77 239.17 387.56C239.45 387.28 240.83 385.88 243.32 383.36C242.86 388.65 242.61 391.59 242.56 392.17C241.61 404.71 236.45 414.64 228.26 419.31C227.81 419.57 225.57 420.88 221.53 423.24C226.3 422.49 228.96 422.07 229.49 421.99C237.88 420.81 247.87 413.72 253.49 405C253.71 404.66 254.81 402.97 256.77 399.92C257.31 405.2 257.6 408.13 257.66 408.72C259.05 421.21 255.83 432.12 248.68 438.62C248.29 438.98 246.34 440.78 242.83 444.04C247.36 442.18 249.87 441.15 250.38 440.94C258.37 437.83 266.83 428.55 270.73 418.71C270.88 418.33 271.63 416.41 272.99 412.97C274.49 418.01 275.32 420.81 275.48 421.37C279.15 433.26 278.01 444.69 272.22 452.71C271.9 453.16 270.33 455.38 267.49 459.39C271.58 456.51 273.85 454.91 274.31 454.59C281.55 449.67 288.12 438.62 290.11 428.08C290.19 427.67 290.57 425.62 291.27 421.94C293.66 426.51 294.99 429.06 295.25 429.57C301.03 440.34 302.03 451.79 297.85 461C297.62 461.5 296.49 464.05 294.46 468.63C297.93 464.86 299.85 462.76 300.24 462.34C306.41 455.83 310.8 443.49 310.8 432.71C310.8 432.29 310.8 430.2 310.8 426.42C313.98 430.34 315.75 432.52 316.11 432.96C323.75 442.14 326.84 453.11 324.44 463.09C324.32 463.64 323.68 466.4 322.54 471.35C325.23 466.85 326.73 464.35 327.03 463.85C331.87 456.03 333.88 442.93 331.89 432.39C331.82 431.98 331.43 429.93 330.73 426.24" id="dCLCKC8wp"></path><path d="M319.82 25.03L319.97 25.07L320.13 25.12L320.3 25.19L320.47 25.27L320.65 25.37L320.84 25.48L321.03 25.6L321.23 25.74L321.43 25.89L321.64 26.05L321.85 26.23L322.06 26.41L322.28 26.61L322.51 26.82L322.74 27.03L322.97 27.26L323.2 27.5L323.44 27.75L323.67 28.01L323.91 28.28L324.16 28.56L324.4 28.85L324.64 29.14L324.89 29.44L325.13 29.75L325.38 30.07L325.62 30.39L325.87 30.73L326.11 31.06L326.36 31.41L326.6 31.76L326.84 32.11L327.07 32.47L327.31 32.84L327.54 33.21L327.77 33.58L328 33.96L328.23 34.34L328.82 35.38L329.38 36.4L329.92 37.43L330.43 38.44L330.9 39.46L331.36 40.47L331.78 41.49L332.17 42.5L332.54 43.52L332.88 44.53L333.2 45.55L333.48 46.58L333.74 47.6L333.98 48.64L334.18 49.67L334.37 50.72L334.52 51.77L334.65 52.84L334.76 53.91L334.84 54.99L334.89 56.08L334.92 57.19L334.93 58.31L334.91 59.44L334.87 60.59L334.8 61.76L334.71 62.94L334.59 64.13L334.46 65.35L334.3 66.59L334.11 67.84L333.91 69.12L333.68 70.42L333.43 71.74L333.15 73.08L332.86 74.45L332.54 75.84L332.2 77.27L331.85 78.71L331.47 80.19L331.27 80.94L331.08 81.71L330.88 82.49L330.69 83.29L330.5 84.1L330.31 84.92L330.12 85.75L329.94 86.58L329.75 87.43L329.57 88.28L329.39 89.13L329.21 90L329.03 90.86L328.86 91.72L328.69 92.59L328.52 93.46L328.35 94.32L328.19 95.18L328.03 96.04L327.87 96.9L327.72 97.75L327.57 98.59L327.42 99.42L327.28 100.24L327.14 101.06L327.01 101.86L326.88 102.65L326.75 103.43L326.63 104.19L326.51 104.93L326.4 105.66L326.29 106.37L326.19 107.07L326.09 107.74L326 108.39L325.91 109.02L325.83 109.62L325.75 110.2L325.68 110.75L325.62 111.28L325.57 111.72L325.52 112.15L325.47 112.58L325.42 113L325.38 113.41L325.33 113.82L325.29 114.22L325.25 114.62L325.21 115.01L325.17 115.4L325.13 115.78L325.1 116.16L325.06 116.53L325.03 116.9L325 117.26L324.97 117.62L324.94 117.98L324.91 118.33L324.88 118.67L324.85 119.01L324.82 119.35L324.79 119.68L324.77 120.01L324.74 120.34L324.72 120.66L324.69 120.98L324.67 121.29L324.65 121.61L324.62 121.91L324.6 122.22L324.58 122.52L324.56 122.82L324.53 123.12L324.51 123.41L324.49 123.7L324.47 123.99L324.45 124.27L324.42 124.56L324.4 124.84L324.38 125.12L324.22 125.12L324.05 125.12L323.87 125.12L323.69 125.12L323.5 125.12L323.3 125.12L323.09 125.12L322.88 125.12L322.67 125.12L322.45 125.12L322.22 125.12L321.99 125.12L321.76 125.12L321.52 125.12L321.29 125.12L321.04 125.12L320.8 125.12L320.56 125.12L320.32 125.12L320.07 125.12L319.83 125.12L319.58 125.12L319.34 125.12L319.1 125.12L318.86 125.12L318.63 125.12L318.39 125.12L318.16 125.12L317.94 125.12L317.29 125.12L317.08 125.12L316.88 125.12L316.69 125.12L316.5 125.12L316.32 125.12L316.15 125.12L315.99 125.12L315.84 125.12L315.82 124.95L315.81 124.78L315.79 124.62L315.78 124.45L315.77 124.29L315.76 124.13L315.75 123.96L315.74 123.8L315.72 123.63L315.71 123.45L315.7 123.27L315.69 123.09L315.67 122.89L315.66 122.69L315.64 122.48L315.62 122.26L315.6 122.03L315.58 121.78L315.56 121.52L315.53 121.25L315.5 120.96L315.47 120.65L315.43 120.33L315.4 119.98L315.36 119.62L315.31 119.24L315.26 118.83L315.21 118.4L315.15 117.95L315.09 117.47L315.03 116.97L314.96 116.44L314.88 115.88L314.8 115.29L314.72 114.68L314.63 114.03L314.53 113.35L314.43 112.63L314.32 111.89L314.2 111.1L314.11 110.52L314.01 109.92L313.91 109.3L313.8 108.65L313.69 107.99L313.57 107.31L313.44 106.6L313.31 105.89L313.18 105.15L313.04 104.4L312.89 103.64L312.75 102.87L312.59 102.08L312.44 101.29L312.28 100.48L312.12 99.66L311.95 98.84L311.78 98.01L311.61 97.18L311.43 96.34L311.26 95.5L311.08 94.65L310.89 93.81L310.71 92.96L310.52 92.12L310.34 91.28L310.15 90.44L309.96 89.6L309.77 88.77L309.57 87.94L309.38 87.12L309.18 86.31L308.99 85.51L308.79 84.72L308.6 83.94L308.4 83.17L308.21 82.42L308.02 81.68L307.82 80.95L307.63 80.24L307.24 78.75L306.88 77.3L306.53 75.87L306.22 74.48L305.92 73.11L305.65 71.76L305.41 70.44L305.19 69.15L304.99 67.88L304.81 66.63L304.66 65.4L304.54 64.19L304.44 63L304.36 61.83L304.3 60.67L304.28 59.53L304.27 58.41L304.29 57.3L304.34 56.2L304.41 55.11L304.5 54.03L304.62 52.96L304.76 51.91L304.93 50.85L305.12 49.81L305.34 48.77L305.58 47.73L305.85 46.69L306.14 45.66L306.46 44.63L306.81 43.6L307.17 42.56L307.57 41.53L307.99 40.49L308.43 39.45L308.9 38.4L309.4 37.34L309.92 36.28L310.47 35.21L311.04 34.12L311.25 33.74L311.46 33.35L311.67 32.97L311.89 32.6L312.11 32.23L312.33 31.87L312.56 31.52L312.79 31.17L313.02 30.83L313.26 30.5L313.49 30.17L313.73 29.85L313.97 29.54L314.21 29.24L314.45 28.95L314.68 28.66L314.92 28.38L315.16 28.11L315.4 27.86L315.63 27.61L315.87 27.37L316.1 27.14L316.33 26.92L316.55 26.71L316.78 26.51L317 26.33L317.21 26.15L317.43 25.99L317.63 25.83L317.84 25.69L318.04 25.56L318.23 25.45L318.42 25.35L318.6 25.26L318.77 25.18L318.94 25.12L319.1 25.07L319.25 25.03L319.4 25.01L319.53 25L319.67 25.01L319.82 25.03Z" id="b34jb04aAN"></path><path d="M105.54 25.03L105.7 25.07L105.86 25.12L106.02 25.19L106.2 25.27L106.38 25.37L106.56 25.48L106.76 25.6L106.95 25.74L107.16 25.89L107.36 26.05L107.58 26.23L107.79 26.41L108.01 26.61L108.24 26.82L108.46 27.03L108.69 27.26L108.93 27.5L109.16 27.75L109.4 28.01L109.64 28.28L109.88 28.56L110.13 28.85L110.37 29.14L110.61 29.44L110.86 29.75L111.1 30.07L111.35 30.39L111.59 30.73L111.84 31.06L112.08 31.41L112.32 31.76L112.56 32.11L112.8 32.47L113.04 32.84L113.27 33.21L113.5 33.58L113.73 33.96L113.95 34.34L114.55 35.38L115.11 36.4L115.65 37.43L116.15 38.44L116.63 39.46L117.08 40.47L117.5 41.49L117.9 42.5L118.27 43.52L118.61 44.53L118.92 45.55L119.21 46.58L119.47 47.6L119.7 48.64L119.91 49.67L120.09 50.72L120.25 51.77L120.38 52.84L120.48 53.91L120.56 54.99L120.62 56.08L120.65 57.19L120.65 58.31L120.63 59.44L120.59 60.59L120.52 61.76L120.43 62.94L120.32 64.13L120.18 65.35L120.02 66.59L119.84 67.84L119.63 69.12L119.4 70.42L119.15 71.74L118.88 73.08L118.59 74.45L118.27 75.84L117.93 77.27L117.57 78.71L117.19 80.19L117 80.94L116.8 81.71L116.61 82.49L116.42 83.29L116.23 84.1L116.04 84.92L115.85 85.75L115.66 86.58L115.48 87.43L115.29 88.28L115.11 89.13L114.93 90L114.76 90.86L114.58 91.72L114.41 92.59L114.24 93.46L114.08 94.32L113.91 95.18L113.75 96.04L113.6 96.9L113.44 97.75L113.3 98.59L113.15 99.42L113.01 100.24L112.87 101.06L112.73 101.86L112.6 102.65L112.48 103.43L112.35 104.19L112.24 104.93L112.13 105.66L112.02 106.37L111.91 107.07L111.82 107.74L111.72 108.39L111.64 109.02L111.56 109.62L111.48 110.2L111.41 110.75L111.35 111.28L111.29 111.72L111.24 112.15L111.2 112.58L111.15 113L111.1 113.41L111.06 113.82L111.02 114.22L110.98 114.62L110.94 115.01L110.9 115.4L110.86 115.78L110.83 116.16L110.79 116.53L110.76 116.9L110.72 117.26L110.69 117.62L110.66 117.98L110.63 118.33L110.6 118.67L110.57 119.01L110.55 119.35L110.52 119.68L110.49 120.01L110.47 120.34L110.44 120.66L110.42 120.98L110.4 121.29L110.37 121.61L110.35 121.91L110.33 122.22L110.3 122.52L110.28 122.82L110.26 123.12L110.24 123.41L110.22 123.7L110.19 123.99L110.17 124.27L110.15 124.56L110.13 124.84L110.11 125.12L109.95 125.12L109.78 125.12L109.6 125.12L109.42 125.12L109.22 125.12L109.03 125.12L108.82 125.12L108.61 125.12L108.39 125.12L108.17 125.12L107.95 125.12L107.72 125.12L107.49 125.12L107.25 125.12L107.01 125.12L106.77 125.12L106.53 125.12L106.29 125.12L106.04 125.12L105.8 125.12L105.55 125.12L105.31 125.12L105.07 125.12L104.83 125.12L104.59 125.12L104.35 125.12L104.12 125.12L103.89 125.12L103.66 125.12L103.01 125.12L102.81 125.12L102.61 125.12L102.41 125.12L102.23 125.12L102.05 125.12L101.88 125.12L101.72 125.12L101.57 125.12L101.55 124.95L101.53 124.78L101.52 124.62L101.51 124.45L101.5 124.29L101.48 124.13L101.47 123.96L101.46 123.8L101.45 123.63L101.44 123.45L101.43 123.27L101.41 123.09L101.4 122.89L101.38 122.69L101.37 122.48L101.35 122.26L101.33 122.03L101.31 121.78L101.28 121.52L101.26 121.25L101.23 120.96L101.2 120.65L101.16 120.33L101.12 119.98L101.08 119.62L101.04 119.24L100.99 118.83L100.94 118.4L100.88 117.95L100.82 117.47L100.75 116.97L100.68 116.44L100.61 115.88L100.53 115.29L100.44 114.68L100.35 114.03L100.26 113.35L100.15 112.63L100.04 111.89L99.93 111.1L99.84 110.52L99.74 109.92L99.64 109.3L99.53 108.65L99.41 107.99L99.29 107.31L99.17 106.6L99.04 105.89L98.9 105.15L98.76 104.4L98.62 103.64L98.47 102.87L98.32 102.08L98.16 101.29L98.01 100.48L97.84 99.66L97.68 98.84L97.51 98.01L97.34 97.18L97.16 96.34L96.98 95.5L96.8 94.65L96.62 93.81L96.44 92.96L96.25 92.12L96.06 91.28L95.87 90.44L95.68 89.6L95.49 88.77L95.3 87.94L95.11 87.12L94.91 86.31L94.72 85.51L94.52 84.72L94.33 83.94L94.13 83.17L93.94 82.42L93.74 81.68L93.55 80.95L93.36 80.24L92.97 78.75L92.6 77.3L92.26 75.87L91.94 74.48L91.65 73.11L91.38 71.76L91.13 70.44L90.91 69.15L90.71 67.88L90.54 66.63L90.39 65.4L90.26 64.19L90.16 63L90.08 61.83L90.03 60.67L90 59.53L90 58.41L90.02 57.3L90.06 56.2L90.13 55.11L90.23 54.03L90.34 52.96L90.49 51.91L90.66 50.85L90.85 49.81L91.07 48.77L91.31 47.73L91.58 46.69L91.87 45.66L92.19 44.63L92.53 43.6L92.9 42.56L93.3 41.53L93.71 40.49L94.16 39.45L94.63 38.4L95.13 37.34L95.65 36.28L96.2 35.21L96.77 34.12L96.97 33.74L97.18 33.35L97.4 32.97L97.61 32.6L97.83 32.23L98.06 31.87L98.29 31.52L98.52 31.17L98.75 30.83L98.98 30.5L99.22 30.17L99.46 29.85L99.69 29.54L99.93 29.24L100.17 28.95L100.41 28.66L100.65 28.38L100.89 28.11L101.12 27.86L101.36 27.61L101.59 27.37L101.83 27.14L102.05 26.92L102.28 26.71L102.5 26.51L102.72 26.33L102.94 26.15L103.15 25.99L103.36 25.83L103.56 25.69L103.76 25.56L103.96 25.45L104.14 25.35L104.32 25.26L104.5 25.18L104.66 25.12L104.83 25.07L104.98 25.03L105.12 25.01L105.26 25L105.4 25.01L105.54 25.03Z" id="a1qhWRjHF2"></path><path d="M535.55 25.03L535.7 25.07L535.86 25.12L536.03 25.19L536.2 25.27L536.38 25.37L536.57 25.48L536.76 25.6L536.96 25.74L537.16 25.89L537.37 26.05L537.58 26.23L537.8 26.41L538.02 26.61L538.24 26.82L538.47 27.03L538.7 27.26L538.93 27.5L539.17 27.75L539.41 28.01L539.65 28.28L539.89 28.56L540.13 28.85L540.38 29.14L540.62 29.44L540.87 29.75L541.11 30.07L541.36 30.39L541.6 30.73L541.85 31.06L542.09 31.41L542.33 31.76L542.57 32.11L542.81 32.47L543.04 32.84L543.28 33.21L543.51 33.58L543.74 33.96L543.96 34.34L544.55 35.38L545.12 36.4L545.65 37.43L546.16 38.44L546.64 39.46L547.09 40.47L547.51 41.49L547.91 42.5L548.27 43.52L548.61 44.53L548.93 45.55L549.22 46.58L549.48 47.6L549.71 48.64L549.92 49.67L550.1 50.72L550.25 51.77L550.38 52.84L550.49 53.91L550.57 54.99L550.62 56.08L550.65 57.19L550.66 58.31L550.64 59.44L550.6 60.59L550.53 61.76L550.44 62.94L550.33 64.13L550.19 65.35L550.03 66.59L549.85 67.84L549.64 69.12L549.41 70.42L549.16 71.74L548.89 73.08L548.59 74.45L548.28 75.84L547.94 77.27L547.58 78.71L547.2 80.19L547 80.94L546.81 81.71L546.62 82.49L546.42 83.29L546.23 84.1L546.04 84.92L545.86 85.75L545.67 86.58L545.48 87.43L545.3 88.28L545.12 89.13L544.94 90L544.76 90.86L544.59 91.72L544.42 92.59L544.25 93.46L544.08 94.32L543.92 95.18L543.76 96.04L543.6 96.9L543.45 97.75L543.3 98.59L543.16 99.42L543.01 100.24L542.87 101.06L542.74 101.86L542.61 102.65L542.48 103.43L542.36 104.19L542.24 104.93L542.13 105.66L542.02 106.37L541.92 107.07L541.82 107.74L541.73 108.39L541.64 109.02L541.56 109.62L541.49 110.2L541.42 110.75L541.35 111.28L541.3 111.72L541.25 112.15L541.2 112.58L541.16 113L541.11 113.41L541.07 113.82L541.02 114.22L540.98 114.62L540.94 115.01L540.91 115.4L540.87 115.78L540.83 116.16L540.8 116.53L540.76 116.9L540.73 117.26L540.7 117.62L540.67 117.98L540.64 118.33L540.61 118.67L540.58 119.01L540.55 119.35L540.53 119.68L540.5 120.01L540.48 120.34L540.45 120.66L540.43 120.98L540.4 121.29L540.38 121.61L540.36 121.91L540.33 122.22L540.31 122.52L540.29 122.82L540.27 123.12L540.24 123.41L540.22 123.7L540.2 123.99L540.18 124.27L540.16 124.56L540.13 124.84L540.11 125.12L539.95 125.12L539.78 125.12L539.61 125.12L539.42 125.12L539.23 125.12L539.03 125.12L538.83 125.12L538.62 125.12L538.4 125.12L538.18 125.12L537.95 125.12L537.73 125.12L537.49 125.12L537.26 125.12L537.02 125.12L536.78 125.12L536.54 125.12L536.29 125.12L536.05 125.12L535.8 125.12L535.56 125.12L535.32 125.12L535.07 125.12L534.83 125.12L534.6 125.12L534.36 125.12L534.13 125.12L533.9 125.12L533.67 125.12L533.02 125.12L532.81 125.12L532.61 125.12L532.42 125.12L532.24 125.12L532.06 125.12L531.89 125.12L531.73 125.12L531.57 125.12L531.56 124.95L531.54 124.78L531.53 124.62L531.52 124.45L531.5 124.29L531.49 124.13L531.48 123.96L531.47 123.8L531.46 123.63L531.45 123.45L531.43 123.27L531.42 123.09L531.41 122.89L531.39 122.69L531.37 122.48L531.36 122.26L531.34 122.03L531.31 121.78L531.29 121.52L531.26 121.25L531.23 120.96L531.2 120.65L531.17 120.33L531.13 119.98L531.09 119.62L531.04 119.24L531 118.83L530.94 118.4L530.89 117.95L530.83 117.47L530.76 116.97L530.69 116.44L530.62 115.88L530.54 115.29L530.45 114.68L530.36 114.03L530.26 113.35L530.16 112.63L530.05 111.89L529.94 111.1L529.84 110.52L529.75 109.92L529.64 109.3L529.53 108.65L529.42 107.99L529.3 107.31L529.17 106.6L529.04 105.89L528.91 105.15L528.77 104.4L528.63 103.64L528.48 102.87L528.33 102.08L528.17 101.29L528.01 100.48L527.85 99.66L527.68 98.84L527.51 98.01L527.34 97.18L527.17 96.34L526.99 95.5L526.81 94.65L526.63 93.81L526.44 92.96L526.26 92.12L526.07 91.28L525.88 90.44L525.69 89.6L525.5 88.77L525.31 87.94L525.11 87.12L524.92 86.31L524.72 85.51L524.53 84.72L524.33 83.94L524.14 83.17L523.94 82.42L523.75 81.68L523.56 80.95L523.36 80.24L522.97 78.75L522.61 77.3L522.27 75.87L521.95 74.48L521.66 73.11L521.39 71.76L521.14 70.44L520.92 69.15L520.72 67.88L520.55 66.63L520.4 65.4L520.27 64.19L520.17 63L520.09 61.83L520.04 60.67L520.01 59.53L520 58.41L520.02 57.3L520.07 56.2L520.14 55.11L520.23 54.03L520.35 52.96L520.49 51.91L520.66 50.85L520.86 49.81L521.07 48.77L521.32 47.73L521.58 46.69L521.88 45.66L522.2 44.63L522.54 43.6L522.91 42.56L523.3 41.53L523.72 40.49L524.17 39.45L524.64 38.4L525.13 37.34L525.65 36.28L526.2 35.21L526.78 34.12L526.98 33.74L527.19 33.35L527.4 32.97L527.62 32.6L527.84 32.23L528.07 31.87L528.29 31.52L528.52 31.17L528.76 30.83L528.99 30.5L529.23 30.17L529.46 29.85L529.7 29.54L529.94 29.24L530.18 28.95L530.42 28.66L530.66 28.38L530.89 28.11L531.13 27.86L531.37 27.61L531.6 27.37L531.83 27.14L532.06 26.92L532.29 26.71L532.51 26.51L532.73 26.33L532.95 26.15L533.16 25.99L533.37 25.83L533.57 25.69L533.77 25.56L533.96 25.45L534.15 25.35L534.33 25.26L534.5 25.18L534.67 25.12L534.83 25.07L534.99 25.03L535.13 25.01L535.27 25L535.41 25.01L535.55 25.03Z" id="lqemAdahR"></path></defs><g><g><g><use xlink:href="#h1xH1KIsuO" opacity="1" fill="#000000" fill-opacity="1"></use><g><use xlink:href="#h1xH1KIsuO" opacity="1" fill-opacity="0" stroke="#000000" stroke-width="1" stroke-opacity="0"></use></g></g><g><use xlink:href="#auzd9ou3S" opacity="1" fill="#002488" fill-opacity="1"></use><g><use xlink:href="#auzd9ou3S" opacity="1" fill-opacity="0" stroke="#000000" stroke-width="1" stroke-opacity="0"></use></g></g><g><use xlink:href="#eiuFweYsL" opacity="1" fill="#008000" fill-opacity="1"></use><g><use xlink:href="#eiuFweYsL" opacity="1" fill-opacity="0" stroke="#000000" stroke-width="1" stroke-opacity="0"></use></g></g><g><use xlink:href="#b2dhfwuZWR" opacity="1" fill="#008000" fill-opacity="1"></use><g><use xlink:href="#b2dhfwuZWR" opacity="1" fill-opacity="0" stroke="#000000" stroke-width="1" stroke-opacity="0"></use></g></g><g><use xlink:href="#b17EC3fRIH" opacity="1" fill="#008000" fill-opacity="1"></use><g><use xlink:href="#b17EC3fRIH" opacity="1" fill-opacity="0" stroke="#000000" stroke-width="1" stroke-opacity="0"></use></g></g><g><use xlink:href="#dCLCKC8wp" opacity="1" fill="#fcdd09" fill-opacity="1"></use><g><use xlink:href="#dCLCKC8wp" opacity="1" fill-opacity="0" stroke="#000000" stroke-width="1" stroke-opacity="0"></use></g></g><g><use xlink:href="#b34jb04aAN" opacity="1" fill="#fcdd09" fill-opacity="1"></use><g><use xlink:href="#b34jb04aAN" opacity="1" fill-opacity="0" stroke="#000000" stroke-width="1" stroke-opacity="0"></use></g></g><g><use xlink:href="#a1qhWRjHF2" opacity="1" fill="#fcdd09" fill-opacity="1"></use><g><use xlink:href="#a1qhWRjHF2" opacity="1" fill-opacity="0" stroke="#000000" stroke-width="1" stroke-opacity="0"></use></g></g><g><use xlink:href="#lqemAdahR" opacity="1" fill="#fcdd09" fill-opacity="1"></use><g><use xlink:href="#lqemAdahR" opacity="1" fill-opacity="0" stroke="#000000" stroke-width="1" stroke-opacity="0"></use></g></g></g></g></svg>