<?xml version="1.0" encoding="UTF-8" standalone="no"?>
<!DOCTYPE svg PUBLIC "-//W3C//DTD SVG 1.1//EN" "http://www.w3.org/Graphics/SVG/1.1/DTD/svg11.dtd">
<svg version="1.1" xmlns="http://www.w3.org/2000/svg" xmlns:xlink="http://www.w3.org/1999/xlink" preserveAspectRatio="xMidYMid meet" viewBox="0 0 640 640" width="640" height="640"><defs><path d="M640 0C640 0 640 0 640 0C640 288 640 448 640 480C640 480 640 480 640 480C256 480 42.67 480 0 480C0 480 0 480 0 480C0 192 0 32 0 0C0 0 0 0 0 0C384 0 597.33 0 640 0Z" id="aefPrpRg"></path><path d="M253.02 231.44C253.02 231.44 254.21 230.64 254.65 230.54C255.08 230.43 256.61 229.95 256.61 229.95C256.61 229.95 257.6 229.44 258.12 229.44C258.67 229.44 259.74 230.03 260.09 230.54C260.41 231.04 262.14 231.92 262.14 231.92C262.14 231.92 263.33 232.32 263.56 231.92C263.79 231.52 264.32 231.23 264.87 231.23C265.42 231.23 265.5 230.72 265.5 230.32C265.5 229.92 265.73 229.42 266.14 228.94C266.57 228.43 267.44 228.14 267.44 228.14C267.44 228.14 268.63 227.63 268.75 226.94C268.86 226.24 270.05 225.74 270.71 225.63C271.35 225.52 270.71 225.23 272.45 225.42C274.19 225.63 274.42 225.02 274.51 224.51C274.62 224 274.51 223.5 275.61 223.6C276.71 223.71 277.23 223.71 277.23 223.1C277.23 222.51 278.21 222.19 276.48 221.71C274.74 221.2 274.85 221.6 274.74 220.8C274.62 220 274.74 220.11 273.55 220C272.36 219.9 273 219.31 272.91 218.7C272.8 218.11 272.48 217.79 272.28 217.39C272.05 216.99 271.41 216.99 271.41 216.4C271.41 215.82 271.29 215.5 270.66 215.5C270.02 215.5 269.79 215.5 269.79 214.91C269.79 214.32 269.9 213.82 270.54 213.82C271.18 213.82 271.52 213.31 271.41 212.72C271.29 212.14 271.29 210.83 271.29 210.83C271.38 210.73 272.07 209.92 272.16 209.82C272.16 209.82 274.77 207.71 275 207.31C275.23 206.91 276.1 206.62 276.5 207.42C276.94 208.22 277.14 208.43 277.49 208.8C277.81 209.2 278.79 208.91 278.99 208.51C279.23 208.11 279.31 206.64 279.89 205.84C280.47 205.07 280.88 204.67 281.02 204.03C281.17 203.39 281.46 202.86 282.15 202.86C282.84 202.86 283.28 201.95 283.28 201.42C283.28 200.88 283.57 200.38 284.41 200.24C285.25 200.11 285.68 199.6 285.97 200.38C286.26 201.15 286.55 201.15 287.1 201.42C287.68 201.68 288.52 202.06 288.92 201.68C289.36 201.28 289.56 200.64 290.2 201.04C290.81 201.44 291.24 201.04 291.39 200.27C291.53 199.5 291.68 198.46 291.68 198.46C291.68 198.46 291.82 197.92 292.8 197.92C293.79 197.92 293.09 197.28 293.64 196.88C294.22 196.48 294.22 196.11 294.92 196.35C295.61 196.62 296.74 196.03 296.19 195.39C295.61 194.75 294.37 193.71 295.06 192.91C295.76 192.14 296.05 190.83 295.35 190.7C294.66 190.56 293.64 190.83 293.53 190.06C293.38 189.28 293.09 188.75 293.96 188.62C294.8 188.48 296.22 188.48 296.66 188.08C297.09 187.68 298.48 187.44 298.48 186.27C298.48 185.1 298.91 184.96 299.06 184.32C299.2 183.68 299.2 182.32 298.62 181.68C298.04 181.04 297.21 180.11 297.06 179.74C296.92 179.34 296.37 178.7 295.5 178.43C294.66 178.16 293.93 178.03 293.93 177.39C293.93 176.75 294.51 177.52 294.51 175.82C294.51 174.14 293.38 173.87 293.38 173.87C293.21 173.77 291.85 172.93 291.68 172.83C291.68 172.83 288.66 172.03 287.85 172.03C287.04 172.03 286.12 171.18 287.04 170.64C287.97 170.11 288.2 169.15 287.85 168.4C287.51 167.66 287.27 167.12 286 166.8C284.73 166.48 284.38 166.16 284.96 165.42C285.54 164.67 285.65 164.14 286.35 164.67C287.04 165.2 288.2 165.42 289.13 164.99C290.05 164.56 290.4 164.24 290.86 164.67C291.33 165.1 291.91 165.52 292.6 164.88C293.3 164.24 294.57 164.14 295.15 164.46C295.73 164.78 297.12 164.67 297.58 164.46C298.04 164.24 298.97 163.5 298.97 163.07C298.97 162.64 299.55 161.9 300.13 161.58C300.71 161.26 301.4 160.19 301.98 160.19C302.56 160.19 302.79 159.55 302.79 159.12C302.79 158.7 303.26 157.84 303.37 157.52C303.49 157.2 304.65 156.75 305.46 157.42C306.27 158.06 307.31 158.27 307.31 158.27C307.31 158.27 308.47 158.48 309.05 158.27C309.63 158.06 310.44 157.84 311.25 158.38C312.06 158.91 313.22 158.91 313.22 158.91C313.22 158.91 313.45 158.06 313.45 157.63C313.45 157.2 313.68 156.46 313.22 156.14C312.75 155.82 312.17 155.39 313.1 154.75C314.03 154.11 314.03 154.22 314.95 154.22C315.88 154.22 316.46 154.32 317.15 154.32C317.85 154.32 319.01 154.96 319.01 155.6C319.01 156.24 319.47 156.67 320.05 156.99C320.63 157.31 321.32 157.63 321.09 158.16C320.86 158.7 320.86 159.12 321.55 159.02C322.25 158.91 322.48 159.34 322.48 159.87C322.48 160.4 322.71 160.72 323.41 160.94C324.1 161.15 324.45 161.58 324.45 162.11C324.45 162.64 324.33 162.96 324.57 163.5C324.8 164.03 325.49 164.88 325.49 164.88C325.49 164.88 326.77 166.38 325.14 165.63C323.52 164.88 323.18 164.56 322.6 164.67C322.02 164.78 321.67 165.1 321.67 165.1C321.67 165.1 320.86 165.31 320.28 165.31C319.7 165.31 319.12 166.48 320.05 166.7C320.98 166.91 321.32 167.12 321.32 167.87C321.32 168.62 320.98 168.4 320.51 168.94C320.05 169.47 319.7 169.15 318.89 169.15C318.08 169.15 317.85 169.79 317.85 170.43C317.85 171.07 318.2 170.96 318.54 171.5C318.89 172.03 319.47 172.14 320.05 171.6C320.63 171.07 321.09 170.75 321.44 171.71C321.79 172.67 322.25 172.67 322.94 172.67C323.64 172.67 323.87 172.67 324.45 172.35C325.03 172.03 325.72 172.35 325.84 173.2C325.96 174.06 326.53 174.16 327.11 174.48C327.69 174.8 328.04 175.02 328.16 175.55C328.27 176.08 328.62 176.3 329.2 175.98C329.78 175.66 330.7 175.44 331.05 175.87C331.4 176.3 331.98 177.15 331.98 177.15C331.98 177.22 332.02 177.58 332.09 178.22C333.41 178.66 334.15 178.91 334.29 178.96C334.29 178.96 334.52 179.5 334.52 179.92C334.52 180.35 334.87 180.56 335.45 180.46C336.03 180.35 337.07 180.46 337.07 180.46C337.07 180.46 337.88 180.14 337.88 179.5C337.88 178.86 338.23 178.64 338.81 178.64C339.39 178.64 340.66 179.07 341.01 178.43C341.36 177.79 342.4 177.58 343.21 177.9C344.02 178.22 346.11 179.07 346.11 179.07C346.11 179.07 345.87 179.18 346.57 180.24C347.26 181.31 348.54 181.31 348.54 181.31C348.54 181.31 348.65 182.27 348.89 182.7C349.12 183.12 350.16 183.34 350.74 182.91C351.32 182.48 352.13 181.95 352.82 181.95C353.52 181.95 353.98 181.95 353.98 181.52C353.98 181.1 353.29 180.78 353.29 180.14C353.29 179.5 353.98 179.5 354.1 178.86C354.21 178.22 354.91 178.86 355.37 179.18C355.83 179.5 356.41 180.03 356.41 180.46C356.41 180.88 357.34 182.38 357.92 182.59C358.5 182.8 360 182.91 360.47 182.38C360.93 181.84 362.09 181.63 361.97 182.91C361.86 184.19 361.62 184.3 362.44 184.72C363.25 185.15 363.36 186.64 362.67 187.07C361.97 187.5 361.74 187.6 361.74 188.35C361.74 189.1 361.51 189.95 362.09 190.38C362.67 190.8 363.01 191.12 363.01 191.55C363.01 191.98 363.71 193.9 363.71 193.9C363.71 193.9 364.06 195.82 363.94 196.24C363.82 196.67 363.59 197.42 364.64 197.31C365.68 197.2 365.91 197.2 365.91 198.06C365.91 198.91 366.26 199.23 365.68 199.55C365.1 199.87 364.75 200.94 365.33 201.15C365.91 201.36 366.37 201.68 366.49 202.11C366.6 202.54 367.53 203.28 368.11 202.86C368.69 202.43 368.8 202.22 369.27 202.11C369.73 202 370.08 201.68 369.62 201.15C369.15 200.62 369.04 200.08 369.5 199.76C369.96 199.44 370.19 198.38 370.19 198.38C370.19 198.38 370.89 197.42 371.7 198.38C372.51 199.34 372.63 199.02 373.21 199.02C373.78 199.02 374.02 199.55 374.02 200.08C374.02 200.62 375.17 200.51 375.17 201.36C375.17 202.22 375.41 204.24 375.41 204.24C375.41 204.24 375.41 205.42 376.1 205.84C376.8 206.27 376.68 206.38 376.33 206.91C375.98 207.44 376.1 208.3 376.1 208.72C376.1 209.15 376.33 209.36 375.75 209.79C375.17 210.22 374.94 210.75 375.29 211.39C375.64 212.03 375.52 212.46 376.45 213.2C377.37 213.95 377.26 214.27 377.26 214.8C377.26 215.34 378.19 216.08 378.19 216.62C378.19 217.15 378.88 217.79 379.46 217.9C380.04 218 380.73 218.96 380.73 219.5C380.73 220.03 380.85 221.42 380.85 221.42C380.85 221.42 380.73 221.74 381.43 221.74C382.12 221.74 382.59 222.48 382.82 221.63C383.05 220.78 383.74 220.67 384.21 220.46C384.67 220.24 385.6 219.82 386.06 220.14C386.52 220.46 387.1 220.46 387.57 220.46C388.03 220.46 390.23 220.56 390.23 220.56C390.23 220.56 390.81 220.46 391.16 221.31C391.5 222.16 392.55 223.12 391.97 223.55C391.39 223.98 391.39 224.83 392.08 224.83C392.78 224.83 393.47 224.83 393.47 225.36C393.47 225.9 393.59 226.32 394.17 226C394.75 225.68 395.09 225.58 395.32 226C395.56 226.43 396.02 226.43 396.6 226.75C397.18 227.07 397.41 226.86 397.76 226.43C398.1 226 399.49 225.58 399.49 225.58C399.49 225.58 401.35 225.15 402.04 225.36C402.74 225.58 403.66 226 403.66 226C403.66 226 404.13 227.07 403.89 227.71C403.66 228.35 403.43 228.24 403.66 229.2C403.89 230.16 403.43 230.27 402.97 230.16C402.51 230.06 402.04 230.06 402.04 230.91C402.04 231.76 401.58 231.98 401.58 232.72C401.58 233.47 401.58 233.36 401.12 233.68C400.65 234 400.54 234.54 401.23 234.64C401.93 234.75 401.69 235.5 401.69 235.92C401.69 236.35 401.58 237.31 401.58 237.31C401.58 237.31 401.69 237.84 400.88 237.84C400.07 237.84 399.38 237.74 399.26 238.27C399.15 238.8 398.22 239.66 399.03 240.19C399.84 240.72 399.61 241.04 399.15 241.26C398.68 241.47 398.34 242.54 399.26 242.86C400.19 243.18 400.07 243.5 399.49 243.92C398.92 244.35 397.76 244.67 397.76 245.31C397.76 245.95 397.53 245.95 396.83 246.06C396.14 246.16 395.79 247.02 396.6 248.08C397.41 249.15 397.64 248.94 398.22 248.94C398.8 248.94 398.8 248.08 398.8 248.08C398.8 248.08 400.77 248.19 401.35 248.19C401.93 248.19 402.74 248.19 403.2 247.87C403.66 247.55 404.94 247.02 404.94 247.98C404.94 248.94 405.17 248.83 405.75 249.26C406.33 249.68 406.44 249.36 406.91 250C407.37 250.64 407.48 250.11 407.83 249.36C408.18 248.62 408.87 247.87 409.45 248.72C410.03 249.58 410.03 249.36 410.73 249.36C411.42 249.36 411.65 249.68 411.65 250.22C411.65 250.75 412.35 250.75 413.16 250.64C413.97 250.54 414.09 251.07 414.43 251.6C414.78 252.14 414.9 252.03 415.36 252.03C415.82 252.03 416.29 252.03 416.63 251.6C416.98 251.18 417.44 250.64 417.91 251.28C418.37 251.92 419.3 251.82 419.53 251.07C419.76 250.32 420.8 249.68 421.38 250.54C421.96 251.39 422.42 251.39 423 251.5C423.58 251.6 424.39 251.6 424.74 252.14C425.09 252.67 426.25 253.52 425.44 254.16C424.62 254.8 423.7 255.66 424.39 255.87C425.09 256.08 425.55 256.3 426.01 256.83C426.48 257.36 427.98 257.58 428.68 257.68C429.37 257.79 429.95 257.9 430.76 257.26C431.57 256.62 432.38 256.62 432.27 257.47C432.15 258.32 432.62 259.28 432.62 259.28C432.62 259.28 433.19 260.67 433.19 261.2C433.19 261.74 433.08 261.84 434.12 262.48C435.16 263.12 435.05 263.55 435.86 262.91C436.67 262.27 436.9 261.95 436.9 261.42C436.9 260.88 436.9 259.71 436.9 259.71C436.9 259.71 438.06 259.5 438.52 259.18C438.99 258.86 440.84 257.9 441.3 258.32C441.76 258.75 442.34 258.64 442.81 258.43C443.27 258.22 444.2 258.22 444.66 258.22C445.12 258.22 445.93 258.32 446.86 257.58C447.79 256.83 447.79 257.04 448.37 257.58C448.94 258.11 448.94 258.75 448.6 259.18C448.25 259.6 448.6 260.56 449.41 260.56C450.22 260.56 450.45 260.99 450.45 261.52C450.45 262.06 450.57 262.8 450.68 263.23C450.8 263.66 450.8 263.87 452.07 264.19C453.35 264.51 453.11 265.26 453.35 265.79C453.58 266.32 453.58 266.75 452.88 266.75C452.19 266.75 451.96 267.07 451.84 267.6C451.72 268.14 450.68 268.35 450.68 268.35C450.58 268.33 449.74 268.16 449.64 268.14C449.64 268.14 448.94 268.14 448.6 268.56C448.25 268.99 447.56 269.84 448.02 270.59C448.48 271.34 448.48 271.76 448.02 272.08C447.56 272.4 447.32 274 446.86 273.68C446.4 273.36 445.82 273.79 445.35 274C444.89 274.22 445.01 275.71 445.93 276.24C446.86 276.78 447.09 277.52 447.09 277.52C447.2 277.68 448.03 278.96 448.13 279.12C448.13 279.12 447.79 279.44 447.56 279.98C447.32 280.51 446.63 281.58 447.32 281.79C448.02 282 447.67 283.18 446.98 283.18C446.28 283.18 445.47 282.86 445.35 283.71C445.24 284.56 444.89 284.35 444.2 284.24C443.5 284.14 441.76 283.71 441.3 284.56C440.84 285.42 440.72 285.74 439.91 285.63C439.1 285.52 439.45 286.91 439.68 287.44C439.91 287.98 440.72 288.72 440.72 288.72C440.72 288.72 441.42 289.26 441.42 290.32C441.42 291.39 440.95 291.28 440.49 290.54C440.03 289.79 439.1 289.9 438.99 290.75C438.87 291.6 438.75 292.88 437.94 292.88C437.13 292.88 436.78 293.1 436.44 293.52C436.09 293.95 435.51 294.7 435.51 295.12C435.51 295.55 435.4 295.98 434.82 296.08C434.24 296.19 434.12 297.36 434.12 297.36C434.12 297.36 432.73 297.58 432.62 298.11C432.5 298.64 432.73 299.5 431.57 299.6C430.42 299.71 429.72 300.46 429.37 300.99C429.03 301.52 428.91 301.95 429.37 302.48C429.84 303.02 430.18 304.72 430.76 305.04C431.34 305.36 431.8 305.47 431.69 306.32C431.57 307.18 430.88 307.82 431.8 307.82C432.73 307.82 433.31 308.03 432.96 308.78C432.62 309.52 432.62 309.63 431.92 309.95C431.23 310.27 430.88 310.27 430.88 311.12C430.88 311.98 431.11 311.98 430.53 312.3C429.95 312.62 429.95 313.04 429.95 313.68C429.95 314.32 429.72 314.11 429.03 314.86C428.33 315.6 427.4 315.6 426.83 315.39C426.25 315.18 426.13 315.18 426.01 314.54C425.9 313.9 424.86 313.9 424.28 314C423.7 314.11 422.89 314.75 422.89 314.75C422.89 314.75 421.85 315.39 422.31 315.92C422.77 316.46 422.54 317.31 421.73 317.2C420.92 317.1 419.07 318.06 418.49 317.1C417.91 316.14 416.29 315.5 416.05 316.78C415.82 318.06 416.75 317.95 416.63 319.23C416.52 320.51 416.29 320.51 415.82 320.94C415.36 321.36 415.36 321.68 415.24 322.22C415.13 322.75 415.01 323.92 415.82 324.35C416.63 324.78 416.98 325.95 416.98 326.59C416.98 327.23 416.98 327.87 417.79 327.87C418.6 327.87 419.3 327.76 419.41 327.02C419.53 326.27 421.15 325.84 421.27 327.34C421.38 328.83 421.38 329.58 421.96 330.22C422.54 330.86 423 331.71 423.47 332.03C423.93 332.35 424.71 335.07 424.71 335.07C423.58 335.31 423.29 336.78 422.57 337.07C422.16 337.23 421.73 337.1 421.35 337.36C421.06 337.58 421.06 337.98 420.66 338.16C419.82 338.54 419.96 337.23 418.95 337.71C418.02 338.14 417.94 339.2 416.6 338.75C415.91 338.51 415.48 335.79 415.27 335.15C415.16 334.78 414.43 333.66 414.2 333.31C413.42 332.14 411.86 333.31 411.36 332.96C410.58 332.43 410.93 331.52 409.74 331.42C407.34 331.26 409.05 332.88 408.04 333.26C406.1 333.95 406.1 331.44 404.65 332.59C404.1 333.02 405.52 333.28 405.17 334.03C404.88 334.64 403.46 335.58 403.55 336.3C403.66 337.28 404.73 337.58 405.05 338.4C405.92 340.59 404.47 342.11 402.3 340.4C401.09 339.44 400.85 337.66 398.97 337.79C398.54 337.82 398.39 338.27 397.96 338.32C397.53 338.35 397.18 337.92 396.71 338.06C396.02 338.3 396.63 338.78 396.48 339.18C396.48 339.18 395.56 339.95 395.41 340.16C394.89 340.86 395.06 341.47 394.31 342.03C393.67 342.51 393.18 342.22 392.49 342.96C391.76 343.74 391.71 344.88 390.78 345.63C390.32 346 390 344.51 389.42 345.5C389.33 345.63 389.24 345.76 389.19 345.9C389.04 346.19 389.01 346.32 389.16 346.64C390.37 348.99 387.83 349.87 387.04 351.52C386.7 352.22 387.65 352.86 387.28 353.39C387.02 353.79 385.89 354.88 385.8 355.12C385.71 355.36 385.6 355.9 385.39 356.08C385.19 356.3 384.5 356.19 384.44 356.51C384.38 356.88 385.16 357.18 385.37 357.42C385.63 357.71 385.25 358.11 385.34 358.19C386.64 359.5 385.86 359.1 386.52 360.24C386.61 360.4 387.02 360.11 387.16 360.54C387.31 360.94 386.84 360.91 387.02 361.36C387.04 361.5 387.97 362.7 387.97 362.72C388.03 363.12 386.2 363.95 385.8 363.95C384.7 363.98 386.76 361.68 384.96 361.68C384.18 361.68 384.12 363.47 383.92 363.66C383.83 363.74 383.11 363.66 382.93 363.66C381.78 363.66 381.02 365.1 380.56 365.23C380.27 365.34 379.63 365.07 379.14 365.15C378.68 365.23 378.13 365.68 377.69 365.68C377.4 365.68 377.26 365.5 377.03 365.36C376.51 365.07 375.55 364.94 374.97 364.75C374.65 364.64 374.04 365.15 373.84 365.02C373.47 364.78 374.1 364.11 373.23 363.63C373.12 363.58 372.48 362.03 372.51 361.95C372.8 360.94 373.12 359.84 372.97 358.78C372.8 357.68 371.09 356.75 370.63 355.87C370.28 355.2 369.96 353.44 369.3 352.99C368.57 352.51 367.91 351.58 367.53 350.86C367.41 350.64 367.76 350.27 367.5 349.9C367.21 349.5 366.66 349.34 366.52 348.8C366.4 348.38 366.52 346.99 366.03 346.7C365.48 346.38 361.94 345.95 361.07 345.87C360.61 345.84 360.26 345.84 359.92 345.5C359.77 345.36 359.54 344.8 359.42 344.8C359.08 344.78 358.67 344.96 358.32 344.99C358.06 345.02 357.63 344.83 357.4 344.99C356.27 345.76 355.98 346.75 354.91 347.58C353.81 348.4 352.59 348.38 351.49 349.34C350.8 349.95 350.33 351.42 349.64 352.11C349.35 352.4 348.89 352.11 348.77 352.24C348.19 352.96 347.38 353.39 346.8 354.06C346.68 354.19 346.71 354.46 346.57 354.56C346.44 354.59 345.45 354.85 345.32 354.88C345.01 354.94 344.4 354.86 344.14 354.94C343.56 355.12 343.59 355.74 341.62 356.14C341.47 356.16 341.21 356.3 341.1 356.38C340.87 356.54 340.69 356.78 340.46 356.94C340.32 357.04 339.88 356.86 339.62 356.88C339.13 356.96 338.84 357.39 338.38 357.44C337.33 357.58 335.65 356.96 334.84 357.28C334.35 357.47 332.99 358.99 332.5 359.15C332.18 359.26 331.95 359.12 331.6 358.99C331.43 359.2 331.02 360.86 330.88 361.23C330.88 361.26 328.65 363.12 328.47 363.34C328.18 363.66 328.07 364 327.72 364.35C327.49 364.59 327.11 364.8 326.74 364.8C326.27 364.8 325.58 364.46 325.14 364.38C324.3 364.24 321.79 364.14 321.03 364.3C320.25 364.46 320.48 366.7 318.54 366.91C317.41 367.04 316.37 367.26 315.21 367.36C315.1 367.36 314.4 366.88 313.71 367.07C313.45 367.15 312.61 368 312.61 368.27C312.61 368.32 312.61 368.7 312.61 368.75C312.61 368.83 312.84 369.12 312.81 369.15C312.38 369.66 311.39 370.46 311.07 371.04C310.99 371.2 310.87 371.39 310.73 371.5C310.47 371.68 309.13 372.19 309.02 372.43C308.7 373.23 309.94 373.98 309.83 374.3C309.48 375.34 308.09 376.32 307.66 377.28C307.48 377.68 308.12 379.02 308.09 379.47C307.95 380.72 307.51 382.32 307.57 383.55C307.57 383.79 307.74 385.04 307.83 385.18C307.98 385.42 308.29 385.55 308.5 385.76C308.7 385.98 310.23 388.96 310.29 389.28C310.58 391.5 307.37 390.72 309.22 392.94C309.51 393.28 309.74 393.66 310.06 393.95C310.47 394.35 312.84 396.08 312.87 396.27C312.93 396.59 310.96 396.91 310.61 397.26C309.68 398.16 308.9 399.84 308 400.78C307.45 401.36 306.96 400.72 306.24 402.08C305.98 402.59 306.24 403.74 305.92 404.06C305.46 404.54 305.08 403.9 304.62 404.11C304.41 404.19 304.3 404.78 304.1 404.94C303.57 405.39 298.94 407.84 298.51 407.63C298.28 407.52 298.02 406.75 297.99 406.51C297.93 406.24 297.64 405.66 297.41 405.47C296.22 404.46 294.4 404.27 293.24 405.5C292.95 405.82 292.92 406.3 292.54 406.62C291.91 407.15 291.18 407.63 290.58 408.16C290.46 408.27 290.11 408.67 289.97 408.64C289.5 408.59 288.37 407.31 288.09 406.96C287.56 406.35 286.06 404.88 285.91 404.19C285.91 401.82 284.06 399.34 283.28 397.02C283.4 397.02 284.32 397.04 284.44 397.04C285.74 396.16 285.36 394 287.71 394.86C288 394.46 287.97 394.03 288.52 393.74C288.72 393.63 289.1 393.52 289.21 393.34C290 392.14 290.92 387.55 290.11 386.38C289.39 385.31 288.64 385.36 288.06 383.6C287.88 383.12 288.2 382.56 288.06 382.03C287.94 381.6 287.16 379.07 287.04 378.88C286.9 378.67 286.41 378.4 286.38 378.27C286.35 378.06 286.17 375.31 286.26 375.1C285.48 372.96 282.84 371.6 282.7 371.36C282.38 370.86 282.06 370.19 281.72 369.63C281.31 368.96 281.31 368.62 281.08 367.98C280.99 367.68 280.56 367.44 280.53 367.12C280.47 366.56 282.06 365.39 282.01 364.4C281.98 364.08 280.99 363.12 281.19 362.59C281.4 362.03 282.41 360.78 282.38 360.16C282.32 359.34 280.79 357.55 280.59 356.67C280.5 356.24 281.19 355.9 281.02 355.6C280.82 355.23 279.2 353.76 278.94 353.34C278.73 353.02 279.54 352.59 278.97 352C278.44 351.47 278.88 351.66 278.73 351.2C278.56 350.7 277.98 350.24 277.75 349.71C277.55 349.26 276.16 344.24 276.19 343.95C275.95 343.6 275.55 343.31 275.35 342.96C275.14 342.62 275.06 341.95 274.88 341.68C274.85 341.66 273.32 341.2 273.03 340.75C272.8 340.38 272.74 339.15 272.34 338.54C272.13 338.24 271.81 338.3 271.58 338.08C271.38 337.92 271.41 337.63 271.26 337.44C270.8 336.8 269.87 337.39 269.24 335.04C268.4 334.46 267.62 333.95 266.89 333.23C266.75 333.1 266.66 332.94 266.49 332.86C265.91 332.62 265.04 332.54 264.55 332.11C264.26 332.11 262.72 332.06 262.55 331.95C262.38 331.84 262.2 331.18 262.09 331.15C261.28 330.99 259.94 331.07 259.25 330.48C258.7 330 258.58 327.68 257.6 328C257.48 327.95 257.34 327.9 257.19 327.92C256.56 327.1 254.36 326.99 253.46 326.46C253.2 326.3 252.36 326.43 252.36 326.19C252.56 325.74 252.5 325.36 252.53 324.91C252.04 324.43 251.72 323.87 251.37 323.52C250.53 323.34 250.85 323.26 250.33 322.94C248.88 322.83 248.74 323.07 247.81 323.92C247.58 324.14 247.12 324.19 246.83 324.35C246.34 324.62 246.19 325.5 245.5 325.1C245.26 324.96 245.12 324.75 244.95 324.59C244.54 324.24 244.31 324.43 244.11 323.79C242.92 323.15 239.65 325.36 238.87 323.82C238.32 323.52 237.91 323.9 237.45 323.42C237.22 323.18 238.08 320.51 235.71 319.42C236.26 318.99 236.84 318.7 237.36 318.3C237.51 318 237.33 317.55 237.33 317.26C237.33 316.8 237.62 315.92 237.53 315.6C237.45 315.28 237.1 315.02 236.98 314.64C236.84 314.27 237.01 313.79 236.81 313.39C236.67 313.28 236.23 313.02 236.06 313.02C235.45 312.51 234.78 312.19 234.29 311.58C234.18 311.44 234.09 311.2 233.94 311.1C233.51 310.78 232.09 310.35 232.15 309.68C232.18 309.47 232.47 309.44 232.55 309.23C232.64 308.96 232.58 308.62 232.79 308.38C233.45 307.47 234.93 307.87 234.7 306.19C234.58 305.44 234.06 304.8 233.92 304C233.65 303.82 233.63 303.5 233.39 303.31C231.95 303.18 232.15 301.68 231.63 301.34C230.09 300.3 228.91 300.94 230.61 298.88C230.85 298.22 229.14 297.15 228.79 296.78C228.18 296.19 228.47 294.96 228.24 294.32C228.12 294 227.11 293.44 226.79 292.99C226.71 292.86 226.45 292.16 226.3 292.08C226.3 292.06 226.33 291.89 226.33 291.87C226.65 291.63 226.47 291.15 226.39 290.83C226.19 290.64 225.75 290.7 225.61 290.56C224.22 289.31 222.54 288.75 220.71 288.03C220.22 287.84 220.37 287.44 219.96 287.26C219.61 287.1 217.15 286 216.98 286.06C216.69 285.98 216.49 284.88 216.28 284.54C216.11 284.22 215.41 283.63 215.41 283.6C215.47 282.59 214.84 282.46 214.05 281.92C214.11 281.79 213.97 281.47 213.97 281.31C213.97 281.18 214.49 279.42 214.58 279.18C214.72 278.8 215.21 278.46 215.13 278.03C215.01 277.36 214.92 276.32 214.69 275.74C213.91 273.66 212.98 273.92 213.48 271.2C213.59 270.64 213.39 270.32 213.82 269.82C213.76 269.79 214.03 269.52 214.05 269.47C214.31 269.23 215.04 268.83 215.18 268.64C215.62 268.06 215.88 266.72 216.43 266.3C216.83 265.98 217.99 265.36 218.19 265.1C218.37 264.88 218.63 264.22 218.48 263.95C218.08 263.71 217.67 263.82 217.27 263.76C217.12 263.74 216.6 263.36 216.2 263.28C216.08 263.15 215.88 262.99 215.88 262.8C215.86 262.79 215.72 262.66 215.7 262.64C215.24 262.59 214.72 262.3 214.31 262.16C213.79 261.95 213.07 261.92 212.58 261.63C211.65 261.1 210.61 259.63 209.71 259.42C208.5 259.15 207.71 259.52 206.56 259.58C205.8 259.63 205.8 259.18 205.19 258.99C204.38 258.75 204.99 259.42 203.14 258.83C202.91 258.64 203.25 258 203.28 257.76C202.99 257.68 202.65 257.84 202.3 257.76C200.76 257.39 201.34 256 200.94 255.1C200.76 254.88 200.13 254.94 199.84 254.91C199.75 254.88 199.72 254.75 199.75 254.7C199.77 254.69 199.88 254.6 199.9 254.59C200.16 254.19 199.23 253.18 199.26 253.04C199.32 252.72 201.2 252.43 201.46 252.4C201.55 252.16 201.29 251.95 201.26 251.71C201.2 251.18 201.55 250.48 201.72 250C201.71 249.99 201.67 249.86 201.66 249.84C201.14 249.55 200.97 249.12 200.5 248.78C200.53 248.54 200.85 248.38 200.91 248.14C201.81 245.66 203.2 247.63 204.41 245.34C204.53 245.12 204.88 244.56 204.99 244.19C205.02 244.18 205.2 244.14 205.22 244.14C205.46 244.19 205.77 244.38 206.01 244.3C206.18 244.06 206.56 243.98 206.84 243.9C206.89 243.91 207.24 243.99 207.28 244C209.54 243.52 209.02 242.7 210.32 241.76C210.67 241.52 211.68 241.42 212.14 241.26C212.64 241.47 213.33 242.24 214.26 242.59C214.92 242.86 217.21 243.34 217.59 243.55C218.08 243.82 218.17 244.46 218.6 244.7C219.9 245.39 219.15 244.22 220.39 244.46C221.67 244.72 222.71 245.76 223.9 246.27C224.1 246.35 224.59 246.24 224.82 246.19C225.2 246.11 227.23 245.74 227.43 245.82C227.66 245.9 228.01 246.11 228.24 246.16C228.53 246.22 228.76 245.6 228.96 245.63C229.83 245.76 229.86 246.11 231.02 246C231.08 246 231.63 242.75 232.18 242.59C232.5 242.51 233.37 243.36 233.63 243.42C234.06 243.52 233.6 242.75 233.57 242.7C233.45 242.43 232.84 240.43 232.87 240.24C232.9 240.14 233.45 240.4 233.71 240.32C234.35 240.11 235.22 239.95 235.68 239.44C235.74 239.39 236.72 237.98 236.75 237.92C236.81 237.68 236.49 237.12 236.64 236.94C236.78 236.78 237.33 236.56 237.59 236.3C237.97 235.92 238.03 235.28 238.55 235.02C240.6 234.83 241.33 233.23 243.18 233.02C243.3 233.02 243.7 232.94 243.79 232.96C243.83 233.02 244.13 233.51 244.16 233.58C244.28 233.74 245.53 234.48 245.73 234.43C245.9 234.4 245.99 234.11 246.16 234.06C246.54 234.11 247.58 233.47 247.7 233.15C247.73 233.1 247.47 232.78 247.58 232.56C247.67 232.4 248.97 231.44 249.17 231.34C249.64 231.34 250.13 231.23 250.56 231.39C250.82 231.5 250.85 231.9 251.14 231.95C251.46 231.98 252.04 231.84 252.27 231.9C252.53 231.95 252.65 231.42 252.97 231.39C252.98 231.4 253.01 231.43 253.02 231.44Z" id="k1TDWi59lq"></path><path d="M351.87 80L368 129.62L325.79 98.95L377.96 98.95L335.75 129.62L351.87 80Z" id="dAKajdqZd"></path><path d="M414.65 91.07L430.78 140.69L388.57 110.02L440.74 110.02L398.53 140.69L414.65 91.07Z" id="bzLk8n2pf"></path><path d="M474.56 112.87L490.68 162.49L448.47 131.83L500.64 131.83L458.44 162.49L474.56 112.87Z" id="a1zLbRE7xy"></path><path d="M288.13 80L272 129.62L314.21 98.95L262.04 98.95L304.25 129.62L288.13 80Z" id="aVfkC4eN1"></path><path d="M225.35 91.07L209.22 140.69L251.43 110.02L199.26 110.02L241.47 140.69L225.35 91.07Z" id="d2wPSfl22T"></path><path d="M165.44 112.87L149.32 162.49L191.53 131.83L139.36 131.83L181.56 162.49L165.44 112.87Z" id="k6qEwgvgAw"></path></defs><g><g><g><use xlink:href="#aefPrpRg" opacity="1" fill="#244aa5" fill-opacity="1"></use><g><use xlink:href="#aefPrpRg" opacity="1" fill-opacity="0" stroke="#000000" stroke-width="1" stroke-opacity="0"></use></g></g><g><use xlink:href="#k1TDWi59lq" opacity="1" fill="#d0a650" fill-opacity="1"></use><g><use xlink:href="#k1TDWi59lq" opacity="1" fill-opacity="0" stroke="#000000" stroke-width="1" stroke-opacity="0"></use></g></g><g><use xlink:href="#dAKajdqZd" opacity="1" fill="#ffffff" fill-opacity="1"></use><g><use xlink:href="#dAKajdqZd" opacity="1" fill-opacity="0" stroke="#000000" stroke-width="1" stroke-opacity="0"></use></g></g><g><use xlink:href="#bzLk8n2pf" opacity="1" fill="#ffffff" fill-opacity="1"></use><g><use xlink:href="#bzLk8n2pf" opacity="1" fill-opacity="0" stroke="#000000" stroke-width="1" stroke-opacity="0"></use></g></g><g><use xlink:href="#a1zLbRE7xy" opacity="1" fill="#ffffff" fill-opacity="1"></use><g><use xlink:href="#a1zLbRE7xy" opacity="1" fill-opacity="0" stroke="#000000" stroke-width="1" stroke-opacity="0"></use></g></g><g><use xlink:href="#aVfkC4eN1" opacity="1" fill="#ffffff" fill-opacity="1"></use><g><use xlink:href="#aVfkC4eN1" opacity="1" fill-opacity="0" stroke="#000000" stroke-width="1" stroke-opacity="0"></use></g></g><g><use xlink:href="#d2wPSfl22T" opacity="1" fill="#ffffff" fill-opacity="1"></use><g><use xlink:href="#d2wPSfl22T" opacity="1" fill-opacity="0" stroke="#000000" stroke-width="1" stroke-opacity="0"></use></g></g><g><use xlink:href="#k6qEwgvgAw" opacity="1" fill="#ffffff" fill-opacity="1"></use><g><use xlink:href="#k6qEwgvgAw" opacity="1" fill-opacity="0" stroke="#000000" stroke-width="1" stroke-opacity="0"></use></g></g></g></g></svg>