<?xml version="1.0" encoding="UTF-8" standalone="no"?>
<!DOCTYPE svg PUBLIC "-//W3C//DTD SVG 1.1//EN" "http://www.w3.org/Graphics/SVG/1.1/DTD/svg11.dtd">
<svg version="1.1" xmlns="http://www.w3.org/2000/svg" xmlns:xlink="http://www.w3.org/1999/xlink" preserveAspectRatio="xMidYMid meet" viewBox="0 0 640 640" width="640" height="640"><defs><path d="M0 0L640 0L640 480L0 480L0 0Z" id="hKTfU6CAR"></path><path d="M0 0L640 0L355.56 320L355.56 480L284.44 480L284.44 320L0 0Z" id="f1d3VeZzJj"></path><path d="M320 146.67C293.82 146.67 272.59 170.54 272.59 200C272.59 229.46 293.82 253.33 320 253.33C346.18 253.33 367.41 229.46 367.41 200C367.41 170.54 346.18 146.67 320 146.67Z" id="a1KUg0Hfaj"></path><path d="M260.74 200L379.26 200L320 320L260.74 200Z" id="calJ7Lgsf"></path><path d="M320 320L225.19 220L414.81 220L320 320Z" id="b49qbeFF53"></path></defs><g><g><g><use xlink:href="#hKTfU6CAR" opacity="1" fill="#003787" fill-opacity="1"></use><g><use xlink:href="#hKTfU6CAR" opacity="1" fill-opacity="0" stroke="#000000" stroke-width="1" stroke-opacity="0"></use></g></g><g><use xlink:href="#f1d3VeZzJj" opacity="1" fill="#ffffff" fill-opacity="1"></use><g><use xlink:href="#f1d3VeZzJj" opacity="1" fill-opacity="0" stroke="#000000" stroke-width="1" stroke-opacity="0"></use></g></g><g><use xlink:href="#a1KUg0Hfaj" opacity="1" fill="#f9d90f" fill-opacity="1"></use><g><use xlink:href="#a1KUg0Hfaj" opacity="1" fill-opacity="0" stroke="#000000" stroke-width="1" stroke-opacity="0"></use></g></g><g><use xlink:href="#calJ7Lgsf" opacity="1" fill="#ffffff" fill-opacity="1"></use><g><use xlink:href="#calJ7Lgsf" opacity="1" fill-opacity="0" stroke="#000000" stroke-width="1" stroke-opacity="0"></use></g></g><g><use xlink:href="#b49qbeFF53" opacity="1" fill="#cf142b" fill-opacity="1"></use><g><use xlink:href="#b49qbeFF53" opacity="1" fill-opacity="0" stroke="#000000" stroke-width="1" stroke-opacity="0"></use></g></g></g></g></svg>