<?xml version="1.0" encoding="UTF-8" standalone="no"?>
<!DOCTYPE svg PUBLIC "-//W3C//DTD SVG 1.1//EN" "http://www.w3.org/Graphics/SVG/1.1/DTD/svg11.dtd">
<svg version="1.1" xmlns="http://www.w3.org/2000/svg" xmlns:xlink="http://www.w3.org/1999/xlink" preserveAspectRatio="xMidYMid meet" viewBox="0 0 640 640" width="640" height="640"><defs><path d="M860 0C860 0 860 0 860 0C860 288 860 448 860 480C860 480 860 480 860 480C284 480 -36 480 -100 480C-100 480 -100 480 -100 480C-100 192 -100 32 -100 0C-100 0 -100 0 -100 0C476 0 796 0 860 0Z" id="bbuDcidfY"></path><path d="M860 0C860 0 860 0 860 0C860 192 860 298.67 860 320C860 320 860 320 860 320C284 320 -36 320 -100 320C-100 320 -100 320 -100 320C-100 128 -100 21.33 -100 0C-100 0 -100 0 -100 0C476 0 796 0 860 0Z" id="a4n9pJfDg"></path><path d="M860 0C860 0 860 0 860 0C860 96 860 149.33 860 160C860 160 860 160 860 160C284 160 -36 160 -100 160C-100 160 -100 160 -100 160C-100 64 -100 10.67 -100 0C-100 0 -100 0 -100 0C476 0 796 0 860 0Z" id="bVBCt1Vui"></path><path d="M220 82.69C133.12 82.69 62.69 153.12 62.69 240C62.69 326.88 133.12 397.31 220 397.31C306.88 397.31 377.31 326.88 377.31 240C377.31 153.12 306.88 82.69 220 82.69Z" id="brwUYe27w"></path><path d="M281.04 386.06C281.04 386.06 258.33 361.47 246.68 351.87C235.32 342.51 201.89 342.88 190.48 351.87C180.97 359.38 153.66 387.04 156.66 384.45C220.87 410.67 256.17 385.74 281.04 386.06Z" id="b2LoyAxliZ"></path><path d="M237.6 312.53C237.6 326.67 229.72 338.13 220 338.13C210.28 338.13 202.4 326.67 202.4 312.53C202.4 298.39 210.28 286.93 220 286.93C229.72 286.93 237.6 298.39 237.6 312.53Z" id="fothXyqUJ"></path><path d="M241.33 243.73C241.33 251.19 231.78 257.24 220 257.24C208.22 257.24 198.67 251.19 198.67 243.73C198.67 236.28 208.22 230.23 220 230.23C231.78 230.23 241.33 236.28 241.33 243.73Z" id="h3yU3TYoGJ"></path><path d="M241.33 181.33C241.33 193.12 231.78 202.67 220 202.67C208.22 202.67 198.67 193.12 198.67 181.33C198.67 169.55 208.22 160 220 160C231.78 160 241.33 169.55 241.33 181.33Z" id="a3RQgyNkhf"></path><path d="M243.56 111.93C224.97 145.41 206.32 146.13 202.78 149.01C198.88 152.19 197.23 151.97 197.23 151.97C197.51 149.11 197.77 137.38 197.97 136.25C200.79 120.61 224.42 120.83 242.91 104.81C245.8 102.31 245.59 101.85 245.59 101.85C245.19 103.87 247.45 104.93 243.56 111.93Z" id="a6EFlQ9gG"></path><path d="M188 197.87C189 217.06 207.39 217.6 220 217.6C220 216.53 220 208 220 206.93C210.55 206.93 202.34 205.53 195.47 191.47C192.07 184.53 183.2 173.87 183.2 173.87C184.16 178.67 187.38 185.85 188 197.87Z" id="aTWfTe10q"></path><path d="M197.24 300.83C201.34 290.69 211.05 284.8 220 284.8C220 283.31 220 271.36 220 269.87C199.7 269.87 189.97 277.39 188.95 288.39C186.84 310.98 182.67 328.53 182.67 328.53C185.58 322.99 189.38 320.25 197.24 300.83Z" id="a1T2pTveje"></path><path d="M252 197.87C251 217.06 232.61 217.6 220 217.6C220 216.53 220 208 220 206.93C229.45 206.93 237.66 205.53 244.53 191.47C247.93 184.53 256.8 173.87 256.8 173.87C255.84 178.67 252.62 185.85 252 197.87Z" id="a1GoygoHh"></path><path d="M242.76 300.83C238.66 290.69 228.95 284.8 220 284.8C220 283.31 220 271.36 220 269.87C240.3 269.87 250.03 277.39 251.05 288.39C253.16 310.98 257.33 328.53 257.33 328.53C254.42 322.99 250.62 320.25 242.76 300.83Z" id="f2ZCV3Vqq4"></path></defs><g><g><g><use xlink:href="#bbuDcidfY" opacity="1" fill="#009543" fill-opacity="1"></use><g><use xlink:href="#bbuDcidfY" opacity="1" fill-opacity="0" stroke="#000000" stroke-width="1" stroke-opacity="0"></use></g></g><g><use xlink:href="#a4n9pJfDg" opacity="1" fill="#ed4135" fill-opacity="1"></use><g><use xlink:href="#a4n9pJfDg" opacity="1" fill-opacity="0" stroke="#000000" stroke-width="1" stroke-opacity="0"></use></g></g><g><use xlink:href="#bVBCt1Vui" opacity="1" fill="#0035ad" fill-opacity="1"></use><g><use xlink:href="#bVBCt1Vui" opacity="1" fill-opacity="0" stroke="#000000" stroke-width="1" stroke-opacity="0"></use></g></g><g><use xlink:href="#brwUYe27w" opacity="1" fill="#fae600" fill-opacity="1"></use><g><use xlink:href="#brwUYe27w" opacity="1" fill-opacity="0" stroke="#000000" stroke-width="5" stroke-opacity="1"></use></g></g><path></path><g><use xlink:href="#b2LoyAxliZ" opacity="1" fill="#000000" fill-opacity="1"></use><g><use xlink:href="#b2LoyAxliZ" opacity="1" fill-opacity="0" stroke="#000000" stroke-width="1" stroke-opacity="0"></use></g></g><g><use xlink:href="#fothXyqUJ" opacity="1" fill="#000000" fill-opacity="1"></use><g><use xlink:href="#fothXyqUJ" opacity="1" fill-opacity="0" stroke="#000000" stroke-width="1" stroke-opacity="0"></use></g></g><g><use xlink:href="#h3yU3TYoGJ" opacity="1" fill="#000000" fill-opacity="1"></use><g><use xlink:href="#h3yU3TYoGJ" opacity="1" fill-opacity="0" stroke="#000000" stroke-width="1" stroke-opacity="0"></use></g></g><g><use xlink:href="#a3RQgyNkhf" opacity="1" fill="#000000" fill-opacity="1"></use><g><use xlink:href="#a3RQgyNkhf" opacity="1" fill-opacity="0" stroke="#000000" stroke-width="1" stroke-opacity="0"></use></g></g><g><use xlink:href="#a6EFlQ9gG" opacity="1" fill="#000000" fill-opacity="1"></use><g><use xlink:href="#a6EFlQ9gG" opacity="1" fill-opacity="0" stroke="#000000" stroke-width="1" stroke-opacity="0"></use></g></g><g><use xlink:href="#aTWfTe10q" opacity="1" fill="#000000" fill-opacity="1"></use><g><use xlink:href="#aTWfTe10q" opacity="1" fill-opacity="0" stroke="#000000" stroke-width="1" stroke-opacity="0"></use></g></g><g><use xlink:href="#a1T2pTveje" opacity="1" fill="#000000" fill-opacity="1"></use><g><use xlink:href="#a1T2pTveje" opacity="1" fill-opacity="0" stroke="#000000" stroke-width="1" stroke-opacity="0"></use></g></g><g><use xlink:href="#a1GoygoHh" opacity="1" fill="#000000" fill-opacity="1"></use><g><use xlink:href="#a1GoygoHh" opacity="1" fill-opacity="0" stroke="#000000" stroke-width="1" stroke-opacity="0"></use></g></g><g><use xlink:href="#f2ZCV3Vqq4" opacity="1" fill="#000000" fill-opacity="1"></use><g><use xlink:href="#f2ZCV3Vqq4" opacity="1" fill-opacity="0" stroke="#000000" stroke-width="1" stroke-opacity="0"></use></g></g></g></g></svg>