<?xml version="1.0" encoding="UTF-8" standalone="no"?>
<!DOCTYPE svg PUBLIC "-//W3C//DTD SVG 1.1//EN" "http://www.w3.org/Graphics/SVG/1.1/DTD/svg11.dtd">
<svg version="1.1" xmlns="http://www.w3.org/2000/svg" xmlns:xlink="http://www.w3.org/1999/xlink" preserveAspectRatio="xMidYMid meet" viewBox="0 0 640 640" width="640" height="640"><defs><path d="M0 0L640 0L640 480L0 480L0 0Z" id="a1iBD72xF9"></path><path d="M173.96 46.99L152.16 62.99L160.36 88.59L138.56 72.79L116.76 88.59L124.96 62.99L103.16 46.99L130.16 46.99L138.56 21.19L146.96 46.99L173.96 46.99ZM118.36 51.99L130.76 60.99L126.04 75.69L138.56 66.59L151.08 75.69L146.36 60.99L158.76 51.99L143.36 51.99L138.56 37.19L133.76 51.99L118.36 51.99Z" id="bDz2XmHsZ"></path><path d="M105.14 124.23L71.15 156.6L89.28 174.73C98.67 165.27 103.89 160.02 104.93 158.97C135.45 189.95 159.18 214.04 188.65 243.95C196.81 252.41 211.02 240.9 201.92 231.14C170.78 200.79 149.2 178.89 116.75 147.07C118.04 145.78 124.45 139.33 135.99 127.72L105.14 124.23Z" id="d4jiqdIGqq"></path><path d="M103.99 215.04C164.8 271.45 263.33 169.74 137.41 96.03C231.11 200.14 141.15 232.05 108.58 199.94C108.41 199.8 107.1 198.72 106.94 198.58C105.61 200.07 104.27 201.56 102.95 203.06C100.42 200.68 96.5 199.98 95.3 204.05C90.34 203.71 87.43 206.45 86.13 211.6C76.91 217.71 66.92 223.07 61.18 232.67C57.9 242.82 64.39 247.23 71.73 246.39C83.76 241.4 87.48 230.59 93.92 221.68C98.47 220.23 102.32 218.28 103.03 214.14" id="f1vq3EA6zv"></path></defs><g><g><g><use xlink:href="#a1iBD72xF9" opacity="1" fill="#cc0000" fill-opacity="1"></use><g><use xlink:href="#a1iBD72xF9" opacity="1" fill-opacity="0" stroke="#000000" stroke-width="1.33" stroke-opacity="0"></use></g></g><g><use xlink:href="#bDz2XmHsZ" opacity="1" fill="#ffd700" fill-opacity="1"></use><g><use xlink:href="#bDz2XmHsZ" opacity="1" fill-opacity="0" stroke="#000000" stroke-width="1" stroke-opacity="0"></use></g></g><g><use xlink:href="#d4jiqdIGqq" opacity="1" fill="#ffd700" fill-opacity="1"></use><g><use xlink:href="#d4jiqdIGqq" opacity="1" fill-opacity="0" stroke="#000000" stroke-width="1" stroke-opacity="0"></use></g></g><g><use xlink:href="#f1vq3EA6zv" opacity="1" fill="#ffd700" fill-opacity="1"></use><g><use xlink:href="#f1vq3EA6zv" opacity="1" fill-opacity="0" stroke="#000000" stroke-width="1" stroke-opacity="0"></use></g></g></g></g></svg>