<svg version="1.1" xmlns="http://www.w3.org/2000/svg" xmlns:xlink="http://www.w3.org/1999/xlink" x="0px" y="0px"
	 viewBox="0 0 64 64" style="enable-background:new 0 0 64 64;" xml:space="preserve" width='32' height="32">
<style type="text/css">
	.st0{fill:none;}
	.st1{fill:#FFFFFF;}
	.st2{fill:#B3B3B3;}
</style>
<g id="Icon">
	<g>
		<path class="st2" d="M35.667,20.625c-9.435-2.022-18.999,4.211-21.021,13.646c-0.599,2.794-0.473,5.719,0.223,8.305l17.15-4.599
			l12.503,12.544c2.29-2.299,4.25-5.452,4.979-8.854C51.522,32.231,45.102,22.647,35.667,20.625z"/>
	</g>
	<g>
		<g>
			<path d="M56.049,5.365c-1.16-0.274-2.301-0.28-3.379-0.065c2.95,1.961,4.087,5.84,2.511,9.125
				c-0.994,2.071-2.847,3.446-4.927,3.915c0.758,0.5,1.611,0.889,2.552,1.111c4.105,0.969,8.191-1.466,9.09-5.363
				C62.795,10.191,60.154,6.334,56.049,5.365z"/>
			<path d="M15.417,8.804c-0.011,0.917-0.023,1.793-0.033,2.586c0.01,0.266,0.343,0.39,0.568,0.225
				c0.684-0.488,1.423-1.03,2.04-1.643c0.806,0.329,1.697,0.546,2.515,0.733c0.271,0.066,0.531-0.177,0.438-0.426
				c-0.315-0.729-0.662-1.533-1.025-2.375c0.498-0.751,0.985-1.525,1.387-2.198c0.134-0.226-0.028-0.553-0.296-0.562
				c-0.787-0.02-1.718,0.016-2.577,0.086c-0.528-0.693-1.004-1.316-1.494-1.96c-0.081-0.107-0.194-0.146-0.311-0.123
				C16.51,3.17,16.422,3.25,16.388,3.38c-0.205,0.783-0.405,1.541-0.626,2.384c-0.82,0.265-1.694,0.59-2.412,0.91
				c-0.244,0.112-0.268,0.476-0.058,0.633C13.922,7.774,14.668,8.302,15.417,8.804z"/>
			<path d="M8.187,20.135c-0.517-0.204-1.145-0.405-1.732-0.566c-0.183-0.588-0.348-1.117-0.518-1.663
				c-0.028-0.091-0.094-0.144-0.177-0.157c-0.083-0.013-0.162,0.019-0.216,0.097c-0.325,0.47-0.642,0.925-0.993,1.431
				c-0.609-0.023-1.267-0.018-1.822,0.021c-0.189,0.015-0.293,0.251-0.191,0.406c0.305,0.462,0.673,0.994,1.049,1.508
				c-0.229,0.606-0.449,1.185-0.648,1.709c-0.058,0.179,0.133,0.342,0.323,0.287c0.572-0.158,1.194-0.34,1.752-0.598
				c0.455,0.414,0.995,0.773,1.493,1.095c0.164,0.11,0.396,0.011,0.394-0.177c-0.033-0.56-0.069-1.178-0.106-1.825
				c0.512-0.378,1.023-0.775,1.453-1.124C8.391,20.462,8.362,20.206,8.187,20.135z"/>
		</g>
		<path d="M36.819,15.511c-12.421-2.662-24.647,5.248-27.309,17.67c-2.662,12.422,5.249,24.647,17.67,27.309
			c12.422,2.662,24.647-5.248,27.309-17.67C57.151,30.398,49.241,18.172,36.819,15.511z M28.333,55.112
			c-9.435-2.022-15.467-11.343-13.445-20.778s11.343-15.467,20.778-13.445s15.467,11.343,13.445,20.778
			C47.09,51.102,37.768,57.133,28.333,55.112z"/>
		<path d="M34.245,37.045c-0.42-1.158-1.699-1.756-2.857-1.336l-11.653,4.229c-0.577,0.209-0.942,0.806-0.838,1.433
			c0.117,0.708,0.786,1.187,1.494,1.069l0.013-0.002l9.311-1.542l0.786,10.87l0.001,0.014c0.053,0.739,0.645,1.343,1.404,1.391
			c0.829,0.052,1.542-0.577,1.595-1.405L34.371,38l0.005-0.065C34.393,37.642,34.352,37.34,34.245,37.045z"/>
	</g>
</g>
</svg>
