<svg width="36" height="36" viewBox="0 0 36 36" fill="currentColor" xmlns="http://www.w3.org/2000/svg">
<path d="M19.6691 12.69C15.2928 11.7521 10.8567 14.6432 9.91887 19.0195C9.64104 20.3154 9.69948 21.6721 10.0223 22.8716L17.977 20.7384L23.7763 26.5567C24.8385 25.4904 25.7476 24.0279 26.0857 22.45C27.0231 18.0732 24.0453 13.6279 19.6691 12.69Z" fill-opacity="0.3"/>
<path d="M10.1761 7.20706C10.171 7.6324 10.1654 8.03871 10.1608 8.40653C10.1654 8.52991 10.3199 8.58742 10.4243 8.5109C10.7415 8.28454 11.0843 8.03315 11.3705 7.74882C11.7443 7.90142 12.1576 8.00207 12.537 8.08881C12.6627 8.11942 12.7833 8.00671 12.7402 7.89121C12.6401 7.65962 12.5331 7.4117 12.4215 7.15298L12.2647 6.78961C12.4957 6.44128 12.7216 6.08227 12.9081 5.77011C12.9702 5.66529 12.8951 5.51361 12.7708 5.50944C12.4058 5.50016 11.9739 5.51686 11.5755 5.54933C11.4767 5.41962 11.3818 5.2952 11.2888 5.17329L11.2764 5.15708C11.1433 4.9826 11.014 4.81304 10.8825 4.64022C10.845 4.59059 10.7926 4.5725 10.7383 4.58317C10.6831 4.59383 10.6423 4.63094 10.6265 4.69124C10.5753 4.88673 10.5248 5.07886 10.4731 5.27559C10.4287 5.44434 10.3835 5.61648 10.3361 5.79701C9.95579 5.91993 9.55041 6.07068 9.21737 6.2191C9.1042 6.27105 9.09307 6.43988 9.19047 6.5127C9.48269 6.72932 9.82871 6.97422 10.1761 7.20706Z"/>
<path d="M29.0225 5.61194C28.4845 5.48485 27.9552 5.48207 27.4552 5.58179C28.8235 6.49137 29.3509 8.29057 28.6199 9.81426C28.1589 10.7749 27.2994 11.4126 26.3346 11.6302C26.6862 11.8621 27.0819 12.0425 27.5183 12.1455C29.4224 12.5949 31.3176 11.4655 31.7346 9.65795C32.1515 7.8504 30.9266 6.0614 29.0225 5.61194Z" fill="black"/>
<path d="M6.01925 12.2002C6.29152 12.2749 6.58281 12.3681 6.82262 12.4627C6.90378 12.4957 6.91723 12.6144 6.8509 12.6687C6.65146 12.8306 6.41445 13.0147 6.17695 13.19C6.19412 13.4901 6.21083 13.7768 6.22613 14.0365C6.22705 14.1237 6.11944 14.1696 6.04337 14.1186C5.81239 13.9693 5.56192 13.8028 5.35088 13.6107C5.09205 13.7304 4.80355 13.8148 4.53824 13.8881C4.45011 13.9136 4.36153 13.838 4.38842 13.755L4.41094 13.6957C4.4972 13.4685 4.59134 13.2207 4.68899 12.9623C4.51459 12.7239 4.34389 12.4771 4.20243 12.2628C4.15512 12.1909 4.20336 12.0815 4.29102 12.0745C4.54845 12.0564 4.85364 12.0541 5.13612 12.0648L5.31149 11.8122C5.359 11.7438 5.4057 11.6766 5.45216 11.6096C5.50038 11.5402 5.54836 11.4709 5.59671 11.401C5.62175 11.3648 5.6584 11.35 5.6969 11.356C5.73539 11.3621 5.766 11.3866 5.779 11.4289C5.85784 11.6821 5.93438 11.9275 6.01925 12.2002Z"/>
<path d="M17.584 19.6865C18.1211 19.4916 18.7143 19.769 18.9091 20.3061C18.9588 20.443 18.9778 20.583 18.9699 20.7189L18.9676 20.7491L18.5641 27.1342C18.5395 27.5183 18.2088 27.81 17.8242 27.7859C17.4722 27.7636 17.1976 27.4835 17.173 27.1407L16.808 22.0923L12.4892 22.8076L12.4832 22.8085C12.1548 22.8632 11.8445 22.6411 11.7903 22.3127C11.742 22.0218 11.9113 21.7449 12.1789 21.648L17.584 19.6865Z"/>
<path fill-rule="evenodd" clip-rule="evenodd" d="M20.103 10.318C14.3418 9.08326 8.67098 12.7522 7.43627 18.5139C6.20154 24.2756 9.87092 29.946 15.6322 31.1807C21.3939 32.4154 27.0642 28.7465 28.299 22.9848C29.5337 17.223 25.8648 11.5522 20.103 10.318ZM16.167 28.6862C11.7907 27.7483 8.99288 23.4249 9.93075 19.0487C10.8686 14.6724 15.192 11.8746 19.5683 12.8125C23.9445 13.7503 26.7423 18.0737 25.8045 22.45C24.8671 26.8262 20.5432 29.6236 16.167 28.6862Z"/>
</svg>
