<?xml version="1.0" encoding="utf-8"?>
<!-- Generator: Adobe Illustrator 17.1.0, SVG Export Plug-In . SVG Version: 6.00 Build 0)  -->
<svg version="1.2" baseProfile="tiny" xmlns="http://www.w3.org/2000/svg" xmlns:xlink="http://www.w3.org/1999/xlink" x="0px"
	 y="0px" width="64px" height="64px" viewBox="0 0 64 64" xml:space="preserve">
<g id="_x36_4px_Boxes">
	<rect fill="none" width="64" height="64"/>
</g>
<g id="Production">
	<g>
		<path d="M34.2002,11.689c2.9871,0.4903,5.0589-1.3174,5.5532-4.3296c0.5634-3.4307-0.9413-5.567-3.8504-6.0449
			c-3.0645-0.5028-5.0724,1.4013-5.5804,4.4973C29.7869,9.0746,31.2137,11.1987,34.2002,11.689z"/>
		<path d="M41.3459,47.2096c-0.8951-2.7269-1.016-2.7699-1.5951-3.7217c-0.6775-1.1134-1.3194-1.9691-1.9498-2.8424
			c-1.3216-1.7959-2.694-3.5524-4.0899-5.2991c0.5536-2.9043,1.362-6.4941,2.1189-9.7022c0.3231,1.0061,0.6906,2.0533,1.2523,3.1833
			c0.6809,1.3301,2.9375,3.379,3.9658,4.4628c2.4875,2.6215,5.1064,1.4784,5.6416,1.198c-0.9475-1.2669-3.2836-3.9536-3.9196-4.736
			c-0.4979-0.6125-1.6885-2.0238-2.0126-2.74c-0.4429-0.9557-0.8034-2.2042-1.1187-3.3315
			c-0.1473-0.5267-1.6454-6.7141-1.8753-7.0479c-0.8086-2.0168-6.9005-4.8286-10.506-2.6802
			c-1.9836,1.1821-5.7143,3.9563-7.6051,6.0283c-1.1489,1.2747-1.613,2.0419-2.1057,4.8385c-0.3,1.7635-0.4926,3.8031-0.5282,5.5777
			c-0.0396,1.9717,1.0039,3.8375,3.0701,4.2678c0.4451-3.3688,1.1487-8.403,2.228-10.5869c0.4394-0.889,2.4294-2.2172,3.2609-2.7575
			c-0.5286,2.4518-2.3518,10.6284-2.3518,12.5007c0,2.3155,1.4959,3.518,2.451,4.5186l3.7332,3.9111
			c0,0-0.1386,0.2378-0.4566,0.0537c-1.6328-0.9453-3.7839-2.1867-3.7839-2.1867c-0.5365,2.0231-1.4125,5.3192-2.1817,7.2795
			c-0.6125,1.5609-0.4012,1.1174-0.9948,2.1323c-1.201,2.0535-2.751,4.1289-4.0837,6.4602
			c-2.1913,3.8334,0.4587,6.6486,0.8304,7.0083c2.1536-3.0253,5.8659-7.4979,7.9595-10.6465
			c0.7007-1.0398,0.778-1.1244,1.5663-2.6381c0.5991-1.2116,1.4144-2.9511,2.5855-5.852c0.5137,0.4693,1.0105,0.9995,1.524,1.5161
			c1.2635,1.2713,2.0442,1.8894,2.5422,2.8286c0.1504,0.2837,0.464,0.9289,0.7798,1.7426c1.9283,4.9677,3.47,7.8597,4.3236,9.8959
			c1.2834,3.0612,4.8486,3.3615,5.8486,3.0583C44.8853,59.0148,42.6127,51.0689,41.3459,47.2096z"/>
	</g>
</g>
</svg>
