<svg fill="currentColor" height="36" viewBox="0 0 32 36" width="32" xmlns="http://www.w3.org/2000/svg" focusable="false">
	<g fill="currentColor">
		<path d="m12.266 15.303c.1353-.1395.1353-.4174 0-.4174-.1327-.1383-.2667-.1383-.5348-.1383l-2.40705 2.0821c-.26678.2779-.26678.5558 0 .6941l2.54115 2.0834c.134.1383.4007 0 .4007 0s.1353-.1396.1353-.2779c0 0 0-.1396-.1353-.2779l-.6675-1.1114h1.8723v-1.5265h-1.8736l.6688-1.1114zm3.4779 1.1102h-1.3376v1.5277h3.0771v-1.5277zm4.4134-1.6659c-.134-.1396-.402-.1396-.402 0-.1328.1383-.1328.4162 0 .4162l.6688 1.1114h-1.8723v1.5264h1.8723l-.6688 1.1115c-.1328.1383-.1328.1383-.1328.2766 0 .1396 0 .2779.1328.2779.1352.1396.402.1396.402 0l2.5411-2.0821c.2668-.1384.2668-.4162 0-.6941zm-9.4956 8.6077c.268-.1383.6688-.1383.9355-.1383h.2681v2.9145h-.6688v-2.3588h-.6688v-.4174zm2.5411 1.8055c.268 0 .4008.1383.4008.4162 0 .4162-.5348 1.1115-.6688 1.1115h-.2668l.2668-.6953c-.1328 0-.2668-.1383-.2668-.4162.134-.1383.2668-.4162.5348-.4162zm2.8091-1.3893h-1.2048v.5557h.268c.6688 0 1.0696.2779 1.0696.8336 0 .6941-.5348 1.1115-1.4704 1.1115h-.402v-.5558h.402c.5348 0 .8016-.1395.8016-.4174 0-.2778-.2668-.4162-.6688-.4162h-.5348v-1.5276h1.7396zm2.1391.1395v2.2217h-.6688l.134-2.9157h.9368l.5348 1.6659h.1327l.536-1.6672h.9356l.134 2.917h-.6688l-.134-2.2229-.5348 1.6672h-.8027l-.5348-1.6672zm3.4975 1.1695c0-.0778.0222-.1445.0689-.1976.0479-.0531.118-.079.2127-.079.0934 0 .1647.0259.2126.079.0492.0531.0738.1198.0738.1976s-.0246.1408-.0738.1927c-.0479.0506-.1192.0766-.2126.0766-.0935 0-.1648-.0247-.2127-.0766-.0465-.0526-.0711-.1211-.0689-.1914z" />
		<path d="m5.80899 8.0501c0 1.17153-.59909 1.9851-1.63448 1.9851-1.03502 0-1.63448-.71584-1.63448-1.9851 0-1.20405.57214-2.0501 1.63448-2.0501 1.00844 0 1.63448.7158 1.63448 2.0501z" />
		<path d="m8.2581 18.9819.00199-.0358c.14215-2.5664.39475-7.1267-1.8548-7.7998-1.29244-.3868-3.00258-.4204-4.46148 0-2.251514.6487-1.9979104 5.22-1.855408 7.7888l.0026006.0468c.0645444 1.1641.7961374 1.494 1.2781974 1.494v-3.15c0-1.4024.01882-2.7265.29403-3.54.04765-.1409.12204-.1575.15041-.1196v15.3337c1.01 0 1.81598-.6172 1.90228-1.8568 0 0 .2646-6.7997.26744-6.8813.00283-.0815.07202-.1876.19119-.1876.11918 0 .1887.1061.19153.1876.00283.0816.26711 6.8813.26711 6.8813.08663 1.2446.89994 1.8568 1.90228 1.8568v-15.3337c.0454-.0442.11104-.0292.15041.1196.21851.8261.29439 2.1502.29439 3.54v3.15c.4817 0 1.21336-.3299 1.27783-1.494z" />
		<path d="m29.4609 8.0501c0 1.17153-.5991 1.9851-1.6345 1.9851-1.035 0-1.6345-.71584-1.6345-1.9851 0-1.20405.5721-2.0501 1.6345-2.0501 1.0084 0 1.6345.7158 1.6345 2.0501z" />
		<path d="m31.91 18.9819.002-.0358c.1421-2.5664.3947-7.1267-1.8548-7.7998-1.2925-.3868-3.0026-.4204-4.4615 0-2.2515.6487-1.9979 5.22-1.8554 7.7888l.0026.0468c.0645 1.1641.7961 1.494 1.2782 1.494v-3.15c0-1.4024.0188-2.7265.294-3.54.0477-.1409.122-.1575.1504-.1196v15.3337c1.01 0 1.816-.6172 1.9023-1.8568 0 0 .2646-6.7997.2674-6.8813.0029-.0815.0721-.1876.1912-.1876.1192 0 .1887.1061.1916.1876.0028.0816.2671 6.8813.2671 6.8813.0866 1.2446.8999 1.8568 1.9022 1.8568v-15.3337c.0454-.0442.1111-.0292.1505.1196.2185.8261.2943 2.1502.2943 3.54v3.15c.4817 0 1.2134-.3299 1.2779-1.494z" />
	</g>
</svg>
