<svg fill="currentColor" height="36" viewBox="0 0 26 36" width="26" xmlns="http://www.w3.org/2000/svg" focusable="false">
	<g fill="currentColor">
		<path d="m16.5901 12.8743c-3.7632-1.9692-8.48671-.4906-10.5829 3.2178l6.9595 4.0957 5.6653 5.8122c.6122-.598 1.1489-1.2976 1.5364-2.0728 1.9868-3.9716.3052-9.0208-3.5783-11.0529z" fill-opacity=".2" />
		<path d="m5.40238 7.65903c-.00336.26851-.00683.52951-.0103.77819l-.00578.4318c.00494.12446.16719.18247.2769.10527.33344-.22833.69367-.48193.99443-.76875.39291.15393.82723.25547 1.22603.34297.1321.03088.25883-.08282.21354-.19933-.15364-.34109-.32272-.71728-.49969-1.11126.24275-.35138.48014-.71354.67612-1.02844.06526-.10575-.01366-.25875-.14428-.26296-.38366-.00936-.83753.00749-1.25619.04024l-.30464-.3835c-.14324-.18026-.28237-.35527-.42371-.53357-.03951-.05007-.09458-.06832-.15164-.05756-.05801.01076-.10088.0482-.11738.10902-.0538.19705-.10687.39072-.1612.58902l-.14397.52646c-.39976.12398-.82581.27605-1.17582.42578-.11894.0524-.13064.22271-.02827.29617.3071.21852.67076.46557 1.03585.70045z" />
		<path d="m22.459 5.95137c-.4907-.13213-.9735-.13503-1.4296-.03134 1.2481.94566 1.7292 2.81623 1.0623 4.40037-.4205.9987-1.2045 1.6618-2.0845 1.888.3207.241.6816.4287 1.0797.5358 1.7368.4672 3.4655-.707 3.846-2.5863.3803-1.87927-.7371-3.73925-2.4739-4.20653z" />
		<path d="m2.14132 12.6207c.30148.0804.62402.1808.88955.2828.08989.0354.10478.1633.03134.2218-.22085.1743-.48331.3727-.74627.5615.019.3232.03749.632.05444.9118.00103.0939-.11812.1434-.20236.0884-.25577-.1609-.53312-.3402-.76681-.547-.28659.1288-.606056.2198-.899837.2988-.097577.0275-.195673-.054-.16589-.1435l.025432-.0651c.095395-.2443.199449-.5109.307388-.7886-.193115-.2569-.382123-.5227-.538779-.7535-.052381-.0774.001029-.1954.098108-.2028.285045-.0195.622992-.022.935788-.0106l.19483-.2729c.10701-.1498.21027-.2944.31517-.442.02773-.039.06831-.0549.11094-.0484s.07653.0329.09091.0785z" />
		<path d="m13.6385 15.5688.0004.0061.3639 5.3575.0019.029c.0362.5314-.319.9953-.7937 1.0358-.2007.0172-.3914-.0447-.5463-.1617l-3.44313-2.596-.00441-.0033c-.21774-.1642-.27548-.4946-.12896-.7385.12825-.2138.37088-.2895.57515-.195l2.64465 1.2225.2346-3.9507c.0201-.339.2821-.5956.5847-.5731.2762.0209.4911.2669.5112.5674z" />
		<path clip-rule="evenodd" d="m14.7168 10.2587c-5.39904-1.15694-10.71345 2.2817-11.87084 7.6812-1.15696 5.3995 2.28175 10.7138 7.68084 11.8707 5.3997 1.157 10.714-2.2813 11.871-7.6807 1.1574-5.4-2.2813-10.7138-7.681-11.8712zm5.3435 11.3699c-.8787 4.1012-4.9308 6.7229-9.0321 5.8442-4.10133-.8791-6.72311-4.9308-5.8444-9.0321.87871-4.1012 4.9309-6.7229 9.0322-5.8442 4.1013.8786 6.723 4.9308 5.8443 9.0321z" fill-rule="evenodd" />
	</g>
</svg>
