<svg focusable="false" width="36" height="36" viewBox="0 0 36 36" fill="currentColor" xmlns="http://www.w3.org/2000/svg">
<path d="M21.5963 13.4051C17.6123 11.3668 12.5797 13.0109 10.5413 16.9949C9.93744 18.1748 9.64293 19.4999 9.64386 20.7424L17.8785 20.7405L21.9739 27.8607C23.2757 27.1057 24.5326 25.9281 25.2673 24.4917C27.3061 20.5082 25.5803 15.4435 21.5963 13.4051Z" fill-opacity="0.25"/>
<path d="M10.1767 7.20791C10.1742 7.41862 10.1716 7.62467 10.169 7.82367L10.1614 8.40729C10.1661 8.53066 10.3205 8.58817 10.4249 8.51164C10.7421 8.28531 11.0849 8.03393 11.371 7.74962C11.7448 7.90221 12.1581 8.00286 12.5375 8.08959C12.6632 8.1202 12.7837 8.00749 12.7406 7.89201C12.5945 7.5539 12.4336 7.18101 12.2652 6.7905C12.4962 6.44219 12.722 6.08321 12.9085 5.77107C12.9706 5.66626 12.8955 5.51459 12.7712 5.51042C12.4062 5.50114 11.9744 5.51784 11.576 5.55031L11.1801 5.03112C11.0807 4.90068 10.9825 4.7719 10.8831 4.64127C10.8455 4.59164 10.7931 4.57355 10.7389 4.58422C10.6837 4.59489 10.6429 4.63199 10.6271 4.69229C10.5843 4.85555 10.5421 5.01648 10.4991 5.17969L10.3367 5.79797C9.95645 5.92088 9.55108 6.07161 9.21807 6.22003C9.10492 6.27197 9.09377 6.44079 9.19118 6.51361C9.48337 6.7302 9.82935 6.97509 10.1767 7.20791Z"/>
<path d="M29.0217 5.61292C28.4837 5.48584 27.9545 5.48306 27.4545 5.58277C28.8227 6.49228 29.3501 8.29134 28.6191 9.81491C28.1581 10.7754 27.2987 11.4131 26.334 11.6307C26.6855 11.8626 27.0812 12.043 27.5176 12.1459C29.4215 12.5954 31.3165 11.466 31.7335 9.6586C32.1505 7.8512 30.9256 6.06234 29.0217 5.61292Z"/>
<path d="M6.02022 12.2007C6.29246 12.2753 6.58372 12.3686 6.82351 12.4632C6.90467 12.4961 6.91812 12.6148 6.85179 12.6691C6.65236 12.831 6.41537 13.0151 6.1779 13.1904C6.19505 13.4905 6.21175 13.7771 6.22707 14.0368C6.228 14.124 6.1204 14.1699 6.04434 14.1189C5.81335 13.9696 5.56291 13.8031 5.35187 13.6111C5.09308 13.7307 4.8046 13.8151 4.53933 13.8884C4.45121 13.9139 4.3626 13.8383 4.38952 13.7553L4.46451 13.5578C4.5359 13.3697 4.61185 13.1696 4.69004 12.9627C4.51566 12.7243 4.34499 12.4776 4.20354 12.2633C4.15621 12.1914 4.20445 12.0819 4.29212 12.075C4.54952 12.0569 4.8547 12.0546 5.13716 12.0652C5.29993 11.8306 5.44696 11.6195 5.5977 11.4015C5.62275 11.3654 5.65938 11.3505 5.69788 11.3566C5.73638 11.3626 5.76698 11.3872 5.77997 11.4294L6.02022 12.2007Z"/>
<path d="M18.5631 14.4343L18.5636 14.4413L19.025 20.5123L19.0274 20.5416C19.0714 21.1195 18.6387 21.6236 18.0608 21.6677C18.0149 21.6714 17.9639 21.6714 17.9194 21.669L12.537 21.3513L12.5305 21.3509C12.198 21.3314 11.9447 21.0462 11.9642 20.7136C11.9814 20.4214 12.204 20.1905 12.4832 20.152L16.8322 19.5504L17.1722 14.4413C17.1977 14.0572 17.5298 13.7664 17.9142 13.7919C18.2649 13.8151 18.5376 14.0939 18.5631 14.4343Z"/>
<path fill-rule="evenodd" clip-rule="evenodd" d="M20.1029 10.3186C14.3421 9.08397 8.67173 12.7526 7.43708 18.5138C6.20247 24.2751 9.87156 29.945 15.6324 31.1796C21.3936 32.4143 27.0635 28.7456 28.2981 22.9844C29.5328 17.2231 25.8641 11.5527 20.1029 10.3186ZM25.8043 22.4496C24.8665 26.8255 20.5435 29.6231 16.1671 28.6853C11.7912 27.7475 8.99404 23.4245 9.9314 19.0486C10.8692 14.6727 15.1922 11.8755 19.5686 12.8129C23.9445 13.7502 26.7421 18.0737 25.8043 22.4496Z"/>
</svg>
