<svg fill="currentColor" height="36" viewBox="0 0 22 36" width="22" xmlns="http://www.w3.org/2000/svg" focusable="false">
	<g fill="currentColor">
		<path d="m13.2719 13.4578c-.091-.053-.2003-.0747-.3076-.0609-.1073.0137-.2055.0619-.2764.1357-.0591.082-.0831.1805-.0677.2773.0155.0968.0694.1852.1518.2489l.292.2253h-.4593c-.2504 0-.4177.1879-.3761.4132 0 .1879.2088.3384.4177.3384h.0416l1.5867-.1131c.0857-.0018.1684-.0284.2361-.0756.0677-.0473.1168-.1129.14-.1871.0241-.0759.0208-.1568-.0092-.2309-.03-.0742-.0854-.138-.1581-.1823l-1.2105-.7889z" />
		<path d="m21.8149 17.5889c-.3109-1.0809-1.2858-1.5983-2.3489-1.7284 1.1072-1.9876 3.7671-7.26179.3099-7.82323-1.1083-1.20996-1.8174-2.11768-4.5645-2.03162-2.5706.08606-5.54039.13011-6.69175 4.27945-.53261 1.9445-.22271 2.9383.08824 5.056-1.15241-.5184-2.2607-1.0368-2.9698-1.3391l-.13236-.3893c-.17859-.4754-.35507-.9077-.75427-1.253-.39919-.3032-.88558-.3463-1.2396-.3032-.48849-.3893-1.06417-.5615-1.6409-.4324-.53156.1301-1.063117.5195-1.374068 1.168-1.063117 2.1607-.220608 3.2416.664978 3.76.84251.5184 1.72914.6485 2.34894.6915 1.10829.9508 6.33773 5.3163 7.84419 5.7476 1.0641.3032 3.6789-.0861 5.8944-.6475.0441.086-.0441.1731-.1765.2151-1.9949.9088-4.8313 1.5573-6.1161 1.211-.8866-.2592-3.10213-1.8585-5.09705-3.4147-.93075.3893-1.81738.8647-2.30482 1.3401-1.19653 1.34-1.86151 7.3048-1.86151 7.3048h17.90488s.3992-5.1872 1.9057-8.4718c.3992-.9077.7091-1.6853.3109-2.9393zm-18.21585-1.21c-.48639 0-1.2396-.1301-1.99387-.5614-.53156-.3033-1.15241-.9518-.3099-2.6371.17754-.3894.44332-.6486.79839-.6916.30885-.043.70804.0871 1.01899.3893l.17649.1722.26578-.0861s.39919-.1291.66497.0861c.22166.2161.35508.5194.48744.9077 0 .044.04412.0871.04412.1301l-1.15136 2.2908zm6.24949-.4754c0-.5184.04412-1.0808.26576-1.5992-.57566-.4754-.88661-1.168-.53154-1.9876.22061-.5194.75324-.9518 1.41824-.4324-.0442.3023-.0893.4744-.0893.5615-.0442.3893.5326.5184.5326.5184l.9307-2.3339c.8856.2592 4.4311.9508 6.6918.7787l.2206 2.0306c-.1765.4323-.3982.8216-.6198 1.2099-.3992.0441-.9308.1301-1.1073.1742-.086.0202-.1646.063-.2273.124-.0626.0609-.1068.1374-.1277.2213-.0188.0811-.0118.1658.0199.243s.0866.1432.1576.1893l.4874.3022c-1.4623.2152-3.5454.8207-5.0077 1.3401-.7984-.3032-1.9057-.8216-3.01396-1.3401z" />
	</g>
</svg>
