<svg fill="currentColor" height="36" viewBox="0 0 22 36" width="22" xmlns="http://www.w3.org/2000/svg" focusable="false">
	<g fill="currentColor">
		<path d="m10.018 6.65128c0 .94347-.47498 1.59871-1.29616 1.59871-.82089 0-1.29618-.57659-1.29618-1.59871 0-.97.45377-1.65128 1.29618-1.65128.79966 0 1.29616.57639 1.29616 1.65128z" />
		<path d="m13.3505 9.90836c0 1.17944-.6109 1.99844-1.6666 1.99844-1.0553 0-1.6665-.7206-1.6665-1.99844 0-1.2122.5834-2.06398 1.6665-2.06398 1.0282 0 1.6666.72064 1.6666 2.06398z" />
		<path d="m21.6367 17.7524c.1049.4383.2218.9262.327 1.5457.1827 1.076-.3608 1.6641-.8047 1.7264-.6712-2.3119-.8685-3.7621-.9971-4.7079-.0668-.4905-.115-.8453-.2014-1.1143-.0455-.1417-.159-.3605-.159-.3605.1995.8916.097 1.3472-.0041 1.7963-.0082.0366-.0164.0731-.0245.1098-.1137.5187-.1399 1.061-.0149 1.579.055.2277.1381.47.2333.7473.3121.9094.7534 2.1952.7534 4.5786 0 0-.5347-.1003-1.0978-.1591l-.0749 5.8812s-1.2145-.197-1.2749-1.5135c0 0-.1021-2.9166-.1476-4.343l-.0348.0055c-.041.0065-.0821.0129-.123.021-.0465.0091-.0915.0168-.1366.0245l-.0456.0079c-.0466 1.4604-.1465 4.3204-.1465 4.3204-.0809 1.2778-1.2713 1.4773-1.2713 1.4773l-.0778-5.6876c-.617-.0276-1.0953-.1307-1.0953-.1307 0-.2388.0057-.4623.014-.6787.5985-.2661 1.1125-.8981 1.172-1.9625.0965-1.7194.2311-4.1319-.2635-5.9638l.0044-.0226.0042-.0232c.0037-.0207.0075-.0414.0125-.0641 0 0-.0147.0292-.0333.067-.1402-.5066-.3299-.9669-.5827-1.3547.2495-.2767.5473-.4686.9015-.5882.5017-.1693.9799-.2472 1.5244-.2473h.0195c.5445.0001 1.0227.078 1.5244.2473 1.0534.3556 1.6196 1.3333 1.844 3.3677.0539.4884.1577.9216.2767 1.4188z" />
		<path d="m15.8476 20.9142.002-.0361c.1449-2.5838.4025-7.175-1.8912-7.8526-1.3177-.3894-3.0614-.4232-4.54887 0-2.29564.6531-2.03707 5.2554-1.89177 7.8415l.00265.0472c.06581 1.1719.81174 1.504 1.30325 1.504v-3.1713c0-1.4119.01918-2.7449.29979-3.564.04859-.1418.12443-.1585.15335-.1204v15.4375c1.0298 0 1.8516-.6214 1.9396-1.8694 0 0 .2698-6.8456.2726-6.9278.0029-.0821.0735-.1888.195-.1888s.1924.1067.1953.1888c.0029.0822.2723 6.9278.2723 6.9278.0883 1.253.9176 1.8694 1.9396 1.8694v-15.4375c.0463-.0444.1132-.0294.1533.1204.2228.8318.3002 2.1648.3002 3.564v3.1713c.4911 0 1.2371-.3321 1.3029-1.504z" />
		<path d="m14.6476 8.24999c.8212 0 1.2962-.65524 1.2962-1.59871 0-1.07489-.4965-1.65128-1.2962-1.65128-.8424 0-1.2962.68128-1.2962 1.65128 0 1.02212.4753 1.59871 1.2962 1.59871z" />
		<path d="m19.275 10.1085c0 1.1499-.5433 1.7986-1.4814 1.7986-.9385 0-1.4813-.7372-1.4813-1.7986 0-1.20925.5674-1.85771 1.4813-1.85771.9627 0 1.4814.76648 1.4814 1.85771z" />
		<path d="m8.06689 13.1597c-.12425-.0725-.25546-.1331-.39693-.1756-1.1703-.3513-3.09912-.3513-4.22557 0-.56014.1747-.98095.6033-1.24393 1.2053-.69897 1.6-2.20046 6.5051-2.20046 6.5051.0929544.0726.25368.089.437626.0647.139876 1.5776.737824 8.3165.766334 8.5675.02678.2354.75171.1576.72901-.0949-.02381-.2653-.44563-6.8108-.58109-8.9157.14228-.1341.26142-.2949.33322-.4819.2942-.7665.61547-1.6373.83108-2.3031.06143-.1897.11813-.3678.17173-.5361.18975-.5961.34074-1.0703.52498-1.503.05051-.1186.09836-.1904.1501-.1397v14.0221c.87303 0 1.51501-.5791 1.59526-1.7198 0 0 .24842-6.239.25097-6.3144.00256-.0753.06511-.1737.18302-.1737.11792 0 .17321.0984.17614.1737l.24879 6.3257c.05862 1.1012.61842 1.7085 1.60833 1.7085v-7.0618c-.25005-.3303-.42192-.7734-.45507-1.3554l-.00292-.0514c-.13102-2.298-.34924-6.1258 1.09938-7.7461z" />
		<path d="m4.10231 9.91977c.00157-.01858.00314-.03716.00457-.05584-.04786-.00866-.09595-.01653-.14341-.0243-.32125-.05258-.61368-.10045-.60997-.35611.00452-.31266.95591-.82011 1.87194-1.07531.00193-.00043.00378-.00096.00563-.00149.0019-.00054.00379-.00109.00578-.00152.50958-.14097.98313-.20422 1.22237-.10904.5351.21312.59546 1.18707.59546 1.81014 0 1.0615-.54284 1.7986-1.48135 1.7986-.93813 0-1.48134-.6487-1.48134-1.7986 0-.0644.00516-.12547.01032-.18653z" />
	</g>
</svg>
