<svg fill="currentColor" height="37" viewBox="0 0 21 37" width="21" xmlns="http://www.w3.org/2000/svg" focusable="false">
	<g fill="currentColor">
		<path d="m4.54969 8.01834c.80269 0 1.71809-.66956 1.48973-1.56263-.11467-.78132-.91638-1.22833-1.26039-2.34396-.11467-.11175-.11467-.11175-.22836-.11175 0 0-.11467 0-.11467.11175-.34303 1.11563-1.14572 1.56264-1.26039 2.34396-.22934.89307.57237 1.56263 1.37408 1.56263zm-.80073 2.90176c-.22934-.7813-.91638-1.22737-1.37506-2.34395 0-.11175-.11467-.11175-.11467-.11175-.11467 0-.11467 0-.11467.11175-.34303 1.11658-1.144741 1.56265-1.259412 2.34395-.22934.8931.572372 1.5626 1.374082 1.5626s1.60342-.6686 1.48973-1.5626zm3.20684 1.5626c.80171 0 1.60342-.6686 1.48875-1.5626-.22934-.7813-1.03105-1.22737-1.37506-2.34395 0-.11175-.11369-.11175-.11369-.11175-.11467 0-.11467 0-.22934.11175-.34303 1.11658-1.14572 1.56265-1.26039 2.34395-.22836.8931.57335 1.5626 1.48973 1.5626z" />
		<path d="m20.8133 18.399c.4587-4.2409-4.1232-5.6927-6.299-6.9201-1.0905-.5781-2.1254-1.2507-3.0922-2.00967-.4587-.33431-.8017-.33431-1.031 0-.3431.3343-.3431.89307.343 1.56267.688.7813 1.3751 1.3391 2.4061 1.8979.4577.3343.343 1.1156-.2293 1.1156-4.35162.1117-7.3301.1117-8.93353.1117-.4577 0-.91638.447-.91638.8931 0 .447.34303.8931.91638.8931h.80172c.34303-.3343.80171-.5578 1.26039-.5578.4577 0 .9154.2225 1.25941.446.34303-.3343.91638-.446 1.48973-.446.60674.002 1.18803.2378 1.61698.656.4289.4183.6707.9849.6725 1.5762v.2225c.2293-.1108.4587-.1108.687-.1108.2294 0 .4587 0 .6881.1108-.2294-.1108-.2294-.3343-.2294-.5578.0018-.5915.2437-1.1582.6729-1.5765.4291-.4182 1.0107-.6539 1.6176-.6557.6069.0018 1.1884.2375 1.6176.6557.4291.4183.671.985.6728 1.5765v.2235c.4486.2157.826.5497 1.0894.964.2633.4144.4021.8925.4004 1.38 0 .5578-.2294 1.1165-.4587 1.4518-.4577-.5588-.8017-1.1175-1.1457-1.5636-.5724-.8931-1.1448-1.7861-1.8328-3.1253-.2283-.5578-.5724-.6695-.9154-.5578-.343.1118-.5724.6686-.343 1.5627.2283 1.0048.686 1.7861 1.2594 2.79.343.447-.2293 1.1166-.8017.893-1.0311-.5578-1.2604-.5578-2.2915-1.1165l-5.61193-2.7891c-.4577-.2244-1.03007 0-1.14474.4451-.22934.447 0 1.0048.34303 1.2283 0 0 5.61194 2.7901 5.72664 2.9018v.3343c0 .1127-.1137.3353-.343.3353 0 0-.1147 0-.2294-.1108l-6.64299-3.1262c-.45771-.2226-1.03008 0-1.14475.447-.22934.446 0 1.0048.34303 1.2273l6.64303 3.238c.22934 0 .34298.2226.22934.3343-.11467.1118-.22934.2235-.45868.1118l-5.72664-2.791c-.4577-.2225-1.03008 0-1.14475.447-.22934.4461 0 1.0039.34303 1.2274l6.3 3.1253c.22836.1117.22836.2235.22836.3343 0 .1127-.22836.2244-.34303.1127l-4.23789-2.0097c-.34303-.2235-.91638 0-1.03105.3343-.22836.3353 0 .8941.34303 1.0058 0 0 3.89486 2.0087 4.92591 2.5665 1.37405.6696 3.20685 1.5627 5.15325 1.7862 1.9475.3343 3.3225-.1118 4.6966-2.2322 1.6034-2.344.6861-4.6879-.5733-6.4741 1.375-.5578 2.1758-1.5626 2.4051-3.7948z" />
	</g>
</svg>
