<svg fill="currentColor" height="36" viewBox="0 0 26 36" width="26" xmlns="http://www.w3.org/2000/svg" focusable="false">
	<path clip-rule="evenodd" d="m13.1227 5.13585 11.8336 11.32675c.2082.2104.3334.4633.3334.7576v.7576c.0026.0671-.0086.1341-.0328.1966-.0243.0626-.061.1194-.108.1669-.0471.0475-.1033.0846-.1652.1091s-.1281.0358-.1945.0332h-2v10.5256h-19.99971v-10.5256h-1.999971c-.291278 0-.49948-.2529-.49948-.5058v-.7576c0-.2943.124101-.5472.332303-.7576l11.833658-11.32675c.1672-.16893.4585-.16893.6667 0zm1.5805 17.98765c.1518-.1544.3036-.3088.3036-.4643-.1518-.4633 0-.7711 0-.7711l.7589-.1554c.3036 0 .3036-.3089.3036-.4633l-.7589-1.8541c0-.0772.0379-.193.0759-.3088.0379-.1159.0759-.2317.0759-.3089.1518-.9276 0-1.8541 0-1.8541.6071-.6177.6071-1.3908.1518-2.0085-.6072-.7721-3.1856-1.5453-5.4625-1.2364-2.27589.6187-2.57948 2.7816-2.57948 3.8636 0 .562.1243 1.2257.25223 1.9088.18821 1.005.38429 2.052.20417 2.8794-.15281.6187-1.51792 3.3993-1.51792 3.3993h5.1589v-.7731l-1.0626-1.2354v-.1544s1.6687.9265 2.2759 1.2354c.6072.3088.9108 0 1.0615-.4633.0909-.185.1819-.2034.2728-.2218.0609-.0124.1217-.0247.1826-.0871.3036-.1544.1518-.6176 0-.7721l-.1518-.1544c.1012.103.2024.0686.3036.0343.0506-.0171.1012-.0343.1518-.0343zm1.0625.1544c-.3035 0-.4553.1545-.4553.4633s.3036.4633.4553.4633c.3026 0 .4544-.1545.4544-.4633s-.1508-.4633-.4544-.4633zm.6062 1.5443c-.3036 0-.4554.1554-.4554.4632v.0011c0 .3078.1518.6177.4554.4632.3036 0 .4554-.1544.4554-.4632 0-.3089-.1518-.4643-.4554-.4643zm0 2.1629c0 .3099.1518.4633.4554.4633s.6071-.1534.4553-.4633c0-.3078-.1517-.4633-.4553-.4633s-.4554.1545-.4554.4633zm1.3661-4.3259c-.3036 0-.4554.1544-.4554.4643 0 .3078.1518.4633.4554.4633s.4554-.1544.4554-.4633c0-.3088-.1518-.4643-.4554-.4643zm0 2.163c0 .3088.1518.4643.4544.4643.3036 0 .4554-.1545.4554-.4643 0-.3078-.1518-.4633-.4544-.4633-.3036 0-.4554.1544-.4554.4633zm1.3651-2.163c0 .3089.1518.4643.4554.4643s.4554-.3088.4554-.4643c0-.3078-.1518-.4633-.4554-.4633s-.4554.1545-.4554.4633z" fill="currentColor" fill-rule="evenodd" />
</svg>
