<svg fill="currentColor" height="36" viewBox="0 0 26 36" width="26" xmlns="http://www.w3.org/2000/svg" focusable="false">
	<path d="m24.9563 16.4534-11.8336-11.3267c-.2082-.16893-.4995-.16893-.6667 0l-11.833658 11.3267c-.208202.2104-.332303.4633-.332303.7576v.7576c0 .2529.208202.5058.49948.5058h1.999971v10.5256h19.99971v-10.5256h2c.0664.0026.1326-.0087.1945-.0332.0619-.0244.1181-.0616.1652-.1091.047-.0475.0837-.1043.108-.1669.0242-.0625.0354-.1294.0328-.1966v-.7576c0-.2943-.1252-.5472-.3334-.7576zm-9.4583-4.1269c.7077 0 1.1662.4633 1.1662 1.3473 0 .7587-.4164 1.3059-1.1662 1.3059-.7507 0-1.1671-.4633-1.1671-1.3059 0-.799.4164-1.3473 1.1671-1.3473zm-5.3332-.3783c.7076 0 1.1661.4633 1.1661 1.3473 0 .7576-.4164 1.3059-1.1661 1.3059-.75079 0-1.1672-.4643-1.1672-1.3059 0-.8001.41641-1.3473 1.1672-1.3473zm7.6665 9.2623c-.7507-2.4418-.7087-3.4947-.8759-4.042l-.1241-.2518c.1662.6737.0411.968-.042 1.3048-.0831.3793-.1662.7151-.0831 1.0944.1662.6737.7077 1.5163.7077 3.6637 0 0-.2082-.085-.6246-.1264h-.0831v4.4627s-1.042-.169-1.0831-1.137v-3.2418c-.1251 0-.2923.0415-.4174.0415v3.2428c-.0831.968-1.083 1.137-1.083 1.137v-4.042c.2502 0 .7497-.1689.7497-.7161 0-1.3059.041-3.4098-.7077-3.7051-.5425-.2104-2-.2104-2.4584 0-.7918.3793-.8339 2.4417-.7508 3.7051.0421.5897.5005.7151.7508.7151v4.0005c-.7077 0-1.2082-.4208-1.2923-1.2209 0 0-.1662-4.842-.1662-4.8845 0-.0415-.083-.1265-.1671-.1265-.08209 0-.16619.085-.16619.1265 0 .0425-.16717 4.8845-.16717 4.8845.04205.8001-.41641 1.2209-1.12512 1.2209v-10.1463c0-.0425-.16615 0-.24922.1254-.16718.2954-.16718.6736-.16718 1.0105v3.1154c-.33333 0-.91691-.2104-.95793-.968-.08308-1.6842-.29128-4.7571 1.33331-5.1789 1.04101-.2943 2.2912-.2529 3.2082 0 .2912.085.5415.2529.7497.5058-.4164.2104-.6667.6322-.6667 1.2208 0 .8001.4164 1.2634 1.1672 1.2634.7497 0 1.1661-.5057 1.1661-1.2644 0-.4622-.1251-.799-.3743-1.0519.1661-.1679.3743-.2529.5825-.3369.3635-.1174.7436-.1741 1.1251-.1679.4165 0 .7508.0415 1.1252.1679.7497.2529 1.1671.9266 1.3333 2.3164.083.6311.2923 1.1369.4584 2.0624.1252.7586-.2913 1.1794-.6256 1.2209z" fill="currentColor" />
</svg>
