<svg fill="currentColor" height="36" viewBox="0 0 21 36" width="21" xmlns="http://www.w3.org/2000/svg" focusable="false">
	<path d="m19.3452 24.0104c-.5093-.513-1.3997-1.0249-2.4182-1.4083-.6362-.256-2.6722-1.0239-2.7993-1.1524 0-.3834-.128-.7668-.128-1.1513.6362-.5119 1.1455-1.0238 2.0369-1.6632.126-.1285.2541-.3844.126-.6404l-.2541-.5108c0-.1286.1281-.512.1281-.6405v-.3834c.3812-.5119.6363-1.2798.6363-2.1762 0-.3834 0-1.1513-.5092-1.7906.5092-2.81558-1.1456-5.50262-3.8178-6.39902-.3822-.3834-.7644-.51084-1.2726-.51084 0-.12852.126-.12852.2541-.12852.6363-.12744 1.5267 0 2.163.12852.1281-.25596.3822-1.02384.3822-1.40832 0-1.27872-1.0185-2.17512-2.2911-2.17512-1.0185 0-1.6548.51192-2.2911 1.2798-.76335 1.02384-1.2726.3834-.76335-.38448 0 0-1.5267.12852-1.5267 1.2798 0 .8964.8904 1.6632 1.2726 1.91916-2.2911.8964-3.81885 3.456-3.3096 6.14302-.50925.6394-.50925 1.4073-.50925 1.7907 0 .8964.25515 1.6632.6363 2.1762v.3834c.1281.2559.1281.5119.1281.6393l-.25515.5119c-.126.256 0 .512.12705.6405.89145.7668 1.4007 1.2798 2.037 1.6632 0 .3845-.12705.7679-.12705 1.1523-.12705 0-2.54625 1.1513-2.80035 1.1513-1.0185.3834-1.9089.8964-2.41815 1.4073-.89145.8964-1.52775 3.7108-1.78185 5.2466h21c-.1271-1.2798-.7634-4.0943-1.6548-4.9896zm-13.6185-9.9824c0-.256 0-.8954.25515-1.0228.12705-.1285.3822 0 .50925.1274 0-.3834 0-1.4072.3822-2.431 1.02498-.91161 2.33576-1.41139 3.6908-1.40728 1.3996 0 2.6722.51084 3.6907 1.53468v.1285c.127.256.1271.6394.1271.8964.127.5109.127 1.0228.127 1.4073.1271-.1286.3822-.256.5092-.1286.3822 0 .5093.3845.5093.8964v.2549c-1.6548 0-2.6733-.1274-3.0555-.3834-.5082-.3834-.8904-.8964-1.7808-.8964-1.0185 0-1.39965.513-1.9089.8964-.25515.256-1.27365.3834-3.0555.5119zm.3822 3.8394c.12705-.1286.12705-.256.12705-.3834l2.54625.6393s.126-.1285 0-.1285l-2.6733-1.5347c0-.3845-.12705-.6404-.12705-1.0238 2.163 0 2.9274-.256 3.43665-.6405.5082-.3834.6363-.6393 1.1445-.6393.3822 0 .6373.2559 1.1455.6393.5093.3845 1.2737.6405 3.4367.6405 0 .3834 0 .6393-.1271 1.0238l-2.6722 1.5347c-.1281.1285-.1281.1285 0 .1285l2.5452-.6393c0 .1274.127.1274.127.3834-.5092.3834-.7633.6393-1.1445 1.0238-1.0185 1.0238-1.7829 1.4072-3.1825 1.4072-1.52775 0-2.163-.3834-3.1815-1.2798-.50207-.3361-.97118-.7217-1.4007-1.1512zm4.5822 8.1896s-4.2-.1285-5.2185-2.687c1.6548-.6405 2.80035-.8964 2.80035-1.7918 0-.1285 0-.3834.12705-.6404.6363.257 1.2726.3845 2.2911.3845.8904 0 1.6548-.1275 2.2911-.3834v.6393c.126.8964 1.1445 1.0239 2.7993 1.7918-.8904 2.5596-5.0904 2.687-5.0904 2.687z" fill="currentColor" />
</svg>
