<svg width="22" height="36" viewBox="0 0 22 36" fill="currentColor" xmlns="http://www.w3.org/2000/svg" focusable="false">
	<path d="M13.2719 13.4578C13.1809 13.4048 13.0716 13.3831 12.9643 13.3969C12.857 13.4106 12.7588 13.4588 12.6879 13.5326C12.6288 13.6146 12.6048 13.7131 12.6202 13.8099C12.6357 13.9067 12.6896 13.9951 12.772 14.0588L13.064 14.2841H12.6047C12.3543 14.2841 12.187 14.472 12.2286 14.6973C12.2286 14.8852 12.4374 15.0357 12.6463 15.0357H12.6879L14.2746 14.9226C14.3603 14.9208 14.443 14.8942 14.5107 14.847C14.5784 14.7997 14.6275 14.7341 14.6507 14.6599C14.6748 14.584 14.6715 14.5031 14.6415 14.429C14.6115 14.3548 14.5561 14.291 14.4834 14.2467L13.2729 13.4578H13.2719Z" fill="currentColor" />
	<path d="M21.8149 17.5889C21.504 16.508 20.5291 15.9906 19.466 15.8605C20.5732 13.8729 23.2331 8.59871 19.7759 8.03727C18.6676 6.82731 17.9585 5.91959 15.2114 6.00565C12.6408 6.09171 9.67101 6.13576 8.51965 10.2851C7.98704 12.2296 8.29694 13.2234 8.60789 15.3411C7.45548 14.8227 6.34719 14.3043 5.63809 14.002L5.50573 13.6127C5.32714 13.1373 5.15066 12.705 4.75146 12.3597C4.35227 12.0565 3.86588 12.0134 3.51186 12.0565C3.02337 11.6672 2.44769 11.495 1.87096 11.6241C1.3394 11.7542 0.807843 12.1436 0.496892 12.7921C-0.566225 14.9528 0.276284 16.0337 1.16187 16.5521C2.00438 17.0705 2.89101 17.2006 3.51081 17.2436C4.6191 18.1944 9.84854 22.5599 11.355 22.9912C12.4191 23.2944 15.0339 22.9051 17.2494 22.3437C17.2935 22.4297 17.2053 22.5168 17.0729 22.5588C15.078 23.4676 12.2416 24.1161 10.9568 23.7698C10.0702 23.5106 7.85467 21.9113 5.85975 20.3551C4.929 20.7444 4.04237 21.2198 3.55493 21.6952C2.3584 23.0352 1.69342 29 1.69342 29H19.5983C19.5983 29 19.9975 23.8128 21.504 20.5282C21.9032 19.6205 22.2131 18.8429 21.8149 17.5889ZM3.59905 16.3789C3.11266 16.3789 2.35945 16.2488 1.60518 15.8175C1.07362 15.5142 0.45277 14.8657 1.29528 13.1804C1.47282 12.791 1.7386 12.5318 2.09367 12.4888C2.40252 12.4458 2.80171 12.5759 3.11266 12.8781L3.28915 13.0503L3.55493 12.9642C3.55493 12.9642 3.95412 12.8351 4.2199 13.0503C4.44156 13.2664 4.57498 13.5697 4.70734 13.958C4.70734 14.002 4.75146 14.0451 4.75146 14.0881L3.6001 16.3789H3.59905ZM9.84854 15.9035C9.84854 15.3851 9.89266 14.8227 10.1143 14.3043C9.53864 13.8289 9.22769 13.1363 9.58276 12.3167C9.80337 11.7973 10.336 11.3649 11.001 11.8843C10.9568 12.1866 10.9117 12.3587 10.9117 12.4458C10.8675 12.8351 11.4443 12.9642 11.4443 12.9642L12.375 10.6303C13.2606 10.8895 16.8061 11.5811 19.0668 11.409L19.2874 13.4396C19.1109 13.8719 18.8892 14.2612 18.6676 14.6495C18.2684 14.6936 17.7368 14.7796 17.5603 14.8237C17.4743 14.8439 17.3957 14.8867 17.333 14.9477C17.2704 15.0086 17.2262 15.0851 17.2053 15.169C17.1865 15.2501 17.1935 15.3348 17.2252 15.412C17.2569 15.4892 17.3118 15.5552 17.3828 15.6013L17.8702 15.9035C16.4079 16.1187 14.3248 16.7242 12.8625 17.2436C12.0641 16.9404 10.9568 16.422 9.84854 15.9035Z" fill="currentColor" />
</svg>
