<svg width="26" height="36" viewBox="0 0 26 36" fill="currentColor" xmlns="http://www.w3.org/2000/svg" focusable="false">
	<path d="M17.2238 22.799C17.0746 22.9132 16.9259 23.0268 16.8802 23.231C16.846 23.3853 16.8987 23.5685 16.9586 23.7767C17.0873 24.224 17.2493 24.787 16.6541 25.4287C16.2288 25.8883 15.3621 26.1525 14.35 25.9993C13.0579 25.8038 9.71474 25.117 9.71474 25.117C9.70397 25.1434 9.67167 25.228 9.77934 25.3019C9.88701 25.3759 12.2127 26.48 12.2127 26.48V29H3.01761C3.01761 29 3.85744 25.4446 3.78207 24.3246C3.67762 22.7308 2.71274 20.8101 1.80874 19.0106C1.26838 17.9349 0.749762 16.9025 0.449664 16.0092C-0.239429 13.9594 -0.686263 9.87562 3.42138 7.68319C7.31368 5.60697 12.6057 5.70207 14.07 6.62659C15.3567 7.44017 15.7766 8.86657 14.9206 10.4673C14.9206 10.4673 15.6582 12.1631 15.9273 13.6952C15.9519 13.8328 15.9372 14.0463 15.9217 14.2721C15.9032 14.5405 15.8835 14.8261 15.9273 15.0212L18.4953 17.8582C18.7483 18.2333 18.6406 18.7457 18.253 18.9888L16.9018 19.6914C16.9018 19.6914 16.891 20.1933 17.3863 20.505C17.5639 20.6159 17.6016 20.8484 17.5639 21.0597C17.5101 21.345 17.2894 21.5774 17.1117 21.6672C17.2678 21.6989 17.537 21.7887 17.5801 22.1057C17.6297 22.4887 17.4261 22.6444 17.2238 22.799Z" fill="currentColor" />
	<path d="M22.6472 23.4369C22.6472 23.4369 25.6458 26.4007 25.8504 26.6014C26.0496 26.7969 26.0119 26.9131 25.9527 26.9712C25.9497 26.9741 25.9467 26.9771 25.9436 26.9803C25.8884 27.0361 25.7936 27.1321 25.5543 26.8973C25.3013 26.649 22.2111 23.6007 22.2111 23.6007C22.1817 23.6115 22.1566 23.6228 22.1337 23.633C21.989 23.698 21.9368 23.7215 21.4951 23.3154C21.2582 23.0935 19.4978 21.3713 19.2825 21.1547C19.0187 20.8958 18.7495 20.5947 19.1102 20.2407C19.4632 19.8995 19.7594 20.1907 19.9788 20.4063C19.9836 20.411 19.9884 20.4157 19.9931 20.4203C20.1923 20.6158 21.9688 22.3645 22.1788 22.5864C22.5494 22.9804 22.5404 23.0408 22.525 23.1429C22.5217 23.1653 22.518 23.1898 22.518 23.2203C22.4995 23.293 22.458 23.3531 22.4252 23.4008C22.4103 23.4225 22.3972 23.4415 22.3888 23.458C22.3726 23.4845 22.4641 23.5743 22.4964 23.5637C22.5557 23.5479 22.588 23.5214 22.6472 23.4369Z" fill="currentColor" />
</svg>
