<svg width="25" height="36" viewBox="0 0 25 36" fill="currentColor" xmlns="http://www.w3.org/2000/svg" focusable="false">
	<path fill-rule="evenodd" clip-rule="evenodd" d="M12.8326 5.13585L24.6663 16.4626C24.8745 16.673 24.9996 16.9259 24.9996 17.2202V17.9778C25.0022 18.0449 24.9911 18.1119 24.9668 18.1744C24.9426 18.237 24.9058 18.2938 24.8588 18.3413C24.8118 18.3888 24.7556 18.4259 24.6937 18.4504C24.6318 18.4749 24.5656 18.4862 24.4991 18.4836H22.4992V29.0092H2.49945V18.4836H0.49948C0.208202 18.4836 0 18.2307 0 17.9778V17.2202C0 16.9259 0.124101 16.673 0.332303 16.4626L12.166 5.13585C12.3332 4.96692 12.6244 4.96692 12.8326 5.13585ZM14.4132 23.1235C14.565 22.9691 14.7167 22.8147 14.7167 22.6592C14.565 22.1959 14.7167 21.8881 14.7167 21.8881L15.4757 21.7327C15.7793 21.7327 15.7793 21.4238 15.7793 21.2694L15.0203 19.4153C15.0203 19.3381 15.0583 19.2223 15.0962 19.1065C15.1342 18.9906 15.1721 18.8748 15.1721 18.7976C15.3239 17.87 15.1721 16.9435 15.1721 16.9435C15.7793 16.3258 15.7793 15.5527 15.3239 14.935C14.7167 14.1629 12.1383 13.3897 9.86143 13.6986C7.58557 14.3173 7.28198 16.4802 7.28198 17.5622C7.28198 18.1242 7.40628 18.7879 7.53421 19.471C7.72242 20.476 7.9185 21.523 7.73839 22.3504C7.58557 22.9691 6.22046 25.7497 6.22046 25.7497H11.3794V24.9766L10.3168 23.7412V23.5868C10.3168 23.5868 11.9855 24.5133 12.5927 24.8222C13.1998 25.131 13.5034 24.8222 13.6542 24.3589C13.7451 24.1739 13.836 24.1555 13.9269 24.1371C13.9878 24.1247 14.0487 24.1124 14.1096 24.05C14.4132 23.8956 14.2614 23.4324 14.1096 23.2779L13.9578 23.1235C14.059 23.2265 14.1602 23.1921 14.2614 23.1578C14.312 23.1407 14.3626 23.1235 14.4132 23.1235ZM15.4757 23.2779C15.1721 23.2779 15.0203 23.4324 15.0203 23.7412C15.0203 24.05 15.3239 24.2045 15.4757 24.2045C15.7783 24.2045 15.9301 24.05 15.9301 23.7412C15.9301 23.4324 15.7793 23.2779 15.4757 23.2779ZM16.0819 24.8222C15.7783 24.8222 15.6265 24.9776 15.6265 25.2854V25.2865C15.6265 25.5943 15.7783 25.9042 16.0819 25.7497C16.3854 25.7497 16.5372 25.5953 16.5372 25.2865C16.5372 24.9776 16.3854 24.8222 16.0819 24.8222ZM16.0819 26.9851C16.0819 27.295 16.2336 27.4484 16.5372 27.4484C16.8408 27.4484 17.1444 27.295 16.9926 26.9851C16.9926 26.6773 16.8408 26.5218 16.5372 26.5218C16.2336 26.5218 16.0819 26.6763 16.0819 26.9851ZM17.448 22.6592C17.1444 22.6592 16.9926 22.8136 16.9926 23.1235C16.9926 23.4313 17.1444 23.5868 17.448 23.5868C17.7516 23.5868 17.9034 23.4324 17.9034 23.1235C17.9034 22.8147 17.7516 22.6592 17.448 22.6592ZM17.448 24.8222C17.448 25.131 17.5998 25.2865 17.9023 25.2865C18.2059 25.2865 18.3577 25.132 18.3577 24.8222C18.3577 24.5144 18.2059 24.3589 17.9034 24.3589C17.5998 24.3589 17.448 24.5133 17.448 24.8222ZM18.8131 22.6592C18.8131 22.9681 18.9649 23.1235 19.2685 23.1235C19.5721 23.1235 19.7239 22.8147 19.7239 22.6592C19.7239 22.3514 19.5721 22.1959 19.2685 22.1959C18.9649 22.1959 18.8131 22.3504 18.8131 22.6592Z" fill="currentColor" />
</svg>
