<svg width="26" height="36" viewBox="0 0 26 36" fill="currentColor" xmlns="http://www.w3.org/2000/svg" focusable="false">
	<path d="M25.5203 16.4534L13.6866 5.1267C13.4784 4.95777 13.1872 4.95777 13.02 5.1267L1.18631 16.4534C0.978105 16.6638 0.854004 16.9167 0.854004 17.211V17.9686C0.854004 18.2215 1.06221 18.4744 1.35348 18.4744H3.35345V29H23.3532V18.4744H25.3531C25.4196 18.477 25.4858 18.4657 25.5477 18.4412C25.6096 18.4168 25.6658 18.3796 25.7128 18.3321C25.7598 18.2846 25.7966 18.2278 25.8208 18.1652C25.8451 18.1027 25.8562 18.0358 25.8536 17.9686V17.211C25.8536 16.9167 25.7285 16.6638 25.5203 16.4534ZM16.062 12.3265C16.7697 12.3265 17.2281 12.7898 17.2281 13.6738C17.2281 14.4325 16.8117 14.9797 16.062 14.9797C15.3112 14.9797 14.8948 14.5164 14.8948 13.6738C14.8948 12.8748 15.3112 12.3265 16.062 12.3265ZM10.7287 11.9482C11.4364 11.9482 11.8949 12.4115 11.8949 13.2955C11.8949 14.0531 11.4785 14.6014 10.7287 14.6014C9.97797 14.6014 9.56157 14.1371 9.56157 13.2955C9.56157 12.4954 9.97797 11.9482 10.7287 11.9482ZM18.3953 21.2105C17.6445 18.7687 17.6866 17.7158 17.5194 17.1685L17.3953 16.9167C17.5615 17.5904 17.4363 17.8847 17.3532 18.2215C17.2702 18.6008 17.1871 18.9366 17.2702 19.3159C17.4363 19.9896 17.9779 20.8322 17.9779 22.9796C17.9779 22.9796 17.7697 22.8946 17.3532 22.8532H17.2702V27.3159C17.2702 27.3159 16.2281 27.1469 16.1871 26.1789V22.9371C16.062 22.9371 15.8948 22.9786 15.7697 22.9786V26.2214C15.6866 27.1894 14.6866 27.3584 14.6866 27.3584V23.3164C14.9369 23.3164 15.4364 23.1475 15.4364 22.6003C15.4364 21.2944 15.4774 19.1905 14.7287 18.8952C14.1861 18.6848 12.7287 18.6848 12.2702 18.8952C11.4785 19.2745 11.4364 21.3369 11.5195 22.6003C11.5615 23.19 12.02 23.3154 12.2702 23.3154V27.3159C11.5626 27.3159 11.0621 26.8951 10.978 26.095C10.978 26.095 10.8118 21.253 10.8118 21.2105C10.8118 21.169 10.7287 21.084 10.6446 21.084C10.5626 21.084 10.4785 21.169 10.4785 21.2105C10.4785 21.253 10.3113 26.095 10.3113 26.095C10.3534 26.8951 9.8949 27.3159 9.18619 27.3159V17.1696C9.18619 17.1271 9.02004 17.1696 8.93696 17.295C8.76979 17.5904 8.76979 17.9686 8.76979 18.3055V21.4209C8.43646 21.4209 7.85288 21.2105 7.81185 20.4529C7.72878 18.7687 7.52057 15.6958 9.14516 15.274C10.1862 14.9797 11.4364 15.0211 12.3533 15.274C12.6446 15.359 12.8949 15.5269 13.1031 15.7798C12.6867 15.9902 12.4364 16.412 12.4364 17.0006C12.4364 17.8007 12.8528 18.264 13.6036 18.264C14.3533 18.264 14.7697 17.7583 14.7697 16.9996C14.7697 16.5374 14.6446 16.2006 14.3953 15.9477C14.5615 15.7798 14.7697 15.6948 14.9779 15.6108C15.3414 15.4934 15.7214 15.4367 16.103 15.4429C16.5194 15.4429 16.8538 15.4844 17.2281 15.6108C17.9779 15.8637 18.3953 16.5374 18.5614 17.9272C18.6445 18.5583 18.8537 19.0641 19.0199 19.9896C19.145 20.7482 18.7286 21.169 18.3943 21.2105H18.3953Z" fill="currentColor" />
</svg>
