<svg fill="currentColor" height="36" viewBox="0 0 28 36" width="28" xmlns="http://www.w3.org/2000/svg" focusable="false">
	<g fill="currentColor">
		<path d="m16.7244 13.4459-6-1.5412 3.2609 5.3247.5218-1.5411 1.9564 1.2608.7827-1.2619-1.9563-1.2608z" />
		<path d="m27.0291 24.7965-2.7391-4.4848-.5218-11.77058c0-.84092-.6518-1.54112-1.4345-1.54112h-16.95634c-.91372 0-1.56549.7002-1.56549 1.54112l-.52183 11.91128-2.739086 4.4837c-.16336.192-.256103.4413-.260915.7014v2.2413c0 .5606.390853 1.1212 1.043661 1.1212h24.9127c.5218 0 1.0436-.4199 1.0436-1.1212v-2.2425c0-.2791-.1309-.5594-.2609-.8398zm-16.6954.4199 1.0437-2.1017h4.9563l.9127 2.1017zm13.3035-4.764h-19.82429s0-.1407.12994-.1407c.6528-.1396 1.30457-.4199 1.30457-.4199l.39189-10.64936h16.04059l.3918 10.64936s.5219.1396 1.3046.4199c.2599-.1396.2609 0 .2609.1407z" />
	</g>
</svg>
