<svg fill="currentColor" height="36" viewBox="0 0 23 36" width="23" xmlns="http://www.w3.org/2000/svg" focusable="false">
	<g fill="currentColor">
		<path clip-rule="evenodd" d="m10.7488 11.8635-.1387-.1441-.5792-.2722c-.30461-.3399-.4688-.8609-.4688-1.53884 0-1.2122.5568-2.06398 1.5908-2.06398.9814 0 1.5907.72064 1.5907 2.06398 0 1.17944-.583 1.99844-1.5907 1.99844-.1435 0-.2783-.0146-.4041-.0433zm-5.69716-3.47334 1.68223 1.74684c-.00989 1.0449-.52667 1.7679-1.41387 1.7679-.89549 0-1.41401-.6487-1.41401-1.7986 0-.0644.00492-.12547.00985-.18653l.00436-.05584c-.04566-.00865-.09153-.01652-.13681-.02429l-.00008-.00001c-.30664-.05258-.58578-.10045-.58224-.35611.00431-.31266.91246-.82011 1.78685-1.07531l.00538-.00149.00551-.00152c.01766-.00512.03527-.01013.05283-.01504zm4.3562 4.52344 4.04286 4.1981v13.8883c-.9756 0-1.7671-.6164-1.8514-1.8694 0 0-.2572-6.8456-.26-6.9278-.0028-.0821-.0704-.1888-.1864-.1888s-.1833.1067-.1861.1888c-.0027.0822-.2603 6.9278-.2603 6.9278-.084 1.248-.86838 1.8694-1.85137 1.8694v-15.4375c-.02761-.0381-.10001-.0214-.14638.1204-.26785.8191-.28617 2.1521-.28617 3.564v3.1713c-.46916 0-1.18119-.3321-1.24401-1.504l-.00253-.0472c-.13869-2.5861-.38551-7.1884 1.80579-7.8415.13984-.0417.28205-.0789.42601-.1119zm4.42956 4.5998c.0325.5425.0462 1.1319.0462 1.7335v3.1713c.4688 0 1.1809-.3321 1.2436-1.504l.002-.0361c.0305-.5702.0663-1.2382.0799-1.9404zm1.2815-1.112-2.0308-2.1088-1.5037-1.5614c.6191.0313 1.2147.1318 1.7396.2943 1.133.3507 1.6139 1.7495 1.7949 3.3759zm.6074 3.0734c-.0176.5116-.0437.999-.0673 1.4407-.0568 1.0644-.5475 1.6964-1.1188 1.9625-.0079.2164-.0134.4399-.0134.6787 0 0 .4566.1031 1.0455.1307l.0744 5.6876s1.1362-.1995 1.2134-1.4773c0 0 .0954-2.86.1398-4.3204l.0436-.0079c.043-.0077.0861-.0154.1304-.0245.039-.008.0782-.0145.1173-.021h.0002l.0331-.0055c.0435 1.4264.1409 4.343.1409 4.343.0577 1.3165 1.217 1.5135 1.217 1.5135l.0714-5.8812c.4242.0464.8315.1186.9844.147zm3.8721 1.5781-3.8899-4.0393c-.0459-.7217-.1374-1.4267-.3011-2.0619l.0042-.0226.004-.0232c.0036-.0207.0072-.0414.012-.0641 0 0-.0141.0292-.0318.067-.1339-.5066-.3149-.9669-.5562-1.3547.2381-.2767.5224-.4686.8604-.5882.4789-.1693.9355-.2472 1.4552-.2473h.0186c.5197.0001.9763.078 1.4551.2473 1.0055.3556 1.546 1.3333 1.7602 3.3677.0515.4884.1505.9216.2641 1.4188v.0001c.1002.4382.2117.9262.3121 1.5456.1744 1.076-.3444 1.6641-.7681 1.7264-.6407-2.3119-.829-3.7621-.9518-4.7079-.0637-.4905-.1098-.8453-.1922-1.1143-.0434-.1417-.1518-.3605-.1518-.3605.1905.8916.0926 1.3472-.0039 1.7963-.0078.0366-.0157.0731-.0233.1098-.1086.5187-.1337 1.061-.0143 1.579.0525.2277.1319.47.2227.7473.1649.5034.3676 1.1222.5158 1.9787zm-11.27301-12.80291c.78386 0 1.23726-.65524 1.23726-1.59871 0-1.07489-.47394-1.65128-1.23726-1.65128-.80411 0-1.23726.68128-1.23726 1.65128 0 1.02212.45368 1.59871 1.23726 1.59871zm5.65641 0c.7839 0 1.2373-.65524 1.2373-1.59871 0-1.07489-.474-1.65128-1.2373-1.65128-.8041 0-1.2373.68128-1.2373 1.65128 0 1.02212.4537 1.59871 1.2373 1.59871zm3.003 3.65711c.8955 0 1.414-.6487 1.414-1.7986 0-1.09123-.495-1.85771-1.414-1.85771-.8724 0-1.414.64846-1.414 1.85771 0 1.0614.5182 1.7986 1.414 1.7986zm-9.28459 1.2526c-.1186-.0725-.24385-.1331-.37888-.1756-1.11711-.3513-2.95826-.3513-4.03351 0-.53467.1747-.93635.6033-1.18738 1.2053-.6672 1.6-2.10044 6.5051-2.10044 6.5051.0887292.0726.242149.089.417734.0647.133518 1.5776.704286 8.3165.731506 8.5675.02556.2354.71754.1576.69587-.0949-.02273-.2653-.42537-6.8108-.55468-8.9157.13581-.1341.24953-.2949.31808-.4819.28082-.7665.58748-1.6373.79329-2.3031.05864-.1897.11277-.3678.16393-.5361.18113-.5961.32525-1.0703.50112-1.503.04822-.1186.09389-.1904.14327-.1397v14.0221c.83335 0 1.44615-.5791 1.52275-1.7198 0 0 .23713-6.239.23957-6.3144.00244-.0753.06215-.1737.1747-.1737.11256 0 .16534.0984.16813.1737l.23748 6.3257c.05596 1.1012.59032 1.7085 1.53523 1.7085v-7.0618c-.23869-.3303-.40275-.7734-.43439-1.3554l-.00279-.0514c-.12506-2.298-.33336-6.1258 1.04941-7.7461z" fill-rule="evenodd" />
		<path d="m2.99438 6.19042-.82877.86823c-.09268.0971-.09268.2499 0 .347l19.47649 20.40395c.099.1037.2646.1037.3636 0l.8287-.8683c.0927-.0971.0927-.2499 0-.347l-19.47649-20.40388c-.09899-.1037-.26454-.1037-.36353 0z" />
	</g>
</svg>
