<svg width="21" height="36" viewBox="0 0 21 36" fill="currentColor" xmlns="http://www.w3.org/2000/svg" focusable="false">
	<path d="M4.39649 7.0347C5.19918 7.0347 6.11458 6.36514 5.88622 5.47206C5.77155 4.69075 4.96984 4.24373 4.62583 3.12811C4.51116 3.01636 4.51116 3.01636 4.39747 3.01636C4.39747 3.01636 4.2828 3.01636 4.2828 3.12811C3.93977 4.24373 3.13708 4.69075 3.02241 5.47206C2.79307 6.36514 3.59478 7.0347 4.39649 7.0347ZM3.59576 9.93646C3.36642 9.15515 2.67938 8.70909 2.2207 7.59251C2.2207 7.48076 2.10603 7.48076 2.10603 7.48076C1.99136 7.48076 1.99136 7.48076 1.99136 7.59251C1.64833 8.70909 0.84662 9.15515 0.73195 9.93646C0.50261 10.8295 1.30432 11.4991 2.10603 11.4991C2.90774 11.4991 3.70945 10.8305 3.59576 9.93646ZM6.8026 11.4991C7.60431 11.4991 8.40602 10.8305 8.29135 9.93646C8.06201 9.15515 7.2603 8.70909 6.91629 7.59251C6.91629 7.48076 6.8026 7.48076 6.8026 7.48076C6.68793 7.48076 6.68793 7.48076 6.57326 7.59251C6.23023 8.70909 5.42754 9.15515 5.31287 9.93646C5.08451 10.8295 5.88622 11.4991 6.8026 11.4991Z" fill="currentColor" />
	<path d="M20.6601 17.4153C21.1188 13.1744 16.5369 11.7226 14.3611 10.4952C13.2706 9.91715 12.2357 9.24455 11.2689 8.48558C10.8102 8.15128 10.4672 8.15128 10.2379 8.48558C9.89483 8.81989 9.89483 9.37865 10.5809 10.0482C11.2689 10.8295 11.956 11.3873 12.987 11.9461C13.4447 12.2804 13.33 13.0617 12.7577 13.0617C8.40608 13.1735 5.4276 13.1735 3.82418 13.1735C3.36648 13.1735 2.9078 13.6205 2.9078 14.0666C2.9078 14.5136 3.25083 14.9596 3.82418 14.9596H4.62589C4.96892 14.6253 5.4276 14.4018 5.88628 14.4018C6.34398 14.4018 6.80168 14.6244 7.14569 14.8479C7.48872 14.5136 8.06207 14.4018 8.63542 14.4018C9.24216 14.4038 9.82345 14.6397 10.2524 15.0579C10.6813 15.4761 10.9231 16.0427 10.9249 16.634V16.8566C11.1542 16.7458 11.3836 16.7458 11.6119 16.7458C11.8413 16.7458 12.0706 16.7458 12.3 16.8566C12.0706 16.7458 12.0706 16.5223 12.0706 16.2988C12.0724 15.7073 12.3143 15.1405 12.7435 14.7223C13.1726 14.3041 13.7542 14.0683 14.3611 14.0666C14.968 14.0683 15.5495 14.3041 15.9787 14.7223C16.4078 15.1405 16.6497 15.7073 16.6515 16.2988V16.5223C17.1001 16.7379 17.4775 17.0719 17.7409 17.4863C18.0043 17.9007 18.143 18.3788 18.1413 18.8662C18.1413 19.424 17.9119 19.9828 17.6826 20.3181C17.2249 19.7593 16.8809 19.2005 16.5369 18.7545C15.9645 17.8614 15.3921 16.9683 14.7041 15.6292C14.4758 15.0714 14.1317 14.9596 13.7887 15.0714C13.4457 15.1831 13.2163 15.74 13.4457 16.634C13.674 17.6388 14.1317 18.4202 14.7051 19.424C15.0481 19.871 14.4758 20.5406 13.9034 20.3171C12.8723 19.7593 12.643 19.7593 11.6119 19.2005L5.99997 16.4115C5.54227 16.187 4.9699 16.4115 4.85523 16.8566C4.62589 17.3036 4.85523 17.8614 5.19826 18.0849C5.19826 18.0849 10.8102 20.8749 10.9249 20.9867V21.321C10.9249 21.4337 10.8112 21.6562 10.5819 21.6562C10.5819 21.6562 10.4672 21.6562 10.3525 21.5454L3.70951 18.4192C3.25181 18.1967 2.67944 18.4192 2.56477 18.8662C2.33543 19.3123 2.56477 19.871 2.9078 20.0936L9.55082 23.3316C9.78016 23.3316 9.89385 23.5541 9.78016 23.6659C9.66549 23.7776 9.55082 23.8894 9.32148 23.7776L3.59484 20.9867C3.13714 20.7641 2.56477 20.9867 2.4501 21.4337C2.22076 21.8797 2.4501 22.4376 2.79313 22.6611L9.09312 25.7863C9.32148 25.8981 9.32148 26.0098 9.32148 26.1206C9.32148 26.2333 9.09312 26.3451 8.97845 26.2333L4.74056 24.2237C4.39753 24.0002 3.82418 24.2237 3.70951 24.558C3.48115 24.8933 3.70951 25.452 4.05254 25.5638C4.05254 25.5638 7.9474 27.5725 8.97845 28.1303C10.3525 28.7998 12.1853 29.6929 14.1317 29.9164C16.0792 30.2507 17.4542 29.8047 18.8283 27.6842C20.4317 25.3403 19.5144 22.9963 18.255 21.2102C19.63 20.6524 20.4308 19.6475 20.6601 17.4153Z" fill="currentColor" />
</svg>
