<svg width="21" height="36" viewBox="0 0 21 36" fill="currentColor" xmlns="http://www.w3.org/2000/svg" focusable="false">
	<path d="M19.3452 24.0104C18.8359 23.4974 17.9455 22.9855 16.927 22.6021C16.2907 22.3461 14.2548 21.5782 14.1277 21.4497C14.1277 21.0663 13.9996 20.6829 13.9996 20.2984C14.6359 19.7865 15.1452 19.2746 16.0367 18.6352C16.1627 18.5067 16.2907 18.2508 16.1626 17.9948L15.9085 17.484C15.9085 17.3554 16.0367 16.972 16.0367 16.8435V16.4601C16.4178 15.9482 16.6729 15.1803 16.6729 14.2839C16.6729 13.9005 16.6729 13.1326 16.1637 12.4933C16.6729 9.67772 15.0181 6.99068 12.3459 6.09428C11.9637 5.71088 11.5815 5.58344 11.0733 5.58344C11.0733 5.45492 11.1993 5.45492 11.3274 5.45492C11.9637 5.32748 12.8541 5.45492 13.4904 5.58344C13.6185 5.32748 13.8726 4.5596 13.8726 4.17512C13.8726 2.8964 12.8541 2 11.5815 2C10.563 2 9.9267 2.51192 9.2904 3.2798C8.52705 4.30364 8.0178 3.6632 8.52705 2.89532C8.52705 2.89532 7.00035 3.02384 7.00035 4.17512C7.00035 5.07152 7.89075 5.83832 8.27295 6.09428C5.98185 6.99068 4.4541 9.55028 4.96335 12.2373C4.4541 12.8767 4.4541 13.6446 4.4541 14.028C4.4541 14.9244 4.70925 15.6912 5.0904 16.2042V16.5876C5.2185 16.8435 5.2185 17.0995 5.2185 17.2269L4.96335 17.7388C4.83735 17.9948 4.96335 18.2508 5.0904 18.3793C5.98185 19.1461 6.4911 19.6591 7.1274 20.0425C7.1274 20.427 7.00035 20.8104 7.00035 21.1948C6.8733 21.1948 4.4541 22.3461 4.2 22.3461C3.1815 22.7295 2.2911 23.2425 1.78185 23.7534C0.8904 24.6498 0.2541 27.4642 0 29H21C20.8729 27.7202 20.2366 24.9057 19.3452 24.0104ZM5.7267 14.028C5.7267 13.772 5.7267 13.1326 5.98185 13.0052C6.1089 12.8767 6.36405 13.0052 6.4911 13.1326C6.4911 12.7492 6.4911 11.7254 6.8733 10.7016C7.89828 9.78999 9.20906 9.29021 10.5641 9.29432C11.9637 9.29432 13.2363 9.80516 14.2548 10.829V10.9575C14.3818 11.2135 14.3818 11.5969 14.3818 11.8539C14.5089 12.3648 14.5089 12.8767 14.5089 13.2612C14.636 13.1326 14.8911 13.0052 15.0181 13.1326C15.4003 13.1326 15.5274 13.5171 15.5274 14.029V14.2839C13.8726 14.2839 12.8541 14.1565 12.4719 13.9005C11.9637 13.5171 11.5815 13.0041 10.6911 13.0041C9.6726 13.0041 9.29145 13.5171 8.7822 13.9005C8.52705 14.1565 7.50855 14.2839 5.7267 14.4124V14.028V14.028ZM6.1089 17.8674C6.23595 17.7388 6.23595 17.6114 6.23595 17.484L8.7822 18.1233C8.7822 18.1233 8.9082 17.9948 8.7822 17.9948L6.1089 16.4601C6.1089 16.0756 5.98185 15.8197 5.98185 15.4363C8.14485 15.4363 8.90925 15.1803 9.4185 14.7958C9.9267 14.4124 10.0548 14.1565 10.563 14.1565C10.9452 14.1565 11.2003 14.4124 11.7085 14.7958C12.2178 15.1803 12.9822 15.4363 15.1452 15.4363C15.1452 15.8197 15.1452 16.0756 15.0181 16.4601L12.3459 17.9948C12.2178 18.1233 12.2178 18.1233 12.3459 18.1233L14.8911 17.484C14.8911 17.6114 15.0181 17.6114 15.0181 17.8674C14.5089 18.2508 14.2548 18.5067 13.8736 18.8912C12.8551 19.915 12.0907 20.2984 10.6911 20.2984C9.16335 20.2984 8.5281 19.915 7.5096 19.0186C7.00753 18.6825 6.53842 18.2969 6.1089 17.8674V17.8674ZM10.6911 26.057C10.6911 26.057 6.4911 25.9285 5.4726 23.37C7.1274 22.7295 8.27295 22.4736 8.27295 21.5782C8.27295 21.4497 8.27295 21.1948 8.4 20.9378C9.0363 21.1948 9.6726 21.3223 10.6911 21.3223C11.5815 21.3223 12.3459 21.1948 12.9822 20.9389V21.5782C13.1082 22.4746 14.1267 22.6021 15.7815 23.37C14.8911 25.9296 10.6911 26.057 10.6911 26.057Z" fill="currentColor" />
</svg>
