<svg width="12" height="36" viewBox="0 0 12 36" fill="currentColor" xmlns="http://www.w3.org/2000/svg" focusable="false">
	<path d="M11.4869 6H0.500077C-0.100766 6 -0.229518 6.9931 0.500077 7.2C0.886333 7.32414 1.40134 7.4069 1.74468 7.48966V7.65517V25.8621C1.74468 28.1379 3.67596 30 6.03641 30C8.39686 30 10.3281 28.1379 10.3281 25.8621V7.65517V7.53103C10.6715 7.44828 11.1436 7.32414 11.5727 7.24138C12.2165 6.9931 12.0878 6 11.4869 6ZM3.41845 7.65517H8.56853V14.2759H4.2768H3.41845V7.65517ZM6.98059 25.3655C6.5085 26.731 5.39265 27.6 4.5343 27.3517C3.67596 27.0621 3.37554 25.7379 3.89055 24.331C4.23388 23.3793 4.87764 22.6759 5.5214 22.4276L7.4956 16.8828L8.61145 18.331L6.98059 22.9241C7.28101 23.5034 7.32393 24.4138 6.98059 25.3655Z" fill="currentColor" />
</svg>
