<svg width="27" height="37" viewBox="0 0 27 37" fill="none" xmlns="http://www.w3.org/2000/svg">
<path fill-rule="evenodd" clip-rule="evenodd" d="M21.8213 23.1182C22.9541 23.6095 24.033 24.2101 24.6264 24.8106C26.1908 26.5031 27 32.8908 27 33H6.60891C6.63588 33 6.66285 32.9864 6.68982 32.9727C6.7168 32.9591 6.74377 32.9454 6.77074 32.9454C7.36413 32.6724 7.31019 32.3449 7.09441 31.9081C6.93257 31.4713 6.66285 31.3075 6.06946 31.4713C5.79974 31.5259 5.53003 31.6351 5.26032 31.7443C4.77481 30.2156 3.91167 26.7215 5.79974 25.8479C6.28524 25.6296 6.7168 25.6296 7.2023 25.8479C8.49697 26.4485 9.46797 28.5231 9.95348 29.8334C9.76916 29.9081 9.58484 30.0082 9.41773 30.0989C9.34031 30.141 9.26657 30.181 9.19825 30.2156C8.6588 30.5432 8.60486 30.8162 8.76669 31.2529C8.87458 31.6897 9.09036 32.0173 9.68375 31.7989C10.1693 31.6351 10.8705 31.2529 11.2481 30.9254L11.356 30.8162C11.356 30.7889 11.3695 30.7752 11.383 30.7616C11.3965 30.7479 11.41 30.7343 11.41 30.707V30.6524C11.4639 30.5432 11.5179 30.3794 11.4639 30.2156C11.4616 30.2084 11.457 30.1933 11.4502 30.1708C11.3031 29.6832 10.1141 25.7429 7.74174 24.6468C7.2023 24.3739 6.66285 24.3193 6.1234 24.3739C6.1234 23.2819 6.66285 22.6268 7.6878 22.2446C7.90066 22.1728 8.10316 22.1115 8.28619 22.0561C8.52062 21.9851 8.72312 21.9238 8.87458 21.8624C8.96919 21.3837 9.02232 20.9469 9.07034 20.5522C9.07708 20.4967 9.08372 20.4421 9.09036 20.3884C7.95752 19.0781 7.31019 17.7678 7.09441 16.4029C6.33918 15.7477 5.96157 14.7104 5.96157 13.4001C5.96157 12.9633 5.96157 11.926 6.60891 11.2163C6.50102 9.36 6.39313 6.46642 7.31019 5.4291C8.22725 4.33718 9.95348 3.68203 11.5718 3.29986C13.8914 2.69931 14.8085 3.08148 16.1032 3.73663C18.1531 3.29986 19.178 3.95501 20.0411 5.3745C20.7424 6.52102 20.6345 9.36 20.4727 11.1617C21.12 11.8714 21.12 12.9633 21.12 13.3455C21.12 14.6558 20.6885 15.7477 19.9872 16.4029C19.8254 17.6586 19.232 18.8597 18.261 20.0608C18.3149 20.6613 18.4228 21.3711 18.5307 21.9716C19.0701 22.0808 20.0411 22.4084 20.4727 23.2819C20.7964 23.9371 20.7424 24.8106 20.4187 25.8479H20.2569C18.9083 25.8479 17.7755 26.9945 17.7755 28.3594C17.7755 29.7243 18.9083 30.8708 20.2569 30.8708C21.6055 30.8708 22.7384 29.7243 22.7384 28.3594C22.7384 27.4858 22.3068 26.7215 21.6595 26.2847C22.0371 25.0836 22.091 23.9917 21.8213 23.1182ZM10.385 22.736C10.1693 24.6468 12.2731 26.6669 13.5138 27.6496C14.8624 26.6669 17.1281 24.5922 17.0742 22.736C17.0742 22.463 16.9123 21.4257 16.9123 21.4257C16.9123 21.4257 15.6716 22.3538 13.9454 21.917C12.9204 21.6441 12.327 20.9889 12.0034 20.4976C12.4349 20.6613 12.9744 20.8251 13.5678 20.8251C14.3769 20.8251 15.1322 20.6067 15.5637 20.2246C17.0742 18.9143 18.4228 17.3856 18.4228 15.3655C19.2859 15.0926 19.5017 14.0006 19.5017 13.2909C19.5017 12.5812 19.3399 12.199 19.0701 12.0898C18.8544 11.9806 18.6386 12.0898 18.5307 12.1444C18.4228 12.472 18.3688 12.7449 18.3688 12.8541C18.261 13.3455 17.8294 13.2909 17.8294 13.2909V9.85136L14.9703 7.94051C12.5428 9.19621 10.3311 9.52379 9.19825 9.63298V13.2909C9.19825 13.2909 8.76669 13.3455 8.6588 12.8541C8.60486 12.7449 8.55092 12.5266 8.49697 12.1444C8.38908 12.0898 8.1733 11.9806 7.95752 12.0898C7.6878 12.199 7.52597 12.5812 7.52597 13.2909C7.52597 14.0006 7.74174 15.0926 8.60486 15.3655C8.60486 17.1126 9.57586 18.5867 10.8166 19.7878C10.533 21.546 10.4823 21.8185 10.4503 22.0932C10.4336 22.2365 10.422 22.3804 10.385 22.736Z" fill="black"/>
<path d="M4.90897 23.2149C4.80108 23.6516 4.74713 24.1976 4.80108 24.7435C1.83412 26.6544 4.0998 32.5507 4.20769 32.7691C4.20769 32.7964 4.22117 32.8101 4.23466 32.8237C4.24814 32.8374 4.26163 32.851 4.26163 32.8783H0C0 32.8783 0.80917 26.4906 2.37357 24.7981C2.91301 24.1976 3.88402 23.6516 4.90897 23.2149Z" fill="black"/>
</svg>
