<svg width="12" height="20" viewBox="0 0 12 20" fill="currentColor" xmlns="http://www.w3.org/2000/svg" focusable="false">
	<path fill-rule="evenodd" clip-rule="evenodd" d="M9.69547 11.7179C10.1996 11.9308 10.6797 12.191 10.9438 12.4513C11.6399 13.1847 12 15.9527 12 16H2.92595C2.93795 16 2.94996 15.9941 2.96196 15.9882C2.97396 15.9823 2.98596 15.9763 2.99797 15.9763C3.26203 15.8581 3.23802 15.7161 3.142 15.5268C3.06998 15.3376 2.94996 15.2666 2.6859 15.3376C2.56587 15.3612 2.44585 15.4085 2.32582 15.4559C2.10978 14.7934 1.72567 13.2793 2.56587 12.9008C2.78192 12.8061 2.97396 12.8061 3.19001 12.9008C3.76614 13.161 4.19824 14.06 4.41429 14.6278C4.33227 14.6602 4.25025 14.7035 4.17589 14.7429C4.14143 14.7611 4.10862 14.7785 4.07822 14.7934C3.83816 14.9354 3.81416 15.0537 3.88617 15.2429C3.93418 15.4322 4.0302 15.5742 4.29427 15.4795C4.51031 15.4085 4.82239 15.2429 4.99042 15.101L5.03844 15.0537C5.03844 15.0418 5.04444 15.0359 5.05044 15.03C5.05644 15.0241 5.06244 15.0182 5.06244 15.0064V14.9827C5.08645 14.9354 5.11045 14.8644 5.08645 14.7934C5.08539 14.7903 5.08336 14.7838 5.08035 14.774C5.01487 14.5627 4.48575 12.8553 3.43007 12.3803C3.19001 12.262 2.94996 12.2383 2.7099 12.262C2.7099 11.7888 2.94996 11.5049 3.40606 11.3393C3.50079 11.3082 3.5909 11.2816 3.67234 11.2576C3.77667 11.2269 3.86678 11.2003 3.93418 11.1737C3.97628 10.9663 3.99992 10.777 4.02129 10.6059C4.02429 10.5819 4.02725 10.5583 4.0302 10.535C3.52609 9.96716 3.23802 9.39936 3.142 8.80791C2.80592 8.52401 2.63788 8.0745 2.63788 7.50671C2.63788 7.31744 2.63788 6.86794 2.92595 6.56038C2.87794 5.756 2.82993 4.50212 3.23802 4.05261C3.64612 3.57945 4.41429 3.29555 5.13446 3.12994C6.1667 2.8697 6.57479 3.03531 7.15092 3.31921C8.06313 3.12994 8.5192 3.41384 8.90329 4.02895C9.21536 4.52577 9.16735 5.756 9.09533 6.53672C9.3834 6.84428 9.3834 7.31744 9.3834 7.48305C9.3834 8.05085 9.19135 8.52401 8.87928 8.80791C8.80727 9.35205 8.54324 9.87253 8.11114 10.393C8.13515 10.6532 8.18316 10.9608 8.23117 11.221C8.47122 11.2684 8.90329 11.4103 9.09533 11.7888C9.23937 12.0727 9.21536 12.4513 9.07133 12.9008H8.99931C8.39917 12.9008 7.89509 13.3976 7.89509 13.9891C7.89509 14.5805 8.39917 15.0773 8.99931 15.0773C9.59945 15.0773 10.1036 14.5805 10.1036 13.9891C10.1036 13.6105 9.91152 13.2793 9.62345 13.09C9.79149 12.5696 9.8155 12.0964 9.69547 11.7179ZM4.60634 11.5523C4.51032 12.3803 5.44653 13.2556 5.99866 13.6815C6.59879 13.2556 7.60703 12.3566 7.58302 11.5523C7.58302 11.434 7.511 10.9845 7.511 10.9845C7.511 10.9845 6.95888 11.3867 6.1907 11.1974C5.7346 11.0791 5.47054 10.7952 5.3265 10.5823C5.51855 10.6532 5.7586 10.7242 6.02266 10.7242C6.38275 10.7242 6.71882 10.6296 6.91087 10.464C7.58302 9.89619 8.18316 9.23376 8.18316 8.3584C8.56725 8.24011 8.66327 7.76695 8.66327 7.45939C8.66327 7.15183 8.59125 6.98623 8.47122 6.93891C8.3752 6.89159 8.27918 6.93891 8.23117 6.96257C8.18316 7.10452 8.15915 7.22281 8.15915 7.27012C8.11114 7.48305 7.9191 7.45939 7.9191 7.45939V5.96892L6.64681 5.14089C5.56656 5.68503 4.58233 5.82697 4.07822 5.87429V7.45939C4.07822 7.45939 3.88617 7.48305 3.83816 7.27012C3.81415 7.22281 3.79015 7.12818 3.76614 6.96257C3.71813 6.93891 3.62211 6.89159 3.52609 6.93891C3.40606 6.98623 3.33404 7.15183 3.33404 7.45939C3.33404 7.76695 3.43007 8.24011 3.81415 8.3584C3.81415 9.11546 4.24625 9.75424 4.79838 10.2747C4.67217 11.0366 4.64964 11.1547 4.6354 11.2737C4.62797 11.3358 4.62279 11.3982 4.60634 11.5523Z" fill="currentColor" />
	<path d="M2.16947 11.7598C2.12146 11.949 2.09746 12.1856 2.12146 12.4222C0.801159 13.2502 1.80939 15.8053 1.8574 15.9C1.8574 15.9118 1.8634 15.9177 1.8694 15.9236C1.87541 15.9295 1.89644 15.9882 1.89644 16H0C0 16 0.345055 13.1793 1.04121 12.4459C1.28127 12.1856 1.71337 11.949 2.16947 11.7598Z" fill="currentColor" />
</svg>
