<svg fill="currentColor" height="36" viewBox="0 0 22 36" width="22" xmlns="http://www.w3.org/2000/svg" focusable="false">
	<g fill="currentColor">
		<path clip-rule="evenodd" d="m17.7801 21.0945c.923.3931 1.8021.8736 2.2856 1.354 1.2747 1.354 1.9341 6.4641 1.9341 6.5515h-16.61494c.02198 0 .04396-.0109.06593-.0218.02198-.011.04396-.0219.06594-.0219.4835-.2184.43954-.4804.26373-.8298-.13187-.3494-.35164-.4805-.83515-.3494-.21977.0436-.43953.131-.6593.2183-.39559-1.2229-1.0989-4.0182.43953-4.717.39559-.1747.74723-.1747 1.14283 0 1.05491.4804 1.8461 2.1401 2.2417 3.1884-.15019.0596-.30038.1397-.43654.2123-.06308.0337-.12316.0657-.17883.0934-.43955.262-.48351.4804-.35164.8299.08791.3494.26373.6114.74723.4367.3956-.131.96701-.4368 1.27469-.6988l.08792-.0874c0-.0218.01098-.0327.02197-.0436.01099-.011.02198-.0219.02198-.0437v-.0437c.04396-.0873.08791-.2184.04396-.3494-.00194-.0058-.00566-.0179-.01117-.0358-.1199-.3901-1.08873-3.5424-3.02173-4.4192-.43954-.2184-.87909-.2621-1.31864-.2184 0-.8735.43955-1.3977 1.27469-1.7034.17344-.0575.33844-.1065.48757-.1508.19102-.0568.35602-.1059.47944-.1549.07709-.383.12037-.7325.1595-1.0483.0055-.0443.01091-.088.01632-.131-.92306-1.0483-1.45052-2.0965-1.62633-3.1884-.61537-.5241-.92306-1.354-.92306-2.4022 0-.3494 0-1.1793.52746-1.7471-.08791-1.485-.17582-3.79986.57141-4.62972.74724-.87353 2.1538-1.39765 3.47244-1.70339 1.89009-.48044 2.63729-.17471 3.69219.34941 1.6703-.34941 2.5054.17471 3.2087 1.3103.5714.91721.4835 3.1884.3516 4.6297.5275.5678.5275 1.4414.5275 1.7471 0 1.0482-.3517 1.9218-.9231 2.4459-.1318 1.0046-.6153 1.9654-1.4065 2.9263.044.4805.1319 1.0483.2198 1.5287.4395.0874 1.2307.3494 1.5823 1.0483.2637.5241.2198 1.2229-.0439 2.0528h-.1319c-1.0989 0-2.0219.9172-2.0219 2.0091s.923 2.0091 2.0219 2.0091 2.0219-.9172 2.0219-2.0091c0-.6988-.3516-1.3103-.8791-1.6597.3077-.9609.3517-1.8344.1319-2.5333zm-9.31839-.3057c-.17582 1.5287 1.53839 3.1447 2.54939 3.9309 1.0989-.7862 2.945-2.4459 2.901-3.9309 0-.2184-.1318-1.0483-.1318-1.0483s-1.011.7425-2.4176.3931c-.8351-.2183-1.3186-.7425-1.58234-1.1356.35164.1311.79114.2621 1.27464.2621.6594 0 1.2747-.1747 1.6264-.4804 1.2307-1.0483 2.3296-2.2712 2.3296-3.8873.7033-.2183.8791-1.0919.8791-1.6597s-.1319-.8735-.3516-.9609c-.1759-.0873-.3517 0-.4396.0437-.0879.2621-.1319.4805-.1319.5678-.0879.3931-.4395.3494-.4395.3494v-2.7516l-2.3296-1.52869c-1.978 1.00456-3.78015 1.26659-4.7032 1.35399v2.9263s-.35164.0437-.43955-.3494c-.04396-.0873-.08791-.2621-.13187-.5678-.08791-.0437-.26373-.131-.43954-.0437-.21978.0874-.35164.3931-.35164.9609s.17581 1.4414.87909 1.6597c0 1.3977.79119 2.577 1.80216 3.5378-.23111 1.4066-.27236 1.6246-.29843 1.8444-.0136.1146-.02308.2297-.05321.5142z" fill-rule="evenodd" />
		<path d="m3.99973 21.1719c-.08791.3494-.13187.7862-.08791 1.2229-2.41753 1.5287-.57142 6.2458-.48351 6.4205 0 .0218.01099.0328.02198.0437s.04949.1192.04949.141h-3.4724362s.6318072-5.2075 1.9064962-6.5615c.43955-.4804 1.23074-.9172 2.06589-1.2666z" />
	</g>
</svg>
