<svg viewBox="0 0 21 36" fill="none" xmlns="http://www.w3.org/2000/svg">
<path fill-rule="evenodd" clip-rule="evenodd" d="M16.2733 21.7533C17.1195 22.1136 17.9253 22.5541 18.3685 22.9945C19.537 24.2356 20.1414 28.9199 20.1414 29H4.91106C4.9312 29 4.95135 28.99 4.9715 28.98C4.99164 28.97 5.01179 28.96 5.03193 28.96C5.47515 28.7598 5.43485 28.5196 5.27369 28.1993C5.15281 27.879 4.95135 27.7589 4.50814 27.879C4.30668 27.919 4.10523 27.9991 3.90378 28.0791C3.54115 26.9581 2.89646 24.3958 4.30668 23.7552C4.66931 23.595 4.99164 23.595 5.35427 23.7552C6.32128 24.1956 7.04653 25.717 7.40916 26.6779C7.27149 26.7326 7.13382 26.806 7.00901 26.8726C6.95118 26.9034 6.89611 26.9328 6.84507 26.9581C6.44215 27.1983 6.40186 27.3985 6.52274 27.7188C6.60332 28.0391 6.76449 28.2793 7.2077 28.1192C7.57033 27.9991 8.09413 27.7188 8.37617 27.4786L8.45676 27.3985C8.45676 27.3785 8.46683 27.3685 8.4769 27.3585C8.48697 27.3485 8.49705 27.3385 8.49705 27.3184V27.2784C8.53734 27.1983 8.57763 27.0782 8.53734 26.9581C8.53557 26.9528 8.53216 26.9417 8.5271 26.9253C8.4172 26.5677 7.5291 23.6781 5.75719 22.8743C5.35427 22.6742 4.95135 22.6341 4.54843 22.6742C4.54843 21.8734 4.95135 21.393 5.7169 21.1127C5.87589 21.0601 6.02713 21.0151 6.16384 20.9745C6.33894 20.9224 6.49019 20.8774 6.60332 20.8325C6.67399 20.4814 6.71367 20.1611 6.74953 19.8716C6.75457 19.8309 6.75953 19.7909 6.76449 19.7515C5.91836 18.7906 5.43485 17.8297 5.27369 16.8288C4.7096 16.3483 4.42755 15.5876 4.42755 14.6267C4.42755 14.3064 4.42755 13.5457 4.91106 13.0253C4.83047 11.664 4.74989 9.54204 5.43485 8.78134C6.11982 7.9806 7.40916 7.50016 8.61792 7.2199C10.3505 6.77949 11.0354 7.05975 12.0025 7.54019C13.5336 7.2199 14.299 7.70034 14.9437 8.7413C15.4675 9.58208 15.3869 11.664 15.266 12.9852C15.7496 13.5057 15.7496 14.3064 15.7496 14.5867C15.7496 15.5476 15.4272 16.3483 14.9034 16.8288C14.7825 17.7496 14.3394 18.6304 13.6141 19.5112C13.6544 19.9516 13.735 20.4721 13.8156 20.9125C14.2185 20.9926 14.9437 21.2328 15.266 21.8734C15.5078 22.3539 15.4675 22.9945 15.2258 23.7552H15.1049C14.0976 23.7552 13.2515 24.5959 13.2515 25.5969C13.2515 26.5978 14.0976 27.4386 15.1049 27.4386C16.1122 27.4386 16.9583 26.5978 16.9583 25.5969C16.9583 24.9563 16.636 24.3958 16.1525 24.0755C16.4345 23.1946 16.4748 22.3939 16.2733 21.7533ZM7.7315 21.4731C7.57033 22.8743 9.14172 24.3557 10.0684 25.0764C11.0757 24.3557 12.768 22.8343 12.7277 21.4731C12.7277 21.2729 12.6068 20.5122 12.6068 20.5122C12.6068 20.5122 11.6801 21.1928 10.3908 20.8725C9.62522 20.6723 9.18201 20.1919 8.94026 19.8315C9.2626 19.9517 9.66552 20.0718 10.1087 20.0718C10.7131 20.0718 11.2772 19.9116 11.5995 19.6314C12.7277 18.6705 13.735 17.5494 13.735 16.0681C14.3797 15.8679 14.5409 15.0671 14.5409 14.5467C14.5409 14.0262 14.42 13.7459 14.2185 13.6658C14.0573 13.5858 13.8962 13.6658 13.8156 13.7059C13.735 13.9461 13.6947 14.1463 13.6947 14.2264C13.6141 14.5867 13.2918 14.5467 13.2918 14.5467V12.0243L11.1563 10.623C9.34318 11.5439 7.69121 11.7841 6.84507 11.8642V14.5467C6.84507 14.5467 6.52274 14.5867 6.44215 14.2264C6.40186 14.1463 6.36157 13.9861 6.32128 13.7059C6.24069 13.6658 6.07953 13.5858 5.91836 13.6658C5.7169 13.7459 5.59602 14.0262 5.59602 14.5467C5.59602 15.0671 5.75719 15.8679 6.40186 16.0681C6.40186 17.3492 7.12712 18.4302 8.05384 19.3111C7.84199 20.6004 7.80418 20.8003 7.78028 21.0017C7.76781 21.1068 7.75912 21.2123 7.7315 21.4731Z" fill="#AD00FF"/>
<path d="M3.64135 21.8242C3.56077 22.1445 3.52047 22.5449 3.56077 22.9453C1.3447 24.3466 3.03697 28.6705 3.11755 28.8307C3.11755 28.8507 3.12763 28.8607 3.1377 28.8707C3.14777 28.8807 3.18307 28.98 3.18307 29H0C0 29 0.579156 24.2264 1.74763 22.9853C2.15055 22.5449 2.8758 22.1445 3.64135 21.8242Z" fill="#AD00FF"/>
</svg>
