<svg focusable="false" width="26" height="16" viewBox="0 0 26 16" fill="none" xmlns="http://www.w3.org/2000/svg">
  <path d="M2.88 3.87988C2.88 3.3276 3.32772 2.87988 3.88 2.87988H5.48C6.03229 2.87988 6.48 3.3276 6.48 3.87988V15.1199H2.88V3.87988Z" fill="#0A0A0A"/>
  <path d="M8.64 1C8.64 0.447716 9.08771 0 9.64 0H11.24C11.7923 0 12.24 0.447715 12.24 1V15.12H8.64V1Z" fill="#0A0A0A"/>
  <path d="M14.4 7.48047C14.4 6.92818 14.8477 6.48047 15.4 6.48047H17C17.5523 6.48047 18 6.92818 18 7.48047V15.1205H14.4V7.48047Z" fill="#0A0A0A"/>
  <path d="M20.16 3.87988C20.16 3.3276 20.6077 2.87988 21.16 2.87988H22.76C23.3123 2.87988 23.76 3.3276 23.76 3.87988V15.1199H20.16V3.87988Z" fill="#0A0A0A"/>
  <line y1="15.0605" x2="25.92" y2="15.0605" stroke="black"/>
</svg>
