<svg fill="currentColor" height="36" viewBox="0 0 29 36" width="29" xmlns="http://www.w3.org/2000/svg" focusable="false">
	<g fill="currentColor">
		<path d="m2 12.3889c0-.7671.49747-1.3889 1.11111-1.3889h1.77778c.61365 0 1.11111.6218 1.11111 1.3889v15.6111h-4z" />
		<path d="m9 8.38889c0-.76706.49746-1.38889 1.1111-1.38889h1.7778c.6137 0 1.1111.62183 1.1111 1.38889v19.61111h-4z" />
		<path d="m16 17.3889c0-.7671.4974-1.3889 1.1111-1.3889h1.7778c.6137 0 1.1111.6218 1.1111 1.3889v10.6111h-4z" />
		<path d="m23 12.3889c0-.7671.4974-1.3889 1.1111-1.3889h1.7778c.6137 0 1.1111.6218 1.1111 1.3889v15.6111h-4z" />
		<path clip-rule="evenodd" d="m29 28.8325c0 .0925-.075.1675-.1675.1675h-28.664982c-.0925177 0-.167518-.075-.167518-.1675v-1.665c0-.0925.0750016-.1675.167519-.1675h28.664981c.0925 0 .1675.075.1675.1675z" fill-rule="evenodd" />
	</g>
</svg>
