<svg focusable="false" width="19" height="18" viewBox="0 0 19 18" xmlns="http://www.w3.org/2000/svg">
  <path fill-rule="evenodd" clip-rule="evenodd" d="M15.1543 2.67428H17.3829C18.096 2.67428 18.72 3.29829 18.72 4.01143V16.6629C18.72 17.376 18.096 18 17.3829 18H1.33714C0.624 18 0 17.376 0 16.6629V4.01143C0 3.29829 0.624 2.67428 1.33714 2.67428H3.56571V0.89143C3.56571 0.178286 4.18971 0 4.90285 0C5.616 0 6.24 0.178286 6.24 0.89143V2.67428H12.48V0.89143C12.48 0.178286 13.104 0 13.8171 0C14.5302 0 15.1543 0.178286 15.1543 0.89143V2.67428ZM1.78286 7.13143V16.2172H16.9371V7.13143H1.78286Z" fill="black"/>
  <line x1="6.73997" y1="7.13086" x2="6.73998" y2="16.9366" stroke="black"/>
  <line x1="12.0886" y1="7.13086" x2="12.0886" y2="16.9366" stroke="black"/>
  <line x1="16.9372" y1="11.5879" x2="1.78288" y2="11.5879" stroke="black"/>
</svg>