<svg fill="currentColor" height="36" viewBox="0 0 24 36" width="24" xmlns="http://www.w3.org/2000/svg" focusable="false">
	<g clip-rule="evenodd" fill="currentColor" fill-rule="evenodd">
		<path d="m18.9091 8.56571h2.7381c.8762 0 1.6428.83201 1.6428 1.78289v16.8686c0 .9508-.7666 1.7828-1.6428 1.7828h-19.71431c-.87618 0-1.642851-.832-1.642851-1.7828v-16.8686c0-.95088.766671-1.78289 1.642851-1.78289h2.7381v-2.37714c0-.95086.76666-1.18857 1.64285-1.18857.8762 0 1.64287.23771 1.64287 1.18857v2.37714h7.66669v-2.37714c0-.95086.7666-1.18857 1.6428-1.18857.8761 0 1.6429.23771 1.6429 1.18857zm-16.42858 5.94289v12.1143h18.61898v-12.1143z" />
		<path d="m7.95671 27.5821-.00002-13.0743h1.22864l.00001 13.0743z" />
		<path d="m14.5282 27.5821v-13.0743h1.2286v13.0743z" />
		<path d="m2.48064 19.7839h18.61906v1.3333h-18.61906z" />
	</g>
</svg>
