<svg width="14" height="14" viewBox="0 0 14 14" fill="currentColor" xmlns="http://www.w3.org/2000/svg" focusable="false">
	<path d="M12.25 2.91797C12.25 3.88447 9.8995 4.66797 7 4.66797C4.1005 4.66797 1.75 3.88447 1.75 2.91797M12.25 2.91797C12.25 1.95147 9.8995 1.16797 7 1.16797C4.1005 1.16797 1.75 1.95147 1.75 2.91797M12.25 2.91797V11.0846C12.25 12.053 9.91667 12.8346 7 12.8346C4.08333 12.8346 1.75 12.053 1.75 11.0846V2.91797M12.25 7C12.25 7.96833 9.91667 8.75 7 8.75C4.08333 8.75 1.75 7.96833 1.75 7" stroke="black" stroke-linecap="round" stroke-linejoin="round" />
</svg>
