<svg role="img" aria-hidden="true"  focusable="false" x="0px" y="0px" width="24px" height="24px" viewBox="0 0 24 24" style="enable-background:new 0 0 24 24;" xml:space="preserve">
<g>
			<path  fill="currentColor" d="M16,20H4V8h6V5H2.1C1.5,5,1,5.5,1,6.1v15.8C1,22.5,1.5,23,2.1,23h15.8c0.6,0,1.1-0.5,1.1-1.1V14h-3V20z M21.6,2.4
				c-0.3-0.3-0.6-0.4-1-0.3L12.2,3c-0.6,0.1-1.1,0.6-1.1,1.2c0,0.6,0.5,1.1,1.1,1.2l3.7,0.3l-4.7,4.7c-0.8,0.8-0.4,1.6,0.2,2.2
				c0.6,0.6,1.4,1,2.2,0.2l4.7-4.7l0.3,3.7c0.1,0.6,0.6,1.1,1.2,1.1c0,0,0,0,0,0c0.6,0,1.1-0.5,1.2-1.1l0.9-8.4
				C22,3,21.8,2.7,21.6,2.4z"/>
</g>
</svg>
