<svg width="28" height="37" viewBox="0 0 28 37" fill="none" xmlns="http://www.w3.org/2000/svg">
<path d="M12.7502 4.09586C12.7502 5.29334 12.1457 6.12499 11.1005 6.12499C10.0558 6.12499 9.45084 5.39316 9.45084 4.09586C9.45084 2.8647 10.0284 2 11.1005 2C12.1183 2 12.7502 2.73157 12.7502 4.09586Z" fill="black"/>
<path d="M16.9915 8.22984C16.9915 9.72684 16.2141 10.7664 14.8705 10.7664C13.5274 10.7664 12.7495 9.85172 12.7495 8.22984C12.7495 6.69128 13.4919 5.61018 14.8705 5.61018C16.1791 5.61018 16.9915 6.52484 16.9915 8.22984Z" fill="black"/>
<path d="M27.5376 18.1858C27.6712 18.742 27.8199 19.3613 27.9538 20.1476C28.1863 21.5133 27.4946 22.2597 26.9296 22.3389C26.0754 19.4044 25.8243 17.5638 25.6605 16.3634C25.5756 15.7408 25.5142 15.2904 25.4043 14.949C25.3464 14.7692 25.2019 14.4916 25.2019 14.4916C25.4558 15.6231 25.3254 16.2014 25.1967 16.7715C25.1862 16.8179 25.1758 16.8642 25.1656 16.9107C25.0208 17.5692 24.9874 18.2574 25.1465 18.9149C25.2165 19.204 25.3223 19.5115 25.4435 19.8634C25.8407 21.0177 26.4024 22.6496 26.4024 25.6747C26.4024 25.6747 25.7218 25.5473 25.0051 25.4727L24.9098 32.9374C24.9098 32.9374 23.3641 32.6873 23.2872 31.0164C23.2872 31.0164 23.1573 27.3145 23.0993 25.5041L23.0551 25.5111C23.0029 25.5193 22.9506 25.5275 22.8986 25.5377C22.8394 25.5494 22.782 25.5591 22.7246 25.5689L22.6666 25.5788C22.6074 27.4324 22.4801 31.0624 22.4801 31.0624C22.3772 32.6843 20.8622 32.9375 20.8622 32.9375L20.7631 25.7187C19.9779 25.6836 19.3691 25.5528 19.3691 25.5528C19.3691 25.2496 19.3764 24.966 19.387 24.6913C20.1487 24.3535 20.8029 23.5515 20.8786 22.2004C21.0013 20.0182 21.1727 16.9561 20.5433 14.6309L20.5488 14.6024L20.5542 14.5729C20.5589 14.5466 20.5637 14.5203 20.5701 14.4915C20.5701 14.4915 20.5514 14.5285 20.5277 14.5766C20.3493 13.9336 20.1078 13.3494 19.7861 12.8571C20.1036 12.5059 20.4827 12.2623 20.9334 12.1106C21.5719 11.8956 22.1806 11.7968 22.8736 11.7967H22.8983C23.5913 11.7968 24.2001 11.8956 24.8386 12.1106C26.1792 12.5619 26.8998 13.8028 27.1855 16.385C27.2541 17.0049 27.3861 17.5547 27.5376 18.1858Z" fill="black"/>
<path d="M20.1696 22.1987L20.1722 22.153C20.3567 18.8736 20.6845 13.0463 17.7653 12.1862C16.0881 11.692 13.8689 11.6491 11.9758 12.1862C9.05404 13.0151 9.38313 18.8565 9.56805 22.1388L9.57143 22.1987C9.65519 23.6862 10.6046 24.1077 11.2301 24.1077V20.0826C11.2301 18.2906 11.2545 16.5986 11.6117 15.5591C11.6735 15.379 11.77 15.3579 11.8068 15.4063V35C13.1175 35 14.1634 34.2113 14.2754 32.6273C14.2754 32.6273 14.6187 23.9386 14.6224 23.8344C14.6261 23.7301 14.7159 23.5946 14.8705 23.5946C15.0252 23.5946 15.1154 23.7301 15.1191 23.8344C15.1227 23.9386 15.4657 32.6273 15.4657 32.6273C15.5781 34.2177 16.6335 35 17.9342 35V15.4063C17.9931 15.3499 18.0783 15.369 18.1294 15.5591C18.413 16.6148 18.5114 18.3067 18.5114 20.0826V24.1077C19.1365 24.1077 20.086 23.6862 20.1696 22.1987Z" fill="black"/>
<path d="M18.6424 6.12499C19.6876 6.12499 20.2921 5.29334 20.2921 4.09586C20.2921 2.73157 19.6602 2 18.6424 2C17.5703 2 16.9927 2.8647 16.9927 4.09586C16.9927 5.39316 17.5976 6.12499 18.6424 6.12499Z" fill="black"/>
<path d="M24.5318 8.48387C24.5318 9.94336 23.8404 10.7667 22.6464 10.7667C21.4519 10.7667 20.7611 9.83106 20.7611 8.48387C20.7611 6.94905 21.4832 6.126 22.6464 6.126C23.8717 6.126 24.5318 7.09884 24.5318 8.48387Z" fill="black"/>
<path d="M10.2669 12.3565C10.1088 12.2645 9.94182 12.1876 9.76177 12.1337C8.2723 11.6878 5.81743 11.6878 4.38376 12.1337C3.67087 12.3553 3.13529 12.8993 2.80059 13.6634C1.91099 15.6942 0 21.9199 0 21.9199C0.118306 22.0121 0.322866 22.0329 0.556979 22.0021C0.735003 24.0044 1.49602 32.5577 1.53232 32.8762C1.56639 33.1749 2.48904 33.0762 2.46014 32.7558C2.42984 32.4191 1.89298 24.1113 1.72057 21.4396C1.90166 21.2695 2.05329 21.0654 2.14468 20.828C2.51911 19.8552 2.92799 18.7499 3.20241 17.9049C3.28059 17.6641 3.35276 17.4381 3.42098 17.2244C3.66248 16.4679 3.85464 15.8659 4.08913 15.3168C4.15342 15.1663 4.21432 15.0751 4.28017 15.1395V32.9368C5.3913 32.9368 6.20836 32.2018 6.3105 30.7539C6.3105 30.7539 6.62667 22.8352 6.62992 22.7395C6.63317 22.6439 6.71278 22.519 6.86286 22.519C7.01293 22.519 7.0833 22.6439 7.08702 22.7395L7.40367 30.7683C7.47828 32.1659 8.19075 32.9368 9.45064 32.9368V23.9737C9.13239 23.5545 8.91364 22.9921 8.87146 22.2534L8.86774 22.1882C8.70099 19.2714 8.42325 14.4131 10.2669 12.3565Z" fill="black"/>
<path d="M5.22112 8.24432C5.22312 8.22074 5.22512 8.19716 5.22693 8.17345C5.16602 8.16246 5.10482 8.15247 5.04441 8.14261C4.63556 8.07587 4.26337 8.01511 4.26809 7.69062C4.27384 7.29379 5.48471 6.64972 6.65056 6.3258C6.65301 6.32526 6.65537 6.32459 6.65773 6.32391C6.66014 6.32322 6.66255 6.32253 6.66508 6.32198C7.31364 6.14306 7.91634 6.06278 8.22082 6.18359C8.90186 6.45409 8.97868 7.69026 8.97868 8.48113C8.97868 9.82831 8.2878 10.7639 7.09333 10.7639C5.89934 10.7639 5.20798 9.94061 5.20798 8.48113C5.20798 8.39929 5.21455 8.32182 5.22112 8.24432Z" fill="black"/>
</svg>
