<svg focusable="false" viewBox="0 0 22 36" fill="#000" xmlns="http://www.w3.org/2000/svg">
<path d="M9.6327 6.58777C9.6327 7.49495 9.17598 8.12499 8.38638 8.12499C7.59707 8.12499 7.14006 7.57058 7.14006 6.58777C7.14006 5.65508 7.57638 5 8.38638 5C9.15529 5 9.6327 5.55422 9.6327 6.58777Z"/>
<path d="M12.837 9.71958C12.837 10.8537 12.2496 11.6412 11.2346 11.6412C10.2198 11.6412 9.63215 10.9483 9.63215 9.71958C9.63215 8.554 10.1931 7.73499 11.2346 7.73499C12.2232 7.73499 12.837 8.42791 12.837 9.71958Z"/>
<path d="M20.8045 17.262C20.9054 17.6833 21.0178 18.1525 21.1189 18.7482C21.2946 19.7828 20.772 20.3483 20.3452 20.4082C19.6998 18.1851 19.5101 16.7907 19.3864 15.8813C19.3222 15.4097 19.2758 15.0685 19.1928 14.8099C19.1491 14.6736 19.0399 14.4633 19.0399 14.4633C19.2318 15.3205 19.1332 15.7586 19.036 16.1905C19.0281 16.2257 19.0202 16.2607 19.0124 16.296C18.9031 16.7948 18.8778 17.3162 18.9981 17.8143C19.0509 18.0333 19.1309 18.2663 19.2224 18.5329C19.5225 19.4074 19.9468 20.6437 19.9468 22.9354C19.9468 22.9354 19.4327 22.8389 18.8912 22.7824L18.8192 28.4374C18.8192 28.4374 17.6515 28.2479 17.5933 26.9821C17.5933 26.9821 17.4952 24.1776 17.4514 22.8062L17.418 22.8115C17.3785 22.8177 17.339 22.8239 17.2997 22.8316C17.255 22.8404 17.2117 22.8478 17.1683 22.8552L17.1245 22.8628C17.0798 24.267 16.9836 27.017 16.9836 27.017C16.9058 28.2457 15.7613 28.4375 15.7613 28.4375L15.6864 22.9687C15.0932 22.9421 14.6333 22.843 14.6333 22.843C14.6333 22.6133 14.6388 22.3985 14.6468 22.1904C15.2222 21.9345 15.7165 21.3269 15.7737 20.3033C15.8664 18.6501 15.9959 16.3304 15.5203 14.5689L15.5245 14.5472L15.5286 14.5249C15.5322 14.505 15.5357 14.4851 15.5406 14.4633C15.5406 14.4633 15.5264 14.4913 15.5086 14.5277C15.3738 14.0406 15.1914 13.598 14.9483 13.2251C15.1882 12.959 15.4746 12.7745 15.8151 12.6595C16.2975 12.4967 16.7573 12.4218 17.2809 12.4217H17.2996C17.8231 12.4218 18.283 12.4967 18.7654 12.6595C19.7783 13.0014 20.3227 13.9415 20.5385 15.8977C20.5903 16.3673 20.6901 16.7839 20.8045 17.262Z"/>
<path d="M15.238 20.3021L15.24 20.2674C15.3794 17.783 15.627 13.3684 13.4216 12.7168C12.1545 12.3424 10.4779 12.3099 9.04763 12.7168C6.84028 13.3448 7.08891 17.7701 7.22861 20.2567L7.23116 20.3021C7.29444 21.429 8.01168 21.7482 8.48429 21.7482V18.699C8.48429 17.3413 8.50273 16.0596 8.77255 15.272C8.81927 15.1356 8.89219 15.1196 8.92 15.1563V30C9.91019 30 10.7004 29.4025 10.785 28.2025C10.785 28.2025 11.0444 21.6202 11.0472 21.5412C11.0499 21.4622 11.1178 21.3596 11.2346 21.3596C11.3514 21.3596 11.4196 21.4622 11.4224 21.5412C11.4252 21.6202 11.6842 28.2025 11.6842 28.2025C11.7692 29.4073 12.5665 30 13.5492 30V15.1563C13.5937 15.1135 13.6581 15.128 13.6967 15.272C13.9109 16.0718 13.9853 17.3535 13.9853 18.699V21.7482C14.4575 21.7482 15.1748 21.4289 15.238 20.3021Z"/>
<path d="M14.0842 8.12499C14.8738 8.12499 15.3306 7.49495 15.3306 6.58777C15.3306 5.55422 14.8532 5 14.0842 5C13.2742 5 12.8379 5.65508 12.8379 6.58777C12.8379 7.57058 13.2949 8.12499 14.0842 8.12499Z"/>
<path d="M18.5336 9.91202C18.5336 11.0177 18.0113 11.6414 17.1092 11.6414C16.2068 11.6414 15.6849 10.9326 15.6849 9.91202C15.6849 8.74928 16.2305 8.12576 17.1092 8.12576C18.0349 8.12576 18.5336 8.86276 18.5336 9.91202Z"/>
<path d="M7.75662 12.8459C7.63715 12.7761 7.51099 12.7178 7.37496 12.677C6.24967 12.3393 4.39504 12.3393 3.31191 12.677C2.77332 12.845 2.36869 13.2571 2.11583 13.8359C1.44374 15.3744 0 20.0908 0 20.0908C0.0893792 20.1607 0.243923 20.1765 0.420795 20.1531C0.555291 21.67 1.13024 28.1497 1.15766 28.3911C1.1834 28.6174 1.88045 28.5426 1.85863 28.2998C1.83573 28.0447 1.43014 21.751 1.29988 19.727C1.43669 19.5981 1.55125 19.4435 1.62029 19.2636C1.90317 18.5266 2.21208 17.6893 2.4194 17.0491C2.47847 16.8668 2.53299 16.6955 2.58453 16.5336C2.76698 15.9605 2.91216 15.5045 3.08932 15.0885C3.13789 14.9745 3.1839 14.9054 3.23364 14.9542V28.4369C4.07309 28.4369 4.69038 27.8801 4.76755 26.7833C4.76755 26.7833 5.00641 20.7842 5.00887 20.7118C5.01133 20.6393 5.07147 20.5447 5.18485 20.5447C5.29823 20.5447 5.3514 20.6393 5.35421 20.7118L5.59343 26.7942C5.6498 27.853 6.18807 28.4369 7.13991 28.4369V21.6467C6.89947 21.3292 6.73421 20.9031 6.70234 20.3434L6.69953 20.2941C6.57355 18.0844 6.36372 14.4039 7.75662 12.8459Z"/>
<path d="M3.94453 9.73055C3.94604 9.71268 3.94755 9.69482 3.94892 9.67686C3.9029 9.66853 3.85666 9.66096 3.81103 9.65349C3.50214 9.60293 3.22095 9.5569 3.22452 9.31107C3.22886 9.01045 4.14367 8.52251 5.02446 8.27712C5.02631 8.27672 5.02809 8.2762 5.02988 8.27569C5.0317 8.27517 5.03352 8.27464 5.03543 8.27423C5.52541 8.13868 5.98075 8.07786 6.21079 8.16939C6.7253 8.37431 6.78335 9.3108 6.78335 9.90994C6.78335 10.9305 6.26139 11.6393 5.35898 11.6393C4.45692 11.6393 3.9346 11.0156 3.9346 9.90994C3.9346 9.84795 3.93957 9.78926 3.94453 9.73055Z"/>
</svg>
