<svg fill="currentColor" height="36" viewBox="0 0 26 36" width="26" xmlns="http://www.w3.org/2000/svg" focusable="false">
	<path d="m24.967 16.4642-11.8384-11.32023c-.1914-.17975-.4858-.17975-.6772 0l-11.838361 11.32023c-.205833.1935-.323.466-.323.7514v.7566c0 .282.223917.5106.5.5106h2.000001v10.5264h19.99996v-10.5264h2c.2761 0 .5-.2286.5-.5106v-.7566c0-.2854-.1172-.5579-.323-.7514zm-13.4664-4.9428c.1571-1.0083.7915-1.63112 1.7643-1.4715.9234.1516 1.4036.8449 1.2294 1.9626-.1527.9811-.8076 1.5723-1.7558 1.4168-.948-.1557-1.4036-.8452-1.2379-1.9079zm.4561 15.8962c-2.58195 0-4.67499-2.1151-4.67499-4.7242 0-1.4317.63279-2.7093 1.629-3.5729-.00321.1202-.00484.236-.00413.3447.00313.4763.12696.9044.3455 1.2666-.39425.552-.62871 1.2281-.62871 1.9616 0 1.8603 1.49233 3.3684 3.33333 3.3684 1.2823 0 2.3939-.7327 2.9514-1.8055.0647.1816.1247.3487.1748.486.1411.3871.3067.6975.4846.9517-.8575 1.0524-2.1565 1.7236-3.6108 1.7236zm3.9864-2.9955c-.2984-.8175-.8566-2.4205-1.1634-3.4087-.0245-.0018-2.2649 0-3.1469 0s-1.80239-.4693-1.80943-1.5544c-.00517-.7897.10667-2.0435.32163-3.2402-.32875.1939-.74884.4349-.92042.7626-.29904.4897-.56733 1.2637-.79737 1.7899-.1178.2427-.54746.9737-1.37484.7667.21663-.8971.58421-2.4149.96809-3.2528.10716-.2317.19625-.3624.45154-.645.75866-.7844 2.2647-1.5003 2.5716-1.6055.6358-.3216 1.69-.2371 2.1877.3862.3784.4737.261.9405.1604 1.7-.0781.5901-.1834 1.4271-.3435 2.4338.6553.1372 1.8338.3971 2.4532.6451.4148.1831.6038.3312.8345.8844.4676 1.186 1.1524 4.4421 1.4541 5.6906-.3107.0786-1.2696.2315-1.8469-1.3527z" fill="currentColor" />
</svg>
