<svg width="29" height="37" viewBox="0 0 29 37" fill="none" xmlns="http://www.w3.org/2000/svg">
<path d="M28.6253 18.3642L14.8928 5.15728C14.6707 4.94757 14.3292 4.94757 14.1072 5.15728L0.37468 18.3642C0.135913 18.5899 0 18.9078 0 19.2409V20.1235C0 20.4525 0.259743 20.7193 0.58 20.7193H2.9V33H26.1V20.7193H28.42C28.7403 20.7193 29 20.4525 29 20.1235V19.2409C29 18.9078 28.864 18.5899 28.6253 18.3642ZM13.0042 12.5976C13.1864 11.4212 13.9224 10.6947 15.0508 10.8808C16.122 11.0577 16.679 11.8666 16.477 13.1706C16.2998 14.3151 15.5402 15.0049 14.4402 14.8235C13.3406 14.6419 12.812 13.8374 13.0042 12.5976ZM13.5333 31.1432C10.5383 31.1432 8.11033 28.6756 8.11033 25.6316C8.11033 23.9614 8.84437 22.4708 9.99997 21.4632C9.99625 21.6035 9.99437 21.7386 9.99519 21.8653C9.99881 22.4211 10.1425 22.9205 10.396 23.3431C9.93864 23.9871 9.66667 24.7759 9.66667 25.6316C9.66667 27.802 11.3978 29.5614 13.5333 29.5614C15.0208 29.5614 16.3102 28.7066 16.9569 27.455C17.032 27.6669 17.1016 27.8619 17.1597 28.022C17.3234 28.4736 17.5155 28.8357 17.7218 29.1323C16.7272 30.3601 15.2204 31.1432 13.5333 31.1432ZM18.1575 27.6485C17.8114 26.6946 17.1638 24.8245 16.808 23.6716C16.7796 23.6695 14.1808 23.6716 13.1576 23.6716C12.1345 23.6716 11.0668 23.1242 11.0587 21.8582C11.0527 20.9368 11.1824 19.4741 11.4318 18.078C11.0504 18.3041 10.5631 18.5853 10.3641 18.9677C10.0172 19.5389 9.70596 20.4419 9.43911 21.0559C9.30247 21.339 8.80406 22.1918 7.84431 21.9503C8.09559 20.9037 8.52199 19.133 8.96728 18.1554C9.0916 17.8851 9.19493 17.7326 9.49107 17.4029C10.3711 16.4877 12.1182 15.6526 12.4741 15.5299C13.2116 15.1546 14.4346 15.2532 15.0119 15.9803C15.4508 16.533 15.3146 17.0776 15.1979 17.9637C15.1073 18.6522 14.9852 19.6287 14.7995 20.8031C15.5596 20.9632 16.9266 21.2664 17.6451 21.5557C18.1263 21.7694 18.3456 21.9422 18.6132 22.5875C19.1556 23.9712 19.95 27.77 20.3 29.2266C19.9395 29.3183 18.8272 29.4967 18.1575 27.6485Z" fill="black"/>
</svg>
