<svg focusable="false" viewBox="0 0 23 36" fill="#000" xmlns="http://www.w3.org/2000/svg">
<path d="M22.6206 17.5096L11.7687 7.13273C11.5932 6.96796 11.3234 6.96796 11.1479 7.13273L0.296083 17.5096C0.107403 17.6869 0 17.9367 0 18.1984V18.8919C0 19.1504 0.205257 19.36 0.458333 19.36H2.29167V29.0092H20.625V19.36H22.4583C22.7114 19.36 22.9167 19.1504 22.9167 18.8919V18.1984C22.9167 17.9367 22.8092 17.6869 22.6206 17.5096ZM10.2763 12.9787C10.4203 12.0544 11.0019 11.4835 11.8936 11.6298C12.7401 11.7688 13.1803 12.4044 13.0206 13.4289C12.8806 14.3282 12.2803 14.8702 11.4111 14.7276C10.5421 14.5849 10.1244 13.9529 10.2763 12.9787ZM10.6944 27.5502C8.32765 27.5502 6.40903 25.6114 6.40903 23.2197C6.40903 21.9074 6.98909 20.7362 7.90228 19.9445C7.89934 20.0548 7.89785 20.1609 7.8985 20.2605C7.90136 20.6971 8.01487 21.0895 8.2152 21.4216C7.85381 21.9276 7.63889 22.5473 7.63889 23.2197C7.63889 24.925 9.0069 26.3074 10.6944 26.3074C11.8699 26.3074 12.8888 25.6357 13.3999 24.6523C13.4592 24.8188 13.5142 24.972 13.5601 25.0979C13.6895 25.4527 13.8413 25.7372 14.0043 25.9703C13.2183 26.9349 12.0276 27.5502 10.6944 27.5502ZM14.3486 24.8044C14.0751 24.0549 13.5634 22.5855 13.2822 21.6797C13.2597 21.678 11.2061 21.6797 10.3975 21.6797C9.58902 21.6797 8.74534 21.2496 8.73889 20.2549C8.73415 19.5309 8.83667 18.3816 9.03375 17.2847C8.73236 17.4624 8.34728 17.6833 8.19 17.9838C7.91587 18.4326 7.66994 19.1421 7.45907 19.6245C7.35109 19.847 6.95723 20.517 6.19881 20.3272C6.39738 19.505 6.73433 18.1136 7.08622 17.3456C7.18445 17.1331 7.26611 17.0133 7.50013 16.7543C8.19557 16.0352 9.57615 15.379 9.85741 15.2826C10.4402 14.9877 11.4066 15.0652 11.8629 15.6365C12.2097 16.0708 12.1021 16.4987 12.0099 17.1949C11.9382 17.7359 11.8417 18.5031 11.695 19.4259C12.2956 19.5517 13.3759 19.7899 13.9437 20.0172C14.3239 20.1851 14.4973 20.3208 14.7087 20.8279C15.1373 21.9151 15.7651 24.8999 16.0417 26.0444C15.7568 26.1164 14.8778 26.2565 14.3486 24.8044Z"/>
</svg>
