<svg focusable="false" width="4" height="11" viewBox="0 0 4 11" fill="none" currentColor="fill" xmlns="http://www.w3.org/2000/svg">
  <path d="M3.28159 1.8097C3.28159 2.12574 3.184 2.38135 2.9888 2.57654C2.79361 2.76244 2.55194 2.85539 2.26379 2.85539C1.98494 2.85539 1.75257 2.76709 1.56667 2.59048C1.38077 2.40458 1.28782 2.16756 1.28782 1.87942C1.28782 1.60057 1.38077 1.36355 1.56667 1.16835C1.76186 0.973155 2.01283 0.875558 2.31956 0.875558C2.59841 0.875558 2.82614 0.959213 3.00274 1.12652C3.18864 1.29383 3.28159 1.52156 3.28159 1.8097ZM1.38541 5.00254L0.520979 4.5982V4.26359C0.855599 4.15205 1.19951 4.06839 1.55272 4.01262C1.91523 3.95685 2.22661 3.92896 2.48687 3.92896L3.19794 3.94291L3.10034 4.93283V9.95212L3.88112 10.1752V10.4959C3.62086 10.5795 3.33736 10.64 3.03063 10.6771C2.73319 10.7143 2.37068 10.7329 1.94311 10.7329C1.73862 10.7329 1.51554 10.719 1.27387 10.6911C1.0415 10.6725 0.837009 10.6446 0.660404 10.6074V10.3286C0.837009 10.2542 0.999671 10.1427 1.14839 9.99395C1.30641 9.83594 1.38541 9.66398 1.38541 9.47808V5.00254Z" fill="currentColor"/>
</svg>
