<svg fill="currentColor" height="36" viewBox="0 0 17 36" width="17" xmlns="http://www.w3.org/2000/svg" focusable="false">
	<g fill="currentColor">
		<path d="m10.1113 13.8647c-.0003.2716-.055.5406-.16111.7914-.10606.2509-.26134.4788-.457.6707-.19565.1918-.42784.344-.68331.4476-.25546.1037-.52922.1569-.8056.1566-.2764-.0003-.55001-.0541-.80525-.1583-.25524-.1043-.48708-.2569-.6823-.4492s-.34999-.4205-.45547-.6716c-.10549-.2511-.15962-.5202-.15932-.7918.00062-.5488.22302-1.0749.61826-1.4625.39526-.3877.931-.6051 1.48934-.6045s1.09359.2192 1.48796.6077.6156.9151.615 1.4639z" />
		<path clip-rule="evenodd" d="m.00834539 13.7419c0-4.31333 3.54488461-7.7419 7.99942461-7.7419 4.45453 0 7.99943 3.42857 7.99943 7.7419 0 1.4378-.5714 2.765-1.1428 4.0922-.3531.8516-2.6786 5.3287-4.5082 8.8512l-1.43421 2.7617c-.22855.3329-.57138.553-.91536.553-.45482 0-.79994-.2201-.91422-.553-1.71416-3.318-5.48761-10.5069-5.94243-11.6129-.57139-1.3261-1.14277785-2.6522-1.14277785-4.0911zm3.19977461 0c0 2.5438 2.17127 4.6452 4.79965 4.6452 2.62843 0 4.79963-2.1014 4.79963-4.6452-.0037-.8109-.2261-1.6068-.645-2.3092-.4188-.7023-1.0197-1.2867-1.7434-1.69556-.72977-.41901-1.56266-.64021-2.41123-.64037-2.62838 0-4.79965 2.09913-4.79965 4.64403z" fill-rule="evenodd" />
	</g>
</svg>
