<svg width="23" height="36" viewBox="0 0 23 36" fill="currentColor" xmlns="http://www.w3.org/2000/svg" focusable="false">
	<path d="M13.0114 10.2064C13.0114 11.1822 12.24 11.9732 11.2885 11.9732C10.337 11.9732 9.5657 11.1822 9.5657 10.2064C9.5657 9.23064 10.337 8.43962 11.2885 8.43962C12.24 8.43962 13.0114 9.23064 13.0114 10.2064Z" fill="currentColor" />
	<path fill-rule="evenodd" clip-rule="evenodd" d="M10.5449 20.6849C10.631 21.0384 10.9325 21.2593 11.2771 21.2593C11.6217 21.2593 11.9232 21.0384 12.0093 20.6849C12.6554 18.1223 13.6891 16.2666 14.6367 14.8086C15.5842 13.3064 16.4026 11.9809 16.4026 10.2578C16.4026 7.25332 14.1629 5 11.2771 5C8.34826 5 6.15163 7.25332 6.15163 10.2578C6.15163 11.9809 6.96999 13.3064 7.91755 14.8086C8.82205 16.2666 9.85575 18.1223 10.5449 20.6849ZM11.2771 7.07659C12.9569 7.07659 14.3352 8.49044 14.3352 10.2136C14.3352 11.9367 12.9569 13.3506 11.2771 13.3506C9.59733 13.3506 8.21905 11.9367 8.21905 10.2136C8.17598 8.49044 9.55426 7.07659 11.2771 7.07659Z" fill="currentColor" />
	<path d="M19.985 22.4889C18.779 22.9308 17.2285 23.5493 16.0225 24.0795C16.0655 24.2562 16.0655 24.4771 16.0225 24.6981C15.8502 25.9352 14.8165 26.7305 13.3521 26.7747C10.1033 26.9478 8.05307 26.1034 7.56586 25.9027L7.53745 25.891C7.40824 25.8468 7.40824 25.7585 7.40824 25.7143C9.82022 26.1561 11.3277 26.2003 13.2228 25.891C14.6442 25.6701 15.1611 24.9632 15.1611 24.3888C15.1611 23.8144 14.7734 23.5051 13.8689 23.4609C11.3696 23.3866 9.75371 23.1248 7.79155 22.8069C7.42058 22.7468 7.037 22.6847 6.63296 22.6215C4.86704 22.3564 3.14419 22.8424 1.72285 23.7702C0.344569 24.6539 0 25.0957 0 25.0957L2.49813 30L5.72846 28.6745C6.11611 28.542 6.50375 28.4536 6.89139 28.542L11.3277 29.5582C12.3184 29.7349 13.309 29.514 14.1704 29.028L23 23.3726C22.9777 23.3726 22.9465 23.3201 22.8975 23.2377C22.6622 22.8422 22.017 21.7575 19.985 22.4889Z" fill="currentColor" />
</svg>
