<svg focusable="false" viewBox="0 0 23 36" fill="#000" xmlns="http://www.w3.org/2000/svg">
<path d="M12.4909 10.9982C12.4909 11.9349 11.7504 12.6943 10.837 12.6943C9.92356 12.6943 9.18307 11.9349 9.18307 10.9982C9.18307 10.0614 9.92356 9.30204 10.837 9.30204C11.7504 9.30204 12.4909 10.0614 12.4909 10.9982Z"/>
<path fill-rule="evenodd" clip-rule="evenodd" d="M10.1231 21.0575C10.2058 21.3968 10.4952 21.6089 10.826 21.6089C11.1568 21.6089 11.4462 21.3968 11.5289 21.0575C12.1492 18.5974 13.1415 16.816 14.0512 15.4162C14.9608 13.9741 15.7465 12.7016 15.7465 11.0474C15.7465 8.16319 13.5964 6 10.826 6C8.01433 6 5.90557 8.16319 5.90557 11.0474C5.90557 12.7016 6.69119 13.9741 7.60085 15.4162C8.46916 16.816 9.46152 18.5974 10.1231 21.0575ZM10.826 7.99353C12.4386 7.99353 13.7617 9.35082 13.7617 11.005C13.7617 12.6592 12.4386 14.0165 10.826 14.0165C9.21343 14.0165 7.89029 12.6592 7.89029 11.005C7.84894 9.35082 9.17209 7.99353 10.826 7.99353Z"/>
<path d="M19.1856 22.7894C18.0279 23.2135 16.5393 23.8073 15.3816 24.3163C15.4229 24.486 15.4229 24.6981 15.3816 24.9101C15.2162 26.0978 14.2238 26.8613 12.818 26.9037C9.69913 27.0699 7.73095 26.2592 7.26323 26.0666L7.23595 26.0554C7.11191 26.0129 7.11191 25.9281 7.11191 25.8857C9.42742 26.3099 10.8746 26.3523 12.6939 26.0554C14.0584 25.8433 14.5546 25.1646 14.5546 24.6132C14.5546 24.0618 14.1825 23.7649 13.3142 23.7225C10.9148 23.6512 9.36356 23.3998 7.47989 23.0947C7.12376 23.037 6.75552 22.9773 6.36764 22.9166C4.67236 22.6621 3.01843 23.1287 1.65393 24.0194C0.330786 24.8677 0 25.2919 0 25.2919L2.3982 30L5.49933 28.7275C5.87146 28.6003 6.2436 28.5155 6.61573 28.6003L10.8746 29.5758C11.8256 29.7455 12.7766 29.5334 13.6036 29.0669L22.08 23.6377C22.0586 23.6377 22.0287 23.5873 21.9816 23.5082C21.7557 23.1285 21.1363 22.0872 19.1856 22.7894Z"/>
</svg>
