<svg fill="currentColor" height="36" viewBox="0 0 26 36" width="26" xmlns="http://www.w3.org/2000/svg" focusable="false">
	<g fill="currentColor">
		<path d="m16.6407 23.2h-7.28002v2.08h7.28002z" />
		<path d="m14.5438 19.9788c-.1708.7886-.8443 1.3924-1.6756 1.4328-1.0039.0488-1.8581-.741-1.9078-1.764s.7239-1.8918 1.7279-1.9406c.4472-.0217.8597.1295 1.1897.3871.0037.0003.0081-.0005.0119-.0002.0452-.0048.1391-.1026-.0546-.3787-.1508-.2149-.6024-.7006-1.6684-.7305l2.9633-5.0443c.3286-.57 1.0259-.3273.9068.3155 0 0-1.3816 7.2075-1.4932 7.7229z" />
		<path clip-rule="evenodd" d="m13 5c-7.1683 0-13 5.8317-13 13s5.8317 13 13 13 13-5.8317 13-13-5.8317-13-13-13zm7.4018 19.6665-1.5187-1.5188-.7354.7354 1.5179 1.5178c-1.7666 1.5974-4.1002 2.5779-6.6656 2.5779s-4.89897-.9805-6.66562-2.5778l1.51788-1.5178-.73538-.7354-1.51872 1.5188c-1.48184-1.6488-2.42824-3.789-2.5506-6.1466h2.15244v-1.04h-2.15244c.12246-2.3586 1.07287-4.4945 2.55648-6.1406l1.51284 1.5129.73538-.7354-1.51289-1.5128c1.64606-1.48362 3.78193-2.43402 6.14053-2.55648v2.15248h1.04v-2.15248c2.3587.12246 4.4946 1.07286 6.1406 2.55648l-1.5129 1.5128.7354.7354 1.5129-1.5129c1.4836 1.6461 2.434 3.782 2.5564 6.1406h-2.1523v1.0348h2.1524c-.1223 2.3576-1.0687 4.503-2.5506 6.1517z" fill-rule="evenodd" />
	</g>
</svg>
