<svg width="29" height="37" viewBox="0 0 29 37" fill="none" xmlns="http://www.w3.org/2000/svg">
<path d="M18.5608 25.3H10.4408V27.62H18.5608V25.3Z" fill="black"/>
<path d="M16.2219 21.7071C16.0315 22.5867 15.2802 23.2602 14.353 23.3053C13.2332 23.3597 12.2805 22.4788 12.2251 21.3377C12.1697 20.1967 13.0325 19.2276 14.1523 19.1732C14.6512 19.1489 15.1112 19.3177 15.4793 19.605C15.4835 19.6053 15.4884 19.6044 15.4926 19.6048C15.5431 19.5994 15.6477 19.4903 15.4316 19.1824C15.2634 18.9427 14.7598 18.4009 13.5708 18.3676L16.876 12.7412C17.2425 12.1055 18.0202 12.3762 17.8874 13.0931C17.8874 13.0931 16.3464 21.1323 16.2219 21.7071Z" fill="black"/>
<path fill-rule="evenodd" clip-rule="evenodd" d="M14.5 5C6.50458 5 0 11.5046 0 19.5C0 27.4954 6.50458 34 14.5 34C22.4954 34 29 27.4954 29 19.5C29 11.5046 22.4954 5 14.5 5ZM22.7559 26.9357L21.0619 25.2417L20.2417 26.0619L21.9347 27.7548C19.9642 29.5365 17.3614 30.6302 14.5 30.6302C11.6386 30.6302 9.03576 29.5366 7.06527 27.755L8.75829 26.062L7.93805 25.2418L6.24411 26.9358C4.59128 25.0968 3.53568 22.7096 3.39921 20.08H5.8V18.92H3.39921C3.5358 16.2892 4.59586 13.9069 6.25066 12.0709L7.93805 13.7583L8.75829 12.9381L7.07084 11.2507C8.90683 9.59592 11.2892 8.53585 13.9199 8.39926V10.8001H15.0799V8.39926C17.7107 8.53585 20.0931 9.59592 21.929 11.2507L20.2416 12.9381L21.0618 13.7583L22.7492 12.0709C24.404 13.9069 25.4641 16.2892 25.6007 18.92H23.2V20.0742H25.6008C25.4643 22.7038 24.4087 25.0968 22.7559 26.9357Z" fill="black"/>
</svg>
