<svg fill="currentColor" height="36" viewBox="0 0 24 36" width="24" xmlns="http://www.w3.org/2000/svg" focusable="false">
	<g fill="currentColor">
		<path d="m10.9934 22.9479c.0027-1.3444.5295-2.6389 1.4762-3.6273.9467-.9883 2.2443-1.5986 3.6359-1.7099 1.3917-.1114 2.7761.2843 3.8793 1.1086 1.1031.8243 1.8447 2.0173 2.0779 3.3429.1229.0031.2452-.0175.3596-.0606.1145-.0431.2188-.1078.3068-.1904.0881-.0825.158-.1812.2058-.2903.0478-.109.0723-.2261.0723-.3444v-6.2095c0-.1163-.0238-.2315-.07-.339-.0463-.1074-.114-.2051-.1995-.2873-.0854-.0823-.1868-.1475-.2984-.192s-.2313-.0674-.3521-.0674h-6.4204v-6.18124c.002-.1191-.021-.23737-.0676-.34773-.0465-.11035-.1157-.21053-.2035-.29454-.0877-.08401-.1921-.15012-.307-.19438-.1148-.04426-.2378-.06576-.3615-.06321h-6.44c-.1237-.00255-.24666.01895-.36153.06321s-.21928.11037-.307.19438-.15693.18419-.2035.29454c-.04657.11036-.06954.22863-.06754.34773v6.19064h-6.420428c-.242313 0-.474847.092-.647102.2561-.172255.164-.27032006.3869-.27289785.6202v6.2095c0 .2349.09692785.4602.26946185.6263.172533.1661.406539.2594.650538.2594h6.420428v6.2c0 .2349.09693.4602.26946.6263s.40654.2594.65054.2594h6.45957c.1225.0026.2442-.0185.3581-.0619s.2176-.1082.3051-.1907.1571-.181.2045-.2897c.0475-.1087.0719-.2255.0719-.3434v-.0282c-1.3031-.2054-2.4882-.8495-3.3441-1.8176s-1.327-2.1972-1.3293-3.4685z" />
		<path d="m22.7591 27.7142-2.0642-2.2395c-.3286.3734-.7168.6789-1.1457.9016-.2631.1164-.3834.097-.4459 0 .7608-.6792 1.2545-1.6484 1.3805-2.7099s-.1252-2.1352-.7025-3.0022c-.5772-.867-1.4369-1.4618-2.4037-1.6632s-1.9679.0059-2.7989.5795c-.8311.5736-1.4296 1.4704-1.6733 2.5073-.2438 1.037-.1145 2.136.3615 3.0728.476.9369 1.2628 1.6409 2.1999 1.9686s1.9539.2544 2.843-.2051l2.5768 2.7968c.4904.5381 1.0745.223 1.5649-.3102s.798-1.1585.3076-1.6965zm-6.0588-2.1522c-.4236.0009-.8379-.1348-1.1905-.3901s-.6276-.6186-.7901-1.044c-.1626-.4253-.2053-.8935-.1229-1.3453.0825-.4518.2864-.8668.5859-1.1925s.6813-.5474 1.0968-.637.8462-.0431 1.2374.1336.7253.4756.9602.859c.2348.3834.3596.8339.3587 1.2944 0 .6158-.2249 1.2064-.6254 1.6418-.4005.4355-.9437.6801-1.5101.6801z" />
	</g>
</svg>
