<svg width="25" height="37" viewBox="0 0 25 37" fill="none" xmlns="http://www.w3.org/2000/svg">
<path fill-rule="evenodd" clip-rule="evenodd" d="M21.8814 3.92269L21.7839 3.97393L21.3941 4.02517L21.3453 4.07641L21.1992 4.12765H21.1504L21.1017 4.17889H21.0042L20.9068 4.28137H20.7606L20.5657 4.38384L20.517 4.3326L20.4682 4.38384H20.2246L20.0784 4.43508L19.8835 4.48632H19.786L19.6886 4.53756H19.5911L19.2987 4.64004L19.25 4.69128V4.74252L19.1526 4.79376L19.0551 4.69128L18.8115 4.53756H18.7627L18.5678 4.64004V4.5888H18.5191V4.64004H18.4704V4.5888L18.4216 4.64004L18.4704 4.69128H18.5191L18.5678 4.74252H18.6165L18.6653 4.79376H18.714V4.84499H18.5678V4.79376L18.4704 4.74252V4.69128H18.3729L18.3242 4.79376H18.3729L18.4216 4.84499H18.4704V4.89623L18.4216 4.94747L18.3729 4.89623V4.94747L18.4216 4.99871H18.6653V5.04995H18.5191L18.4216 4.99871V5.04995L18.3729 4.99871V5.04995L18.4216 5.10119H18.6653L18.714 5.04995V5.15243H18.6653L18.714 5.20367L18.7627 5.15243H18.8115V5.20367L18.7627 5.25491H18.6653V5.30615L18.714 5.35739L18.7627 5.30615H18.8115L18.7627 5.35739H18.714H18.6653L18.714 5.40862V5.45986H18.6653V5.40862L18.6165 5.35739V5.30615H18.5678L18.6165 5.25491H18.5678L18.5191 5.20367V5.25491L18.4704 5.35739V5.25491L18.3729 5.20367L18.3242 5.25491V5.30615L18.4216 5.40862V5.45986H18.3729V5.40862L18.3242 5.45986V5.40862L18.2754 5.35739V5.15243L18.2267 5.10119V5.04995L18.2754 4.99871H18.2267V4.89623L18.178 4.84499L18.2267 4.74252V4.64004L18.3242 4.5888L18.0805 4.69128H18.0318L17.9343 4.64004H17.7882V4.69128H17.6907L17.642 4.64004L17.4471 4.69128H17.3009L17.2521 4.74252L17.0572 4.79376H16.9598L16.7649 4.89623H16.5212V4.84499L16.4725 4.79376V4.89623L16.2776 4.99871L16.2288 5.04995L16.1314 5.10119L16.0827 5.15243L15.9852 5.20367H15.8877L15.7416 5.30615L15.4492 5.45986L15.2055 5.61358H15.0594L15.0106 5.66482L14.9132 5.71606H14.8644L14.8157 5.7673L14.6208 5.86978L14.4746 6.02349L14.4259 6.12597L14.3771 6.17721V6.22845H14.3284V6.27969L14.231 6.33093L14.1822 6.38217H14.1335L13.9873 6.53588H13.9386L13.8899 6.58712L13.8411 6.6896H13.7924L13.7437 6.74084L13.6949 6.84332L13.6462 6.99703L13.5975 7.04827V7.09951H13.6462L13.5975 7.15075L13.5 7.25323V7.30447H13.5488V7.40695L13.5 7.50942V7.81686L13.4513 7.8681V7.91934L13.3538 7.97058H13.3051L13.3538 8.02181L13.3051 8.07305V8.12429L13.2564 8.17553H13.3051L13.3538 8.22677L13.4026 8.32925V8.48297L13.4513 8.58544H13.4026L13.4513 8.63668H13.4026V8.58544V8.48297H13.3538V8.38049H13.2564V8.32925H13.2077L13.2564 8.43173V8.48297L13.3538 8.58544H13.3051V8.68792H13.4026V8.84164L13.4513 8.7904V8.84164H13.4026V8.89288H13.4513L13.5 8.94412V9.09783L13.4513 9.14907V9.25155L13.5 9.40527V9.50775L13.5488 9.55898V9.57606L13.6462 9.50775L13.5488 9.61022V9.57606L13.5 9.61022V9.76394H13.4513L13.4026 9.81518L13.4513 9.86642L13.5 9.9689V10.1739L13.4513 10.2251H13.3538L13.1589 10.43L13.2077 10.4813V10.5838H13.3051V10.635H13.3538L13.5488 10.84H13.7924V10.7887L13.9386 10.84H14.036L14.0848 10.8912L14.2797 10.9937H14.3771V11.0449H14.4746L14.5233 10.9937H14.5721V10.9424L14.6208 10.8912V10.84L14.7182 10.7887L14.8157 10.84L14.8644 10.7887L14.9619 10.7375H15.0106L15.0594 10.7887V10.8912H15.3517V10.9424H15.4005L15.4492 10.8912V10.9937H15.4005L15.1568 11.0449H15.1081V11.0962L14.9619 11.3524L14.7182 11.7623V11.8135L14.6695 11.9672V12.9408H14.7182L14.8157 13.0432L14.9132 13.197L15.0594 13.4019L15.1081 13.4532H16.2776L16.2288 13.5044V13.7093L16.2776 13.7606V13.8118L16.0827 13.7606L16.1314 13.8118H16.2288V13.8631L16.2776 13.9143V14.0168L16.375 14.1193V14.2217L16.4238 14.273V14.5292L16.375 14.6829L16.3263 14.7854V14.8878L16.2776 14.9903V15.0928L16.2288 15.0416V15.144H16.1801V15.0416L16.375 14.6316V14.2217L16.3263 14.1193L16.0827 13.8631V13.8118H15.7416L15.5466 13.7606L15.1081 13.6069H15.0594L15.0106 13.5044H14.9619L14.9132 13.5556L14.5721 13.6581H14.5233L14.4746 13.7093L14.0848 14.068V14.1193H13.7924V14.1705L13.7437 14.3242V14.273L13.6949 14.3755V14.5804L13.5975 14.6316H13.5488L13.5 14.6829L13.4513 14.7854H13.3538V14.8366L12.5255 15.4002L12.3793 15.5027V15.554H12.3305V15.6052H12.2524L11.9407 15.8101L11.892 15.8614L11.6971 16.0151H11.6483V16.0663L11.7458 16.1688V16.425L11.6971 16.4763H11.7458L11.7945 16.5787H11.7458L11.7945 16.63L11.8433 16.5787H11.892L12.0869 16.5275H12.1844L12.2331 16.5787H12.428L12.5742 16.63L12.6716 16.7324L12.8178 16.7837L12.8666 16.8349V16.8862H12.9153L13.3538 17.2961L13.4026 17.3986H13.4513L13.5488 17.4498L13.6462 17.3986L13.8899 17.2961H14.036L14.0848 17.2448L14.231 17.1936H14.2797L14.3284 16.9886L14.3771 16.9374V16.7837H14.4259V16.5275H14.3771V16.4763L14.3284 16.3738L14.5233 16.1688L14.6208 16.2201L14.767 16.1688H14.8157L14.8644 16.1176H14.8157L15.1081 15.8101L15.4979 15.6052H15.5954L15.6441 15.6564H15.6928L15.8877 15.5027L15.9365 15.4002L16.0339 15.2978L16.0827 15.1953L16.1314 15.144V15.1953H16.1801V15.2465H16.1314L16.1801 15.2978L15.839 15.6564L15.7416 15.7077V15.7589H15.6928L15.6441 15.8101H15.5954L15.5466 15.8614V15.9126H15.4979V15.9639H15.4005L15.303 16.0151L15.2543 16.0663H15.2055L15.1568 16.1176L15.0594 16.1688H15.0106L14.9132 16.2713V16.3225H14.8157V16.425H14.767V16.4763H14.7182V16.5275H14.6695V16.5787L14.5721 16.63L14.4746 16.7324V16.7837L14.4259 16.8862V16.9886L14.3771 17.0911V17.1424L14.3284 17.2448L14.2797 17.2961H14.036L13.9386 17.3986L13.8899 17.3473L13.8411 17.3986L13.6949 17.4498H13.5975L13.5488 17.501H13.4513L13.3051 17.3473H13.2564V17.2961L13.2077 17.2448H13.0615L13.0127 17.1936H12.9153L12.7691 17.0399V16.9886L12.8178 16.9374H12.7204L12.6716 16.8862H12.6229L12.5742 16.8349H12.5255V16.7837L12.4767 16.7324L12.428 16.7837H12.1356L12.0869 16.8349H12.0382L11.9894 16.8862H11.9407V16.8349H11.892L11.7945 16.7324L11.7458 16.63H11.6971V16.5787H11.5509L11.5022 16.4763H11.2585L11.1611 16.5275L11.1123 16.4763V16.5275H11.0636V16.4763H11.1123V16.425L11.0636 16.3738H11.0149L10.9661 16.425H10.8687V16.3738H10.9174V16.2713L10.82 16.2201H10.7712V16.2713H10.7225L10.6738 16.2201H10.625V16.1688H10.7225L10.7712 16.1176L10.625 16.0151V15.9639L10.7225 16.0151L10.7712 16.0663H10.82L10.8687 16.0151V16.0663L10.9174 16.1176L10.9661 16.0663V15.9639H11.0149L11.0636 15.9126V15.8101L11.2098 15.6564H11.3072V15.6052L11.356 15.554V15.5027L11.4534 15.4002H11.356L11.3072 15.349V15.4002L11.2098 15.349V15.1953L11.2585 15.144V15.0928H11.2098L11.1611 15.144L11.1123 15.0928L11.2098 15.0416H11.3072V14.9903L11.2585 14.9391V14.8366L11.3072 14.7854L11.356 14.8366V14.7854L11.4047 14.7341L11.4534 14.6316H11.4047V14.5292H11.356V14.4779L11.3072 14.4267V14.3755L11.2585 14.273V14.2217L11.1611 14.068V14.0168L11.1123 13.9655V13.8631L11.0636 13.7606V13.7093L11.0149 13.6581L11.0636 13.6069L11.0149 13.5556V13.2482H11.0636V13.197H11.1123L11.1611 13.1457H11.2585V13.197L11.3072 13.2482V13.197L11.356 13.1457H11.5022L11.5996 13.2482H11.6483L11.6971 13.2994V13.3507H11.892L12.0382 13.197H12.1844V13.1457L12.2331 13.0945H12.2818V13.0432L12.3793 12.992V12.9408L12.428 12.8895V12.7358L12.4767 12.6333H12.6229L12.6716 12.5821H12.7204L12.6716 12.5308H12.7204L12.8178 12.4284L12.7204 12.3259V12.0185H12.6716L12.6229 11.9672L12.5255 11.916H12.3305L12.2818 11.8647H12.1356L12.0869 11.9672L12.0382 12.0185V12.0697L11.9894 12.0185H11.8433L11.6483 11.8135L11.6971 11.711H11.6483L11.5996 11.6598H11.5509L11.6483 10.8912L11.5509 10.7375L11.4047 10.43V10.3788L11.356 10.3276L11.2098 10.0201H11.1611H11.1123V10.1226L11.0149 10.2251H10.9661L10.8687 10.2763H10.82L10.7712 10.3788H10.4789V10.43H10.3814L10.2839 10.3788L10.1378 10.43L10.089 10.3788L9.94284 10.2763H9.89411L9.74793 10.1739L9.65047 10.0714L9.60174 9.9689V9.76394L9.65047 9.66146V9.61022H9.60174V9.66146H9.50428V9.55898H9.21191L9.11445 9.7127V9.91766L9.06572 10.0714V10.43L8.96827 10.7375L8.91954 11.0449L8.82208 11.3524V11.4548H8.77335V11.5573L8.6759 11.7623V11.8647L8.57844 12.1722V12.5308L8.52971 12.7358V12.9408L8.48098 13.1457V13.4019L8.43225 13.4532V13.5044L8.38352 13.8631L8.33479 14.3242L8.28607 14.5804L8.13988 14.8878L8.09115 15.0416L8.18861 14.9903H8.23734L8.33479 14.9391L8.38352 14.9903H8.33479V15.0416H8.23734L8.18861 15.0928H8.28607V15.144L8.18861 15.0928H8.13988V15.144L8.04242 15.0928V15.1953L8.09115 15.2978L8.04242 15.349V15.4515L7.99369 15.554L7.94497 15.7589L7.89624 15.9126L7.79878 16.1688L7.60386 16.5787L7.31149 17.2448L7.21404 17.3986L7.16531 17.501L7.01912 17.7572L6.97039 17.8085V17.8597L6.87293 18.0134L6.82421 18.1159L6.38565 18.7308L6.23946 18.8332V18.8845L6.142 18.987H6.09328V19.0894H6.142L6.09328 19.1407V19.0894H6.04455L5.99582 19.1407L5.94709 19.2432L5.65472 19.5506L5.50853 19.7556L5.31362 19.9605V20.0117L5.21616 20.1655L5.1187 20.2167L5.02125 20.3192H4.97252L4.92379 20.2679L4.68014 20.2167L4.63142 20.2679H4.53396L4.48523 20.3192V20.3704L4.4365 20.4217L4.38777 20.5241L4.48523 20.6266V20.6779L4.38777 20.7803L4.33904 20.8828L4.24159 21.0365H4.33904L4.38777 21.0878L4.4365 21.0365L4.63142 20.9853H4.68014L4.72887 21.0878H4.68014V21.139L4.58269 21.2415V21.2927L4.53396 21.344V21.3952L4.58269 21.4464L4.7776 21.7539V21.8564L4.72887 21.9076L4.82633 21.8564L4.97252 22.0101V22.0613H5.16743L5.1187 22.1125L5.16743 22.1638H5.21616V22.1125H5.36235L5.41107 22.1638L5.50853 22.3175H5.65472V22.3687H5.75218L5.8009 22.4712L5.84963 22.5225H5.94709L5.89836 22.5737H5.84963L5.89836 22.6762L5.94709 22.7274L6.09328 22.7787V22.8299H6.19073L6.28819 22.8811H6.38565V22.9324L6.58056 22.9836L6.67802 23.0861H6.72675L6.82421 23.1373L6.97039 23.2398H7.01912L7.06785 23.291H7.16531V23.3423H7.40895L7.50641 23.3935H7.60386L7.65259 23.4448H7.70132L7.75005 23.496H7.79878L7.89624 23.4448H7.94497L8.09115 23.3935H8.13988L8.18861 23.3423H8.28607L8.33479 23.2398L8.38352 23.291H8.43225L8.52971 23.2398V23.3423L8.43225 23.3935L8.38352 23.4448H8.33479L8.23734 23.5472L7.84751 23.6497H7.75005L7.60386 23.701H7.50641L7.36022 23.6497L7.31149 23.5985H7.26276L7.21404 23.5472H7.06785L7.01912 23.5985L6.92166 23.6497L6.87293 23.701V23.7522L6.82421 23.8547L6.67802 24.0084L6.58056 24.0596H6.53183L6.48311 24.1109H6.43438V24.0596H6.38565L6.33692 24.1109H6.19073L6.142 24.1621H6.04455L5.99582 24.2646H5.94709V24.2133H5.8009L5.70345 24.1621H5.55726H5.50853L5.41107 24.1109L5.26489 24.0084H5.21616L5.06997 23.9571V24.0084L4.97252 24.1109H4.92379L4.97252 24.2133H5.02125L5.1187 24.4183H5.41107V24.3671H5.4598V24.4695L5.41107 24.5208H5.16743L5.1187 24.572H5.06997L4.97252 24.4695L4.7776 24.4183H4.72887L4.63142 24.4695L4.58269 24.5208H4.53396L4.4365 24.572L4.38777 24.6233L4.33904 24.572L4.24159 24.6233L4.19286 24.6745V24.777H4.24159V24.8282H4.33904L4.4365 24.9307H4.48523V25.0332L4.53396 25.0844H4.58269L4.68014 25.1869V25.2894L4.72887 25.3406H4.7776V25.3918H5.16743L5.21616 25.4431H5.26489V25.3918L5.4598 25.4943L5.41107 25.5456V25.648H5.4598L5.65472 25.7505L5.70345 25.8018V26.1604L5.75218 26.3654H5.60599L5.55726 26.3141H5.41107L5.36235 26.3654H5.31362L5.26489 26.4166H5.1187V26.3654H5.06997L4.92379 26.2629H4.87506L4.82633 26.1092H4.7776L4.68014 25.9555V25.9042L4.63142 25.853L4.68014 25.8018L4.63142 25.7505V25.648H4.58269L4.38777 25.4431H4.29032L4.24159 25.3918H4.19286L4.0954 25.3406H4.04667L3.99794 25.2894L3.94921 25.3406H3.90049V25.3918L3.80303 25.2381H3.85176L3.80303 25.1869V25.1356H3.65684L3.60811 25.1869H3.26701V25.1356L3.21828 25.0844H3.12083L3.02337 25.1356H2.97464L2.92591 25.1869L2.77973 25.1356H2.731L2.68227 25.0844L2.63354 25.1356L2.53608 25.1869V25.2381L2.48735 25.2894V25.3406L2.43863 25.3918H2.3899L2.34117 25.4431H2.43863L2.34117 25.4943V25.4431L2.19498 25.2894V25.2381L2.14625 25.0844V25.0332H2.09753L2.0488 24.9819L1.95134 24.9307L1.85388 24.8282V24.6745L1.90261 24.6233H1.80515L1.75642 24.572H1.41532V24.6233H1.31787L1.26914 24.6745L1.17168 24.7257L1.12295 24.777L1.02549 24.8282H0.976766L0.879308 24.9307L0.781851 24.9819L0.733123 25.0332H0.684394L0.586937 25.1356V25.2894L0.635665 25.3918H0.684394L0.781851 25.4943L0.879308 25.5456V25.5968H0.928037L1.02549 25.6993V25.7505L1.07422 25.8018V25.853L1.12295 25.9042V25.9555L1.22041 26.0579L1.31787 26.1092V26.1604H1.3666L1.41532 26.2117V26.2629H1.61024V26.1092H1.65897V26.2117L1.7077 26.2629H1.85388L1.90261 26.2117V26.1604H2.09753L2.00007 26.1092L2.0488 26.0579L2.14625 26.0067H2.19498V26.0579L2.34117 25.9555V25.853L2.3899 25.9042V25.9555H2.43863L2.3899 26.0067H2.34117L2.24371 26.0579L2.34117 26.1092H2.43863L2.3899 26.1604L2.43863 26.2117V26.2629L2.3899 26.2117L2.34117 26.2629H2.29244L2.34117 26.1604L2.24371 26.1092L2.19498 26.0579L2.14625 26.1604L2.19498 26.2117L2.34117 26.3141L2.3899 26.3654V26.4166H2.43863V26.5703H2.48735L2.53608 26.6216H2.58481V26.5703H2.63354L2.731 26.6216H2.77973V26.6728L2.87718 26.7241V26.7753H2.92591L3.02337 26.8778H3.16956L3.26701 26.8265H3.31574L3.36447 26.7753H3.51066L3.55939 26.8265L3.60811 26.7753L3.65684 26.5703H3.70557V26.4679H3.7543V26.1604L3.85176 26.2117L3.94921 26.1604H3.99794L4.0954 26.0579L4.24159 26.2117V26.2629H4.29032V26.3141H4.38777L4.48523 26.4166H4.58269V26.5703L4.68014 26.6216H4.72887L4.7776 26.6728H4.82633L5.02125 26.7753H5.1187L5.16743 26.8265H5.26489L5.41107 26.7753L5.50853 26.7241H5.60599V26.7753H5.70345L5.8009 26.8265L5.84963 26.9803V27.0827H5.99582L6.09328 27.0315H6.43438V27.0827L6.48311 27.134V27.2877L6.53183 27.2364L6.67802 27.2877H6.87293L6.92166 27.2364L7.01912 27.1852H7.06785V27.0827L6.82421 26.7241L6.77548 26.5703L6.82421 26.5191H6.87293V26.3141H6.82421L6.77548 26.2629L6.82421 26.2117L7.16531 26.0579H7.26276L7.36022 25.9555H7.45768L7.79878 25.9042L7.84751 26.0067L7.75005 26.2629L7.79878 26.5703L8.04242 26.4679H8.18861L8.38352 26.5191L8.48098 26.5703H8.52971V26.5191L8.57844 26.5703L8.6759 26.5191L8.62717 26.3141L8.77335 26.2629H8.82208L8.87081 26.1092L8.96827 26.0579L9.017 26.0067L9.06572 25.9042L9.16318 25.853L9.21191 25.8018L9.16318 25.7505H9.26064V25.6993L9.3581 25.648L9.40683 25.6993V25.7505H9.50428L9.60174 25.8018H9.65047V25.9042L9.6992 25.9555L9.74793 25.9042L9.79666 25.9555L9.74793 26.0579V26.1604H9.79666V26.2117H9.74793L9.65047 26.3141L9.6992 26.5191V26.5703H9.79666V26.6216H9.74793L9.60174 26.5703L9.55301 26.5191H9.45555V26.4679H9.40683L9.30937 26.5191V26.6216L9.3581 26.6728L9.45555 26.7241H9.50428L9.65047 26.6728H9.84538L9.89411 26.7241H9.94284V26.6728H10.1378L10.2352 26.7753V26.8265H10.2839L10.3327 26.8778H10.3814L10.5763 26.5703L10.8687 26.3654V26.2629H10.9174V26.2117L10.8687 26.1604V26.1092L10.9174 26.0579V26.0067L10.9661 25.9555L11.0636 25.9042H11.1123L11.0636 25.9555L11.1123 26.0067V26.0579H11.356L11.5022 26.5191L11.3072 26.929L11.5996 27.2877V27.3389L11.6971 27.4414V27.8001L11.892 27.8513L11.9407 27.8001L12.0869 27.7488H12.1356V27.6976L12.428 27.9026L12.3305 28.3125L12.3793 28.3637L12.5742 28.3125L12.7691 28.3637H13.0127L13.0615 28.3125L13.1102 28.21L13.2564 28.2612L13.4513 28.3125L13.5488 28.3637L13.7437 28.1587L13.8899 28.1075L13.9873 28.005V27.9538H14.036L14.231 28.005V28.0563L14.2797 28.1587L14.4259 28.2612L14.4746 28.3125V28.6199L14.5233 28.8249H14.5721L14.6695 28.8761L15.0594 29.0298L15.1081 29.0811V29.1323L15.1568 29.2348L15.2055 29.1835L15.2543 29.2348H15.6441L15.6928 29.1835H15.7416L15.7903 29.2348H15.8877L15.9365 29.286V29.3372H15.9852L15.9365 29.3885H15.8877V29.4397H15.9365V29.5934H15.9852V29.5422H16.0827V29.491H16.1801V29.4397L16.2776 29.3885V29.4397H16.3263V29.5422L16.4725 29.6447L16.375 29.7472V29.7984L16.2776 29.8496H16.2288V29.9009L16.1314 30.0034L16.1801 30.0546H16.2776L16.3263 30.1058V30.1571L16.2776 30.2083V30.2595H16.2288L16.1801 30.2083H16.0827V30.3108L16.1314 30.362V30.4133H16.0827V30.4645L16.1314 30.567H16.0827V30.6182H16.0339L15.9365 30.567L15.8877 30.7207V30.8232L15.839 30.8744V30.9257H15.8877L15.9365 30.9769V31.0281L15.8877 31.1306V31.2843L15.7903 31.3868L15.7416 31.4893H15.6928L15.5954 31.6942V31.7455H15.6928L15.7416 31.6942H15.7903L15.839 31.7455V31.7967L15.7416 31.848V31.9504L15.6441 32.0529V32.1042L15.5954 32.1554L15.6441 32.2066L15.5954 32.2579H15.4492L15.4005 32.3091V32.4116L15.303 32.5141V32.5653H15.2543L15.2055 32.6165H15.1568V32.6678H15.0594L15.1081 32.719L15.0594 32.7703V33.0777H15.1081V33.1802H15.1568V33.2314L15.2055 33.2827H15.303V33.3339H15.4005L15.4492 33.3851V33.4364L15.4005 33.4876L15.4492 33.6413V33.7438L15.3517 33.8975V33.9488H15.4492L15.4979 33.8975H15.5466L15.5954 33.8463V33.8975L15.6441 33.9488H15.6928L15.7416 33.8975V33.8463L15.7903 33.795L15.8877 33.6413H15.9852V33.7438L16.0339 33.8463L16.0827 33.795L16.1801 33.9488H16.2288L16.2776 33.8975L16.3263 33.9488L16.4238 33.8463V34L16.5212 33.8975V33.8463H16.6187L16.7161 33.795V33.9488L16.8136 34V33.9488H16.911V34L17.0085 33.9488L17.0572 33.8975H17.2521L17.3009 33.9488L17.3983 34H17.4471V33.9488H17.5932V33.8463L17.642 33.7438L17.4958 33.6413H17.4471L17.3983 33.5901V33.5388H17.3496L17.3009 33.4876V33.3851L17.3496 33.3339L17.3983 33.3851L17.4958 33.4364L17.5445 33.3339L17.5932 33.2827V33.2314H17.642L17.5932 33.1802V33.1289L17.5445 33.0777V32.9752L17.5932 32.924H17.6907L17.7394 32.8727H17.7882V32.8215H17.8369V32.8727L17.9343 32.924V32.7703H17.9831V32.719L18.0318 32.6678V32.5653L17.9831 32.5141V32.5653L17.9343 32.4628V32.3604L17.9831 32.3091V32.2579L18.0318 32.2066V32.1554L17.9831 32.1042H17.7882V32.0017L17.7394 32.0529L17.6907 32.0017L17.5445 31.9504V31.7967L17.4471 31.7455L17.4958 31.6942H17.5445V31.643L17.5932 31.438H17.3009L17.2521 31.4893H17.2034L17.1547 31.438V31.3868H17.106L17.0085 31.438H16.9598L16.911 31.4893H16.8623L16.8136 31.5405H16.7649L16.7161 31.4893L16.8136 31.3868V31.2331H16.7649L16.7161 31.1819V31.1306H16.6674V31.0794H16.6187V30.8232L16.5699 30.7719L16.5212 30.6695H16.7161V30.6182L16.8136 30.567L16.8623 30.5157V30.567L16.9598 30.7207L17.0085 30.8232V30.8744L17.0572 30.8232H17.106V30.8744H17.1547V30.8232L17.2034 30.7719V30.7207L17.2521 30.6695V30.567L17.3009 30.5157V30.4645L17.3496 30.4133V30.362L17.3983 30.3108L17.4958 30.2595L17.5445 30.2083L17.642 30.1571H17.6907L17.7882 30.0546V30.0034L17.8369 29.9521H17.9343L17.9831 29.9009V29.7984L18.0318 29.7472H18.1293L18.178 29.6959H18.2267V29.6447H18.3242L18.3729 29.5934H18.5191L18.4704 29.5422H18.5191L18.5678 29.491L18.3729 29.3372H18.3242L18.6165 29.1835L18.5191 29.0811L18.2267 29.2348L18.1293 29.3372H17.9343V29.286L17.8856 29.2348V28.8761L17.8369 28.8249L17.8856 28.7736H17.9831L17.8856 28.5687L17.9831 28.5174L18.0318 28.4149L18.2267 28.21V28.1587L18.2754 28.1075L18.3729 27.9538L18.4216 27.8513V27.8001L18.4704 27.7488V27.6464L18.5191 27.5951V27.5439H18.6653V27.4926L18.9089 27.2364L18.8602 27.0827L18.8115 26.9803V26.929L18.9089 26.8265H18.7627V26.7753L18.8115 26.4679V26.3141H18.8602L18.8115 26.2117L18.8602 26.1604V26.0067L18.7627 25.8018L18.8115 25.6993L18.7627 25.648V25.4943L18.714 25.3918L18.5191 25.2894L18.4216 24.9819L18.3242 24.9307L18.2267 24.8282L18.178 24.7257V24.6745H18.1293L17.9831 24.572V24.3671H18.0318V24.3158L18.0805 24.1621V24.1109L18.1293 24.0596V24.0084L18.0318 23.9571H17.9343V23.9059H17.8369L17.5932 23.8034L17.5445 23.7522V23.6497L17.5932 23.5985L17.5445 23.5472V23.3935H17.642V23.3423H17.5932V23.2398H17.5445L17.3983 23.1373L17.3496 23.0861H17.0572V22.9836L17.106 22.9324L17.2034 22.8811H17.2521L17.3009 22.7787V22.7274H17.2521V22.6249H17.3009L17.2521 22.5737H17.2034V22.42L17.106 22.3175H17.0085V22.2663L17.0572 22.215H17.106L17.0085 22.1638L17.106 22.0101H17.1547V22.0613H17.3009L17.3983 22.0101H17.4471L17.5445 21.9076L17.5932 21.9588L17.6907 21.8564H17.7394L17.6907 21.8051L17.7882 21.7026L17.9343 21.8564H18.0318L18.2267 21.9076H18.3729L18.4216 21.9588V21.7026L18.3242 21.6514H18.2754V21.5489L18.2267 21.4464L18.178 21.3952H18.0318L18.0805 21.344V21.2927H18.1293L18.178 21.344L18.3729 21.2415L18.4216 21.2927H18.4704L18.5191 21.344L18.6165 21.3952V21.4464H18.5191L18.6653 21.6002L18.7627 21.6514H18.8602V21.6002H18.9576L19.0064 21.6514H19.0551V21.6002H19.1038V21.5489L19.1526 21.6002L19.2987 21.6514V21.7026L19.3475 21.8051V21.8564L19.4449 21.8051H19.5911L19.6398 21.8564H19.6886L19.7373 21.9076V22.0101H19.8835L19.9809 22.0613H20.0297L19.9809 21.9588L20.0297 22.0101L19.9809 21.9076V21.8564L20.0297 21.8051H19.9809V21.7539H19.9322L19.8835 21.7026V21.5489L19.9809 21.6002H20.0297L20.0784 21.6514H20.1271V21.7026H20.2246L20.2733 21.6514L20.322 21.7539H20.3708L20.4195 21.8051L20.4682 21.7539L20.6144 21.7026V21.6002H20.6631L20.7119 21.5489H20.8093L20.8581 21.4977V21.4464H20.9068L20.9555 21.3952V21.4464H21.0042L21.053 21.3952L21.1504 21.344L21.3941 21.2415H21.4915V21.1902L21.6865 21.0878H21.7352L21.7839 21.0365V21.0878H21.8814V21.139L22.0276 21.2927L22.125 21.2415V21.1902H22.1737L22.2225 21.139H22.2712V21.0878L22.3199 21.0365H22.3687L22.4661 20.8828L22.5148 20.8316V20.5754L22.6123 20.5241H22.7098L22.7585 20.4217L22.7098 20.3704V20.2167L22.5636 20.1655H22.6123L22.3199 19.9605L22.2712 19.9093L22.2225 19.8068L21.9788 19.7043H21.7839V19.4994L21.8326 19.4481V19.3456H21.9788L22.1737 19.2432V19.0894H22.2225V19.0382L22.2712 18.8332H22.8072L22.9534 18.6795V18.6283L23.0021 18.3721H23.0509V18.3209L23.197 18.2184V18.1671L23.3432 18.1159H23.4894L23.5381 18.0134V17.9622L23.5869 17.9109V17.8597L23.6356 17.8085V17.6548L23.6843 17.6035L23.7818 17.5523L23.8305 17.6035H24.0254L24.1716 17.501V17.4498L24.0254 17.2448L23.9767 17.1936V17.0911H23.928V16.8862L23.9767 16.7324V16.6812H24.0254V16.63H24.0742V16.5275L24.1229 16.425V16.3738L24.2203 16.2201V15.9639L24.1229 15.7589V15.6564H23.9767L23.8792 15.4515L23.7818 15.349V15.2978L23.7331 15.1953V15.0928L23.6843 14.9903V14.9391H23.5869L23.5381 15.0416L23.4894 15.1953L23.392 15.2465V15.2978H23.3432L23.0996 15.2465L23.0021 15.1953L22.8559 15.144H22.7585L22.8072 15.0416H22.1737L22.125 14.9903L21.9301 14.8878L21.8814 14.8366L21.7839 14.7854L21.8326 14.3755L21.7352 14.2217L21.6377 14.0168H21.6865L21.7839 14.068H21.8814L21.9301 13.9143H22.0276L22.125 13.9655L22.1737 13.9143L21.8814 13.6581V13.5556L21.9301 13.3507V13.2994L21.8326 13.197L21.8814 13.1457H21.9301L21.9788 13.0945L22.0276 12.992H22.1737L22.2225 12.9408H22.4661L22.5148 12.992L22.5636 12.9408H22.8072L22.8559 12.8895L22.9047 12.9408H23.0509L23.1483 12.992V13.0432H23.4894L23.5381 12.992H23.5869L23.6356 13.0432L23.6843 12.992V13.0432H23.7331L23.8792 13.0945H23.928L24.0254 12.992V12.6333L24.0742 12.1209V11.1474L24.2203 10.84L24.1716 10.7375V10.6862L24.2691 10.5325L24.5614 10.0201L24.7564 9.66146L24.8538 9.25155L24.9025 8.99536L24.9513 8.94412V8.89288L24.8538 8.43173V7.76562L24.7076 7.66314V7.45818L24.7564 7.40695V7.25323L24.8051 7.09951H24.8538L24.9025 7.04827H25L24.9025 6.99703L24.8538 6.94579L24.9025 6.89456V6.63836L24.8538 6.48464V6.4334H24.8051L24.6589 6.38217H24.6102V6.33093H24.4153V6.27969H24.2203L24.1716 6.22845H24.1229L24.0254 6.12597V5.97225L24.0742 5.92101L24.0254 5.81854V5.7673H24.0742L24.1229 5.66482V5.61358L24.0254 5.66482L23.9767 5.71606H23.6843L23.5869 5.66482V5.61358H23.4894L23.2945 5.5111V5.56234L23.0996 5.45986H23.0509V5.40862H23.0996L22.9534 5.25491H22.9047L22.8559 5.20367V4.94747L22.8072 4.89623V4.69128L22.7585 4.5888H22.7098V4.43508L22.7585 4.28137V4.23013L22.6123 4.07641L22.5148 4.02517L22.4661 4.12765L22.5148 4.17889H22.4174H22.3687V4.12765L22.4174 4.17889V4.12765L22.4661 4.02517H22.4174L22.3199 3.97393L22.2225 4.07641L22.1737 4.02517L22.0763 3.97393H21.9301L21.8814 3.92269ZM23.0996 5.40862L23.1483 5.45986V5.40862H23.0996ZM24.8538 6.4334V6.33093L24.8051 6.38217L24.8538 6.4334ZM10.3327 26.8778H10.2352L10.2839 26.929L10.3327 26.8778ZM1.90261 24.6233H1.95134V24.7257H2.00007V24.8282H2.0488L2.09753 24.8795H2.14625L2.24371 24.9819L2.29244 24.9307V24.9819H2.24371L2.34117 25.0844V25.1869L2.29244 25.2381L2.34117 25.2894V25.3406L2.3899 25.2381H2.43863L2.48735 25.1356L2.53608 25.0844L2.731 25.0332H2.82846L2.87718 25.0844H3.0721V25.0332H3.21828L3.31574 25.1356H3.4132L3.46193 25.0332H3.55939L3.60811 24.9819V24.8282H3.55939V24.777L3.51066 24.7257L3.46193 24.6233V24.572L3.4132 24.5208H3.31574V24.4695H3.21828L3.12083 24.5208L3.0721 24.4695H2.97464L2.87718 24.5208L2.82846 24.572L2.731 24.5208L2.63354 24.572H2.58481L2.53608 24.6233H2.48735L2.43863 24.572H2.3899L2.34117 24.5208H2.24371V24.4695H2.19498V24.5208L1.90261 24.6233ZM4.72887 21.9076L4.68014 21.9588H4.72887V21.9076ZM9.65047 9.61022V9.55898H9.60174L9.65047 9.61022ZM10.7225 16.1688V16.2201H10.7712L10.7225 16.1688ZM14.9132 16.2713L14.8157 16.2201L14.8644 16.2713H14.9132ZM12.2524 15.6052L12.3305 15.554L12.2331 15.6052H12.2524ZM13.2564 8.17553L13.1102 8.32925H13.0127L13.0615 8.38049H13.1102L13.1589 8.32925L13.2564 8.17553ZM13.5975 7.15075V7.09951L13.5488 7.15075H13.5975ZM18.6165 5.25491V5.30615L18.6653 5.35739L18.6165 5.25491ZM18.3242 5.56234H18.3729V5.61358L18.3242 5.56234ZM18.2267 5.61358H18.2754L18.2267 5.66482V5.61358ZM13.4513 8.68792H13.5L13.4513 8.73916V8.68792ZM11.4341 12.6227L11.4382 12.6248L11.4077 12.6397L11.4341 12.6227ZM11.292 12.7273L11.2819 12.7369V12.7358L11.292 12.7273ZM11.2819 12.755L11.2859 12.787L11.2128 12.7988L11.2118 12.7977L11.1123 12.8383L11.2098 12.7977H11.2118L11.2819 12.786V12.755ZM15.5466 13.5556V13.6069H15.5954V13.6581L15.6441 13.7093V13.6581H15.6928L15.7416 13.6069L15.6928 13.5556H15.5466ZM11.5509 15.0416V15.144L11.5022 15.2465H11.5509L11.5996 15.1953H11.6483L11.6971 15.144H11.7458V15.0928L11.6483 15.144L11.5509 15.0416ZM7.21404 22.215H7.26276L7.21404 22.2663V22.215Z" fill="black"/>
<path fill-rule="evenodd" clip-rule="evenodd" d="M17.5921 4.17776L17.5434 4.229H17.4947V4.12652L17.5434 4.07528H17.5921V4.17776Z" fill="black"/>
<path fill-rule="evenodd" clip-rule="evenodd" d="M15.8388 4.07641L16.4723 4.02517L16.7647 3.97393H16.9109L17.0083 4.02517H17.057V4.12765H16.6185L16.4236 4.23013H16.3748L15.985 4.3326H15.7901L15.6439 4.28137H15.449V4.3326L15.3515 4.43508H15.2541L15.2053 4.48632H15.1566L15.1079 4.53756L15.0592 4.48632H14.9617L14.913 4.43508L14.8155 4.38384L14.7668 4.28137V4.23013L14.8155 4.17889L14.8642 4.07641L15.0104 3.92269H15.1079L15.1566 3.97393H15.2053L15.2541 4.02517H15.2053L15.1566 3.97393H15.0104L14.9617 4.02517H15.1079L15.3028 4.07641H15.8388Z" fill="black"/>
<path fill-rule="evenodd" clip-rule="evenodd" d="M19.3947 3.51193V3.61441H19.1998L19.1024 3.66564L18.9562 3.71688L18.9074 3.76812V3.81936L18.81 3.8706H18.6151L18.4689 3.92184H18.2252L18.1765 4.02432V4.07556H18.1278V4.1268H18.0303V4.17804L17.9816 4.07556V4.02432H18.0303L18.0791 3.97308L18.0303 3.92184V3.76812L18.0791 3.71688L18.1765 3.66564V3.61441H18.0303L18.0791 3.56317L18.1765 3.61441H18.3227L18.81 3.56317H18.9562L19.2485 3.51193L19.346 3.46069L19.3947 3.51193Z" fill="black"/>
<path fill-rule="evenodd" clip-rule="evenodd" d="M13.4515 4.69019L13.354 4.74143H13.3053L13.1104 4.94639H13.0129V4.99763H12.9642L12.9154 4.94639V4.99763H12.8667L12.818 5.04887H12.7692V5.10011L12.7205 5.04887H12.5743L12.4769 5.15134L12.4281 5.10011L12.3794 5.15134H12.3307L12.282 5.20258V5.25382H12.2332L12.1358 5.30506H12.1845L12.1358 5.3563H11.9896L11.9409 5.25382H11.8921V5.20258L11.9409 5.15134L12.1358 4.84391L12.3307 4.74143L12.5256 4.69019L12.818 4.63895H12.9154L13.2078 4.53648L13.4515 4.434L13.9875 4.22904H14.1337L14.2798 4.1778L14.3286 4.22904H14.3773L14.426 4.28028V4.38276V4.33152L14.3773 4.28028V4.33152L14.2798 4.434H14.1337L14.0362 4.48524L13.9875 4.434V4.48524H14.0362L13.9875 4.53648H13.89V4.48524H13.8413L13.89 4.53648V4.58771H13.7926L13.8413 4.63895H13.9387L13.89 4.69019H13.4515Z" fill="black"/>
<path fill-rule="evenodd" clip-rule="evenodd" d="M11.9377 5.86977L11.8403 5.97225H11.6941V6.02349H11.6454V5.97225L11.7428 5.86977H11.9377Z" fill="black"/>
<path fill-rule="evenodd" clip-rule="evenodd" d="M11.3069 5.92179V5.97303L11.2582 6.02427L11.1607 6.07551L10.8684 6.17799L10.7709 6.22923V6.38295H10.8196V6.33171H10.8684L10.8196 6.38295L10.7709 6.48542L10.6247 6.5879L10.576 6.63914H10.5273V6.69038L10.4785 6.74162L10.3811 6.79286H10.0887L10.04 6.8441V6.89534H9.99126V6.69038L10.2836 6.53666L10.4298 6.38295L10.5273 6.33171L10.6735 6.17799L10.8684 6.02427L10.9658 5.97303L11.0146 5.92179L11.1607 5.87056L11.3557 5.76808H11.4044L11.5506 5.81932V5.87056L11.5018 5.92179H11.3069Z" fill="black"/>
<path fill-rule="evenodd" clip-rule="evenodd" d="M8.86557 9.50649L8.81684 9.55773H8.76811V9.60897H8.71938L8.67065 9.55773V9.40401H8.81684L8.96303 9.35277H9.06048V9.40401L8.86557 9.50649Z" fill="black"/>
<path fill-rule="evenodd" clip-rule="evenodd" d="M10.0392 8.68757L9.89301 8.84128H9.74683L9.60064 9.04624V9.14872H9.50318L9.45445 9.09748L9.357 9.04624H9.30827L9.45445 9.19996H9.50318H9.40573V9.2512H9.30827L9.25954 9.30244H9.21081L9.16208 9.35368H9.11335V9.19996L9.06462 8.995V8.84128L9.11335 8.68757V8.63633L9.25954 8.17518L9.30827 8.12394L9.40573 7.97022L9.50318 7.76527L9.64937 7.61155V7.71403L9.79556 7.56031V7.50907L9.74683 7.56031L9.64937 7.61155L9.79556 7.30411L9.84428 7.25287L9.94174 7.20164V7.1504H10.0392L10.1367 7.25287V7.35535V7.40659L10.2341 7.50907L10.3316 7.66279V7.71403L10.2828 7.76527V8.27766L10.2341 8.38013H10.1854L10.1367 8.43137V8.53385L10.0392 8.63633V8.68757Z" fill="black"/>
<path fill-rule="evenodd" clip-rule="evenodd" d="M11.3026 9.8151L11.2539 9.86634H11.2052V9.8151H11.3026Z" fill="black"/>
<path fill-rule="evenodd" clip-rule="evenodd" d="M10.3814 10.43L10.2839 10.3788L10.1378 10.43L10.3329 10.3276L10.3816 10.2764L10.4791 10.2252H10.5278L10.6253 10.0715V10.0202L10.7227 9.91774H10.8202L10.8689 9.8665H10.9177L10.9664 9.91774H11.0151L11.0638 9.8665H11.1126L11.1613 9.91774V9.8665H11.21V9.96898L11.1613 9.91774L11.1611 10.0201H11.1123V10.1226L11.0149 10.2251H10.9661L10.8687 10.2763H10.82L10.7712 10.3788H10.4789V10.43H10.3814Z" fill="black"/>
<path fill-rule="evenodd" clip-rule="evenodd" d="M4.38893 21.8041L4.29147 21.8553H4.38893V21.8041ZM4.38893 21.8553L4.24274 21.9066H4.14529L4.24274 21.8553L3.80418 22.009L3.70673 22.0603H3.658L3.51181 22.1115H3.46308L3.41436 22.214V22.3165L3.46308 22.4702V22.5214H3.51181V22.5727H3.56054L3.658 22.5214V22.4702H3.60927V22.4189H3.75546L3.80418 22.3677H3.95037L4.04783 22.2652L4.14529 22.3165H4.24274L4.3402 22.3677V22.4189L4.38893 22.4702L4.43766 22.5727H4.48639V22.7264H4.43766V22.7776H4.48639L4.43766 22.8289V22.8801L4.48639 22.9826H4.53511V23.0338L4.58384 23.0851V23.1363L4.63257 23.2388V23.3412H4.73003L4.77876 23.3925L4.82749 23.3412V23.3925H5.11986L5.16859 23.4437L5.31477 23.495L5.3635 23.5974L5.41223 23.6487H5.55842V23.6999H5.65587L5.7046 23.7512H5.75333V23.8536L5.85079 23.9049L5.89952 23.9561H6.14316L6.24062 23.9049H6.3868L6.53299 23.8536L6.63045 23.8024L6.67918 23.7512L6.7279 23.6487V23.5974H6.67918V23.5462H6.87409L6.97155 23.495H6.92282V23.3925H6.87409L6.82536 23.4437H6.3868L6.28935 23.29H6.19189L6.14316 23.2388H6.09443L6.0457 23.1875V23.1363L5.94825 23.0851V22.9826H5.89952L5.60715 22.6751H5.55842V22.6239H5.46096L5.41223 22.5727H5.3635L5.26604 22.4702L5.16859 22.4189H5.11986L4.92494 22.3165L4.87622 22.2652L4.73003 22.214V22.1628L4.6813 22.1115H4.63257V22.1628L4.58384 22.1115H4.63257V22.009H4.58384V22.0603H4.53511V22.009L4.43766 21.9578V21.9066L4.38893 21.8553ZM3.46308 22.5727L3.41436 22.6751L3.36563 22.7264L3.26817 22.7776H3.3169L3.41436 22.8289L3.46308 22.8801H3.51181V22.8289L3.41436 22.7264L3.46308 22.5727Z" fill="black"/>
<path fill-rule="evenodd" clip-rule="evenodd" d="M4.0428 22.5732H3.94535L3.75043 22.6757H3.7017V22.6245L3.79916 22.5732V22.522L3.89662 22.4195V22.4707H3.94535L4.0428 22.5732Z" fill="black"/>
<path fill-rule="evenodd" clip-rule="evenodd" d="M6.28846 22.9314L6.38592 22.9827L6.53211 23.0339L6.62956 23.0851L6.67829 23.1364H6.62956L6.53211 23.1876H6.33719L6.23973 23.0851H6.191L6.09355 22.9827H6.04482L5.99609 22.9314L6.04482 22.8802H6.14228L6.28846 22.9314Z" fill="black"/>
<path fill-rule="evenodd" clip-rule="evenodd" d="M0.974573 26.6207V26.6719H0.877116L0.779659 26.7232H0.682201L0.633473 26.7744H0.389829V26.8256H0.341101L0.292372 26.8769H0.194915L0.146186 26.9281H0.0974573V26.9794L0.146186 27.0306V27.2356L0.194915 27.2868V27.3893L0 27.5942L0.146186 27.7479H0.0487287V27.7992L0.146186 27.9017V27.9529L0.0974573 28.0041L0.146186 28.0554H0.194915L0.243643 28.1579H0.292372L0.341101 28.2603L0.389829 28.2091L0.438558 28.2603V28.3628H0.487287L0.536015 28.4141H0.73093L1.12076 28.3628L1.07203 28.0041L1.0233 27.9529L1.12076 27.9017L1.16949 27.9529H1.21822V27.9017H1.31567V27.8504H1.3644L1.46186 27.9529L1.51059 27.9017L1.46186 27.7992L1.55932 27.7479L1.60805 27.7992L1.7055 27.8504L1.75423 27.9017L1.85169 27.9529H1.90042V27.9017H1.99788L2.09533 28.0041H2.14406L2.19279 28.0554V28.1066H2.33898L2.3877 28.1579V28.1066L2.58262 28.1579H2.63135L2.68008 28.2603H2.72881V28.2091L2.82626 28.3116H2.87499V28.3628L2.82626 28.4141V28.7727L2.87499 28.824H2.92372V28.7727L2.97245 28.824H3.31355L3.41101 28.7215H3.50846V28.824H3.45974L3.41101 28.8752L3.45974 28.9264H3.55719L3.65465 28.8752H3.70338L3.65465 28.7727L3.75211 28.7215L3.80084 28.824H3.84956V28.7727H3.94702L3.99575 28.7215V28.6702H4.09321L4.14194 28.5678H4.19067L4.23939 28.5165L4.33685 28.4653H4.38558V28.5165H4.43431L4.48304 28.4653V28.5165H4.58049L4.62922 28.4653H4.67795L4.82414 28.3116L5.01905 28.2091L5.2627 28.0041L5.31142 27.9529L5.79871 27.338H5.74998V27.2868H5.70125V27.1843L5.65253 27.2356V27.1331L5.6038 27.0818H5.50634L5.55507 27.0306H5.45761V27.0818L5.40888 27.1331V27.1843L5.45761 27.2356H5.50634V27.2868V27.338L5.45761 27.2868L5.40888 27.338H5.45761L5.40888 27.3893H5.45761V27.4405L5.40888 27.3893H5.31142L5.36015 27.4405V27.4917L5.31142 27.3893L5.2627 27.338H5.21397L5.2627 27.3893L5.31142 27.4405H5.2627V27.3893H5.21397V27.338V27.2868L5.11651 27.1843H4.97032V27.2356H5.11651L5.06778 27.2868V27.338L5.11651 27.2868L5.16524 27.338H5.11651V27.4405H5.16524V27.4917H5.11651L5.01905 27.2868H4.97032L4.82414 27.1843V27.1331H4.77541V27.1843L4.58049 27.1331L4.53177 27.0818V27.0306L4.48304 26.9794V26.9281L4.43431 26.8769L4.48304 26.8256H4.43431L4.38558 26.7744V26.7232H4.23939L4.19067 26.6719H4.09321L4.04448 26.7744V26.8256H3.99575V27.0818L3.94702 27.1331V27.0818L3.89829 27.1331H3.84956L3.70338 27.1843L3.60592 27.2356L3.55719 27.2868H3.50846V27.338H3.41101V27.3893L3.36228 27.4405H3.16736L3.11863 27.3893H3.06991V27.4405L3.02118 27.3893V27.4917L2.97245 27.3893V27.338H2.87499V27.2868H2.72881V27.4405L2.63135 27.3893V27.338L2.68008 27.2868H2.3877V27.2356L2.29025 27.1331H2.24152V27.0818L2.19279 27.0306H2.0466L1.94915 26.9794H1.90042L1.75423 26.9281H1.7055V26.8769H1.65677L1.55932 26.8256H1.51059L1.41313 26.7232H1.3644L1.31567 26.6719H1.26695V26.6207H0.974573ZM5.40888 27.338L5.36015 27.2868L5.31142 27.338H5.40888ZM5.36015 27.2868H5.45761H5.50634L5.45761 27.2356H5.40888V27.1843H5.36015V27.1331H5.2627V27.2356L5.31142 27.2868H5.36015ZM5.45761 27.1331L5.50634 27.1843H5.45761V27.1331ZM5.55507 27.1331H5.6038L5.55507 27.1843V27.1331ZM5.21397 27.4917H5.2627V27.543H5.21397V27.4917Z" fill="black"/>
<path fill-rule="evenodd" clip-rule="evenodd" d="M2.2364 25.1353L2.18767 25.0841V25.0328H2.2364L2.28513 25.0841V25.1353L2.2364 25.1866V25.1353Z" fill="black"/>
<path fill-rule="evenodd" clip-rule="evenodd" d="M2.44003 24.0075V24.1613L2.48875 24.2125L2.3913 24.1613V24.2637L2.34257 24.2125L2.29384 24.2637H2.34257V24.315H2.29384V24.2637L2.24511 24.315V24.3662V24.4687H2.19638L2.24511 24.3662V24.315L2.19638 24.2637L2.24511 24.1613L2.34257 24.11V24.0588H2.44003V24.0075Z" fill="black"/>
<path fill-rule="evenodd" clip-rule="evenodd" d="M19.3956 3.51154H19.493V3.56277L19.3956 3.61401V3.51154Z" fill="black"/>
<path fill-rule="evenodd" clip-rule="evenodd" d="M20.272 3.05124V3.10248L20.3695 3.20496H20.1746V3.30743H20.2233L20.1746 3.40991L20.1258 3.35867L20.0771 3.20496L20.0284 3.15372V3.10248L20.0771 3H20.2233L20.272 3.05124Z" fill="black"/>
<path fill-rule="evenodd" clip-rule="evenodd" d="M20.7583 3.10257H20.9532L21.0506 3.15381H20.7583L20.7095 3.20505V3.15381L20.7583 3.10257Z" fill="black"/>
<path fill-rule="evenodd" clip-rule="evenodd" d="M3.74839 23.0353V22.9841H3.79712L3.89458 23.0353H3.74839Z" fill="black"/>
<path fill-rule="evenodd" clip-rule="evenodd" d="M5.55683 24.1104L5.45937 24.0079V24.0592H5.41065L5.31319 23.9567L5.36192 23.9054H5.31319V23.9567H5.21573V23.9054H5.31319H5.45937H5.41065V23.9567H5.5081V24.0079L5.55683 24.0592V24.1104Z" fill="black"/>
<path fill-rule="evenodd" clip-rule="evenodd" d="M4.18859 22.8289H4.23732L4.28605 22.7776V22.8801L4.33478 23.0338L4.43224 23.1363L4.38351 23.1875H4.33478V23.1363L4.28605 23.0851V23.0338L4.23732 22.9313L4.18859 22.8801V22.8289Z" fill="black"/>
<path fill-rule="evenodd" clip-rule="evenodd" d="M4.04798 22.9319L3.99925 22.9831H3.90179V22.9319H4.09671H4.04798Z" fill="black"/>
<path fill-rule="evenodd" clip-rule="evenodd" d="M3.89828 24.161L3.84955 24.2122H3.75209L3.65464 24.161H3.60591H3.55718L3.60591 24.0585L3.55718 24.0072V23.9048H3.50845V23.8023L3.45972 23.6998L3.36226 23.6486L3.31353 23.6998V23.6486L3.16735 23.5973V23.4949L3.11862 23.4436H2.97243L2.92371 23.4949V23.5461H2.97243H2.87498L2.82625 23.6486L2.72879 23.6998H2.63133L2.53388 23.7511L2.48515 23.8023V23.9048H2.53388V23.956H2.48515L2.43642 23.9048H2.48515V23.8023L2.43642 23.7511H2.33896V23.6998L2.29023 23.6486L2.2415 23.5461V23.2899L2.29023 23.1874L2.38769 23.0849L2.48515 23.0337H2.5826L2.77752 22.9825L2.82625 22.9312H3.02116L3.16735 22.9825V22.88L3.21608 22.8288V22.7775H3.31353L3.26481 22.8288H3.31353L3.26481 22.88V22.8288H3.21608V22.88L3.16735 22.9825H3.50845L3.60591 22.9312L3.70336 23.0337V23.0849H3.84955L3.94701 23.0337L3.99574 23.0849H4.14192L4.19065 23.1362V23.2387L4.33684 23.3924L4.38556 23.4949V23.5973H4.58048L4.67794 23.6486L4.82412 23.7511H4.87285V23.8023H4.92158L5.01904 23.6998H5.26268L5.31141 23.6486H5.36014V23.8023H5.40887L5.36014 23.8535H5.31141L5.36014 23.8023L5.31141 23.7511V23.6998H5.26268V23.7511L5.21395 23.6998L5.06777 23.7511H5.01904L4.97031 23.8023H4.92158V23.8535L4.97031 23.9048V23.956L4.92158 24.0072H4.97031V23.956L4.92158 24.0072V24.0585H4.87285L4.82412 24.1097L4.77539 24.2122H4.72667L4.67794 24.2634L4.62921 24.2122L4.53175 24.2634L4.48302 24.3147H4.38556V24.3659H4.04446L3.94701 24.2634L3.89828 24.161Z" fill="black"/>
<path fill-rule="evenodd" clip-rule="evenodd" d="M6.96728 23.4965L6.91855 23.5477V23.599L6.86983 23.5477L6.96728 23.4965Z" fill="black"/>
</svg>
