<svg fill="currentColor" height="36" viewBox="0 0 23 36" width="23" xmlns="http://www.w3.org/2000/svg" focusable="false">
	<g clip-rule="evenodd" fill="currentColor" fill-rule="evenodd">
		<path d="m20.1309 3.8334-.0897.04628-.3586.04628-.0449.04628-.1345.04628h-.0448l-.0448.04628h-.0897l-.0897.09256h-.1344l-.1794.09256-.0448-.04628-.0448.04628h-.2242l-.1345.04628-.1793.04628h-.0897l-.0896.04628h-.0897l-.269.09257-.0448.04628v.04628l-.0896.04628-.0897-.09256-.2242-.13885h-.0448l-.1793.09257v-.04628h-.0448v.04628h-.0449v-.04628l-.0448.04628.0448.04628h.0449l.0448.04628h.0448l.0449.04628h.0448v.04628h-.1345v-.04628l-.0897-.04628v-.04628h-.0896l-.0449.09256h.0449l.0448.04628h.0448v.04628l-.0448.04628-.0448-.04628v.04628l.0448.04628h.2242v.04628h-.1345l-.0897-.04628v.04628l-.0448-.04628v.04628l.0448.04628h.2242l.0448-.04628v.09256h-.0448l.0448.04628.0448-.04628h.0448v.04628l-.0448.04628h-.0896v.04628l.0448.04628.0448-.04628h.0448l-.0448.04628h-.0448-.0448l.0448.04628v.04628h-.0448v-.04628l-.0449-.04628v-.04628h-.0448l.0448-.04628h-.0448l-.0448-.04628v.04628l-.0449.09256v-.09256l-.0896-.04628-.0449.04628v.04628l.0897.09256v.04628h-.0448v-.04628l-.0449.04628v-.04628l-.0448-.04628v-.18512l-.0448-.04628v-.04628l.0448-.04628h-.0448v-.09256l-.0449-.04628.0449-.09256v-.09256l.0896-.04628-.2241.09256h-.0448l-.0897-.04628h-.1345v.04628h-.0897l-.0448-.04628-.1793.04628h-.1345l-.0448.04628-.1794.04628h-.0896l-.1793.09256h-.2242v-.04628l-.0448-.04628v.09256l-.1793.09256-.0449.04628-.0896.04628-.0449.04628-.0896.04628h-.0897l-.1345.09256-.269.13884-.2241.13884h-.1345l-.0448.04628-.0897.04628h-.0448l-.0448.04628-.1794.09257-.1345.13884-.0448.09256-.0448.04628v.04628h-.0449v.04628l-.0896.04628-.0448.04628h-.0449l-.1345.13884h-.0448l-.0448.04628-.0449.09256h-.0448l-.0448.04628-.0448.09256-.0449.13884-.0448.04628v.04629h.0448l-.0448.04628-.0897.09256v.04628h.0449v.09256l-.0449.09256v.27768l-.0448.04628v.04628l-.0897.04628h-.0448l.0448.04628-.0448.04628v.04628l-.0448.04628h.0448l.0448.04628.0449.09256v.13885l.0448.09256h-.0448l.0448.04628h-.0448v-.04628-.09256h-.0449v-.09256h-.0896v-.04629h-.0449l.0449.09257v.04628l.0896.09256h-.0448v.09256h.0897v.13884l.0448-.04628v.04628h-.0448v.04628h.0448l.0448.04628v.13884l-.0448.04628v.09256l.0448.13884v.09256l.0449.04628v.01543l.0896-.06171-.0896.09256v-.03085l-.0449.03085v.13885h-.0448l-.0448.04628.0448.04628.0448.09256v.18512l-.0448.04628h-.0897l-.1793.18512.0448.04628v.09256h.0897v.04628h.0448l.1794.18517h.2241v-.0463l.1345.0463h.0897l.0448.0462.1793.0926h.0897v.0463h.0896l.0449-.0463h.0448v-.0463l.0448-.0463v-.0462l.0897-.0463.0897.0463.0448-.0463.0896-.04631h.0449l.0448.04631v.0925h.269v.0463h.0448l.0448-.0463v.0926h-.0448l-.2241.0463h-.0449v.0463l-.1345.2314-.2241.3702v.0463l-.0448.1388v.8794h.0448l.0897.0925.0896.1389.1345.1851.0448.0463h1.076l-.0449.0462v.1852l.0449.0462v.0463l-.1794-.0463.0449.0463h.0896v.0463l.0449.0463v.0925l.0896.0926v.0926l.0449.0462v.2314l-.0449.1389-.0448.0925v.0926l-.0448.0926v.0925l-.0449-.0463v.0926h-.0448v-.0926l.1793-.3702v-.3702l-.0448-.0926-.2242-.2314v-.0463h-.3138l-.1793-.0463-.4035-.1388h-.0448l-.0448-.0926h-.0449l-.0448.0463-.3138.0926h-.0448l-.0449.0463-.3586.3239v.0463h-.269v.0463l-.0448.1388v-.0463l-.0448.0926v.1851l-.0897.0463h-.0448l-.0449.0463-.0448.0925h-.0897v.0463l-.7621.5091-.1345.0926v.0463h-.0448v.0462h-.0719l-.2867.1852-.0449.0462-.1793.1389h-.0448v.0463l.0896.0925v.2314l-.0448.0463h.0448l.0449.0926h-.0449l.0449.0462.0448-.0462h.0448l.1794-.0463h.0896l.0448.0463h.1794l.1345.0462.0896.0926.1345.0463.0448.0463v.0462h.0449l.4034.3703.0449.0925h.0448l.0897.0463.0896-.0463.2242-.0925h.1345l.0448-.0463.1345-.0463h.0448l.0448-.1851.0449-.0463v-.1388h.0448v-.2314h-.0448v-.0463l-.0449-.0926.1794-.1851.0896.0463.1345-.0463h.0449l.0448-.0463h-.0448l.2689-.2776.3587-.1852h.0896l.0449.0463h.0448l.1793-.1388.0449-.0926.0896-.0925.0448-.0926.0449-.0463v.0463h.0448v.0463h-.0448l.0448.0463-.3138.3239-.0897.0463v.0463h-.0448l-.0448.0463h-.0449l-.0448.0462v.0463h-.0448v.0463h-.0897l-.0896.0463-.0449.0463h-.0448l-.0448.0462-.0897.0463h-.0448l-.0897.0926v.0463h-.0896v.0925h-.0449v.0463h-.0448v.0463h-.0448v.0463l-.0897.0462-.0897.0926v.0463l-.0448.0925v.0926l-.0448.0926v.0462l-.0449.0926-.0448.0463h-.2241l-.0897.0925-.0448-.0462-.0449.0462-.1344.0463h-.0897l-.0448.0463h-.0897l-.1345-.1388h-.0448v-.0463l-.0449-.0463h-.1344l-.0449-.0463h-.0896l-.1345-.1388v-.0463l.0448-.0463h-.0897l-.0448-.0463h-.0448l-.0448-.0462h-.0449v-.0463l-.0448-.0463-.0448.0463h-.269l-.0448.0463h-.0449l-.0448.0462h-.0448v-.0462h-.0449l-.0896-.0926-.0449-.0926h-.0448v-.0462h-.1345l-.0448-.0926h-.2242l-.0896.0463-.0449-.0463v.0463h-.0448v-.0463h.0448v-.0463l-.0448-.0463h-.0448l-.0448.0463h-.08971v-.0463h.04481v-.0925l-.08964-.0463h-.04483v.0463h-.04483l-.04483-.0463h-.04483v-.0463h.08966l.04483-.0463-.13449-.0925v-.0463l.08966.0463.04483.0463h.04483l.04483-.0463v.0463l.04481.0462.0449-.0462v-.0926h.0448l.0448-.0463v-.0925l.1345-.1389h.0897v-.0463l.0448-.0462v-.0463l.0897-.0926h-.0897l-.0448-.0463v.0463l-.0897-.0463v-.1388l.0448-.0463v-.0463h-.0448l-.0448.0463-.0449-.0463.0897-.0463h.0897v-.0462l-.0449-.0463v-.0926l.0449-.0463.0448.0463v-.0463l.0448-.0462.0449-.0926h-.0449v-.0926h-.0448v-.0462l-.0448-.0463v-.0463l-.0449-.0926v-.0462l-.0896-.1389v-.0463l-.0449-.0462v-.0926l-.0448-.0926v-.0462l-.0448-.0463.0448-.0463-.0448-.0463v-.2777h.0448v-.0462h.0448l.0449-.0463h.0896v.0463l.0449.0462v-.0462l.0448-.0463h.1345l.0896.0925h.0449l.0448.0463v.0463h.1793l.1345-.1388h.1345v-.0463l.0448-.0463h.0449v-.0463l.0896-.0463v-.0462l.0449-.0463v-.1389l.0448-.0925h.1345l.0448-.0463h.0448l-.0448-.0463h.0448l.0897-.0926-.0897-.0925v-.2777h-.0448l-.0448-.0463-.0897-.0463h-.1793l-.0448-.0462h-.1345l-.0448.0925-.0449.0463v.0463l-.0448-.0463h-.1345l-.1793-.1851.0448-.0926h-.0448l-.0449-.0463h-.0448l.0897-.6942-.0897-.13881-.1345-.27768v-.04628l-.0448-.04628-.1345-.27768h-.0448-.0449v.09256l-.0896.09256h-.0448l-.08971.04628h-.04483l-.04483.09256h-.26898v.04628h-.08966l-.08966-.04628-.13449.04628-.04483-.04628-.1345-.09256h-.04483l-.13449-.09256-.08966-.09256-.04483-.09256v-.18512l.04483-.09256v-.04629h-.04483v.04629h-.08966v-.09257h-.26898l-.08966.13885v.18512l-.04483.13884v.32396l-.08966.27768-.04483.27771-.08966.2777v.0925h-.04484v.0926l-.08966.1851v.0926l-.08966.2776v.324l-.04483.1851v.1852l-.04483.1851v.2314l-.04483.0463v.0462l-.04483.324-.04483.4165-.04483.2314-.13449.2777-.04483.1388.08966-.0462h.04483l.08966-.0463.04483.0463h-.04483v.0462h-.08966l-.04483.0463h.08966v.0463l-.08966-.0463h-.04483v.0463l-.08966-.0463v.0926l.04483.0926-.04483.0462v.0926l-.04483.0926-.04483.1851-.04483.1388-.08966.2314-.17932.3703-.26899.6016-.08966.1388-.04483.0926-.13449.2314-.04483.0463v.0463l-.08966.1388-.04483.0926-.40347.5553-.13449.0926v.0463l-.08967.0925h-.04483v.0926h.04483l-.04483.0463v-.0463h-.04483l-.04483.0463-.04483.0925-.26898.2777-.13449.1851-.17932.1852v.0462l-.08966.1389-.08966.0463-.08966.0925h-.04483l-.04483-.0463-.22416-.0462-.04483.0462h-.08966l-.04483.0463v.0463l-.04483.0463-.04483.0926.08966.0925v.0463l-.08966.0926-.04483.0925-.08966.1389h.08966l.04483.0462.04483-.0462.17932-.0463h.04483l.04483.0925h-.04483v.0463l-.08966.0926v.0463l-.04483.0462v.0463l.04483.0463.17932.2777v.0925l-.04483.0463.08966-.0463.1345.1389v.0463h.17932l-.04483.0462.04483.0463h.04483v-.0463h.13449l.04483.0463.08966.1389h.13449v.0462h.08966l.04483.0926.04483.0463h.08966l-.04483.0463h-.04483l.04483.0925.04483.0463.13449.0463v.0463h.08966l.08967.0463h.08966v.0462l.17932.0463.08966.0926h.04483l.08966.0463.13449.0925h.04483l.04483.0463h.08966v.0463h.22415l.08967.0463h.08966l.04483.0462h.04483l.04483.0463h.04483l.08966-.0463h.04483l.13449-.0462h.04483l.04483-.0463h.08966l.04483-.0926.04483.0463h.04483l.08966-.0463v.0926l-.08966.0463-.04483.0462h-.04483l-.08966.0926-.35864.0926h-.08966l-.13449.0462h-.08966l-.1345-.0462-.04483-.0463h-.04483l-.04483-.0463h-.13449l-.04483.0463-.08966.0463-.04483.0462v.0463l-.04483.0926-.13449.1388-.08966.0463h-.04483l-.04483.0463h-.04483v-.0463h-.04483l-.04483.0463h-.1345l-.04483.0463h-.08966l-.04483.0925h-.04483v-.0463h-.13449l-.08966-.0462h-.13449-.04483l-.08966-.0463-.13449-.0926h-.04483l-.13449-.0463v.0463l-.08966.0926h-.04483l.04483.0925h.04483l.08966.1852h.26898v-.0463h.04483v.0925l-.04483.0463h-.22415l-.04483.0463h-.04483l-.08966-.0926-.17933-.0462h-.04483l-.08966.0462-.04483.0463h-.04483l-.08966.0463-.04483.0463-.04483-.0463-.08966.0463-.04483.0463v.0925h.04483v.0463h.08966l.08966.0926h.04483v.0925l.04483.0463h.04483l.08966.0926v.0925l.04483.0463h.04483v.0463h.35865l.04483.0463h.04483v-.0463l.17932.0926-.04483.0462v.0926h.04483l.17932.0926.04483.0462v.324l.04483.1851h-.13449l-.04483-.0463h-.13449l-.04483.0463h-.04483l-.04483.0463h-.13449v-.0463h-.04483l-.13449-.0925h-.04484l-.04483-.1389h-.04483l-.08966-.1388v-.0463l-.04483-.0463.04483-.0463-.04483-.0462v-.0926h-.04483l-.17932-.1851h-.08966l-.04483-.0463h-.04483l-.08966-.0463h-.04483l-.04483-.0463-.04483.0463h-.04483v.0463l-.08966-.1389h.04483l-.04483-.0462v-.0463h-.13449l-.04484.0463h-.31381v-.0463l-.04483-.0463h-.08966l-.08966.0463h-.04483l-.04483.0463-.13449-.0463h-.04483l-.04483-.0463-.04483.0463-.08966.0463v.0462l-.04483.0463v.0463l-.04483.0463h-.04483l-.04483.0463h.08966l-.08966.0463v-.0463l-.1345-.1389v-.0463l-.04483-.1388v-.0463h-.04483l-.04483-.0463-.08966-.0462-.08966-.0926v-.1388l.04483-.0463h-.08966l-.04483-.0463h-.31381v.0463h-.08966l-.04483.0463-.08966.0462-.04483.0463-.089665.0463h-.04483l-.089661.0926-.089661.0462-.04483.0463h-.044831l-.08966.0926v.1388l.04483.0926h.04483l.089661.0926.089661.0462v.0463h.04483l.089661.0926v.0463l.04483.0462v.0463l.044835.0463v.0463l.08966.0925.08966.0463v.0463h.04483l.04483.0463v.0463h.17932v-.1389h.04483v.0926l.04483.0463h.13449l.04483-.0463v-.0463h.17932l-.08966-.0463.04483-.0463.08966-.0462h.04483v.0462l.1345-.0925v-.0926l.04483.0463v.0463h.04483l-.04483.0463h-.04483l-.08967.0462.08967.0463h.08966l-.04483.0463.04483.0463v.0463l-.04483-.0463-.04483.0463h-.04484l.04484-.0926-.08967-.0463-.04483-.0463-.04483.0926.04483.0463.1345.0925.04483.0463v.0463h.04483v.1388h.04483l.04483.0463h.04483v-.0463h.04483l.08966.0463h.04483v.0463l.08966.0463v.0463h.04483l.08966.0925h.13449l.08966-.0463h.04483l.04483-.0462h.13449l.04483.0462.04483-.0462.04484-.1852h.04483v-.0925h.04483v-.2777l.08966.0463.08966-.0463h.04483l.08966-.0926.13449.1389v.0463h.04483v.0462h.08966l.08966.0926h.08966v.1388l.08966.0463h.04483l.04483.0463h.04483l.17933.0926h.08966l.04483.0462h.08966l.13449-.0462.08966-.0463h.08966v.0463h.08966l.08966.0462.04483.1389v.0925h.13449l.08966-.0462h.31382v.0462l.04483.0463v.1389l.04483-.0463.13449.0463h.17932l.04483-.0463.08966-.0463h.04483v-.0926l-.22415-.3239-.04483-.1389.04483-.0462h.04483v-.1852h-.04483l-.04483-.0462.04483-.0463.31381-.1389h.08966l.08966-.0925h.08966l.31382-.0463.04483.0926-.08966.2314.04483.2776.22415-.0925h.13449l.17932.0463.08966.0462h.04483v-.0462l.04483.0462.08966-.0462-.04483-.1852.13449-.0462h.04484l.04483-.1389.08966-.0463.04483-.0462.04483-.0926.08966-.0463.04483-.0463-.04483-.0462h.08966v-.0463l.08966-.0463.04483.0463v.0463h.08966l.08966.0462h.04483v.0926l.04483.0463.04483-.0463.04483.0463-.04483.0925v.0926h.04483v.0463h-.04483l-.08966.0925.04483.1852v.0462h.08966v.0463h-.04483l-.13449-.0463-.04483-.0462h-.08966v-.0463h-.04483l-.08966.0463v.0925l.04483.0463.08966.0463h.04483l.13449-.0463h.17932l.04483.0463h.04483v-.0463h.17933l.08966.0926v.0462h.04483l.04483.0463h.04483l.17932-.2777.26898-.1851v-.0925h.04481v-.0463l-.04481-.0463v-.0463l.04481-.0463v-.0462l.0449-.0463.0896-.0463h.0448l-.0448.0463.0448.0463v.0462h.2242l.1345.4166-.1793.3702.2689.324v.0462l.0897.0926v.324l.1793.0463.0449-.0463.1345-.0463h.0448v-.0463l.269.1851-.0897.3703.0448.0463.1794-.0463.1793.0463h.2241l.0449-.0463.0448-.0926.1345.0463.1793.0463.0897.0463.1793-.1852.1345-.0462.0896-.0926v-.0463h.0449l.1793.0463v.0463l.0448.0925.1345.0926.0448.0463v.2777l.0449.1851h.0448l.0897.0463.3586.1388.0448.0463v.0463l.0449.0925.0448-.0463.0448.0463h.3587l.0448-.0463h.0448l.0449.0463h.0896l.0449.0463v.0463h.0448l-.0448.0463h-.0449v.0462h.0449v.1389h.0448v-.0463h.0896v-.0463h.0897v-.0463l.0897-.0462v.0462h.0448v.0926l.1345.0926-.0897.0925v.0463l-.0896.0463h-.0449v.0463l-.0896.0925.0448.0463h.0897l.0448.0463v.0463l-.0448.0462v.0463h-.0449l-.0448-.0463h-.0897v.0926l.0449.0463v.0463h-.0449v.0463l.0449.0925h-.0449v.0463h-.0448l-.0896-.0463-.0449.1389v.0925l-.0448.0463v.0463h.0448l.0449.0463v.0462l-.0449.0926v.1388l-.0896.0926-.0449.0926h-.0448l-.0897.1851v.0463h.0897l.0448-.0463h.0449l.0448.0463v.0462l-.0897.0463v.0926l-.0896.0925v.0463l-.0449.0463.0449.0463-.0449.0463h-.1345l-.0448.0462v.0926l-.0896.0926v.0462h-.0449l-.0448.0463h-.0448v.0463h-.0897l.0448.0463-.0448.0463v.2777h.0448v.0925h.0449v.0463l.0448.0463h.0897v.0463h.0896l.0448.0462v.0463l-.0448.0463.0448.1388v.0926l-.0896.1388v.0463h.0896l.0449-.0463h.0448l.0448-.0462v.0462l.0449.0463h.0448l.0448-.0463v-.0462l.0449-.0463.0896-.1389h.0897v.0926l.0448.0926.0448-.0463.0897.1388h.0448l.0449-.0463.0448.0463.0897-.0925v.1388l.0896-.0926v-.0462h.0897l.0896-.0463v.1388l.0897.0463v-.0463h.0897v.0463l.0896-.0463.0448-.0463h.1794l.0448.0463.0897.0463h.0448v-.0463h.1345v-.0925l.0448-.0926-.1345-.0926h-.0448l-.0448-.0462v-.0463h-.0449l-.0448-.0463v-.0926l.0448-.0462.0449.0462.0896.0463.0449-.0925.0448-.0463v-.0463h.0448l-.0448-.0463v-.0463l-.0448-.0462v-.0926l.0448-.0463h.0896l.0449-.0463h.0448v-.0462h.0448v.0462l.0897.0463v-.1388h.0448v-.0463l.0449-.0463v-.0926l-.0449-.0462v.0462l-.0448-.0925v-.0926l.0448-.0463v-.0462l.0449-.0463v-.0463l-.0449-.0463h-.1793v-.0925l-.0448.0462-.0449-.0462-.1344-.0463v-.1389l-.0897-.0462.0448-.0463h.0449v-.0463l.0448-.1851h-.269l-.0448.0463h-.0449l-.0448-.0463v-.0463h-.0448l-.0897.0463h-.0448l-.0448.0463h-.0449l-.0448.0462h-.0448l-.0449-.0462.0897-.0926v-.1388h-.0448l-.0449-.0463v-.0463h-.0448v-.0463h-.0448v-.2314l-.0449-.0463-.0448-.0925h.1793v-.0463l.0897-.0463.0448-.0463v.0463l.0897.1389.0448.0925v.0463l.0448-.0463h.0449v.0463h.0448v-.0463l.0448-.0463v-.0462l.0449-.0463v-.0926l.0448-.0463v-.0462l.0448-.0463v-.0463l.0449-.0463.0896-.0463.0449-.0463.0896-.0462h.0448l.0897-.0926v-.0463l.0448-.0463h.0897l.0448-.0462v-.0926l.0449-.0463h.0896l.0448-.0463h.0449v-.0462h.0896l.0449-.0463h.1345l-.0449-.0463h.0449l.0448-.0463-.1793-.1388h-.0449l.269-.1389-.0896-.0925-.269.1388-.0897.0926h-.1793v-.0463l-.0448-.0463v-.3239l-.0449-.0463.0449-.0463h.0896l-.0896-.1851.0896-.0463.0449-.0926.1793-.1851v-.0463l.0448-.0462.0897-.1389.0448-.0925v-.0463l.0448-.0463v-.0926l.0449-.0463v-.0462h.1345v-.0463l.2241-.2314-.0448-.1389-.0449-.0925v-.0463l.0897-.0926h-.1345v-.0462l.0448-.2777v-.1389h.0449l-.0449-.0925.0449-.0463v-.1388l-.0897-.1852.0448-.0925-.0448-.0463v-.1388l-.0448-.0926-.1793-.0926-.0897-.2777-.0897-.0462-.0896-.0926-.0449-.0926v-.0462h-.0448l-.1345-.0926v-.1851h.0449v-.0463l.0448-.1388v-.0463l.0448-.0463v-.0463l-.0896-.0463h-.0897v-.0462h-.0897l-.2241-.0926-.0448-.0463v-.0925l.0448-.0463-.0448-.0463v-.1388h.0896v-.0463h-.0448v-.0926h-.0448l-.1345-.0925-.0449-.0463h-.269v-.0926l.0449-.0463.0896-.0462h.0449l.0448-.0926v-.0463h-.0448v-.0926h.0448l-.0448-.0462h-.0449v-.1389l-.0896-.0925h-.0897v-.0463l.0448-.0463h.0449l-.0897-.0463.0897-.1388h.0448v.0463h.1345l.0897-.0463h.0448l.0897-.0926.0448.0463.0896-.0926h.0449l-.0449-.0462.0897-.0926.1345.1388h.0897l.1793.0463h.1345l.0448.0463v-.2314l-.0897-.0463h-.0448v-.0925l-.0448-.0926-.0449-.0463h-.1344l.0448-.0463v-.0462h.0448l.0448.0462.1794-.0925.0448.0463h.0448l.0449.0462.0896.0463v.0463h-.0896l.1345.1388.0896.0463h.0897v-.0463h.0896l.0449.0463h.0448v-.0463h.0448v-.0462l.0449.0462.1344.0463v.0463l.0449.0926v.0462l.0896-.0462h.1345l.0449.0462h.0448l.0448.0463v.0926h.1345l.0897.0463h.0448l-.0448-.0926.0448.0463-.0448-.0926v-.0463l.0448-.0462h-.0448v-.0463h-.0449l-.0448-.0463v-.1388l.0897.0462h.0448l.0448.0463h.0449v.0463h.0896l.0449-.0463.0448.0926h.0448l.0448.0463.0449-.0463.1345-.0463v-.0926h.0448l.0448-.0462h.0897l.0448-.0463v-.0463h.0448l.0449-.0463v.0463h.0448l.0448-.0463.0897-.0463.2242-.0925h.0896v-.0463l.1793-.0926h.0449l.0448-.0462v.0462h.0897v.0463l.1344.1389.0897-.0463v-.0463h.0448l.0449-.0463h.0448v-.0463l.0448-.0462h.0449l.0896-.1389.0449-.0463v-.2314l.0896-.0462h.0897l.0448-.0926-.0448-.0463v-.1388l-.1345-.0463h.0448l-.269-.1851-.0448-.0463-.0448-.0926-.2242-.0925h-.1793v-.1852l.0448-.0462v-.0926h.1345l.1793-.0926v-.1388h.0449v-.0463l.0448-.1851h.4931l.1345-.1388v-.0463l.0449-.2314h.0448v-.0463l.1345-.0926v-.0462l.1345-.0463h.1345l.0448-.0926v-.0463l.0448-.0462v-.0463l.0448-.0463v-.1389l.0449-.0462.0896-.0463.0449.0463h.1793l.1345-.0926v-.0463l-.1345-.1851-.0448-.0463v-.0925h-.0449v-.1852l.0449-.1388v-.0463h.0448v-.0463h.0448v-.0925l.0449-.0926v-.0463l.0896-.1388v-.2314l-.0896-.1851v-.0926h-.1345l-.0897-.1851-.0897-.0926v-.0462l-.0448-.0926v-.0926l-.0448-.0925v-.0463h-.0897l-.0448.0925-.0448.1389-.0897.0463v.0463h-.0448l-.2242-.0463-.0896-.0463-.1345-.0463h-.0897l.0448-.0926h-.5828l-.0448-.0462-.1793-.0926-.0448-.0463-.0897-.0463.0448-.3702-.0896-.1388-.0897-.1852h.0448l.0897.0463h.0897l.0448-.1388h.0896l.0897.0463.0448-.0463-.2689-.2314v-.0926l.0448-.1851v-.0463l-.0897-.0925.0449-.0463h.0448l.0448-.0463.0448-.0926h.1345l.0449-.0462h.2241l.0449.0462.0448-.0462h.2241l.0449-.0463.0448.0463h.1345l.0896.0462v.0463h.3139l.0448-.0463h.0448l.0448.0463.0449-.0463v.0463h.0448l.1345.0463h.0448l.0897-.0926v-.3239l.0448-.4628v-.8794l.1345-.2776-.0448-.09261v-.04628l.0896-.13884.269-.4628.1793-.32396.0897-.37025.0448-.2314.0449-.04628v-.04628l-.0897-.41652v-.60165l-.1345-.09256v-.18512l.0448-.04628v-.13884l.0449-.13884h.0448l.0448-.04629h.0897l-.0897-.04628-.0448-.04628.0448-.04628v-.2314l-.0448-.13884v-.04628h-.0448l-.1345-.04628h-.0448v-.04628h-.1794v-.04628h-.1793l-.0448-.04628h-.0448l-.0897-.09256v-.13884l.0448-.04628-.0448-.09257v-.04628h.0448l.0449-.09256v-.04628l-.0897.04628-.0448.04628h-.269l-.0897-.04628v-.04628h-.0896l-.1794-.09256v.04628l-.1793-.09256h-.0448v-.04628h.0448l-.1345-.13884h-.0448l-.0448-.04628v-.2314l-.0449-.04628v-.18512l-.0448-.09256h-.0448v-.13885l.0448-.13884v-.04628l-.1345-.13884-.0896-.04628-.0449.09256.0449.04628h-.0897-.0448v-.04628l.0448.04628v-.04628l.0448-.09256h-.0448l-.0897-.04628-.0896.09256-.0449-.04628-.0896-.04628h-.1345zm1.1207 1.34213.0448.04628v-.04628zm1.6139.92561v-.09256l-.0448.04628zm-13.35944 18.46586h-.08966l.04483.0463zm-7.75566-2.0363h.04483v.0925h.04483v.0926h.04483l.04483.0463h.04483l.08966.0925.04483-.0462v.0462h-.04483l.08967.0926v.0926l-.04484.0462.04484.0463v.0463l.04483-.0926h.04483l.04483-.0925.04483-.0463.17932-.0463h.08966l.04483.0463h.17932v-.0463h.13449l.08966.0926h.08966l.04483-.0926h.08966l.04483-.0463v-.1388h-.04483v-.0463l-.04483-.0463-.04483-.0925v-.0463l-.04483-.0463h-.08966v-.0463h-.08966l-.08966.0463-.04483-.0463h-.08966l-.08966.0463-.04483.0463-.08966-.0463-.08966.0463h-.04483l-.04483.0463h-.04483l-.04483-.0463h-.04483l-.04483-.0463h-.08967v-.0463h-.04483v.0463zm2.60016-2.4529-.04483.0463h.04483zm4.52787-11.10728v-.04628h-.04483zm.98627 5.92388v.0463h.04483zm3.8554.0926-.0896-.0463.0448.0463zm-2.4479-.6017.0719-.0462-.0897.0462zm.9237-6.71063-.1345.13884h-.0897l.0449.04629h.0448l.0448-.04629zm.3138-.9256v-.04628l-.0448.04628zm4.6175-1.71238v.04628l.0449.04628zm-.269.27768h.0449v.04628zm-.0896.04628h.0448l-.0448.04628zm-4.3934 2.77683h.0448l-.0448.04628zm-1.8558 3.55392.0037.002-.028.0135zm-.1307.0945-.0094.0087v-.001zm-.0094.0251.0038.0289-.0673.0106-.0009-.0009-.0916.0366.0897-.0366h.0019l.0644-.0107zm3.9236.7231v.0463h.0448v.0463l.0449.0463v-.0463h.0448l.0448-.0463-.0448-.0463zm-3.6761 1.3421v.0926l-.0448.0926h.0448l.0448-.0463h.0449l.0448-.0463h.0448v-.0463l-.0896.0463zm-3.98989 6.4793h.04483l-.04483.0463z" />
		<path d="m16.1848 4.06378-.0449.04628h-.0448v-.09256l.0448-.04628h.0449z" />
		<path d="m14.5717 3.97224.5828-.04628.269-.04628h.1345l.0896.04628h.0449v.09256h-.4035l-.1793.09256h-.0449l-.3586.09256h-.1793l-.1345-.04628h-.1793v.04628l-.0897.09256h-.0897l-.0448.04628h-.0448l-.0448.04628-.0449-.04628h-.0896l-.0449-.04628-.0896-.04628-.0449-.09256v-.04628l.0449-.04628.0448-.09256.1345-.13884h.0897l.0448.04628h.0448l.0448.04628h-.0448l-.0448-.04628h-.1345l-.0448.04628h.1345l.1793.04628z" />
		<path d="m17.8432 3.46239v.09256h-.1794l-.0896.04628-.1345.04628-.0449.04628v.04628l-.0896.04628h-.1793l-.1345.04628h-.2242l-.0448.09256v.04628h-.0448v.04628h-.0897v.04628l-.0448-.09256v-.04628h.0448l.0448-.04628-.0448-.04628v-.13884l.0448-.04628.0897-.04628v-.04628h-.1345l.0448-.04628.0897.04628h.1345l.4483-.04628h.1345l.269-.04628.0896-.04628z" />
		<path d="m12.3753 4.52663-.0896.04628h-.0449l-.1793.18512h-.0896v.04628h-.0449l-.0448-.04628v.04628h-.0448l-.0449.04628h-.0448v.04628l-.0448-.04628h-.1345l-.0897.09256-.0448-.04628-.0448.04628h-.0449l-.0448.04628v.04628h-.0448l-.0897.04628h.0448l-.0448.04628h-.1345l-.0448-.09256h-.0448v-.04628l.0448-.04628.1793-.27768.1793-.09256.1794-.04628.2689-.04628h.0897l.269-.09257.2241-.09256.4932-.18512h.1345l.1345-.04628.0448.04628h.0448l.0448.04628v.09256-.04628l-.0448-.04628v.04628l-.0896.09256h-.1345l-.0897.04628-.0448-.04628v.04628h.0448l-.0448.04628h-.0897v-.04628h-.0448l.0448.04628v.04628h-.0897l.0449.04629h.0896l-.0448.04628z" />
		<path d="m10.9827 5.59205-.0897.09256h-.1344v.04628h-.0449v-.04628l.0897-.09256z" />
		<path d="m10.4024 5.63904v.04628l-.0449.04628-.0896.04628-.26899.09256-.08967.04628v.13884h.04483v-.04628h.04484l-.04484.04628-.04483.09256-.13449.09257-.04483.04628h-.04483v.04628l-.04483.04628-.08966.04628h-.26898l-.04483.04628v.04628h-.04483v-.18512l.26898-.13884.13449-.13885.08966-.04628.13449-.13884.17933-.13884.08969-.04628.0448-.04628.1345-.04628.1793-.09256h.0448l.1345.04628v.04628l-.0448.04628z" />
		<path d="m8.15632 8.87683-.04483.04628h-.04483v.04628h-.04483l-.04483-.04628v-.13884h.13449l.13449-.04628h.08966v.04628z" />
		<path d="m9.23606 8.13716-.13449.13884h-.13449l-.13449.18512v.09256h-.08966l-.04483-.04628-.08966-.04628h-.04483l.13449.13884h.04483-.08966v.04628h-.08966l-.04483.04628h-.04483l-.04483.04628h-.04483v-.13884l-.04483-.18512v-.13884l.04483-.13884v-.04628l.13449-.41653.04483-.04628.08966-.13884.08966-.18512.13449-.13884v.09256l.13449-.13884v-.04628l-.04483.04628-.08966.04628.13449-.27768.04483-.04628.08966-.04628v-.04628h.08966l.08966.09256v.09256.04628l.08966.09256.08966.13884v.04628l-.04483.04628v.4628l-.04483.09257h-.04483l-.04483.04628v.09256l-.08966.09256z" />
		<path d="m10.3984 9.15557-.0448.04628h-.0449v-.04628z" />
		<path d="m9.55089 9.71101-.08966-.04628-.13449.04628.17954-.09249.04483-.04628.08966-.04628h.04483l.08966-.13884v-.04628l.08966-.09256h.08966l.04483-.04628h.04479l.0449.04628h.0448l.0448-.04628h.0449l.0448.04628v-.04628h.0448v.09256l-.0448-.04628-.0002.09249h-.0449v.09256l-.0896.09256h-.0448l-.08971.04628h-.04483l-.04483.09256h-.26898v.04628z" />
		<path d="m4.03781 19.9843-.08966.0463h.08966zm0 .0463-.13449.0463h-.08966l.08966-.0463-.40347.1389-.08966.0462h-.04483l-.13449.0463h-.04483l-.04483.0926v.0925l.04483.1389v.0463h.04483v.0462h.04483l.08966-.0462v-.0463h-.04483v-.0463h.13449l.04483-.0463h.13449l.08966-.0925.08966.0462h.08966l.08966.0463v.0463l.04483.0463.04483.0925h.04484v.1389h-.04484v.0463h.04484l-.04484.0462v.0463l.04484.0926h.04483v.0463l.04483.0462v.0463l.04483.0926v.0925h.08966l.04483.0463.04483-.0463v.0463h.26898l.04483.0463.13449.0463.04483.0925.04483.0463h.13449v.0463h.08966l.04483.0463h.04484v.0925l.08966.0463.04483.0463h.22415l.08966-.0463h.13449l.13449-.0463.08966-.0462.04483-.0463.04483-.0926v-.0463h-.04483v-.0462h.17932l.08966-.0463h-.04483v-.0926h-.04483l-.04483.0463h-.40347l-.08966-.1388h-.08966l-.04483-.0463h-.04483l-.04483-.0463v-.0463l-.08966-.0463v-.0925h-.04483l-.26899-.2777h-.04483v-.0463h-.08966l-.04483-.0463h-.04483l-.08966-.0925-.08966-.0463h-.04483l-.17932-.0926-.04483-.0462-.13449-.0463v-.0463l-.04483-.0463h-.04483v.0463l-.04483-.0463h.04483v-.0925h-.04483v.0462h-.04483v-.0462l-.08967-.0463v-.0463zm-.85177.6479-.04483.0926-.04483.0463-.08966.0463h.04483l.08966.0462.04483.0463h.04483v-.0463l-.08966-.0925z" />
		<path d="m3.71938 20.679h-.08966l-.17932.0926h-.04483v-.0463l.08966-.0463v-.0462l.08966-.0926v.0463h.04483z" />
		<path d="m5.78539 21.0026.08966.0463.13449.0462.08966.0463.04483.0463h-.04483l-.08966.0463h-.17932l-.08966-.0926h-.04484l-.08966-.0925h-.04483l-.04483-.0463.04483-.0463h.08966z" />
		<path d="m.896608 24.3348v.0463h-.089661l-.089661.0463h-.089661l-.04483.0463h-.224152v.0462h-.04483l-.044831.0463h-.08966l-.044831.0463h-.0448302v.0463l.0448302.0463v.1851l.044831.0463v.0925l-.179322.1851.134491.1389h-.0896606v.0463l.0896606.0925v.0463l-.0448302.0463.0448302.0463h.044831l.04483.0925h.04483l.044831.0926.04483-.0463.04483.0463v.0925h.044831l.04483.0463h.179322l.358644-.0463-.044832-.3239-.04483-.0463.089662-.0463.04483.0463h.04483v-.0463h.08966v-.0463h.04483l.08966.0926.04483-.0463-.04483-.0925.08966-.0463.04483.0463.08966.0462.04483.0463.08966.0463h.04483v-.0463h.08967l.08966.0926h.04483l.04483.0463v.0462h.13449l.04483.0463v-.0463l.17932.0463h.04483l.04483.0926h.04483v-.0463l.08966.0926h.04483v.0462l-.04483.0463v.324l.04483.0463h.04483v-.0463l.04483.0463h.31382l.08966-.0926h.08966v.0926h-.04483l-.04483.0463.04483.0462h.08966l.08966-.0462h.04483l-.04483-.0926.08966-.0463.04483.0926h.04483v-.0463h.08966l.04483-.0463v-.0463h.08966l.04483-.0925h.04483l.04483-.0463.08966-.0463h.04483v.0463h.04483l.04483-.0463v.0463h.08967l.04483-.0463h.04483l.13449-.1388.17932-.0926.22415-.1851.04483-.0463.4483-.5554h-.04483v-.0462h-.04483v-.0926l-.04483.0463v-.0926l-.04483-.0463h-.08966l.04483-.0462h-.08966v.0462l-.04483.0463v.0463l.04483.0463h.04483v.0463.0462l-.04483-.0462-.04483.0462h.04483l-.04483.0463h.04483v.0463l-.04483-.0463h-.08966l.04483.0463v.0463l-.04483-.0926-.04483-.0463h-.04483l.04483.0463.04483.0463h-.04483v-.0463h-.04483v-.0463-.0462l-.08966-.0926h-.13449v.0463h.13449l-.04483.0463v.0462l.04483-.0462.04483.0462h-.04483v.0926h.04483v.0463h-.04483l-.08966-.1851h-.04483l-.13449-.0926v-.0463h-.04483v.0463l-.17932-.0463-.04483-.0463v-.0462l-.04484-.0463v-.0463l-.04483-.0463.04483-.0463h-.04483l-.04483-.0462v-.0463h-.13449l-.04483-.0463h-.08966l-.04483.0926v.0462h-.04483v.2314l-.04483.0463v-.0463l-.04483.0463h-.04483l-.13449.0463-.08966.0463-.04483.0463h-.04483v.0462h-.08966v.0463l-.04483.0463h-.17933l-.04483-.0463h-.04483v.0463l-.04483-.0463v.0926l-.04483-.0926v-.0463h-.08966v-.0462h-.13449v.1388l-.08966-.0463v-.0463l.04483-.0462h-.26898v-.0463l-.08966-.0926h-.04483v-.0463l-.04483-.0462h-.13449l-.08966-.0463h-.04484l-.13449-.0463h-.04483v-.0463h-.04483l-.08966-.0463h-.04483l-.08966-.0925h-.04483l-.04483-.0463h-.04483v-.0463zm4.079562.6479-.04483-.0462-.04483.0462zm-.04483-.0462h.08966.04483l-.04483-.0463h-.04483v-.0463h-.04483v-.0463h-.08966v.0926l.04483.0463zm.08966-.1389.04483.0463h-.04483zm.08966 0h.04483l-.04483.0463zm-.31381.324h.04483v.0463h-.04483z" />
		<path d="m2.05749 22.9932-.04483-.0463v-.0463h.04483l.04483.0463v.0463l-.04483.0463z" />
		<path d="m2.24482 21.9745v.1389l.04483.0463-.08966-.0463v.0925l-.04483-.0462-.04483.0462h.04483v.0463h-.04483v-.0463l-.04483.0463v.0463.0926h-.04483l.04483-.0926v-.0463l-.04483-.0463.04483-.0925.08966-.0463v-.0463h.08966z" />
		<path d="m17.8439 3.46203h.0897v.04628l-.0897.04628z" />
		<path d="m18.6502 3.04628v.04628l.0897.09256h-.1793v.09256h.0448l-.0448.09256-.0448-.04628-.0449-.13884-.0448-.04628v-.04628l.0448-.09256h.1345z" />
		<path d="m19.0976 3.09264h.1793l.0897.04628h-.269l-.0448.04628v-.04628z" />
		<path d="m3.44852 21.0964v-.0463h.04483l.08966.0463z" />
		<path d="m5.11229 22.0675-.08967-.0926v.0463h-.04483l-.08966-.0926.04483-.0463h-.04483v.0463h-.08966v-.0463h.08966.13449-.04483v.0463h.08967v.0463l.04483.0463z" />
		<path d="m3.85351 20.9099h.04483l.04483-.0462v.0925l.04483.1389.08966.0925-.04483.0463h-.04483v-.0463l-.04483-.0463v-.0462l-.04483-.0926-.04483-.0463z" />
		<path d="m3.72414 21.003-.04483.0463h-.08966v-.0463h.17932z" />
		<path d="m3.58642 22.1131-.04483.0463h-.08966l-.08967-.0463h-.04483-.04483l.04483-.0925-.04483-.0463v-.0926h-.04483v-.0925l-.04483-.0926-.08966-.0463-.04483.0463v-.0463l-.13449-.0463v-.0925l-.04483-.0463h-.13449l-.04483.0463v.0463h.04483-.08966l-.04483.0925-.08966.0463h-.08966l-.08966.0463-.04483.0463v.0925h.04483v.0463h-.04483l-.04483-.0463h.04483v-.0925l-.04483-.0463h-.08967v-.0463l-.04483-.0463-.04483-.0925v-.2314l.04483-.0926.08967-.0926.08966-.0462h.08966l.17932-.0463.04483-.0463h.17932l.13449.0463v-.0926l.04483-.0463v-.0462h.08966l-.04483.0462h.04483l-.04483.0463v-.0463h-.04483v.0463l-.04483.0926h.31381l.08966-.0463.08966.0926v.0462h.1345l.08966-.0462.04483.0462h.13449l.04483.0463v.0926l.13449.1388.04483.0926v.0925h.17932l.08966.0463.13449.0926h.04483v.0463h.04483l.08967-.0926h.22415l.04483-.0463h.04483v.1389h.04483l-.04483.0462h-.04483l.04483-.0462-.04483-.0463v-.0463h-.04483v.0463l-.04483-.0463-.13449.0463h-.04483l-.04484.0463h-.04483v.0462l.04483.0463v.0463l-.04483.0463h.04483v-.0463l-.04483.0463v.0463h-.04483l-.04483.0462-.04483.0926h-.04483l-.04483.0463-.04483-.0463-.08966.0463-.04483.0463h-.08966v.0463h-.31381l-.08966-.0926z" />
		<path d="m6.4099 21.513-.04483.0462v.0463l-.04483-.0463z" />
	</g>
</svg>
