<svg width="27" height="37" viewBox="0 0 27 37" fill="none" xmlns="http://www.w3.org/2000/svg">
<path d="M12.6011 22.6902L17.101 18.1084C17.6153 17.7266 18.2582 17.5994 18.7725 17.9811C19.2868 18.363 19.4153 19.1266 19.0296 19.6357L13.8868 27.2721C13.6296 27.5266 13.244 27.7811 12.8582 27.7811C12.4725 27.7811 12.0867 27.5266 11.8297 27.2721L8.10106 22.3084C7.71534 21.7994 7.71534 21.163 8.10106 20.7811C8.48678 20.3994 9.12963 20.2721 9.64391 20.6538L12.6011 22.6902Z" fill="black"/>
<path fill-rule="evenodd" clip-rule="evenodd" d="M21.8571 8.81818H25.0715C26.1 8.81818 27 9.70909 27 10.7273V31.0909C27 32.1091 26.1 33 25.0715 33H1.92857C0.9 33 0 32.1091 0 31.0909V10.7273C0 9.70909 0.9 8.81818 1.92857 8.81818H5.14285V6.27273C5.14285 5.25455 6.04286 5 7.07142 5C8.1 5 9 5.25455 9 6.27273V8.81818H18V6.27273C18 5.25455 18.9 5 19.9286 5C20.9571 5 21.8571 5.25455 21.8571 6.27273V8.81818ZM2.57143 15.1818V30.4546H24.4285V15.1818H2.57143Z" fill="black"/>
</svg>
