<svg fill="currentColor" height="36" viewBox="0 0 24 36" width="24" xmlns="http://www.w3.org/2000/svg" focusable="false">
	<g fill="currentColor">
		<path d="m11.0243 20.1794 3.8333-3.9273c.4381-.3272.9858-.4363 1.4238-.1091.4381.3274.5476.9819.219 1.4182l-4.3809 6.5455c-.219.2182-.5476.4363-.8762.4363-.3285 0-.6571-.2181-.8761-.4363l-3.17626-4.2546c-.32857-.4363-.32857-.9817 0-1.3091.32858-.3272.87619-.4363 1.31429-.1091z" />
		<path clip-rule="evenodd" d="m18.9091 8.28908h2.7381c.8761 0 1.6428.76364 1.6428 1.63637v17.45455c0 .8727-.7667 1.6364-1.6428 1.6364h-19.7143c-.87619 0-1.642861-.7637-1.642861-1.6364v-17.45455c0-.87273.766671-1.63637 1.642861-1.63637h2.73809v-2.18181c0-.87273.76667-1.09091 1.64285-1.09091.8762 0 1.64286.21818 1.64286 1.09091v2.18181h7.6667v-2.18181c0-.87273.7666-1.09091 1.6428-1.09091s1.6429.21818 1.6429 1.09091zm-16.42858 5.45452v13.091h18.61898v-13.091z" fill-rule="evenodd" />
	</g>
</svg>
