<svg fill="currentColor" height="37" viewBox="0 0 26 37" width="26" xmlns="http://www.w3.org/2000/svg" focusable="false">
	<path d="m25.2563 11.2951-.3024-.7743c-.1637-.4226-.6398-.5956-1.0145-.377l-2.4764 1.4415c-.361.2091-.5141.6729-.356 1.0753.1587.4024.5726.6165.9665.4942l2.7167-.8357c.4132-.1274.6292-.6064.4661-1.024zm-8.9522-3.83537c.3797.16791.8172.00507 1.0145-.37701l1.3655-2.62325c.2066-.39792.0435-.9023-.356-1.07528l-.7307-.32062c-.3989-.17361-.8508.05576-.9665.49424l-.793 2.8729c-.1157.41756.0866.86047.4662 1.02902zm-8.00496-.38272c.19667.38208.63482.54493 1.01447.37701.37964-.16791.58129-.60575.46615-1.02395l-.78854-2.87797c-.12012-.43784-.57259-.66721-.96655-.49423l-.73067.32125c-.39894.17298-.56262.67799-.356 1.07465zm-3.78404 5.58359c.15871-.403.00498-.8662-.35599-1.0753l-2.47581-1.4466c-.37529-.21857-.851404-.0456-1.014466.377l-.303096.7743c-.163684.4227.052902.9017.46678 1.024l2.716042.8351c.3896.1274.80784-.0861.96654-.4885zm16.5296 14.9094c-.3388-.0995-.6802-.1895-1.0238-.2699v-1.8844h-14.42411v1.8844c-.36098.0919-.72133.1837-1.02443.2699-1.3269.3872-1.06737 2.43.01494 2.43h16.4431c1.0817 0 1.3412-2.0428.0143-2.43zm-12.64474-15.3023c.00794-.1252.0538-.2448.13126-.3424.07746-.0975.18272-.1683.30129-.2025.92298-.2598 2.36499-.6007 3.97639-.6007 1.6107 0 3.0527.3359 3.9763.6007.2402.0666.4133.2852.4326.5399l.0529.7337c-5.635-1.0239-7.40443.0406-7.40443.0406l-.25517 3.184c.5726-.5304 1.3176-.8561 2.1397-.8561.4668 0 .9087.1071 1.3132.2953-1.1302.5399-1.9231 1.7425-1.9231 3.1429 0 1.4009.7879 2.6029 1.9231 3.1428-.4115.1941-.8596.2951-1.3132.2959-1.0144 0-1.92311-.4943-2.51437-1.2686l-.27384 3.4229h11.05831l-.885-12.2811c-.0815-1.1209-.8271-2.0681-1.8509-2.35835-1.0388-.2902-2.6538-.64187-4.4761-.64187-1.8224 0-3.43804.35167-4.47616.64187-1.0294.29025-1.77438 1.23815-1.85591 2.35835l-.88004 12.2811h1.92313z" fill="currentColor" />
</svg>
