<svg width="64" height="64"  focusable="false" viewBox="0 0 64 64" xmlns="http://www.w3.org/2000/svg">
<path d="M43.5822 7.83385C35.9008 6.72205 28.1745 6.72205 20.4931 7.83385C18.5167 8.12765 17 9.96555 17 11.8311C17 25.277 17 38.7229 17 52.1688C17.0001 54.0345 18.5921 55.8721 20.5685 56.1661C28.2499 57.2779 35.9008 57.2779 43.5822 56.1661C45.5588 55.8722 47 54.0343 47 52.1688C47 38.7229 47 25.277 47 11.8311C47 9.96555 45.5588 8.12765 43.5822 7.83385ZM32 54.15C30.5364 54.15 29.35 52.9636 29.35 51.5C29.35 50.0364 30.5364 48.8499 32 48.8499C33.4636 48.8499 34.65 50.0364 34.65 51.5C34.65 52.9636 33.4636 54.15 32 54.15ZM43 46H21V13.9999H43V46Z" fill="#000"/>
</svg>
