<svg width="14" height="36" viewBox="0 0 14 36" fill="currentColor" xmlns="http://www.w3.org/2000/svg" focusable="false">
	<path d="M12.405 6.40025C8.82037 5.86658 5.21477 5.86658 1.63011 6.40025C0.707793 6.54127 0 7.42347 0 8.31893C0 14.773 0 21.227 0 27.681C4.66667e-05 28.5766 0.74298 29.4586 1.6653 29.5998C5.24995 30.1334 8.82037 30.1334 12.405 29.5998C13.3274 29.4587 14 28.5765 14 27.681C14 21.227 14 14.773 14 8.31893C14 7.42347 13.3274 6.54127 12.405 6.40025ZM7 28.632C6.31699 28.632 5.76333 28.0625 5.76333 27.36C5.76333 26.6575 6.31699 26.088 7 26.088C7.68301 26.088 8.23667 26.6575 8.23667 27.36C8.23667 28.0625 7.68301 28.632 7 28.632ZM12.1333 24.72H1.86667V9.35996H12.1333V24.72Z" fill="currentColor" />
</svg>
