<svg width="21" height="37" viewBox="0 0 21 37" fill="none" xmlns="http://www.w3.org/2000/svg">
<path d="M5.34394 10.2393V18.7591H8.2664C9.68588 18.7591 10.827 18.3476 11.6899 17.5244C12.5527 16.7012 12.9841 15.5899 12.9841 14.1905C12.9841 12.8735 12.5805 11.8857 11.7734 11.2271C10.9662 10.5686 9.64414 10.2393 7.80716 10.2393H5.34394ZM5.42744 22.9162V33H0V6H8.1829C11.6899 6 14.3062 6.71341 16.0318 8.14024C17.7853 9.56707 18.662 11.378 18.662 13.5732C18.662 15.3841 18.2167 16.9756 17.326 18.3476C16.4354 19.6921 15.2386 20.7073 13.7356 21.3933L21 33H14.6123L8.64215 22.9162H5.42744Z" fill="black"/>
</svg>
