<svg fill="currentColor" height="36" viewBox="0 0 17 36" width="17" xmlns="http://www.w3.org/2000/svg" focusable="false">
	<path d="m4.32604 10.4543v6.942h2.36581c1.1491 0 2.07289-.3353 2.77137-1.0061.69848-.6707 1.04768-1.5762 1.04768-2.7164 0-1.0732-.3267-1.8781-.98008-2.4147-.65342-.5365-1.72366-.8048-3.21074-.8048zm.0676 10.3292v8.2165h-4.39364v-22h6.62426c2.83896 0 4.95694.5813 6.35384 1.7439 1.4195 1.1626 2.1293 2.6382 2.1293 4.4268 0 1.4756-.3605 2.7724-1.0816 3.8903-.721 1.0955-1.6898 1.9227-2.9065 2.4817l5.8807 9.4573h-5.171l-4.83298-8.2165z" fill="currentColor" />
</svg>
