<svg width="10" height="20" viewBox="0 0 10 20" fill="currentColor" xmlns="http://www.w3.org/2000/svg" focusable="false">
	<path d="M2.54473 5.88415V9.67073H3.93638C4.61233 9.67073 5.15573 9.4878 5.5666 9.12195C5.97747 8.7561 6.1829 8.26219 6.1829 7.64024C6.1829 7.05488 5.99072 6.61585 5.60636 6.32317C5.222 6.03049 4.59245 5.88415 3.71769 5.88415H2.54473ZM2.58449 11.5183V16H0V4H3.89662C5.5666 4 6.81246 4.31707 7.6342 4.95122C8.46919 5.58537 8.88668 6.39024 8.88668 7.36585C8.88668 8.17073 8.67462 8.87805 8.2505 9.48781C7.82638 10.0854 7.25646 10.5366 6.54076 10.8415L10 16H6.95825L4.11531 11.5183H2.58449Z" fill="currentColor" />
</svg>
