<svg viewBox="0 0 25 36" fill="none" xmlns="http://www.w3.org/2000/svg">
<path d="M20.6611 10.055C21.1867 10.4701 22.259 11.3169 23.3342 11.3169C23.7839 11.3169 24.2746 11.1416 24.686 10.9407V12.9535C24.2655 13.0924 23.8061 13.1894 23.3342 13.1894C22.2385 13.1894 21.2025 12.674 20.5914 12.2971C19.9802 12.674 18.9442 13.1894 17.8485 13.1894C16.7527 13.1894 15.7167 12.674 15.1056 12.2971C14.4944 12.674 13.4585 13.1894 12.3627 13.1894C11.2669 13.1894 10.2309 12.674 9.61978 12.2971C9.00862 12.674 7.97268 13.1894 6.87689 13.1894C5.7811 13.1894 4.74516 12.674 4.134 12.2971C3.52283 12.674 2.48689 13.1894 1.3911 13.1894C0.904652 13.1894 0.430908 13.0867 0 12.9408V10.9208C0.419891 11.1305 0.925589 11.3169 1.3911 11.3169C2.47422 11.3169 3.54504 10.4672 4.04776 10.0682C4.07868 10.0437 4.10751 10.0208 4.134 10L4.20373 10.055C4.72932 10.4701 5.80162 11.3169 6.87689 11.3169C7.96 11.3169 9.03082 10.4672 9.53354 10.0682C9.56448 10.0437 9.59328 10.0208 9.61978 10L9.68951 10.055C10.2151 10.4701 11.2874 11.3169 12.3627 11.3169C13.4458 11.3169 14.5166 10.4672 15.0193 10.0682C15.0503 10.0437 15.0791 10.0208 15.1056 10L15.1753 10.055C15.7009 10.4701 16.7732 11.3169 17.8485 11.3169C18.9316 11.3169 20.0024 10.4672 20.5051 10.0682C20.5361 10.0437 20.5648 10.0208 20.5914 10L20.6611 10.055Z" fill="#AD00FF"/>
<path d="M14.1986 19.2838L12.8163 21.779C12.6667 21.7973 12.5155 21.8093 12.3627 21.8093C11.2669 21.8093 10.2309 21.2939 9.61978 20.917C9.00862 21.2939 7.97268 21.8093 6.87689 21.8093C5.7811 21.8093 4.74516 21.2939 4.134 20.917C3.52283 21.2939 2.48689 21.8093 1.3911 21.8093C0.904652 21.8093 0.430908 21.7066 0 21.5607V19.5407C0.419891 19.7504 0.925589 19.9368 1.3911 19.9368C2.47422 19.9368 3.54504 19.0871 4.04776 18.6881C4.0787 18.6636 4.10749 18.6407 4.134 18.6199L4.20373 18.6749C4.72932 19.09 5.80162 19.9368 6.87689 19.9368C7.96 19.9368 9.03082 19.0871 9.53354 18.6881C9.56449 18.6636 9.59327 18.6407 9.61978 18.6199L9.68951 18.6749C10.2151 19.09 11.2874 19.9368 12.3627 19.9368C13.0226 19.9368 13.6735 19.6205 14.1986 19.2838Z" fill="#AD00FF"/>
<path d="M21.4843 19.2492L22.9024 21.7654C23.0494 21.7831 23.198 21.7944 23.3482 21.7944C23.8201 21.7944 24.2795 21.6975 24.7 21.5585V19.5457C24.2886 19.7466 23.7979 19.9219 23.3482 19.9219C22.6815 19.922 22.0191 19.5956 21.4843 19.2492Z" fill="#AD00FF"/>
<path d="M20.4909 14.3643L20.5597 14.31L20.6295 14.365C21.1551 14.7801 22.2274 15.6269 23.3027 15.6269C23.7524 15.6269 24.2431 15.4515 24.6545 15.2507V17.2635C24.2339 17.4024 23.7746 17.4994 23.3027 17.4994C22.2069 17.4994 21.171 16.984 20.5598 16.6071C20.4239 16.6909 20.2643 16.7815 20.0906 16.8717L19.7048 16.1874C19.511 15.8439 19.2369 15.5652 18.9164 15.3683C19.5853 15.0803 20.1657 14.6214 20.4909 14.3643Z" fill="#AD00FF"/>
<path d="M4.134 16.6071C4.74516 16.984 5.7811 17.4994 6.87689 17.4994C7.97268 17.4994 9.00862 16.984 9.61978 16.6071C10.2309 16.984 11.2669 17.4994 12.3627 17.4994C13.4585 17.4994 14.4944 16.984 15.1056 16.6071C15.2331 16.6857 15.3828 16.7705 15.544 16.8553L15.9056 16.2025C16.1038 15.845 16.3874 15.5554 16.7199 15.3551C16.065 15.066 15.4928 14.6151 15.1577 14.3511L15.1056 14.31C15.0791 14.3308 15.0503 14.3537 15.0193 14.3782C14.5166 14.7772 13.4458 15.6269 12.3627 15.6269C11.2874 15.6269 10.2151 14.7801 9.68951 14.365L9.61978 14.31C9.59378 14.3304 9.56558 14.3528 9.5353 14.3768L9.534 14.3779C9.03128 14.7768 7.96 15.6269 6.87689 15.6269C5.80162 15.6269 4.72932 14.7801 4.20373 14.365L4.134 14.31C4.10749 14.3308 4.0787 14.3537 4.04776 14.3782C3.54504 14.7772 2.47422 15.6269 1.3911 15.6269C0.925589 15.6269 0.419891 15.4405 0 15.2307V17.2508C0.430908 17.3967 0.904652 17.4994 1.3911 17.4994C2.48684 17.4994 3.52283 16.984 4.134 16.6071Z" fill="#AD00FF"/>
<path d="M17.8169 25.4744C17.4488 25.4744 17.2576 25.7519 17.2576 26.1066C17.2576 26.5076 17.4637 26.7232 17.8243 26.7232C18.1922 26.7232 18.3837 26.4535 18.3837 26.1066C18.3837 25.6978 18.1775 25.4744 17.8169 25.4744Z" fill="#AD00FF"/>
<path d="M18.2947 24.9321L17.4266 24.9564V21.4333L18.377 21.344L18.2947 23.8171V24.9321Z" fill="#AD00FF"/>
<path fill-rule="evenodd" clip-rule="evenodd" d="M17.7862 16.5843C18.0539 16.5843 18.3016 16.7323 18.4376 16.9738L24.5421 27.8045C24.6802 28.0496 24.6823 28.3532 24.5477 28.6004C24.413 28.8475 24.1622 29 23.8906 29H11.7863C11.5156 29 11.2657 28.8486 11.1307 28.603C10.9957 28.3574 10.9963 28.0548 11.132 27.8097L17.1319 16.979C17.2669 16.7357 17.5145 16.5853 17.7833 16.5843H17.7862ZM17.7943 19.1963L13.3803 27.1642H22.2852L17.7943 19.1963Z" fill="#AD00FF"/>
</svg>
