<svg width="26" height="36" viewBox="0 0 26 36" fill="currentColor" xmlns="http://www.w3.org/2000/svg" focusable="false">
	<path d="M21.7485 8.05788C22.3018 8.49483 23.4305 9.38625 24.5624 9.38625C25.0357 9.38625 25.5523 9.20165 25.9853 8.99018V11.1089C25.5426 11.2552 25.0591 11.3572 24.5624 11.3572C23.4089 11.3572 22.3184 10.8147 21.6751 10.418C21.0318 10.8147 19.9413 11.3572 18.7879 11.3572C17.6344 11.3572 16.5439 10.8147 15.9006 10.418C15.2573 10.8147 14.1668 11.3572 13.0133 11.3572C11.8599 11.3572 10.7694 10.8147 10.1261 10.418C9.48276 10.8147 8.39229 11.3572 7.23883 11.3572C6.08537 11.3572 4.9949 10.8147 4.35158 10.418C3.70825 10.8147 2.61778 11.3572 1.46432 11.3572C0.952265 11.3572 0.453588 11.2492 0 11.0956V8.96921C0.441991 9.19001 0.974305 9.38625 1.46432 9.38625C2.60444 9.38625 3.73162 8.49176 4.2608 8.07182C4.29335 8.046 4.32369 8.02192 4.35158 8L4.42497 8.05788C4.97823 8.49482 6.10697 9.38625 7.23883 9.38625C8.37895 9.38625 9.50613 8.49176 10.0353 8.07183C10.0679 8.04598 10.0982 8.02193 10.1261 8L10.1995 8.05788C10.7527 8.49482 11.8815 9.38625 13.0133 9.38625C14.1535 9.38625 15.2806 8.49176 15.8098 8.07182C15.8424 8.04598 15.8727 8.02193 15.9006 8L15.974 8.05788C16.5273 8.49482 17.656 9.38625 18.7879 9.38625C19.928 9.38625 21.0552 8.49176 21.5843 8.07182C21.6169 8.04598 21.6472 8.02193 21.6751 8L21.7485 8.05788Z" fill="currentColor" />
	<path d="M14.9459 17.7725L13.4908 20.399C13.3333 20.4182 13.1743 20.4308 13.0133 20.4308C11.8599 20.4308 10.7694 19.8883 10.1261 19.4916C9.48276 19.8883 8.39229 20.4308 7.23883 20.4308C6.08537 20.4308 4.9949 19.8883 4.35158 19.4916C3.70825 19.8883 2.61778 20.4308 1.46432 20.4308C0.952265 20.4308 0.453588 20.3228 0 20.1692V18.0428C0.441991 18.2636 0.974305 18.4598 1.46432 18.4598C2.60444 18.4598 3.73162 17.5654 4.2608 17.1454C4.29337 17.1196 4.32367 17.0955 4.35158 17.0736L4.42497 17.1315C4.97823 17.5684 6.10697 18.4598 7.23883 18.4598C8.37895 18.4598 9.50613 17.5654 10.0353 17.1454C10.0679 17.1196 10.0982 17.0955 10.1261 17.0736L10.1995 17.1315C10.7527 17.5684 11.8815 18.4598 13.0133 18.4598C13.708 18.4598 14.3932 18.1269 14.9459 17.7725Z" fill="currentColor" />
	<path d="M22.6151 17.736L24.1077 20.3846C24.2625 20.4032 24.4189 20.4152 24.5771 20.4152C25.0738 20.4152 25.5573 20.3131 26 20.1669V18.0481C25.567 18.2596 25.0504 18.4441 24.5771 18.4441C23.8752 18.4442 23.178 18.1007 22.6151 17.736Z" fill="currentColor" />
	<path d="M21.5694 12.594L21.6418 12.5368L21.7153 12.5947C22.2686 13.0317 23.3972 13.9231 24.5291 13.923C25.0025 13.923 25.519 13.7385 25.9521 13.527V15.6457C25.5094 15.792 25.0258 15.8941 24.5291 15.8941C23.3757 15.8941 22.2852 15.3516 21.6419 14.9548C21.4989 15.043 21.3309 15.1384 21.148 15.2334L20.7419 14.513C20.5379 14.1514 20.2494 13.8581 19.912 13.6508C20.6162 13.3477 21.227 12.8647 21.5694 12.594Z" fill="currentColor" />
	<path d="M4.35158 14.9548C4.9949 15.3516 6.08537 15.8941 7.23883 15.8941C8.39229 15.8941 9.48276 15.3516 10.1261 14.9548C10.7694 15.3516 11.8599 15.8941 13.0133 15.8941C14.1668 15.8941 15.2573 15.3516 15.9006 14.9548C16.0348 15.0376 16.1924 15.1268 16.3621 15.2161L16.7427 14.529C16.9514 14.1526 17.2499 13.8478 17.5998 13.6369C16.9105 13.3326 16.3083 12.858 15.9555 12.5801L15.9006 12.5368C15.8727 12.5588 15.8424 12.5828 15.8098 12.6086C15.2806 13.0286 14.1535 13.9231 13.0133 13.9231C11.8815 13.9231 10.7527 13.0316 10.1995 12.5947L10.1261 12.5368C10.0987 12.5583 10.069 12.5819 10.0372 12.6072L10.0358 12.6083C9.50661 13.0282 8.37895 13.9231 7.23883 13.9231C6.10697 13.9231 4.97823 13.0316 4.42497 12.5947L4.35158 12.5368C4.32367 12.5588 4.29337 12.5828 4.2608 12.6086C3.73162 13.0286 2.60444 13.9231 1.46432 13.9231C0.974305 13.9231 0.441991 13.7268 0 13.506V15.6324C0.453588 15.786 0.952265 15.8941 1.46432 15.8941C2.61773 15.8941 3.70825 15.3516 4.35158 14.9548Z" fill="currentColor" />
	<path d="M18.7547 24.2888C18.3672 24.2888 18.1659 24.5809 18.1659 24.9543C18.1659 25.3764 18.3828 25.6034 18.7624 25.6034C19.1497 25.6034 19.3512 25.3195 19.3512 24.9543C19.3512 24.524 19.1343 24.2888 18.7547 24.2888Z" fill="currentColor" />
	<path d="M19.2576 23.718L18.3438 23.7436V20.0351L19.3442 19.941L19.2576 22.5444V23.718Z" fill="currentColor" />
	<path fill-rule="evenodd" clip-rule="evenodd" d="M18.7223 14.9308C19.0041 14.9308 19.2649 15.0867 19.408 15.3408L25.8337 26.7416C25.9791 26.9996 25.9814 27.3192 25.8397 27.5793C25.6978 27.8395 25.4339 28 25.148 28H12.4066C12.1217 28 11.8586 27.8406 11.7166 27.5821C11.5745 27.3236 11.575 27.005 11.7179 26.7471L18.0335 15.3463C18.1756 15.0902 18.4364 14.9319 18.7192 14.9308H18.7223ZM18.7309 17.6803L14.0845 26.0676H23.4581L18.7309 17.6803Z" fill="currentColor" />
</svg>
