<svg focusable="false" width="48" height="48" viewBox="0 0 48 48" fill="#000" xmlns="http://www.w3.org/2000/svg">
  <path d="M34.748 15.714c.683.515 2.078 1.567 3.476 1.567.585 0 1.223-.218 1.758-.467v2.498a5.878 5.878 0 01-1.758.293c-1.425 0-2.772-.64-3.567-1.108-.795.468-2.142 1.108-3.567 1.108-1.425 0-2.772-.64-3.567-1.108-.795.468-2.142 1.108-3.567 1.108-1.425 0-2.772-.64-3.567-1.108-.794.468-2.142 1.108-3.567 1.108-1.425 0-2.772-.64-3.566-1.108-.795.468-2.143 1.108-3.567 1.108a5.922 5.922 0 01-1.81-.308v-2.508c.547.26 1.204.492 1.81.492 1.408 0 2.8-1.055 3.454-1.55l.112-.085.091.068c.684.515 2.078 1.567 3.476 1.567 1.409 0 2.801-1.055 3.455-1.55l.112-.085.091.068c.683.515 2.078 1.567 3.476 1.567 1.409 0 2.801-1.055 3.455-1.55l.112-.085.09.068c.684.515 2.079 1.567 3.477 1.567 1.409 0 2.801-1.055 3.455-1.55l.112-.085.09.068zM26.344 27.17l-1.798 3.098a5.082 5.082 0 01-.59.038c-1.425 0-2.772-.64-3.567-1.108-.794.468-2.142 1.108-3.567 1.108-1.425 0-2.772-.64-3.566-1.108-.795.468-2.143 1.108-3.567 1.108a5.925 5.925 0 01-1.81-.309V27.49c.547.26 1.204.492 1.81.492 1.408 0 2.8-1.055 3.454-1.55l.112-.085.091.068c.684.515 2.078 1.567 3.476 1.567 1.409 0 2.801-1.055 3.455-1.55l.112-.085.091.068c.683.515 2.078 1.567 3.476 1.567.858 0 1.705-.393 2.388-.811zm9.474-.042l1.844 3.123c.192.022.385.037.58.037.614 0 1.211-.12 1.758-.293v-2.5c-.535.25-1.173.468-1.758.468-.867 0-1.728-.405-2.424-.835zm-1.292-6.064l.09-.068.09.069c.684.515 2.079 1.566 3.477 1.566.585 0 1.223-.218 1.758-.467v2.499a5.877 5.877 0 01-1.758.293c-1.425 0-2.772-.64-3.567-1.108a9.784 9.784 0 01-.61.328l-.502-.85a2.88 2.88 0 00-1.025-1.016c.87-.357 1.624-.927 2.047-1.246zm-21.271 2.784c.795.468 2.142 1.108 3.567 1.108 1.425 0 2.773-.64 3.567-1.108.795.468 2.142 1.108 3.567 1.108 1.425 0 2.772-.64 3.567-1.108.166.098.36.203.57.308l.47-.81a2.89 2.89 0 011.06-1.052c-.852-.36-1.596-.919-2.032-1.247l-.068-.05-.112.084c-.654.495-2.046 1.55-3.455 1.55-1.398 0-2.793-1.051-3.476-1.567l-.09-.068-.11.083-.002.002c-.654.495-2.047 1.55-3.456 1.55-1.398 0-2.792-1.051-3.476-1.567l-.09-.068-.113.085c-.653.495-2.046 1.55-3.454 1.55-.606 0-1.263-.231-1.81-.492v2.508c.56.181 1.177.309 1.81.309 1.425 0 2.772-.64 3.566-1.108zM31.05 34.856c-.48 0-.728.344-.728.785 0 .497.268.765.737.765.478 0 .727-.335.727-.765 0-.508-.268-.785-.737-.785zm.62-.673l-1.128.03v-4.374l1.235-.11-.107 3.07v1.384z" />
  <path fill-rule="evenodd" clip-rule="evenodd" d="M31.01 23.82a.98.98 0 01.846.483l7.939 13.445a.984.984 0 01-.848 1.484h-15.74a.983.983 0 01-.851-1.477l7.802-13.445a.984.984 0 01.847-.49h.004zm.01 3.242l-5.74 9.891h11.58l-5.84-9.89z" />
</svg>
