<svg fill="currentColor" height="37" viewBox="0 0 25 37" width="25" xmlns="http://www.w3.org/2000/svg" focusable="false">
	<path clip-rule="evenodd" d="m11.188 7c-6.0363 0-10.94447 4.8733-10.94447 10.9032 0 6.0308 4.90817 10.9041 10.94447 10.9041 2.4561 0 4.7263-.8074 6.5549-2.171l3.9269 3.9089c.1387.1428.3044.2566.4875.3347.183.0781.3798.1189.5788.1201.199.0011.3962-.0374.5802-.1134.1839-.076.3509-.1879.4912-.3292.1403-.1412.2511-.3091.326-.4937.0748-.1846.1122-.3823.1099-.5815-.0022-.1993-.0441-.396-.1231-.5789-.0791-.1828-.1937-.3481-.3371-.4862l-3.904-3.8868c1.4635-1.8981 2.2557-4.2292 2.2522-6.6271 0-6.0299-4.9081-10.9032-10.9444-10.9032zm-7.94681 10.9032c0-4.3561 3.54923-7.9018 7.94681-7.9018 4.3966 0 7.9458 3.5457 7.9458 7.9018 0 4.357-3.5492 7.9027-7.9468 7.9027-4.39658 0-7.94581-3.5457-7.94581-7.9027z" fill="currentColor" fill-rule="evenodd" />
</svg>
