<svg focusable="false" width="31" height="32" viewBox="0 0 31 32" fill="none" xmlns="http://www.w3.org/2000/svg">
  <path d="M19.8402 21.9922H11.1602V24.4722H19.8402V21.9922Z" fill="black"/>
  <path d="M15.5 0.292969C6.95318 0.292969 0 7.24614 0 15.793C0 24.3398 6.95318 31.293 15.5 31.293C24.0468 31.293 31 24.3398 31 15.793C31 7.24614 24.0468 0.292969 15.5 0.292969ZM24.3253 23.7414L22.5145 21.9306L21.6377 22.8074L23.4475 24.6171C21.3411 26.5217 18.5588 27.6908 15.5 27.6908C12.4412 27.6908 9.65892 26.5217 7.55253 24.6172L9.36231 22.8075L8.48551 21.9307L6.67473 23.7416C4.90792 21.7757 3.77952 19.2239 3.63363 16.413H6.2V15.173H3.63363C3.77964 12.3608 4.91282 9.81412 6.68174 7.85151L8.48551 9.65534L9.36231 8.77854L7.55848 6.97477C9.52109 5.20585 12.0677 4.07267 14.8799 3.92666C14.8799 4.90527 14.8799 5.65845 14.8799 6.49303C16.7139 6.49303 14.2863 6.49303 16.1199 6.49303C16.1199 5.59019 16.1199 4.81475 16.1199 3.92666C18.9321 4.07267 21.4788 5.20585 23.4414 6.97477L21.6376 8.77854L22.5144 9.65534L24.3181 7.85151C26.0871 9.81412 27.2202 12.3608 27.3662 15.173H24.8V16.4068H27.3664C27.2205 19.2177 26.0921 21.7757 24.3253 23.7414Z" fill="black"/>
  <path d="M15.3477 19.8603C16.3388 19.8122 17.1419 19.0922 17.3455 18.1519C17.4786 17.5375 19.1258 8.94388 19.1258 8.94388C19.2678 8.1775 18.4365 7.88815 18.0447 8.56767L14.5115 14.5821C15.7825 14.6177 16.3209 15.1969 16.5007 15.4531C16.7317 15.7822 16.6198 15.8989 16.5658 15.9046C16.5613 15.9042 16.5561 15.9052 16.5516 15.9049C16.1582 15.5977 15.6664 15.4174 15.1332 15.4433C13.9361 15.5014 13.0137 16.5373 13.073 17.7571C13.1322 18.9768 14.1506 19.9185 15.3477 19.8603Z" fill="black"/>
</svg>
