<svg width="26" height="36" viewBox="0 0 26 36" fill="currentColor" xmlns="http://www.w3.org/2000/svg" focusable="false">
	<path d="M16.6407 23.2H9.36068V25.28H16.6407V23.2Z" fill="currentColor" />
	<path d="M14.5438 19.9788C14.373 20.7674 13.6995 21.3712 12.8682 21.4116C11.8642 21.4604 11.0101 20.6706 10.9604 19.6476C10.9107 18.6246 11.6843 17.7558 12.6883 17.707C13.1355 17.6853 13.548 17.8365 13.878 18.0941C13.8817 18.0944 13.8861 18.0936 13.8899 18.0939C13.9351 18.0891 14.029 17.9913 13.8353 17.7152C13.6845 17.5003 13.2329 17.0146 12.1669 16.9847L15.1302 11.9404C15.4588 11.3704 16.1561 11.6131 16.037 12.2559C16.037 12.2559 14.6554 19.4634 14.5438 19.9788Z" fill="currentColor" />
	<path fill-rule="evenodd" clip-rule="evenodd" d="M13 5C5.8317 5 0 10.8317 0 18C0 25.1683 5.8317 31 13 31C20.1683 31 26 25.1683 26 18C26 10.8317 20.1683 5 13 5ZM20.4018 24.6665L18.8831 23.1477L18.1477 23.8831L19.6656 25.4009C17.899 26.9983 15.5654 27.9788 13 27.9788C10.4346 27.9788 8.10103 26.9983 6.33438 25.401L7.85226 23.8832L7.11688 23.1478L5.59816 24.6666C4.11632 23.0178 3.16992 20.8776 3.04756 18.52H5.2V17.48H3.04756C3.17002 15.1214 4.12043 12.9855 5.60404 11.3394L7.11688 12.8523L7.85226 12.1169L6.33937 10.6041C7.98543 9.12048 10.1213 8.17008 12.4799 8.04762V10.2001H13.5199V8.04762C15.8786 8.17008 18.0145 9.12048 19.6605 10.6041L18.1476 12.1169L18.883 12.8523L20.3959 11.3394C21.8795 12.9855 22.8299 15.1214 22.9523 17.48H20.8V18.5148H22.9524C22.8301 20.8724 21.8837 23.0178 20.4018 24.6665Z" fill="currentColor" />
</svg>
