<svg focusable="false" width="48" height="48" viewBox="0 0 48 45" fill="none" xmlns="http://www.w3.org/2000/svg">
  <path d="M40.7552 8.11775C39.6945 7.0571 34.9427 2.30532 33.8821 1.24467C32.7578 0.120349 31.1081 1.59575 31.8371 2.90787C32.6855 4.43525 33.1417 5.14587 33.1417 5.14587L29.269 9.01857C29.269 9.01857 29.9276 10.3304 31.0646 12.6288C31.1754 12.8527 31.0449 12.9357 31.004 12.9544C31.004 12.9544 24.9092 6.86045 23.6156 5.56692C22.7463 4.69865 20.997 6.03605 21.7629 7.39115C22.5118 8.7161 23.5748 10.47 23.5748 10.47L10.7792 23.2657C10.3604 23.6845 10.0749 24.2179 9.95874 24.7986L8.61587 31.8274L0.959717 39.7497H3.53919L10.1644 33.3857L17.2144 32.0575C17.7981 31.9423 18.3343 31.6561 18.755 31.2355L31.5476 18.4428C31.5476 18.4428 33.3015 19.5059 34.6265 20.2548C35.9816 21.0207 37.319 19.2714 36.4507 18.402C35.1526 17.1039 33.5557 15.507 31.8803 13.8317L36.8539 8.85815C36.8539 8.85815 37.5645 9.31422 39.0919 10.1628C40.4041 10.8918 41.8794 9.24207 40.7552 8.11775ZM26.5772 19.135L24.4558 17.0137L23.3951 19.135L24.9861 20.726L23.3951 22.317L21.2738 20.1957L20.2132 22.317L21.8042 23.9079L20.2132 25.4989L18.0918 23.3776L17.0312 25.499L18.6221 27.09L17.0312 28.6809L13.3189 24.9687L25.5164 12.771L29.2288 16.4834L26.5772 19.135Z" fill="black"/>
</svg>