<svg width="30" height="37" viewBox="0 0 30 37" fill="none" xmlns="http://www.w3.org/2000/svg">
<path d="M29.7022 8.60768C28.9106 7.78978 25.364 4.12555 24.5724 3.30766C23.7332 2.44066 22.5019 3.57838 23.046 4.5902C23.6793 5.768 24.0198 6.31598 24.0198 6.31598L21.1293 9.30233C21.1293 9.30233 21.6208 10.3139 22.4695 12.0863C22.5522 12.2589 22.4548 12.3229 22.4243 12.3374C22.4243 12.3374 17.8752 7.63814 16.9098 6.64067C16.2609 5.97111 14.9553 7.00242 15.5269 8.04738C16.0859 9.06908 16.8793 10.4216 16.8793 10.4216L7.32897 20.2887C7.01639 20.6117 6.80334 21.023 6.71663 21.4708L5.71434 26.8909L0 33H1.92525L6.87012 28.0925L12.132 27.0683C12.5677 26.9795 12.9679 26.7588 13.2819 26.4344L22.83 16.5697C22.83 16.5697 24.139 17.3894 25.128 17.9669C26.1394 18.5575 27.1376 17.2086 26.4895 16.5382C25.5206 15.5372 24.3288 14.3058 23.0783 13.0139L26.7904 9.17862C26.7904 9.17862 27.3208 9.53031 28.4608 10.1847C29.4402 10.7468 30.5414 9.47468 29.7022 8.60768ZM19.1202 17.1034L17.5368 15.4676L16.7452 17.1034L17.9327 18.3303L16.7452 19.5571L15.1619 17.9213L14.3703 19.5571L15.5577 20.7839L14.3703 22.0108L12.7869 20.375L11.9953 22.0108L13.1828 23.2377L11.9953 24.4645L9.22455 21.6019L18.3285 12.196L21.0993 15.0587L19.1202 17.1034Z" fill="black"/>
</svg>
