<svg fill="currentColor" height="36" viewBox="0 0 25 36" width="25" xmlns="http://www.w3.org/2000/svg" focusable="false">
	<path d="m24.7519 9.85999c-.6597-.70885-3.6152-3.88451-4.2749-4.59335-.6993-.7514-1.7254.23462-1.272 1.11153.5277 1.02076.8115 1.49568.8115 1.49568l-2.4088 2.58815s.4096.8767 1.1169 2.4128c.0689.1496-.0123.2051-.0377.2176 0 0-3.7909-4.07268-4.5954-4.93716-.5407-.58027-1.6288.31352-1.1524 1.21915.4658.88551 1.127 2.05771 1.127 2.05771l-7.95862 8.5514c-.26049.2799-.43803.6364-.51029 1.0245l-.83524 4.6974-4.76195 5.2946h1.60437l4.12073-4.2532 4.3849-.8876c.3631-.077.6966-.2683.9582-.5493l7.9568-8.5495s1.0909.7104 1.915 1.2109c.8428.5119 1.6746-.6572 1.1346-1.2382-.8074-.8675-1.8006-1.9348-2.8427-3.0544l3.0935-3.3239s.442.3048 1.392.8719c.8161.4872 1.7337-.6153 1.0345-1.36671zm-8.8184 7.36301-1.3195-1.4177-.6597 1.4177.9896 1.0632-.9896 1.0633-1.3194-1.4177-.6597 1.4177.9896 1.0633-.9896 1.0632-1.3194-1.4177-.65972 1.4178.98952 1.0632-.98952 1.0633-2.30895-2.481 7.58657-8.1518 2.309 2.481z" fill="currentColor" />
</svg>
