<svg width="25" height="36" viewBox="0 0 25 36" fill="currentColor" xmlns="http://www.w3.org/2000/svg" focusable="false">
	<path d="M24.7519 9.85999C24.0922 9.15114 21.1367 5.97548 20.477 5.26664C19.7777 4.51524 18.7516 5.50126 19.205 6.37817C19.7327 7.39893 20.0165 7.87385 20.0165 7.87385L17.6077 10.462C17.6077 10.462 18.0173 11.3387 18.7246 12.8748C18.7935 13.0244 18.7123 13.0799 18.6869 13.0924C18.6869 13.0924 14.896 9.01972 14.0915 8.15524C13.5508 7.57497 12.4627 8.46876 12.9391 9.37439C13.4049 10.2599 14.0661 11.4321 14.0661 11.4321L6.10748 19.9835C5.84699 20.2634 5.66945 20.6199 5.59719 21.008L4.76195 25.7054L0 31H1.60437L5.7251 26.7468L10.11 25.8592C10.4731 25.7822 10.8066 25.5909 11.0682 25.3098L19.025 16.7604C19.025 16.7604 20.1159 17.4708 20.94 17.9713C21.7828 18.4832 22.6146 17.3141 22.0746 16.7331C21.2672 15.8656 20.274 14.7983 19.2319 13.6787L22.3254 10.3548C22.3254 10.3548 22.7674 10.6596 23.7173 11.2267C24.5335 11.7139 25.4511 10.6114 24.7519 9.85999ZM15.9335 17.223L14.614 15.8053L13.9543 17.223L14.9439 18.2862L13.9543 19.3495L12.6349 17.9318L11.9752 19.3495L12.9648 20.4128L11.9752 21.476L10.6558 20.0583L9.99608 21.4761L10.9856 22.5393L9.99608 23.6026L7.68713 21.1216L15.2737 12.9698L17.5827 15.4508L15.9335 17.223Z" fill="currentColor" />
</svg>
