<svg focusable="false" width="64" height="64" viewBox="0 0 64 64" fill="none" xmlns="http://www.w3.org/2000/svg">
  <mask id="mask0" mask-type="alpha" maskUnits="userSpaceOnUse" x="5" y="5" width="53" height="53">
  <path fill-rule="evenodd" clip-rule="evenodd" d="M35.0014 54.4498C35.024 56.1956 33.6181 57.6337 31.8611 57.6495C30.1114 57.6684 28.6701 56.2551 28.6712 54.493C28.6527 53.3163 29.2964 52.2941 30.2444 51.7381L30.2399 51.7277C30.2451 51.7255 30.2511 51.7214 30.257 51.7173C30.2629 51.7133 30.2689 51.7092 30.2741 51.707C30.9975 51.2928 31.7001 51.2889 31.8933 51.2878C31.9215 51.2877 31.9389 51.2876 31.9438 51.2864C31.9602 51.2241 31.9811 51.0004 31.6351 50.9387L30.2168 50.8414L30.1124 44.4288C27.7926 44.1067 25.6129 43.1788 23.7781 41.6933L21.2096 43.9787C21.1918 43.9945 21.1766 44.0037 21.1614 44.0129L21.1527 44.0182L21.1383 44.0275C21.4658 45.079 21.2482 46.264 20.4442 47.1272C19.2478 48.4088 17.2336 48.4847 15.9467 47.2882C14.6597 46.0916 14.5793 44.0819 15.7758 42.8003C16.5798 41.9371 17.7534 41.6352 18.8256 41.8855L18.8286 41.8782C18.8464 41.8768 18.8613 41.8827 18.8687 41.8857C19.6994 42.0897 20.2163 42.5824 20.3445 42.7044C20.3605 42.7197 20.3704 42.7292 20.3742 42.7316C20.4321 42.6947 20.5956 42.5455 20.3893 42.2648L19.4305 41.2174L21.5605 39.4006C20.2071 37.6185 19.3455 35.5355 19.0498 33.3102L11.6251 33.3519C11.6124 33.3512 11.5987 33.3477 11.5849 33.3444C11.5712 33.341 11.5574 33.3377 11.5448 33.3369C11.0036 34.2972 9.98873 34.9553 8.81241 34.9639C7.06276 34.9828 5.6185 33.5769 5.59882 31.8237C5.57617 30.0778 6.98213 28.6398 8.7392 28.624C9.91852 28.608 10.9444 29.2524 11.5038 30.1995L11.5142 30.1951C11.5164 30.2003 11.5205 30.2062 11.5245 30.2121L11.531 30.222L11.535 30.2293C11.9518 30.9518 11.957 31.6529 11.9584 31.8457C11.9586 31.8739 11.9588 31.8912 11.9601 31.8961C12.0225 31.9126 12.2467 31.9339 12.3079 31.5888L12.4023 30.1738L19.0207 30.1432C19.1507 28.9832 19.4231 27.8548 19.8516 26.7889C20.2562 25.7824 20.7989 24.8399 21.4545 23.9599L19.0929 21.3731C19.077 21.3553 19.0679 21.3402 19.0586 21.325C19.054 21.3174 19.0494 21.3098 19.0439 21.3019C17.9847 21.5983 16.8012 21.3461 15.9581 20.5257C14.7008 19.2982 14.6783 17.2945 15.906 16.0427C17.1336 14.7909 19.1416 14.7728 20.3989 16.0003C21.2464 16.8311 21.519 17.9981 21.245 19.0658L21.2524 19.0688L21.2376 19.1058C21.0231 19.9236 20.5191 20.4235 20.3891 20.5524C20.3721 20.5693 20.3615 20.5798 20.3588 20.5839C20.3915 20.6313 20.5354 20.8096 20.8237 20.6073L21.8952 19.6797L23.6245 21.6512C25.4107 20.1683 27.55 19.2227 29.842 18.8631L29.768 11.5599C29.7687 11.5473 29.772 11.5336 29.7754 11.5199C29.7787 11.5062 29.7821 11.4924 29.7828 11.4799C28.8193 10.9378 28.1574 9.92374 28.1463 8.75006C28.1237 7.00428 29.5297 5.56625 31.2867 5.55037C33.0364 5.5315 34.4806 6.93741 34.5003 8.6906C34.5188 9.86732 33.8751 10.8896 32.9271 11.4457L32.9316 11.456C32.9264 11.4582 32.9205 11.4622 32.9145 11.4663C32.9086 11.4704 32.9026 11.4744 32.8975 11.4767C32.1741 11.891 31.4715 11.8947 31.2783 11.8958C31.25 11.8959 31.2327 11.896 31.2278 11.8973C31.2113 11.9595 31.1904 12.1832 31.5364 12.245L32.9548 12.3423L33.0146 18.737C35.3894 18.9436 37.5737 19.7959 39.4086 21.1095L41.9157 18.4684C41.9336 18.4527 41.9487 18.4435 41.9639 18.4344C41.9715 18.4297 41.9791 18.4251 41.987 18.4197C41.6595 17.3681 41.8771 16.1831 42.6811 15.3199C43.8776 14.0384 45.8916 13.9625 47.1786 15.159C48.4655 16.3555 48.546 18.3652 47.3496 19.6468C46.5454 20.51 45.3719 20.8121 44.2997 20.5616L44.2968 20.569C44.2789 20.5705 44.2641 20.5645 44.2566 20.5615C43.4259 20.3575 42.9089 19.8649 42.7807 19.7427C42.7648 19.7276 42.7549 19.718 42.7511 19.7155C42.6931 19.7525 42.5297 19.9017 42.7359 20.1824L43.6948 21.2298L41.7643 23.2515C43.3346 25.095 44.3996 27.3801 44.744 29.8914L51.6372 29.7994C51.6498 29.8002 51.6635 29.8035 51.6772 29.8069C51.6909 29.8103 51.7047 29.8137 51.7173 29.8144C52.2586 28.8542 53.2734 28.196 54.4497 28.1874C56.1994 28.1686 57.6437 29.5745 57.6633 31.3277C57.686 33.0734 56.28 34.5115 54.523 34.5274C53.3437 34.5434 52.3177 33.8988 51.7584 32.9518L51.748 32.9563C51.7458 32.951 51.7417 32.9451 51.7376 32.9391C51.7336 32.9332 51.7294 32.9273 51.7273 32.9221C51.3105 32.1995 51.3052 31.4983 51.3037 31.3056C51.3035 31.2774 51.3034 31.2602 51.302 31.2552C51.2397 31.2387 51.0154 31.2173 50.9543 31.5625L50.8569 32.9849L44.7955 33.0674C44.522 35.5282 43.5612 37.7898 42.1 39.6442L44.1158 42.1953C44.1315 42.2131 44.1408 42.2283 44.1501 42.2434C44.1547 42.251 44.1593 42.2587 44.1647 42.2666C45.2239 41.9701 46.4075 42.2224 47.2506 43.0428C48.5079 44.2703 48.5303 46.274 47.3027 47.5257C46.0751 48.7776 44.0596 48.7927 42.8023 47.5652C41.9548 46.7344 41.6822 45.5674 41.9562 44.4997L41.9487 44.4966L41.9636 44.4596C42.1781 43.6419 42.6821 43.142 42.8121 43.0131C42.8292 42.9961 42.8398 42.9856 42.8424 42.9816C42.8097 42.9342 42.6657 42.7558 42.3775 42.9581L41.3061 43.8858L39.8335 41.8712C37.9791 43.3095 35.7357 44.2561 33.27 44.5116L33.3798 51.64L33.3788 51.6505L33.377 51.6603C33.3756 51.6668 33.374 51.6734 33.3724 51.68C33.369 51.6937 33.3657 51.7074 33.365 51.72C34.3285 52.2621 34.9903 53.2761 35.0014 54.4498ZM37.2112 27.3867C36.7675 28.4903 37.3135 29.749 38.4305 30.1981C39.5476 30.647 40.8128 30.1164 41.2565 29.0128C41.7 27.9091 41.1542 26.6504 40.0371 26.2014C38.92 25.7523 37.6548 26.283 37.2112 27.3867ZM24.3964 37.312C23.5586 36.9752 23.1492 36.0312 23.4819 35.2034C23.8147 34.3757 24.7636 33.9777 25.6014 34.3145C26.4392 34.6513 26.8486 35.5953 26.5159 36.423C26.1831 37.2508 25.2342 37.6487 24.3964 37.312ZM30.6124 24.7692C29.7746 24.4323 29.3652 23.4884 29.6979 22.6606C30.0306 21.8329 30.9795 21.4349 31.8174 21.7717C32.6552 22.1085 33.0646 23.0525 32.7319 23.8802C32.3991 24.7079 31.4502 25.1059 30.6124 24.7692ZM37.2224 36.1223C36.8897 36.9501 37.2991 37.894 38.1369 38.2308C38.9747 38.5676 39.9236 38.1696 40.2564 37.3418C40.5891 36.5142 40.1797 35.5701 39.3419 35.2334C38.5041 34.8965 37.5552 35.2945 37.2224 36.1223ZM31.9456 34.6194C30.27 33.9458 29.4512 32.0578 30.1166 30.4023C30.7821 28.7468 32.6799 27.9509 34.3555 28.6243C36.0311 29.2979 36.85 31.186 36.1845 32.8415C35.5191 34.4969 33.6213 35.2929 31.9456 34.6194Z" fill="black"/>
  </mask>
  <g mask="url(#mask0)">
    <path d="M57.9461 5.28557H27.5654V39.7171H57.9461V5.28557Z" fill="black"/>
  </g>
</svg>
