<svg viewBox="0 0 21 36" fill="none" xmlns="http://www.w3.org/2000/svg">
<path d="M2.39293 13.3313C2.92679 13.2412 3.69292 13.1736 4.40486 13.2718L4.36435 10.2732L3.46736 10.2336C3.24965 10.2003 3.25602 10.0605 3.26544 10.0181C3.26823 10.0176 3.27691 10.0173 3.29082 10.017C3.40277 10.0143 3.85413 10.0035 4.31676 9.72323C4.32142 9.72125 4.33072 9.71728 4.33805 9.70867L4.33607 9.70403C4.92743 9.33662 5.31709 8.67689 5.29064 7.93144C5.2526 6.82354 4.31809 5.96093 3.20773 6.00137C2.09736 6.0418 1.23082 6.97623 1.26886 8.08414C1.29531 8.82959 1.72781 9.45667 2.34444 9.78039C2.34332 9.78635 2.34197 9.7918 2.34063 9.79724C2.33794 9.80814 2.33526 9.81903 2.33433 9.83405L2.39293 13.3313Z" fill="#AD00FF"/>
<path d="M10.8531 15.937C10.4191 15.3642 9.82962 14.8702 9.38841 14.5565L10.9395 12.9225C10.9507 12.9126 10.9603 12.9068 10.9699 12.901C10.9747 12.8981 10.9795 12.8952 10.9846 12.8917C10.7774 12.2268 10.915 11.4776 11.4234 10.9318C12.1799 10.1215 13.4534 10.0734 14.2672 10.83C15.0809 11.5866 15.1317 12.8573 14.3752 13.6676C13.8668 14.2134 13.1248 14.4044 12.4468 14.246L12.445 14.2507C12.4337 14.2516 12.4243 14.2479 12.4196 14.246C11.8943 14.117 11.5675 13.8055 11.4864 13.7283C11.4764 13.7186 11.4701 13.7127 11.4677 13.7111C11.431 13.7344 11.3277 13.8288 11.4581 14.0062L12.0644 14.6685L10.8531 15.937Z" fill="#AD00FF"/>
<path d="M13.4874 23.7034C13.5856 22.9915 13.518 22.2254 13.4279 21.6915L16.9251 21.6329C16.9402 21.6338 16.9511 21.6365 16.962 21.6392C16.9674 21.6405 16.9728 21.6419 16.9788 21.643C17.3025 21.0264 17.9296 20.5939 18.6751 20.5674C19.783 20.5294 20.7174 21.3959 20.7578 22.5063C20.7983 23.6167 19.9357 24.5512 18.8278 24.5892C18.0823 24.6157 17.4226 24.226 17.0552 23.6346L17.0505 23.6366C17.0419 23.6293 17.038 23.62 17.036 23.6153C16.7557 23.1527 16.7449 22.7013 16.7422 22.5894C16.7419 22.5755 16.7416 22.5668 16.7411 22.564C16.6987 22.5546 16.5588 22.5482 16.5256 22.7659L16.486 23.6629L13.4874 23.7034Z" fill="#AD00FF"/>
<path fill-rule="evenodd" clip-rule="evenodd" d="M10.4204 27.5431L9.99912 28H0V15.3282C0.828214 14.8723 1.73292 14.5658 2.67877 14.4174C3.18611 14.3376 3.73104 14.2552 4.68244 14.3378C6.18226 14.4683 7.56175 15.0066 8.72062 15.8363C9.91045 16.6882 10.3497 17.3114 10.7488 17.8977C11.2749 18.6707 11.6726 19.5378 11.9109 20.4678C12.2196 21.6727 12.2038 23.1794 11.9396 24.4256C11.6586 25.5781 11.1339 26.6375 10.4204 27.5431ZM7.33282 19.8011C7.05263 20.4981 7.39741 21.2932 8.1029 21.5768C8.80839 21.8604 9.60743 21.5252 9.88762 20.8281C10.1678 20.131 9.82302 19.336 9.11754 19.0524C8.41204 18.7688 7.613 19.104 7.33282 19.8011ZM3.16531 18.1478C2.63619 17.9351 2.37761 17.3388 2.58775 16.816C2.79789 16.2932 3.39717 16.0418 3.92629 16.2545C4.45541 16.4672 4.71399 17.0635 4.50385 17.5863C4.29371 18.1091 3.69443 18.3605 3.16531 18.1478ZM7.33992 25.3187C7.12978 25.8415 7.38837 26.4377 7.91748 26.6504C8.4466 26.8632 9.04588 26.6118 9.25602 26.089C9.46616 25.5661 9.20758 24.9699 8.67846 24.7572C8.14934 24.5445 7.55006 24.7958 7.33992 25.3187ZM4.00735 24.3694C2.94911 23.9439 2.43195 22.7514 2.85222 21.7058C3.2725 20.6602 4.47107 20.1574 5.5293 20.5828C6.58754 21.0083 7.1047 22.2008 6.68443 23.2464C6.26415 24.292 5.06558 24.7948 4.00735 24.3694Z" fill="#AD00FF"/>
</svg>
