<svg focusable="false" width="48" height="48" viewBox="0 0 48 48" fill="none" xmlns="http://www.w3.org/2000/svg">
<path fill-rule="evenodd" clip-rule="evenodd" d="M10.8436 17.7764C11.7011 17.6316 12.9317 17.5231 14.0753 17.6808L14.0102 12.8643L12.5694 12.8007C12.2197 12.7473 12.2299 12.5227 12.2451 12.4546C12.2496 12.4537 12.2635 12.4533 12.2858 12.4528C12.4657 12.4485 13.1907 12.4311 13.9338 11.9809C13.9412 11.9777 13.9562 11.9714 13.968 11.9575L13.9648 11.9501C14.9146 11.3599 15.5405 10.3002 15.498 9.10286C15.4369 7.32329 13.9359 5.93774 12.1524 6.00268C10.3688 6.06762 8.97697 7.56856 9.03807 9.34813C9.08055 10.5455 9.77525 11.5528 10.7657 12.0727C10.7639 12.0823 10.7618 12.0911 10.7596 12.0998C10.7553 12.1173 10.751 12.1348 10.7495 12.1589L10.8436 17.7764ZM24.4328 21.9619C23.7357 21.0418 22.7888 20.2484 22.0801 19.7444L24.5714 17.1199C24.5896 17.1039 24.605 17.0946 24.6204 17.0852C24.6281 17.0806 24.6358 17.0759 24.6439 17.0704C24.3112 16.0024 24.5322 14.7989 25.3488 13.9222C26.564 12.6206 28.6095 12.5435 29.9166 13.7588C31.2236 14.974 31.3053 17.0151 30.0902 18.3167C29.2735 19.1934 28.0816 19.5001 26.9927 19.2458L26.9897 19.2533C26.9716 19.2547 26.9565 19.2487 26.9489 19.2456C26.1052 19.0385 25.5802 18.5381 25.45 18.4141C25.4338 18.3986 25.4237 18.389 25.4199 18.3865C25.361 18.424 25.195 18.5755 25.4045 18.8606L26.3783 19.9244L24.4328 21.9619ZM28.6641 34.4365C28.8218 33.293 28.7133 32.0624 28.5685 31.2049L34.186 31.1108C34.2101 31.1122 34.2276 31.1166 34.2451 31.1209L34.2533 31.1229C34.2594 31.1243 34.2656 31.1258 34.2722 31.127C34.7922 30.1365 35.7994 29.4418 36.9968 29.3994C38.7764 29.3383 40.2773 30.7301 40.3422 32.5137C40.4072 34.2972 39.0216 35.7982 37.2421 35.8593C36.0447 35.9018 34.985 35.2759 34.3948 34.3261L34.3874 34.3292C34.3736 34.3175 34.3672 34.3025 34.364 34.295C33.9139 33.5519 33.8964 32.8269 33.8921 32.6471C33.8916 32.6248 33.8912 32.6108 33.8903 32.6064C33.8222 32.5912 33.5976 32.581 33.5442 32.9307L33.4806 34.3715L28.6641 34.4365ZM23.7377 40.6041L23.0611 41.3379H7V20.9838C8.33032 20.2515 9.78349 19.7593 11.3028 19.5208C12.1177 19.3927 12.993 19.2603 14.5212 19.3929C16.9302 19.6026 19.146 20.4672 21.0075 21.7999C22.9186 23.1683 23.6242 24.1694 24.2652 25.1111C25.1103 26.3528 25.749 27.7454 26.1318 29.2394C26.6276 31.1746 26.6023 33.5948 26.178 35.5965C25.7266 37.4476 24.8838 39.1494 23.7377 40.6041ZM18.7783 28.1684C18.3283 29.288 18.8821 30.565 20.0153 31.0206C21.1485 31.4762 22.4319 30.9378 22.882 29.8181C23.332 28.6984 22.7782 27.4214 21.645 26.9658C20.5118 26.5103 19.2284 27.0487 18.7783 28.1684ZM12.0843 25.5128C11.2344 25.1711 10.819 24.2134 11.1566 23.3736C11.4941 22.5338 12.4567 22.13 13.3066 22.4717C14.1565 22.8134 14.5718 23.7711 14.2343 24.6109C13.8968 25.4507 12.9342 25.8545 12.0843 25.5128ZM18.7897 37.031C18.4522 37.8707 18.8675 38.8285 19.7174 39.1702C20.5673 39.5118 21.5299 39.1081 21.8675 38.2683C22.205 37.4285 21.7897 36.4708 20.9398 36.1291C20.0899 35.7874 19.1273 36.1912 18.7897 37.031ZM13.4368 35.5062C11.737 34.8229 10.9063 32.9074 11.5814 31.2278C12.2564 29.5483 14.1816 28.7407 15.8814 29.4241C17.5812 30.1074 18.4119 32.0229 17.7368 33.7024C17.0618 35.382 15.1366 36.1896 13.4368 35.5062Z" fill="currentColor"/>
</svg>
