<svg width="33" height="37" viewBox="0 0 33 37" fill="none" xmlns="http://www.w3.org/2000/svg">
<path fill-rule="evenodd" clip-rule="evenodd" d="M19.577 9.28485H32.4392C32.7489 9.28485 33 9.53176 33 9.83636V32.9998H18.2574C18.2483 32.7312 18.2975 31.412 18.3559 29.8479C18.4481 27.378 18.5631 24.2973 18.5069 23.7769C18.4008 22.7937 17.7629 21.3566 17.4356 20.6192C17.4154 20.5738 17.3965 20.5311 17.3788 20.4912L17.3648 20.46C16.937 19.5067 16.2773 18.0369 14.7805 17.5706C12.3833 16.8244 11.8677 18.9327 11.6835 19.6859C11.6688 19.7459 11.6563 19.7972 11.645 19.8379C11.3508 20.9053 11.3317 20.9789 11.3088 21.0513C11.2964 21.0903 11.283 21.129 11.2249 21.322C11.0552 21.7857 10.7055 22.3497 10.3142 22.9805C10.0005 23.4864 9.66002 24.0353 9.36438 24.6101C9.30326 24.7288 9.30163 24.9195 9.30163 24.9195C9.30163 24.9195 9.30365 25.4594 9.33202 26.2689C9.35038 26.7886 9.38148 27.4192 9.41454 28.0896C9.43297 28.4635 9.45202 28.8498 9.4698 29.2361L9.65121 32.9998H5.52285C5.52285 32.9998 6.42483 30.7256 7.08484 26.8797C6.84848 26.9112 6.6091 26.9332 6.36393 26.9332C3.4218 26.9332 1.03679 24.5874 1.03679 21.6938C1.03679 20.9362 1.20361 20.2181 1.49784 19.5679C0.574609 18.6796 0 17.4422 0 16.0716C0 14.1598 1.11748 12.5084 2.74261 11.7032C2.72781 11.5523 2.71906 11.3996 2.71906 11.2448C2.71906 8.63931 4.86676 6.5273 7.51567 6.5273C7.64448 6.5273 7.77093 6.53645 7.8971 6.54622C8.77441 5.5985 10.035 5 11.4409 5C13.5286 5 15.2998 6.31431 15.9587 8.14582C17.978 8.93619 19.4072 10.872 19.4072 13.14C19.4072 13.544 19.3582 13.9362 19.2723 14.3147C20.2059 15.2793 20.7824 16.5814 20.7824 18.0185C20.7824 18.7397 20.6356 19.4265 20.3738 20.055C21.1425 19.1006 21.6048 17.8966 21.6048 16.5846C21.6048 15.5254 21.3003 14.5385 20.7807 13.694C20.7958 13.5109 20.8091 13.327 20.8091 13.14C20.8091 11.7059 20.3517 10.3786 19.577 9.28485ZM10.6637 15.268C10.9153 16.3939 11.7465 17.0337 12.8819 16.7885C14.0169 16.5432 14.52 15.7131 14.2479 14.494C14.247 14.4903 14.2459 14.4868 14.2447 14.4834C14.2437 14.4803 14.2426 14.4771 14.2418 14.4737L14.2467 14.473C14.2467 14.473 13.9351 12.5783 13.0416 12.4588C12.1481 12.3397 8.91734 14.292 9.02759 14.8344C9.08844 15.1338 9.88801 15.0706 10.4132 15.0291C10.491 15.023 10.5628 15.0173 10.6252 15.0133C10.6287 15.0378 10.6317 15.062 10.6348 15.0862C10.6422 15.1456 10.6496 15.205 10.6637 15.268ZM24.0279 28.0362H29.0747V23.0726H24.0279V28.0362ZM24.0279 18.6605H29.0747V13.6969H24.0279V18.6605Z" fill="black"/>
<path d="M13.135 21.3794C13.0324 21.6945 12.8083 22.2985 12.6295 22.5873C12.5775 22.6738 12.5225 22.7668 12.4642 22.8655C12.0832 23.5101 11.5586 24.3976 10.7806 25.317C10.7318 25.3747 10.6713 25.4155 10.6095 25.4524C10.6145 25.6673 10.6189 25.9354 10.6203 26.2432C10.6225 26.7624 10.6164 27.3927 10.6099 28.0628L10.6098 28.0639C10.6062 28.4388 10.6024 28.8262 10.5999 29.2135C10.5924 30.0946 10.5867 30.9747 10.582 31.7085L10.582 31.7095C10.5786 32.2311 10.5758 32.6788 10.573 33H12.7236L12.7364 32.6307C12.8023 30.7224 12.8372 29.709 12.9747 28.4071C13.0938 27.7553 13.6667 26.5984 14.1343 25.6543C14.3222 25.275 14.4931 24.93 14.6106 24.6659C14.2181 23.7073 13.6445 22.4583 13.135 21.3794Z" fill="black"/>
<path d="M14.5037 32.8974L14.4848 32.9998H16.555L16.0622 27.5109C15.8505 27.8641 15.6417 28.2246 15.4728 28.5566C15.2023 29.1017 15.0343 30.0145 14.5037 32.8974Z" fill="black"/>
</svg>
