<svg focusable="false" width="48" height="48" viewBox="0 0 48 48" fill="#000" xmlns="http://www.w3.org/2000/svg"><path fill-rule="evenodd" clip-rule="evenodd" d="M25.897 15.169h12.11c.291 0 .528.236.528.528V37.87h-13.88c-.009-.258.037-1.52.092-3.018.087-2.364.195-5.313.143-5.811-.1-.942-.701-2.317-1.01-3.023a76.108 76.108 0 01-.053-.123l-.013-.03c-.403-.912-1.024-2.319-2.433-2.765-2.257-.715-2.742 1.303-2.916 2.024-.014.058-.025.107-.036.146-.277 1.022-.295 1.092-.316 1.162-.012.037-.025.074-.08.259-.16.444-.489.983-.857 1.587-.295.485-.616 1.01-.894 1.56a.813.813 0 00-.06.296s.003.517.03 1.292c.017.498.046 1.101.077 1.743l.052 1.098.17 3.603h-3.886s.85-2.178 1.47-5.86a5.03 5.03 0 01-.678.052 5.015 5.015 0 01-4.581-7.05 4.68 4.68 0 011.172-7.529 4.516 4.516 0 014.494-4.955c.12 0 .24.009.358.018a4.5 4.5 0 013.337-1.48 4.513 4.513 0 014.253 3.011 5.146 5.146 0 013.247 4.781c0 .387-.046.762-.127 1.125a5.126 5.126 0 011.037 5.495 5.33 5.33 0 00.383-6.09 6.5 6.5 0 00.027-.53c0-1.373-.43-2.643-1.16-3.69zm-8.392 5.727c.237 1.078 1.02 1.69 2.089 1.456 1.068-.235 1.542-1.03 1.286-2.197l-.003-.01a.124.124 0 01-.003-.009h.005s-.294-1.814-1.135-1.929c-.841-.114-3.883 1.755-3.78 2.274.058.287.81.226 1.305.187.074-.006.141-.012.2-.015a4.6 4.6 0 01.009.07c.007.056.014.113.027.173zM30.087 33.12h4.752v-4.752h-4.752v4.752zm0-8.975h4.752v-4.752h-4.752v4.752z" /><path d="M19.832 26.747c-.097.301-.308.88-.476 1.156l-.156.266c-.358.617-.852 1.467-1.585 2.347a.62.62 0 01-.16.13c.004.205.008.462.01.757.001.497-.004 1.1-.01 1.742l-.01 1.101c-.007.843-.012 1.686-.017 2.389l-.008 1.236h2.025l.012-.354c.062-1.827.095-2.797.224-4.043.112-.624.651-1.731 1.092-2.635.177-.363.337-.694.448-.946-.37-.918-.91-2.114-1.39-3.146zM21.12 37.773l-.017.098h1.949l-.464-5.255c-.2.338-.396.683-.555 1.001-.255.522-.413 1.396-.913 4.156z"/></svg>
