<svg fill="currentColor" height="36" viewBox="0 0 27 36" width="27" xmlns="http://www.w3.org/2000/svg" focusable="false">
	<g fill="currentColor">
		<path clip-rule="evenodd" d="m15.7143 9.5197h10.1339c.244 0 .4418.20282.4418.45303v19.02707h-11.6153c-.0072-.2206.0316-1.3042.0776-2.5891.0726-2.0288.1632-4.5593.119-4.9868-.0837-.8076-.5863-1.9881-.8441-2.5938-.0159-.0373-.0309-.0724-.0447-.1052l-.0111-.0257c-.3371-.783-.8568-1.9903-2.0361-2.3733-1.8888-.613-2.29495 1.1188-2.44008 1.7375-.01155.0493-.02145.0915-.0303.1249-.23182.8768-.24687.9372-.26494.9967-.00972.0321-.02032.0638-.06607.2224-.13369.3809-.40925.8441-.7175 1.3623-.24721.4155-.51544.8664-.74837 1.3386-.04816.0975-.04944.2541-.04944.2541s.00159.4436.02394 1.1085c.01447.4268.03897.9449.06501 1.4956.01453.3071.02953.6244.04355.9418l.14292 3.0915h-3.25264s.71065-1.8681 1.23066-5.0272c-.18623.0259-.37484.044-.56799.044-2.31805 0-4.19715-1.927-4.19715-4.3038 0-.6223.13144-1.2123.36326-1.7463-.727399-.7297-1.180121-1.7461-1.180121-2.872 0-1.5704.880441-2.9269 2.160851-3.5883-.01167-.124-.01856-.2494-.01856-.3765 0-2.14027 1.69213-3.87513 3.77915-3.87513.10148 0 .20111.00752.30052.01554.69121-.77849 1.6844-1.27011 2.79206-1.27011 1.64484 0 3.04044 1.07961 3.55954 2.58406 1.5909.64924 2.7169 2.23944 2.7169 4.10234 0 .3319-.0386.654-.1062.965.7355.7923 1.1897 1.8619 1.1897 3.0423 0 .5925-.1156 1.1567-.3219 1.6729.6057-.7839.9699-1.7729.9699-2.8507 0-.8701-.2399-1.6807-.6493-2.3744.0119-.1504.0224-.3014.0224-.4551 0-1.178-.3604-2.2683-.9708-3.1667zm-7.02259 4.9148c.19824.9248.85313 1.4503 1.74769 1.2489.8942-.2015 1.2907-.8833 1.0762-1.8847-.0006-.0031-.0016-.0059-.0025-.0088-.0008-.0025-.0016-.0051-.0023-.0079l.0039-.0006s-.2455-1.5564-.9495-1.6545c-.70393-.0979-3.24938 1.5058-3.16251 1.9514.04794.2459.6779.194 1.0917.1599.06129-.0051.11784-.0097.16705-.013.00274.0201.00512.04.00751.0599.00584.0488.01168.0975.02276.1494zm10.52939 10.4881h3.9763v-4.0772h-3.9763zm0-7.7014h3.9763v-4.0773h-3.9763z" fill-rule="evenodd" />
		<path d="m10.6388 19.4545c-.0808.2589-.2574.755-.3983.9922-.0409.0711-.0842.1475-.1302.2285-.30017.5295-.71346 1.2585-1.32645 2.0137-.03848.0475-.0861.0809-.13484.1112.00394.1766.00743.3968.00853.6497.00176.4265-.00308.9442-.00822 1.4947l-.00001.0008c-.00287.308-.00584.6262-.00781.9444-.00596.7237-.01041 1.4467-.01413 2.0494v.0008c-.00264.4285-.00491.7962-.00707 1.0601h1.6944l.0101-.3033c.0519-1.5675.0794-2.4.1878-3.4694.0937-.5354.5452-1.4857.9136-2.2613.148-.3115.2826-.595.3753-.8119-.3093-.7874-.7613-1.8133-1.1627-2.6996z" />
		<path d="m11.7172 28.9157-.0149.0842h1.6311l-.3883-4.5088c-.1668.2901-.3313.5862-.4643.859-.2132.4478-.3456 1.1975-.7636 3.5656z" />
	</g>
</svg>
