<svg width="24" height="36" viewBox="0 0 24 36" fill="currentColor" xmlns="http://www.w3.org/2000/svg" focusable="false">
	<path fill-rule="evenodd" clip-rule="evenodd" d="M21.8369 11.5039C22.6325 11.1582 23.5501 11.5533 23.881 12.3887C24.2118 13.22 23.8298 14.1789 23.0224 14.5164C22.4867 14.7509 21.8999 14.6398 21.4706 14.2941L21.4666 14.2982C21.4647 14.2962 21.4617 14.2941 21.4588 14.2921C21.4558 14.29 21.4529 14.288 21.4509 14.2859C21.1279 14.0202 20.9968 13.6856 20.9607 13.5936C20.9554 13.5802 20.9522 13.5719 20.9507 13.5698C20.9192 13.5739 20.8128 13.6069 20.8483 13.7838L21.0649 14.4793L18.1465 15.7592C18.4261 16.928 18.4025 18.1461 18.0598 19.3066L19.5798 20.0939C19.5903 20.0994 19.5973 20.1049 19.6043 20.1104L19.6083 20.1135L19.6152 20.1186C20.0366 19.7606 20.6195 19.6371 21.163 19.8552C21.9704 20.1803 22.3761 21.1269 22.065 21.9705C21.7538 22.8141 20.848 23.238 20.0406 22.9129C19.497 22.6948 19.1426 22.1927 19.0599 21.633H19.0559C19.052 21.6248 19.052 21.6166 19.052 21.6125C18.9924 21.1769 19.1229 20.8357 19.1553 20.7511C19.1593 20.7406 19.1618 20.7341 19.1623 20.7318C19.1347 20.7112 19.0362 20.6618 18.9456 20.8141L18.6424 21.4725L17.4178 20.8046C16.8507 21.7923 16.0551 22.603 15.0901 23.171L16.4765 26.7061C16.4785 26.7122 16.4795 26.7194 16.4804 26.7266C16.4814 26.7338 16.4824 26.741 16.4844 26.7472C17.024 26.8213 17.5123 27.1793 17.7329 27.739C18.0637 28.5703 17.6856 29.5292 16.8861 29.8749C16.0905 30.2206 15.1729 29.8255 14.842 28.9901C14.6175 28.4304 14.7239 27.8172 15.0547 27.3686L15.0508 27.3645C15.0527 27.3625 15.0547 27.3594 15.0567 27.3563L15.0599 27.3513C15.0608 27.3501 15.0617 27.349 15.0626 27.3481C15.3168 27.0106 15.6371 26.8735 15.7251 26.8359C15.738 26.8304 15.7459 26.827 15.7479 26.8254C15.7439 26.7925 15.7124 26.6814 15.5431 26.7184L14.8775 26.9448L13.6447 23.7924C13.0894 23.9529 12.5222 24.0393 11.9551 24.0393C11.4194 24.0393 10.8877 23.9611 10.3639 23.8171L9.61376 25.4402C9.60851 25.4512 9.60326 25.4585 9.59801 25.4658C9.59538 25.4695 9.59275 25.4731 9.59013 25.4773C9.92097 25.9258 10.0234 26.539 9.80281 27.0987C9.47197 27.9341 8.55823 28.3292 7.75871 27.9835C6.95918 27.6378 6.58108 26.6831 6.91192 25.8476C7.13642 25.2838 7.62086 24.9299 8.16044 24.8558V24.8517H8.18013C8.59423 24.7972 8.91609 24.9418 8.99903 24.9791C9.00996 24.984 9.01675 24.9871 9.01904 24.9875C9.03479 24.9628 9.08994 24.86 8.94421 24.7612L8.32192 24.4278L8.90663 23.2245C7.89836 22.6565 7.07127 21.817 6.48442 20.7923L3.15241 22.2286C3.14651 22.2306 3.13961 22.2316 3.13272 22.2327C3.12583 22.2337 3.11894 22.2347 3.11303 22.2368C3.04213 22.8006 2.69948 23.3109 2.16384 23.5414C1.36825 23.887 0.45057 23.492 0.119733 22.6565C-0.211105 21.8252 0.166995 20.8664 0.96652 20.5207C1.50216 20.2861 2.08901 20.3972 2.51831 20.7429L2.52225 20.7388C2.52421 20.7408 2.52716 20.7429 2.5301 20.745C2.53306 20.747 2.53603 20.7491 2.538 20.7511C2.86099 21.0168 2.99213 21.3514 3.02818 21.4434C3.03345 21.4568 3.03669 21.4651 3.03819 21.4672C3.0697 21.4631 3.17604 21.4302 3.1406 21.2532L2.92398 20.5577L5.84244 19.3025C5.49979 18.1297 5.48797 16.9238 5.75185 15.7962L4.08028 15.1065C4.06978 15.101 4.06278 15.0955 4.05577 15.09C4.05227 15.0873 4.04877 15.0845 4.04483 15.0818C3.62341 15.4398 3.0405 15.5633 2.49699 15.3452C1.68958 15.0201 1.28391 14.0735 1.59506 13.2299C1.9062 12.3862 2.81207 11.9623 3.61947 12.2875C4.16299 12.5056 4.51746 13.0076 4.60017 13.5673H4.60411C4.60805 13.5756 4.60805 13.5838 4.60805 13.5879C4.6676 14.0235 4.5371 14.3646 4.50473 14.4492C4.50071 14.4598 4.4982 14.4663 4.49777 14.4686C4.52534 14.4892 4.6238 14.5386 4.71439 14.3863L5.01765 13.7278L6.29931 14.2612C6.85464 13.1583 7.70537 12.2118 8.79241 11.5656L7.48087 8.29394C7.47891 8.28777 7.47792 8.28057 7.47694 8.27337C7.47595 8.26617 7.47497 8.25896 7.473 8.25278C6.93342 8.17871 6.44504 7.82067 6.22448 7.26098C5.89364 6.42968 6.27174 5.4708 7.07127 5.12511C7.86685 4.77942 8.78453 5.17449 9.11537 6.00991C9.33987 6.5696 9.23353 7.18279 8.90269 7.63136L8.90663 7.63548C8.90466 7.63754 8.90269 7.64062 8.90072 7.64371C8.89875 7.64679 8.89678 7.64988 8.89481 7.65194C8.64054 7.98943 8.32032 8.12646 8.23229 8.16412C8.21942 8.16963 8.21151 8.17302 8.2095 8.17459C8.21344 8.20751 8.24495 8.31863 8.41431 8.28159L9.08386 8.05525L10.2379 10.9319C11.4155 10.5903 12.6286 10.615 13.7471 10.9566L14.5446 9.5053C14.5498 9.49433 14.5551 9.48701 14.5603 9.4797C14.5629 9.47605 14.5656 9.47236 14.5682 9.46826C14.2374 9.01969 14.135 8.4065 14.3555 7.84681C14.6864 7.01139 15.6001 6.61632 16.3996 6.96201C17.1992 7.3077 17.5773 8.26658 17.2464 9.102C17.0219 9.6658 16.5375 10.0197 15.9979 10.0938V10.0979H15.9782C15.5641 10.1525 15.2423 10.0078 15.1593 9.97055C15.1484 9.96563 15.1416 9.96259 15.1393 9.96211C15.1235 9.9868 15.0684 10.0897 15.2141 10.1885L15.8364 10.5218L15.1847 11.6109C16.1851 12.22 17.0318 13.1089 17.6029 14.2365L20.8483 12.8167C20.8499 12.8162 20.8516 12.8157 20.8533 12.8153L20.8581 12.8142C20.8613 12.8136 20.8647 12.8131 20.868 12.8126C20.8749 12.8116 20.8818 12.8105 20.8877 12.8085C20.9586 12.2447 21.3012 11.7344 21.8369 11.5039ZM9.03212 15.6407C9.6194 15.6407 10.0955 15.1388 10.0955 14.5196C10.0955 13.9004 9.6194 13.3985 9.03212 13.3985C8.44483 13.3985 7.96874 13.9004 7.96874 14.5196C7.96874 15.1388 8.44483 15.6407 9.03212 15.6407ZM15.9388 19.852C15.9388 20.3164 15.5817 20.6928 15.1413 20.6928C14.7008 20.6928 14.3437 20.3164 14.3437 19.852C14.3437 19.3876 14.7008 19.0111 15.1413 19.0111C15.5817 19.0111 15.9388 19.3876 15.9388 19.852ZM15.4071 17.3266C15.9944 17.3266 16.4705 16.8247 16.4705 16.2055C16.4705 15.5863 15.9944 15.0843 15.4071 15.0843C14.8198 15.0843 14.3437 15.5863 14.3437 16.2055C14.3437 16.8247 14.8198 17.3266 15.4071 17.3266ZM9.04818 19.2917C9.04818 19.7561 8.69111 20.1326 8.25065 20.1326C7.81019 20.1326 7.45312 19.7561 7.45312 19.2917C7.45312 18.8274 7.81019 18.4509 8.25065 18.4509C8.69111 18.4509 9.04818 18.8274 9.04818 19.2917ZM13.0319 13.9597C13.4724 13.9597 13.8294 13.5832 13.8294 13.1188C13.8294 12.6544 13.4724 12.278 13.0319 12.278C12.5914 12.278 12.2344 12.6544 12.2344 13.1188C12.2344 13.5832 12.5914 13.9597 13.0319 13.9597ZM13.3151 16.766C13.3151 17.6948 12.601 18.4478 11.7201 18.4478C10.8391 18.4478 10.125 17.6948 10.125 16.766C10.125 15.8372 10.8391 15.0843 11.7201 15.0843C12.601 15.0843 13.3151 15.8372 13.3151 16.766ZM11.9698 22.3794C12.7039 22.3794 13.299 21.7519 13.299 20.9779C13.299 20.204 12.7039 19.5765 11.9698 19.5765C11.2357 19.5765 10.6406 20.204 10.6406 20.9779C10.6406 21.7519 11.2357 22.3794 11.9698 22.3794Z" fill="currentColor" />
</svg>
