<svg width="9" height="20" viewBox="0 0 9 20" fill="currentColor" xmlns="http://www.w3.org/2000/svg" focusable="false">
	<path d="M3.78577 2.83951H2.8384C2.70814 2.83951 2.60156 2.72335 2.60156 2.58137V1.54882C2.60156 1.40685 2.70814 1.29069 2.8384 1.29069H3.78577V0.258137C3.78577 0.116162 3.89235 0 4.02262 0H4.96998C5.10025 0 5.20683 0.116162 5.20683 0.258137V1.29069H6.15419C6.28446 1.29069 6.39104 1.40685 6.39104 1.54882V2.58137C6.39104 2.72335 6.28446 2.83951 6.15419 2.83951H5.20683V3.87206C5.20683 4.01404 5.10025 4.1302 4.96998 4.1302H4.02262C3.89235 4.1302 3.78577 4.01404 3.78577 3.87206V2.83951Z" fill="currentColor" />
	<path fill-rule="evenodd" clip-rule="evenodd" d="M0.236842 4.64196H8.76316C8.89342 4.64196 9 4.75812 9 4.9001V16H6.63158V13.6768L5.68421 13.9349V16H3.31579V13.6768L2.36842 13.9349V16H0V4.9001C0 4.75812 0.106579 4.64196 0.236842 4.64196ZM5.21053 6.44892H3.78947V7.99774H5.21053V6.44892ZM5.21053 9.03029H3.78947V10.5791H5.21053V9.03029ZM2.84211 6.44892H1.42105V7.99774H2.84211V6.44892ZM2.84211 9.03029H1.42105V10.5791H2.84211V9.03029ZM1.89474 13.1605H7.10526V12.1279H1.89474V13.1605ZM6.15789 10.5791H7.57895V9.03029H6.15789V10.5791ZM6.15789 7.99774H7.57895V6.44892H6.15789V7.99774Z" fill="currentColor" />
</svg>
