<svg fill="currentColor" height="36" viewBox="0 0 17 36" width="17" xmlns="http://www.w3.org/2000/svg" focusable="false">
	<g fill="currentColor">
		<path d="m7.1509 5.14661h-1.78947c-.24605 0-.44737-.21054-.44737-.46787v-1.8715c0-.25733.20132-.46787.44737-.46787h1.78947v-1.871496c0-.257331.20132-.467874.44737-.467874h1.78948c.24605 0 .44737.210543.44737.467874v1.871496h1.78948c.246 0 .4474.21054.4474.46787v1.8715c0 .25733-.2014.46787-.4474.46787h-1.78948v1.8715c0 .25733-.20132.46787-.44737.46787h-1.78948c-.24605 0-.44737-.21054-.44737-.46787z" />
		<path clip-rule="evenodd" d="m.447368 8.41355h16.105232c.2461 0 .4474.21054.4474.46787v20.11858h-4.4737v-4.2109l-1.7895.4679v3.743h-4.47364v-4.2109l-1.78948.4679v3.743h-4.47368v-20.11858c0-.25733.201316-.46787.447368-.46787zm9.394742 3.27515h-2.68422v2.8072h2.68422zm0 4.6787h-2.68422v2.8073h2.68422zm-4.47369-4.6787h-2.68421v2.8072h2.68421zm0 4.6787h-2.68421v2.8073h2.68421zm-1.78947 7.486h9.84215v-1.8715h-9.84215zm8.05265-4.6787h2.6842v-2.8073h-2.6842zm0-4.6788h2.6842v-2.8072h-2.6842z" fill-rule="evenodd" />
	</g>
</svg>
