<svg width="26" height="36" viewBox="0 0 26 36" fill="currentColor" xmlns="http://www.w3.org/2000/svg" focusable="false">
	<path d="M18.8179 24.8855C18.8179 24.3836 18.4178 23.98 17.9202 23.98C17.4226 23.98 17.0224 24.3836 17.0224 24.8855C17.0224 25.3874 17.4226 25.7909 17.9202 25.7909C18.4178 25.7909 18.8179 25.3874 18.8179 24.8855ZM19.8439 27.99C19.8439 27.4881 19.4438 27.0845 18.9462 27.0845C18.4486 27.0845 18.0484 27.4881 18.0484 27.99C18.0484 28.4919 18.4486 28.8955 18.9462 28.8955C19.4438 28.8955 19.8439 28.4919 19.8439 27.99ZM17.9048 21.2739C18.3306 21.1445 18.5717 20.6892 18.4434 20.2545L16.8634 16.8137C16.889 16.4463 17.1968 15.8461 17.2327 15.5408C17.4123 13.9937 17.202 12.1569 17.202 12.1569C18.4383 10.8582 18.4486 9.37318 17.4892 8.23485C16.3965 6.93095 11.5333 5.36317 7.36253 6.26865C2.96095 7.22588 2.23248 11.2721 2.29917 13.4349C2.37612 15.9496 3.77662 19.8561 3.21745 22.3553C2.97121 23.4522 3.78069e-06 29 3.78069e-06 29H10.4098V27.2863L8.32185 25.0148C8.20899 24.8699 8.28594 24.7613 8.31159 24.7354C8.31159 24.7354 11.4768 26.4274 12.6311 26.95C13.7648 27.4622 14.2573 26.6913 14.6215 25.9462C14.8268 25.5271 15.0371 25.584 15.35 25.4288C15.7399 25.2373 15.4577 24.4353 15.2372 24.0524C15.0422 23.7109 14.9294 23.654 14.9294 23.654C15.2885 23.6902 15.6373 23.623 15.9143 23.535C16.2273 23.4367 16.5043 23.1107 16.3965 22.7951C16.1657 22.1069 16.4581 21.5636 16.4581 21.5636L17.9048 21.2739ZM22.409 23.8506C22.409 23.3487 22.0088 22.9451 21.5112 22.9451C21.0136 22.9451 20.6134 23.3487 20.6134 23.8506C20.6134 24.3525 21.0136 24.7561 21.5112 24.7561C22.0088 24.7561 22.409 24.3525 22.409 23.8506ZM25.1022 21.9103C24.6046 21.9103 24.2045 22.3139 24.2045 22.8158C24.2045 23.3177 24.6046 23.7213 25.1022 23.7213C25.5999 23.7213 26 23.3177 26 22.8158C26 22.3139 25.5999 21.9103 25.1022 21.9103ZM19.9722 30.189C19.4746 30.189 19.0744 30.5926 19.0744 31.0945C19.0744 31.5964 19.4746 32 19.9722 32C20.4698 32 20.8699 31.5964 20.8699 31.0945C20.8699 30.5926 20.4698 30.189 19.9722 30.189ZM22.5064 26.1376C22.0088 26.1376 21.6087 26.5412 21.6087 27.0431C21.6087 27.545 22.0088 27.9486 22.5064 27.9486C23.004 27.9486 23.4042 27.545 23.4042 27.0431C23.4042 26.5412 22.9989 26.1376 22.5064 26.1376Z" fill="currentColor" />
</svg>
