<svg width="19" height="37" viewBox="0 0 19 37" fill="none" xmlns="http://www.w3.org/2000/svg">
<path d="M7.99219 5.85649H5.99219C5.71719 5.85649 5.49219 5.61691 5.49219 5.32408V3.19445C5.49219 2.90163 5.71719 2.66204 5.99219 2.66204H7.99219V0.532408C7.99219 0.239584 8.21719 0 8.49219 0H10.4922C10.7672 0 10.9922 0.239584 10.9922 0.532408V2.66204H12.9922C13.2672 2.66204 13.4922 2.90163 13.4922 3.19445V5.32408C13.4922 5.61691 13.2672 5.85649 12.9922 5.85649H10.9922V7.98612C10.9922 8.27895 10.7672 8.51853 10.4922 8.51853H8.49219C8.21719 8.51853 7.99219 8.27895 7.99219 7.98612V5.85649Z" fill="black"/>
<path fill-rule="evenodd" clip-rule="evenodd" d="M0.5 9.57404H18.5C18.775 9.57404 19 9.81362 19 10.1064V33H14V28.2083L12 28.7407V33H7V28.2083L5 28.7407V33H0V10.1064C0 9.81362 0.225 9.57404 0.5 9.57404ZM11 13.3009H8V16.4953H11V13.3009ZM11 18.625H8V21.8194H11V18.625ZM6 13.3009H3V16.4953H6V13.3009ZM6 18.625H3V21.8194H6V18.625ZM4 27.1435H15V25.0139H4V27.1435ZM13 21.8194H16V18.625H13V21.8194ZM13 16.4953H16V13.3009H13V16.4953Z" fill="black"/>
</svg>
