<svg width="48" height="48" viewBox="0 0 48 48" fill="none" xmlns="http://www.w3.org/2000/svg"><path d="M40.56 23.273L24.46 8.18a.68.68 0 00-.92 0L7.44 23.273c-.28.258-.44.622-.44 1.002v1.009c0 .376.305.68.68.68h2.72V40h27.2V25.965h2.72a.68.68 0 00.68-.681v-1.009c0-.38-.16-.744-.44-1.002zm-18.314-6.59c.214-1.345 1.077-2.175 2.4-1.962 1.256.202 1.909 1.127 1.672 2.617-.208 1.308-1.099 2.096-2.388 1.889-1.29-.208-1.909-1.127-1.684-2.544zm.62 21.195c-3.51 0-6.357-2.82-6.357-6.3 0-1.908.86-3.611 2.215-4.763-.004.16-.006.315-.006.46.005.635.173 1.206.47 1.689a4.424 4.424 0 00-.855 2.615c0 2.48 2.03 4.491 4.534 4.491a4.536 4.536 0 004.014-2.407c.087.242.17.465.237.648.192.516.417.93.66 1.269a6.368 6.368 0 01-4.911 2.298zm5.422-3.994a120.391 120.391 0 01-1.582-4.545c-.033-.002-3.08 0-4.28 0-1.2 0-2.451-.626-2.46-2.072-.008-1.053.144-2.725.437-4.32-.447.258-1.019.579-1.252 1.016-.407.653-.772 1.685-1.084 2.387-.16.323-.745 1.298-1.87 1.022.294-1.196.794-3.22 1.316-4.337.146-.31.267-.483.614-.86 1.032-1.046 3.08-2 3.498-2.14.864-.43 2.298-.317 2.975.514.515.632.355 1.254.218 2.267-.106.787-.25 1.902-.467 3.245.891.183 2.494.53 3.336.86.564.244.822.442 1.135 1.179.636 1.581 1.568 5.923 1.978 7.588-.423.104-1.727.308-2.512-1.804z" fill="#000"/></svg>