<?xml version="1.0" encoding="utf-8"?>
<!-- Generator: Adobe Illustrator 24.1.0, SVG Export Plug-In . SVG Version: 6.00 Build 0)  -->
<svg version="1.1" xmlns="http://www.w3.org/2000/svg" xmlns:xlink="http://www.w3.org/1999/xlink" x="0px" y="0px"
	 viewBox="0 0 64 64" style="enable-background:new 0 0 64 64;" xml:space="preserve">
<style type="text/css">
	.st0{fill:none;}
	.st1{fill:#FF1D25;}
	.st2{fill:#1D1D1B;}
</style>
<g id="Box">
	<rect class="st0" width="64" height="64"/>
</g>
<g id="Icon">
	<g>
		<path d="M33.67,32.04c-0.33,0-0.55-0.04-0.52-0.27c2.77-0.54,4.85-2.97,4.85-5.89c0-3.31-2.69-6-6-6s-6,2.69-6,6
			c0,1.53,0.58,2.93,1.53,3.99L22,39.76c0.6,0.79,1.03,1.71,1.22,2.72c0.77,0.41,1.57,0.76,2.4,1.06L32,32.13l6.38,11.42
			c0.83-0.3,1.63-0.66,2.4-1.06c0.19-1.01,0.61-1.94,1.22-2.72l-4.93-8.82C36.1,31.63,34.93,32.04,33.67,32.04z"/>
		<path d="M49.09,52.46c-0.63,0.2-1.29,0.32-1.98,0.32c-1.88,0-3.56-0.81-4.74-2.09L47.01,59H16.99l4.64-8.32
			c-1.18,1.28-2.86,2.09-4.74,2.09c-0.69,0-1.36-0.11-1.98-0.32L11.26,59H8V62h48V59h-3.26L49.09,52.46z"/>
		<path d="M55.77,22.62c-0.53-3.93-2.02-7.55-4.21-10.63v-1.21c0-2.45-1.99-4.44-4.44-4.44c-0.35,0-0.69,0.05-1.02,0.13
			c-3.23-2.35-7.07-3.91-11.23-4.4C34.08,1.41,33.09,1,32,1s-2.08,0.41-2.85,1.06c-4.17,0.49-8.01,2.05-11.24,4.4
			c-0.33-0.08-0.67-0.13-1.02-0.13c-2.45,0-4.44,1.99-4.44,4.44v1.21c-2.2,3.09-3.68,6.71-4.22,10.64
			c-1.69,0.63-2.89,2.24-2.89,4.15v2.67c0,2.31,1.77,4.19,4.03,4.4c0.92,2.62,2.29,5.02,4.01,7.13c-0.57,0.75-0.93,1.67-0.93,2.69
			v2.67c0,2.45,1.99,4.44,4.44,4.44c2.12,0,3.89-1.49,4.33-3.47c1.98,1,4.13,1.73,6.38,2.15c-0.01,0.14-0.04,0.28-0.04,0.43v2.67
			c0,2.45,1.99,4.44,4.44,4.44s4.44-1.99,4.44-4.44v-2.67c0-0.14-0.03-0.28-0.04-0.42c2.25-0.42,4.39-1.16,6.38-2.17
			c0.44,1.99,2.21,3.48,4.33,3.48c2.45,0,4.44-1.99,4.44-4.44v-2.67c0-1.02-0.35-1.94-0.93-2.69c1.71-2.11,3.07-4.51,3.99-7.13
			c2.27-0.2,4.05-2.09,4.05-4.4v-2.67C58.67,24.87,57.46,23.25,55.77,22.62z M45.67,10.78c0-0.8,0.65-1.44,1.44-1.44
			c0.8,0,1.44,0.65,1.44,1.44v1.78h-2.89V10.78z M30.56,5.44C30.56,4.65,31.2,4,32,4s1.44,0.65,1.44,1.44v1.78h-2.89V5.44z
			 M15.44,10.78c0-0.8,0.65-1.44,1.44-1.44c0.8,0,1.44,0.65,1.44,1.44v1.78h-2.89V10.78z M11.22,28.56H8.33v-1.78
			c0-0.8,0.65-1.44,1.44-1.44c0.8,0,1.44,0.65,1.44,1.44V28.56z M18.33,45.44h-2.89v-1.78c0-0.8,0.65-1.44,1.44-1.44
			c0.8,0,1.44,0.65,1.44,1.44V45.44z M33.44,51.67h-2.89v-1.78c0-0.8,0.65-1.44,1.44-1.44s1.44,0.65,1.44,1.44V51.67z M48.56,45.44
			h-2.89v-1.78c0-0.8,0.65-1.44,1.44-1.44c0.8,0,1.44,0.65,1.44,1.44V45.44z M51.7,33.1c-0.85,2.29-2.08,4.39-3.63,6.23
			c-0.31-0.07-0.63-0.11-0.96-0.11c-2.45,0-4.44,1.99-4.44,4.44v0.29c-2.3,1.37-4.89,2.29-7.64,2.69c-0.79-0.74-1.85-1.2-3.02-1.2
			c-1.17,0-2.23,0.46-3.03,1.21c-2.75-0.4-5.34-1.32-7.64-2.69v-0.3c0-2.45-1.99-4.44-4.44-4.44c-0.34,0-0.67,0.05-0.98,0.12
			c-1.54-1.84-2.76-3.95-3.61-6.24c1.16-0.8,1.92-2.14,1.92-3.66v-2.67c0-1.92-1.23-3.54-2.94-4.16c0.36-2.29,1.08-4.45,2.12-6.43
			c0.81,1.03,2.06,1.71,3.48,1.71c2.45,0,4.44-1.99,4.44-4.44v-2.67c0-0.91-0.28-1.76-0.75-2.46c2.1-1.37,4.45-2.38,6.98-2.93
			c0,0.02-0.01,0.04-0.01,0.06v2.67c0,2.45,1.99,4.44,4.44,4.44s4.44-1.99,4.44-4.44V5.44c0-0.02-0.01-0.04-0.01-0.07
			c2.53,0.55,4.88,1.56,6.98,2.93c-0.47,0.71-0.75,1.55-0.75,2.47v2.67c0,2.45,1.99,4.44,4.44,4.44c1.41,0,2.66-0.67,3.47-1.7
			c1.04,1.98,1.78,4.14,2.14,6.43c-1.71,0.62-2.94,2.24-2.94,4.17v2.67C49.78,30.96,50.54,32.3,51.7,33.1z M55.67,28.56h-2.89v-1.78
			c0-0.8,0.65-1.44,1.44-1.44c0.8,0,1.44,0.65,1.44,1.44V28.56z"/>
	</g>
</g>
</svg>
