<?xml version="1.0" encoding="utf-8"?>
<!-- Generator: Adobe Illustrator 17.1.0, SVG Export Plug-In . SVG Version: 6.00 Build 0)  -->
<svg version="1.2" baseProfile="tiny" xmlns="http://www.w3.org/2000/svg" xmlns:xlink="http://www.w3.org/1999/xlink" x="0px"
	 y="0px" width="64px" height="64px" viewBox="0 0 64 64" xml:space="preserve">
<g id="Box">
	<rect fill="none" width="64" height="64"/>
</g>
<g id="Icon">
	<g>
		<path d="M25.8241,23.8989c0.4935,1.0222,0.9382,2.2658,1.36,3.7769c0.2913,1.0433,0.6535,1.8441,1.0563,2.53
			C29.9791,29.4412,31.9302,29,34,29c4.0561,0,7.6818,1.6534,10.0676,4.2364c0.9172-2.0037,1.1036-3.5498,1.1689-7.3214
			c0.0139-0.8019,0.3489-1.551,0.9036-2.0966c-1.2495-2.5636-3.7614-4.5555-6.8659-5.3903l4.904-5.3498
			c0.7106-0.7753-0.1035-1.9813-1.0883-1.6121L39,13l3.5263-5.8772c0.558-0.93-0.5562-1.9586-1.4387-1.3282L38,8l-1.0238-4.6072
			c-0.2321-1.0441-1.7203-1.0441-1.9524,0L34,8l-3.0876-2.2054c-0.8825-0.6304-1.9967,0.3983-1.4387,1.3282L33,13l-4.0899-1.5338
			c-0.9848-0.3693-1.799,0.8368-1.0883,1.6121l4.904,5.3498C29.5892,19.2715,27.0601,21.2971,25.8241,23.8989z"/>
		<path d="M31.5498,32.4463l-1.5195-0.7983C25.9196,33.0242,23,36.4637,23,40.5c0,0.8667,0.1461,1.7022,0.3978,2.5H36.39
			c0.5345-0.5652,1.0397-1.0976,1.4899-1.571c2.9362-3.0878,4.0693-4.2845,5.1996-6.2877c-1.2188-1.5341-2.9454-2.744-4.9708-3.4495
			l-1.4363,0.7544l0.6924,1.542c0.1313,0.292,0.0625,0.6348-0.1704,0.8545c-0.2334,0.2188-0.5791,0.2646-0.8628,0.1172
			l-2.2202-1.167l-2.2202,1.167c-0.2884,0.1506-0.6334,0.098-0.8628-0.1172c-0.2329-0.2197-0.3018-0.5625-0.1704-0.8535
			L31.5498,32.4463z"/>
		<path d="M39.1459,43h14.7097C57.375,36.0625,55,31.5,51.4337,30.8571c0.326-2.2637,0.0912-4.6996-0.1245-6.1799
			c-0.1002-0.6876-0.855-1.0597-1.4659-0.7285l-2.0843,1.1299c-0.3174,0.1721-0.5165,0.5099-0.5228,0.871
			C47.1481,31.0405,46.8055,32.5585,44.8937,36C43.5932,38.3411,42.3177,39.6641,39.1459,43z"/>
		<path d="M21.3144,43C21.1105,42.1951,21,41.3592,21,40.5c0-3.858,2.166-7.2704,5.4713-9.3577
			c-0.4574-0.7922-0.8781-1.7265-1.2134-2.928c-1.3109-4.6967-2.5709-5.887-4.2644-6.1463
			c0.1295-0.9361,0.3978-2.4743,0.9035-3.9489c0.2236-0.6523-0.124-1.3633-0.7769-1.5879c-0.6553-0.2217-1.3643,0.125-1.5884,0.7773
			c-0.6654,1.9402-0.9622,3.9313-1.0753,4.8803c-1.425,0.4432-2.5486,1.8505-3.7139,6.0254c-1.621,5.8076-5.1834,5.5714-5.7017,11.5
			C8.9386,40.8834,9.0361,41.983,9.3016,43H21.3144z"/>
		<path d="M57.0002,45H7c0,0-6.0714,9.3571,13,16c7.4543,0,16.546,0,24.0002,0C63.0716,54.3571,57.0002,45,57.0002,45z"/>
	</g>
</g>
</svg>
