<svg width="48" height="48" viewBox="0 0 48 48" fill="none" xmlns="http://www.w3.org/2000/svg"><path d="M30 10.406H18c-.656 0-.797 1.125 0 1.36.422.14.984.234 1.36.328v20.812a4.701 4.701 0 004.687 4.688 4.701 4.701 0 004.687-4.688V12.141c.375-.094.89-.235 1.36-.329.703-.28.562-1.406-.094-1.406zm-8.813 1.875h5.625v7.5h-5.625v-7.5zm3.891 20.063c-.516 1.547-1.734 2.531-2.672 2.25-.937-.328-1.265-1.828-.703-3.422.375-1.078 1.078-1.875 1.781-2.156l2.157-6.282 1.218 1.641-1.78 5.203c.327.656.374 1.688 0 2.766z" fill="#000"/></svg>