<svg xmlns="http://www.w3.org/2000/svg" viewBox="0 0 48 48"><rect x="-4" y="-3.87" width="56.25" height="56.25" fill="none"/><path d="M10,34.91a7,7,0,0,1,.17-2.49A13.28,13.28,0,0,0,6,35C3.48,37.72,2.16,48,2.16,48H9a.67.67,0,0,1-.09-.14C8.77,47.45,5.09,38,10,34.91Z"/><path d="M42,35a14.26,14.26,0,0,0-4.54-2.75,8.06,8.06,0,0,1-.26,5,4,4,0,1,1-2.29-.72l.22,0a5.45,5.45,0,0,0,.07-4.13,4.58,4.58,0,0,0-3.13-2.13h0c-.13-1-.31-2.11-.48-3.05a12.08,12.08,0,0,0,2.84-5.85,6.41,6.41,0,0,0,1.81-4.85A5.23,5.23,0,0,0,35.16,13c.26-2.91.45-7.43-.69-9.25-1.4-2.24-3.1-3.33-6.35-2.6C26,.16,24.55-.47,20.82.44c-2.59.63-5.43,1.67-6.92,3.39s-1.34,6.31-1.11,9.26a5.31,5.31,0,0,0-1,3.46,6.47,6.47,0,0,0,1.8,4.85,12.37,12.37,0,0,0,3.24,6.34c-.09.71-.2,1.53-.3,2.39-.48.14-1.16.34-1.93.6a3.31,3.31,0,0,0-2.5,3.39,4.64,4.64,0,0,1,2.58.4c4,1.84,5.92,8.63,6,8.92a1.12,1.12,0,0,1-.06.7s0,0,0,.06a1.74,1.74,0,0,1-.11.18l-.16.19,0,0A7.47,7.47,0,0,1,17.7,46c-1,.32-1.29-.15-1.52-.84S16,44,16.92,43.47a6.51,6.51,0,0,1,1.24-.62c-.76-2.06-2.35-5.39-4.42-6.34a2.46,2.46,0,0,0-2.24,0c-3,1.4-1.67,7-.91,9.41a6.4,6.4,0,0,1,1.27-.41c1-.23,1.38,0,1.69.68s.43,1.2-.5,1.67l-.24.11h33S44.52,37.72,42,35ZM24,39.56C22,38,18.57,34.73,19,31.68c.21-1.67,0-.48.72-4.75-2-1.92-3.58-4.25-3.58-7-1.42-.44-1.79-2.23-1.79-3.34s.28-1.71.68-1.9a.94.94,0,0,1,.88.08c.13.57.22,1,.26,1.14a.84.84,0,0,0,.89.68v-5.9A24.64,24.64,0,0,0,26.4,7.94L31,11v5.53a.84.84,0,0,0,.89-.68c0-.15.13-.57.26-1.14a.94.94,0,0,1,.88-.08c.4.19.68.79.68,1.9s-.37,2.9-1.79,3.34c0,3.23-2.21,5.67-4.66,7.76a5.37,5.37,0,0,1-3.25,1,6.74,6.74,0,0,1-2.56-.55,5.27,5.27,0,0,0,3.13,2.26,5.85,5.85,0,0,0,4.77-.8s.25,1.67.24,2.11C29.87,34.68,26.16,38,24,39.56Z"/><circle cx="34.92" cy="40.57" r="1.75"/></svg>
