<svg viewBox="0 0 39 42" fill="none"><path d="M6.803 30.459c-.077-.765 0-1.53.153-2.14-1.453.61-2.829 1.375-3.593 2.216C1.147 32.905 0 41.847 0 41.847h6.038c0-.076-.076-.076-.076-.153-.153-.306-3.363-8.56.84-11.236z" fill="#01689B"/><path d="M34.854 30.535c-.84-.84-2.37-1.682-3.975-2.37.383 1.223.306 2.752-.229 4.434a3.479 3.479 0 011.529 2.904c0 1.911-1.605 3.516-3.516 3.516s-3.516-1.605-3.516-3.516c0-1.91 1.605-3.516 3.516-3.516h.23c.458-1.452.534-2.675.076-3.592-.612-1.223-1.988-1.682-2.752-1.835a32.242 32.242 0 01-.382-2.675c1.376-1.682 2.216-3.363 2.446-5.121.993-.917 1.605-2.446 1.605-4.28 0-.535 0-2.064-.917-3.058.229-2.522.382-6.497-.612-8.102-1.223-1.987-2.675-2.904-5.58-2.293C20.943.114 19.644-.42 16.357.42c-2.293.535-4.739 1.452-6.038 2.98-1.3 1.453-1.147 5.504-.994 8.103-.917.993-.917 2.446-.917 3.057 0 1.835.535 3.287 1.605 4.204.306 1.91 1.223 3.745 2.828 5.58-.076.611-.153 1.3-.306 2.063-.382.153-.993.306-1.681.535-1.453.535-2.217 1.453-2.217 2.981.764-.076 1.529 0 2.293.383 3.516 1.605 5.198 7.567 5.274 7.796.076.23 0 .459-.076.611v.077c0 .076-.077.076-.077.153l-.153.153c-.535.458-1.528.993-2.216 1.223-.841.305-1.147-.153-1.3-.765-.229-.611-.152-.994.612-1.452.306-.153.688-.382 1.07-.535-.688-1.835-2.064-4.74-3.898-5.58-.688-.306-1.3-.306-1.988 0-2.675 1.223-1.452 6.115-.764 8.255.382-.153.764-.306 1.147-.382.84-.23 1.223 0 1.452.611.306.612.382 1.07-.459 1.453-.076 0-.153.076-.229.076H38.217c0-.153-1.146-9.096-3.363-11.465zM19.109 34.51c-1.758-1.376-4.74-4.204-4.434-6.88.153-1.452 0-.382.612-4.127-1.758-1.682-3.134-3.745-3.134-6.191-1.223-.382-1.529-1.911-1.529-2.905 0-.993.23-1.528.612-1.681.306-.153.611 0 .764.076.077.535.153.84.23.994.152.688.764.611.764.611v-5.12a22.757 22.757 0 008.178-2.37l4.051 2.675v4.815s.612.077.765-.611c0-.153.076-.535.229-.994.153-.076.459-.23.764-.076.382.153.612.688.612 1.681 0 .994-.306 2.523-1.529 2.905 0 2.828-1.91 4.968-4.051 6.802-.611.535-1.682.841-2.828.841-.84 0-1.605-.23-2.217-.458.459.688 1.3 1.605 2.752 1.987 2.446.611 4.204-.688 4.204-.688s.23 1.452.23 1.834c.076 2.6-3.135 5.504-5.046 6.88z" fill="#01689B"/></svg>
