<svg xmlns="http://www.w3.org/2000/svg" viewBox="0 0 48 48"><rect x="-9.85" y="-14.42" width="64" height="64" fill="none"/><path d="M47.76,14.22a3.12,3.12,0,0,0-6,.8l-.08,0-6.49,2.71a12.72,12.72,0,0,0-4.84-5l1.17-2.8L30.3,9.29c-.29-.19-.18-.38-.15-.43a3.15,3.15,0,0,0,1.68.26h0A3.15,3.15,0,1,0,29,7.91L29,8l-1.47,3.49a12.65,12.65,0,0,0-7-.05L18.17,5.92l-1.34.44c-.34.07-.4-.15-.41-.21a3.24,3.24,0,0,0,1.37-1l0,0h0A3.1,3.1,0,0,0,18.23,2,3.13,3.13,0,1,0,15,6.3a.22.22,0,0,0,0,.08l2.62,6.26a12.8,12.8,0,0,0-5,5.16L9.39,16.52l-.6,1.26c-.19.29-.38.19-.44.15a3.11,3.11,0,0,0,.22-1.68v0h0a3.13,3.13,0,1,0-1.11,2.9l.07.05,4,1.58a12.77,12.77,0,0,0,.18,6.71l-5.83,2.4.43,1.33c.07.34-.14.41-.2.41a3.42,3.42,0,0,0-1-1.37l0,0H5a3.12,3.12,0,1,0,1.19,2.86l.07,0L13,30.3A12.67,12.67,0,0,0,17.81,35l-1.34,3.21,1.24.64c.29.19.18.38.15.43A3.15,3.15,0,0,0,16.18,39h0A3.14,3.14,0,1,0,19,40.18l.05-.07,1.68-4a12.3,12.3,0,0,0,3.18.43A12.6,12.6,0,0,0,27.29,36l2.46,6,1.34-.44c.33-.07.4.15.41.21a3.18,3.18,0,0,0-1.37,1l0,0h0A3.13,3.13,0,1,0,33,41.7s0-.06,0-.08l-2.77-6.77a12.63,12.63,0,0,0,4.66-4.52l3.36,1.33.61-1.26c.18-.3.37-.2.43-.16A3.16,3.16,0,0,0,39,31.92a.06.06,0,0,0,0,0h0a3.13,3.13,0,1,0,1.11-2.9s0,0-.07,0l-4-1.56a12.63,12.63,0,0,0,.17-6.79l5.84-2.45-.43-1.33c-.07-.34.14-.4.2-.41a3.35,3.35,0,0,0,1,1.37s0,0,0,0h0a3.13,3.13,0,0,0,4.82-3.64ZM31.35,26.81a8.06,8.06,0,1,1,0-6.17A8,8,0,0,1,31.35,26.81Z"/></svg>
