<svg width="48" height="48" viewBox="0 0 48 48" fill="currentColor" xmlns="http://www.w3.org/2000/svg"><path d="M39.85 23.298L24.44 8.717a.646.646 0 00-.88 0L8.15 23.298c-.268.25-.42.6-.42.968v.974c0 .364.291.658.65.658h2.604v13.559h26.032V25.898h2.603c.36 0 .651-.294.651-.658v-.974c0-.368-.152-.719-.42-.968zM14.997 36.203s.545-3.887 1.58-4.919c.83-.827 3.685-1.829 4.803-2.2.1-.384.173-.755.223-1.076-.644-.707-1.125-1.554-1.258-2.528-.651-.184-.782-1.42-.782-1.884 0-.465.089-.716.272-.795.042-.018.083-.017.124-.02-.092-.72-.343-3.161.336-4.005.548-.68 1.589-1.087 2.539-1.337 1.367-.359 1.899-.11 2.68.29 1.19-.29 1.814.142 2.327 1.026.54.93.268 3.306.17 4.02.05.001.102.004.154.026.183.079.273.33.273.795s-.131 1.7-.784 1.884c-.164 1.01-.636 1.848-1.273 2.546.048.316.123.68.23 1.056 1.114.369 3.98 1.373 4.812 2.202 1.035 1.032 1.58 4.919 1.58 4.919H14.997z"/></svg>
