<svg  width="37" height="37" viewBox="0 0 28 28" fill="none" xmlns="http://www.w3.org/2000/svg">
<circle cx="14" cy="14" r="14" />
<path  d="M14 28C21.732 28 28 21.732 28 14C28 6.26801 21.732 0 14 0C6.26801 0 0 6.26801 0 14C0 21.732 6.26801 28 14 28ZM13.36 17.35C13.12 17.65 13 18.03 13 18.47C13 18.98 13.13 19.36 13.38 19.61C13.63 19.87 14 20 14.48 20C14.97 20 15.33 19.85 15.57 19.56C15.81 19.27 15.93 18.9 15.93 18.47C15.93 17.95 15.8 17.56 15.55 17.29C15.3 17.03 14.93 16.89 14.45 16.89C13.96 16.89 13.6 17.04 13.36 17.35ZM15.79 8L13.31 8.2H13.3V16.19L15.57 16.14V13.51L15.79 8Z" fill="#FFFFFF"/>
</svg>
