<svg width="48" height="48" viewBox="0 0 48 48" fill="none" xmlns="http://www.w3.org/2000/svg">
<circle cx="24" cy="24" r="22"  stroke-width="4"/>
<path d="M25.6216 28.606H22.4048L21.7324 15.7256H26.2939L25.6216 28.606ZM21.6797 33.1147C21.6797 32.3765 21.8774 31.8184 22.2729 31.4404C22.6685 31.0625 23.2441 30.8735 24 30.8735C24.7295 30.8735 25.292 31.0669 25.6875 31.4536C26.0918 31.8403 26.2939 32.394 26.2939 33.1147C26.2939 33.8091 26.0918 34.3584 25.6875 34.7627C25.2832 35.1582 24.7207 35.356 24 35.356C23.2617 35.356 22.6904 35.1626 22.2861 34.7759C21.8818 34.3804 21.6797 33.8267 21.6797 33.1147Z" fill="white"/>
</svg>
