<svg width="48" height="48" viewBox="0 0 48 48" fill="#000" xmlns="http://www.w3.org/2000/svg">
  <path d="M22.998 8.84c0 1.26-.634 2.135-1.73 2.135-1.097 0-1.732-.77-1.732-2.134 0-1.295.606-2.205 1.731-2.205 1.068 0 1.732.77 1.732 2.205zm4.451 4.35c0 1.574-.816 2.668-2.226 2.668-1.41 0-2.225-.962-2.225-2.668 0-1.619.779-2.756 2.225-2.756 1.373 0 2.226.962 2.226 2.756zm11.066 10.472c.14.585.296 1.237.437 2.064.244 1.437-.482 2.222-1.075 2.305-.896-3.087-1.16-5.023-1.332-6.286-.089-.655-.153-1.128-.269-1.487a4.09 4.09 0 00-.212-.482c.267 1.19.13 1.799-.005 2.399l-.033.146c-.152.693-.187 1.417-.02 2.108.073.304.184.628.312.998.416 1.214 1.006 2.931 1.006 6.113 0 0-.715-.134-1.466-.212l-.1 7.852s-1.622-.263-1.703-2.02c0 0-.136-3.895-.197-5.8l-.047.008c-.054.009-.11.017-.164.028a7.386 7.386 0 01-.182.033l-.061.01c-.062 1.95-.196 5.769-.196 5.769-.108 1.706-1.698 1.972-1.698 1.972l-.104-7.594c-.823-.036-1.462-.174-1.462-.174 0-.319.007-.617.018-.906.8-.356 1.486-1.2 1.566-2.62.128-2.296.308-5.517-.352-7.963l.006-.03.005-.031a1.88 1.88 0 01.017-.086l-.045.09c-.187-.677-.44-1.291-.778-1.809a2.78 2.78 0 011.204-.785 6.146 6.146 0 012.036-.33h.026a6.15 6.15 0 012.036.33c1.407.475 2.163 1.78 2.462 4.496.072.652.21 1.23.37 1.894z" />
  <path d="M30.784 27.884l.002-.048c.194-3.45.538-9.58-2.525-10.485-1.76-.52-4.089-.565-6.075 0-3.066.872-2.72 7.017-2.527 10.47l.004.063c.088 1.564 1.084 2.008 1.74 2.008v-4.234c0-1.885.026-3.665.4-4.759.066-.19.167-.211.206-.16v20.61c1.375 0 2.472-.829 2.59-2.495l.364-9.25c.004-.11.098-.252.26-.252.163 0 .257.143.261.252l.364 9.25c.118 1.673 1.225 2.496 2.59 2.496V20.738c.062-.059.151-.039.205.161.297 1.11.4 2.89.4 4.759v4.234c.657 0 1.653-.444 1.74-2.008zm-1.603-16.909c1.097 0 1.731-.874 1.731-2.134 0-1.435-.663-2.205-1.73-2.205-1.126 0-1.732.91-1.732 2.205 0 1.365.635 2.134 1.731 2.134zm6.179 2.482c0 1.535-.725 2.401-1.977 2.401-1.254 0-1.979-.984-1.979-2.401 0-1.615.758-2.48 1.979-2.48 1.285 0 1.978 1.023 1.978 2.48z" />
  <path d="M20.393 17.53a2.44 2.44 0 00-.53-.234c-1.563-.469-4.14-.469-5.643 0-.748.233-1.31.805-1.662 1.61-.933 2.135-2.938 8.684-2.938 8.684.124.097.338.12.584.087.187 2.106.986 11.104 1.023 11.439.036.314 1.004.21.974-.127-.032-.354-.595-9.093-.776-11.904.19-.179.35-.393.445-.643a67.082 67.082 0 001.11-3.075l.23-.716c.253-.796.454-1.429.7-2.007.068-.158.132-.254.2-.186v18.721c1.167 0 2.024-.773 2.131-2.296l.335-8.43a.244.244 0 01.245-.232c.157 0 .231.131.235.232l.332 8.445c.079 1.47.826 2.281 2.148 2.281v-9.428c-.334-.441-.563-1.033-.608-1.81l-.003-.068c-.175-3.069-.467-8.18 1.468-10.343zm-5.295-4.325l.006-.075-.191-.032c-.43-.07-.82-.134-.815-.476.006-.417 1.277-1.095 2.5-1.435a.136.136 0 00.008-.002l.007-.002c.68-.189 1.313-.273 1.633-.146.714.284.795 1.585.795 2.417 0 1.417-.725 2.401-1.978 2.401-1.253 0-1.979-.866-1.979-2.401 0-.086.007-.168.014-.25z" />
</svg>
