<svg viewBox="0 0 46 48" fill="none">
  <path d="M39.4 33.5c-2.4.8-5.4 2-7.8 3v1.2c-.3 2.4-2.4 3.9-5.2 4-6.5.3-10.6-1.4-11.4-1.7-.3-.1-.3-.3-.3-.4 4.7.9 7.7 1 11.4.4C29 39.5 30 38.2 30 37c0-1.1-.7-1.7-2.5-1.8-5.9-.1-9.2-.8-14.2-1.6-3.5-.5-6.9.4-9.7 2.2C.8 37.6.2 38.5.2 38.5L5 47.8l6.3-2.5c.8-.3 1.5-.4 2.3-.3l8.7 2c2 .3 3.9-.1 5.6-1l17.3-10.8c-.3 0-1.1-3.4-6-1.7zM20.9 30c.1.7.7 1.1 1.4 1.1s1.3-.4 1.4-1.1C25 25.1 27 21.5 29 18.8c1.9-3 3.5-5.4 3.5-8.7C32.4 4.3 28 0 22.4 0c-5.8 0-10.1 4.3-10.1 10 0 3.4 1.6 5.9 3.4 8.8A40 40 0 0121 30zm1.4-26a6 6 0 016 6 6 6 0 01-6 6 6 6 0 01-6-6 6 6 0 016-6z" fill="#01689B"/>
  <path d="M22.3 13.4a3.4 3.4 0 100-6.8 3.4 3.4 0 000 6.8z" fill="#01689B"/>
</svg>
