<svg xmlns="http://www.w3.org/2000/svg" viewBox="0 0 48 48"><rect x="-9" y="-7" width="64" height="64" fill="none"/><path d="M40.84,33.48c-2.34.81-5.38,2-7.8,3.06a3.74,3.74,0,0,1,0,1.16c-.35,2.38-2.38,3.88-5.27,4a27.16,27.16,0,0,1-11.45-1.66c-.24-.1-.27-.22-.24-.33h0a31.48,31.48,0,0,0,11.38.35c2.79-.44,3.8-1.78,3.77-2.87s-.78-1.73-2.49-1.79a110.24,110.24,0,0,1-14.23-1.58,14.12,14.12,0,0,0-9.67,2.22,19.76,19.76,0,0,0-3.41,2.53L6.34,48l6.33-2.57a4.29,4.29,0,0,1,2.27-.26l8.68,1.93a8.43,8.43,0,0,0,5.62-1L46.55,35.21S45.7,31.81,40.84,33.48Z"/><path d="M22.3,30a1.48,1.48,0,0,0,2.87,0,37.27,37.27,0,0,1,5.14-11.25c1.87-2.89,3.48-5.39,3.48-8.73A9.84,9.84,0,0,0,23.73,0a9.84,9.84,0,0,0-10,10.06c0,3.34,1.61,5.84,3.47,8.73A37,37,0,0,1,22.3,30ZM23.73,4a6,6,0,1,1-6,6A6,6,0,0,1,23.73,4Z"/><circle cx="23.73" cy="10.01" r="3.38"/></svg>
