<svg focusable="false" width="48" height="48" viewBox="0 0 48 48" fill="#000" xmlns="http://www.w3.org/2000/svg">
  <path d="M26.406 15.042c0 1.198-.973 2.17-2.173 2.17a2.171 2.171 0 112.173-2.17z" />
  <path fill-rule="evenodd" clip-rule="evenodd" d="M23.296 27.912a.93.93 0 00.923.706.93.93 0 00.923-.706c.815-3.147 2.118-5.427 3.313-7.218 1.195-1.845 2.227-3.473 2.227-5.59 0-3.69-2.824-6.457-6.463-6.457-3.693 0-6.463 2.768-6.463 6.458 0 2.116 1.032 3.744 2.227 5.59 1.14 1.79 2.444 4.07 3.313 7.217zm.923-16.714a3.87 3.87 0 013.856 3.853 3.87 3.87 0 01-3.856 3.853 3.87 3.87 0 01-3.856-3.853c-.054-2.117 1.684-3.853 3.856-3.853z" />
  <path d="M35.199 30.128a94.866 94.866 0 00-4.997 1.953c.055.217.055.489 0 .76-.217 1.52-1.52 2.496-3.367 2.55-4.096.213-6.681-.824-7.295-1.07l-.036-.015c-.163-.054-.163-.162-.163-.217 3.041.543 4.942.597 7.331.217 1.792-.27 2.444-1.14 2.444-1.845 0-.705-.489-1.085-1.63-1.14-3.15-.09-5.188-.412-7.662-.803-.468-.073-.951-.15-1.46-.227-2.227-.326-4.4.271-6.192 1.41C10.434 32.788 10 33.33 10 33.33l3.15 6.023 4.073-1.628c.489-.163.977-.271 1.466-.163l5.594 1.249c1.249.217 2.498-.055 3.584-.652L39 31.213c-.028 0-.067-.064-.13-.165-.296-.486-1.11-1.818-3.671-.92z" />
</svg>
