<svg viewBox="0 0 48 48" xmlns="http://www.w3.org/2000/svg">
<path fill-rule="evenodd"  clip-rule="evenodd" d="M29.04 31.2H18.96v2.88h10.08V31.2zM26.138 26.74a2.507 2.507 0 01-2.32 1.984c-1.39.067-2.573-1.026-2.642-2.443-.068-1.416 1.003-2.62 2.393-2.687.619-.03 1.19.18 1.647.536h.017c.062-.007.192-.142-.076-.524-.209-.298-.834-.97-2.31-1.012l4.103-6.984c.455-.79 1.42-.453 1.255.437 0 0-1.913 9.98-2.067 10.693z" fill="currentColor"/><path fill-rule="evenodd" clip-rule="evenodd" d="M24 6C14.075 6 6 14.075 6 24s8.075 18 18 18 18-8.075 18-18S33.925 6 24 6zm10.249 27.23l-2.103-2.102-1.018 1.018 2.101 2.101c-2.446 2.212-5.677 3.57-9.229 3.57-3.552 0-6.783-1.358-9.23-3.57l2.102-2.101-1.018-1.018-2.103 2.103a13.776 13.776 0 01-3.531-8.511h2.98v-1.44h-2.98a13.736 13.736 0 013.54-8.502l2.094 2.094 1.018-1.018-2.094-2.095a13.736 13.736 0 018.502-3.54V13.2h1.44v-2.98a13.736 13.736 0 018.502 3.54l-2.095 2.094 1.019 1.018 2.094-2.094a13.736 13.736 0 013.54 8.502H34.8v1.433h2.98a13.795 13.795 0 01-3.531 8.517z" fill="currentColor"/>
</svg>