<?xml version="1.0" encoding="utf-8"?>
<!-- Generator: Adobe Illustrator 17.1.0, SVG Export Plug-In . SVG Version: 6.00 Build 0)  -->
<svg version="1.2" baseProfile="tiny" xmlns="http://www.w3.org/2000/svg" xmlns:xlink="http://www.w3.org/1999/xlink" x="0px"
	 y="0px" width="64px" height="64px" viewBox="0 0 64 64" xml:space="preserve">

<g id="Production">
	<g>
		<path fill="#01689B" stroke="none" d="M30.88,43c0-6.6938,5.4261-12.12,12.12-12.12c6.0109,0,10.9861,4.3802,11.9414,10.12H55c1.1045,0,2-0.8954,2-2V25
			c0-1.1046-0.8955-2-2-2H41V9c0-1.1046-0.8955-2-2-2H25c-1.1045,0-2,0.8954-2,2v14H9c-1.1045,0-2,0.8954-2,2v14
			c0,1.1046,0.8955,2,2,2h14v14c0,1.1046,0.8955,2,2,2h14c1.1045,0,2-0.8954,2-2v-0.0587C35.2601,53.9861,30.88,49.0109,30.88,43z"
			/>
		<g>
			<path fill="#01689B" stroke="none" d="M57.4512,52.8273l-4.9207-4.9208c-1.2499,1.2646-2.4283,1.8553-2.7351,1.9806
				c-0.6252,0.2555-0.9167,0.2121-1.0249,0.0164C50.7434,48.2524,52,45.7738,52,43c0-4.9706-4.0294-9-9-9c-4.9707,0-9,4.0294-9,9
				c0,4.9706,4.0293,9,9,9c1.394,0,2.7087-0.3262,3.8867-0.892l6.142,6.1418c1.1774,1.1774,2.5675,0.49,3.7404-0.6836
				C57.9418,55.3947,58.6292,54.0052,57.4512,52.8273z M43,48.1c-2.8167,0-5.1-2.2833-5.1-5.1c0-2.8167,2.2833-5.1,5.1-5.1
				s5.1,2.2833,5.1,5.1C48.1,45.8167,45.8167,48.1,43,48.1z"/>
		</g>
	</g>
</g>
</svg>
