<svg width="34" height="34" fill="none" xmlns="http://www.w3.org/2000/svg"><path fill="#fff" d="M0 0h34v34H0z"/><path fill-rule="evenodd" clip-rule="evenodd" d="M17 33c8.837 0 16-7.163 16-16S25.837 1 17 1 1 8.163 1 17s7.163 16 16 16zm-3.5-22.12v2.16h5.28a6.726 6.726 0 01-1.98 2.18c-.813.587-1.773 1.033-2.88 1.34l.44 1.94a9.63 9.63 0 001.2-.32c.36-.133.747-.3 1.16-.5.613.213 1.087.5 1.42.86.333.347.5.773.5 1.28 0 .76-.32 1.347-.96 1.76-.627.4-1.533.6-2.72.6H13.3v2H15c1.907 0 3.447-.42 4.62-1.26 1.173-.84 1.76-1.92 1.76-3.24 0-.867-.26-1.607-.78-2.22-.507-.613-1.22-1.027-2.14-1.24v-.04c.653-.413 1.173-.873 1.56-1.38.4-.507.767-1.12 1.1-1.84l-.34-2.08H13.5z" fill="currentColor"/></svg>