<svg width="34" height="34" fill="none" xmlns="http://www.w3.org/2000/svg"><path fill="#fff" d="M0 0h34v34H0z"/><path fill-rule="evenodd" clip-rule="evenodd" d="M17 33c8.837 0 16-7.163 16-16S25.837 1 17 1 1 8.163 1 17s7.163 16 16 16zm-3.402-21.822v2.18c.507-.133.973-.226 1.4-.28.427-.053.894-.08 1.4-.08.68 0 1.2.16 1.56.48.36.307.54.754.54 1.34 0 .454-.113.854-.34 1.2-.227.347-.607.727-1.14 1.14l-1.32 1c-.76.587-1.353 1.207-1.78 1.86a5.456 5.456 0 00-.84 2.14l.28 1.84h8.06l.02-2.16h-5.92c.12-.453.32-.86.6-1.22.28-.36.734-.753 1.36-1.18l1.08-.76c.987-.68 1.68-1.333 2.08-1.96.4-.64.6-1.38.6-2.22 0-1.16-.386-2.073-1.16-2.74-.76-.68-1.833-1.02-3.22-1.02-.533 0-1.073.04-1.62.12-.546.08-1.093.187-1.64.32z" fill="currentColor"/></svg>