<svg viewBox="0 0 25 26" fill="none" xmlns="http://www.w3.org/2000/svg">
<path d="M23.0455 3.54545H20.0909V1.18182C20.0909 0.236364 19.2636 0 18.3182 0C17.3727 0 16.5455 0.236364 16.5455 1.18182V3.54545H8.27273V1.18182C8.27273 0.236364 7.44546 0 6.5 0C5.55455 0 4.72727 0.236364 4.72727 1.18182V3.54545H1.77273C0.827273 3.54545 0 4.37273 0 5.31818V24.2273C0 25.1727 0.827273 26 1.77273 26H23.0455C23.9909 26 24.8182 25.1727 24.8182 24.2273V5.31818C24.8182 4.37273 23.9909 3.54545 23.0455 3.54545ZM2.36364 23.6364V9.45455H22.4545V23.6364H2.36364Z" fill="#CD005A"/>
<path d="M15.7191 12.1721L11.5828 16.4266L8.86457 14.5357C8.39184 14.1812 7.80094 14.2994 7.44639 14.6539C7.09184 15.0085 7.09184 15.5994 7.44639 16.0721L10.8737 20.6812C11.11 20.9176 11.4646 21.1539 11.8191 21.1539C12.1737 21.1539 12.5282 20.9176 12.7646 20.6812L17.4918 13.5903C17.8464 13.1176 17.7282 12.4085 17.2555 12.0539C16.7828 11.6994 16.1918 11.8176 15.7191 12.1721Z" fill="#CD005A"/>
</svg>
