<svg viewBox="0 0 46 45" fill="none" xmlns="http://www.w3.org/2000/svg"><path d="M44.916 13.18c-.623-1.49-2.349-2.194-3.845-1.578a2.914 2.914 0 00-1.785 2.328c-.023.007-.052.007-.074.014l-6.104 2.533a11.84 11.84 0 00-4.548-4.684l1.103-2.606-1.17-.595c-.274-.176-.17-.36-.141-.403.037.007.696.352 1.578.242h.037v-.008c1.015-.132 1.926-.763 2.348-1.769a2.912 2.912 0 00-1.592-3.817c-1.504-.617-3.223.088-3.845 1.578a2.893 2.893 0 00.4 2.893c-.015.022-.03.036-.044.066l-1.378 3.252a12.135 12.135 0 00-6.6-.044L17.085 5.45l-1.26.404c-.318.066-.377-.132-.384-.19.03-.023.74-.243 1.288-.933.008-.008.015-.022.023-.03l-.008-.007c.622-.8.823-1.894.4-2.892C16.522.312 14.796-.393 13.3.223a2.907 2.907 0 00-1.593 3.81c.415.999 1.333 1.637 2.348 1.77.008.022.008.051.015.073l2.467 5.836a11.942 11.942 0 00-4.69 4.809l-3.014-1.197-.57 1.175c-.17.272-.356.184-.408.147.007-.037.333-.698.207-1.571 0-.008 0-.022-.007-.037h-.007a2.914 2.914 0 00-1.845-2.283 2.956 2.956 0 00-3.807 1.681c-.586 1.505.177 3.194 1.696 3.773a2.954 2.954 0 002.911-.47c.022.015.037.03.067.045l3.748 1.475a11.678 11.678 0 00.17 6.255L5.5 27.754l.408 1.24c.067.316-.133.374-.193.382-.022-.03-.244-.735-.94-1.278-.008-.007-.023-.014-.03-.022l-.008.008a2.944 2.944 0 00-2.918-.397 2.907 2.907 0 00-1.593 3.81c.622 1.49 2.348 2.195 3.845 1.579a2.914 2.914 0 001.785-2.328c.022-.007.052-.007.074-.014l6.267-2.562a11.819 11.819 0 004.556 4.338l-1.267 2.996 1.17.594c.274.176.17.36.141.404-.037-.007-.696-.352-1.578-.242h-.037v.007c-1.015.132-1.926.764-2.348 1.77a2.904 2.904 0 001.593 3.81c1.503.616 3.222-.088 3.844-1.579a2.892 2.892 0 00-.4-2.892c.015-.022.03-.037.045-.066l1.578-3.744c.985.257 1.985.396 2.992.396 1.067 0 2.134-.154 3.178-.44l2.319 5.623 1.252-.404c.318-.066.377.132.385.191-.03.022-.741.242-1.29.932-.007.008-.014.022-.021.03l.007.007c-.622.8-.822 1.894-.4 2.893.622 1.49 2.348 2.195 3.845 1.578a2.907 2.907 0 001.592-3.81c-.415-.999-1.333-1.637-2.348-1.77-.007-.021-.007-.05-.015-.073l-2.607-6.306a11.848 11.848 0 004.378-4.221l3.163 1.24.57-1.174c.17-.272.356-.184.407-.147-.007.037-.333.697-.207 1.571 0 .007 0 .022.008.037h.007a2.914 2.914 0 001.844 2.283 2.956 2.956 0 003.808-1.681c.585-1.505-.178-3.194-1.696-3.774a2.954 2.954 0 00-2.912.47c-.022-.015-.037-.03-.066-.044l-3.719-1.454c.645-2.07.689-4.243.163-6.328l5.49-2.283-.408-1.24c-.067-.316.133-.375.192-.382.022.029.245.734.941 1.277.007.007.022.015.03.022l.007-.007a2.944 2.944 0 002.919.396 2.884 2.884 0 001.615-3.795zm-15.43 11.74a7.473 7.473 0 01-4.097 4.06 7.597 7.597 0 01-5.8 0 7.462 7.462 0 01-4.097-4.068c-1.6-3.825.245-8.222 4.097-9.808a7.59 7.59 0 012.889-.573c2.97 0 5.8 1.748 7.007 4.633a7.39 7.39 0 010 5.755z" fill="#01689B"/></svg>

