<svg  viewBox="0 0 21 27" fill="none" xmlns="http://www.w3.org/2000/svg">
<path d="M5.26125 4.23366V12.7421H8.1385C9.53602 12.7421 10.6595 12.3311 11.509 11.509C12.3585 10.6869 12.7832 9.57712 12.7832 8.1796C12.7832 6.86429 12.3859 5.87781 11.5912 5.22015C10.7965 4.56249 9.49492 4.23366 7.68636 4.23366H5.26125ZM5.34346 16.8936V26.9639H0V0H8.0563C11.509 0 14.0848 0.712461 15.7838 2.13738C17.5101 3.56231 18.3733 5.37086 18.3733 7.56305C18.3733 9.37161 17.9348 10.9609 17.058 12.3311C16.1811 13.6738 15.0028 14.6877 13.5231 15.3727L20.6751 26.9639H14.3862L8.50843 16.8936H5.34346Z" fill="#01689B"/>
</svg>
