<svg xmlns="http://www.w3.org/2000/svg" width="64" height="64" viewBox="0 0 64 64">
    <path fill="#01689B" d="M57.48,53.26H31.76a2,2,0,0,1-1.72-1,2,2,0,0,1,0-2L42.9,28a2,2,0,0,1,3.44,0L59.2,50.28a2,2,0,0,1-1.72,3Zm-24-3h22.2L44.62,31ZM43.74,29.5h0Z" />
    <rect fill="#01689B" x="44.05" y="37.11" width="1.71" height="7.43" />
    <rect fill="#01689B" x="44.05" y="45.88" width="1.71" height="1.71" />
    <path fill="#01689B" d="M56,38a9.87,9.87,0,0,0,3-.49V33.25A7.37,7.37,0,0,1,56,34a7.73,7.73,0,0,1-3.78-1.23L55.2,37.9A7.89,7.89,0,0,0,56,38Z" />
    <path fill="#01689B" d="M32,34c-2.46,0-4.91-1.94-6-2.75C25,32,22.56,34,20,34s-4.91-1.94-6-2.75C13,32,10.56,34,8,34a7.43,7.43,0,0,1-3-.83v4.22A10.09,10.09,0,0,0,8,38a12.48,12.48,0,0,0,6-1.86A12.55,12.55,0,0,0,20,38a12.48,12.48,0,0,0,6-1.86A12.55,12.55,0,0,0,32,38a9.3,9.3,0,0,0,1.76-.18l3.36-5.83A9.46,9.46,0,0,1,32,34Z" />
    <path fill="#01689B" d="M38,21.77c-1,.75-3.48,2.75-6,2.75s-4.91-1.94-6-2.75c-1,.75-3.48,2.75-6,2.75s-4.91-1.94-6-2.75c-1,.75-3.48,2.75-6,2.75a7.43,7.43,0,0,1-3-.83v4.22a10.09,10.09,0,0,0,3,.52,12.37,12.37,0,0,0,6-1.87,12.44,12.44,0,0,0,6,1.87,12.37,12.37,0,0,0,6-1.87,12.44,12.44,0,0,0,6,1.87,12.37,12.37,0,0,0,6-1.87,16,16,0,0,0,1.72.88l2-3.43A16.79,16.79,0,0,1,38,21.77Z" />
    <path fill="#01689B" d="M50,26.56a12.44,12.44,0,0,0,6,1.87,9.87,9.87,0,0,0,3-.5v-4.2a7.37,7.37,0,0,1-3,.79c-2.46,0-4.91-1.94-6-2.75a18.51,18.51,0,0,1-3,1.95l2,3.41C49.38,26.94,49.74,26.74,50,26.56Z" />
    <path fill="#01689B" d="M14,17a12.44,12.44,0,0,0,6,1.86A12.37,12.37,0,0,0,26,17a12.44,12.44,0,0,0,6,1.86A12.37,12.37,0,0,0,38,17a12.44,12.44,0,0,0,6,1.86A12.37,12.37,0,0,0,50,17a12.44,12.44,0,0,0,6,1.86,9.87,9.87,0,0,0,3-.49v-4.2A7.36,7.36,0,0,1,56,15c-2.46,0-4.91-1.93-6-2.75C49,13,46.56,15,44,15s-4.91-1.93-6-2.75C37,13,34.56,15,32,15s-4.91-1.93-6-2.75C25,13,22.56,15,20,15s-4.91-1.93-6-2.75C13,13,10.56,15,8,15a7.57,7.57,0,0,1-3-.82v4.21a9.79,9.79,0,0,0,3,.52A12.37,12.37,0,0,0,14,17Z" />
</svg>