<svg xmlns="http://www.w3.org/2000/svg" viewBox="0 0 48 48"><rect x="-11.35" y="-13.82" width="64" height="64" fill="none"/><path d="M45.37,8.82C43.18,8.82,41,7.1,40,6.37c-.89.67-3.1,2.45-5.34,2.45S30.34,7.1,29.37,6.37C28.48,7,26.27,8.82,24,8.82S19.67,7.1,18.7,6.37c-.88.67-3.09,2.45-5.33,2.45S9,7.1,8,6.37C7.15,7,4.94,8.82,2.7,8.82A6.65,6.65,0,0,1,0,8.08v3.75a8.89,8.89,0,0,0,2.7.46A11.05,11.05,0,0,0,8,10.64a11,11,0,0,0,5.33,1.65,11,11,0,0,0,5.33-1.65A11.09,11.09,0,0,0,24,12.29a11,11,0,0,0,5.33-1.65,11,11,0,0,0,5.33,1.65A11.05,11.05,0,0,0,40,10.64a11,11,0,0,0,5.33,1.65A9.05,9.05,0,0,0,48,11.86V8.12A6.6,6.6,0,0,1,45.37,8.82Z"/><path d="M24.92,28.24l2.69-4.63A7.19,7.19,0,0,1,24,24.82c-2.19,0-4.37-1.72-5.34-2.45-.88.67-3.09,2.45-5.33,2.45S9,23.1,8,22.37c-.89.67-3.1,2.45-5.34,2.45A6.65,6.65,0,0,1,0,24.08v3.75a8.89,8.89,0,0,0,2.7.46A11.05,11.05,0,0,0,8,26.64a11,11,0,0,0,5.33,1.65,11,11,0,0,0,5.33-1.65A11.09,11.09,0,0,0,24,28.29,8.49,8.49,0,0,0,24.92,28.24Z"/><path d="M41.75,23.57l2.75,4.67a8.46,8.46,0,0,0,.87.05A9.05,9.05,0,0,0,48,27.86V24.12a6.6,6.6,0,0,1-2.63.7A7.25,7.25,0,0,1,41.75,23.57Z"/><path d="M40,14.37a15,15,0,0,1-3.2,2,4.23,4.23,0,0,1,1.54,1.52l.75,1.27.91-.49a11,11,0,0,0,5.33,1.65A9.05,9.05,0,0,0,48,19.86V16.12a6.6,6.6,0,0,1-2.63.7C43.18,16.82,41,15.1,40,14.37Z"/><path d="M8,18.64a11,11,0,0,0,5.33,1.65,11,11,0,0,0,5.33-1.65A11.09,11.09,0,0,0,24,20.29a11,11,0,0,0,5.33-1.65l.85.46.71-1.21a4.28,4.28,0,0,1,1.58-1.58,14.69,14.69,0,0,1-3.14-1.94c-.89.67-3.1,2.45-5.33,2.45s-4.37-1.72-5.34-2.45c-.88.67-3.09,2.45-5.33,2.45S9,15.1,8,14.37c-.89.67-3.1,2.45-5.34,2.45A6.65,6.65,0,0,1,0,16.08v3.75a8.89,8.89,0,0,0,2.7.46A11.05,11.05,0,0,0,8,18.64Z"/><path d="M35.93,19.3a1.5,1.5,0,0,0-1.27-.72h0a1.46,1.46,0,0,0-1.26.73L21.72,39.42a1.48,1.48,0,0,0,0,1.47,1.46,1.46,0,0,0,1.27.74H46.53a1.48,1.48,0,0,0,1.27-2.22ZM26.09,38.22l8.59-14.79,8.73,14.79Z"/><path d="M34.66,35.11a1.06,1.06,0,0,0-1.09,1.17,1,1,0,0,0,1.1,1.15,1,1,0,0,0,1.09-1.15A1,1,0,0,0,34.66,35.11Z"/><polygon points="33.84 34.15 35.52 34.1 35.52 32.03 35.69 27.44 33.84 27.61 33.84 34.15"/></svg>
