<svg width="32" height="32" viewBox="0 0 32 32" fill="none" xmlns="http://www.w3.org/2000/svg"><path fill="#fff" d="M0 0h32v32H0z"/><path d="M15.012 24.413c-.213.437-.345 1.173-.77 3.524h1.615l-.385-4.354c-.165.28-.328.566-.46.83zM13.19 18.72c-.08.25-.256.728-.395.957-.306.518-.743 1.325-1.443 2.166a.512.512 0 01-.133.107c.004.17.007.383.008.628.003.642-.01 1.499-.016 2.356-.01 1.196-.015 2.39-.02 3.004h1.677c.059-1.707.082-2.546.196-3.644.13-.725.957-2.237 1.277-2.968a60.32 60.32 0 00-1.152-2.607z" fill="#000"/><path d="M28.25 9.125H18.215a5.33 5.33 0 01.962 3.058c0 .149-.01.294-.023.44a4.413 4.413 0 01-.317 5.046 4.25 4.25 0 00-.86-4.554c.067-.3.106-.611.106-.932 0-1.799-1.115-3.335-2.69-3.962a3.74 3.74 0 00-3.526-2.495c-1.096 0-2.08.475-2.764 1.226a3.775 3.775 0 00-.298-.015 3.742 3.742 0 00-3.724 4.106 3.878 3.878 0 00-.971 6.24 4.156 4.156 0 003.796 5.843c.192-.001.379-.019.563-.044-.515 3.051-1.219 4.855-1.219 4.855h3.221l-.141-2.985c-.04-.856-.085-1.712-.108-2.354a38.667 38.667 0 01-.024-1.07s.002-.152.05-.246c.518-1.024 1.213-1.945 1.451-2.608.13-.438-.025.125.328-1.178.119-.437.427-2.437 2.446-1.798 1.18.374 1.694 1.561 2.027 2.317.237.544.793 1.778.88 2.606.072.674-.213 6.767-.194 7.316h11.502V9.562a.438.438 0 00-.438-.437zm-15.258 5.952c-.886.195-1.535-.313-1.73-1.206-.016-.07-.021-.135-.03-.202-.379.024-1.193.13-1.247-.142-.086-.43 2.434-1.979 3.131-1.884.697.095.94 1.598.94 1.598h-.003l.004.016c.213.967-.18 1.626-1.065 1.82zM25.625 24h-3.937v-3.938h3.937V24zm0-7.438h-3.937v-3.937h3.937v3.937z" fill="#000"/></svg>