<svg width="44" height="50"  viewBox="0 0 44 50" fill="none" xmlns="http://www.w3.org/2000/svg"><path d="M42.045 0H1.136A1.14 1.14 0 000 1.136V50h11.364v-9.09l4.545-1.137V50h11.364v-9.09l4.545-1.137V50h11.364V1.136A1.14 1.14 0 0042.045 0zM18.182 7.955H25v6.818h-6.818V7.955zm0 11.363H25v6.818h-6.818v-6.818zM6.818 7.955h6.818v6.818H6.818V7.955zm0 11.363h6.818v6.818H6.818v-6.818zM34.091 37.5h-25v-4.545h25V37.5zm2.273-11.364h-6.819v-6.818h6.819v6.818zm0-11.363h-6.819V7.955h6.819v6.818z" fill="#01689B"/></svg>