<svg focusable="false" width="48" height="48" viewBox="0 0 48 48" fill="none" xmlns="http://www.w3.org/2000/svg"><path fill-rule="evenodd" clip-rule="evenodd" d="M27.274 13.734h13.978a.61.61 0 01.609.61v25.593h-16.02c-.01-.296.043-1.754.106-3.482.1-2.73.226-6.133.164-6.708-.115-1.086-.808-2.674-1.164-3.489l-.061-.141-.016-.035c-.465-1.053-1.181-2.677-2.808-3.192-2.605-.825-3.165 1.505-3.366 2.337l-.041.168c-.32 1.18-.34 1.26-.366 1.34-.013.044-.028.086-.09.3-.185.512-.565 1.135-.99 1.832-.341.559-.712 1.165-1.033 1.8a.938.938 0 00-.068.342s.002.597.033 1.491c.02.575.054 1.271.09 2.012l.06 1.267.197 4.158h-4.486s.98-2.512 1.697-6.762c-.257.035-.517.06-.783.06a5.79 5.79 0 01-5.79-5.79c0-.837.182-1.63.502-2.349A5.388 5.388 0 016 21.233a5.402 5.402 0 012.98-4.826 5.213 5.213 0 015.187-5.719c.14 0 .278.01.415.02A5.193 5.193 0 0118.432 9a5.21 5.21 0 014.91 3.476 5.94 5.94 0 013.748 5.518c0 .446-.053.88-.147 1.298a5.916 5.916 0 011.197 6.342 6.153 6.153 0 00.442-7.028c.017-.202.031-.405.031-.612a7.425 7.425 0 00-1.339-4.26zm-9.686 6.611c.274 1.244 1.177 1.951 2.41 1.68 1.234-.27 1.78-1.188 1.485-2.535a.106.106 0 00-.003-.012l-.003-.01.005-.001s-.339-2.094-1.31-2.226c-.97-.131-4.482 2.026-4.362 2.625.066.331.935.261 1.506.215l.23-.017c.004.027.008.054.01.08.009.066.017.132.032.201zm14.523 14.108h5.484V28.97h-5.484v5.484zm0-10.36h5.484V18.61h-5.484v5.485z" fill="#000"/><path d="M20.274 27.098c-.112.348-.355 1.015-.55 1.335l-.18.307c-.413.712-.983 1.693-1.829 2.709a.715.715 0 01-.186.15c.006.237.01.533.012.873.003.574-.004 1.27-.011 2.01v.002l-.011 1.27-.02 2.757c-.003.577-.006 1.072-.01 1.427h2.338l.014-.408c.071-2.109.11-3.229.259-4.667.129-.72.752-1.998 1.26-3.042.204-.419.39-.8.517-1.092-.426-1.059-1.05-2.439-1.603-3.631zM21.761 39.824l-.02.114h2.25l-.536-6.065c-.23.39-.457.788-.64 1.155-.295.602-.477 1.611-1.054 4.796z" fill="#000"/></svg>