<svg viewBox="0 0 46 45" fill="none" xmlns="http://www.w3.org/2000/svg">
<path fill-rule="evenodd" clip-rule="evenodd" d="M41.071 11.6023C42.5673 10.9856 44.2933 11.6903 44.9156 13.1806C45.5378 14.6636 44.8193 16.3741 43.3007 16.9761C42.2932 17.3946 41.1895 17.1964 40.3821 16.5797L40.3747 16.587C40.371 16.5834 40.3654 16.5797 40.3598 16.576C40.3543 16.5723 40.3487 16.5687 40.345 16.565C39.7375 16.091 39.4909 15.4941 39.4231 15.3301C39.4132 15.3061 39.4071 15.2914 39.4043 15.2876C39.345 15.2949 39.145 15.3537 39.2117 15.6694L39.6191 16.91L34.13 19.1932C34.656 21.2781 34.6115 23.4512 33.967 25.5214L36.8258 26.9258C36.8455 26.9356 36.8587 26.9454 36.8719 26.9552C36.8784 26.9601 36.885 26.965 36.8924 26.9698C37.6851 26.3312 38.7814 26.1109 39.8036 26.5C41.3222 27.08 42.0852 28.7685 41.5 30.2735C40.9148 31.7784 39.211 32.5346 37.6925 31.9546C36.6702 31.5655 36.0035 30.6699 35.848 29.6715H35.8406C35.8331 29.6568 35.8331 29.6421 35.8331 29.6348C35.7211 28.8578 35.9666 28.2492 36.0275 28.0982C36.035 28.0795 36.0397 28.0678 36.0406 28.0637C35.9887 28.027 35.8035 27.9389 35.6331 28.2105L35.0627 29.3851L32.7596 28.1937C31.6929 29.9556 30.1965 31.4018 28.3817 32.4149L30.9892 38.7212C30.9929 38.7322 30.9947 38.745 30.9966 38.7579C30.9977 38.7655 30.9988 38.7731 31.0002 38.7803C31.0013 38.7853 31.0025 38.7901 31.004 38.7946C32.0188 38.9267 32.9374 39.5654 33.3522 40.5638C33.9745 42.0468 33.2633 43.7573 31.7596 44.374C30.2632 44.9907 28.5372 44.2859 27.915 42.7956C27.4928 41.7972 27.6928 40.7033 28.315 39.9031L28.3076 39.8958C28.3113 39.8921 28.315 39.8866 28.3187 39.8811C28.3224 39.8756 28.3261 39.8701 28.3298 39.8664C28.808 39.2644 29.4103 39.0199 29.5759 38.9527C29.6001 38.9429 29.615 38.9369 29.6188 38.9341C29.6113 38.8753 29.5521 38.6771 29.2336 38.7432L27.9817 39.147L25.6631 33.5235C24.6186 33.8098 23.5519 33.964 22.4852 33.964C21.4777 33.964 20.4777 33.8245 19.4925 33.5675L18.0816 36.463C18.0718 36.4826 18.0619 36.4957 18.052 36.5087L18.052 36.5087L18.052 36.5088C18.047 36.5153 18.0421 36.5218 18.0372 36.5291C18.6594 37.3293 18.852 38.4232 18.4372 39.4216C17.815 40.9119 16.0964 41.6167 14.5926 41C13.0889 40.3833 12.3778 38.6801 13 37.1898C13.4222 36.1841 14.3334 35.5527 15.3482 35.4206V35.4132H15.3853C16.1641 35.316 16.7694 35.574 16.9254 35.6404L16.9256 35.6405C16.9461 35.6492 16.9588 35.6546 16.9631 35.6555C16.9927 35.6115 17.0964 35.4279 16.8223 35.2517L15.6519 34.6571L16.7517 32.5104C14.8553 31.4973 13.2997 29.9997 12.196 28.1717L5.92909 30.7338C5.91797 30.7375 5.90501 30.7393 5.89205 30.7411C5.87908 30.743 5.86612 30.7448 5.85501 30.7485C5.72167 31.7542 5.07721 32.6646 4.06976 33.0757C2.57342 33.6923 0.847437 32.9876 0.225194 31.4973C-0.397049 30.0143 0.314086 28.3038 1.81784 27.6871C2.82528 27.2687 3.92902 27.4669 4.73645 28.0836L4.74386 28.0762C4.74757 28.0799 4.75312 28.0836 4.75868 28.0872L4.7587 28.0872C4.76425 28.0909 4.76979 28.0946 4.77349 28.0982C5.38098 28.5722 5.62762 29.1691 5.69542 29.3332C5.70534 29.3572 5.71143 29.3719 5.71426 29.3756C5.77352 29.3683 5.97353 29.3096 5.90686 28.9939L5.49944 27.7532L10.9885 25.5141C10.344 23.4218 10.3218 21.2708 10.8181 19.2593L7.67423 18.0288C7.65447 18.019 7.6413 18.0092 7.62814 17.9995C7.62155 17.9946 7.61497 17.9897 7.60756 17.9848C6.81494 18.6235 5.71861 18.8437 4.69635 18.4546C3.17778 17.8746 2.4148 16.1861 3 14.6812C3.5852 13.1762 5.28896 12.42 6.80753 13C7.82979 13.3891 8.49648 14.2847 8.65204 15.2832H8.65944C8.66685 15.2978 8.66685 15.3125 8.66685 15.3199C8.77886 16.0969 8.53342 16.7055 8.47254 16.8564C8.46497 16.8752 8.46026 16.8869 8.45944 16.8909C8.51129 16.9276 8.69648 17.0157 8.86686 16.7441L9.43725 15.5695L11.8478 16.521C12.8923 14.5535 14.4923 12.865 16.5368 11.7124L14.0701 5.87601C14.0664 5.865 14.0645 5.85215 14.0627 5.8393C14.0608 5.82646 14.059 5.81361 14.0553 5.8026C13.0404 5.67045 12.1219 5.03175 11.7071 4.03333C11.0848 2.55038 11.7959 0.839851 13.2997 0.223178C14.796 -0.393494 16.522 0.311274 17.1443 1.80157C17.5665 2.79999 17.3665 3.89385 16.7443 4.69405L16.7517 4.7014C16.748 4.70507 16.7443 4.71057 16.7406 4.71608L16.7405 4.7161C16.7368 4.7216 16.7331 4.7271 16.7294 4.73076C16.2512 5.33281 15.6489 5.57725 15.4834 5.64444C15.4592 5.65427 15.4443 5.6603 15.4405 5.66311C15.4479 5.72184 15.5072 5.92006 15.8257 5.85399L17.085 5.45021L19.2555 10.5818C21.4703 9.97248 23.7519 10.0165 25.8557 10.6259L27.3556 8.03695C27.3654 8.01738 27.3753 8.00433 27.3852 7.99129L27.3852 7.99127C27.3901 7.98475 27.3951 7.97822 27.4 7.97088C26.7778 7.17067 26.5852 6.07681 27 5.07839C27.6222 3.5881 29.3408 2.88333 30.8446 3.5C32.3483 4.11667 33.0595 5.8272 32.4372 7.3175C32.015 8.32326 31.1038 8.95461 30.089 9.08676V9.0941H30.052C29.2731 9.19139 28.6678 8.93339 28.5118 8.86689C28.4912 8.85813 28.4784 8.85269 28.4741 8.85184C28.4445 8.89588 28.3408 9.07942 28.6149 9.25561L29.7853 9.85026L28.5595 11.7931C30.441 12.8796 32.0336 14.4654 33.1078 16.4769L39.2117 13.9441C39.2228 13.9405 39.2357 13.9386 39.2487 13.9368C39.2617 13.935 39.2746 13.9331 39.2857 13.9295C39.4191 12.9237 40.0635 12.0134 41.071 11.6023ZM17 19C18.1046 19 19 18.1046 19 17C19 15.8954 18.1046 15 17 15C15.8954 15 15 15.8954 15 17C15 18.1046 15.8954 19 17 19ZM30 26.5C30 27.3284 29.3284 28 28.5 28C27.6716 28 27 27.3284 27 26.5C27 25.6716 27.6716 25 28.5 25C29.3284 25 30 25.6716 30 26.5ZM29 22C30.1046 22 31 21.1046 31 20C31 18.8954 30.1046 18 29 18C27.8954 18 27 18.8954 27 20C27 21.1046 27.8954 22 29 22ZM17 25.5C17 26.3284 16.3284 27 15.5 27C14.6716 27 14 26.3284 14 25.5C14 24.6716 14.6716 24 15.5 24C16.3284 24 17 24.6716 17 25.5ZM24.5 16C25.3284 16 26 15.3284 26 14.5C26 13.6716 25.3284 13 24.5 13C23.6716 13 23 13.6716 23 14.5C23 15.3284 23.6716 16 24.5 16ZM25 21C25 22.6569 23.6569 24 22 24C20.3431 24 19 22.6569 19 21C19 19.3431 20.3431 18 22 18C23.6569 18 25 19.3431 25 21ZM22.5 31C23.8807 31 25 29.8807 25 28.5C25 27.1193 23.8807 26 22.5 26C21.1193 26 20 27.1193 20 28.5C20 29.8807 21.1193 31 22.5 31Z" fill="#01689B"/>
</svg>
