<svg xmlns="http://www.w3.org/2000/svg" viewBox="0 0 48 48"><rect x="-5.97" y="-3.8" width="64" height="64" fill="none"/><path d="M34.5,34.79a1.71,1.71,0,1,0-1.71,1.71A1.7,1.7,0,0,0,34.5,34.79Zm1.9,5.7a1.71,1.71,0,1,0-1.71,1.71A1.7,1.7,0,0,0,36.4,40.49ZM32.89,28.13a1.57,1.57,0,0,0,1-1.9L31,19.86c0-.66.66-1.8.66-2.37a33.91,33.91,0,0,0-.09-6.18c2.28-2.38,2.28-5.13.57-7.22-2-2.38-11-5.23-18.73-3.62C5.23,2.18,3.9,9.69,4,13.69,4.18,18.34,6.75,25.47,5.7,30,5.23,32.13.09,41.92.09,41.92H18.91V39.16L15,35c-.19-.29-.1-.48,0-.48s5.89,3.14,8,4.09,3-.48,3.71-1.81c.38-.76.76-.66,1.33-1,.76-.38.19-1.8-.19-2.56s-.57-.76-.57-.76a5.59,5.59,0,0,0,1.81-.19A1.14,1.14,0,0,0,29.94,31,3,3,0,0,1,30,28.7Zm8.27,4.76a1.71,1.71,0,1,0-1.71,1.71A1.7,1.7,0,0,0,41.16,32.89Zm5-3.52a1.71,1.71,0,1,0,1.71,1.71A1.71,1.71,0,0,0,46.2,29.37ZM36.69,44.58a1.71,1.71,0,1,0,1.71,1.71A1.7,1.7,0,0,0,36.69,44.58Zm4.66-7.51a1.71,1.71,0,1,0,1.71,1.71A1.7,1.7,0,0,0,41.35,37.07Z"/></svg>
