<svg xmlns="http://www.w3.org/2000/svg" viewBox="0 0 48 48"><rect x="-4" y="-3.87" width="56.25" height="56.25" fill="none"/><rect x="-7.97" y="-13.24" width="64" height="64" fill="none"/><path d="M18.58,8.52h3.1v3.09a.77.77,0,0,0,.77.78h3.1a.77.77,0,0,0,.77-.78V8.52h3.1a.77.77,0,0,0,.77-.78V4.65a.77.77,0,0,0-.77-.78h-3.1V.77A.77.77,0,0,0,25.55,0h-3.1a.77.77,0,0,0-.77.77v3.1h-3.1a.77.77,0,0,0-.77.78V7.74A.77.77,0,0,0,18.58,8.52Z"/><path d="M37.94,13.94H10.06a.77.77,0,0,0-.77.77V48H17V41.81l3.1-.78v7h7.74V41.81L31,41v7h7.74V14.71A.77.77,0,0,0,37.94,13.94ZM21.68,19.35h4.64V24H21.68Zm0,7.75h4.64v4.64H21.68Zm-7.74-7.75h4.64V24H13.94Zm0,7.75h4.64v4.64H13.94ZM32.52,39.48h-17V36.39h17Zm1.54-7.74H29.42V27.1h4.64Zm0-7.74H29.42V19.35h4.64Z"/></svg>
