<svg xmlns="http://www.w3.org/2000/svg" width="64" height="64" viewBox="0 0 64 64"><defs><style>.cls-2{fill:#01689b}</style></defs><path fill="none" d="M0 0h64v64H0z" id="_64px_Boxes" data-name="64px Boxes"/><g id="Production"><path class="cls-2" d="M25 12h4v4a1 1 0 001 1h4a1 1 0 001-1v-4h4a1 1 0 001-1V7a1 1 0 00-1-1h-4V2a1 1 0 00-1-1h-4a1 1 0 00-1 1v4h-4a1 1 0 00-1 1v4a1 1 0 001 1zM50 19H14a1 1 0 00-1 1v43h10v-8l4-1v9h10v-8l4-1v9h10V20a1 1 0 00-1-1zm-21 7h6v6h-6zm0 10h6v6h-6zM19 26h6v6h-6zm0 10h6v6h-6zm24 16H21v-4h22zm2-10h-6v-6h6zm0-10h-6v-6h6z"/></g></svg>