<svg width="48" height="48" viewBox="0 0 48 48" fill="#000" xmlns="http://www.w3.org/2000/svg">
  <path d="M31.081 32.244c0-.618-.497-1.115-1.115-1.115s-1.115.497-1.115 1.115c0 .617.497 1.114 1.115 1.114s1.115-.497 1.115-1.114zm1.274 3.82c0-.617-.497-1.114-1.115-1.114s-1.115.497-1.115 1.115c0 .617.497 1.114 1.115 1.114s1.115-.497 1.115-1.114zM29.947 27.8c.529-.16.828-.72.669-1.255l-1.962-4.235c.032-.452.414-1.19.459-1.566.223-1.904-.039-4.165-.039-4.165 1.536-1.599 1.548-3.426.357-4.827-1.357-1.605-7.396-3.535-12.576-2.42-5.466 1.178-6.37 6.158-6.288 8.82.096 3.095 1.835 7.903 1.14 10.979C11.403 30.48 8 37.02 8 37.02h12.64v-1.822l-2.593-2.795c-.14-.178-.045-.312-.013-.344 0 0 3.93 2.082 5.364 2.726 1.408.63 2.02-.319 2.472-1.236.255-.516.516-.446.904-.637.485-.235.134-1.222-.14-1.694-.242-.42-.382-.49-.382-.49.446.045.88-.038 1.223-.147.389-.12.733-.522.6-.91-.288-.847.076-1.516.076-1.516l1.796-.356zm5.594 3.171c0-.618-.497-1.114-1.115-1.114s-1.115.496-1.115 1.114c0 .618.497 1.114 1.115 1.114s1.114-.496 1.114-1.114zm3.344-2.388c-.618 0-1.115.497-1.115 1.114 0 .618.497 1.115 1.115 1.115S40 30.314 40 29.696c0-.617-.497-1.114-1.115-1.114zm-6.37 10.19a1.11 1.11 0 00-1.115 1.114c0 .617.497 1.114 1.114 1.114.618 0 1.115-.497 1.115-1.114 0-.618-.497-1.115-1.115-1.115zm3.147-4.987c-.618 0-1.115.497-1.115 1.114 0 .618.497 1.115 1.115 1.115a1.116 1.116 0 000-2.229z" />
</svg>
