<svg focusable="false" width="48" height="48" viewBox="0 0 48 48" fill="#000" xmlns="http://www.w3.org/2000/svg">
  <path d="M22.852 13.678h-1.965a.506.506 0 01-.49-.516v-2.065c0-.284.22-.516.49-.516h1.965V8.516c0-.284.222-.516.492-.516h1.965c.27 0 .491.232.491.516v2.065h1.965c.27 0 .491.232.491.516v2.065a.506.506 0 01-.49.516H25.8v2.064a.506.506 0 01-.491.517h-1.965a.506.506 0 01-.492-.517v-2.064z" fill="currentColor"/>
  <path fill-rule="evenodd" clip-rule="evenodd" d="M15.491 17.282h17.686c.27 0 .491.232.491.516v22.195h-4.913v-4.645l-1.965.516v4.13h-4.912v-4.646l-1.965.516v4.13H15V17.797c0-.284.221-.516.491-.516zm10.317 3.613H22.86v3.097h2.948v-3.097zm0 5.162H22.86v3.097h2.948v-3.097zm-4.913-5.162h-2.947v3.097h2.947v-3.097zm0 5.162h-2.947v3.097h2.947v-3.097zm-1.965 8.258h10.808v-2.064H18.93v2.064zm8.843-5.161h2.947v-3.097h-2.947v3.097zm0-5.162h2.947v-3.097h-2.947v3.097z"/>
</svg>
