<svg viewBox="0 0 64 64"><path d="M43.25 47.5a1.75 1.75 0 10-1.75 1.75 1.75 1.75 0 001.75-1.75zm.25 4.25a1.75 1.75 0 101.75 1.75 1.75 1.75 0 00-1.75-1.75zm-4-17.23a1.59 1.59 0 001.06-2l-3.12-6.62c.05-.72.65-1.87.72-2.47a33.44 33.44 0 00-.06-6.54c2.41-2.51 2.44-5.38.56-7.58-2.14-2.51-11.61-5.54-19.74-3.79C10.34 7.37 8.91 15.19 9 19.37c.16 4.87 2.88 12.42 1.79 17.24C10.36 38.73 5 49 5 49h19.85v-2.86l-4.07-4.39a.39.39 0 010-.54s6.17 3.27 8.42 4.28 3.17-.5 3.88-1.93c.4-.82.81-.7 1.42-1 .76-.37.21-1.92-.22-2.66s-.6-.77-.6-.77a4.88 4.88 0 001.92-.23 1.24 1.24 0 00.94-1.43 3.15 3.15 0 01.13-2.38zm1.79 7a1.75 1.75 0 10-1.75 1.75 1.75 1.75 0 001.71-1.77zm12.21-5.77a1.75 1.75 0 101.75 1.75 1.75 1.75 0 00-1.75-1.75zm-5.25 3.75a1.75 1.75 0 10-1.75 1.75 1.75 1.75 0 001.75-1.75zm.19 4.42a1.75 1.75 0 101.75 1.75 1.75 1.75 0 00-1.75-1.75z" fill="#01689b"/></svg>
