<svg width="24" height="36" viewBox="0 0 24 36" fill="currentColor" xmlns="http://www.w3.org/2000/svg" focusable="false">
	<path fill-rule="evenodd" clip-rule="evenodd" d="M11.6028 11.8635L11.4641 11.7194L10.8849 11.4472C10.5803 11.1073 10.4161 10.5863 10.4161 9.90836C10.4161 8.69616 10.9729 7.84438 12.0069 7.84438C12.9883 7.84438 13.5976 8.56502 13.5976 9.90836C13.5976 11.0878 13.0146 11.9068 12.0069 11.9068C11.8634 11.9068 11.7286 11.8922 11.6028 11.8635ZM5.90565 8.39016L7.58787 10.137C7.57798 11.1819 7.06121 11.9049 6.174 11.9049C5.27851 11.9049 4.75999 11.2562 4.75999 10.1063C4.75999 10.0419 4.76492 9.98083 4.76984 9.91977L4.7742 9.86393C4.72855 9.85528 4.68267 9.84741 4.63739 9.83964L4.63731 9.83963C4.33067 9.78705 4.05153 9.73918 4.05507 9.48352C4.05939 9.17086 4.96753 8.66341 5.84192 8.40821L5.8473 8.40672L5.85281 8.4052C5.87047 8.40008 5.88809 8.39507 5.90565 8.39016ZM10.2618 12.9136L14.3047 17.1117V31C13.3291 31 12.5376 30.3836 12.4533 29.1306C12.4533 29.1306 12.1961 22.285 12.1933 22.2028C12.1905 22.1207 12.1229 22.014 12.0069 22.014C11.8909 22.014 11.8236 22.1207 11.8208 22.2028C11.8181 22.285 11.5605 29.1306 11.5605 29.1306C11.4765 30.3786 10.6921 31 9.70914 31V15.5625C9.68153 15.5244 9.60913 15.5411 9.56275 15.6829C9.2949 16.502 9.27659 17.835 9.27659 19.2469V22.4182C8.80742 22.4182 8.09539 22.0861 8.03258 20.9142L8.03005 20.867C7.89135 18.2809 7.64453 13.6786 9.83583 13.0255C9.97567 12.9838 10.1179 12.9466 10.2618 12.9136ZM14.6915 17.5134C14.7239 18.0559 14.7376 18.6453 14.7376 19.2469V22.4182C15.2064 22.4182 15.9185 22.0861 15.9812 20.9142L15.9832 20.8781C16.0137 20.3079 16.0495 19.6399 16.0631 18.9377L14.6915 17.5134ZM15.9729 16.4014L13.9421 14.2926L12.4384 12.7312C13.0575 12.7625 13.6531 12.863 14.178 13.0255C15.311 13.3762 15.7919 14.775 15.9729 16.4014ZM16.5803 19.4748C16.5627 19.9864 16.5366 20.4738 16.513 20.9155C16.4562 21.9799 15.9655 22.6119 15.3942 22.878C15.3863 23.0944 15.3808 23.3179 15.3808 23.5567C15.3808 23.5567 15.8374 23.6598 16.4263 23.6874L16.5007 29.375C16.5007 29.375 17.6369 29.1755 17.7141 27.8977C17.7141 27.8977 17.8095 25.0377 17.8539 23.5773L17.8975 23.5694C17.9405 23.5617 17.9836 23.554 18.0279 23.5449C18.0669 23.5369 18.1061 23.5304 18.1452 23.5239L18.1454 23.5239L18.1785 23.5184C18.222 24.9448 18.3194 27.8614 18.3194 27.8614C18.3771 29.1779 19.5364 29.3749 19.5364 29.3749L19.6078 23.4937C20.032 23.5401 20.4393 23.6123 20.5922 23.6407L16.5803 19.4748ZM20.4524 21.0529L16.5625 17.0136C16.5166 16.2919 16.4251 15.5869 16.2614 14.9517L16.2656 14.9291L16.2696 14.9059L16.2696 14.9059L16.2697 14.9059C16.2732 14.8852 16.2768 14.8645 16.2816 14.8418C16.2816 14.8418 16.2675 14.871 16.2498 14.9088C16.1159 14.4022 15.9349 13.9419 15.6936 13.5541C15.9317 13.2774 16.216 13.0855 16.554 12.9659C17.0329 12.7966 17.4895 12.7187 18.0092 12.7186H18.0278C18.5475 12.7187 19.0041 12.7966 19.483 12.9659C20.4884 13.3215 21.0289 14.2992 21.2431 16.3336C21.2946 16.822 21.3936 17.2552 21.5072 17.7524L21.5072 17.7525L21.5072 17.7525L21.5072 17.7525C21.6074 18.1907 21.7189 18.6787 21.8193 19.2981C21.9937 20.3741 21.4749 20.9622 21.0512 21.0245C20.4105 18.7126 20.2222 17.2624 20.0994 16.3166C20.0357 15.8261 19.9896 15.4713 19.9072 15.2023C19.8638 15.0606 19.7554 14.8418 19.7554 14.8418C19.9459 15.7334 19.848 16.189 19.7515 16.6381C19.7437 16.6747 19.7359 16.7112 19.7282 16.7479C19.6196 17.2666 19.5946 17.8089 19.7139 18.3269C19.7664 18.5546 19.8458 18.7969 19.9366 19.0742C20.1015 19.5776 20.3042 20.1964 20.4524 21.0529ZM9.17939 8.24999C9.96325 8.24999 10.4167 7.59475 10.4167 6.65128C10.4167 5.57639 9.94271 5 9.17939 5C8.37528 5 7.94213 5.68128 7.94213 6.65128C7.94213 7.6734 8.39582 8.24999 9.17939 8.24999ZM14.8358 8.24999C15.6197 8.24999 16.0731 7.59475 16.0731 6.65128C16.0731 5.57639 15.5991 5 14.8358 5C14.0317 5 13.5986 5.68128 13.5986 6.65128C13.5986 7.6734 14.0522 8.24999 14.8358 8.24999ZM17.8388 11.9071C18.7343 11.9071 19.2528 11.2584 19.2528 10.1085C19.2528 9.01727 18.7578 8.25079 17.8388 8.25079C16.9664 8.25079 16.4248 8.89925 16.4248 10.1085C16.4248 11.1699 16.943 11.9071 17.8388 11.9071ZM8.55421 13.1597C8.43561 13.0872 8.31037 13.0266 8.17533 12.9841C7.05823 12.6328 5.21708 12.6328 4.14183 12.9841C3.60715 13.1588 3.20547 13.5874 2.95445 14.1894C2.28725 15.7894 0.854004 20.6945 0.854004 20.6945C0.942733 20.7671 1.09615 20.7835 1.27174 20.7592C1.40526 22.3368 1.97602 29.0757 2.00324 29.3267C2.0288 29.5621 2.72078 29.4843 2.69911 29.2318C2.67638 28.9665 2.27374 22.421 2.14443 20.3161C2.28025 20.182 2.39397 20.0212 2.46251 19.8342C2.74334 19.0677 3.05 18.1969 3.25581 17.5311C3.31445 17.3414 3.36857 17.1633 3.41974 16.995C3.60086 16.3989 3.74499 15.9247 3.92085 15.492C3.96907 15.3734 4.01474 15.3016 4.06413 15.3523V29.3744C4.89748 29.3744 5.51027 28.7953 5.58688 27.6546C5.58688 27.6546 5.82401 21.4156 5.82645 21.3402C5.82888 21.2649 5.88859 21.1665 6.00115 21.1665C6.1137 21.1665 6.16648 21.2649 6.16927 21.3402L6.40676 27.6659C6.46271 28.7671 6.99707 29.3744 7.94198 29.3744V22.3126C7.7033 21.9823 7.53924 21.5392 7.5076 20.9572L7.50481 20.9058C7.37975 18.6078 7.17144 14.78 8.55421 13.1597Z" fill="currentColor" />
	<path d="M3.84839 6.19042L3.01962 7.05865C2.92693 7.15575 2.92693 7.30855 3.01962 7.40565L22.4961 27.8096C22.5951 27.9133 22.7607 27.9133 22.8597 27.8096L23.6884 26.9413C23.7811 26.8442 23.7811 26.6914 23.6884 26.5943L4.21191 6.19042C4.11293 6.08672 3.94738 6.08672 3.84839 6.19042Z" fill="currentColor" />
</svg>
