<svg width="21" height="36" viewBox="0 0 21 36" fill="currentColor" xmlns="http://www.w3.org/2000/svg" focusable="false">
	<path d="M3.96949 7.0347C4.77218 7.0347 5.68758 6.36514 5.45922 5.47206C5.34455 4.69075 4.54284 4.24373 4.19883 3.12811C4.08416 3.01636 4.08416 3.01636 3.97047 3.01636C3.97047 3.01636 3.8558 3.01636 3.8558 3.12811C3.51277 4.24373 2.71008 4.69075 2.59541 5.47206C2.36607 6.36514 3.16778 7.0347 3.96949 7.0347ZM3.16876 9.93646C2.93942 9.15515 2.25238 8.70909 1.7937 7.59251C1.7937 7.48076 1.67903 7.48076 1.67903 7.48076C1.56436 7.48076 1.56436 7.48076 1.56436 7.59251C1.22133 8.70909 0.419618 9.15515 0.304948 9.93646C0.0756081 10.8295 0.877318 11.4991 1.67903 11.4991C2.48074 11.4991 3.28245 10.8305 3.16876 9.93646ZM6.3756 11.4991C7.17731 11.4991 7.97902 10.8305 7.86435 9.93646C7.63501 9.15515 6.8333 8.70909 6.48929 7.59251C6.48929 7.48076 6.3756 7.48076 6.3756 7.48076C6.26093 7.48076 6.26093 7.48076 6.14626 7.59251C5.80323 8.70909 5.00054 9.15515 4.88587 9.93646C4.65751 10.8295 5.45922 11.4991 6.3756 11.4991Z" fill="currentColor" />
	<path d="M20.2331 17.4153C20.6918 13.1744 16.1099 11.7226 13.9341 10.4952C12.8436 9.91715 11.8087 9.24455 10.8419 8.48558C10.3832 8.15128 10.0402 8.15128 9.81086 8.48558C9.46783 8.81989 9.46783 9.37865 10.1539 10.0482C10.8419 10.8295 11.529 11.3873 12.56 11.9461C13.0177 12.2804 12.903 13.0617 12.3307 13.0617C7.97908 13.1735 5.0006 13.1735 3.39717 13.1735C2.93947 13.1735 2.48079 13.6205 2.48079 14.0666C2.48079 14.5136 2.82382 14.9596 3.39717 14.9596H4.19889C4.54192 14.6253 5.0006 14.4018 5.45928 14.4018C5.91698 14.4018 6.37468 14.6244 6.71869 14.8479C7.06172 14.5136 7.63507 14.4018 8.20842 14.4018C8.81516 14.4038 9.39645 14.6397 9.82539 15.0579C10.2543 15.4761 10.4961 16.0427 10.4979 16.634V16.8566C10.7272 16.7458 10.9566 16.7458 11.1849 16.7458C11.4143 16.7458 11.6436 16.7458 11.873 16.8566C11.6436 16.7458 11.6436 16.5223 11.6436 16.2988C11.6454 15.7073 11.8873 15.1405 12.3165 14.7223C12.7456 14.3041 13.3272 14.0683 13.9341 14.0666C14.541 14.0683 15.1225 14.3041 15.5517 14.7223C15.9808 15.1405 16.2227 15.7073 16.2245 16.2988V16.5223C16.6731 16.7379 17.0505 17.0719 17.3139 17.4863C17.5772 17.9007 17.716 18.3788 17.7143 18.8662C17.7143 19.424 17.4849 19.9828 17.2556 20.3181C16.7979 19.7593 16.4539 19.2005 16.1099 18.7545C15.5375 17.8614 14.9651 16.9683 14.2771 15.6292C14.0488 15.0714 13.7047 14.9596 13.3617 15.0714C13.0187 15.1831 12.7893 15.74 13.0187 16.634C13.247 17.6388 13.7047 18.4202 14.2781 19.424C14.6211 19.871 14.0488 20.5406 13.4764 20.3171C12.4453 19.7593 12.216 19.7593 11.1849 19.2005L5.57297 16.4115C5.11527 16.187 4.5429 16.4115 4.42823 16.8566C4.19889 17.3036 4.42823 17.8614 4.77126 18.0849C4.77126 18.0849 10.3832 20.8749 10.4979 20.9867V21.321C10.4979 21.4337 10.3842 21.6562 10.1549 21.6562C10.1549 21.6562 10.0402 21.6562 9.92553 21.5454L3.2825 18.4192C2.8248 18.1967 2.25243 18.4192 2.13776 18.8662C1.90842 19.3123 2.13776 19.871 2.48079 20.0936L9.12382 23.3316C9.35316 23.3316 9.46685 23.5541 9.35316 23.6659C9.23849 23.7776 9.12382 23.8894 8.89448 23.7776L3.16784 20.9867C2.71014 20.7641 2.13776 20.9867 2.02309 21.4337C1.79375 21.8797 2.02309 22.4376 2.36612 22.6611L8.66612 25.7863C8.89448 25.8981 8.89448 26.0098 8.89448 26.1206C8.89448 26.2333 8.66612 26.3451 8.55145 26.2333L4.31356 24.2237C3.97053 24.0002 3.39717 24.2237 3.2825 24.558C3.05414 24.8933 3.28251 25.452 3.62554 25.5638C3.62554 25.5638 7.5204 27.5725 8.55145 28.1303C9.92553 28.7998 11.7583 29.6929 13.7047 29.9164C15.6522 30.2507 17.0272 29.8047 18.4013 27.6842C20.0047 25.3403 19.0874 22.9963 17.828 21.2102C19.203 20.6524 20.0038 19.6475 20.2331 17.4153Z" fill="currentColor" />
</svg>
