<svg fill="currentColor" height="36" viewBox="0 0 26 36" width="26" xmlns="http://www.w3.org/2000/svg" focusable="false">
	<path clip-rule="evenodd" d="m24.9551 16.4513-11.83-11.3188c-.0913-.0852-.2109-.1325-.335-.1325-.1243 0-.2438.0473-.335.1325l-11.830084 11.3188c-.104813.0978-.188628.2162-.246255.3481-.057627.1318-.087824.2742-.088722.4183v.7487c0 .1371.053868.2686.149754.3655.095885.097.225924.1515.361529.1515h1.992248v10.5166h19.99303v-10.5166h1.9922c.1356 0 .2657-.0545.3615-.1515.0959-.0969.1497-.2284.1497-.3655v-.7487c-.0008-.1441-.0311-.2865-.0886-.4183-.0576-.1319-.1415-.2503-.2463-.3481zm-15.48314-.0245v-1.5758c.525-.1437 1.08284-.2654 1.67334-.3648.6016-.0996 1.1375-.1493 1.6078-.1493h1.1813v10.881h-2.1492v-9.0233c-.3281 0-.7054.0221-1.132.0664-.4157.0331-.80941.0884-1.18124.1658z" fill="currentColor" fill-rule="evenodd" />
</svg>
