<svg width="18" height="36" viewBox="0 0 18 36" fill="currentColor" xmlns="http://www.w3.org/2000/svg" focusable="false">
	<path d="M17.1891 8C17.1891 8 7.45946 8 5.027 8C2.59463 8 0 8.96774 0 11.5484C0 16.5484 0 20.5806 0 25.5806C0 27.0322 0.810808 28 2.10813 28C9.40543 28 6.97297 28 14.2703 28C14.7567 28 15.081 27.6774 15.081 27.1935V12.3548C15.081 11.8709 14.7567 11.5484 14.2703 11.5484C10.3783 11.5484 6.32428 11.5484 2.43243 11.5484C2.10814 11.5484 1.94594 11.2258 2.10813 10.9032C2.43243 9.93548 4.3784 9.77419 5.027 9.77419C5.3513 9.77419 16.2162 9.77419 16.2162 9.77419V24.7742H17.3513C17.6756 24.7742 18 24.4516 18 24.129V8.80645C18 8.32258 17.6756 8 17.1891 8Z" fill="currentColor" />
</svg>
