<svg width="25" height="36" viewBox="0 0 25 36" fill="currentColor" xmlns="http://www.w3.org/2000/svg" focusable="false">
	<path fill-rule="evenodd" clip-rule="evenodd" d="M12.835 5.1325L24.665 16.4513C24.7699 16.5491 24.8537 16.6675 24.9114 16.7994C24.9689 16.9312 24.9992 17.0736 25 17.2177V17.9664C25 18.1035 24.9461 18.235 24.8503 18.3319C24.7544 18.4289 24.6243 18.4834 24.4888 18.4834H22.4965V29H2.50353V18.4834H0.511283C0.375678 18.4834 0.245639 18.4289 0.149754 18.3319C0.0538684 18.235 0 18.1035 0 17.9664V17.2177C0.000897977 17.0736 0.0310951 16.9312 0.0887222 16.7994C0.146349 16.6675 0.230164 16.5491 0.334977 16.4513L12.1651 5.1325C12.2562 5.0473 12.3758 5 12.5001 5C12.6242 5 12.7438 5.0473 12.835 5.1325ZM17.5418 13.2018C17.1039 13.765 16.2279 13.765 15.7899 13.2018C15.352 12.7794 15.352 11.9347 15.7899 11.3715C16.2279 10.8083 17.1039 10.9491 17.6878 11.3715C18.1258 11.9347 18.1258 12.7794 17.5418 13.2018ZM13.6002 25.1696C13.6559 25.0621 13.749 24.8928 13.8641 24.6835C14.3515 23.7972 15.2339 22.1923 15.352 21.5089V20.8049C15.1034 20.2053 14.0078 19.8101 13.2372 19.532L13.2372 19.532L13.2372 19.532L13.2371 19.532L13.2367 19.5319C13.1026 19.4835 12.9784 19.4387 12.8702 19.3969C13.0162 17.989 12.8702 16.7218 12.7243 16.0178C13.3081 15.7362 13.8921 15.173 14.1841 14.6098C14.2035 14.5724 14.2255 14.5325 14.249 14.4898L14.249 14.4897C14.4025 14.2109 14.6221 13.8122 14.6221 13.2018C14.768 11.9347 14.0381 11.7938 13.8921 11.7938C13.8435 12.0284 13.8111 12.2629 13.7787 12.4975L13.7787 12.4975C13.7138 12.9669 13.6489 13.4364 13.4542 13.9058C13.3459 14.219 13.1574 14.3774 12.9481 14.5532C12.8752 14.6144 12.7997 14.6778 12.7243 14.7506C12.0089 15.3025 11.5389 15.6178 11.1253 15.8953L11.1253 15.8953C10.6949 16.184 10.3256 16.4317 9.80446 16.8625C9.73722 16.9274 9.65448 16.9997 9.56518 17.0778C9.26676 17.3388 8.89495 17.6639 8.78265 17.9889L8.78233 17.9893C8.63642 18.13 8.49061 18.2706 8.49061 18.4113L8.05267 19.6785C7.90665 20.2417 8.05267 20.8049 8.63663 21.0864C8.78265 20.3825 9.2206 19.3969 9.51253 18.8337C9.52628 18.8072 9.53874 18.7819 9.55075 18.7575C9.66632 18.5231 9.74104 18.3715 10.5344 17.9889C10.6884 18.8056 10.6394 19.3874 10.6015 19.8375C10.5675 20.241 10.5424 20.5387 10.6805 20.8049C10.9724 21.0865 11.5564 21.3681 11.9943 21.3681V21.5089H10.8264C10.6805 22.4944 10.6805 22.9169 10.6805 23.1985C10.6805 23.3634 10.6304 23.48 10.5889 23.5767C10.5595 23.645 10.5344 23.7033 10.5344 23.7617L10.5335 23.7635C10.3865 24.0469 9.94984 24.8889 9.65855 25.3105C9.2206 25.8736 9.36651 26.5776 9.65855 27C9.95047 26.7184 11.2644 25.0288 11.8483 24.1841C11.9385 24.01 11.973 23.8897 12.0206 23.7236L12.0206 23.7236C12.0501 23.6209 12.0845 23.5006 12.1403 23.3393C12.1403 23.1984 12.1768 22.987 12.2316 22.67L12.2316 22.67C12.2863 22.3532 12.3593 21.931 12.4322 21.3681C12.5783 21.3681 13.4542 21.5089 13.8921 21.6497C13.8192 21.9313 13.6732 22.2832 13.5272 22.6352L13.5272 22.6352L13.5272 22.6353L13.5272 22.6353C13.3812 22.9873 13.2352 23.3392 13.1622 23.6208C12.8929 24.5298 13.3687 24.9597 13.5588 25.1316C13.5748 25.146 13.5888 25.1587 13.6002 25.1696ZM11.8483 13.765C11.7024 13.061 11.2644 12.7794 10.5344 12.9203C9.80446 13.2018 9.51253 13.765 9.80446 14.469C9.95047 15.173 10.3884 15.4546 11.1184 15.173C11.7024 15.0322 11.9943 14.469 11.8483 13.765Z" fill="currentColor" />
</svg>
