<svg width="36" height="36" fill="none" xmlns="http://www.w3.org/2000/svg">
  <path fill-rule="evenodd" clip-rule="evenodd" d="M18.368 6.129 29.773 16.92a.976.976 0 0 1 .311.716v.721c0 .27-.216.488-.482.488h-1.926V29H8.408V18.845H6.482A.485.485 0 0 1 6 18.357v-.72c0-.274.113-.533.311-.717L17.716 6.13a.477.477 0 0 1 .652 0Zm-.325 9.825c.745 0 1.176-.526 1.176-1.285 0-.863-.45-1.328-1.176-1.328-.764 0-1.176.55-1.176 1.328 0 .822.431 1.285 1.176 1.285Zm-2.554.807a1.411 1.411 0 0 0-.28-.112c-.826-.227-2.187-.227-2.982 0-1.49.423-1.383 3.27-1.242 4.623.072.692.57.891.89.891v-2.29c0-.56.037-1.11.19-1.611.024-.081.069-.123.105-.09v9.28c.616 0 1.07-.37 1.126-1.105l.177-4.323c.002-.05.046-.112.13-.112.082 0 .121.063.123.112l.176 4.33c.041.709.436 1.099 1.135 1.099V22.65c-.177-.214-.298-.499-.321-.873l-.002-.034c-.093-1.478-.247-3.94.775-4.982Zm.948-.086c1.05-.273 2.28-.252 3.21 0 1.619.435 1.437 3.389 1.335 5.051l-.002.023c-.046.753-.573.968-.92.968v-2.04c0-.9-.054-1.759-.211-2.292-.028-.097-.076-.108-.108-.079v10.192c-.721 0-1.307-.397-1.369-1.202l-.192-4.719a.136.136 0 0 0-.138-.12.135.135 0 0 0-.138.12l-.192 4.72c-.062.801-.642 1.201-1.369 1.201V18.306c-.02-.024-.073-.013-.108.079-.198.526-.211 1.383-.211 2.292v2.04c-.347 0-.874-.215-.92-.968l-.002-.03c-.102-1.665-.285-4.625 1.335-5.044Zm-2.707-.72c.663 0 1.046-.474 1.046-1.157 0-.777-.4-1.194-1.046-1.194-.679 0-1.045.492-1.045 1.194 0 .74.383 1.156 1.045 1.156Z" fill="#000"/>
</svg>
