<svg fill="currentColor" height="36" viewBox="0 0 24 36" width="24" xmlns="http://www.w3.org/2000/svg" focusable="false">
	<g fill="currentColor">
		<path d="m9.74111 15.8983c.42839-.4672.96389.6227.96389.6227s-.5355.7785-.96389.7785c-.42849 0-.96401-.7785-.96401-.7785s.53552-1.0899.96401-.6227z" />
		<path clip-rule="evenodd" d="m13.1637 19.7632c-.0376-.2369-.0752-.4737-.0752-.7105.9027-1.1053 1.5044-2.2106 1.6548-3.3159.6018-.4736.9027-1.421.9027-2.3683 0-.3158 0-1.1053-.4513-1.7369.6017-3.4737-1.2035-6.6316-3.7611-6.00002-.4513-.31579-1.2035-.63158-2.25666-.63158-2.40701.15789-5.41584 3.1579-4.66368 6.7895-.4513.6315-.4513 1.4211-.4513 1.7368 0 .9474.30086 1.8947.90259 2.3685v.1579h-.30086c-.90259-.1579-1.80529.4736-1.95573 1.7368-.30088 1.7368-1.05309 1.1053-1.05309 1.1053-.15044-.158-.30088-.4738-.45133-.9474 0 0-1.504424 1.4211-.451331 2.8421.300881.4737.902661.7894 1.654871 1.1053.60176-.3159 1.20359-.6316 1.80531-.6316.18455 0 .25596 0 .2835.0364.01737.023.01737.0604.01737.1215l-.60173.3157c-.90269.4738-1.80533.9474-2.10622 1.4211-1.203543 1.1053-1.80531 5.8421-1.80531 5.8421h11.1328l5.8672-6.6315c-.3009-.3158-.7523-.4737-1.2036-.6317-.7521-.3157-2.4071-1.1052-2.5575-1.263 0-.2369-.0376-.4738-.0752-.7106zm-3.38493 6.2368s-3.91153-.9473-4.81422-3.4737c.19081-.0801.37423-.155.54932-.2265 1.2052-.4927 2.00822-.8209 2.00822-1.5103 0-.0976.05754-.4967.13687-1.0483.04912-.3409.10656-.7401.1641-1.1623-.90269-.7894-1.65495-2.0526-1.65495-3.4736-.60173-.1579-.75216-.9474-.75216-1.579v-.6315c0-.158.15043-.3159.15043-.3159.15043-.1579.30086 0 .45129.1579v-.9473c1.05313-.1579 3.46024-.9474 4.96463-2.68423 1.053.1579 1.6549.63154 2.2566 1.26313v.1579c.066.1385.1031.277.1366.4021.0428.1602.0798.2987.1644.3874v1.2631c.1504-.1579.3008-.1579.4513-.1579.3008.3158.3008.4738.3008 1.1053 0 .6316-.1504 1.4211-.7521 1.579 0 1.421-.9027 2.6842-1.8054 3.6315-.0849.0595-.1645.1246-.2459.1909-.3507.2864-.7328.5986-1.70983.5986-.45129 0-.90269 0-1.20355-.1578.15043.4736.45129.9473 1.35398 1.1053.5401.1133 1.0801-.1804 1.5088-.4134.1685-.0916.3197-.1738.4469-.2183 0 .1579 0 .7895.1504.9474.1391.7292.9196 1.0542 2.2232 1.5972.1076.0447.2197.0915.3344.1396-.9026 2.5264-4.81413 3.4737-4.81413 3.4737z" fill-rule="evenodd" />
		<path d="m19 29h-2l1.7272-3c.1818 1.5.2728 3 .2728 3z" />
		<path clip-rule="evenodd" d="m22.3081 20.6317c.5462-.1547.9557 0 1.3653.4643.273.4642.4096.9285.273 1.5475 0 .619-.273 1.0832-.6826 1.5474-.4095.4643-.8192.7739-1.3653.7739h-.273c-.4097 0-.8192-.1548-1.0923-.4644-.2731-.1547-.4096-.6189-.4096-.9284l-6.8266 7.2733c-.1365.1547-.4095.1547-.546.1547-.2732 0-.4097-.1547-.5462-.3095-.2731-.3096-.2731-.7738 0-1.0833l6.4169-7.7374c-.273 0-.546-.1549-.8191-.4644-.2731-.3094-.5462-.9284-.4096-1.5475 0-.6189.273-1.0832.6827-1.5475.273-.4642.6826-.6189 1.0922-.7737-.1365-1.0832.1365-2.1665.1365-2.1665 0-.3095.2731-.4642.5461-.3095.2731 0 .4096.3095.2731.619 0 0-.2731 1.0832 0 1.857.2731 0 .5461.1548.6827.3095.6826.7737.5461 2.1665-.2731 3.095 0 .1548-2.4575 3.095-2.4575 3.095l.1365.1547 2.7306-2.7855c.4096-.4642.8192-.7737 1.3653-.7737zm-4.0959-.619c0 .1547 0 .4643.273.619.2731.4643.9558.3095 1.3653-.1547.4096-.6191.5462-1.3928.2731-1.7023-.1366-.1548-.4096-.1548-.5461-.1548h-.1365c-.2731 0-.5462.1548-.8193.4643-.273.3095-.4095.619-.4095.9285zm-1.5018 5.7257c.273.1548.546.1548.6826 0 .1365-.1547.1365-.6189 0-.7736-.2731-.1548-.5461-.1548-.6826 0-.1366.3094-.1366.6189 0 .7736zm6.0073-2.3211c.2731-.3096.4096-.6191.4096-.9286 0-.1547 0-.4642-.1365-.7738-.2731-.1547-.4097-.1547-.5462-.1547h-.1365c-.273 0-.5461.1547-.8192.4643-.2731.3095-.4096.619-.4096.9284 0 .3096 0 .6191.1365.7738.2731.1548.5462.1548.6827.1548.2731 0 .5461-.1548.8192-.4642z" fill-rule="evenodd" />
	</g>
</svg>
