<svg fill="currentColor" height="36" viewBox="0 0 21 36" width="21" xmlns="http://www.w3.org/2000/svg" focusable="false">
	<path d="m20.9844 23.447c-.77-6.6719-1.6177-16.49673-7.4377-14.84244-3.86273 1.09798-5.70847 5.90744-5.96755 9.78714-.23679.015-.40351-.2906-.40351-.6038 0-8.15244 5.48576-9.80361 5.48576-9.80361s-.8489-.52859-2.356-.42775c-.58535-.77303-1.5502-1.82214-2.88158-1.49514-.66858.16419-1.13666.68677-1.34976 1.36781-.23499.75205-.11965 1.66174.26547 2.39594-.21969.28425-.426.58645-.61171.91465-.71147-.2691-2.15449-.6489-3.46605.0394-1.340789.7036-2.094446 2.2703-2.2405573 4.6563-.3119237 5.104 2.8993473 9.2602 4.1641273 10.6878.06337.5077.12974.9592.19391 1.3351.13584.7948.74585 1.444 1.56757 1.6632 1.42373.3798 3.4063.7045 4.27708.8387.2872.0443.5787.0562.8658.0117 3.1349-.4866 6.951-2.9281 8.8519-4.2647.7492-.5268 1.1439-1.3843 1.0428-2.2603zm-17.06863-.3681c-1.18414-1.8377-2.4376-4.5358-2.25313-7.5527.10876-1.7847.58873-2.9519 1.38733-3.3755.69578-.3692 1.55857-.1474 2.01506.0194-1.20084 3.1758-1.33957 7.4823-1.14926 10.9088zm3.35773-15.31129c.28876-.92506 1.17684-.58389 1.6913.09999-.49816.19494-1.03071.48622-1.59205.9114-.03109.0235-.05847.05221-.08906.07646-.09765-.37131-.11055-.76711-.01019-1.08785z" fill="currentColor" />
</svg>
