<svg fill="currentColor" height="37" viewBox="0 0 25 37" width="25" xmlns="http://www.w3.org/2000/svg" focusable="false">
	<g fill="currentColor">
		<path d="m18.1862 4.18061c.2805.14023.5359-.00594.6699-.33333.1527-.37286.0648-.65762-.2084-.79422-.2879-.14382-.5397.01508-.6774.35158-.1452.35461-.0647.63579.2159.77597z" />
		<path d="m20.2397 5.90115c-.5714-.03927-.838-.0785-.9523-.11777-.1143-.07853-.3429-.51037-.4191-.66741-.0195-.03526-.0378-.07181-.0564-.10887-.1261-.25209-.265-.52935-.896-.5978-.4571-.03927-1.1809.15703-1.3714.35334-.1905.1963-.3809.5496-.4952.78517-.0762.1963-.0381.43187.1143.58891.0139-.02153.038-.06274.0695-.11665l.0006-.00106.0023-.004c.1419-.24299.4278-.73238.6133-.8598.0762-.0785.3047-.11777.5714-.15704-.1005.44909-.2011 1.08058-.2498 1.38622l-.0003.00206-.0166.1036c-.0711.44006.1901.60608.4732.78603l.0602.03842h-.0381c-.0127 0-.0381-.00435-.072-.01018-.0677-.01162-.1696-.02909-.2709-.02909-.0762.1963-.3047.66743-.419.86374-.1518 0-.3777-.0509-.5722-.09473-.1471-.03315-.2765-.06231-.3421-.06231-.381-.07853-.5334.35334-.5334.35334.0643.02206.1459.05241.2387.08689l.0009.00035c.4023.1495 1.013.37649 1.3224.3446.2285 0 .3047-.07851.4571-.31407.1524-.23557.3809-.62814.5333-.90298l.0308.01559c.0266.01336.0557.02766.0865.04275l.0034.00168c.1485.07276.3335.16342.4508.25405.0762.31407.1143 1.06001.1143 1.37411 0 .01181.001.02451.0032.03792-.2804.3222-.5588.88224-.7271 1.25794-.1142.319-.0571.7018.1715.957.021-.0352.0576-.103.1054-.1916l.0033-.0062c.2128-.3948.6417-1.1901.9198-1.39714.1143-.12757.4572-.19138.8572-.25519-.1509.72983-.3018 1.75623-.3748 2.25283l-.0004.0031-.0248.1684c-.1068.7151.285.9849.7097 1.2773l.0011.0007.0419.0289.0473.0328h-.0572c-.019 0-.0571-.0071-.1079-.0165-.1016-.0189-.2544-.0473-.4063-.0473-.1143.319-.4572 1.0846-.6286 1.4036-.2278 0-.5666-.0828-.8583-.154-.2207-.0539-.4147-.1012-.5131-.1012-.5715-.1276-.8001.5741-.8001.5741.0964.0359.2187.0852.3578.1412l.0011.0004c.6034.2429 1.52.612 1.984.5602.3429 0 .4572-.1276.6857-.5104.2286-.3828.5714-1.0207.8001-1.4673.0146.0082.03.0167.046.0253.0399.0217.0836.0449.1297.0695l.0052.0027c.2228.1183.5003.2656.6762.4129.1143.5103.1714 1.7225.1714 2.2329 0 .2552.2857.7655.7429.8931.0295-.3633.0438-.6581.0587-.9642l.0001-.0028c.0137-.2844.028-.5788.0554-.9469v-1.2121c0-.2552 0-.4466-.1142-.638-.0572-.1914-.2857-.3828-1.3715-1.2759.025-.1256.05-.2572.0756-.3923l.0029-.0152.0009-.0048c.0904-.4772.1885-.9955.3206-1.4379.1715.3191.5144.957.8 1.0846.2286.1276.8572.1276 1.1429.1276.4028-.0562.5394-.4097.6053-.5802.0089-.0229.0165-.0426.0232-.0578-.8571-.0638-1.2571-.1276-1.4285-.1914-.1714-.1276-.5143-.8293-.6286-1.08451-.0293-.0573-.0568-.11669-.0846-.17691-.1892-.40964-.3975-.8602-1.344-.97143-.4501-.04189-1.0727.0812-1.5281.26095.0061-.10246.0135-.21202.0234-.33493v-.74594c0-.15703 0-.2748-.0762-.3926-.0381-.11777-.1905-.23554-.9143-.78518.0167-.07725.0333-.15828.0504-.24139l.0024-.01168c.0602-.29367.1258-.6132.2139-.88547.1143.19636.3429.58893.5333.66741.1524.07853.5714.07853.7619.07853.2686-.03459.3596-.2521.4036-.35702.0059-.01411.0109-.02625.0154-.03558z" />
		<path d="m10.31 10.6737c1.0287.5083 1.9651-.0216 2.4565-1.20836.5597-1.35162.2375-2.38389-.7643-2.87905-1.0555-.52137-1.9789.05466-2.48388 1.27446-.53228 1.28548-.23695 2.30475.79168 2.81295z" />
		<path d="m15.1603 16.6553 1.498 1.5973c.7143-.2441.9847-.8825 1.1246-1.213.0217-.0512.0403-.0952.0568-.129-1.2529-.0851-2.1062-.1702-2.6794-.2553z" />
		<path d="m14.3392 18.251-6.30301-6.7207c-1.51577.159-3.20864.7061-3.74562 1.2532-.69843.7116-1.39685 1.9923-1.81593 2.8463-.27929.7116-.13965 1.5655.41908 2.1347.0515-.0786.14084-.2298.2577-.4275l.0081-.0137c.52026-.8808 1.56852-2.6548 2.24849-3.1167.27941-.2846 1.11744-.4269 2.09527-.5693-.36873 1.6281-.73756 3.9176-.91602 5.0254l-.00026.0016-.00083.0055c-.02381.148-.04423.2747-.06072.3756-.26095 1.5952.69681 2.197 1.73492 2.8493l.00268.0017c.07238.0455.14517.0913.21807.1376h-.13981c-.0465 0-.1396-.0158-.26374-.0369l-.0021-.0003c-.24837-.0422-.61974-.1052-.9912-.1052-.27941.7116-1.11754 2.4195-1.53656 3.1311-.55671 0-1.38484-.1845-2.09799-.3434l-.00099-.0002c-.53934-.1202-1.01287-.2257-1.25338-.2257-1.396833-.2846-1.955604 1.2809-1.955604 1.2809.235557.08.534858.1899.874944.3149l.00361.0014c1.4749.5419 3.71423 1.3647 4.84843 1.2491.83813 0 1.11754-.2846 1.67616-1.1385.55882-.8539 1.39684-2.277 1.95567-3.2733.03588.0183.07341.0372.11259.0565.09732.0483.204.1001.31655.1546l.0133.0065c.5444.2637 1.2228.5924 1.6527.9209.2794 1.1385.4191 3.8425.4191 4.9812 0 .5692.6984 1.7077 1.8159 1.9924.0723-.8104.1072-1.4681.1434-2.1511v-.0016l.0003-.0045c.0337-.6344.0686-1.2912.1356-2.1124v-2.704c0-.5692 0-.9961-.2793-1.4232-.1397-.4269-.6984-.8538-3.3524-2.8462.0611-.2801.1221-.5739.1847-.8752l.0093-.0444c.2209-1.0646.4608-2.2207.7837-3.2076.4191.7118 1.2575 2.1348 1.9556 2.4193.1885.096.4883.1597.8296.2019z" />
		<path d="m10.5639 11.7544 2.3402 2.4952c-.0354-.0693-.0666-.1317-.0929-.1853-.0717-.1278-.1388-.2603-.2069-.3946-.3644-.7201-.7579-1.4969-2.0404-1.9153z" />
		<path d="m16.2397 26.3333c0-1.1314.8001-2.1213 2-2.1213 1.0667 0 2 .8485 2 2.1213 0 1.1313-.8 2.1212-2 2.1212-1.0666 0-2-.8484-2-2.1212z" />
		<path d="m21.1594 8.31243c.4208.22788.8039-.00966 1.0049-.54166.229-.60589.0972-1.06863-.3126-1.2906-.4318-.23372-.8096.0245-1.0162.57131-.2177.57624-.0969 1.03316.3239 1.26095z" />
		<path d="m3.70243 6.58489-.81434.8683c-.09241.09854-.09241.25432 0 .35286l19.18651 20.45785c.0977.1042.2602.1042.3579 0l.8143-.8683c.0924-.0986.0924-.2544 0-.3529l-19.18644-20.45781c-.09768-.10415-.26025-.10415-.35793 0z" />
	</g>
</svg>
