<svg focusable="false" width="36" height="36" viewBox="0 0 36 36" fill="currentColor" focusable="false" xmlns="http://www.w3.org/2000/svg">
  <path d="M32 29.5964L6.40798 5L5 6.2819L10.5491 11.4896C10.2178 11.5697 10.0798 11.997 10.0521 12.2908C9.96933 13.5727 10.0521 14.454 10.3006 15.9763C10.4994 17.1941 11.6534 17.4985 12.2055 17.4985C11.9405 16.4089 11.7638 14.1869 11.7086 13.1721L12.1227 13.0119L13.6963 14.5341C13.4479 16.4246 13.2822 18.2196 13.365 22.1454C13.4394 25.6706 14.5521 30.0237 15.1043 32C16.9264 31.7596 17.0092 29.1157 16.5123 27.5134C16.1147 26.2315 16.0153 22.5727 16.0153 20.8635C17.208 21.0558 18.9969 21.6914 19.7423 21.9852C19.6761 22.2415 19.2178 24.8427 18.9969 26.1513C18.9969 27.6255 20.1012 28.4214 20.6534 28.635L22.3098 22.8665L30.592 30.8783L32 29.5964Z"/>
  <path d="M20.7455 11.4499C18.643 9.53986 15.3726 9.91942 14.0002 10.348L19.3438 15.9495L19.6067 14.2047C19.9571 14.9394 20.9207 16.5923 21.3587 17.3269C21.7967 17.9697 22.3223 18.0615 22.8479 17.9697C23.3664 17.8791 24.5999 17.4187 26.0892 16.4086C27.2805 15.6005 27.0528 14.2353 26.79 13.6538C26.1592 14.168 23.7823 15.2148 22.6727 15.674C21.9018 13.1028 21.0667 11.7866 20.7455 11.4499Z"/>
  <path d="M19.9283 7.53223C20.2945 5.80804 19.1654 5.19159 18.5551 5.09889C18.1737 5.04097 16.953 4.6122 16.2665 6.14175C15.4348 7.99447 16.8005 8.71413 16.9531 8.78365C17.1056 8.85318 19.4706 9.68746 19.9283 7.53223Z"/>
  <path d="M27 6.58989L29.7347 5V10.2873C30.3389 9.84362 31.9288 10.2134 31.9924 11.1377C32.056 12.0621 31.738 12.8016 30.3389 12.9864C29.2196 13.1343 28.8549 12.0374 28.8125 11.4705V7.47727L27 8.17978V6.58989Z"/>
</svg>
