<svg fill="currentColor" height="36" viewBox="0 0 14 36" width="14" xmlns="http://www.w3.org/2000/svg" focusable="false">
	<g fill="currentColor">
		<path d="m11.3978 8.13924c0 1.22246-.614 2.07136-1.6751 2.07136-1.06074 0-1.67509-.74692-1.67509-2.07136 0-1.2564.58636-2.13924 1.67509-2.13924 1.0335 0 1.6751.74692 1.6751 2.13924z" />
		<path d="m13.9077 19.5464.0021-.0374c.1457-2.678.4045-7.4366-1.9009-8.139-1.3245-.4035-3.07717-.4386-4.57232 0-2.30746.6769-2.04755 5.447-1.90151 8.1275l.00267.0489c.06614 1.2147.81591 1.5588 1.30995 1.5588v-3.2869c0-1.4634.01928-2.845.30133-3.6939.04884-.1471.12507-.1643.15415-.1248v16.0004c1.03509 0 1.8611-.6441 1.94954-1.9376 0 0 .27118-7.0952.27408-7.1804.00291-.0851.07382-.1957.19595-.1957s.19338.1106.19628.1957c.00291.0852.27378 7.1804.27378 7.1804.0887 1.2988.9223 1.9376 1.9495 1.9376v-16.0004c.0465-.0461.1138-.0305.1542.1248.2239.8621.3017 2.2437.3017 3.6939v3.2869c.4936 0 1.2435-.3442 1.3095-1.5588z" />
		<path d="m5.90414 11.8079c-1.48916 1.4068-1.27451 5.3465-1.14685 7.6895l.00267.049c.06056 1.112.82169 2.0131 1.32899 2.1575v7.4685c-.93386 0-1.69161-.5948-1.77232-1.8039 0 0-.24622-6.606-.24886-6.6852-.00264-.0793-.06741-.1823-.17844-.1823s-.17549.103-.17813.1823c-.00264.0792-.24917 6.6852-.24917 6.6852-.0804 1.2043-.83131 1.8039-1.77231 1.8039v-14.8969c-.02643-.0368-.09573-.0207-.14013.1162-.25641.7903-.27394 2.0767-.27394 3.4392v3.0602c-.449122 0-1.130731-.3205-1.1908653-1.4514l-.0024229-.0455c-.1327663-2.4956-.3690418-6.9367 1.7286482-7.5669 1.33545-.4013 2.89687-.3768 4.09313-.0194z" />
		<path d="m6.08895 16.2856v2.0206l-.01903-.4879c0-.5286.00251-1.0466.01903-1.5327z" />
		<path d="m3.8893 10.7478c.96464 0 1.5228-.79035 1.5228-1.92851 0-1.2963-.58327-1.9917-1.5228-1.9917-.98976 0-1.52281.82195-1.52281 1.9917 0 1.23311.5585 1.92851 1.52281 1.92851z" />
	</g>
</svg>
