<svg fill="currentColor" height="37" viewBox="0 0 25 37" width="25" xmlns="http://www.w3.org/2000/svg" focusable="false">
	<g fill="currentColor">
		<path d="m12.7759 6.09148 3.8174-1.32067c.0445-.0176.0826-.04797.1095-.0872s.0412-.08553.0412-.13291c0-.04739-.0143-.09369-.0412-.13293-.0269-.03922-.065-.0696-.1095-.08719l-3.8174-1.32067c-.0352-.0104-.0723-.01265-.1085-.00659-.0363.00607-.0707.02029-.1004.04156-.0298.02127-.0542.04903-.0714.08114-.0172.0321-.0267.06768-.0278.104v2.64135c.0011.03631.0106.0719.0278.104s.0416.05987.0714.08114c.0297.02128.0641.03549.1004.04155.0362.00607.0733.00382.1085-.00658z" />
		<path clip-rule="evenodd" d="m9.35218 11.7128c1.01122-.8046 1.95582-1.6879 2.82462-2.64134-.393 1.35864-.8675 2.69294-1.4209 3.99584l13.4208 13.2744c-.6022-2.2263-1.0595-4.4885-1.3695-6.7727l.7532-.237c.1804-.0631.3366-.1801.447-.3348.1105-.1547.1695-.3394.1693-.5287v-2.4889c.0023-.168-.043-.333-.1307-.4766-.0877-.1437-.2145-.2602-.3658-.3362-4.117-1.9971-7.7625-4.8298-10.699-8.31344-.0431-.05613-.0987-.10164-.1626-.13298-.0638-.03133-.1341-.04764-.2054-.04764-.0712 0-.1415.01631-.2054.04764-.0639.03134-.1195.07685-.1626.13298-1.1171 1.46041-2.41703 2.77468-3.86878 3.91124zm11.86302 3.691h-5.3238c-1.2598-1.9553-2.2068-4.0912-2.8075-6.33234 2.3683 2.50844 5.1103 4.64394 8.1313 6.33234z" fill-rule="evenodd" />
		<path clip-rule="evenodd" d="m6.59606 12.2829 16.95274 16.7171h-6.3222c-2.7732 0-4.6049-7.2976-4.6049-7.2976s-1.8487 7.2976-4.62192 7.2976h-7.823022c1.064992-2.7235 1.783762-5.5671 2.139782-8.4658.69348-.0183 1.37096-.2106 1.96862-.5588.82675.5097 1.80262.73 2.77103.6256.96852-.1043 1.87351-.5274 2.56986-1.2013.34237-.4063 0-.4063 0-.4063-3.73174 1.8794-5.22106-.2878-5.22106-.2878-.36237.3653-.84065.5967-1.35472.6552-.51411.0586-1.03295-.0592-1.46982-.3336-.14686-.0798-.26904-.1976-.35346-.3407-.08442-.1432-.12793-.3063-.12585-.4721v-2.2687c-.00238-.1679.04288-.333.13063-.4767.08775-.1436.21449-.2601.3658-.336.59914-.271 1.71183-.8805 3.01284-1.6932zm-.97565 2.1558-1.60915.9651h2.5848z" fill-rule="evenodd" />
		<path d="m2.23792 7.17768-.9328.9328c-.09813.09813-.09813.25723 0 .35536l21.35648 21.35646c.0982.0981.2573.0981.3554 0l.9328-.9328c.0981-.0982.0981-.2573 0-.3554l-21.35652-21.35642c-.09813-.09813-.25723-.09813-.35536 0z" />
	</g>
</svg>
