<svg fill="currentColor" height="36" viewBox="0 0 26 36" width="26" xmlns="http://www.w3.org/2000/svg" focusable="false">
	<g fill="currentColor">
		<path d="m14.7703 16.8173c0-1.6243-.9763-2.7615-1.9524-2.7615-.9763 0-1.9524 1.2995-1.9524 2.7615z" />
		<path d="m12.8179 18.1167c-.6508 0-1.139.4874-1.139 1.1371 0 .3248.1628.6498.4882.8122v2.2741h1.3016v-2.2741c.3253-.1624.4881-.4874.4881-.8122 0-.6497-.4881-1.1371-1.1389-1.1371z" />
		<path clip-rule="evenodd" d="m13.1433 5.12182 11.8772 11.20818c.3253.1624.3253.4873.1627.8122v.6497c0 .3248-.1627.4873-.4881.4873h-1.9524v10.7208h-20.01216v-10.5583h-1.952398c-.325398 0-.488103-.1625-.488103-.4873v-.8122c0-.3249.162704-.6498.325398-.8122l11.877063-11.20818c.1628-.16243.4881-.16243.6508 0zm2.6032 18.35528c.3255-.1623.6508-.3248.6508-.6497.1627-.8121.1627-2.4365.1627-2.599 0-.9745 0-1.7867-.1627-2.9239 0-.1082-.1445-.2165-.2892-.3248-.0723-.0541-.1446-.1083-.1988-.1624l-.1628.1624c-.6508.4873-1.1388.6498-1.3016.6498h-.1626c.0813 0 .1626-.0407.244-.0813s.1627-.0812.2441-.0812l.8135-.8122c.1626 0 .1626-.1624.1626-.1624-.3253-1.9492-1.4642-3.4111-2.9285-3.4111s-2.7659 1.7867-2.92864 3.8984c-.32545.1625-.65079.3248-.65079.6498-.16273.8122-.16273 2.2741-.16273 2.5989 0 .325 0 1.7869.16273 2.599 0 .3249.32534.6497.65079.6497.97624.1625 2.60314.1625 2.92864.1625.3253 0 1.9524 0 2.9285-.1625z" fill-rule="evenodd" />
	</g>
</svg>
