<svg fill="currentColor" height="36" viewBox="0 0 25 36" width="25" xmlns="http://www.w3.org/2000/svg" focusable="false">
	<g fill="currentColor">
		<path d="m5.73968 15.607c1.14792-.2588 1.65812-1.2936 1.40302-2.5871-.3826-1.2936-1.27552-1.811-2.42344-1.5523-1.27551.2587-1.65817 1.2935-1.40307 2.5871.38265 1.2935 1.27546 1.811 2.42349 1.5523z" />
		<path d="m15.4338 7.45771c0-1.42288-1.1481-2.45771-2.4235-2.45771-1.4031 0-2.4235 1.16418-2.4235 2.45771 0 1.4229 1.148 2.45778 2.4235 2.45778 1.4031.12931 2.4235-1.03488 2.4235-2.45778z" />
		<path d="m8.29085 22.0746c-.38271-2.587-.25511-3.4925-.25511-3.4925 2.04076-1.4229 2.67856-3.622 2.29586-5.9502-.1275-.9056-.63773-1.5523-1.53054-1.2936.76531 2.7164.2551 5.0448-2.93376 5.4328-3.06118.3881-4.71934-1.2935-4.59179-4.398-.892853 0-1.27551.9055-1.27551 1.6816.127552 2.3284 1.53061 4.01 3.69897 4.7861.1276 3.1045.2551 3.6219 1.40302 6.9851 0 0-.76521.5174-1.27542.7761-.8929.6468-1.27556 1.5522-.76535 2.4578.76535-.3881 2.93369-1.5523 3.57139-1.9404.38271-.1293.51021-.5174.51021-1.0348 0-.2587-.2551-1.2935-.3826-2.199.2551.2587.76531.5174 2.04084 1.5522 0 .7762-.12761 1.811-.12761 2.7164 0 1.2936.51021 1.811 1.53065 2.0697 0 0 .3826-3.4925.6377-5.3035 0-.2587-.1275-.6467-.3826-.9054-.89283-.7761-1.53064-1.423-2.16835-1.9404z" />
		<path d="m17.9846 15.7363c.8929.1294 1.6582-.2587 2.0408-1.0347.2551.2586.6379.6467 1.1481.5173.8928-.2586.7652-.9055 1.7856-.6468.1276 0 .1276-.1293.1276-.1293-.3827-.3881-1.0204-.9055-1.9132-.9055-.5102 0-.7654.1294-1.0205.3881.1275-1.2935-.3827-2.1991-1.5306-2.3284-1.2755-.2587-2.0408.6468-2.2959 1.811-.1275 1.1641.5102 2.0696 1.6581 2.3283z" />
		<path d="m21.9389 18.9701c-1.9134-1.1642-1.6583-1.9403-3.1888-2.3283-1.6582-.3882-2.8062.388-3.9541-1.811-.5102-.7761-.7653-1.9403-1.148-3.4925-.8928.2587-1.2755 1.0348-1.0204 2.0696.3827 1.9403 1.0204 3.7513 2.8061 4.9154-.5102 1.2936-1.1479 3.7513-1.5306 6.2091 0 .2587.1276.5174.3827.5174h.8928c-.1276.5173-.1276 1.0347-.1276 1.1641 0 .388 0 .6467.1276 1.0349.2551.9054 1.0205 2.9751 1.2756 3.7512 1.0204-.3881 1.2755-1.0348 1.0204-2.199s-.5102-2.0697-.5102-2.0697l.5102-1.5522h.3826c0 .388.1276.7761.1276.9054 0 .2587.2551.5174.5102.6468 3.3162 2.199 2.5509 1.6816 3.5714 2.3284.6378-.9055.1276-1.5522-.5103-2.3284-.3826-.3881-.7653-.7761-1.0204-1.0348l-1.5305-.2587c-.1276 0-.1276-.1294-.1276-.1294h1.0204.8928c.2551 0 .5102-.2587.3827-.5173l-.8929-4.9155c.8929.7761 1.7857 1.2935 2.6787 1.4228 1.0204.1294 1.9132 0 2.0407-.9054-1.2754-.5174-2.1683-.9054-3.0611-1.4229z" />
	</g>
</svg>
