<svg width="36" height="36" viewBox="0 0 36 36" fill="currentColor" xmlns="http://www.w3.org/2000/svg">
  <path d="M8.57 8.7998H5.94C5.8233 8.7998 5.71139 8.84616 5.62887 8.92868C5.54636 9.01119 5.5 9.12311 5.5 9.2398V13.1798C5.5 13.2965 5.54636 13.4084 5.62887 13.4909C5.71139 13.5734 5.8233 13.6198 5.94 13.6198H6.81V27.1998H7.69V13.6198H8.57C8.62732 13.6198 8.68406 13.6084 8.7369 13.5861C8.78973 13.5639 8.83758 13.5313 8.87765 13.4903C8.91771 13.4494 8.94917 13.4008 8.97018 13.3474C8.9912 13.2941 9.00133 13.2371 9 13.1798V9.2398C9.00003 9.12482 8.95505 9.01439 8.87468 8.93216C8.79432 8.84993 8.68495 8.80242 8.57 8.7998Z"/>
  <path d="M25 21.9398H21.92C21.745 21.9398 21.5771 22.0093 21.4533 22.1331C21.3295 22.2569 21.26 22.4248 21.26 22.5998C21.26 22.7748 21.3295 22.9427 21.4533 23.0665C21.5771 23.1903 21.745 23.2598 21.92 23.2598H25C25.175 23.2598 25.3429 23.1903 25.4667 23.0665C25.5905 22.9427 25.66 22.7748 25.66 22.5998C25.66 22.4248 25.5905 22.2569 25.4667 22.1331C25.3429 22.0093 25.175 21.9398 25 21.9398Z"/>
  <path d="M19.46 16.1098C18.6274 15.9199 17.7626 15.9199 16.93 16.1098C15.48 16.4598 15.57 18.7698 15.57 20.7698C15.5673 21.0041 15.6572 21.2301 15.82 21.3986C15.9829 21.5671 16.2057 21.6646 16.44 21.6698V19.5698C16.4223 18.991 16.4828 18.4124 16.62 17.8498C16.62 17.7598 16.71 17.7798 16.71 17.7798V27.1698C17.0239 27.1725 17.3261 27.051 17.5509 26.8319C17.7757 26.6127 17.9047 26.3137 17.91 25.9998C17.91 25.9998 18.08 21.5898 18.08 21.5498C18.08 21.518 18.0926 21.4875 18.1151 21.465C18.1377 21.4424 18.1682 21.4298 18.2 21.4298C18.2318 21.4298 18.2623 21.4424 18.2849 21.465C18.3074 21.4875 18.32 21.518 18.32 21.5498C18.32 21.5498 18.49 25.9698 18.49 25.9698C18.49 26.1269 18.5211 26.2825 18.5815 26.4275C18.642 26.5726 18.7305 26.7042 18.8421 26.8148C18.9536 26.9254 19.086 27.0129 19.2315 27.0721C19.3771 27.1313 19.5329 27.1611 19.69 27.1598V17.7798C19.69 17.7798 19.76 17.7798 19.79 17.8498C19.9323 18.4086 20.0029 18.9832 20 19.5598V21.6698C20.2343 21.6646 20.4571 21.5671 20.62 21.3986C20.7828 21.2301 20.8727 21.0041 20.87 20.7698C20.87 18.7698 20.96 16.4498 19.5 16.1098"/>
  <path d="M19.33 14.2498C19.33 13.4198 18.9 12.9698 18.2 12.9698C17.5 12.9698 17.07 13.4998 17.07 14.2498C17.07 14.9998 17.48 15.4798 18.2 15.4798C18.3586 15.4853 18.5164 15.4563 18.6628 15.395C18.8091 15.3337 18.9405 15.2415 19.0478 15.1246C19.1552 15.0078 19.236 14.8691 19.2847 14.7181C19.3334 14.5671 19.3488 14.4073 19.33 14.2498ZM17.45 14.5598L17.94 14.3698C18.1081 14.3095 18.2919 14.3095 18.46 14.3698L18.95 14.5598C18.9163 14.7301 18.8213 14.8821 18.6831 14.9871C18.545 15.0921 18.3731 15.1429 18.2 15.1298C18.0256 15.15 17.8501 15.102 17.7103 14.9957C17.5705 14.8895 17.4772 14.7333 17.45 14.5598Z"/>
  <path d="M30.06 9.6798H11.19C11.0733 9.6798 10.9614 9.72616 10.8789 9.80868C10.7964 9.89119 10.75 10.0031 10.75 10.1198V10.9998C10.75 11.1165 10.7964 11.2284 10.8789 11.3109C10.9614 11.3934 11.0733 11.4398 11.19 11.4398H14.25C14.25 11.4998 14.25 11.5798 14.12 11.5998L13.38 11.7598V27.1998H14.7V11.4298H26.56V27.1998H27.87V11.4298H30.06C30.175 11.4298 30.2854 11.3849 30.3676 11.3045C30.4499 11.2241 30.4974 11.1148 30.5 10.9998V10.1298C30.5 10.0131 30.4536 9.90119 30.3711 9.81868C30.2886 9.73616 30.1767 9.6898 30.06 9.6898"/>
</svg>
