<svg width="21" height="36" viewBox="0 0 21 36" fill="currentColor" xmlns="http://www.w3.org/2000/svg" focusable="false">
	<path d="M20.7468 13.4508C20.7468 12.5164 19.8298 11.582 18.7599 11.582C17.0789 11.582 15.5505 11.582 13.8694 11.582V9.86883C14.0222 8.77869 13.2581 8 12.1882 8H8.67318C7.75615 8 6.99201 8.77869 6.99201 9.86883V11.7377C5.31084 11.7377 3.78257 11.7377 2.10142 11.7377C1.18444 11.7377 0.267454 12.5164 0.114627 13.6066C-0.0382091 17.3443 -0.0382091 21.2377 0.114627 25.1311C0.114627 26.0655 1.03161 27 2.10142 27C7.75615 27 13.2581 27 18.9128 27C19.8298 27 20.7468 26.2212 20.8996 25.1311C21.0524 21.2377 21.0524 17.3443 20.7468 13.4508ZM6.07507 18.5902L3.47686 17.1885L5.15803 13.7623L6.99201 13.4508L7.75615 15.1639L6.07507 18.5902ZM12.1882 11.582C10.9656 11.582 9.89574 11.582 8.67318 11.582V9.86883H12.1882V11.582Z" fill="currentColor" />
</svg>
