<svg width="26" height="36" viewBox="0 0 26 36" fill="currentColor" xmlns="http://www.w3.org/2000/svg" focusable="false">
	<path fill-rule="evenodd" clip-rule="evenodd" d="M0.854004 6.40017L2.25417 5L25.854 28.5998L24.4538 30L20.044 25.5902V27.0003H8.88869V23.5994C8.8664 23.2192 9.74546 22.8804 10.8348 22.4605C11.2182 22.3128 11.6275 22.1551 12.0328 21.982C13.5897 21.3169 13.1513 19.246 13.1513 19.246C12.2974 19.1542 11.5095 18.744 10.9444 18.0973C10.0774 18.1388 9.2114 17.9958 8.40369 17.6779C7.59598 17.3601 6.86484 16.8745 6.25859 16.2531C4.71919 14.3881 3.93531 12.0156 4.05789 9.60406L0.854004 6.40017ZM5.39827 10.9445C5.58307 12.5546 6.21432 14.0854 7.22598 15.3614C7.93067 16.0899 8.85442 16.5677 9.85619 16.7218C9.47119 16.0415 9.18765 15.3124 9.0114 14.5576L5.39827 10.9445ZM7.94775 8.83141L10.2038 11.0874V7.96982H8.88869V8.83141H7.94775ZM17.5835 18.4671L11.141 12.0246V7.96982H20.044V8.86165H24.2311C24.6241 8.86165 24.8962 8.87676 24.8962 9.48135C25.0359 11.9432 24.2303 14.3654 22.6439 16.2531C22.0413 16.8792 21.3108 17.368 20.5021 17.6863C19.6935 18.0045 18.8258 18.1447 17.9581 18.0973C17.8423 18.2308 17.717 18.3544 17.5835 18.4671ZM20.0591 12.6254V9.95H23.0822C23.3997 9.95 23.566 9.95 23.5055 10.3732C23.431 12.1911 22.7798 13.9381 21.6463 15.3614C20.9259 16.1017 19.979 16.5804 18.9557 16.7218C19.6782 15.4774 20.0588 14.0643 20.0591 12.6254ZM10.0829 24.4307H18.7441V25.7608H10.0829V24.4307Z" fill="currentColor" />
</svg>
