<svg fill="currentColor" height="36" viewBox="0 0 21 36" width="21" xmlns="http://www.w3.org/2000/svg" focusable="false">
	<g fill="currentColor">
		<path d="m17.7692 16.2576c-2.1153-.1388-3.1024-.2775-3.5256-.4164-.423-.2776-1.2692-1.8045-1.5513-2.3597-.0723-.1247-.1401-.2539-.2088-.385-.467-.8913-.981-1.8716-3.3168-2.1136-1.69238-.1389-4.37179.5552-5.07693 1.2493-.70514.694-1.41028 1.9432-1.83338 2.7761-.28199.6941-.141 1.527.4231 2.0822.0532-.0785.14636-.2309.26836-.4303.52526-.8591 1.5836-2.5895 2.27011-3.04.28209-.2776 1.12818-.4164 2.11542-.5552-.37245 1.5887-.74501 3.8232-.92509 4.9031l-.00084.0054c-.02404.1444-.04465.268-.06131.3663-.26347 1.556.70358 2.143 1.75171 2.7793l.00261.0015c.07307.0444.14656.089.22016.1342h-.14116c-.04694 0-.14094-.0153-.26627-.0359-.25077-.0411-.62676-.1029-1.00285-.1029-.2821.6941-1.12829 2.3598-1.55133 3.0539-.56233 0-1.39894-.1801-2.11917-.3351-.54453-.1172-1.02261-.2201-1.26544-.2201-1.410256-.2777-1.9744 1.2493-1.9744 1.2493.238347.0782.541336.1857.885631.308 1.489069.5286 3.750959 1.3317 4.896419 1.2188.84619 0 1.12829-.2775 1.69227-1.1104.5642-.8329 1.41028-2.2209 1.97448-3.1927.03622.0178.07412.0363.11367.0551.10212.049.21444.1016.333.1571.54973.2573 1.23453.5778 1.66863.8983.2821 1.1104.4232 3.7479.4232 4.8584 0 .5553.705 1.6657 1.8333 1.9434.073-.7905.1082-1.432.1448-2.0981v-.0016l.0003-.0043c.0339-.6189.0692-1.2595.1369-2.0604v-2.6374c0-.5552 0-.9716-.282-1.3881-.1411-.4164-.7052-.8328-3.3847-2.7762.0641-.2834.128-.5812.1937-.8866l.0017-.0082c.2232-1.0389.4655-2.1674.7918-3.1308.4231.6943 1.2695 2.0823 1.9743 2.3598.5642.2777 2.1155.2777 2.8206.2777.9943-.1224 1.3314-.8916 1.494-1.2626.0218-.0498.0406-.0926.0572-.1256z" />
		<path d="m16.9615 26.2758c0-1.1036.8078-2.0691 2.0193-2.0691 1.0769 0 2.0192.8277 2.0192 2.0691 0 1.1035-.8077 2.069-2.0192 2.069-1.0769 0-2.0193-.8276-2.0193-2.069z" />
		<path d="m12.6472 8.99575c-.4961 1.15755-1.4415 1.67435-2.4802 1.17855-1.03844-.49564-1.33661-1.4898-.79921-2.74362.50981-1.18975 1.44211-1.75159 2.50771-1.24306 1.0115.48296 1.3368 1.4898.7717 2.80813z" />
	</g>
</svg>
