<svg width="23" height="36" viewBox="0 0 23 36" fill="currentColor" xmlns="http://www.w3.org/2000/svg" focusable="false">
	<path d="M22.9388 14.2817L18.1014 7.46479C17.9453 7.15493 17.6332 7 17.3211 7H5.61766C5.30559 7 5.1495 7.15493 4.99351 7.30986L0 14.2817C0 14.4367 2.04923e-07 14.5915 0.156048 14.5915H3.27696L10.4551 8.70423C10.9232 8.23944 11.7035 8.23944 12.3276 8.70423L19.5057 14.5915H22.6267C22.9388 14.5915 23.0948 14.4367 22.9388 14.2817Z" fill="currentColor" />
	<path d="M11.5474 9.94366L4.05719 15.9859H1.56045V29H21.3783V15.9859H18.8816L11.5474 9.94366ZM8.27045 26.2112H4.68134V24.0422H8.27045V26.2112ZM8.27045 22.6479H4.68134V18.6197H8.27045V22.6479ZM13.2639 26.2112H9.67484V24.0422H13.2639V26.2112ZM13.2639 22.6479H9.67484V18.6197H13.2639V22.6479ZM11.5474 16.4507C10.4551 16.4507 9.67484 15.676 9.67484 14.5915C9.67484 13.507 10.4551 12.7324 11.5474 12.7324C12.6397 12.7324 13.4199 13.507 13.4199 14.5915C13.4199 15.676 12.4837 16.4507 11.5474 16.4507ZM18.2573 26.2112H14.6683V24.0422H18.2573V26.2112ZM18.2573 22.6479H14.6683V18.6197H18.2573V22.6479Z" fill="currentColor" />
</svg>
