<svg width="19" height="36" viewBox="0 0 19 36" fill="currentColor" xmlns="http://www.w3.org/2000/svg" focusable="false">
	<path d="M18.3871 17.0764C18.3871 16.465 17.7742 15.8535 17.1613 15.8535H14.7096C15.0161 15.8535 15.3225 15.5478 15.4758 15.2421L16.0886 8.66879C16.0886 8.51593 16.0886 8.51593 15.9355 8.36306C15.7822 8.21019 15.7822 8.21019 15.629 8.21019H14.4032L14.7096 5.76433C14.7096 5.61146 14.5565 5.30573 14.4032 5.30573C14.25 5.30573 14.0967 5.45859 14.0967 5.76433L13.6371 8.21019H11.0323C10.879 8.21019 10.7258 8.36306 10.7258 8.36306C10.7258 8.36306 10.5726 8.51593 10.5726 8.66879L11.1855 15.2421C11.1855 15.5478 11.4919 15.8535 11.9515 15.8535H8.58064C8.58064 15.3949 8.27419 15.0891 7.81446 15.0891H6.58873V12.3376C7.20164 12.1847 7.81446 11.879 8.27419 11.4204C8.8871 10.8089 9.04028 9.89173 9.04028 9.12739L8.73382 5.30573C8.73382 5.15287 8.42737 5 8.27419 5H3.98383C3.67737 5 3.52419 5.15287 3.52419 5.30573L3.06455 8.97452C3.06455 9.89173 3.37101 10.656 3.83064 11.2675C4.29028 11.7261 4.90319 12.0319 5.5161 12.1847V15.0891H4.44355C3.98383 15.0891 3.67737 15.3949 3.67737 15.8535H1.83871C1.22581 15.8535 0.612909 16.3121 0.612909 17.0764L0 21.8153L1.37904 22.4267C2.14519 22.8854 3.21773 22.8854 3.98383 22.4267C4.75001 21.9682 5.66937 21.9682 6.43546 22.4267L8.12091 23.1911V29H10.5726V23.8026C10.1129 23.9554 9.50001 23.8026 9.19355 23.6497C9.04028 23.6497 9.04028 23.4968 9.04028 23.4968C9.65319 23.6497 10.1129 23.4968 10.7258 23.3439L12.4113 22.5796C13.1774 22.2739 14.0967 22.2739 15.0161 22.5796C15.7823 23.0382 16.8548 23.0382 17.6209 22.5796L19 21.9682L18.3871 17.0764ZM15.1694 9.12739L14.8629 12.3376H11.6452L11.3387 9.12739H15.1694ZM7.96773 5.76433L8.27419 8.66879H3.98383L4.29028 5.76433H7.96773Z" fill="currentColor" />
</svg>
