<svg width="18" height="36" viewBox="0 0 18 36" fill="currentColor" xmlns="http://www.w3.org/2000/svg" focusable="false">
	<path d="M14.0751 10.0352C15.1532 10.0352 15.7769 9.22163 15.7769 8.0501C15.7769 6.7158 15.1251 6 14.0751 6C12.969 6 12.3733 6.84605 12.3733 8.0501C12.3733 9.31936 12.9974 10.0352 14.0751 10.0352Z" fill="currentColor" />
	<path d="M15.901 11.2117C14.721 10.9294 13.1479 10.9294 12.099 11.2117C9.87034 11.7765 10.0015 15.5883 10.0015 18.8353C10.1326 19.9648 10.7881 20.2471 11.3124 20.2471V17.2823C11.3124 15.8706 11.5747 14.4588 11.7058 13.8941C11.7058 13.7529 11.8368 13.7529 11.8368 13.7529V29C11.8368 29 13.41 29 13.5411 27.1647C13.5411 27.1647 13.8034 20.1059 13.8034 19.9648C13.8034 19.8236 13.8034 19.8236 13.9344 19.8236C14.0655 19.8236 14.0655 19.9648 14.0655 19.9648L14.3277 27.0236C14.4589 29 16.032 29 16.032 29V13.7529C16.032 13.7529 16.1631 13.7529 16.1631 13.8941C16.4253 14.3176 16.6875 15.8706 16.6875 17.1412V20.1059C17.2119 20.1059 17.8674 19.8236 17.9985 18.6941C17.9985 15.5883 18.1296 11.7765 15.901 11.2117Z" fill="currentColor" />
	<path d="M2.85 16.5882H0.750004V17.4118C0.900003 17.4118 1.05 17.4118 1.35 17.4118C2.4 17.4118 3 17.8823 3 18.5882C3 19.4118 2.10001 20 0.600005 20H0V19.5294H0.600005C1.5 19.5294 2.10001 19.1765 2.10001 18.7059C2.10001 18.353 1.65 18 0.900003 18C0.600005 18 0.300007 18 0 18V16H2.7V16.5882" fill="currentColor" />
	<path d="M3 17.0741C3 15.8888 4.00002 15 4.99995 15C6.16666 15 7 15.5926 7 16.9259C7 18.1112 5.99998 19 4.99995 19C3.83334 19 3 18.4074 3 17.0741ZM4.99995 18.2592C5.50001 18.2592 5.99998 17.8148 5.99998 16.9259C5.99998 16.1852 5.6667 15.7408 4.99995 15.7408C4.3333 15.8888 4.00002 16.3333 4.00002 17.0741C4.00002 17.963 4.3333 18.2592 4.99995 18.2592Z" fill="currentColor" />
</svg>
