<svg width="17" height="36" viewBox="0 0 17 36" fill="currentColor" xmlns="http://www.w3.org/2000/svg" focusable="false">
	<path d="M16.1707 7H7.18696C6.91057 7 6.77233 7.14286 6.49594 7.28572L0.27645 13.7143C0.138215 14 0 14.1429 0 14.4285V28.1429C0 28.5714 0.414591 29 0.829224 29H16.1707C16.5854 29 17 28.5714 17 28.1429V7.85715C17 7.42858 16.5854 7 16.1707 7ZM14.9268 26.8572H2.07323V15L0.691082 14.5714C0.552837 14.5714 0.552836 14.4285 0.552836 14.4285H6.63418C6.91057 14.4285 7.04882 14.2857 7.04882 14V7.71429C7.04882 7.71429 7.18696 7.71429 7.18696 7.85715L7.60159 9.28572H14.6504V26.8572H14.9268Z" fill="currentColor" />
	<path d="M13.2683 13.1428H8.98374V14.4285H13.2683V13.1428Z" fill="currentColor" />
	<path d="M13.1301 17.5714H6.77233V18.8571H13.1301V17.5714Z" fill="currentColor" />
	<path d="M5.94306 17.5714H3.8699V18.8571H5.94306V17.5714Z" fill="currentColor" />
	<path d="M13.1301 20.1428H6.77233V21.4285H13.1301V20.1428Z" fill="currentColor" />
	<path d="M5.94306 20.1428H3.8699V21.4285H5.94306V20.1428Z" fill="currentColor" />
	<path d="M5.94306 22.8571H3.8699V24.1428H5.94306V22.8571Z" fill="currentColor" />
	<path d="M13.1301 22.8571H6.77233V24.1428H13.1301V22.8571Z" fill="currentColor" />
</svg>
