<svg width="17" height="36" viewBox="0 0 17 36" fill="currentColor" xmlns="http://www.w3.org/2000/svg" focusable="false">
	<path fill-rule="evenodd" clip-rule="evenodd" d="M5.68438 9.27586C5.06764 9.27586 4.53225 8.84247 4.4108 8.23326C4.27646 7.55844 4.27063 6.958 4.26463 6.34878C4.26422 6.30226 4.26373 6.25568 4.26323 6.20902C4.25954 5.87129 4.48829 5.58036 4.80422 5.52487L6.37549 5.24864L6.37483 5.24138C6.37483 4.00351 7.32624 3 8.49982 3C9.6734 3 10.6248 4.00351 10.6248 5.24138C10.6248 5.87134 10.3767 6.43859 9.98005 6.84571C9.97586 6.85279 9.97298 6.86019 9.96863 6.86723C10.0476 6.94864 10.1916 6.92662 10.451 6.70549C10.5739 6.60077 11.0189 6.15483 11.4198 5.38845L12.1955 5.52482C12.5114 5.58036 12.7401 5.87126 12.7365 6.20898C12.7359 6.25563 12.7355 6.30219 12.735 6.3487C12.7291 6.95794 12.7232 7.55843 12.5888 8.23322C12.4675 8.84247 11.9321 9.27586 11.3153 9.27586H5.68438ZM9.45821 5.24138C9.45821 4.68309 9.02914 4.23051 8.49982 4.23051C7.97059 4.23051 7.54143 4.68309 7.54143 5.24138C7.54143 5.79966 7.97059 6.25219 8.49982 6.25219C9.02914 6.25219 9.45821 5.79966 9.45821 5.24138Z" fill="currentColor" />
	<path d="M16.15 6.58621H13.6338C13.6266 7.15467 13.6066 7.74594 13.4728 8.41764C13.4442 8.56087 13.3991 8.69669 13.345 8.82759H14.8749V26.7586H2.12499V8.82759H3.65493C3.60086 8.69665 3.55567 8.56078 3.52716 8.41756C3.39339 7.74591 3.37351 7.15467 3.3662 6.58621H0.849996C0.380587 6.58621 0 6.98764 0 7.48276V28.1034C0 28.5986 0.380587 29 0.849996 29H16.15C16.6175 29 17 28.5964 17 28.1034V7.48276C17 6.98764 16.6194 6.58621 16.15 6.58621Z" fill="currentColor" />
	<path d="M4.86556 15.3813L3.44704 12.8843C3.36315 12.7364 3.39339 12.5462 3.51869 12.4353C3.6435 12.3243 3.82632 12.3259 3.95023 12.4388L5.12127 13.5088L7.06927 11.21C7.18381 11.075 7.3769 11.0541 7.51535 11.162C7.65339 11.2699 7.69078 11.4711 7.60138 11.626L5.43506 15.3832C5.37475 15.488 5.26695 15.5518 5.15101 15.5518H5.14978C5.03335 15.5514 4.92546 15.4867 4.86556 15.3813Z" fill="currentColor" />
	<path d="M7.06919 16.141C7.18373 16.0059 7.37682 15.9851 7.51535 16.093C7.65331 16.2009 7.69069 16.402 7.60138 16.5569L5.43506 20.3141C5.37467 20.4189 5.26686 20.4827 5.15093 20.4827H5.14969C5.03326 20.4823 4.92546 20.4176 4.86556 20.3122L3.44704 17.8152C3.36315 17.6673 3.39339 17.4771 3.51869 17.3663C3.6435 17.2553 3.82632 17.2568 3.95015 17.3698L5.12118 18.4397L7.06919 16.141Z" fill="currentColor" />
	<path d="M7.06919 21.072L5.12118 23.3708L3.95015 22.3009C3.82632 22.1879 3.6435 22.1864 3.51869 22.2974C3.39339 22.4082 3.36315 22.5984 3.44704 22.7462L4.86556 25.2434C4.92546 25.3487 5.03326 25.4134 5.14969 25.4138H5.15093C5.26686 25.4138 5.37467 25.35 5.43506 25.2452L7.60138 21.4879C7.69069 21.3331 7.65331 21.1319 7.51535 21.024C7.3769 20.9161 7.18373 20.937 7.06919 21.072Z" fill="currentColor" />
	<path d="M8.92497 12.4138H14.025V13.7586H8.92497V12.4138Z" fill="currentColor" />
	<path d="M14.025 17.3449H8.92497V18.6897H14.025V17.3449Z" fill="currentColor" />
	<path d="M8.92497 22.2759H14.025V23.6207H8.92497V22.2759Z" fill="currentColor" />
</svg>
