<svg width="37" height="36" fill="none" xmlns="http://www.w3.org/2000/svg">
  <path fill-rule="evenodd" clip-rule="evenodd" d="m27.115 20.497-.102.708c-.123.587-.534 1.122-1.204 1.175l-2.472.197c-.148.014-.27-.12-.234-.257l.275-1.019c.14-.426.47-.765.905-.934l2.002-.556c.443-.124.893.249.83.686ZM15.98 24.375h5.041v-1.26h-5.04v1.26Zm-2.316-1.798-2.473-.197c-.67-.053-1.08-.588-1.203-1.175l-.103-.707c-.063-.438.388-.81.832-.687l2.002.556c.434.169.764.508.903.934l.275 1.02c.037.135-.084.27-.234.256Zm-.666-10.91c.247-.123 2.056-.332 5.503-.332 3.449 0 5.259.21 5.504.332.245.416 1.024 3.104 1.246 4.19-1.226.34-4.02.573-6.75.573-2.729 0-5.523-.232-6.75-.572.223-1.087 1.003-3.775 1.247-4.191Zm14.952 5.327c.497-.343.81-.752.9-.954.184-.424.063-1.157-.646-1.294-.313-.062-.907-.004-1.432.07-.406-1.464-1.112-3.844-1.525-4.273-.429-.45-1.698-.723-4.225-.822V8.538a.466.466 0 0 0-.42-.456 26.956 26.956 0 0 0-4.202 0 .468.468 0 0 0-.42.456V9.72c-2.527.1-3.796.373-4.225.822-.413.43-1.12 2.809-1.525 4.274-.525-.075-1.119-.133-1.432-.071-.71.137-.83.87-.645 1.294.088.202.402.611.9.954C8.24 18.088 8 19.038 8 20.806v4.83s0 1.413.197 2.354c.073.341.39.585.756.585h2.714a.761.761 0 0 0 .756-.585c.11-.525.16-1.198.18-1.689l-2.575-.512c-.132-.043-.112-.13-.104-.154h17.152c.01.025.028.111-.104.154l-2.576.512c.022.49.072 1.164.18 1.689.074.341.39.585.757.585h2.714a.761.761 0 0 0 .756-.585c.197-.941.197-2.355.197-2.355v-4.829c0-1.768-.239-2.718-1.05-3.812Z" fill="#000"/>
</svg>
