<svg width="28" height="36" viewBox="0 0 28 36" fill="currentColor" xmlns="http://www.w3.org/2000/svg" focusable="false">
	<path d="M20.2733 13.6532C20.4347 13.7582 20.5606 13.84 20.6581 13.9128C21.2866 14.3825 20.8883 14.8354 20.7207 14.9999C20.4197 15.2961 19.9925 15.6357 19.9925 15.6357C19.9925 15.6357 19.9952 15.9521 20.1752 16.2393C20.2354 16.3352 20.2974 16.4062 20.352 16.4688C20.4942 16.6317 20.5856 16.7364 20.4602 17.0697C20.3502 17.3624 20.0284 17.6157 20.0284 17.6157C20.0284 17.6157 20.2056 17.7569 20.3529 17.9386C20.6552 18.3108 20.5227 18.5009 20.3217 18.7891C20.2984 18.8225 20.2739 18.8577 20.2494 18.8942C20.0909 19.1299 19.9335 19.4369 20.0072 19.7327C20.3487 21.1035 19.5989 21.7643 18.3576 21.8642C16.0204 22.0528 14.6927 21.4147 14.6927 21.4147C14.6906 21.4184 14.6878 21.4222 14.6849 21.4263C14.6585 21.4624 14.6134 21.5242 14.8782 21.7118C15.3579 22.0519 16.0521 22.4017 17.1979 22.5048C17.1979 22.5048 17.1612 23.5446 17.441 25H12.6339V12.6991C12.6339 11.528 11.6666 10.4765 10.4323 10.3053C8.80174 10.0851 7.14803 9.97384 5.51372 9.97384C5.01049 9.97384 4.50544 9.988 4 10.0086C4.7601 8.36775 6.52149 6.35511 10.6202 5.33419C15.9826 3.99902 16.8232 7.02914 16.547 8.0273C16.547 8.0273 17.8922 9.88583 18.0607 10.7642C18.0966 10.9512 18.1243 11.1389 18.1503 11.3155C18.2098 11.7185 18.2606 12.0638 18.3816 12.211C18.6016 12.4794 19.1118 12.8632 19.5989 13.2019C19.8735 13.3932 20.0951 13.5373 20.2733 13.6532Z" fill="currentColor" />
	<path d="M23.5908 17.6335L27.9206 20.6702C28.0148 20.7363 28.0268 20.854 27.9478 20.9331C27.8688 21.0123 27.7276 21.0227 27.6333 20.9562L23.3036 17.9196C23.1597 17.9617 22.9959 17.9472 22.8703 17.8595L21.1595 16.6594C20.9705 16.5268 20.946 16.2912 21.1046 16.1334C21.2631 15.9754 21.545 15.9548 21.7339 16.0874L23.4447 17.2875C23.5698 17.3752 23.6154 17.5077 23.5908 17.6335Z" fill="currentColor" />
	<path d="M5.60194 22C5.40292 21.9988 5.23076 21.8974 5.11885 21.7497C3.96631 20.2306 3.07535 19.0096 3.07676 19.0101C2.93799 18.7965 2.99162 18.5246 3.2033 18.3666C3.41499 18.2087 3.72311 18.2117 3.93103 18.3734L5.55485 19.6577L8.01797 17.1685C8.21077 16.9747 8.53684 16.9439 8.7706 17.0979C9.00395 17.2524 9.06929 17.5408 8.92015 17.7642C8.92015 17.7642 7.86645 19.2309 6.08782 21.7544C5.98203 21.9042 5.80282 22 5.60474 22H5.60194Z" fill="currentColor" />
	<path fill-rule="evenodd" clip-rule="evenodd" d="M10.6329 11.317C7.56045 10.8943 4.46978 10.8943 1.39733 11.317C0.606661 11.4285 0 12.1268 0 12.8357V28.1642C0 28.8732 0.636889 29.5715 1.42755 29.683C4.5 30.1057 7.56045 30.1057 10.6334 29.683C11.4235 29.5715 12 28.8732 12 28.1642V12.8357C12 12.1268 11.4235 11.4285 10.6329 11.317ZM6.00002 28.936C5.40358 28.936 4.92002 28.4766 4.92002 27.91C4.92002 27.3434 5.40358 26.884 6.00002 26.884C6.59646 26.884 7.08002 27.3434 7.08002 27.91C7.08002 28.4766 6.59646 28.936 6.00002 28.936ZM10.2222 25.7778H1.77777V13.5333H10.2222V25.7778Z" fill="currentColor" />
</svg>
