<svg fill="currentColor" height="36" viewBox="0 0 22 36" width="22" xmlns="http://www.w3.org/2000/svg" focusable="false">
	<g fill="currentColor">
		<path clip-rule="evenodd" d="m19 21.4894h-12.83328c-.66677 0-1.00004.3405-1.00004 1.0213 0 .851.66665 1.0212 1.00004 1.0212 6.16668.1703 13.33328.3405 13.33328.3405 1.1667 0 1.1667 1.8723 0 1.8723h-13.50003c-2.16661 0-3.16662-1.5319-3.16662-3.4042 0-2.383 2.00005-2.8937 2.00005-2.8937l-1.50006-11.06382c-1.33332 0-3.33334-.17021-3.33334-1.36169 0-.51064.499977-1.02129.999965-1.02129h2.666755c.66655 0 1.33332.51065 1.33332 1.19148l.16664 1.8724h15.50002c1.3333 0 1.3333 1.36172 1.3333 1.36172s-.8333 7.4894-1.1667 9.1914c-.3334 2.0426-1.8333 1.8724-1.8333 1.8724zm-12.33337-2.0426h2.66663v-3.4043h-3.16654zm13.50007-8.6809h-3.6667v3.4044h2.5s.1666.5106.3333 1.1915c0 .1702.1667.1702.1667.1702zm-.8334 5.2766h-2.8333v3.4043h2.3333zm-4.6667-5.2766h-3.3332v3.4044h2.6666s.1666.6808.5 1.1915c0 .1702.1666.1702.1666.1702zm0 5.2766h-3.3332v3.4043h3.3332zm-5.16659-.5105v-4.7661h-4.00006l.50002 3.4044h2.83338s.16664.6808.49991 1.1915c0 .1702.16675.1702.16675.1702z" fill-rule="evenodd" />
		<path d="m5.66659 26.2554c-.99994 0-1.83323.851-1.83323 1.8724 0 1.0212.83329 1.8722 1.83323 1.8722 1.00004 0 1.83345-.851 1.83345-1.8722 0-1.0214-.83341-1.8724-1.83345-1.8724z" />
		<path d="m17.9999 26.2554c-.9999 0-1.8332.851-1.8332 1.8724 0 1.0212.8333 1.8722 1.8332 1.8722 1.0001 0 1.8335-.851 1.8335-1.8722 0-1.0214-.8334-1.8724-1.8335-1.8724z" />
	</g>
</svg>
